<svg width="179" height="40" viewBox="0 0 179 40" fill="none" xmlns="http://www.w3.org/2000/svg">
<rect width="179" height="40" rx="2" fill="#3C8AE9"/>
<path d="M17.3334 20.7376H13.9451C13.4309 20.7388 12.9381 20.9435 12.5745 21.3068C12.2109 21.67 12.0061 22.1624 12.0049 22.6761V26.0615C12.0061 26.5752 12.2109 27.0676 12.5745 27.4308C12.9381 27.7941 13.4309 27.9988 13.9451 28H17.3334C17.8476 27.9988 18.3404 27.7941 18.704 27.4308C19.0676 27.0676 19.2725 26.5752 19.2737 26.0615V22.6761C19.2725 22.1624 19.0676 21.67 18.704 21.3068C18.3404 20.9435 17.8476 20.7388 17.3334 20.7376V20.7376ZM18.0859 26.0615C18.0859 26.1602 18.0664 26.258 18.0286 26.3492C17.9908 26.4404 17.9354 26.5232 17.8655 26.5931C17.7956 26.6629 17.7127 26.7182 17.6214 26.756C17.5301 26.7938 17.4323 26.8132 17.3334 26.8132H13.9451C13.8463 26.8132 13.7484 26.7938 13.6572 26.756C13.5659 26.7182 13.4829 26.6629 13.4131 26.5931C13.3432 26.5232 13.2877 26.4404 13.2499 26.3492C13.2121 26.258 13.1927 26.1602 13.1927 26.0615V22.6761C13.1927 22.4767 13.2719 22.2855 13.4131 22.1445C13.5542 22.0036 13.7456 21.9244 13.9451 21.9244H17.3334C17.533 21.9244 17.7244 22.0036 17.8655 22.1445C18.0066 22.2855 18.0859 22.4767 18.0859 22.6761V26.0615Z" fill="white"/>
<path d="M26.0834 18.0142H21.9947V13.9385C21.9934 13.4248 21.7886 12.9324 21.425 12.5692C21.0614 12.2059 20.5686 12.0012 20.0544 12H13.9403C13.4261 12.0012 12.9333 12.2059 12.5697 12.5692C12.2061 12.9324 12.0012 13.4248 12 13.9385V17.2482C12.0012 17.762 12.2061 18.2543 12.5697 18.6176C12.9333 18.9809 13.4261 19.1855 13.9403 19.1868H20.8069V26.0426C20.8081 26.5563 21.0129 27.0486 21.3765 27.4119C21.7401 27.7752 22.2329 27.9798 22.7471 27.9811H26.0597C26.5739 27.9798 27.0667 27.7752 27.4303 27.4119C27.7939 27.0486 27.9988 26.5563 28 26.0426V19.9527C27.9988 19.443 27.7972 18.9542 27.4387 18.5916C27.0802 18.229 26.5935 18.0216 26.0834 18.0142ZM13.9403 18.0142C13.8402 18.0142 13.7412 17.9943 13.649 17.9556C13.5568 17.917 13.4732 17.8603 13.4031 17.789C13.3331 17.7177 13.2779 17.6331 13.241 17.5403C13.204 17.4474 13.1859 17.3481 13.1878 17.2482V13.9385C13.1878 13.7392 13.2671 13.5479 13.4082 13.407C13.5493 13.266 13.7407 13.1868 13.9403 13.1868H20.0497C20.1489 13.1861 20.2473 13.2051 20.3391 13.2426C20.4309 13.2801 20.5144 13.3354 20.5848 13.4053C20.6552 13.4751 20.711 13.5582 20.7491 13.6498C20.7873 13.7413 20.8069 13.8394 20.8069 13.9385V18.0189H13.9403V18.0142ZM26.8359 26.052C26.8359 26.2514 26.7566 26.4426 26.6155 26.5836C26.4744 26.7246 26.283 26.8038 26.0834 26.8038H22.7708C22.5712 26.8038 22.3798 26.7246 22.2387 26.5836C22.0976 26.4426 22.0183 26.2514 22.0183 26.052V19.1962H26.1071C26.3066 19.1962 26.498 19.2754 26.6391 19.4164C26.7802 19.5574 26.8595 19.7486 26.8595 19.948L26.8359 26.052Z" fill="white"/>
<path d="M40.8622 21.6989H42.3736L43.4375 23.0859L43.9396 23.7024L45.6349 25.9148H44.0639L42.9304 24.4382L42.5426 23.9013L40.8622 21.6989ZM45.9631 19.9091C45.9631 20.9962 45.7642 21.9309 45.3665 22.7131C44.9688 23.492 44.4235 24.0919 43.7308 24.5128C43.0414 24.9304 42.2576 25.1392 41.3793 25.1392C40.4976 25.1392 39.7105 24.9304 39.0178 24.5128C38.3284 24.0919 37.7848 23.4903 37.3871 22.7081C36.9893 21.9259 36.7905 20.9929 36.7905 19.9091C36.7905 18.822 36.9893 17.889 37.3871 17.1101C37.7848 16.3279 38.3284 15.728 39.0178 15.3104C39.7105 14.8894 40.4976 14.679 41.3793 14.679C42.2576 14.679 43.0414 14.8894 43.7308 15.3104C44.4235 15.728 44.9688 16.3279 45.3665 17.1101C45.7642 17.889 45.9631 18.822 45.9631 19.9091ZM44.4418 19.9091C44.4418 19.0805 44.3075 18.3828 44.0391 17.8161C43.7739 17.246 43.4093 16.8151 42.9453 16.5234C42.4846 16.2285 41.9626 16.081 41.3793 16.081C40.7926 16.081 40.2689 16.2285 39.8082 16.5234C39.3475 16.8151 38.983 17.246 38.7145 17.8161C38.4493 18.3828 38.3168 19.0805 38.3168 19.9091C38.3168 20.7377 38.4493 21.437 38.7145 22.0071C38.983 22.5739 39.3475 23.0047 39.8082 23.2997C40.2689 23.5914 40.7926 23.7372 41.3793 23.7372C41.9626 23.7372 42.4846 23.5914 42.9453 23.2997C43.4093 23.0047 43.7739 22.5739 44.0391 22.0071C44.3075 21.437 44.4418 20.7377 44.4418 19.9091ZM52.5964 21.8331V17.3636H54.0879V25H52.6262V23.6776H52.5467C52.371 24.0852 52.0893 24.425 51.7015 24.6967C51.3171 24.9652 50.8381 25.0994 50.2647 25.0994C49.7742 25.0994 49.34 24.9917 48.9622 24.7763C48.5877 24.5575 48.2927 24.2344 48.0772 23.8068C47.8651 23.3793 47.7591 22.8506 47.7591 22.2209V17.3636H49.2456V22.0419C49.2456 22.5623 49.3897 22.9766 49.6781 23.2848C49.9664 23.593 50.341 23.7472 50.8017 23.7472C51.0801 23.7472 51.3568 23.6776 51.6319 23.5384C51.9103 23.3991 52.1407 23.1887 52.323 22.907C52.5086 22.6252 52.5997 22.2673 52.5964 21.8331ZM56.0852 25V17.3636H57.5717V25H56.0852ZM56.8359 16.1854C56.5774 16.1854 56.3554 16.0992 56.1697 15.9268C55.9875 15.7512 55.8963 15.5424 55.8963 15.3004C55.8963 15.0552 55.9875 14.8464 56.1697 14.674C56.3554 14.4983 56.5774 14.4105 56.8359 14.4105C57.0945 14.4105 57.3149 14.4983 57.4972 14.674C57.6828 14.8464 57.7756 15.0552 57.7756 15.3004C57.7756 15.5424 57.6828 15.7512 57.4972 15.9268C57.3149 16.0992 57.0945 16.1854 56.8359 16.1854ZM62.7882 25.1541C62.0491 25.1541 61.4127 24.9867 60.8791 24.652C60.3488 24.3139 59.9411 23.8482 59.6561 23.255C59.371 22.6617 59.2285 21.9822 59.2285 21.2166C59.2285 20.4411 59.3743 19.7566 59.666 19.1634C59.9577 18.5668 60.3687 18.1011 60.899 17.7663C61.4293 17.4316 62.054 17.2642 62.7733 17.2642C63.3533 17.2642 63.8703 17.3719 64.3244 17.5874C64.7785 17.7995 65.1447 18.0978 65.4231 18.4822C65.7048 18.8667 65.8722 19.3158 65.9252 19.8295H64.4785C64.399 19.4716 64.2167 19.1634 63.9316 18.9048C63.6499 18.6463 63.2721 18.517 62.7981 18.517C62.3838 18.517 62.0209 18.6264 61.7093 18.8452C61.4011 19.0606 61.1608 19.3688 60.9885 19.7699C60.8161 20.1676 60.7299 20.6383 60.7299 21.1818C60.7299 21.7386 60.8145 22.2192 60.9835 22.6236C61.1525 23.0279 61.3912 23.3411 61.6994 23.5632C62.0109 23.7853 62.3772 23.8963 62.7981 23.8963C63.0798 23.8963 63.335 23.8449 63.5637 23.7422C63.7958 23.6361 63.9896 23.4853 64.1454 23.2898C64.3045 23.0942 64.4155 22.8589 64.4785 22.5838H65.9252C65.8722 23.0777 65.7115 23.5185 65.443 23.9062C65.1745 24.294 64.8149 24.599 64.3642 24.821C63.9167 25.0431 63.3914 25.1541 62.7882 25.1541ZM68.8821 22.4098L68.8722 20.5952H69.1307L72.1733 17.3636H73.9531L70.483 21.0426H70.2493L68.8821 22.4098ZM67.5149 25V14.8182H69.0014V25H67.5149ZM72.3374 25L69.603 21.3707L70.6271 20.3317L74.1619 25H72.3374ZM81.0302 19.228L79.6829 19.4666C79.6265 19.2943 79.5371 19.1302 79.4144 18.9744C79.2951 18.8187 79.1327 18.6911 78.9272 18.5916C78.7217 18.4922 78.4648 18.4425 78.1566 18.4425C77.7357 18.4425 77.3844 18.5369 77.1026 18.7259C76.8209 18.9115 76.68 19.1518 76.68 19.4467C76.68 19.7019 76.7745 19.9074 76.9634 20.0632C77.1523 20.219 77.4573 20.3466 77.8782 20.446L79.0913 20.7244C79.7939 20.8868 80.3176 21.1371 80.6623 21.4751C81.007 21.8132 81.1793 22.2524 81.1793 22.7926C81.1793 23.25 81.0468 23.6577 80.7816 24.0156C80.5198 24.3703 80.1535 24.6487 79.6829 24.8509C79.2156 25.053 78.6737 25.1541 78.0572 25.1541C77.2021 25.1541 76.5044 24.9718 75.9641 24.6072C75.4239 24.2393 75.0924 23.7173 74.9698 23.0412L76.4066 22.8224C76.4961 23.197 76.68 23.4804 76.9585 23.6726C77.2369 23.8615 77.5998 23.956 78.0472 23.956C78.5344 23.956 78.9239 23.8549 79.2156 23.6527C79.5072 23.4472 79.6531 23.197 79.6531 22.902C79.6531 22.6634 79.5636 22.4628 79.3846 22.3004C79.2089 22.138 78.9388 22.0154 78.5742 21.9325L77.2816 21.6491C76.569 21.4867 76.042 21.2282 75.7006 20.8736C75.3626 20.5189 75.1935 20.0698 75.1935 19.5263C75.1935 19.0755 75.3195 18.6811 75.5714 18.343C75.8233 18.005 76.1713 17.7415 76.6154 17.5526C77.0595 17.3603 77.5683 17.2642 78.1417 17.2642C78.967 17.2642 79.6166 17.4432 80.0906 17.8011C80.5645 18.1558 80.8777 18.6314 81.0302 19.228ZM86.3784 17.3636V18.5568H82.2072V17.3636H86.3784ZM83.3258 15.5341H84.8123V22.7578C84.8123 23.0462 84.8554 23.2633 84.9416 23.4091C85.0278 23.5516 85.1388 23.6494 85.2747 23.7024C85.4139 23.7521 85.5647 23.777 85.7271 23.777C85.8464 23.777 85.9508 23.7687 86.0403 23.7521C86.1298 23.7356 86.1994 23.7223 86.2491 23.7124L86.5176 24.9403C86.4314 24.9735 86.3088 25.0066 86.1497 25.0398C85.9906 25.0762 85.7917 25.0961 85.5531 25.0994C85.162 25.1061 84.7974 25.0365 84.4593 24.8906C84.1213 24.7448 83.8478 24.5194 83.639 24.2145C83.4302 23.9096 83.3258 23.5268 83.3258 23.0661V15.5341ZM90.245 25.169C89.7611 25.169 89.3236 25.0795 88.9325 24.9006C88.5414 24.7183 88.2315 24.4548 88.0028 24.1101C87.7775 23.7654 87.6648 23.3428 87.6648 22.8423C87.6648 22.4115 87.7476 22.0568 87.9134 21.7784C88.0791 21.5 88.3028 21.2796 88.5845 21.1172C88.8662 20.9548 89.1811 20.8321 89.5291 20.7493C89.8771 20.6664 90.2318 20.6035 90.593 20.5604C91.0504 20.5073 91.4216 20.4643 91.7067 20.4311C91.9917 20.3946 92.1989 20.3366 92.3281 20.2571C92.4574 20.1776 92.522 20.0483 92.522 19.8693V19.8345C92.522 19.4003 92.3994 19.0639 92.1541 18.8253C91.9122 18.5866 91.5509 18.4673 91.0703 18.4673C90.5698 18.4673 90.1754 18.5784 89.8871 18.8004C89.602 19.0192 89.4048 19.2628 89.2955 19.5312L87.8984 19.2131C88.0642 18.7491 88.3061 18.3745 88.6243 18.0895C88.9458 17.8011 89.3153 17.5923 89.733 17.4631C90.1506 17.3305 90.5897 17.2642 91.0504 17.2642C91.3554 17.2642 91.6785 17.3007 92.0199 17.3736C92.3646 17.4432 92.6861 17.5724 92.9844 17.7614C93.286 17.9503 93.5329 18.2204 93.7251 18.5717C93.9174 18.9197 94.0135 19.3722 94.0135 19.929V25H92.5618V23.956H92.5021C92.406 24.1482 92.2618 24.3371 92.0696 24.5227C91.8774 24.7083 91.6304 24.8625 91.3288 24.9851C91.0272 25.1077 90.666 25.169 90.245 25.169ZM90.5682 23.9759C90.9792 23.9759 91.3305 23.8946 91.6222 23.7322C91.9171 23.5698 92.1409 23.3577 92.2933 23.0959C92.4491 22.8307 92.527 22.5473 92.527 22.2457V21.2614C92.474 21.3144 92.3712 21.3641 92.2188 21.4105C92.0696 21.4536 91.8989 21.4917 91.7067 21.5249C91.5144 21.5547 91.3272 21.5829 91.1449 21.6094C90.9626 21.6326 90.8101 21.6525 90.6875 21.669C90.3991 21.7055 90.1357 21.7668 89.897 21.853C89.6617 21.9392 89.4728 22.0634 89.3303 22.2259C89.1911 22.3849 89.1214 22.5971 89.1214 22.8622C89.1214 23.2301 89.2573 23.5085 89.5291 23.6974C89.8009 23.883 90.1473 23.9759 90.5682 23.9759ZM95.9934 25V17.3636H97.4302V18.5767H97.5098C97.649 18.1657 97.8942 17.8426 98.2456 17.6072C98.6002 17.3686 99.0012 17.2493 99.4487 17.2493C99.5415 17.2493 99.6509 17.2526 99.7768 17.2592C99.9061 17.2659 100.007 17.2741 100.08 17.2841V18.706C100.02 18.6894 99.9144 18.6712 99.7619 18.6513C99.6094 18.6281 99.457 18.6165 99.3045 18.6165C98.9532 18.6165 98.64 18.6911 98.3649 18.8402C98.0931 18.986 97.8777 19.1899 97.7186 19.4517C97.5595 19.7102 97.4799 20.0052 97.4799 20.3366V25H95.9934ZM105.382 17.3636V18.5568H101.211V17.3636H105.382ZM102.33 15.5341H103.816V22.7578C103.816 23.0462 103.859 23.2633 103.945 23.4091C104.032 23.5516 104.143 23.6494 104.279 23.7024C104.418 23.7521 104.569 23.777 104.731 23.777C104.85 23.777 104.955 23.7687 105.044 23.7521C105.134 23.7356 105.203 23.7223 105.253 23.7124L105.521 24.9403C105.435 24.9735 105.313 25.0066 105.154 25.0398C104.994 25.0762 104.796 25.0961 104.557 25.0994C104.166 25.1061 103.801 25.0365 103.463 24.8906C103.125 24.7448 102.852 24.5194 102.643 24.2145C102.434 23.9096 102.33 23.5268 102.33 23.0661V15.5341ZM112.387 25L110.14 17.3636H111.676L113.173 22.9716H113.247L114.749 17.3636H116.285L117.776 22.9467H117.851L119.338 17.3636H120.874L118.632 25H117.115L115.564 19.4865H115.45L113.899 25H112.387ZM122.284 25V17.3636H123.771V25H122.284ZM123.035 16.1854C122.777 16.1854 122.555 16.0992 122.369 15.9268C122.187 15.7512 122.096 15.5424 122.096 15.3004C122.096 15.0552 122.187 14.8464 122.369 14.674C122.555 14.4983 122.777 14.4105 123.035 14.4105C123.294 14.4105 123.514 14.4983 123.696 14.674C123.882 14.8464 123.975 15.0552 123.975 15.3004C123.975 15.5424 123.882 15.7512 123.696 15.9268C123.514 16.0992 123.294 16.1854 123.035 16.1854ZM129.335 17.3636V18.5568H125.164V17.3636H129.335ZM126.283 15.5341H127.769V22.7578C127.769 23.0462 127.812 23.2633 127.899 23.4091C127.985 23.5516 128.096 23.6494 128.232 23.7024C128.371 23.7521 128.522 23.777 128.684 23.777C128.803 23.777 128.908 23.7687 128.997 23.7521C129.087 23.7356 129.156 23.7223 129.206 23.7124L129.475 24.9403C129.388 24.9735 129.266 25.0066 129.107 25.0398C128.948 25.0762 128.749 25.0961 128.51 25.0994C128.119 25.1061 127.754 25.0365 127.416 24.8906C127.078 24.7448 126.805 24.5194 126.596 24.2145C126.387 23.9096 126.283 23.5268 126.283 23.0661V15.5341ZM132.63 20.4659V25H131.144V14.8182H132.61V18.6065H132.705C132.884 18.1955 133.157 17.8691 133.525 17.6271C133.893 17.3852 134.374 17.2642 134.967 17.2642C135.491 17.2642 135.948 17.3719 136.339 17.5874C136.734 17.8028 137.038 18.1243 137.254 18.5518C137.473 18.9761 137.582 19.5064 137.582 20.1428V25H136.096V20.3217C136.096 19.7616 135.951 19.3274 135.663 19.0192C135.375 18.7076 134.974 18.5518 134.46 18.5518C134.109 18.5518 133.794 18.6264 133.515 18.7756C133.24 18.9247 133.023 19.1435 132.864 19.4318C132.708 19.7169 132.63 20.0616 132.63 20.4659ZM143.39 25V14.8182H147.019C147.808 14.8182 148.463 14.9541 148.983 15.2259C149.507 15.4976 149.898 15.8738 150.156 16.3544C150.415 16.8317 150.544 17.3835 150.544 18.0099C150.544 18.633 150.413 19.1816 150.151 19.6555C149.893 20.1262 149.502 20.4924 148.978 20.7543C148.458 21.0161 147.803 21.147 147.014 21.147H144.265V19.8246H146.875C147.372 19.8246 147.777 19.7533 148.088 19.6108C148.403 19.4683 148.633 19.2611 148.779 18.9893C148.925 18.7176 148.998 18.3911 148.998 18.0099C148.998 17.6255 148.923 17.2924 148.774 17.0107C148.628 16.7289 148.398 16.5135 148.083 16.3643C147.772 16.2119 147.362 16.1357 146.855 16.1357H144.926V25H143.39ZM148.416 20.4062L150.932 25H149.182L146.716 20.4062H148.416ZM154.517 25.169C154.033 25.169 153.595 25.0795 153.204 24.9006C152.813 24.7183 152.503 24.4548 152.274 24.1101C152.049 23.7654 151.936 23.3428 151.936 22.8423C151.936 22.4115 152.019 22.0568 152.185 21.7784C152.351 21.5 152.574 21.2796 152.856 21.1172C153.138 20.9548 153.453 20.8321 153.801 20.7493C154.149 20.6664 154.503 20.6035 154.865 20.5604C155.322 20.5073 155.693 20.4643 155.978 20.4311C156.263 20.3946 156.47 20.3366 156.6 20.2571C156.729 20.1776 156.794 20.0483 156.794 19.8693V19.8345C156.794 19.4003 156.671 19.0639 156.426 18.8253C156.184 18.5866 155.822 18.4673 155.342 18.4673C154.841 18.4673 154.447 18.5784 154.159 18.8004C153.874 19.0192 153.676 19.2628 153.567 19.5312L152.17 19.2131C152.336 18.7491 152.578 18.3745 152.896 18.0895C153.217 17.8011 153.587 17.5923 154.004 17.4631C154.422 17.3305 154.861 17.2642 155.322 17.2642C155.627 17.2642 155.95 17.3007 156.291 17.3736C156.636 17.4432 156.958 17.5724 157.256 17.7614C157.557 17.9503 157.804 18.2204 157.997 18.5717C158.189 18.9197 158.285 19.3722 158.285 19.929V25H156.833V23.956H156.774C156.677 24.1482 156.533 24.3371 156.341 24.5227C156.149 24.7083 155.902 24.8625 155.6 24.9851C155.299 25.1077 154.937 25.169 154.517 25.169ZM154.84 23.9759C155.251 23.9759 155.602 23.8946 155.894 23.7322C156.189 23.5698 156.412 23.3577 156.565 23.0959C156.721 22.8307 156.798 22.5473 156.798 22.2457V21.2614C156.745 21.3144 156.643 21.3641 156.49 21.4105C156.341 21.4536 156.17 21.4917 155.978 21.5249C155.786 21.5547 155.599 21.5829 155.416 21.6094C155.234 21.6326 155.082 21.6525 154.959 21.669C154.671 21.7055 154.407 21.7668 154.169 21.853C153.933 21.9392 153.744 22.0634 153.602 22.2259C153.463 22.3849 153.393 22.5971 153.393 22.8622C153.393 23.2301 153.529 23.5085 153.801 23.6974C154.072 23.883 154.419 23.9759 154.84 23.9759ZM160.931 27.8636C160.709 27.8636 160.507 27.8454 160.325 27.8089C160.142 27.7758 160.006 27.7393 159.917 27.6996L160.275 26.4815C160.547 26.5545 160.789 26.5859 161.001 26.576C161.213 26.5661 161.4 26.4865 161.562 26.3374C161.728 26.1882 161.874 25.9446 162 25.6065L162.184 25.0994L159.39 17.3636H160.981L162.915 23.2898H162.994L164.928 17.3636H166.524L163.377 26.0192C163.231 26.4169 163.046 26.7533 162.82 27.0284C162.595 27.3068 162.326 27.5156 162.015 27.6548C161.703 27.794 161.342 27.8636 160.931 27.8636Z" fill="white"/>
</svg>
