<svg width="400" height="201" viewBox="0 0 400 201" xmlns="http://www.w3.org/2000/svg">
<path id="ray-text" d="M325.949 134.356V109.785L302.442 66.6406H314.244L330.495 97.3062H331.946L348.198 66.6406H360L336.493 109.785V134.356H325.949ZM253.043 134.364L272.391 66.648H290.771L310.021 134.364H299.283L294.834 118.402H268.328L263.878 134.364H253.043ZM270.94 108.728H292.222L282.354 73.1294H280.807L270.94 108.728ZM198.887 134.364V66.648H227.327C231.519 66.648 235.195 67.3896 238.355 68.8729C241.58 70.2918 244.063 72.3555 245.804 75.0641C247.61 77.7727 248.513 80.9973 248.513 84.7378V85.8019C248.513 90.0583 247.481 93.4763 245.417 96.0559C243.418 98.5711 240.967 100.345 238.065 101.376V102.924C240.516 103.053 242.483 103.892 243.966 105.439C245.449 106.923 246.191 109.083 246.191 111.921V134.364H235.647V113.372C235.647 111.631 235.195 110.244 234.292 109.212C233.39 108.18 231.938 107.664 229.939 107.664H209.334V134.364H198.887ZM209.334 98.1842H226.166C229.907 98.1842 232.809 97.249 234.873 95.3788C236.937 93.4441 237.968 90.8322 237.968 87.5431V86.7692C237.968 83.4802 236.937 80.9005 234.873 79.0303C232.874 77.0956 229.971 76.1282 226.166 76.1282H209.334V98.1842Z" fill="black"/>
<path fill-rule="evenodd" clip-rule="evenodd" d="M143.63 101.311L98.3087 146.632L94.9903 143.313L140.311 97.9925L143.63 101.311ZM141.953 102.334L51.4454 102.334V97.6409L141.953 97.6409V102.334ZM94.992 55.9863L140.313 101.307L143.631 97.9886L98.3105 52.6679L94.992 55.9863Z" fill="#02A0CF"/>
<path d="M40 88.3163H62.6604V110.977H40V88.3163ZM85.3207 88.3163H107.981V110.977H85.3207V88.3163ZM85.3207 43H107.981V65.6604H85.3207V43ZM85.3207 133.645H107.981V156.306H85.3207V133.645ZM130.641 88.3163H153.301V110.977H130.641V88.3163Z" fill="#02A0CF"/>
</svg>
