<svg
   id="svg"
   version="1.1"
   viewBox="0, 0, 400,200.13540961408262"
   xmlns="http://www.w3.org/2000/svg"
   xmlns:svg="http://www.w3.org/2000/svg">
  <g id="g1">
    <path id="ray-text" d="m 102.875,36.782 c 0.16,0.041 0.423,0.041 0.583,0 0.161,-0.042 0.029,-0.077 -0.291,-0.077 -0.321,0 -0.452,0.035 -0.292,0.077 m 89.958,63.206 v 30.345 h 3.584 3.583 v -9.487 -9.487 l 9.958,-0.059 c 10.822,-0.064 10.056,-0.121 10.664,0.804 0.113,0.172 0.394,0.597 0.625,0.945 0.231,0.348 0.42,0.693 0.42,0.766 0,0.073 0.15,0.269 0.333,0.435 0.183,0.166 0.333,0.358 0.333,0.427 0,0.069 0.366,0.676 0.814,1.349 0.925,1.393 2.687,4.088 2.936,4.493 0.092,0.149 0.312,0.486 0.489,0.751 1.348,2.013 2.261,3.416 2.261,3.474 0,0.038 0.338,0.561 0.75,1.164 0.413,0.602 0.755,1.151 0.761,1.219 0.006,0.067 0.267,0.46 0.58,0.873 0.313,0.412 0.692,0.975 0.843,1.25 0.622,1.138 0.378,1.083 4.846,1.083 h 4.062 l -0.254,-0.458 c -0.139,-0.252 -0.677,-1.058 -1.196,-1.792 -1.001,-1.416 -1.194,-1.694 -5.308,-7.666 -1.452,-2.109 -2.684,-3.871 -2.737,-3.917 -0.053,-0.046 -0.172,-0.213 -0.263,-0.372 -0.326,-0.563 -2.842,-4.226 -3.541,-5.154 -0.969,-1.287 -1.025,-1.162 0.832,-1.838 0.726,-0.263 2.976,-1.446 3.305,-1.737 0.145,-0.128 0.319,-0.232 0.388,-0.232 0.287,0 2.659,-2.095 3.515,-3.105 3.686,-4.345 5.22,-10.506 4.352,-17.484 -0.442,-3.559 -1.381,-5.956 -3.555,-9.078 -0.491,-0.706 -3.235,-3.333 -3.481,-3.333 -0.128,0 -0.232,-0.062 -0.232,-0.136 0,-0.075 -0.319,-0.313 -0.708,-0.53 -0.39,-0.216 -0.746,-0.439 -0.792,-0.496 -0.077,-0.096 -1.012,-0.546 -2.532,-1.218 -1.038,-0.459 -3.173,-1.141 -4.051,-1.293 -0.459,-0.08 -1.359,-0.273 -2,-0.429 -1.04,-0.253 -2.711,-0.292 -15.375,-0.353 l -14.209,-0.07 v 30.346 m 80.935,-28.446 c -0.448,1.031 -1.004,2.287 -1.235,2.791 -0.396,0.861 -0.579,1.27 -1.363,3.038 -0.403,0.911 -1.14,2.528 -1.903,4.177 -0.33,0.714 -0.6,1.373 -0.6,1.464 0,0.092 -0.107,0.333 -0.238,0.536 -0.13,0.203 -0.661,1.344 -1.179,2.535 -0.519,1.192 -1.085,2.467 -1.258,2.834 -0.464,0.979 -1.328,2.9 -2.324,5.166 -1.025,2.334 -1.477,3.34 -1.759,3.917 -0.113,0.229 -1.423,3.154 -2.913,6.5 -1.49,3.346 -2.951,6.608 -3.248,7.25 -1.302,2.818 -8.248,18.378 -8.248,18.475 0,0.06 1.714,0.108 3.808,0.108 h 3.809 l 1.04,-2.375 c 0.573,-1.306 1.191,-2.712 1.374,-3.125 0.183,-0.412 0.483,-1.087 0.665,-1.5 0.183,-0.412 0.467,-1.05 0.63,-1.416 0.164,-0.367 0.656,-1.492 1.093,-2.5 0.437,-1.009 0.93,-2.134 1.097,-2.5 0.166,-0.367 0.399,-0.911 0.517,-1.209 l 0.215,-0.541 h 16.448 16.447 l 0.369,0.791 c 0.203,0.436 0.464,1.017 0.581,1.292 0.209,0.494 1.042,2.363 1.485,3.333 0.21,0.46 2.5,5.679 2.998,6.834 0.118,0.275 0.406,0.912 0.638,1.416 0.232,0.504 0.465,1.048 0.516,1.209 0.085,0.267 0.426,0.291 4.003,0.291 h 3.91 l -0.137,-0.458 c -0.122,-0.41 -1.026,-2.462 -2.331,-5.292 -0.254,-0.55 -1.531,-3.4 -2.838,-6.333 -1.307,-2.933 -2.618,-5.858 -2.913,-6.5 -0.412,-0.894 -5.399,-12.071 -8.292,-18.583 -0.183,-0.413 -0.473,-1.05 -0.644,-1.417 -0.324,-0.694 -1.063,-2.353 -1.56,-3.5 -0.159,-0.367 -0.427,-0.967 -0.595,-1.333 -0.867,-1.885 -2.251,-4.97 -2.916,-6.5 -0.195,-0.45 -0.423,-0.958 -1.421,-3.167 -0.166,-0.367 -0.502,-1.117 -0.747,-1.667 -0.63,-1.413 -1.07,-2.395 -1.419,-3.166 -0.652,-1.443 -0.97,-2.18 -1.059,-2.459 -0.086,-0.266 -0.421,-0.291 -3.891,-0.291 h -3.798 l -0.814,1.875 M 306.5,69.745 c 0,0.096 0.45,0.894 1.132,2.005 0.281,0.458 0.75,1.283 1.042,1.833 0.293,0.55 0.625,1.113 0.738,1.25 0.114,0.138 0.649,1.029 1.189,1.982 0.54,0.952 1.147,2.002 1.348,2.333 0.201,0.331 0.669,1.127 1.04,1.769 0.372,0.641 0.874,1.504 1.117,1.916 0.452,0.769 0.799,1.371 1.408,2.446 0.19,0.337 0.586,0.993 0.878,1.458 0.293,0.466 0.625,1.034 0.738,1.263 0.113,0.229 0.393,0.717 0.622,1.083 0.229,0.367 0.735,1.218 1.124,1.891 0.389,0.673 0.857,1.477 1.041,1.787 0.183,0.31 0.775,1.334 1.316,2.276 0.541,0.942 1.066,1.817 1.167,1.944 0.101,0.127 0.446,0.704 0.767,1.282 0.32,0.579 0.948,1.675 1.393,2.436 0.446,0.762 0.963,1.647 1.149,1.968 0.186,0.32 0.476,0.808 0.644,1.083 0.168,0.275 0.497,0.837 0.73,1.25 0.234,0.412 0.563,0.975 0.731,1.25 0.168,0.275 0.456,0.763 0.64,1.083 0.183,0.321 0.607,1.046 0.94,1.612 l 0.606,1.028 v 10.18 10.18 h 3.583 3.584 v -10.55 c 0,-6.074 0.064,-10.617 0.151,-10.708 0.083,-0.087 0.32,-0.458 0.528,-0.825 0.869,-1.535 1.109,-1.954 1.881,-3.277 1.098,-1.882 1.383,-2.373 1.773,-3.056 0.183,-0.321 0.473,-0.827 0.644,-1.125 0.171,-0.298 0.587,-1.029 0.926,-1.625 0.338,-0.596 0.683,-1.196 0.765,-1.334 0.428,-0.714 1.259,-2.124 1.424,-2.416 0.186,-0.329 0.612,-1.07 1.22,-2.125 0.172,-0.298 0.634,-1.104 1.027,-1.792 0.393,-0.687 0.815,-1.368 0.938,-1.513 0.122,-0.145 0.223,-0.389 0.223,-0.542 0,-0.153 0.061,-0.278 0.137,-0.278 0.075,0 0.302,-0.319 0.503,-0.709 0.202,-0.389 0.551,-1.008 0.775,-1.375 0.225,-0.366 0.551,-0.929 0.724,-1.25 0.63,-1.167 2.234,-3.927 2.52,-4.336 0.161,-0.23 0.547,-0.889 0.858,-1.462 0.312,-0.574 0.732,-1.323 0.935,-1.664 0.203,-0.342 0.561,-0.959 0.796,-1.371 0.234,-0.413 0.585,-1.013 0.779,-1.333 0.325,-0.538 0.934,-1.61 1.374,-2.417 0.1,-0.183 0.267,-0.446 0.371,-0.583 0.103,-0.138 0.425,-0.7 0.715,-1.25 0.29,-0.55 0.647,-1.171 0.793,-1.379 l 0.265,-0.378 -3.801,0.045 -3.801,0.045 -0.3,0.5 c -0.165,0.275 -0.455,0.762 -0.644,1.083 -0.189,0.321 -0.565,0.921 -0.835,1.334 -0.27,0.412 -0.569,0.9 -0.664,1.083 -0.096,0.183 -0.395,0.671 -0.665,1.083 -0.27,0.413 -0.645,1.013 -0.834,1.334 -0.189,0.32 -0.49,0.808 -0.668,1.083 -0.178,0.275 -0.479,0.762 -0.669,1.083 -0.19,0.321 -0.712,1.184 -1.159,1.917 -0.448,0.733 -1.086,1.783 -1.417,2.333 -0.332,0.55 -0.824,1.338 -1.093,1.75 -0.27,0.413 -0.542,0.863 -0.605,1 -0.064,0.138 -0.427,0.738 -0.807,1.334 -0.38,0.596 -0.834,1.308 -1.009,1.583 -0.175,0.275 -0.402,0.65 -0.503,0.833 -0.102,0.184 -0.696,1.159 -1.321,2.167 -0.625,1.008 -1.316,2.133 -1.536,2.5 -0.219,0.367 -0.584,0.967 -0.81,1.333 -0.226,0.367 -0.461,0.777 -0.523,0.911 -0.061,0.134 -0.42,0.696 -0.797,1.25 -0.378,0.553 -0.737,1.118 -0.799,1.256 -0.061,0.138 -0.3,0.55 -0.531,0.917 -0.23,0.366 -0.507,0.837 -0.615,1.046 -0.292,0.563 -0.932,-0.03 -1.58,-1.463 -0.063,-0.138 -0.27,-0.473 -0.461,-0.747 -0.39,-0.556 -0.504,-0.738 -1.098,-1.753 -0.559,-0.954 -0.693,-1.171 -1.084,-1.754 -0.183,-0.274 -0.422,-0.647 -0.531,-0.83 -0.109,-0.183 -0.695,-1.12 -1.302,-2.083 -0.607,-0.962 -1.193,-1.897 -1.302,-2.077 -0.534,-0.884 -1.693,-2.723 -1.97,-3.124 -0.171,-0.249 -0.311,-0.495 -0.311,-0.549 0,-0.053 -0.141,-0.3 -0.312,-0.548 C 323.21,84.6 322,82.674 322,82.582 c 0,-0.053 -0.139,-0.299 -0.309,-0.547 -0.761,-1.11 -1.663,-2.54 -1.81,-2.868 -0.061,-0.138 -0.435,-0.724 -0.83,-1.303 -0.395,-0.578 -0.718,-1.088 -0.718,-1.133 0,-0.044 -0.3,-0.532 -0.666,-1.084 C 317.3,75.095 317,74.611 317,74.571 c 0,-0.039 -0.356,-0.628 -0.792,-1.308 -0.435,-0.681 -1.12,-1.768 -1.522,-2.417 l -0.731,-1.179 h -3.727 c -2.051,0 -3.728,0.035 -3.728,0.078 m -86.75,7.023 c 3.486,0.433 8.055,2.022 8.389,2.917 0.03,0.081 0.138,0.148 0.239,0.148 0.278,0 2.413,2.27 2.792,2.969 0.184,0.338 0.399,0.727 0.48,0.865 2.258,3.865 1.774,11.495 -0.942,14.836 -0.206,0.254 -0.375,0.504 -0.375,0.556 0,0.13 -1.451,1.504 -2.196,2.079 -1.372,1.059 -4.274,2.252 -6.804,2.797 -1.265,0.272 -2.482,0.311 -11.375,0.359 L 200,104.348 V 90.424 76.5 l 8.792,-0.001 c 7.089,0 9.211,0.052 10.958,0.269 m 58.745,1.979 c 0.003,0.09 0.235,0.653 0.516,1.25 0.281,0.598 0.662,1.424 0.846,1.836 0.185,0.413 0.48,1.05 0.656,1.417 0.177,0.367 0.321,0.719 0.321,0.783 -10e-4,0.101 0.437,1.075 1.82,4.05 0.17,0.367 1.189,2.654 2.263,5.084 1.075,2.429 2.18,4.904 2.456,5.5 0.276,0.596 0.76,1.683 1.075,2.416 0.581,1.349 0.792,1.826 1.478,3.334 0.209,0.458 0.542,1.208 0.74,1.666 0.198,0.459 0.498,1.115 0.666,1.459 l 0.307,0.625 h -13.32 c -8.524,0 -13.319,-0.059 -13.319,-0.163 0,-0.089 0.164,-0.52 0.365,-0.958 0.622,-1.356 1.332,-2.938 1.572,-3.504 0.126,-0.298 0.337,-0.786 0.469,-1.084 0.131,-0.298 0.814,-1.854 1.517,-3.458 0.704,-1.604 1.411,-3.217 1.573,-3.583 0.161,-0.367 0.406,-0.93 0.544,-1.25 0.137,-0.321 0.794,-1.821 1.459,-3.334 1.615,-3.672 1.781,-4.049 2.154,-4.875 0.175,-0.389 0.674,-1.533 1.108,-2.541 0.937,-2.177 1.685,-3.833 2.006,-4.443 0.128,-0.243 0.233,-0.576 0.233,-0.74 0,-0.333 0.484,0.168 0.495,0.513" />
    <path id="ray-logo" d="m 101.476,36.871 c -1.303,0.145 -3.55,0.666 -4.332,1.004 -2.044,0.884 -2.472,1.092 -3.144,1.529 -7.177,4.661 -9.961,13.497 -6.746,21.409 0.465,1.144 0.582,1.352 1.707,3.057 0.986,1.494 3.928,4.463 4.424,4.463 0.054,0 0.429,0.223 0.832,0.496 4.639,3.13 12.64,3.283 17.395,0.332 0.457,-0.284 22.892,21.99 22.486,22.327 -0.218,0.181 -0.803,1.491 -1.437,3.22 l -0.352,0.959 h -6.238 c -5.795,0 -6.238,-0.021 -6.238,-0.288 0,-0.977 -1.759,-4.418 -3.151,-6.165 -4.027,-5.051 -11.482,-7.68 -17.226,-6.075 -0.711,0.198 -1.405,0.361 -1.542,0.361 -0.745,0 -4.681,2.22 -5.914,3.336 -0.321,0.291 -0.792,0.706 -1.046,0.923 -0.855,0.728 -2.606,3.23 -3.29,4.701 -0.372,0.801 -0.749,1.587 -0.837,1.746 -0.088,0.159 -0.16,0.434 -0.16,0.611 0,0.888 0.287,0.85 -6.415,0.85 H 74.04 l -0.198,-0.542 c -0.108,-0.298 -0.347,-0.917 -0.531,-1.375 -0.183,-0.458 -0.358,-0.946 -0.389,-1.083 -0.087,-0.39 -1.399,-2.503 -2.064,-3.324 -2.725,-3.366 -5.769,-5.225 -10.441,-6.377 -3.309,-0.816 -10.96,0.695 -12.419,2.453 -0.113,0.136 -0.278,0.248 -0.367,0.248 -0.392,0 -4.298,3.657 -4.298,4.024 0,0.086 -0.131,0.297 -0.291,0.469 -2.793,2.998 -3.936,11.297 -2.141,15.549 0.844,1.999 1.072,2.472 1.583,3.291 0.314,0.504 0.634,0.942 0.711,0.972 0.076,0.031 0.138,0.154 0.138,0.274 0,0.246 2.689,3.043 3.334,3.468 0.229,0.151 0.716,0.486 1.083,0.744 6.843,4.811 18.162,3.018 23.001,-3.643 0.093,-0.128 0.412,-0.542 0.709,-0.922 0.297,-0.38 0.54,-0.747 0.54,-0.815 0,-0.069 0.224,-0.489 0.498,-0.935 0.275,-0.445 0.461,-0.81 0.414,-0.81 -0.046,0 0.104,-0.372 0.335,-0.827 0.231,-0.456 0.42,-0.94 0.42,-1.076 0,-0.136 0.087,-0.439 0.193,-0.672 l 0.194,-0.425 h 6.22 6.22 l 0.101,0.459 c 1.063,4.828 6.623,10.565 11.322,11.682 0.366,0.087 1.154,0.288 1.75,0.446 7.975,2.118 18.533,-4.211 20.101,-12.05 l 0.107,-0.537 h 6.217 6.217 l 0.352,0.959 c 0.642,1.751 1.22,3.04 1.447,3.228 0.178,0.148 -2.094,2.503 -10.941,11.344 l -11.165,11.158 -0.793,-0.404 c -1.29,-0.658 -1.561,-0.769 -2.959,-1.21 -5.239,-1.651 -12.178,-0.296 -16.032,3.131 -1.412,1.256 -2.907,2.908 -3.508,3.878 -4.539,7.323 -3.445,16.326 2.69,22.138 0.992,0.939 3.39,2.578 4.35,2.972 1.875,0.771 2.482,1.005 2.729,1.053 0.149,0.03 0.849,0.174 1.556,0.32 10.388,2.155 20.37,-6.164 20.38,-16.983 0.002,-3.118 -0.379,-4.767 -1.788,-7.728 l -0.505,-1.061 11.107,-11.106 11.107,-11.105 0.873,0.447 c 1.444,0.739 3.341,1.372 5.068,1.691 1.606,0.297 5.042,0.225 6.39,-0.134 0.595,-0.159 1.37,-0.358 1.72,-0.442 1.198,-0.288 4.129,-1.822 5.32,-2.786 9.711,-7.857 8.716,-22.425 -1.957,-28.665 -3.504,-2.048 -8.663,-2.872 -12.167,-1.942 -0.55,0.146 -1.262,0.327 -1.583,0.403 -0.614,0.144 -1.774,0.627 -2.958,1.232 l -0.709,0.362 -11.105,-11.105 -11.105,-11.106 0.289,-0.561 c 3.009,-5.83 2.687,-12.491 -0.861,-17.825 -0.257,-0.386 -0.543,-0.821 -0.634,-0.965 -1.398,-2.203 -6.344,-5.524 -9.084,-6.099 -3.096,-0.651 -4.424,-0.766 -6.357,-0.551 m 4.095,8.912 c 6.101,1.712 8.316,9.521 3.993,14.078 -6.028,6.355 -16.205,1.325 -14.858,-7.345 0.559,-3.597 3.168,-6.047 7.544,-7.084 0.546,-0.13 2.249,0.05 3.321,0.351 M 59.946,91.812 c 2.314,0.806 4.061,2.37 5.152,4.615 l 0.644,1.323 v 2.25 2.25 l -0.648,1.332 c -3.748,7.711 -14.726,6.286 -16.362,-2.124 -1.223,-6.284 5.142,-11.76 11.214,-9.646 M 105,91.512 c 7.468,1.695 9.27,11.549 2.87,15.694 -7.325,4.746 -16.184,-3.082 -12.434,-10.986 0.56,-1.179 2.473,-3.387 2.935,-3.387 0.102,0 0.312,-0.113 0.465,-0.252 1.043,-0.944 4.259,-1.502 6.164,-1.069 m 46.441,0.171 c 4.417,1.35 7.025,5.54 6.148,9.877 -0.306,1.514 -0.863,2.879 -1.336,3.271 -0.139,0.116 -0.253,0.306 -0.253,0.424 0,0.307 -1.541,1.65 -2.554,2.224 -7.406,4.199 -15.743,-3.631 -12.051,-11.318 0.752,-1.565 3.286,-3.994 4.167,-3.994 0.112,0 0.276,-0.069 0.363,-0.153 0.713,-0.687 3.754,-0.87 5.516,-0.331 m -44.774,46.358 c 8.432,4.162 5.806,16.556 -3.5,16.523 C 100.595,154.555 96,152.103 96,150.74 c 0,-0.11 -0.106,-0.287 -0.236,-0.395 -1.065,-0.884 -1.517,-5.232 -0.754,-7.262 1.796,-4.781 7.334,-7.176 11.657,-5.042" />
  </g>
</svg>
