<svg width="176" height="40" viewBox="0 0 176 40" fill="none" xmlns="http://www.w3.org/2000/svg">
<rect width="176" height="40" rx="8" fill="#4377FF"/>
<rect width="176" height="40" rx="8" fill="#4377FF"/>
<path d="M43.6905 26.4737C43.5585 26.4737 43.4565 26.4377 43.3845 26.3657C43.3125 26.2817 43.2765 26.1797 43.2765 26.0597V14.3057C43.2765 14.1737 43.3125 14.0717 43.3845 13.9997C43.4565 13.9157 43.5585 13.8737 43.6905 13.8737H48.0825C49.4385 13.8737 50.5125 14.1917 51.3045 14.8277C52.0965 15.4637 52.4925 16.4057 52.4925 17.6537C52.4925 18.5777 52.2585 19.3337 51.7905 19.9217C51.3345 20.4977 50.7105 20.8997 49.9185 21.1277L52.6905 25.9157C52.7265 25.9877 52.7445 26.0537 52.7445 26.1137C52.7445 26.2097 52.7025 26.2937 52.6185 26.3657C52.5465 26.4377 52.4625 26.4737 52.3665 26.4737H51.5025C51.2985 26.4737 51.1485 26.4197 51.0525 26.3117C50.9565 26.2037 50.8725 26.0957 50.8005 25.9877L48.1905 21.4157H45.0405V26.0597C45.0405 26.1797 44.9985 26.2817 44.9145 26.3657C44.8425 26.4377 44.7405 26.4737 44.6085 26.4737H43.6905ZM45.0405 19.8857H48.0105C48.9105 19.8857 49.5825 19.6997 50.0265 19.3277C50.4705 18.9437 50.6925 18.3797 50.6925 17.6357C50.6925 16.9037 50.4705 16.3457 50.0265 15.9617C49.5945 15.5777 48.9225 15.3857 48.0105 15.3857H45.0405V19.8857ZM58.3294 26.6537C57.5614 26.6537 56.9074 26.4857 56.3674 26.1497C55.8394 25.8017 55.4374 25.3217 55.1614 24.7097C54.8854 24.0977 54.7474 23.3957 54.7474 22.6037V17.5277C54.7474 17.4077 54.7834 17.3117 54.8554 17.2397C54.9394 17.1557 55.0414 17.1137 55.1614 17.1137H56.0614C56.1814 17.1137 56.2774 17.1557 56.3494 17.2397C56.4334 17.3117 56.4754 17.4077 56.4754 17.5277V22.5137C56.4754 24.3017 57.2554 25.1957 58.8154 25.1957C59.5594 25.1957 60.1534 24.9617 60.5974 24.4937C61.0534 24.0137 61.2814 23.3537 61.2814 22.5137V17.5277C61.2814 17.4077 61.3174 17.3117 61.3894 17.2397C61.4734 17.1557 61.5754 17.1137 61.6954 17.1137H62.5774C62.7094 17.1137 62.8114 17.1557 62.8834 17.2397C62.9554 17.3117 62.9914 17.4077 62.9914 17.5277V26.0597C62.9914 26.1797 62.9554 26.2817 62.8834 26.3657C62.8114 26.4377 62.7094 26.4737 62.5774 26.4737H61.7494C61.6294 26.4737 61.5274 26.4377 61.4434 26.3657C61.3714 26.2817 61.3354 26.1797 61.3354 26.0597V25.2677C61.0114 25.6877 60.6154 26.0237 60.1474 26.2757C59.6914 26.5277 59.0854 26.6537 58.3294 26.6537ZM66.0796 26.4737C65.9596 26.4737 65.8576 26.4377 65.7736 26.3657C65.7016 26.2817 65.6656 26.1797 65.6656 26.0597V17.5277C65.6656 17.4077 65.7016 17.3117 65.7736 17.2397C65.8576 17.1557 65.9596 17.1137 66.0796 17.1137H66.9256C67.0456 17.1137 67.1416 17.1557 67.2136 17.2397C67.2976 17.3117 67.3396 17.4077 67.3396 17.5277V18.3197C67.6516 17.9117 68.0416 17.5817 68.5096 17.3297C68.9896 17.0657 69.6016 16.9337 70.3456 16.9337C71.1256 16.9337 71.7856 17.1077 72.3256 17.4557C72.8776 17.7917 73.2916 18.2657 73.5676 18.8777C73.8436 19.4777 73.9816 20.1797 73.9816 20.9837V26.0597C73.9816 26.1797 73.9456 26.2817 73.8736 26.3657C73.8016 26.4377 73.7056 26.4737 73.5856 26.4737H72.6856C72.5656 26.4737 72.4636 26.4377 72.3796 26.3657C72.3076 26.2817 72.2716 26.1797 72.2716 26.0597V21.0737C72.2716 20.2337 72.0676 19.5797 71.6596 19.1117C71.2516 18.6317 70.6516 18.3917 69.8596 18.3917C69.1156 18.3917 68.5156 18.6317 68.0596 19.1117C67.6156 19.5797 67.3936 20.2337 67.3936 21.0737V26.0597C67.3936 26.1797 67.3516 26.2817 67.2676 26.3657C67.1956 26.4377 67.0996 26.4737 66.9796 26.4737H66.0796ZM87.7617 29.8937C87.6297 29.8937 87.5277 29.8517 87.4557 29.7677C87.3837 29.6957 87.3477 29.5997 87.3477 29.4797V25.3037C87.0477 25.6877 86.6577 26.0117 86.1777 26.2757C85.7097 26.5277 85.1277 26.6537 84.4317 26.6537C83.7717 26.6537 83.2017 26.5397 82.7217 26.3117C82.2417 26.0717 81.8457 25.7597 81.5337 25.3757C81.2337 24.9797 81.0057 24.5297 80.8497 24.0257C80.7057 23.5097 80.6217 22.9697 80.5977 22.4057C80.5857 22.2137 80.5797 22.0097 80.5797 21.7937C80.5797 21.5777 80.5857 21.3737 80.5977 21.1817C80.6217 20.6057 80.7057 20.0657 80.8497 19.5617C81.0057 19.0577 81.2337 18.6077 81.5337 18.2117C81.8457 17.8157 82.2417 17.5037 82.7217 17.2757C83.2017 17.0477 83.7717 16.9337 84.4317 16.9337C85.1517 16.9337 85.7517 17.0657 86.2317 17.3297C86.7117 17.5937 87.0957 17.9237 87.3837 18.3197V17.5277C87.3837 17.4077 87.4197 17.3117 87.4917 17.2397C87.5757 17.1557 87.6777 17.1137 87.7977 17.1137H88.6257C88.7457 17.1137 88.8417 17.1557 88.9137 17.2397C88.9977 17.3117 89.0397 17.4077 89.0397 17.5277V29.4797C89.0397 29.5997 88.9977 29.6957 88.9137 29.7677C88.8417 29.8517 88.7457 29.8937 88.6257 29.8937H87.7617ZM84.8097 25.1957C85.3857 25.1957 85.8537 25.0637 86.2137 24.7997C86.5857 24.5357 86.8617 24.1997 87.0417 23.7917C87.2337 23.3837 87.3357 22.9697 87.3477 22.5497C87.3597 22.3457 87.3657 22.1117 87.3657 21.8477C87.3657 21.5837 87.3597 21.3557 87.3477 21.1637C87.3357 20.7197 87.2397 20.2877 87.0597 19.8677C86.8797 19.4357 86.6037 19.0817 86.2317 18.8057C85.8717 18.5297 85.3977 18.3917 84.8097 18.3917C84.1977 18.3917 83.7117 18.5297 83.3517 18.8057C82.9917 19.0697 82.7337 19.4237 82.5777 19.8677C82.4217 20.2997 82.3317 20.7677 82.3077 21.2717C82.2957 21.6197 82.2957 21.9677 82.3077 22.3157C82.3317 22.8197 82.4217 23.2937 82.5777 23.7377C82.7337 24.1697 82.9917 24.5237 83.3517 24.7997C83.7117 25.0637 84.1977 25.1957 84.8097 25.1957ZM95.2084 26.6537C94.4404 26.6537 93.7864 26.4857 93.2464 26.1497C92.7184 25.8017 92.3164 25.3217 92.0404 24.7097C91.7644 24.0977 91.6264 23.3957 91.6264 22.6037V17.5277C91.6264 17.4077 91.6624 17.3117 91.7344 17.2397C91.8184 17.1557 91.9204 17.1137 92.0404 17.1137H92.9404C93.0604 17.1137 93.1564 17.1557 93.2284 17.2397C93.3124 17.3117 93.3544 17.4077 93.3544 17.5277V22.5137C93.3544 24.3017 94.1344 25.1957 95.6944 25.1957C96.4384 25.1957 97.0324 24.9617 97.4764 24.4937C97.9324 24.0137 98.1604 23.3537 98.1604 22.5137V17.5277C98.1604 17.4077 98.1964 17.3117 98.2684 17.2397C98.3524 17.1557 98.4544 17.1137 98.5744 17.1137H99.4564C99.5884 17.1137 99.6904 17.1557 99.7624 17.2397C99.8344 17.3117 99.8704 17.4077 99.8704 17.5277V26.0597C99.8704 26.1797 99.8344 26.2817 99.7624 26.3657C99.6904 26.4377 99.5884 26.4737 99.4564 26.4737H98.6284C98.5084 26.4737 98.4064 26.4377 98.3224 26.3657C98.2504 26.2817 98.2144 26.1797 98.2144 26.0597V25.2677C97.8904 25.6877 97.4944 26.0237 97.0264 26.2757C96.5704 26.5277 95.9644 26.6537 95.2084 26.6537ZM102.958 26.4737C102.838 26.4737 102.736 26.4377 102.652 26.3657C102.58 26.2817 102.544 26.1797 102.544 26.0597V17.5277C102.544 17.4077 102.58 17.3117 102.652 17.2397C102.736 17.1557 102.838 17.1137 102.958 17.1137H103.822C103.942 17.1137 104.038 17.1557 104.11 17.2397C104.182 17.3117 104.218 17.4077 104.218 17.5277V26.0597C104.218 26.1797 104.182 26.2817 104.11 26.3657C104.038 26.4377 103.942 26.4737 103.822 26.4737H102.958ZM102.814 15.3677C102.694 15.3677 102.592 15.3317 102.508 15.2597C102.436 15.1757 102.4 15.0737 102.4 14.9537V13.9817C102.4 13.8617 102.436 13.7657 102.508 13.6937C102.592 13.6097 102.694 13.5677 102.814 13.5677H103.948C104.068 13.5677 104.164 13.6097 104.236 13.6937C104.32 13.7657 104.362 13.8617 104.362 13.9817V14.9537C104.362 15.0737 104.32 15.1757 104.236 15.2597C104.164 15.3317 104.068 15.3677 103.948 15.3677H102.814ZM110.719 26.6537C109.867 26.6537 109.129 26.4917 108.505 26.1677C107.893 25.8317 107.419 25.3577 107.083 24.7457C106.747 24.1217 106.567 23.3777 106.543 22.5137C106.531 22.3337 106.525 22.0937 106.525 21.7937C106.525 21.4937 106.531 21.2537 106.543 21.0737C106.567 20.2097 106.747 19.4717 107.083 18.8597C107.419 18.2357 107.893 17.7617 108.505 17.4377C109.129 17.1017 109.867 16.9337 110.719 16.9337C111.415 16.9337 112.009 17.0297 112.501 17.2217C113.005 17.4137 113.419 17.6597 113.743 17.9597C114.067 18.2597 114.307 18.5837 114.463 18.9317C114.631 19.2797 114.721 19.6097 114.733 19.9217C114.745 20.0417 114.709 20.1377 114.625 20.2097C114.541 20.2817 114.439 20.3177 114.319 20.3177H113.455C113.335 20.3177 113.245 20.2937 113.185 20.2457C113.125 20.1857 113.065 20.0897 113.005 19.9577C112.789 19.3697 112.495 18.9557 112.123 18.7157C111.751 18.4757 111.289 18.3557 110.737 18.3557C110.017 18.3557 109.429 18.5777 108.973 19.0217C108.529 19.4657 108.289 20.1797 108.253 21.1637C108.241 21.5957 108.241 22.0157 108.253 22.4237C108.289 23.4197 108.529 24.1397 108.973 24.5837C109.429 25.0157 110.017 25.2317 110.737 25.2317C111.289 25.2317 111.751 25.1117 112.123 24.8717C112.495 24.6317 112.789 24.2177 113.005 23.6297C113.065 23.4977 113.125 23.4077 113.185 23.3597C113.245 23.2997 113.335 23.2697 113.455 23.2697H114.319C114.439 23.2697 114.541 23.3057 114.625 23.3777C114.709 23.4497 114.745 23.5457 114.733 23.6657C114.721 23.9177 114.667 24.1757 114.571 24.4397C114.475 24.7037 114.319 24.9737 114.103 25.2497C113.899 25.5137 113.641 25.7537 113.329 25.9697C113.017 26.1737 112.639 26.3417 112.195 26.4737C111.763 26.5937 111.271 26.6537 110.719 26.6537ZM117.303 26.4737C117.183 26.4737 117.081 26.4377 116.997 26.3657C116.925 26.2817 116.889 26.1797 116.889 26.0597V14.1077C116.889 13.9877 116.925 13.8917 116.997 13.8197C117.081 13.7357 117.183 13.6937 117.303 13.6937H118.149C118.269 13.6937 118.365 13.7357 118.437 13.8197C118.521 13.8917 118.563 13.9877 118.563 14.1077V20.3717L122.109 17.4197C122.253 17.2997 122.361 17.2217 122.433 17.1857C122.517 17.1377 122.649 17.1137 122.829 17.1137H123.783C123.891 17.1137 123.981 17.1497 124.053 17.2217C124.125 17.2937 124.161 17.3837 124.161 17.4917C124.161 17.5397 124.143 17.5937 124.107 17.6537C124.083 17.7137 124.029 17.7737 123.945 17.8337L119.787 21.2897L124.395 25.7717C124.539 25.8917 124.611 25.9997 124.611 26.0957C124.611 26.2037 124.575 26.2937 124.503 26.3657C124.431 26.4377 124.341 26.4737 124.233 26.4737H123.297C123.117 26.4737 122.985 26.4557 122.901 26.4197C122.817 26.3717 122.709 26.2877 122.577 26.1677L118.563 22.3337V26.0597C118.563 26.1797 118.521 26.2817 118.437 26.3657C118.365 26.4377 118.269 26.4737 118.149 26.4737H117.303ZM129.216 26.6537C128.544 26.6537 127.968 26.5697 127.488 26.4017C127.008 26.2337 126.618 26.0297 126.318 25.7897C126.018 25.5497 125.79 25.3097 125.634 25.0697C125.49 24.8297 125.412 24.6377 125.4 24.4937C125.388 24.3617 125.43 24.2597 125.526 24.1877C125.622 24.1157 125.718 24.0797 125.814 24.0797H126.606C126.678 24.0797 126.732 24.0917 126.768 24.1157C126.816 24.1277 126.876 24.1757 126.948 24.2597C127.104 24.4277 127.278 24.5957 127.47 24.7637C127.662 24.9317 127.896 25.0697 128.172 25.1777C128.46 25.2857 128.814 25.3397 129.234 25.3397C129.846 25.3397 130.35 25.2257 130.746 24.9977C131.142 24.7577 131.34 24.4097 131.34 23.9537C131.34 23.6537 131.256 23.4137 131.088 23.2337C130.932 23.0537 130.644 22.8917 130.224 22.7477C129.816 22.6037 129.252 22.4537 128.532 22.2977C127.812 22.1297 127.242 21.9257 126.822 21.6857C126.402 21.4337 126.102 21.1397 125.922 20.8037C125.742 20.4557 125.652 20.0657 125.652 19.6337C125.652 19.1897 125.784 18.7637 126.048 18.3557C126.312 17.9357 126.696 17.5937 127.2 17.3297C127.716 17.0657 128.358 16.9337 129.126 16.9337C129.75 16.9337 130.284 17.0117 130.728 17.1677C131.172 17.3237 131.538 17.5217 131.826 17.7617C132.114 17.9897 132.33 18.2177 132.474 18.4457C132.618 18.6737 132.696 18.8657 132.708 19.0217C132.72 19.1417 132.684 19.2437 132.6 19.3277C132.516 19.3997 132.42 19.4357 132.312 19.4357H131.556C131.472 19.4357 131.4 19.4177 131.34 19.3817C131.292 19.3457 131.244 19.3037 131.196 19.2557C131.076 19.0997 130.932 18.9437 130.764 18.7877C130.608 18.6317 130.398 18.5057 130.134 18.4097C129.882 18.3017 129.546 18.2477 129.126 18.2477C128.526 18.2477 128.076 18.3737 127.776 18.6257C127.476 18.8777 127.326 19.1957 127.326 19.5797C127.326 19.8077 127.392 20.0117 127.524 20.1917C127.656 20.3717 127.908 20.5337 128.28 20.6777C128.652 20.8217 129.204 20.9777 129.936 21.1457C130.728 21.3017 131.352 21.5117 131.808 21.7757C132.264 22.0397 132.588 22.3457 132.78 22.6937C132.972 23.0417 133.068 23.4437 133.068 23.8997C133.068 24.4037 132.918 24.8657 132.618 25.2857C132.33 25.7057 131.898 26.0417 131.322 26.2937C130.758 26.5337 130.056 26.6537 129.216 26.6537ZM138.788 26.4737C138.116 26.4737 137.57 26.3477 137.15 26.0957C136.73 25.8317 136.424 25.4657 136.232 24.9977C136.04 24.5177 135.944 23.9537 135.944 23.3057V18.5537H134.54C134.42 18.5537 134.318 18.5177 134.234 18.4457C134.162 18.3617 134.126 18.2597 134.126 18.1397V17.5277C134.126 17.4077 134.162 17.3117 134.234 17.2397C134.318 17.1557 134.42 17.1137 134.54 17.1137H135.944V14.1077C135.944 13.9877 135.98 13.8917 136.052 13.8197C136.136 13.7357 136.238 13.6937 136.358 13.6937H137.204C137.324 13.6937 137.42 13.7357 137.492 13.8197C137.576 13.8917 137.618 13.9877 137.618 14.1077V17.1137H139.85C139.97 17.1137 140.066 17.1557 140.138 17.2397C140.222 17.3117 140.264 17.4077 140.264 17.5277V18.1397C140.264 18.2597 140.222 18.3617 140.138 18.4457C140.066 18.5177 139.97 18.5537 139.85 18.5537H137.618V23.1797C137.618 23.7437 137.714 24.1877 137.906 24.5117C138.098 24.8357 138.44 24.9977 138.932 24.9977H140.03C140.15 24.9977 140.246 25.0397 140.318 25.1237C140.402 25.1957 140.444 25.2917 140.444 25.4117V26.0597C140.444 26.1797 140.402 26.2817 140.318 26.3657C140.246 26.4377 140.15 26.4737 140.03 26.4737H138.788ZM144.776 26.6537C144.176 26.6537 143.63 26.5337 143.138 26.2937C142.646 26.0537 142.25 25.7297 141.95 25.3217C141.65 24.9137 141.5 24.4517 141.5 23.9357C141.5 23.1077 141.836 22.4477 142.508 21.9557C143.18 21.4637 144.056 21.1397 145.136 20.9837L147.818 20.6057V20.0837C147.818 19.5077 147.65 19.0577 147.314 18.7337C146.99 18.4097 146.456 18.2477 145.712 18.2477C145.172 18.2477 144.734 18.3557 144.398 18.5717C144.074 18.7877 143.846 19.0637 143.714 19.3997C143.642 19.5797 143.516 19.6697 143.336 19.6697H142.526C142.394 19.6697 142.292 19.6337 142.22 19.5617C142.16 19.4777 142.13 19.3817 142.13 19.2737C142.13 19.0937 142.196 18.8717 142.328 18.6077C142.472 18.3437 142.688 18.0857 142.976 17.8337C143.264 17.5817 143.63 17.3717 144.074 17.2037C144.53 17.0237 145.082 16.9337 145.73 16.9337C146.45 16.9337 147.056 17.0297 147.548 17.2217C148.04 17.4017 148.424 17.6477 148.7 17.9597C148.988 18.2717 149.192 18.6257 149.312 19.0217C149.444 19.4177 149.51 19.8197 149.51 20.2277V26.0597C149.51 26.1797 149.468 26.2817 149.384 26.3657C149.312 26.4377 149.216 26.4737 149.096 26.4737H148.268C148.136 26.4737 148.034 26.4377 147.962 26.3657C147.89 26.2817 147.854 26.1797 147.854 26.0597V25.2857C147.698 25.5017 147.488 25.7177 147.224 25.9337C146.96 26.1377 146.63 26.3117 146.234 26.4557C145.838 26.5877 145.352 26.6537 144.776 26.6537ZM145.154 25.3037C145.646 25.3037 146.096 25.2017 146.504 24.9977C146.912 24.7817 147.23 24.4517 147.458 24.0077C147.698 23.5637 147.818 23.0057 147.818 22.3337V21.8297L145.73 22.1357C144.878 22.2557 144.236 22.4597 143.804 22.7477C143.372 23.0237 143.156 23.3777 143.156 23.8097C143.156 24.1457 143.252 24.4277 143.444 24.6557C143.648 24.8717 143.9 25.0337 144.2 25.1417C144.512 25.2497 144.83 25.3037 145.154 25.3037ZM152.511 26.4737C152.391 26.4737 152.289 26.4377 152.205 26.3657C152.133 26.2817 152.097 26.1797 152.097 26.0597V17.5457C152.097 17.4257 152.133 17.3237 152.205 17.2397C152.289 17.1557 152.391 17.1137 152.511 17.1137H153.339C153.459 17.1137 153.561 17.1557 153.645 17.2397C153.729 17.3237 153.771 17.4257 153.771 17.5457V18.3377C154.011 17.9297 154.341 17.6237 154.761 17.4197C155.181 17.2157 155.685 17.1137 156.273 17.1137H156.993C157.113 17.1137 157.209 17.1557 157.281 17.2397C157.353 17.3117 157.389 17.4077 157.389 17.5277V18.2657C157.389 18.3857 157.353 18.4817 157.281 18.5537C157.209 18.6257 157.113 18.6617 156.993 18.6617H155.913C155.265 18.6617 154.755 18.8537 154.383 19.2377C154.011 19.6097 153.825 20.1197 153.825 20.7677V26.0597C153.825 26.1797 153.783 26.2817 153.699 26.3657C153.615 26.4377 153.513 26.4737 153.393 26.4737H152.511ZM162.589 26.4737C161.917 26.4737 161.371 26.3477 160.951 26.0957C160.531 25.8317 160.225 25.4657 160.033 24.9977C159.841 24.5177 159.745 23.9537 159.745 23.3057V18.5537H158.341C158.221 18.5537 158.119 18.5177 158.035 18.4457C157.963 18.3617 157.927 18.2597 157.927 18.1397V17.5277C157.927 17.4077 157.963 17.3117 158.035 17.2397C158.119 17.1557 158.221 17.1137 158.341 17.1137H159.745V14.1077C159.745 13.9877 159.781 13.8917 159.853 13.8197C159.937 13.7357 160.039 13.6937 160.159 13.6937H161.005C161.125 13.6937 161.221 13.7357 161.293 13.8197C161.377 13.8917 161.419 13.9877 161.419 14.1077V17.1137H163.651C163.771 17.1137 163.867 17.1557 163.939 17.2397C164.023 17.3117 164.065 17.4077 164.065 17.5277V18.1397C164.065 18.2597 164.023 18.3617 163.939 18.4457C163.867 18.5177 163.771 18.5537 163.651 18.5537H161.419V23.1797C161.419 23.7437 161.515 24.1877 161.707 24.5117C161.899 24.8357 162.241 24.9977 162.733 24.9977H163.831C163.951 24.9977 164.047 25.0397 164.119 25.1237C164.203 25.1957 164.245 25.2917 164.245 25.4117V26.0597C164.245 26.1797 164.203 26.2817 164.119 26.3657C164.047 26.4377 163.951 26.4737 163.831 26.4737H162.589Z" fill="white"/>
<path d="M18.5441 21.0676H13.8316C13.1165 21.0694 12.4311 21.3656 11.9254 21.8914C11.4197 22.4171 11.1349 23.1298 11.1331 23.8733V28.7732C11.1349 29.5168 11.4197 30.2294 11.9254 30.7552C12.4311 31.281 13.1165 31.5771 13.8316 31.5789H18.5441C19.2593 31.5771 19.9447 31.281 20.4504 30.7552C20.9561 30.2294 21.2409 29.5168 21.2427 28.7732V23.8733C21.2409 23.1298 20.9561 22.4171 20.4504 21.8914C19.9447 21.3656 19.2593 21.0694 18.5441 21.0676V21.0676ZM19.5907 28.7732C19.5907 28.9161 19.5636 29.0576 19.511 29.1896C19.4584 29.3216 19.3813 29.4415 19.2842 29.5426C19.187 29.6436 19.0716 29.7238 18.9446 29.7784C18.8177 29.8331 18.6816 29.8613 18.5441 29.8613H13.8316C13.6942 29.8613 13.5581 29.8331 13.4311 29.7784C13.3042 29.7238 13.1888 29.6436 13.0917 29.5426C12.9945 29.4415 12.9174 29.3216 12.8648 29.1896C12.8122 29.0576 12.7851 28.9161 12.7851 28.7732V23.8733C12.7851 23.5848 12.8954 23.308 13.0917 23.1039C13.2879 22.8999 13.5541 22.7852 13.8316 22.7852H18.5441C18.8217 22.7852 19.0879 22.8999 19.2842 23.1039C19.4804 23.308 19.5907 23.5848 19.5907 23.8733V28.7732Z" fill="white"/>
<path d="M30.7137 17.1258H25.0271V11.2268C25.0254 10.4832 24.7405 9.77063 24.2348 9.24484C23.7291 8.71905 23.0437 8.42286 22.3286 8.42105H13.825C13.1098 8.42286 12.4245 8.71905 11.9188 9.24484C11.4131 9.77063 11.1282 10.4832 11.1265 11.2268V16.0172C11.1282 16.7608 11.4131 17.4734 11.9188 17.9992C12.4245 18.5249 13.1098 18.8211 13.825 18.8229H23.3751V28.7458C23.3768 29.4894 23.6617 30.202 24.1674 30.7278C24.6731 31.2536 25.3584 31.5498 26.0736 31.5516H30.6808C31.396 31.5498 32.0814 31.2536 32.5871 30.7278C33.0927 30.202 33.3776 29.4894 33.3793 28.7458V19.9316C33.3777 19.1939 33.0974 18.4864 32.5987 17.9615C32.1001 17.4367 31.4232 17.1366 30.7137 17.1258ZM13.825 17.1258C13.6859 17.1258 13.5482 17.097 13.4199 17.0411C13.2916 16.9851 13.1754 16.9031 13.0779 16.7999C12.9805 16.6966 12.9038 16.5743 12.8524 16.4399C12.801 16.3055 12.7759 16.1618 12.7785 16.0172V11.2268C12.7785 10.9382 12.8887 10.6615 13.085 10.4574C13.2813 10.2534 13.5474 10.1387 13.825 10.1387H22.322C22.46 10.1378 22.5968 10.1653 22.7245 10.2196C22.8522 10.2739 22.9684 10.3539 23.0663 10.455C23.1641 10.5561 23.2418 10.6764 23.2948 10.8089C23.3478 10.9413 23.3751 11.0834 23.3751 11.2268V17.1326H13.825V17.1258ZM31.7602 28.7595C31.7602 29.0481 31.65 29.3248 31.4537 29.5289C31.2575 29.7329 30.9913 29.8476 30.7137 29.8476H26.1065C25.829 29.8476 25.5628 29.7329 25.3665 29.5289C25.1703 29.3248 25.06 29.0481 25.06 28.7595V18.8366H30.7466C31.0242 18.8366 31.2904 18.9513 31.4866 19.1553C31.6829 19.3594 31.7931 19.6361 31.7931 19.9247L31.7602 28.7595Z" fill="white"/>
</svg>
