<svg width="146" height="40" viewBox="0 0 146 40" fill="none" xmlns="http://www.w3.org/2000/svg">
<g clip-path="url(#clip0_3_2)">
<path d="M144 0H2C0.89543 0 0 0.89543 0 2V38C0 39.1046 0.89543 40 2 40H144C145.105 40 146 39.1046 146 38V2C146 0.89543 145.105 0 144 0Z" fill="#3C8AE9"/>
<path d="M37.1186 25V14.8182H40.7479C41.5367 14.8182 42.1913 14.9541 42.7116 15.2259C43.2353 15.4976 43.6264 15.8738 43.8849 16.3544C44.1435 16.8317 44.2727 17.3835 44.2727 18.0099C44.2727 18.633 44.1418 19.1816 43.88 19.6555C43.6214 20.1262 43.2304 20.4924 42.7067 20.7543C42.1863 21.0161 41.5317 21.147 40.7429 21.147H37.9936V19.8246H40.6037C41.1009 19.8246 41.5052 19.7533 41.8168 19.6108C42.1316 19.4683 42.362 19.2611 42.5078 18.9893C42.6536 18.7176 42.7266 18.3911 42.7266 18.0099C42.7266 17.6255 42.652 17.2924 42.5028 17.0107C42.357 16.7289 42.1267 16.5135 41.8118 16.3643C41.5002 16.2119 41.0909 16.1357 40.5838 16.1357H38.6548V25H37.1186ZM42.1449 20.4062L44.6605 25H42.9105L40.4446 20.4062H42.1449ZM50.8601 21.8331V17.3636H52.3516V25H50.8899V23.6776H50.8104C50.6347 24.0852 50.353 24.425 49.9652 24.6967C49.5807 24.9652 49.1018 25.0994 48.5284 25.0994C48.0379 25.0994 47.6037 24.9917 47.2259 24.7763C46.8513 24.5575 46.5563 24.2344 46.3409 23.8068C46.1288 23.3793 46.0227 22.8506 46.0227 22.2209V17.3636H47.5092V22.0419C47.5092 22.5623 47.6534 22.9766 47.9418 23.2848C48.2301 23.593 48.6046 23.7472 49.0653 23.7472C49.3438 23.7472 49.6205 23.6776 49.8956 23.5384C50.174 23.3991 50.4044 23.1887 50.5866 22.907C50.7723 22.6252 50.8634 22.2673 50.8601 21.8331ZM55.8354 20.4659V25H54.3489V17.3636H55.7757V18.6065H55.8702C56.0459 18.2022 56.321 17.8774 56.6955 17.6321C57.0733 17.3868 57.5489 17.2642 58.1223 17.2642C58.6427 17.2642 59.0984 17.3736 59.4895 17.5923C59.8806 17.8078 60.1839 18.1293 60.3993 18.5568C60.6148 18.9844 60.7225 19.513 60.7225 20.1428V25H59.236V20.3217C59.236 19.7682 59.0918 19.3357 58.8034 19.0241C58.5151 18.7093 58.119 18.5518 57.6152 18.5518C57.2705 18.5518 56.964 18.6264 56.6955 18.7756C56.4303 18.9247 56.2199 19.1435 56.0641 19.4318C55.9116 19.7169 55.8354 20.0616 55.8354 20.4659ZM71.5767 27.8636V23.8118H71.4872C71.3977 23.9742 71.2685 24.1598 71.0994 24.3686C70.9337 24.5774 70.705 24.7597 70.4134 24.9155C70.1217 25.0713 69.7438 25.1491 69.2798 25.1491C68.6634 25.1491 68.1132 24.9917 67.6293 24.6768C67.1487 24.3587 66.7708 23.9062 66.4957 23.3196C66.224 22.7296 66.0881 22.022 66.0881 21.1967C66.0881 20.3714 66.2256 19.6655 66.5007 19.0788C66.7791 18.4922 67.1603 18.0431 67.6442 17.7315C68.1281 17.42 68.6766 17.2642 69.2898 17.2642C69.7637 17.2642 70.1449 17.3438 70.4332 17.5028C70.7249 17.6586 70.9503 17.8409 71.1094 18.0497C71.2718 18.2585 71.3977 18.4425 71.4872 18.6016H71.6115V17.3636H73.0632V27.8636H71.5767ZM69.608 23.8814C70.0355 23.8814 70.3968 23.7687 70.6918 23.5433C70.9901 23.3146 71.2154 22.9981 71.3679 22.5938C71.5237 22.1894 71.6016 21.7187 71.6016 21.1818C71.6016 20.6515 71.5253 20.1875 71.3729 19.7898C71.2204 19.392 70.9967 19.0821 70.7017 18.8601C70.4067 18.638 70.0421 18.527 69.608 18.527C69.1605 18.527 68.7876 18.643 68.4893 18.875C68.1911 19.107 67.9657 19.4235 67.8132 19.8246C67.6641 20.2256 67.5895 20.678 67.5895 21.1818C67.5895 21.6922 67.6657 22.1513 67.8182 22.5589C67.9706 22.9666 68.196 23.2898 68.4943 23.5284C68.7959 23.7637 69.1671 23.8814 69.608 23.8814ZM79.8991 21.8331V17.3636H81.3906V25H79.929V23.6776H79.8494C79.6738 24.0852 79.392 24.425 79.0043 24.6967C78.6198 24.9652 78.1409 25.0994 77.5675 25.0994C77.0769 25.0994 76.6428 24.9917 76.2649 24.7763C75.8904 24.5575 75.5954 24.2344 75.38 23.8068C75.1679 23.3793 75.0618 22.8506 75.0618 22.2209V17.3636H76.5483V22.0419C76.5483 22.5623 76.6925 22.9766 76.9808 23.2848C77.2692 23.593 77.6437 23.7472 78.1044 23.7472C78.3828 23.7472 78.6596 23.6776 78.9347 23.5384C79.2131 23.3991 79.4434 23.1887 79.6257 22.907C79.8113 22.6252 79.9025 22.2673 79.8991 21.8331ZM83.388 25V17.3636H84.8745V25H83.388ZM84.1387 16.1854C83.8801 16.1854 83.6581 16.0992 83.4725 15.9268C83.2902 15.7512 83.199 15.5424 83.199 15.3004C83.199 15.0552 83.2902 14.8464 83.4725 14.674C83.6581 14.4983 83.8801 14.4105 84.1387 14.4105C84.3972 14.4105 84.6176 14.4983 84.7999 14.674C84.9855 14.8464 85.0783 15.0552 85.0783 15.3004C85.0783 15.5424 84.9855 15.7512 84.7999 15.9268C84.6176 16.0992 84.3972 16.1854 84.1387 16.1854ZM90.0909 25.1541C89.3518 25.1541 88.7154 24.9867 88.1818 24.652C87.6515 24.3139 87.2438 23.8482 86.9588 23.255C86.6738 22.6617 86.5312 21.9822 86.5312 21.2166C86.5312 20.4411 86.6771 19.7566 86.9688 19.1634C87.2604 18.5668 87.6714 18.1011 88.2017 17.7663C88.732 17.4316 89.3568 17.2642 90.076 17.2642C90.656 17.2642 91.1731 17.3719 91.6271 17.5874C92.0812 17.7995 92.4474 18.0978 92.7259 18.4822C93.0076 18.8667 93.175 19.3158 93.228 19.8295H91.7812C91.7017 19.4716 91.5194 19.1634 91.2344 18.9048C90.9527 18.6463 90.5748 18.517 90.1009 18.517C89.6866 18.517 89.3236 18.6264 89.0121 18.8452C88.7038 19.0606 88.4635 19.3688 88.2912 19.7699C88.1188 20.1676 88.0327 20.6383 88.0327 21.1818C88.0327 21.7386 88.1172 22.2192 88.2862 22.6236C88.4553 23.0279 88.6939 23.3411 89.0021 23.5632C89.3137 23.7853 89.6799 23.8963 90.1009 23.8963C90.3826 23.8963 90.6378 23.8449 90.8665 23.7422C91.0985 23.6361 91.2924 23.4853 91.4482 23.2898C91.6072 23.0942 91.7183 22.8589 91.7812 22.5838H93.228C93.175 23.0777 93.0142 23.5185 92.7457 23.9062C92.4773 24.294 92.1177 24.599 91.6669 24.821C91.2195 25.0431 90.6941 25.1541 90.0909 25.1541ZM96.1848 22.4098L96.1749 20.5952H96.4334L99.476 17.3636H101.256L97.7857 21.0426H97.552L96.1848 22.4098ZM94.8176 25V14.8182H96.3042V25H94.8176ZM99.6401 25L96.9057 21.3707L97.9299 20.3317L101.465 25H99.6401ZM108.333 19.228L106.986 19.4666C106.929 19.2943 106.84 19.1302 106.717 18.9744C106.598 18.8187 106.435 18.6911 106.23 18.5916C106.024 18.4922 105.768 18.4425 105.459 18.4425C105.038 18.4425 104.687 18.5369 104.405 18.7259C104.124 18.9115 103.983 19.1518 103.983 19.4467C103.983 19.7019 104.077 19.9074 104.266 20.0632C104.455 20.219 104.76 20.3466 105.181 20.446L106.394 20.7244C107.097 20.8868 107.62 21.1371 107.965 21.4751C108.31 21.8132 108.482 22.2524 108.482 22.7926C108.482 23.25 108.349 23.6577 108.084 24.0156C107.823 24.3703 107.456 24.6487 106.986 24.8509C106.518 25.053 105.976 25.1541 105.36 25.1541C104.505 25.1541 103.807 24.9718 103.267 24.6072C102.727 24.2393 102.395 23.7173 102.273 23.0412L103.709 22.8224C103.799 23.197 103.983 23.4804 104.261 23.6726C104.54 23.8615 104.903 23.956 105.35 23.956C105.837 23.956 106.227 23.8549 106.518 23.6527C106.81 23.4472 106.956 23.197 106.956 22.902C106.956 22.6634 106.866 22.4628 106.687 22.3004C106.512 22.138 106.242 22.0154 105.877 21.9325L104.584 21.6491C103.872 21.4867 103.345 21.2282 103.003 20.8736C102.665 20.5189 102.496 20.0698 102.496 19.5263C102.496 19.0755 102.622 18.6811 102.874 18.343C103.126 18.005 103.474 17.7415 103.918 17.5526C104.362 17.3603 104.871 17.2642 105.444 17.2642C106.27 17.2642 106.919 17.4432 107.393 17.8011C107.867 18.1558 108.18 18.6314 108.333 19.228ZM113.681 17.3636V18.5568H109.51V17.3636H113.681ZM110.629 15.5341H112.115V22.7578C112.115 23.0462 112.158 23.2633 112.244 23.4091C112.33 23.5516 112.442 23.6494 112.577 23.7024C112.717 23.7521 112.867 23.777 113.03 23.777C113.149 23.777 113.254 23.7687 113.343 23.7521C113.433 23.7356 113.502 23.7223 113.552 23.7124L113.82 24.9403C113.734 24.9735 113.612 25.0066 113.452 25.0398C113.293 25.0762 113.094 25.0961 112.856 25.0994C112.465 25.1061 112.1 25.0365 111.762 24.8906C111.424 24.7448 111.151 24.5194 110.942 24.2145C110.733 23.9096 110.629 23.5268 110.629 23.0661V15.5341ZM117.548 25.169C117.064 25.169 116.626 25.0795 116.235 24.9006C115.844 24.7183 115.534 24.4548 115.306 24.1101C115.08 23.7654 114.968 23.3428 114.968 22.8423C114.968 22.4115 115.05 22.0568 115.216 21.7784C115.382 21.5 115.606 21.2796 115.887 21.1172C116.169 20.9548 116.484 20.8321 116.832 20.7493C117.18 20.6664 117.535 20.6035 117.896 20.5604C118.353 20.5073 118.724 20.4643 119.009 20.4311C119.294 20.3946 119.502 20.3366 119.631 20.2571C119.76 20.1776 119.825 20.0483 119.825 19.8693V19.8345C119.825 19.4003 119.702 19.0639 119.457 18.8253C119.215 18.5866 118.854 18.4673 118.373 18.4673C117.873 18.4673 117.478 18.5784 117.19 18.8004C116.905 19.0192 116.708 19.2628 116.598 19.5312L115.201 19.2131C115.367 18.7491 115.609 18.3745 115.927 18.0895C116.249 17.8011 116.618 17.5923 117.036 17.4631C117.453 17.3305 117.892 17.2642 118.353 17.2642C118.658 17.2642 118.981 17.3007 119.323 17.3736C119.667 17.4432 119.989 17.5724 120.287 17.7614C120.589 17.9503 120.836 18.2204 121.028 18.5717C121.22 18.9197 121.316 19.3722 121.316 19.929V25H119.865V23.956H119.805C119.709 24.1482 119.565 24.3371 119.372 24.5227C119.18 24.7083 118.933 24.8625 118.632 24.9851C118.33 25.1077 117.969 25.169 117.548 25.169ZM117.871 23.9759C118.282 23.9759 118.633 23.8946 118.925 23.7322C119.22 23.5698 119.444 23.3577 119.596 23.0959C119.752 22.8307 119.83 22.5473 119.83 22.2457V21.2614C119.777 21.3144 119.674 21.3641 119.521 21.4105C119.372 21.4536 119.202 21.4917 119.009 21.5249C118.817 21.5547 118.63 21.5829 118.448 21.6094C118.265 21.6326 118.113 21.6525 117.99 21.669C117.702 21.7055 117.438 21.7668 117.2 21.853C116.964 21.9392 116.776 22.0634 116.633 22.2259C116.494 22.3849 116.424 22.5971 116.424 22.8622C116.424 23.2301 116.56 23.5085 116.832 23.6974C117.104 23.883 117.45 23.9759 117.871 23.9759ZM123.296 25V17.3636H124.733V18.5767H124.812C124.952 18.1657 125.197 17.8426 125.548 17.6072C125.903 17.3686 126.304 17.2493 126.751 17.2493C126.844 17.2493 126.954 17.2526 127.08 17.2592C127.209 17.2659 127.31 17.2741 127.383 17.2841V18.706C127.323 18.6894 127.217 18.6712 127.065 18.6513C126.912 18.6281 126.76 18.6165 126.607 18.6165C126.256 18.6165 125.943 18.6911 125.668 18.8402C125.396 18.986 125.18 19.1899 125.021 19.4517C124.862 19.7102 124.783 20.0052 124.783 20.3366V25H123.296ZM132.685 17.3636V18.5568H128.514V17.3636H132.685ZM129.632 15.5341H131.119V22.7578C131.119 23.0462 131.162 23.2633 131.248 23.4091C131.334 23.5516 131.445 23.6494 131.581 23.7024C131.721 23.7521 131.871 23.777 132.034 23.777C132.153 23.777 132.257 23.7687 132.347 23.7521C132.436 23.7356 132.506 23.7223 132.556 23.7124L132.824 24.9403C132.738 24.9735 132.615 25.0066 132.456 25.0398C132.297 25.0762 132.098 25.0961 131.86 25.0994C131.469 25.1061 131.104 25.0365 130.766 24.8906C130.428 24.7448 130.154 24.5194 129.946 24.2145C129.737 23.9096 129.632 23.5268 129.632 23.0661V15.5341Z" fill="white"/>
<g clip-path="url(#clip1_3_2)">
<path d="M21.1942 15.9812L18.896 12H14.4792L16.7779 15.9812H21.1942Z" fill="white"/>
<path d="M23.4026 19.8059H28L25.7916 15.9812H21.1942L23.4026 19.8059Z" fill="white"/>
<path d="M16.5066 16.1377L14.2084 12.1565L12 15.9812L14.2987 19.9624L16.5066 16.1377Z" fill="white"/>
<path d="M16.5066 23.7871L14.2987 19.9624L12 23.9437L14.2084 27.7689L16.5066 23.7871Z" fill="white"/>
<path d="M16.7779 23.9437L14.4792 27.9254H18.896L21.1942 23.9437H16.7779Z" fill="white"/>
<path d="M28 20.1189H23.4026L21.1942 23.9437H25.7916L28 20.1189Z" fill="white"/>
</g>
</g>
<defs>
<clipPath id="clip0_3_2">
<rect width="146" height="40" fill="white"/>
</clipPath>
<clipPath id="clip1_3_2">
<rect width="16" height="15.9254" fill="white" transform="translate(12 12)"/>
</clipPath>
</defs>
</svg>
