<svg width="157" height="42" viewBox="0 0 157 42" fill="none" xmlns="http://www.w3.org/2000/svg">
<rect width="157" height="41.9994" fill="#0066FF"/>
<path d="M17.204 25.5V15.896H22.258C22.9113 15.896 23.4527 16.0173 23.882 16.26C24.3207 16.4933 24.6473 16.8247 24.862 17.254C25.0767 17.674 25.184 18.1593 25.184 18.71C25.184 19.3727 25.0347 19.942 24.736 20.418C24.4373 20.894 24.0267 21.2347 23.504 21.44L25.52 25.5H24.064L22.188 21.678H18.534V25.5H17.204ZM18.534 20.544H22.132C22.664 20.544 23.0793 20.3807 23.378 20.054C23.686 19.7273 23.84 19.2793 23.84 18.71C23.84 18.3553 23.7747 18.0567 23.644 17.814C23.5133 17.5713 23.322 17.3847 23.07 17.254C22.818 17.114 22.5053 17.044 22.132 17.044H18.534V20.544ZM29.2832 25.668C28.5738 25.668 28.0045 25.486 27.5752 25.122C27.1458 24.758 26.9312 24.1233 26.9312 23.218V18.136H28.1632V23.05C28.1632 23.358 28.2005 23.61 28.2752 23.806C28.3498 24.002 28.4572 24.156 28.5972 24.268C28.7372 24.38 28.9005 24.4593 29.0872 24.506C29.2832 24.5527 29.4932 24.576 29.7172 24.576C30.0718 24.576 30.3985 24.492 30.6972 24.324C30.9958 24.156 31.2385 23.9133 31.4252 23.596C31.6212 23.2693 31.7192 22.8913 31.7192 22.462V18.136H32.9512V25.5H31.9572L31.8452 24.394H31.7472C31.5512 24.6927 31.3272 24.9353 31.0752 25.122C30.8325 25.3087 30.5572 25.444 30.2492 25.528C29.9505 25.6213 29.6285 25.668 29.2832 25.668ZM34.8625 25.5V18.136H35.8565L35.9685 19.242H36.0665C36.2625 18.9433 36.4818 18.7007 36.7245 18.514C36.9765 18.3273 37.2518 18.192 37.5505 18.108C37.8585 18.0147 38.1852 17.968 38.5305 17.968C38.9972 17.968 39.4032 18.0473 39.7485 18.206C40.1032 18.3647 40.3785 18.6213 40.5745 18.976C40.7798 19.3307 40.8825 19.8113 40.8825 20.418V25.5H39.6505V20.586C39.6505 20.278 39.6085 20.026 39.5245 19.83C39.4498 19.634 39.3425 19.48 39.2025 19.368C39.0718 19.256 38.9085 19.1767 38.7125 19.13C38.5258 19.0833 38.3158 19.06 38.0825 19.06C37.7372 19.06 37.4105 19.144 37.1025 19.312C36.7945 19.48 36.5472 19.7227 36.3605 20.04C36.1832 20.3573 36.0945 20.7353 36.0945 21.174V25.5H34.8625ZM48.7009 25.668C47.9543 25.668 47.3243 25.5327 46.8109 25.262C46.3069 24.982 45.9196 24.5573 45.6489 23.988C45.3876 23.4187 45.2569 22.6953 45.2569 21.818C45.2569 20.9313 45.3876 20.208 45.6489 19.648C45.9196 19.0787 46.3069 18.6587 46.8109 18.388C47.3243 18.108 47.9543 17.968 48.7009 17.968C49.4476 17.968 50.0729 18.108 50.5769 18.388C51.0903 18.6587 51.4776 19.0787 51.7389 19.648C52.0003 20.208 52.1309 20.9313 52.1309 21.818C52.1309 22.6953 52.0003 23.4187 51.7389 23.988C51.4776 24.5573 51.0903 24.982 50.5769 25.262C50.0729 25.5327 49.4476 25.668 48.7009 25.668ZM48.7009 24.632C49.1769 24.632 49.5736 24.5387 49.8909 24.352C50.2083 24.1653 50.4463 23.876 50.6049 23.484C50.7729 23.0827 50.8569 22.5787 50.8569 21.972V21.664C50.8569 21.048 50.7729 20.544 50.6049 20.152C50.4463 19.76 50.2083 19.4707 49.8909 19.284C49.5736 19.0973 49.1769 19.004 48.7009 19.004C48.2249 19.004 47.8236 19.0973 47.4969 19.284C47.1796 19.4707 46.9416 19.76 46.7829 20.152C46.6243 20.544 46.5449 21.048 46.5449 21.664V21.972C46.5449 22.5787 46.6243 23.0827 46.7829 23.484C46.9416 23.876 47.1796 24.1653 47.4969 24.352C47.8236 24.5387 48.2249 24.632 48.7009 24.632ZM53.6613 25.5V18.136H54.6553L54.7673 19.242H54.8653C55.0613 18.9433 55.2806 18.7007 55.5233 18.514C55.7753 18.3273 56.0506 18.192 56.3493 18.108C56.6573 18.0147 56.984 17.968 57.3293 17.968C57.796 17.968 58.202 18.0473 58.5473 18.206C58.902 18.3647 59.1773 18.6213 59.3733 18.976C59.5786 19.3307 59.6813 19.8113 59.6813 20.418V25.5H58.4493V20.586C58.4493 20.278 58.4073 20.026 58.3233 19.83C58.2486 19.634 58.1413 19.48 58.0013 19.368C57.8706 19.256 57.7073 19.1767 57.5113 19.13C57.3246 19.0833 57.1146 19.06 56.8813 19.06C56.536 19.06 56.2093 19.144 55.9013 19.312C55.5933 19.48 55.346 19.7227 55.1593 20.04C54.982 20.3573 54.8933 20.7353 54.8933 21.174V25.5H53.6613Z" fill="white"/>
<path d="M88.9463 25.4877L92.4723 16.4961H94.3464L97.885 25.4877H96.3122L95.5128 23.4033H91.2529L90.4535 25.4877H88.9463ZM91.725 22.1578H95.028L94.019 19.523C93.993 19.4448 93.9534 19.3354 93.9012 19.1957C93.8491 19.056 93.7944 18.9028 93.7371 18.7371C93.6799 18.5713 93.6235 18.403 93.5671 18.2321C93.5099 18.0613 93.4603 17.9065 93.4165 17.7668H93.3382C93.2861 17.9326 93.2204 18.1295 93.1413 18.3567C93.0631 18.5839 92.9865 18.8027 92.9116 19.0122C92.8375 19.2218 92.7744 19.3926 92.7214 19.523L91.725 22.1578Z" fill="white"/>
<path d="M98.5137 25.4903V18.5957H99.6413L99.7591 19.5786H99.8509C100.017 19.3253 100.214 19.1158 100.441 18.9491C100.668 18.7834 100.919 18.6563 101.195 18.5688C101.47 18.4813 101.774 18.4375 102.105 18.4375C102.542 18.4375 102.927 18.5141 103.259 18.6672C103.591 18.8204 103.851 19.067 104.039 19.4078C104.227 19.7486 104.321 20.2072 104.321 20.7845V25.4903H102.958V20.994C102.958 20.7323 102.925 20.5135 102.859 20.3385C102.794 20.1643 102.699 20.0238 102.577 19.9194C102.455 19.8142 102.311 19.7402 102.145 19.6964C101.979 19.6527 101.795 19.6308 101.595 19.6308C101.28 19.6308 100.994 19.7074 100.736 19.8605C100.479 20.0137 100.271 20.2257 100.113 20.4959C99.9561 20.7668 99.8778 21.0858 99.8778 21.4527V25.4894H98.5145L98.5137 25.4903Z" fill="white"/>
<path d="M114.649 25.6473C114.168 25.6473 113.744 25.5951 113.377 25.4899C113.011 25.3847 112.704 25.2408 112.46 25.0574C112.215 24.8739 112.029 24.6534 111.903 24.3959C111.776 24.1384 111.713 23.8523 111.713 23.5376C111.713 23.4938 111.715 23.4543 111.72 23.4198C111.724 23.3853 111.726 23.3541 111.726 23.328H113.076V23.4719C113.076 23.7429 113.15 23.9592 113.299 24.1207C113.447 24.2823 113.647 24.3959 113.896 24.4616C114.145 24.5272 114.418 24.56 114.715 24.56C114.977 24.56 115.22 24.5272 115.443 24.4616C115.666 24.3959 115.849 24.2975 115.993 24.167C116.137 24.0358 116.209 23.87 116.209 23.6689C116.209 23.4071 116.117 23.206 115.934 23.0663C115.751 22.9266 115.51 22.8156 115.213 22.7322C114.916 22.6489 114.605 22.5597 114.282 22.4638C113.993 22.3855 113.707 22.2997 113.424 22.208C113.139 22.1163 112.884 21.9959 112.657 21.8478C112.43 21.6997 112.246 21.5112 112.107 21.284C111.967 21.0568 111.897 20.7732 111.897 20.4324C111.897 20.1092 111.967 19.8248 112.107 19.5808C112.246 19.3359 112.441 19.1305 112.69 18.9648C112.939 18.799 113.236 18.6719 113.581 18.5844C113.926 18.4969 114.304 18.4531 114.715 18.4531C115.125 18.4531 115.523 18.4994 115.855 18.5911C116.187 18.6829 116.468 18.8116 116.701 18.9774C116.932 19.1432 117.109 19.3426 117.232 19.574C117.354 19.8054 117.415 20.052 117.415 20.3146C117.415 20.3667 117.413 20.4214 117.408 20.4787C117.404 20.5359 117.402 20.5729 117.402 20.5897H116.064V20.4719C116.064 20.2977 116.016 20.1395 115.921 19.9998C115.825 19.8601 115.673 19.7465 115.469 19.659C115.263 19.5715 114.991 19.5277 114.65 19.5277C114.423 19.5277 114.222 19.5471 114.046 19.5866C113.871 19.6262 113.728 19.6809 113.614 19.7507C113.5 19.8206 113.415 19.9039 113.358 19.9998C113.301 20.0958 113.273 20.2052 113.273 20.3272C113.273 20.5283 113.345 20.6831 113.489 20.7925C113.633 20.9019 113.823 20.9937 114.06 21.0677C114.296 21.1418 114.549 21.2226 114.82 21.3101C115.135 21.3976 115.454 21.4868 115.777 21.5785C116.1 21.6702 116.399 21.7864 116.675 21.9261C116.95 22.0658 117.173 22.2585 117.343 22.5025C117.514 22.7474 117.599 23.0747 117.599 23.4854C117.599 23.8616 117.525 24.1889 117.376 24.4683C117.227 24.7485 117.02 24.9732 116.753 25.1432C116.486 25.3132 116.174 25.4402 115.815 25.5236C115.457 25.6069 115.068 25.6481 114.649 25.6481V25.6473Z" fill="white"/>
<path d="M121.374 25.6498C120.684 25.6498 120.107 25.5211 119.644 25.2636C119.181 25.0061 118.834 24.6106 118.602 24.0771C118.371 23.5444 118.255 22.8669 118.255 22.0456C118.255 21.2243 118.373 20.5494 118.609 20.0209C118.845 19.4925 119.197 19.0969 119.664 18.8344C120.132 18.5727 120.706 18.4414 121.388 18.4414C121.86 18.4414 122.271 18.5003 122.62 18.6181C122.969 18.7359 123.266 18.911 123.511 19.1424C123.756 19.3738 123.937 19.6599 124.055 20.0007C124.173 20.3416 124.231 20.7303 124.231 21.1671H122.856C122.856 20.8002 122.803 20.4989 122.698 20.2625C122.593 20.0268 122.431 19.8493 122.213 19.7315C121.995 19.6136 121.711 19.5547 121.362 19.5547C120.995 19.5547 120.684 19.6397 120.431 19.8106C120.178 19.9805 119.985 20.2389 119.855 20.5839C119.723 20.9289 119.658 21.3817 119.658 21.9404V22.1634C119.658 22.697 119.721 23.1396 119.848 23.4939C119.974 23.8473 120.167 24.1099 120.424 24.2799C120.682 24.4507 121.012 24.5357 121.414 24.5357C121.763 24.5357 122.045 24.4726 122.26 24.3455C122.473 24.2184 122.635 24.035 122.744 23.7951C122.854 23.5553 122.909 23.2641 122.909 22.9233H124.232C124.232 23.334 124.173 23.7059 124.056 24.0375C123.938 24.3699 123.759 24.656 123.518 24.8958C123.277 25.1365 122.978 25.3217 122.62 25.4529C122.261 25.5842 121.847 25.6498 121.374 25.6498Z" fill="white"/>
<path d="M132.052 25.4877V16.4961H133.415V25.4877H132.052Z" fill="white"/>
<path d="M137.772 25.6498C137.064 25.6498 136.471 25.5211 135.995 25.2636C135.519 25.0061 135.159 24.6106 134.914 24.0771C134.669 23.5444 134.547 22.8669 134.547 22.0456C134.547 21.2243 134.669 20.5359 134.914 20.0075C135.159 19.479 135.521 19.086 136.002 18.8277C136.482 18.5702 137.081 18.4414 137.798 18.4414C138.453 18.4414 139.001 18.566 139.443 18.815C139.884 19.0641 140.219 19.442 140.446 19.9486C140.673 20.4552 140.787 21.093 140.787 21.8622V22.3864H135.95C135.967 22.8762 136.041 23.2843 136.173 23.6117C136.304 23.939 136.503 24.1797 136.769 24.3329C137.036 24.486 137.374 24.5626 137.785 24.5626C138.038 24.5626 138.266 24.5298 138.467 24.4641C138.668 24.3985 138.838 24.3026 138.978 24.1755C139.117 24.0493 139.227 23.8961 139.305 23.7169C139.383 23.5376 139.423 23.3348 139.423 23.1076H140.76C140.76 23.5183 140.69 23.881 140.55 24.1957C140.411 24.5104 140.207 24.7747 139.941 24.9884C139.674 25.203 139.358 25.3663 138.991 25.4799C138.624 25.5935 138.218 25.6507 137.772 25.6507V25.6498ZM135.976 21.3892H139.358C139.358 21.0484 139.321 20.7623 139.247 20.5309C139.173 20.2995 139.065 20.1093 138.925 19.9603C138.786 19.8122 138.619 19.7045 138.427 19.6389C138.235 19.5732 138.017 19.5404 137.772 19.5404C137.405 19.5404 137.092 19.6061 136.834 19.7373C136.577 19.8686 136.377 20.0714 136.238 20.3466C136.098 20.6218 136.01 20.9693 135.976 21.3884V21.3892Z" fill="white"/>
<path d="M130.344 19.4212C130.142 19.1065 129.843 18.8625 129.445 18.6933C129.047 18.5225 128.551 18.4375 127.957 18.4375C127.405 18.4375 126.92 18.5124 126.5 18.6605C126.08 18.8086 125.754 19.0257 125.522 19.3093C125.291 19.5946 125.175 19.9413 125.175 20.3528V20.511C125.175 20.5548 125.179 20.5985 125.187 20.6414H126.499V20.4454C126.499 20.288 126.54 20.1424 126.624 20.0052C126.707 19.8706 126.851 19.7562 127.056 19.6644C127.262 19.5727 127.548 19.5264 127.915 19.5264C128.282 19.5264 128.564 19.5744 128.761 19.6703C128.958 19.7663 129.094 19.9017 129.168 20.0768C129.242 20.2518 129.28 20.4529 129.28 20.6801V21.3626C128.632 21.3626 128.035 21.398 127.489 21.4686C126.942 21.5377 126.472 21.6605 126.078 21.8355C125.685 22.0106 125.378 22.2513 125.16 22.5559C124.941 22.8622 124.832 23.2518 124.832 23.7239C124.832 24.1262 124.902 24.4518 125.042 24.7018C125.181 24.9508 125.363 25.1452 125.586 25.2849C125.809 25.4255 126.047 25.5222 126.301 25.5744C126.554 25.6266 126.79 25.6527 127.009 25.6527C127.368 25.6527 127.692 25.6114 127.98 25.529C128.269 25.4457 128.525 25.327 128.748 25.1747C128.97 25.0224 129.161 24.8448 129.318 24.6437V25.4962H130.644V20.5632C130.644 20.1172 130.543 19.7368 130.342 19.4221L130.344 19.4212ZM129.281 22.7932C129.281 23.0465 129.233 23.2804 129.137 23.495C129.041 23.7096 128.909 23.8931 128.743 24.0462C128.578 24.2002 128.378 24.3172 128.147 24.4005C127.915 24.4838 127.664 24.525 127.393 24.525C127.157 24.525 126.951 24.4897 126.776 24.419C126.601 24.35 126.47 24.2473 126.382 24.1119C126.295 23.9764 126.251 23.8072 126.251 23.6069C126.251 23.2737 126.377 23.0145 126.631 22.8252C126.885 22.6375 127.24 22.5088 127.694 22.4389C128.149 22.3682 128.678 22.3346 129.282 22.3346V22.794L129.281 22.7932Z" fill="white"/>
<path d="M105.409 26.7656V28.0405H106.784L107.226 26.7656H105.409Z" fill="white"/>
<path d="M108.939 25.7197L111.42 18.5938H110.029L108.304 24.0645L108.229 23.8709L106.316 18.5938H104.839L107.581 25.7416L107.227 26.7657H108.577L108.939 25.7197Z" fill="white"/>
<path d="M108.578 26.7656H107.228L106.786 28.0414H107.66C107.945 28.0414 108.199 27.8604 108.292 27.5912L108.579 26.7665L108.578 26.7656Z" fill="white"/>
<path d="M79.7498 21.2812L77.3145 25.4998H82.2189C82.399 25.4998 82.5656 25.4038 82.6565 25.2473L84.9463 21.2812H79.7498Z" fill="white"/>
<path d="M84.9463 20.7185L82.6565 16.7525C82.5665 16.5959 82.3998 16.5 82.2189 16.5H77.3145L79.7498 20.7185H84.9463Z" fill="white"/>
<path d="M72.4434 16.4996H77.3142L74.8619 12.2525C74.7719 12.0959 74.6053 12 74.4243 12H69.8447L72.4425 16.4996H72.4434Z" fill="white"/>
<path d="M69.3573 12.2812L67.0675 16.2473C66.9775 16.4038 66.9775 16.5957 67.0675 16.7522L69.5198 20.9994L71.9552 16.7808L69.3573 12.2812Z" fill="white"/>
<path d="M71.956 25.2185L69.5206 21L67.0675 25.248C66.9775 25.4045 66.9775 25.5964 67.0675 25.7529L69.3573 29.719L71.9552 25.2194L71.956 25.2185Z" fill="white"/>
<path d="M69.8447 29.9996H74.4243C74.6044 29.9996 74.7711 29.9037 74.8619 29.7471L77.3142 25.5H72.4434L69.8456 29.9996H69.8447Z" fill="white"/>
</svg>
