<svg width="178" height="42" viewBox="0 0 178 42" fill="none" xmlns="http://www.w3.org/2000/svg">
<rect width="178" height="41.9994" fill="#0066FF"/>
<path d="M19.556 25.5V17.058H16.266V15.896H24.204V17.058H20.886V25.5H19.556ZM24.4719 25.5V18.136H25.4659L25.5779 19.354H25.6759C25.7505 19.1207 25.8532 18.9013 25.9839 18.696C26.1145 18.4813 26.2919 18.3087 26.5159 18.178C26.7399 18.038 27.0152 17.968 27.3419 17.968C27.4819 17.968 27.6079 17.982 27.7199 18.01C27.8412 18.0287 27.9299 18.052 27.9859 18.08V19.214H27.5239C27.2065 19.214 26.9312 19.27 26.6979 19.382C26.4739 19.4847 26.2872 19.634 26.1379 19.83C25.9885 20.026 25.8765 20.2593 25.8019 20.53C25.7365 20.8007 25.7039 21.09 25.7039 21.398V25.5H24.4719ZM29.7503 28.048C29.5263 28.048 29.3303 28.0293 29.1623 27.992C29.0036 27.964 28.8963 27.9453 28.8403 27.936V27.04H29.4563C29.6803 27.04 29.8996 26.9933 30.1143 26.9C30.329 26.8067 30.5296 26.648 30.7163 26.424C30.903 26.2 31.0616 25.892 31.1923 25.5L28.3363 18.136H29.6243L31.0943 21.93C31.1596 22.1073 31.2343 22.3267 31.3183 22.588C31.4116 22.84 31.5003 23.1013 31.5843 23.372C31.6776 23.6427 31.7523 23.8807 31.8083 24.086H31.8923C31.9296 23.9367 31.9763 23.7687 32.0323 23.582C32.0883 23.3953 32.1443 23.204 32.2003 23.008C32.2656 22.8027 32.3263 22.6113 32.3823 22.434C32.4476 22.2473 32.499 22.084 32.5363 21.944L33.7823 18.136H35.0283L32.5363 25.29C32.3963 25.6913 32.2423 26.06 32.0743 26.396C31.9063 26.7413 31.7196 27.0353 31.5143 27.278C31.309 27.5207 31.0616 27.7073 30.7723 27.838C30.483 27.978 30.1423 28.048 29.7503 28.048ZM39.3388 25.5V15.896H44.3928C45.0461 15.896 45.5874 16.0173 46.0168 16.26C46.4554 16.4933 46.7821 16.8247 46.9968 17.254C47.2114 17.674 47.3188 18.1593 47.3188 18.71C47.3188 19.3727 47.1694 19.942 46.8708 20.418C46.5721 20.894 46.1614 21.2347 45.6388 21.44L47.6548 25.5H46.1988L44.3228 21.678H40.6688V25.5H39.3388ZM40.6688 20.544H44.2668C44.7988 20.544 45.2141 20.3807 45.5128 20.054C45.8208 19.7273 45.9748 19.2793 45.9748 18.71C45.9748 18.3553 45.9094 18.0567 45.7788 17.814C45.6481 17.5713 45.4568 17.3847 45.2048 17.254C44.9528 17.114 44.6401 17.044 44.2668 17.044H40.6688V20.544ZM50.9839 25.668C50.7133 25.668 50.4426 25.6353 50.1719 25.57C49.9013 25.5047 49.6493 25.3973 49.4159 25.248C49.1826 25.0987 48.9959 24.8933 48.8559 24.632C48.7159 24.3613 48.6459 24.0253 48.6459 23.624C48.6459 23.12 48.7673 22.7047 49.0099 22.378C49.2526 22.0513 49.5886 21.7993 50.0179 21.622C50.4566 21.4353 50.9746 21.3093 51.5719 21.244C52.1693 21.1693 52.8179 21.132 53.5179 21.132V20.292C53.5179 20.0213 53.4713 19.788 53.3779 19.592C53.2846 19.396 53.1166 19.2467 52.8739 19.144C52.6406 19.032 52.3046 18.976 51.8659 18.976C51.4459 18.976 51.1099 19.032 50.8579 19.144C50.6153 19.2467 50.4426 19.382 50.3399 19.55C50.2466 19.718 50.1999 19.9047 50.1999 20.11V20.32H49.0099C49.0006 20.2733 48.9959 20.2267 48.9959 20.18C48.9959 20.1333 48.9959 20.0773 48.9959 20.012C48.9959 19.564 49.1173 19.1907 49.3599 18.892C49.6119 18.584 49.9619 18.3553 50.4099 18.206C50.8579 18.0473 51.3713 17.968 51.9499 17.968C52.5659 17.968 53.0793 18.0567 53.4899 18.234C53.9099 18.4113 54.2226 18.6633 54.4279 18.99C54.6426 19.3167 54.7499 19.7087 54.7499 20.166V24.156C54.7499 24.3333 54.7919 24.4593 54.8759 24.534C54.9599 24.5993 55.0626 24.632 55.1839 24.632H55.7299V25.444C55.5993 25.5 55.4546 25.5467 55.2959 25.584C55.1373 25.6307 54.9553 25.654 54.7499 25.654C54.5073 25.654 54.3066 25.6027 54.1479 25.5C53.9893 25.4067 53.8679 25.276 53.7839 25.108C53.6999 24.9307 53.6439 24.7347 53.6159 24.52H53.5179C53.3499 24.7533 53.1353 24.9587 52.8739 25.136C52.6219 25.304 52.3373 25.4347 52.0199 25.528C51.7026 25.6213 51.3573 25.668 50.9839 25.668ZM51.2919 24.632C51.5906 24.632 51.8706 24.5853 52.1319 24.492C52.4026 24.3987 52.6406 24.268 52.8459 24.1C53.0513 23.9227 53.2146 23.7127 53.3359 23.47C53.4573 23.2273 53.5179 22.9613 53.5179 22.672V22.056C52.7619 22.056 52.1179 22.098 51.5859 22.182C51.0539 22.266 50.6433 22.4153 50.3539 22.63C50.0739 22.8447 49.9339 23.148 49.9339 23.54C49.9339 23.792 49.9899 23.9973 50.1019 24.156C50.2139 24.3147 50.3726 24.436 50.5779 24.52C50.7833 24.5947 51.0213 24.632 51.2919 24.632ZM57.3948 28.048C57.1708 28.048 56.9748 28.0293 56.8068 27.992C56.6482 27.964 56.5408 27.9453 56.4848 27.936V27.04H57.1008C57.3248 27.04 57.5442 26.9933 57.7588 26.9C57.9735 26.8067 58.1742 26.648 58.3608 26.424C58.5475 26.2 58.7062 25.892 58.8368 25.5L55.9808 18.136H57.2688L58.7388 21.93C58.8042 22.1073 58.8788 22.3267 58.9628 22.588C59.0562 22.84 59.1448 23.1013 59.2288 23.372C59.3222 23.6427 59.3968 23.8807 59.4528 24.086H59.5368C59.5742 23.9367 59.6208 23.7687 59.6768 23.582C59.7328 23.3953 59.7888 23.204 59.8448 23.008C59.9102 22.8027 59.9708 22.6113 60.0268 22.434C60.0922 22.2473 60.1435 22.084 60.1808 21.944L61.4268 18.136H62.6728L60.1808 25.29C60.0408 25.6913 59.8868 26.06 59.7188 26.396C59.5508 26.7413 59.3642 27.0353 59.1588 27.278C58.9535 27.5207 58.7062 27.7073 58.4168 27.838C58.1275 27.978 57.7868 28.048 57.3948 28.048ZM69.7693 25.668C69.0226 25.668 68.3926 25.5327 67.8793 25.262C67.3753 24.982 66.988 24.5573 66.7173 23.988C66.456 23.4187 66.3253 22.6953 66.3253 21.818C66.3253 20.9313 66.456 20.208 66.7173 19.648C66.988 19.0787 67.3753 18.6587 67.8793 18.388C68.3926 18.108 69.0226 17.968 69.7693 17.968C70.516 17.968 71.1413 18.108 71.6453 18.388C72.1586 18.6587 72.546 19.0787 72.8073 19.648C73.0686 20.208 73.1993 20.9313 73.1993 21.818C73.1993 22.6953 73.0686 23.4187 72.8073 23.988C72.546 24.5573 72.1586 24.982 71.6453 25.262C71.1413 25.5327 70.516 25.668 69.7693 25.668ZM69.7693 24.632C70.2453 24.632 70.642 24.5387 70.9593 24.352C71.2766 24.1653 71.5146 23.876 71.6733 23.484C71.8413 23.0827 71.9253 22.5787 71.9253 21.972V21.664C71.9253 21.048 71.8413 20.544 71.6733 20.152C71.5146 19.76 71.2766 19.4707 70.9593 19.284C70.642 19.0973 70.2453 19.004 69.7693 19.004C69.2933 19.004 68.892 19.0973 68.5653 19.284C68.248 19.4707 68.01 19.76 67.8513 20.152C67.6926 20.544 67.6133 21.048 67.6133 21.664V21.972C67.6133 22.5787 67.6926 23.0827 67.8513 23.484C68.01 23.876 68.248 24.1653 68.5653 24.352C68.892 24.5387 69.2933 24.632 69.7693 24.632ZM74.7297 25.5V18.136H75.7237L75.8357 19.242H75.9337C76.1297 18.9433 76.349 18.7007 76.5917 18.514C76.8437 18.3273 77.119 18.192 77.4177 18.108C77.7257 18.0147 78.0523 17.968 78.3977 17.968C78.8643 17.968 79.2703 18.0473 79.6157 18.206C79.9703 18.3647 80.2457 18.6213 80.4417 18.976C80.647 19.3307 80.7497 19.8113 80.7497 20.418V25.5H79.5177V20.586C79.5177 20.278 79.4757 20.026 79.3917 19.83C79.317 19.634 79.2097 19.48 79.0697 19.368C78.939 19.256 78.7757 19.1767 78.5797 19.13C78.393 19.0833 78.183 19.06 77.9497 19.06C77.6043 19.06 77.2777 19.144 76.9697 19.312C76.6617 19.48 76.4143 19.7227 76.2277 20.04C76.0503 20.3573 75.9617 20.7353 75.9617 21.174V25.5H74.7297Z" fill="white"/>
<path d="M109.946 25.4877L113.472 16.4961H115.346L118.885 25.4877H117.312L116.513 23.4033H112.253L111.453 25.4877H109.946ZM112.725 22.1578H116.028L115.019 19.523C114.993 19.4448 114.953 19.3354 114.901 19.1957C114.849 19.056 114.794 18.9028 114.737 18.7371C114.68 18.5713 114.624 18.403 114.567 18.2321C114.51 18.0613 114.46 17.9065 114.417 17.7668H114.338C114.286 17.9326 114.22 18.1295 114.141 18.3567C114.063 18.5839 113.986 18.8027 113.912 19.0122C113.838 19.2218 113.774 19.3926 113.721 19.523L112.725 22.1578Z" fill="white"/>
<path d="M119.514 25.4903V18.5957H120.641L120.759 19.5786H120.851C121.017 19.3253 121.214 19.1158 121.441 18.9491C121.668 18.7834 121.919 18.6563 122.195 18.5688C122.47 18.4813 122.774 18.4375 123.105 18.4375C123.542 18.4375 123.927 18.5141 124.259 18.6672C124.591 18.8204 124.851 19.067 125.039 19.4078C125.227 19.7486 125.321 20.2072 125.321 20.7845V25.4903H123.958V20.994C123.958 20.7323 123.925 20.5135 123.859 20.3385C123.794 20.1643 123.699 20.0238 123.577 19.9194C123.455 19.8142 123.311 19.7402 123.145 19.6964C122.979 19.6527 122.795 19.6308 122.595 19.6308C122.28 19.6308 121.994 19.7074 121.736 19.8605C121.479 20.0137 121.271 20.2257 121.113 20.4959C120.956 20.7668 120.878 21.0858 120.878 21.4527V25.4894H119.515L119.514 25.4903Z" fill="white"/>
<path d="M135.649 25.6473C135.168 25.6473 134.744 25.5951 134.377 25.4899C134.011 25.3847 133.704 25.2408 133.46 25.0574C133.215 24.8739 133.029 24.6534 132.903 24.3959C132.776 24.1384 132.713 23.8523 132.713 23.5376C132.713 23.4938 132.715 23.4543 132.72 23.4198C132.724 23.3853 132.726 23.3541 132.726 23.328H134.076V23.4719C134.076 23.7429 134.15 23.9592 134.299 24.1207C134.447 24.2823 134.647 24.3959 134.896 24.4616C135.145 24.5272 135.418 24.56 135.715 24.56C135.977 24.56 136.22 24.5272 136.443 24.4616C136.666 24.3959 136.849 24.2975 136.993 24.167C137.137 24.0358 137.209 23.87 137.209 23.6689C137.209 23.4071 137.117 23.206 136.934 23.0663C136.751 22.9266 136.51 22.8156 136.213 22.7322C135.916 22.6489 135.605 22.5597 135.282 22.4638C134.993 22.3855 134.707 22.2997 134.424 22.208C134.139 22.1163 133.884 21.9959 133.657 21.8478C133.43 21.6997 133.246 21.5112 133.107 21.284C132.967 21.0568 132.897 20.7732 132.897 20.4324C132.897 20.1092 132.967 19.8248 133.107 19.5808C133.246 19.3359 133.441 19.1305 133.69 18.9648C133.939 18.799 134.236 18.6719 134.581 18.5844C134.926 18.4969 135.304 18.4531 135.715 18.4531C136.125 18.4531 136.523 18.4994 136.855 18.5911C137.187 18.6829 137.468 18.8116 137.701 18.9774C137.932 19.1432 138.109 19.3426 138.232 19.574C138.354 19.8054 138.415 20.052 138.415 20.3146C138.415 20.3667 138.413 20.4214 138.408 20.4787C138.404 20.5359 138.402 20.5729 138.402 20.5897H137.064V20.4719C137.064 20.2977 137.016 20.1395 136.921 19.9998C136.825 19.8601 136.673 19.7465 136.469 19.659C136.263 19.5715 135.991 19.5277 135.65 19.5277C135.423 19.5277 135.222 19.5471 135.046 19.5866C134.871 19.6262 134.728 19.6809 134.614 19.7507C134.5 19.8206 134.415 19.9039 134.358 19.9998C134.301 20.0958 134.273 20.2052 134.273 20.3272C134.273 20.5283 134.345 20.6831 134.489 20.7925C134.633 20.9019 134.823 20.9937 135.06 21.0677C135.296 21.1418 135.549 21.2226 135.82 21.3101C136.135 21.3976 136.454 21.4868 136.777 21.5785C137.1 21.6702 137.399 21.7864 137.675 21.9261C137.95 22.0658 138.173 22.2585 138.343 22.5025C138.514 22.7474 138.599 23.0747 138.599 23.4854C138.599 23.8616 138.525 24.1889 138.376 24.4683C138.227 24.7485 138.02 24.9732 137.753 25.1432C137.486 25.3132 137.174 25.4402 136.815 25.5236C136.457 25.6069 136.068 25.6481 135.649 25.6481V25.6473Z" fill="white"/>
<path d="M142.374 25.6498C141.684 25.6498 141.107 25.5211 140.644 25.2636C140.181 25.0061 139.834 24.6106 139.602 24.0771C139.371 23.5444 139.255 22.8669 139.255 22.0456C139.255 21.2243 139.373 20.5494 139.609 20.0209C139.845 19.4925 140.197 19.0969 140.664 18.8344C141.132 18.5727 141.706 18.4414 142.388 18.4414C142.86 18.4414 143.271 18.5003 143.62 18.6181C143.969 18.7359 144.266 18.911 144.511 19.1424C144.756 19.3738 144.937 19.6599 145.055 20.0007C145.173 20.3416 145.231 20.7303 145.231 21.1671H143.856C143.856 20.8002 143.803 20.4989 143.698 20.2625C143.593 20.0268 143.431 19.8493 143.213 19.7315C142.995 19.6136 142.711 19.5547 142.362 19.5547C141.995 19.5547 141.684 19.6397 141.431 19.8106C141.178 19.9805 140.985 20.2389 140.855 20.5839C140.723 20.9289 140.658 21.3817 140.658 21.9404V22.1634C140.658 22.697 140.721 23.1396 140.848 23.4939C140.974 23.8473 141.167 24.1099 141.424 24.2799C141.682 24.4507 142.012 24.5357 142.414 24.5357C142.763 24.5357 143.045 24.4726 143.26 24.3455C143.473 24.2184 143.635 24.035 143.744 23.7951C143.854 23.5553 143.909 23.2641 143.909 22.9233H145.232C145.232 23.334 145.173 23.7059 145.056 24.0375C144.938 24.3699 144.759 24.656 144.518 24.8958C144.277 25.1365 143.978 25.3217 143.62 25.4529C143.261 25.5842 142.847 25.6498 142.374 25.6498Z" fill="white"/>
<path d="M153.052 25.4877V16.4961H154.415V25.4877H153.052Z" fill="white"/>
<path d="M158.772 25.6498C158.064 25.6498 157.471 25.5211 156.995 25.2636C156.519 25.0061 156.159 24.6106 155.914 24.0771C155.669 23.5444 155.547 22.8669 155.547 22.0456C155.547 21.2243 155.669 20.5359 155.914 20.0075C156.159 19.479 156.521 19.086 157.002 18.8277C157.482 18.5702 158.081 18.4414 158.798 18.4414C159.453 18.4414 160.001 18.566 160.443 18.815C160.884 19.0641 161.219 19.442 161.446 19.9486C161.673 20.4552 161.787 21.093 161.787 21.8622V22.3864H156.95C156.967 22.8762 157.041 23.2843 157.173 23.6117C157.304 23.939 157.503 24.1797 157.769 24.3329C158.036 24.486 158.374 24.5626 158.785 24.5626C159.038 24.5626 159.266 24.5298 159.467 24.4641C159.668 24.3985 159.838 24.3026 159.978 24.1755C160.117 24.0493 160.227 23.8961 160.305 23.7169C160.383 23.5376 160.423 23.3348 160.423 23.1076H161.76C161.76 23.5183 161.69 23.881 161.55 24.1957C161.411 24.5104 161.207 24.7747 160.941 24.9884C160.674 25.203 160.358 25.3663 159.991 25.4799C159.624 25.5935 159.218 25.6507 158.772 25.6507V25.6498ZM156.976 21.3892H160.358C160.358 21.0484 160.321 20.7623 160.247 20.5309C160.173 20.2995 160.065 20.1093 159.925 19.9603C159.786 19.8122 159.619 19.7045 159.427 19.6389C159.235 19.5732 159.017 19.5404 158.772 19.5404C158.405 19.5404 158.092 19.6061 157.834 19.7373C157.577 19.8686 157.377 20.0714 157.238 20.3466C157.098 20.6218 157.01 20.9693 156.976 21.3884V21.3892Z" fill="white"/>
<path d="M151.344 19.4212C151.142 19.1065 150.843 18.8625 150.445 18.6933C150.047 18.5225 149.551 18.4375 148.957 18.4375C148.405 18.4375 147.92 18.5124 147.5 18.6605C147.08 18.8086 146.754 19.0257 146.522 19.3093C146.291 19.5946 146.175 19.9413 146.175 20.3528V20.511C146.175 20.5548 146.179 20.5985 146.187 20.6414H147.499V20.4454C147.499 20.288 147.54 20.1424 147.624 20.0052C147.707 19.8706 147.851 19.7562 148.056 19.6644C148.262 19.5727 148.548 19.5264 148.915 19.5264C149.282 19.5264 149.564 19.5744 149.761 19.6703C149.958 19.7663 150.094 19.9017 150.168 20.0768C150.242 20.2518 150.28 20.4529 150.28 20.6801V21.3626C149.632 21.3626 149.035 21.398 148.489 21.4686C147.942 21.5377 147.472 21.6605 147.078 21.8355C146.685 22.0106 146.378 22.2513 146.16 22.5559C145.941 22.8622 145.832 23.2518 145.832 23.7239C145.832 24.1262 145.902 24.4518 146.042 24.7018C146.181 24.9508 146.363 25.1452 146.586 25.2849C146.809 25.4255 147.047 25.5222 147.301 25.5744C147.554 25.6266 147.79 25.6527 148.009 25.6527C148.368 25.6527 148.692 25.6114 148.98 25.529C149.269 25.4457 149.525 25.327 149.748 25.1747C149.97 25.0224 150.161 24.8448 150.318 24.6437V25.4962H151.644V20.5632C151.644 20.1172 151.543 19.7368 151.342 19.4221L151.344 19.4212ZM150.281 22.7932C150.281 23.0465 150.233 23.2804 150.137 23.495C150.041 23.7096 149.909 23.8931 149.743 24.0462C149.578 24.2002 149.378 24.3172 149.147 24.4005C148.915 24.4838 148.664 24.525 148.393 24.525C148.157 24.525 147.951 24.4897 147.776 24.419C147.601 24.35 147.47 24.2473 147.382 24.1119C147.295 23.9764 147.251 23.8072 147.251 23.6069C147.251 23.2737 147.377 23.0145 147.631 22.8252C147.885 22.6375 148.24 22.5088 148.694 22.4389C149.149 22.3682 149.678 22.3346 150.282 22.3346V22.794L150.281 22.7932Z" fill="white"/>
<path d="M126.409 26.7656V28.0405H127.784L128.226 26.7656H126.409Z" fill="white"/>
<path d="M129.939 25.7197L132.42 18.5938H131.029L129.304 24.0645L129.229 23.8709L127.316 18.5938H125.839L128.581 25.7416L128.227 26.7657H129.577L129.939 25.7197Z" fill="white"/>
<path d="M129.578 26.7656H128.228L127.786 28.0414H128.66C128.945 28.0414 129.199 27.8604 129.292 27.5912L129.579 26.7665L129.578 26.7656Z" fill="white"/>
<path d="M100.75 21.2812L98.3145 25.4998H103.219C103.399 25.4998 103.566 25.4038 103.657 25.2473L105.946 21.2812H100.75Z" fill="white"/>
<path d="M105.946 20.7185L103.657 16.7525C103.566 16.5959 103.4 16.5 103.219 16.5H98.3145L100.75 20.7185H105.946Z" fill="white"/>
<path d="M93.4434 16.4996H98.3142L95.8619 12.2525C95.7719 12.0959 95.6053 12 95.4243 12H90.8447L93.4425 16.4996H93.4434Z" fill="white"/>
<path d="M90.3573 12.2812L88.0675 16.2473C87.9775 16.4038 87.9775 16.5957 88.0675 16.7522L90.5198 20.9994L92.9552 16.7808L90.3573 12.2812Z" fill="white"/>
<path d="M92.956 25.2185L90.5206 21L88.0675 25.248C87.9775 25.4045 87.9775 25.5964 88.0675 25.7529L90.3573 29.719L92.9552 25.2194L92.956 25.2185Z" fill="white"/>
<path d="M90.8447 29.9996H95.4243C95.6044 29.9996 95.7711 29.9037 95.8619 29.7471L98.3142 25.5H93.4434L90.8456 29.9996H90.8447Z" fill="white"/>
</svg>
