<svg viewBox="0 0 330 200" xmlns="http://www.w3.org/2000/svg"><g><g><g><g><g><line x1="41.171875" y1="177" x2="36.171875" y2="177" style="visibility: inherit;" fill="rgb(0, 0, 0)" stroke="rgb(204, 204, 204)" stroke-width="1px"></line><line x1="41.171875" y1="160.9090909090909" x2="36.171875" y2="160.9090909090909" style="visibility: inherit;" fill="rgb(0, 0, 0)" stroke="rgb(204, 204, 204)" stroke-width="1px"></line><line x1="41.171875" y1="144.8181818181818" x2="36.171875" y2="144.8181818181818" style="visibility: inherit;" fill="rgb(0, 0, 0)" stroke="rgb(204, 204, 204)" stroke-width="1px"></line><line x1="41.171875" y1="128.72727272727272" x2="36.171875" y2="128.72727272727272" style="visibility: inherit;" fill="rgb(0, 0, 0)" stroke="rgb(204, 204, 204)" stroke-width="1px"></line><line x1="41.171875" y1="112.63636363636364" x2="36.171875" y2="112.63636363636364" style="visibility: inherit;" fill="rgb(0, 0, 0)" stroke="rgb(204, 204, 204)" stroke-width="1px"></line><line x1="41.171875" y1="96.54545454545453" x2="36.171875" y2="96.54545454545453" style="visibility: inherit;" fill="rgb(0, 0, 0)" stroke="rgb(204, 204, 204)" stroke-width="1px"></line><line x1="41.171875" y1="80.45454545454547" x2="36.171875" y2="80.45454545454547" style="visibility: inherit;" fill="rgb(0, 0, 0)" stroke="rgb(204, 204, 204)" stroke-width="1px"></line><line x1="41.171875" y1="64.36363636363636" x2="36.171875" y2="64.36363636363636" style="visibility: inherit;" fill="rgb(0, 0, 0)" stroke="rgb(204, 204, 204)" stroke-width="1px"></line><line x1="41.171875" y1="48.272727272727266" x2="36.171875" y2="48.272727272727266" style="visibility: inherit;" fill="rgb(0, 0, 0)" stroke="rgb(204, 204, 204)" stroke-width="1px"></line><line x1="41.171875" y1="32.18181818181817" x2="36.171875" y2="32.18181818181817" style="visibility: inherit;" fill="rgb(0, 0, 0)" stroke="rgb(204, 204, 204)" stroke-width="1px"></line><line x1="41.171875" y1="16.090909090909097" x2="36.171875" y2="16.090909090909097" style="visibility: inherit;" fill="rgb(0, 0, 0)" stroke="rgb(204, 204, 204)" stroke-width="1px"></line><line x1="41.171875" y1="0" x2="36.171875" y2="0" style="visibility: inherit;" fill="rgb(0, 0, 0)" stroke="rgb(204, 204, 204)" stroke-width="1px"></line></g><g transform="translate(31.171875, 0)"><text x="0" y="177" dx="0em" dy="0.3em" style="text-anchor: end; visibility: hidden; font-family: Roboto, sans-serif; font-size: 12px; font-weight: 200;" fill="rgb(33, 33, 33)" stroke="none" stroke-width="1px">-50</text><text x="0" y="160.9090909090909" dx="0em" dy="0.3em" style="text-anchor: end; visibility: inherit; font-family: Roboto, sans-serif; font-size: 12px; font-weight: 200;" fill="rgb(33, 33, 33)" stroke="none" stroke-width="1px">0</text><text x="0" y="144.8181818181818" dx="0em" dy="0.3em" style="text-anchor: end; visibility: hidden; font-family: Roboto, sans-serif; font-size: 12px; font-weight: 200;" fill="rgb(33, 33, 33)" stroke="none" stroke-width="1px">50</text><text x="0" y="128.72727272727272" dx="0em" dy="0.3em" style="text-anchor: end; visibility: inherit; font-family: Roboto, sans-serif; font-size: 12px; font-weight: 200;" fill="rgb(33, 33, 33)" stroke="none" stroke-width="1px">100</text><text x="0" y="112.63636363636364" dx="0em" dy="0.3em" style="text-anchor: end; visibility: hidden; font-family: Roboto, sans-serif; font-size: 12px; font-weight: 200;" fill="rgb(33, 33, 33)" stroke="none" stroke-width="1px">150</text><text x="0" y="96.54545454545453" dx="0em" dy="0.3em" style="text-anchor: end; visibility: inherit; font-family: Roboto, sans-serif; font-size: 12px; font-weight: 200;" fill="rgb(33, 33, 33)" stroke="none" stroke-width="1px">200</text><text x="0" y="80.45454545454547" dx="0em" dy="0.3em" style="text-anchor: end; visibility: hidden; font-family: Roboto, sans-serif; font-size: 12px; font-weight: 200;" fill="rgb(33, 33, 33)" stroke="none" stroke-width="1px">250</text><text x="0" y="64.36363636363636" dx="0em" dy="0.3em" style="text-anchor: end; visibility: inherit; font-family: Roboto, sans-serif; font-size: 12px; font-weight: 200;" fill="rgb(33, 33, 33)" stroke="none" stroke-width="1px">300</text><text x="0" y="48.272727272727266" dx="0em" dy="0.3em" style="text-anchor: end; visibility: hidden; font-family: Roboto, sans-serif; font-size: 12px; font-weight: 200;" fill="rgb(33, 33, 33)" stroke="none" stroke-width="1px">350</text><text x="0" y="32.18181818181817" dx="0em" dy="0.3em" style="text-anchor: end; visibility: inherit; font-family: Roboto, sans-serif; font-size: 12px; font-weight: 200;" fill="rgb(33, 33, 33)" stroke="none" stroke-width="1px">400</text><text x="0" y="16.090909090909097" dx="0em" dy="0.3em" style="text-anchor: end; visibility: hidden; font-family: Roboto, sans-serif; font-size: 12px; font-weight: 200;" fill="rgb(33, 33, 33)" stroke="none" stroke-width="1px">450</text><text x="0" y="0" dx="0em" dy="0.3em" style="text-anchor: end; visibility: hidden; font-family: Roboto, sans-serif; font-size: 12px; font-weight: 200;" fill="rgb(33, 33, 33)" stroke="none" stroke-width="1px">500</text></g><line x1="41.171875" y1="0" x2="41.171875" y2="177" fill="rgb(0, 0, 0)" stroke="rgb(204, 204, 204)" stroke-width="1px"></line></g></g><g transform="translate(41, 0)" clip-path="url(#clip_0)"><clipPath id="clip_0"><rect width="288" height="177"></rect></clipPath><g><g><g><line x1="0" y1="0" x2="0" y2="177" fill="rgb(0, 0, 0)" stroke="rgb(66, 66, 66)" stroke-width="1px" opacity="0.25"></line><line x1="26.257102272727273" y1="0" x2="26.257102272727273" y2="177" fill="rgb(0, 0, 0)" stroke="rgb(66, 66, 66)" stroke-width="1px" opacity="0.25"></line><line x1="52.51420454545455" y1="0" x2="52.51420454545455" y2="177" fill="rgb(0, 0, 0)" stroke="rgb(66, 66, 66)" stroke-width="1px" opacity="0.25"></line><line x1="78.77130681818181" y1="0" x2="78.77130681818181" y2="177" fill="rgb(0, 0, 0)" stroke="rgb(66, 66, 66)" stroke-width="1px" opacity="0.25"></line><line x1="105.0284090909091" y1="0" x2="105.0284090909091" y2="177" fill="rgb(0, 0, 0)" stroke="rgb(66, 66, 66)" stroke-width="1px" opacity="0.25"></line><line x1="131.28551136363635" y1="0" x2="131.28551136363635" y2="177" fill="rgb(0, 0, 0)" stroke="rgb(66, 66, 66)" stroke-width="1px" opacity="0.25"></line><line x1="157.54261363636363" y1="0" x2="157.54261363636363" y2="177" fill="rgb(0, 0, 0)" stroke="rgb(66, 66, 66)" stroke-width="1px" opacity="0.25"></line><line x1="183.7997159090909" y1="0" x2="183.7997159090909" y2="177" fill="rgb(0, 0, 0)" stroke="rgb(66, 66, 66)" stroke-width="1px" opacity="0.25"></line><line x1="210.0568181818182" y1="0" x2="210.0568181818182" y2="177" fill="rgb(0, 0, 0)" stroke="rgb(66, 66, 66)" stroke-width="1px" opacity="0.25"></line><line x1="236.31392045454547" y1="0" x2="236.31392045454547" y2="177" fill="rgb(0, 0, 0)" stroke="rgb(66, 66, 66)" stroke-width="1px" opacity="0.25"></line><line x1="262.5710227272727" y1="0" x2="262.5710227272727" y2="177" fill="rgb(0, 0, 0)" stroke="rgb(66, 66, 66)" stroke-width="1px" opacity="0.25"></line><line x1="288.828125" y1="0" x2="288.828125" y2="177" fill="rgb(0, 0, 0)" stroke="rgb(66, 66, 66)" stroke-width="1px" opacity="0.25"></line></g><g><line x1="0" y1="177" x2="288.828125" y2="177" fill="rgb(0, 0, 0)" stroke="rgb(66, 66, 66)" stroke-width="1px" opacity="0.25"></line><line x1="0" y1="160.9090909090909" x2="288.828125" y2="160.9090909090909" fill="rgb(0, 0, 0)" stroke="rgb(66, 66, 66)" stroke-width="1px" opacity="0.25"></line><line x1="0" y1="144.8181818181818" x2="288.828125" y2="144.8181818181818" fill="rgb(0, 0, 0)" stroke="rgb(66, 66, 66)" stroke-width="1px" opacity="0.25"></line><line x1="0" y1="128.72727272727272" x2="288.828125" y2="128.72727272727272" fill="rgb(0, 0, 0)" stroke="rgb(66, 66, 66)" stroke-width="1px" opacity="0.25"></line><line x1="0" y1="112.63636363636364" x2="288.828125" y2="112.63636363636364" fill="rgb(0, 0, 0)" stroke="rgb(66, 66, 66)" stroke-width="1px" opacity="0.25"></line><line x1="0" y1="96.54545454545453" x2="288.828125" y2="96.54545454545453" fill="rgb(0, 0, 0)" stroke="rgb(66, 66, 66)" stroke-width="1px" opacity="0.25"></line><line x1="0" y1="80.45454545454547" x2="288.828125" y2="80.45454545454547" fill="rgb(0, 0, 0)" stroke="rgb(66, 66, 66)" stroke-width="1px" opacity="0.25"></line><line x1="0" y1="64.36363636363636" x2="288.828125" y2="64.36363636363636" fill="rgb(0, 0, 0)" stroke="rgb(66, 66, 66)" stroke-width="1px" opacity="0.25"></line><line x1="0" y1="48.272727272727266" x2="288.828125" y2="48.272727272727266" fill="rgb(0, 0, 0)" stroke="rgb(66, 66, 66)" stroke-width="1px" opacity="0.25"></line><line x1="0" y1="32.18181818181817" x2="288.828125" y2="32.18181818181817" fill="rgb(0, 0, 0)" stroke="rgb(66, 66, 66)" stroke-width="1px" opacity="0.25"></line><line x1="0" y1="16.090909090909097" x2="288.828125" y2="16.090909090909097" fill="rgb(0, 0, 0)" stroke="rgb(66, 66, 66)" stroke-width="1px" opacity="0.25"></line><line x1="0" y1="0" x2="288.828125" y2="0" fill="rgb(0, 0, 0)" stroke="rgb(66, 66, 66)" stroke-width="1px" opacity="0.25"></line></g></g></g><g><g><line x1="0" y1="160.9090909090909" x2="288.828125" y2="160.9090909090909" fill="rgb(0, 0, 0)" stroke="rgb(153, 153, 153)" stroke-width="1.5px"></line></g></g><g><g><line x1="26.257102272727273" y1="0" x2="26.257102272727273" y2="177" fill="rgb(0, 0, 0)" stroke="rgb(153, 153, 153)" stroke-width="1.5px"></line></g></g><g><g><g><g><g><path stroke="rgb(255, 112, 67)" stroke-width="2px" d="M27.83252840909091,154.60145442269064L28.357670454545453,154.60145442269064L28.8828125,154.60145442269064L29.407954545454547,154.43369004662495L29.93309659090909,154.35182241005558L30.458238636363635,154.309227337916L30.98338068181818,154.03605928672914L31.508522727272727,153.88659247913338L32.03366477272728,153.80402555311164L32.55880681818182,153.40230931272654L33.083948863636365,153.17857415989351L33.60909090909091,153.05376263030394L34.13423295454545,152.77675902929798L34.659375,152.62201315657953L35.18451704545454,152.5355411693652L35.70965909090909,152.27289153652305L36.234801136363636,152.12608680795918L36.75994318181818,152.04402809375244L37.285085227272724,151.48155534039472L37.810227272727275,151.16713921191857L38.33536931818182,150.99138251489208L38.86051136363636,150.62490195639774L39.38565340909091,150.4200400230689L39.91079545454546,150.30552242072062L40.4359375,150.02010935210578L40.961079545454545,149.86056354182236L41.486221590909096,149.77137746358218L42.01136363636363,149.62643454737778L42.536505681818184,149.54541146565313L43.06164772727272,149.50011956560436L43.58678977272727,149.06180891894175L44.11193181818182,148.81679327191222L44.63707386363636,148.67982952661475L45.16221590909091,147.85533874471227L45.687357954545455,147.39444839909254L46.2125,147.1368106963485L46.73764204545454,146.5272878300556L47.26278409090909,146.1865645479869L47.78792613636364,145.99610023336956L48.31306818181818,145.56462958792164L48.83821022727273,145.32343749713962L49.36335227272727,145.18861111839976L49.88849431818182,144.6661897702409L50.41363636363637,144.374156236625L50.93877840909091,144.21090949133526L51.46392045454546,143.99760171045992L51.989062499999996,143.87836266095096L52.51420454545455,143.81170803227556L53.03934659090909,143.40119356143884L53.564488636363635,143.17171597224126L54.089630681818186,143.0434379998798L54.61477272727273,142.5147421855399L55.13991477272727,142.21920122532393L55.66505681818182,142.0539938285632L56.19019886363636,142.10924171461633L56.715340909090905,142.14012528292005L57.240482954545456,142.15738919760182L57.765625,142.1812322325604L58.290767045454544,142.19456048910223L58.815909090909095,142.20201098450912L59.34105113636363,141.65268050397694L59.86619318181818,141.3456047653595L60.39133522727273,141.1739494274723L60.91647727272727,140.345676992042L61.44161931818182,139.88267270063642L61.96676136363636,139.62385330174072L62.49190340909091,138.88594109722447L63.01704545454545,138.4734481748999L63.5421875,138.24286463132043L64.06732954545456,137.14889963371215L64.59247159090908,136.5373732000491L65.11761363636364,136.19552992363148L65.64275568181817,135.24090054009574L66.16789772727273,134.70726271469928L66.69303977272727,134.40895917030267L67.21818181818182,133.53259839807586L67.74332386363636,133.04271272640108L68.2684659090909,132.76886663593487L68.79360795454545,132.0041028987119L69.31875,131.57659996960425L69.84389204545455,131.33762583223307L70.36903409090908,130.84923474398803L70.89417613636364,130.57622412565905L71.41931818181818,130.42361119001316L71.94446022727273,129.24124551079709L72.46960227272727,128.58030309611527L72.99474431818183,128.21083628630817L73.51988636363636,127.32307917924224L74.0450284090909,126.82682295639239L74.57017045454545,126.54941572781932L75.0953125,126.11759797470346L75.62045454545455,125.87621185071168L76.14559659090908,125.74127700740027L76.67073863636364,125.13931861446797L77.19588068181818,124.80282387281879L77.72102272727273,124.61472331223692L78.24616477272728,123.90924533154043L78.77130681818181,123.51488314033111L79.29644886363636,123.29443467544509L79.82159090909092,122.52262131779399L80.34673295454546,122.09117765086702L80.871875,121.85000064105486L81.39701704545455,120.56561618185263L81.92215909090909,119.84764526915859L82.44730113636363,119.44629952896263L82.97244318181819,118.52794965590618L83.49758522727272,118.01459207686767L84.02272727272727,117.7276251901851L84.54786931818182,116.84908664701837L85.07301136363637,116.35798360138817L85.59815340909091,116.08345699888088L86.12329545454544,115.32824733938857L86.6484375,114.90608513973237L87.17357954545454,114.67009647012455L87.69872159090909,113.49647317809246L88.22386363636365,112.84041775784654L88.74900568181818,112.47368277792904L89.27414772727272,111.72227805793312L89.79928977272728,111.30224281945543L90.32443181818182,111.06744312114638L90.84957386363637,110.12156023938326L91.37471590909091,109.59281170847765L91.89985795454545,109.29724127970144L92.425,108.34009340469439L92.95014204545456,107.8050477425654L93.47528409090908,107.50595721743532L94.00042613636363,106.38079334116034L94.52556818181819,105.75182673432263L95.05071022727273,105.40023440110035L95.57585227272727,105.04616098202504L96.10099431818182,104.84823394076199L96.62613636363636,104.73759272469593L97.1512784090909,104.12508693739191L97.67642045454546,103.78269620228896L98.20156250000001,103.59129978136643L98.72670454545454,102.82153455102822L99.25184659090908,102.39123578726921L99.77698863636364,102.15069877832788L100.30213068181818,101.87573521072986L100.82727272727274,101.72203057644256L101.35241477272727,101.63610968587598L101.87755681818182,100.60598118609767L102.40269886363636,100.0301393547216L102.92784090909092,99.70824377098238L103.45298295454545,99.00177540692846L103.97812499999999,98.60685959142232L104.50326704545455,98.38610165055438L105.0284090909091,97.88376480137526L105.55355113636364,97.60295850268415L106.07869318181818,97.4459877817158L106.60383522727273,96.83596989725186L107.12897727272727,96.49496989983652L107.65411931818183,96.30435090128134L108.17926136363637,96.16657190784458L108.7044034090909,96.08955345051345L109.22954545454546,96.04650013286533L109.7546875,95.1978679111525L110.27982954545455,94.72348249921501L110.80497159090908,94.45830105394195L111.33011363636363,94.19085081849482L111.85525568181818,94.04134613687985L112.38039772727272,93.9577730198571L112.90553977272728,93.38594318772458L113.43068181818181,93.06629031156251L113.95582386363635,92.8876043537879L114.48096590909091,91.44372127752078L115.00610795454546,90.63659063788744L115.53125,90.18540461033243L116.05639204545454,89.79268824132932L116.58153409090909,89.57315979105658L117.10667613636363,89.45044338735413L117.63181818181819,89.51241273054512L118.15696022727273,89.54705359338888L118.68210227272726,89.56641783571854L119.20724431818182,88.69874604614657L119.73238636363637,88.21371751577581L120.25752840909091,87.94258656729856L120.78267045454545,87.15805427071973L121.3078125,86.71950071693215L121.83295454545454,86.47434928036492L122.3580965909091,85.77813731719866L122.88323863636364,85.3889548297887L123.40838068181817,85.17140181932653L123.93352272727272,84.87522645646997L124.45866477272727,84.70966442863315L124.98380681818182,84.61711525507236L125.50894886363638,84.20489763615925L126.0340909090909,83.97446798718678L126.55923295454545,83.8456578134112L127.084375,83.34930591030717L127.60951704545455,83.071845196472L128.1346590909091,82.91674465743816L128.65980113636363,83.1266617019401L129.18494318181817,83.24400532981669L129.71008522727274,83.3096004177997L130.2352272727273,83.48393240886297L130.7603693181818,83.58138399186737L131.28551136363635,83.6358594267668L131.81065340909092,82.63453897033834L132.33579545454546,82.07480083519484L132.8609375,81.76190721764961L133.38607954545455,80.817783690763L133.9112215909091,80.29001863923337L134.43636363636364,79.99499797542832L134.96150568181818,80.044382590216L135.48664772727273,80.07198858988232L136.01178977272727,80.08742034369581L136.5369318181818,78.87267914877279L137.06207386363636,78.19363882081082L137.5872159090909,77.81405527748008L138.11235795454547,77.08385430661659L138.6375,76.67567196390392L139.16264204545453,76.44749803432751L139.6877840909091,74.81273979158104L140.21292613636365,73.89890993388575L140.73806818181816,73.38807904343408L141.26321022727274,73.3508877574898L141.78835227272728,73.33009782864693L142.31349431818182,73.31847625842376L142.83863636363637,72.8521544957152L143.3637784090909,72.59148063036108L143.88892045454546,72.44576393962815L144.4140625,72.66518187107627L144.93920454545454,72.78783649475577L145.4643465909091,72.8564004293926L145.98948863636366,73.49363791482627L146.5146306818182,73.84985366918369L147.03977272727272,74.0489782758695L147.56491477272726,74.24260167986382L148.0900568181818,74.35083716269666L148.61519886363635,74.4113407976002L149.1403409090909,73.18773709935327L149.66548295454547,72.50374263203324L150.190625,72.12138972480136L150.71576704545456,72.482436080851L151.2409090909091,72.68426099388277L151.76605113636364,72.79708112026752L152.29119318181816,72.103706185696L152.81633522727273,71.71610959727049L153.34147727272727,71.49944310434066L153.86661931818182,71.49044165275717L154.39176136363636,71.48540984132201L154.9169034090909,71.48259705872975L155.44204545454545,70.71748896957504L155.96718750000002,70.28979354773757L156.49232954545457,70.05071180693042L157.01747159090908,69.79926757930662L157.54261363636363,69.6587102560649L158.06775568181817,69.58013871237279L158.5928977272727,69.2424380163461L159.11803977272726,69.05366332726717L159.64318181818183,68.94813827607206L160.16832386363637,68.27746708257915L160.69346590909092,67.90256188541663L161.21860795454546,67.69298988020277L161.74375,66.80236781886342L162.26889204545452,66.30451008657472L162.7940340909091,66.02620761422533L163.31917613636364,66.49225478879605L163.84431818181818,66.75277515938105L164.36946022727273,66.89840604653807L164.89460227272727,67.78025051482703L165.4197443181818,68.27320157260054L165.94488636363639,68.54876121389592L166.47002840909093,67.88107051339651L166.99517045454544,67.50783141181729L167.5203125,67.29919075403453L168.04545454545453,67.68070759410739L168.57059659090908,67.89397550770815L169.09573863636365,68.01319227141093L169.6208806818182,67.4511218272418L170.14602272727274,67.13692444895125L170.67116477272728,66.96128811448683L171.19630681818182,66.9837418151978L171.72144886363637,66.99629343389525L172.24659090909088,67.0033097887471L172.77173295454546,65.55111269060859L173.296875,64.73933451274915L173.82201704545454,64.28555051132574L174.3471590909091,63.5337382867566L174.87230113636363,63.113475253222454L175.39744318181818,62.87854821747686L175.92258522727275,61.69132533073353L176.4477272727273,61.02766773704402L176.9728693181818,60.656683142171595L177.49801136363635,60.08456697255434L178.0231534090909,59.76475403373831L178.54829545454544,59.58597860094015L179.0734375,58.855909914789876L179.59857954545456,58.44780151923191L180.1237215909091,58.219668926114984L180.64886363636364,57.75578879044932L181.1740056818182,57.49647979461224L181.69914772727273,57.35152606593929L182.22428977272725,56.43457534358733L182.74943181818182,55.92199988979259L183.27457386363636,55.63547021112132L183.7997159090909,55.964932125915446L184.32485795454545,56.149101336285355L184.85,56.25205192488211L185.37514204545457,55.60850717560073L185.9002840909091,55.24876566075243L186.42542613636365,55.047670153952225L186.95056818181817,54.63580047710999L187.4757102272727,54.405565327755184L188.00085227272726,54.27686387926583L188.5259943181818,53.669876074214514L189.05113636363637,53.330569891190805L189.57627840909092,53.14089773488056L190.10142045454546,52.265652839269215L190.6265625,51.77639094262245L191.15170454545455,51.50289354239691L191.6768465909091,50.4459672068303L192.20198863636364,49.855145385248534L192.72713068181818,49.52487598698435L193.25227272727273,48.05018658581517L193.77741477272727,47.22583521056161L194.3025568181818,46.76502279179485L194.82769886363636,44.81997615258953L195.35284090909093,43.73269508127376L195.87798295454547,43.12490496240824L196.40312500000002,41.326194168297725L196.92826704545453,40.32071483438997L197.45340909090908,39.75865188673552L197.97855113636362,38.665309303133746L198.50369318181816,38.05413079890038L199.02883522727274,37.712482015033906L199.55397727272728,37.268879681733324L200.07911931818182,37.0209059774183L200.60426136363637,36.8822886767062L201.1294034090909,36.34071881935326L201.65454545454548,36.037981269092946L202.1796875,35.86875097849745L202.70482954545454,36.56891429409478L203.2299715909091,36.96030558751369L203.75511363636363,37.179093320534854L204.28025568181818,36.77060511813879L204.80539772727272,36.542260212999366L205.3305397727273,36.414615411026425L205.85568181818184,35.81957011114383L206.38082386363638,35.48693978850947L206.9059659090909,35.300999438156865L207.43110795454544,35.04946320979999L207.95624999999998,34.9088544581485L208.48139204545456,34.83025416597531L209.0065340909091,33.74602724995604L209.53167613636364,33.1399444039013L210.0568181818182,32.80114409295671L210.58196022727273,32.42725808794638L211.10710227272727,32.2182558111456L211.63224431818185,32.10142353841397L212.15738636363636,31.18032590756502L212.6825284090909,30.66543233192047L213.20767045454545,30.377606823135167L213.7328125,29.438979240888145L214.25795454545454,28.914286422412065L214.78309659090908,28.62098313688392L215.30823863636365,27.10451184624538L215.8333806818182,26.256804394778467L216.35852272727274,25.78293592940843L216.88366477272726,24.625354008192105L217.4088068181818,23.978265714232162L217.93394886363635,23.616543357908572L218.45909090909092,23.600257796053032L218.98423295454546,23.591154166975816L219.509375,23.58606523832164L220.03451704545455,23.29370313651238L220.5596590909091,23.130272721601006L221.08480113636364,23.03891511966556L221.60994318181815,22.580526963869254L222.13508522727273,22.324287984779122L222.66022727272727,22.18105039546773L223.1853693181818,21.85545860949863L223.71051136363636,21.673452801141902L224.2356534090909,21.571711554270507L224.76079545454544,22.628925336218696L225.28593750000002,23.219907840327732L225.81107954545456,23.550267060124675L226.3362215909091,23.65687826532508L226.86136363636362,23.716473929032098L227.38650568181816,23.74978790504433L227.9116477272727,24.390028674249127L228.43678977272728,24.74792326423465L228.96193181818182,24.94798634003652L229.48707386363637,24.993118171619923L230.0122159090909,25.01834686547505L230.53735795454546,25.032449705340056L231.0625,24.80474245490957L231.58764204545452,24.67745410191892L232.1127840909091,24.606299912597148L232.63792613636363,24.26990864049949L233.16306818181818,24.081865919396925L233.68821022727272,23.97675003830058L234.21335227272726,23.150192704670857L234.73849431818184,22.688147155171837L235.26363636363638,22.429863693001877L235.78877840909092,22.61190601813316L236.31392045454547,22.71366767788156L236.83906249999998,22.770552445680917L237.36420454545453,22.099836298436657L237.88934659090907,21.724905972127136L238.41448863636364,21.515319919720106L238.9396306818182,21.012133797725628L239.46477272727273,20.730852755530726L239.98991477272727,20.573616652943777L240.51505681818182,20.898714682239987L241.04019886363636,21.080444480616542L241.5653409090909,21.18203143790906L242.09048295454545,20.59449227977929L242.615625,20.266057890384726L243.14076704545454,20.08246306671317L243.66590909090908,20.229617346236022L244.19105113636363,20.311876588489287L244.7161931818182,20.357859504908866L245.24133522727274,20.681600639591267L245.7664772727273,20.862571933878733L246.29161931818183,20.963734887385417L246.81676136363635,21.535461871373297L247.3419034090909,21.855057255422523L247.86704545454543,22.03371107510602L248.3921875,22.565017769182514L248.91732954545455,22.86201821117127L249.4424715909091,23.02804145824299L249.96761363636364,23.183294399844893L250.49275568181818,23.270080794200354L251.01789772727275,23.31859438864504L251.54303977272727,23.141345723269L252.0681818181818,23.042263719323806L252.59332386363636,22.986876879118427L253.1184659090909,22.999911052591187L253.64360795454544,23.00719715556246L254.16875,23.01127008712338L254.69389204545456,23.016388064140088L255.2190340909091,23.019249013292416L255.74417613636365,23.020848283868574L256.2693181818182,21.957328639757034L256.79446022727274,21.36282115869868L257.31960227272725,21.030491476787045L257.8447443181818,20.76808019006941L258.36988636363634,20.621392280794275L258.8950284090909,20.53939373950946L259.4201704545455,19.703050988192082L259.9453125,19.235535390205676L260.4704545454546,18.974194170931263L260.9955965909091,18.582582455812812L261.5207386363636,18.36367150706162L262.0458806818182,18.2413002867097L262.5710227272727,17.501603015333316L263.09616477272726,17.08811224063391L263.62130681818184,16.856970897576936L264.14644886363635,16.55887557668294L264.6715909090909,16.392240292303175L265.19673295454544,16.299091168334872L265.721875,15.222345107519464" style="fill: none;" fill="none"></path></g></g></g></g><g opacity="0.2"><g><g><g><path stroke="rgb(255, 112, 67)" stroke-width="2px" d="M27.83252840909091,154.60145442269064L28.357670454545453,154.60145442269064L28.8828125,154.60145442269064L29.407954545454547,154.25818202278833L29.93309659090909,154.25818202278833L30.458238636363635,154.25818202278833L30.98338068181818,153.70036375912753L31.508522727272727,153.70036375912753L32.03366477272728,153.70036375912753L32.55880681818182,152.89581830458206L33.083948863636365,152.89581830458206L33.60909090909091,152.89581830458206L34.13423295454545,152.4259634399414L34.659375,152.4259634399414L35.18451704545454,152.4259634399414L35.70965909090909,151.9400179117376L36.234801136363636,151.9400179117376L36.75994318181818,151.9400179117376L37.285085227272724,150.76859992634166L37.810227272727275,150.76859992634166L38.33536931818182,150.76859992634166L38.86051136363636,150.16036314530805L39.38565340909091,150.16036314530805L39.91079545454546,150.16036314530805L40.4359375,149.65832756736063L40.961079545454545,149.65832756736063L41.486221590909096,149.65832756736063L42.01136363636363,149.4427087471702L42.536505681818184,149.4427087471702L43.06164772727272,149.4427087471702L43.58678977272727,148.50621788718485L44.11193181818182,148.50621788718485L44.63707386363636,148.50621788718485L45.16221590909091,146.81023592168634L45.687357954545455,146.81023592168634L46.2125,146.81023592168634L46.73764204545454,145.75467267816717L47.26278409090909,145.75467267816717L47.78792613636364,145.75467267816717L48.31306818181818,145.0177087471702L48.83821022727273,145.0177087471702L49.36335227272727,145.0177087471702L49.88849431818182,144.00398221102625L50.41363636363637,144.00398221102625L50.93877840909091,144.00398221102625L51.46392045454546,143.72721837824042L51.989062499999996,143.72721837824042L52.51420454545455,143.72721837824042L53.03934659090909,142.8808362163197L53.564488636363635,142.8808362163197L54.089630681818186,142.8808362163197L54.61477272727273,141.84458127802068L55.13991477272727,141.84458127802068L55.66505681818182,141.84458127802068L56.19019886363636,142.17927248174493L56.715340909090905,142.17927248174493L57.240482954545456,142.17927248174493L57.765625,142.21145503651013L58.290767045454544,142.21145503651013L58.815909090909095,142.21145503651013L59.34105113636363,140.95636363636365L59.86619318181818,140.95636363636365L60.39133522727273,140.95636363636365L60.91647727272727,139.29578063964843L61.44161931818182,139.29578063964843L61.96676136363636,139.29578063964843L62.49190340909091,137.9505829967152L63.01704545454545,137.9505829967152L63.5421875,137.9505829967152L64.06732954545456,135.76221837824042L64.59247159090908,135.76221837824042L65.11761363636364,135.76221837824042L65.64275568181817,134.03083744395863L66.16789772727273,134.03083744395863L66.69303977272727,134.03083744395863L67.21818181818182,132.4217465348677L67.74332386363636,132.4217465348677L68.2684659090909,132.4217465348677L68.79360795454545,131.0347085016424L69.31875,131.0347085016424L69.84389204545455,131.0347085016424L70.36903409090908,130.23016304709694L70.89417613636364,130.23016304709694L71.41931818181818,130.23016304709694L71.94446022727273,127.74250987659802L72.46960227272727,127.74250987659802L72.99474431818183,127.74250987659802L73.51988636363636,126.19778162175959L74.0450284090909,126.19778162175959L74.57017045454545,126.19778162175959L75.0953125,125.57023714932528L75.62045454545455,125.57023714932528L76.14559659090908,125.57023714932528L76.67073863636364,124.37629198941318L77.19588068181818,124.37629198941318L77.72102272727273,124.37629198941318L78.24616477272728,123.01500000000001L78.77130681818181,123.01500000000001L79.29644886363636,123.01500000000001L79.82159090909092,121.54429100730202L80.34673295454546,121.54429100730202L80.871875,121.54429100730202L81.39701704545455,118.93756422563033L81.92215909090909,118.93756422563033L82.44730113636363,118.93756422563033L82.97244318181819,117.36387351296165L83.49758522727272,117.36387351296165L84.02272727272727,117.36387351296165L84.54786931818182,115.73547429865057L85.07301136363637,115.73547429865057L85.59815340909091,115.73547429865057L86.12329545454544,114.37096343994139L86.6484375,114.37096343994139L87.17357954545454,114.37096343994139L87.69872159090909,112.00881916392933L88.22386363636365,112.00881916392933L88.74900568181818,112.00881916392933L89.27414772727272,110.76981719970702L89.79928977272728,110.76981719970702L90.32443181818182,110.76981719970702L90.84957386363637,108.92258397882635L91.37471590909091,108.92258397882635L91.89985795454545,108.92258397882635L92.425,107.1268379350142L92.95014204545456,107.1268379350142L93.47528409090908,107.1268379350142L94.00042613636363,104.95456520774148L94.52556818181819,104.95456520774148L95.05071022727273,104.95456520774148L95.57585227272727,104.59734682950105L96.10099431818182,104.59734682950105L96.62613636363636,104.59734682950105L97.1512784090909,103.34869071266867L97.67642045454546,103.34869071266867L98.20156250000001,103.34869071266867L98.72670454545454,101.84580039284447L99.25184659090908,101.84580039284447L99.77698863636364,101.84580039284447L100.30213068181818,101.52719862504438L100.82727272727274,101.52719862504438L101.35241477272727,101.52719862504438L101.87755681818182,99.30021739612926L102.40269886363636,99.30021739612926L102.92784090909092,99.30021739612926L103.45298295454545,98.10627469149502L103.97812499999999,98.10627469149502L104.50326704545455,98.10627469149502L105.0284090909091,97.24701582475141L105.55355113636364,97.24701582475141L106.07869318181818,97.24701582475141L106.60383522727273,96.06272727272727L107.12897727272727,96.06272727272727L107.65411931818183,96.06272727272727L108.17926136363637,95.99192687988281L108.7044034090909,95.99192687988281L109.22954545454546,95.99192687988281L109.7546875,94.1221640292081L110.27982954545455,94.1221640292081L110.80497159090908,94.1221640292081L111.33011363636363,93.8518379350142L111.85525568181818,93.8518379350142L112.38039772727272,93.8518379350142L112.90553977272728,92.66110673384233L113.43068181818181,92.66110673384233L113.95582386363635,92.66110673384233L114.48096590909091,89.61349306973543L115.00610795454546,89.61349306973543L115.53125,89.61349306973543L116.05639204545454,89.29489130193537L116.58153409090909,89.29489130193537L117.10667613636363,89.29489130193537L117.63181818181819,89.59096343994142L118.15696022727273,89.59096343994142L118.68210227272726,89.59096343994142L119.20724431818182,87.59890810879793L119.73238636363637,87.59890810879793L120.25752840909091,87.59890810879793L120.78267045454545,86.16360176780007L121.3078125,86.16360176780007L121.83295454545454,86.16360176780007L122.3580965909091,84.8956373457475L122.88323863636364,84.8956373457475L123.40838068181817,84.8956373457475L123.93352272727272,84.49980235706677L124.45866477272727,84.49980235706677L124.98380681818182,84.49980235706677L125.50894886363638,83.68238142533735L126.0340909090909,83.68238142533735L126.55923295454545,83.68238142533735L127.084375,82.72014329390093L127.60951704545455,82.72014329390093L128.1346590909091,82.72014329390093L128.65980113636363,83.3927470259233L129.18494318181817,83.3927470259233L129.71008522727274,83.3927470259233L130.2352272727273,83.70491105513139L130.7603693181818,83.70491105513139L131.28551136363635,83.70491105513139L131.81065340909092,81.36529149835759L132.33579545454546,81.36529149835759L132.8609375,81.36529149835759L133.38607954545455,79.62103754216974L133.9112215909091,79.62103754216974L134.43636363636364,79.62103754216974L134.96150568181818,80.10698122891513L135.48664772727273,80.10698122891513L136.01178977272727,80.10698122891513L136.5369318181818,77.33290516246448L137.06207386363636,77.33290516246448L137.5872159090909,77.33290516246448L138.11235795454547,76.15827076305044L138.6375,76.15827076305044L139.16264204545453,76.15827076305044L139.6877840909091,72.74056324351918L140.21292613636365,72.74056324351918L140.73806818181816,72.74056324351918L141.26321022727274,73.303745061701L141.78835227272728,73.303745061701L142.31349431818182,73.303745061701L142.83863636363637,72.26105729536577L143.3637784090909,72.26105729536577L143.88892045454546,72.26105729536577L144.4140625,72.94331026944248L144.93920454545454,72.94331026944248L145.4643465909091,72.94331026944248L145.98948863636366,74.30138338955965L146.5146306818182,74.30138338955965L147.03977272727272,74.30138338955965L147.56491477272726,74.48803361372514L148.0900568181818,74.48803361372514L148.61519886363635,74.48803361372514L149.1403409090909,71.63672923694958L149.66548295454547,71.63672923694958L150.190625,71.63672923694958L150.71576704545456,72.94008894486862L151.2409090909091,72.94008894486862L151.76605113636364,72.94008894486862L152.29119318181816,71.22480235706676L152.81633522727273,71.22480235706676L153.34147727272727,71.22480235706676L153.86661931818182,71.47903164950284L154.39176136363636,71.47903164950284L154.9169034090909,71.47903164950284L155.44204545454545,69.7476580810547L155.96718750000002,69.7476580810547L156.49232954545457,69.7476580810547L157.01747159090908,69.48054349032316L157.54261363636363,69.48054349032316L158.06775568181817,69.48054349032316L158.5928977272727,68.81437749689276L159.11803977272726,68.81437749689276L159.64318181818183,68.81437749689276L160.16832386363637,67.42734191894532L160.69346590909092,67.42734191894532L161.21860795454546,67.42734191894532L161.74375,65.67343872070312L162.26889204545452,65.67343872070312L162.7940340909091,65.67343872070312L163.31917613636364,67.0830039284446L163.84431818181818,67.0830039284446L164.36946022727273,67.0830039284446L164.89460227272727,68.89805336692116L165.4197443181818,68.89805336692116L165.94488636363639,68.89805336692116L166.47002840909093,67.03472334428267L166.99517045454544,67.03472334428267L167.5203125,67.03472334428267L168.04545454545453,68.16430830522017L168.57059659090908,68.16430830522017L169.09573863636365,68.16430830522017L169.6208806818182,66.73865611683237L170.14602272727274,66.73865611683237L170.67116477272728,66.73865611683237L171.19630681818182,67.01220353560014L171.72144886363637,67.01220353560014L172.24659090909088,67.01220353560014L172.77173295454546,63.71034584738991L173.296875,63.71034584738991L173.82201704545454,63.71034584738991L174.3471590909091,62.58076088645242L174.87230113636363,62.58076088645242L175.39744318181818,62.58076088645242L175.92258522727275,60.186432828036224L176.4477272727273,60.186432828036224L176.9728693181818,60.186432828036224L177.49801136363635,59.359367564808245L178.0231534090909,59.359367564808245L178.54829545454544,59.359367564808245L179.0734375,57.93049405184659L179.59857954545456,57.93049405184659L180.1237215909091,57.93049405184659L180.64886363636364,57.16778653231533L181.1740056818182,57.16778653231533L181.69914772727273,57.16778653231533L182.22428977272725,55.27227272727272L182.74943181818182,55.27227272727272L183.27457386363636,55.27227272727272L183.7997159090909,56.382549382990064L184.32485795454545,56.382549382990064L184.85,56.382549382990064L185.37514204545457,54.79276677911932L185.9002840909091,54.79276677911932L186.42542613636365,54.79276677911932L186.95056818181817,54.11372530850496L187.4757102272727,54.11372530850496L188.00085227272726,54.11372530850496L188.5259943181818,52.90047429865057L189.05113636363637,52.90047429865057L189.57627840909092,52.90047429865057L190.10142045454546,51.15621543190696L190.6265625,51.15621543190696L191.15170454545455,51.15621543190696L191.6768465909091,49.10623518510299L192.20198863636364,49.10623518510299L192.72713068181818,49.10623518510299L193.25227272727273,46.18090909090908L193.77741477272727,46.18090909090908L194.3025568181818,46.18090909090908L194.82769886363636,42.35448619495739L195.35284090909093,42.35448619495739L195.87798295454547,42.35448619495739L196.40312500000002,39.04619567871093L196.92826704545453,39.04619567871093L197.45340909090908,39.04619567871093L197.97855113636362,37.27941700328481L198.50369318181816,37.27941700328481L199.02883522727274,37.27941700328481L199.55397727272728,36.706581032492906L200.07911931818182,36.706581032492906L200.60426136363637,36.706581032492906L201.1294034090909,35.6542391135476L201.65454545454548,35.6542391135476L202.1796875,35.6542391135476L202.70482954545454,37.456422895951704L203.2299715909091,37.456422895951704L203.75511363636363,37.456422895951704L204.28025568181818,36.252816217595885L204.80539772727272,36.252816217595885L205.3305397727273,36.252816217595885L205.85568181818184,35.06530634099788L206.38082386363638,35.06530634099788L206.9059659090909,35.06530634099788L207.43110795454544,34.73062250310724L207.95624999999998,34.73062250310724L208.48139204545456,34.73062250310724L209.0065340909091,32.37168973055752L209.53167613636364,32.37168973055752L210.0568181818182,32.37168973055752L210.58196022727273,31.95333002263849L211.10710227272727,31.95333002263849L211.63224431818185,31.95333002263849L212.15738636363636,30.012766779119318L212.6825284090909,30.012766779119318L213.20767045454545,30.012766779119318L213.7328125,28.249199607155543L214.25795454545454,28.249199607155543L214.78309659090908,28.249199607155543L215.30823863636365,25.182272727272718L215.8333806818182,25.182272727272718L216.35852272727274,25.182272727272718L216.88366477272726,23.158033613725134L217.4088068181818,23.158033613725134L217.93394886363635,23.158033613725134L218.45909090909092,23.579614646218047L218.98423295454546,23.579614646218047L219.509375,23.579614646218047L220.03451704545455,22.92311262650924L220.5596590909091,22.92311262650924L221.08480113636364,22.92311262650924L221.60994318181815,21.99948619495739L222.13508522727273,21.99948619495739L222.66022727272727,21.99948619495739L223.1853693181818,21.442747025923296L223.71051136363636,21.442747025923296L224.2356534090909,21.442747025923296L224.76079545454544,23.969021717418325L225.28593750000002,23.969021717418325L225.81107954545456,23.969021717418325L226.3362215909091,23.792015824751413L226.86136363636362,23.792015824751413L227.38650568181816,23.792015824751413L227.9116477272727,25.201581032492896L228.43678977272728,25.201581032492896L228.96193181818182,25.201581032492896L229.48707386363637,25.050326094193903L230.0122159090909,25.050326094193903L230.53735795454546,25.050326094193903L231.0625,24.51610673384233L231.58764204545452,24.51610673384233L232.1127840909091,24.51610673384233L232.63792613636363,23.843507912375717L233.16306818181818,23.843507912375717L233.68821022727272,23.843507912375717L234.21335227272726,22.10247037020596L234.73849431818184,22.10247037020596L235.26363636363638,22.10247037020596L235.78877840909092,22.84265808105469L236.31392045454547,22.84265808105469L236.83906249999998,22.84265808105469L237.36420454545453,21.249654152610088L237.88934659090907,21.249654152610088L238.41448863636364,21.249654152610088L238.9396306818182,20.374308305220175L239.46477272727273,20.374308305220175L239.98991477272727,20.374308305220175L240.51505681818182,21.310800392844463L241.04019886363636,21.310800392844463L241.5653409090909,21.310800392844463L242.09048295454545,19.849743097478694L242.615625,19.849743097478694L243.14076704545454,19.849743097478694L243.66590909090908,20.416146240234372L244.19105113636363,20.416146240234372L244.7161931818182,20.416146240234372L245.24133522727274,21.091966386274866L245.7664772727273,21.091966386274866L246.29161931818183,21.091966386274866L246.81676136363635,22.260167957652698L247.3419034090909,22.260167957652698L247.86704545454543,22.260167957652698L248.3921875,23.238488159179685L248.91732954545455,23.238488159179685L249.4424715909091,23.238488159179685L249.96761363636364,23.380088944868607L250.49275568181818,23.380088944868607L251.01789772727275,23.380088944868607L251.54303977272727,22.9166699773615L252.0681818181818,22.9166699773615L252.59332386363636,22.9166699773615L253.1184659090909,23.01643282803623L253.64360795454544,23.01643282803623L254.16875,23.01643282803623L254.69389204545456,23.022875477183952L255.2190340909091,23.022875477183952L255.74417613636365,23.022875477183952L256.2693181818182,20.60923911354758L256.79446022727274,20.60923911354758L257.31960227272725,20.60923911354758L257.8447443181818,20.43545454545455L258.36988636363634,20.43545454545455L258.8950284090909,20.43545454545455L259.4201704545455,18.642924915660508L259.9453125,18.642924915660508L260.4704545454546,18.642924915660508L260.9955965909091,18.086185746626413L261.5207386363636,18.086185746626413L262.0458806818182,18.086185746626413L262.5710227272727,16.563982211026275L263.09616477272726,16.563982211026275L263.62130681818184,16.563982211026275L264.14644886363635,16.181017788973715L264.6715909090909,16.181017788973715L265.19673295454544,16.181017788973715L265.721875,13.857490123401986" style="fill: none;" fill="none"></path></g></g></g></g></g></g><g transform="translate(41, 177)" clip-path="url(#clip_1)"><clipPath id="clip_1"><rect width="288" height="23"></rect></clipPath><g><g><line x1="0" y1="0" x2="0" y2="5" style="visibility: inherit;" fill="rgb(0, 0, 0)" stroke="rgb(204, 204, 204)" stroke-width="1px"></line><line x1="26.257102272727273" y1="0" x2="26.257102272727273" y2="5" style="visibility: inherit;" fill="rgb(0, 0, 0)" stroke="rgb(204, 204, 204)" stroke-width="1px"></line><line x1="52.51420454545455" y1="0" x2="52.51420454545455" y2="5" style="visibility: inherit;" fill="rgb(0, 0, 0)" stroke="rgb(204, 204, 204)" stroke-width="1px"></line><line x1="78.77130681818181" y1="0" x2="78.77130681818181" y2="5" style="visibility: inherit;" fill="rgb(0, 0, 0)" stroke="rgb(204, 204, 204)" stroke-width="1px"></line><line x1="105.0284090909091" y1="0" x2="105.0284090909091" y2="5" style="visibility: inherit;" fill="rgb(0, 0, 0)" stroke="rgb(204, 204, 204)" stroke-width="1px"></line><line x1="131.28551136363635" y1="0" x2="131.28551136363635" y2="5" style="visibility: inherit;" fill="rgb(0, 0, 0)" stroke="rgb(204, 204, 204)" stroke-width="1px"></line><line x1="157.54261363636363" y1="0" x2="157.54261363636363" y2="5" style="visibility: inherit;" fill="rgb(0, 0, 0)" stroke="rgb(204, 204, 204)" stroke-width="1px"></line><line x1="183.7997159090909" y1="0" x2="183.7997159090909" y2="5" style="visibility: inherit;" fill="rgb(0, 0, 0)" stroke="rgb(204, 204, 204)" stroke-width="1px"></line><line x1="210.0568181818182" y1="0" x2="210.0568181818182" y2="5" style="visibility: inherit;" fill="rgb(0, 0, 0)" stroke="rgb(204, 204, 204)" stroke-width="1px"></line><line x1="236.31392045454547" y1="0" x2="236.31392045454547" y2="5" style="visibility: inherit;" fill="rgb(0, 0, 0)" stroke="rgb(204, 204, 204)" stroke-width="1px"></line><line x1="262.5710227272727" y1="0" x2="262.5710227272727" y2="5" style="visibility: inherit;" fill="rgb(0, 0, 0)" stroke="rgb(204, 204, 204)" stroke-width="1px"></line><line x1="288.828125" y1="0" x2="288.828125" y2="5" style="visibility: inherit;" fill="rgb(0, 0, 0)" stroke="rgb(204, 204, 204)" stroke-width="1px"></line></g><g transform="translate(0, 8)"><text x="0" y="0" dx="0em" dy="0.95em" style="text-anchor: middle; visibility: hidden; font-family: Roboto, sans-serif; font-size: 12px; font-weight: 200;" fill="rgb(33, 33, 33)" stroke="none" stroke-width="1px">-50</text><text x="26.257102272727273" y="0" dx="0em" dy="0.95em" style="text-anchor: middle; visibility: inherit; font-family: Roboto, sans-serif; font-size: 12px; font-weight: 200;" fill="rgb(33, 33, 33)" stroke="none" stroke-width="1px">0</text><text x="52.51420454545455" y="0" dx="0em" dy="0.95em" style="text-anchor: middle; visibility: inherit; font-family: Roboto, sans-serif; font-size: 12px; font-weight: 200;" fill="rgb(33, 33, 33)" stroke="none" stroke-width="1px">50</text><text x="78.77130681818181" y="0" dx="0em" dy="0.95em" style="text-anchor: middle; visibility: inherit; font-family: Roboto, sans-serif; font-size: 12px; font-weight: 200;" fill="rgb(33, 33, 33)" stroke="none" stroke-width="1px">100</text><text x="105.0284090909091" y="0" dx="0em" dy="0.95em" style="text-anchor: middle; visibility: inherit; font-family: Roboto, sans-serif; font-size: 12px; font-weight: 200;" fill="rgb(33, 33, 33)" stroke="none" stroke-width="1px">150</text><text x="131.28551136363635" y="0" dx="0em" dy="0.95em" style="text-anchor: middle; visibility: inherit; font-family: Roboto, sans-serif; font-size: 12px; font-weight: 200;" fill="rgb(33, 33, 33)" stroke="none" stroke-width="1px">200</text><text x="157.54261363636363" y="0" dx="0em" dy="0.95em" style="text-anchor: middle; visibility: inherit; font-family: Roboto, sans-serif; font-size: 12px; font-weight: 200;" fill="rgb(33, 33, 33)" stroke="none" stroke-width="1px">250</text><text x="183.7997159090909" y="0" dx="0em" dy="0.95em" style="text-anchor: middle; visibility: inherit; font-family: Roboto, sans-serif; font-size: 12px; font-weight: 200;" fill="rgb(33, 33, 33)" stroke="none" stroke-width="1px">300</text><text x="210.0568181818182" y="0" dx="0em" dy="0.95em" style="text-anchor: middle; visibility: inherit; font-family: Roboto, sans-serif; font-size: 12px; font-weight: 200;" fill="rgb(33, 33, 33)" stroke="none" stroke-width="1px">350</text><text x="236.31392045454547" y="0" dx="0em" dy="0.95em" style="text-anchor: middle; visibility: inherit; font-family: Roboto, sans-serif; font-size: 12px; font-weight: 200;" fill="rgb(33, 33, 33)" stroke="none" stroke-width="1px">400</text><text x="262.5710227272727" y="0" dx="0em" dy="0.95em" style="text-anchor: middle; visibility: inherit; font-family: Roboto, sans-serif; font-size: 12px; font-weight: 200;" fill="rgb(33, 33, 33)" stroke="none" stroke-width="1px">450</text><text x="288.828125" y="0" dx="0em" dy="0.95em" style="text-anchor: middle; visibility: hidden; font-family: Roboto, sans-serif; font-size: 12px; font-weight: 200;" fill="rgb(33, 33, 33)" stroke="none" stroke-width="1px">500</text></g><line x1="0" y1="0" x2="288.828125" y2="0" fill="rgb(0, 0, 0)" stroke="rgb(204, 204, 204)" stroke-width="1px"></line></g></g></g></g></svg>
