<svg version="1.1" viewBox="0.0 0.0 549.1679790026246 348.742782152231" fill="none" stroke="none" stroke-linecap="square" stroke-miterlimit="10" xmlns:xlink="http://www.w3.org/1999/xlink" xmlns="http://www.w3.org/2000/svg"><clipPath id="p.0"><path d="m0 0l549.16797 0l0 348.74277l-549.16797 0l0 -348.74277z" clip-rule="nonzero"/></clipPath><g clip-path="url(#p.0)"><path fill="#000000" fill-opacity="0.0" d="m0 0l549.16797 0l0 348.74277l-549.16797 0z" fill-rule="evenodd"/><path fill="#ecf8fd" d="m25.740158 29.850769l0 0c0 -10.3588085 8.397472 -18.75628 18.756279 -18.75628l435.96777 0c4.974457 0 9.745209 1.9761028 13.262695 5.4935875c3.5174866 3.5174847 5.493561 8.288218 5.493561 13.262693l0 75.02287c0 10.358803 -8.397461 18.756279 -18.756256 18.756279l-435.96777 0c-10.358807 0 -18.756279 -8.397476 -18.756279 -18.756279z" fill-rule="evenodd"/><path stroke="#028cf0" stroke-width="1.0" stroke-linejoin="round" stroke-linecap="butt" d="m25.740158 29.850769l0 0c0 -10.3588085 8.397472 -18.75628 18.756279 -18.75628l435.96777 0c4.974457 0 9.745209 1.9761028 13.262695 5.4935875c3.5174866 3.5174847 5.493561 8.288218 5.493561 13.262693l0 75.02287c0 10.358803 -8.397461 18.756279 -18.756256 18.756279l-435.96777 0c-10.358807 0 -18.756279 -8.397476 -18.756279 -18.756279z" fill-rule="evenodd"/><path fill="#028cf0" d="m201.63838 79.3622l0 -23.859371l10.140625 0q3.828125 0 5.5625 0.640625q1.734375 0.640625 2.765625 2.296875q1.046875 1.640625 1.046875 3.75q0 2.6874962 -1.578125 4.437496q-1.578125 1.75 -4.71875 2.203125q1.5625 0.90625 2.578125 2.0q1.015625 1.09375 2.734375 3.875l2.921875 4.65625l-5.765625 0l-3.484375 -5.1875q-1.84375 -2.78125 -2.53125 -3.5q-0.6875 -0.734375 -1.453125 -1.0q-0.765625 -0.265625 -2.421875 -0.265625l-0.96875 0l0 9.953125l-4.828125 0zm4.828125 -13.765625l3.5625 0q3.453125 0 4.3125 -0.296875q0.875 -0.296875 1.359375 -1.0q0.484375 -0.7187462 0.484375 -1.7968712q0 -1.203125 -0.640625 -1.9375q-0.640625 -0.75 -1.8125 -0.9375q-0.578125 -0.09375 -3.515625 -0.09375l-3.75 0l0 6.062496zm22.615387 1.75l-4.15625 -0.75q0.703125 -2.5 2.40625 -3.7031212q1.71875 -1.203125 5.078125 -1.203125q3.0625 0 4.5625 0.734375q1.5 0.71875 2.109375 1.8281212q0.609375 1.109375 0.609375 4.09375l-0.046875 5.34375q0 2.265625 0.21875 3.359375q0.21875 1.078125 0.8125 2.3125l-4.515625 0q-0.1875 -0.453125 -0.4375 -1.34375q-0.125 -0.40625 -0.171875 -0.546875q-1.171875 1.140625 -2.5 1.71875q-1.328125 0.5625 -2.84375 0.5625q-2.671875 0 -4.21875 -1.4375q-1.53125 -1.453125 -1.53125 -3.671875q0 -1.46875 0.703125 -2.609375q0.703125 -1.15625 1.953125 -1.765625q1.265625 -0.609375 3.640625 -1.0625q3.203125 -0.59375 4.4375 -1.125l0 -0.453125q0 -1.3125 -0.65625 -1.875q-0.640625 -0.5625 -2.453125 -0.5625q-1.21875 0 -1.90625 0.484375q-0.671875 0.46875 -1.09375 1.671875zm6.109375 3.71875q-0.875 0.296875 -2.78125 0.703125q-1.90625 0.40625 -2.484375 0.796875q-0.890625 0.625 -0.890625 1.609375q0 0.953125 0.703125 1.65625q0.71875 0.703125 1.828125 0.703125q1.234375 0 2.359375 -0.8125q0.828125 -0.625 1.09375 -1.515625q0.171875 -0.59375 0.171875 -2.234375l0 -0.90625zm6.8480225 -8.984371l4.859375 0l4.140625 12.265621l4.03125 -12.265621l4.7343597 0l-6.1093597 16.624996l-1.078125 3.015625q-0.609375 1.515625 -1.15625 2.3125q-0.546875 0.796875 -1.25 1.28125q-0.703125 0.5 -1.75 0.78125q-1.03125 0.28125 -2.328125 0.28125q-1.3125 0 -2.59375 -0.28125l-0.40625 -3.578125q1.078125 0.21875 1.9375 0.21875q1.59375 0 2.359375 -0.9375q0.765625 -0.9375 1.171875 -2.390625l-6.5625 -17.328121zm50.261276 17.281246l-5.234375 0l-2.09375 -5.421875l-9.53125 0l-1.96875 5.421875l-5.109375 0l9.296875 -23.859371l5.09375 0l9.546875 23.859371zm-8.875 -9.4375l-3.28125 -8.859371l-3.21875 8.859371l6.5 0zm11.287262 9.4375l0 -23.859371l4.8125 0l0 23.859371l-4.8125 0zm9.415863 0l0 -23.859371l10.140625 0q3.828125 0 5.5625 0.640625q1.734375 0.640625 2.765625 2.296875q1.046875 1.640625 1.046875 3.75q0 2.6874962 -1.578125 4.437496q-1.578125 1.75 -4.71875 2.203125q1.5625 0.90625 2.578125 2.0q1.015625 1.09375 2.734375 3.875l2.921875 4.65625l-5.765625 0l-3.484375 -5.1875q-1.84375 -2.78125 -2.53125 -3.5q-0.6875 -0.734375 -1.453125 -1.0q-0.765625 -0.265625 -2.421875 -0.265625l-0.96875 0l0 9.953125l-4.828125 0zm4.828125 -13.765625l3.5625 0q3.453125 0 4.3125 -0.296875q0.875 -0.296875 1.359375 -1.0q0.484375 -0.7187462 0.484375 -1.7968712q0 -1.203125 -0.640625 -1.9375q-0.640625 -0.75 -1.8125 -0.9375q-0.578125 -0.09375 -3.515625 -0.09375l-3.75 0l0 6.062496z" fill-rule="nonzero"/><path fill="#7a8ea3" d="m62.322834 141.56705l0 0c0 -3.4355316 2.7850533 -6.2205963 6.2206 -6.2205963l388.03125 0c1.6498108 0 3.2320251 0.6553955 4.3986206 1.8219757c1.1665955 1.1665955 1.821991 2.748825 1.821991 4.3986206l0 24.881653c0 3.4355316 -2.7850647 6.2205963 -6.2206116 6.2205963l-388.03125 0l0 0c-3.4355469 0 -6.2206 -2.7850647 -6.2206 -6.2205963z" fill-rule="evenodd"/><path stroke="#ffffff" stroke-width="2.0" stroke-linejoin="round" stroke-linecap="butt" d="m62.322834 141.56705l0 0c0 -3.4355316 2.7850533 -6.2205963 6.2206 -6.2205963l388.03125 0c1.6498108 0 3.2320251 0.6553955 4.3986206 1.8219757c1.1665955 1.1665955 1.821991 2.748825 1.821991 4.3986206l0 24.881653c0 3.4355316 -2.7850647 6.2205963 -6.2206116 6.2205963l-388.03125 0l0 0c-3.4355469 0 -6.2206 -2.7850647 -6.2206 -6.2205963z" fill-rule="evenodd"/><path fill="#ffffff" d="m168.83446 161.20787l0 -14.3125l2.890625 0l0 6.359375l5.828125 -6.359375l3.890625 0l-5.390625 5.578125l5.6875 8.734375l-3.734375 0l-3.9375 -6.71875l-2.34375 2.390625l0 4.328125l-2.890625 0zm21.208984 0l0 -1.546875q-0.5625 0.828125 -1.5 1.3125q-0.921875 0.46875 -1.9375 0.46875q-1.046875 0 -1.875 -0.453125q-0.828125 -0.46875 -1.203125 -1.296875q-0.375 -0.828125 -0.375 -2.296875l0 -6.5625l2.75 0l0 4.765625q0 2.1875 0.140625 2.6875q0.15625 0.484375 0.546875 0.78125q0.40625 0.28125 1.03125 0.28125q0.703125 0 1.25 -0.375q0.5625 -0.390625 0.765625 -0.953125q0.203125 -0.578125 0.203125 -2.8125l0 -4.375l2.75 0l0 10.375l-2.546875 0zm5.263672 0l0 -14.3125l2.75 0l0 5.15625q1.265625 -1.453125 3.015625 -1.453125q1.890625 0 3.125 1.375q1.25 1.375 1.25 3.9375q0 2.65625 -1.265625 4.09375q-1.265625 1.4375 -3.078125 1.4375q-0.890625 0 -1.75 -0.4375q-0.859375 -0.453125 -1.484375 -1.328125l0 1.53125l-2.5625 0zm2.734375 -5.40625q0 1.609375 0.5 2.375q0.71875 1.09375 1.90625 1.09375q0.90625 0 1.546875 -0.765625q0.640625 -0.78125 0.640625 -2.453125q0 -1.78125 -0.65625 -2.5625q-0.640625 -0.78125 -1.640625 -0.78125q-0.984375 0 -1.640625 0.765625q-0.65625 0.765625 -0.65625 2.328125zm15.607422 2.109375l2.734375 0.453125q-0.515625 1.5 -1.65625 2.296875q-1.140625 0.78125 -2.84375 0.78125q-2.71875 0 -4.015625 -1.765625q-1.015625 -1.421875 -1.015625 -3.578125q0 -2.578125 1.34375 -4.03125q1.34375 -1.46875 3.40625 -1.46875q2.3125 0 3.640625 1.53125q1.34375 1.53125 1.296875 4.6875l-6.875 0q0.03125 1.21875 0.65625 1.90625q0.640625 0.671875 1.578125 0.671875q0.65625 0 1.09375 -0.34375q0.4375 -0.359375 0.65625 -1.140625zm0.15625 -2.78125q-0.03125 -1.1875 -0.625 -1.796875q-0.578125 -0.625 -1.40625 -0.625q-0.90625 0 -1.484375 0.640625q-0.59375 0.65625 -0.578125 1.78125l4.09375 0zm4.998047 6.078125l0 -14.3125l6.078125 0q2.296875 0 3.328125 0.390625q1.046875 0.375 1.671875 1.359375q0.625 0.984375 0.625 2.265625q0 1.609375 -0.953125 2.65625q-0.9375 1.046875 -2.828125 1.328125q0.9375 0.546875 1.546875 1.203125q0.609375 0.640625 1.65625 2.3125l1.75 2.796875l-3.46875 0l-2.078125 -3.109375q-1.125 -1.671875 -1.53125 -2.109375q-0.40625 -0.4375 -0.875 -0.59375q-0.453125 -0.171875 -1.453125 -0.171875l-0.578125 0l0 5.984375l-2.890625 0zm2.890625 -8.265625l2.140625 0q2.078125 0 2.59375 -0.171875q0.515625 -0.171875 0.8125 -0.59375q0.296875 -0.4375 0.296875 -1.09375q0 -0.71875 -0.390625 -1.15625q-0.390625 -0.453125 -1.09375 -0.5625q-0.34375 -0.046875 -2.109375 -0.046875l-2.25 0l0 3.625zm13.568359 1.0625l-2.484375 -0.453125q0.421875 -1.5 1.4375 -2.21875q1.03125 -0.734375 3.046875 -0.734375q1.84375 0 2.734375 0.4375q0.90625 0.4375 1.265625 1.109375q0.375 0.65625 0.375 2.453125l-0.03125 3.203125q0 1.359375 0.125 2.015625q0.140625 0.640625 0.5 1.390625l-2.71875 0q-0.109375 -0.28125 -0.265625 -0.8125q-0.0625 -0.25 -0.09375 -0.328125q-0.703125 0.6875 -1.515625 1.03125q-0.796875 0.34375 -1.703125 0.34375q-1.59375 0 -2.515625 -0.859375q-0.921875 -0.875 -0.921875 -2.203125q0 -0.890625 0.40625 -1.578125q0.421875 -0.6875 1.171875 -1.046875q0.765625 -0.375 2.203125 -0.640625q1.921875 -0.359375 2.65625 -0.671875l0 -0.28125q0 -0.78125 -0.390625 -1.109375q-0.390625 -0.34375 -1.46875 -0.34375q-0.734375 0 -1.15625 0.28125q-0.40625 0.28125 -0.65625 1.015625zm3.671875 2.21875q-0.53125 0.171875 -1.671875 0.421875q-1.140625 0.25 -1.484375 0.484375q-0.546875 0.375 -0.546875 0.96875q0 0.5625 0.421875 0.984375q0.4375 0.421875 1.109375 0.421875q0.734375 0 1.40625 -0.484375q0.5 -0.375 0.65625 -0.90625q0.109375 -0.359375 0.109375 -1.34375l0 -0.546875zm4.107422 -5.390625l2.921875 0l2.46875 7.359375l2.421875 -7.359375l2.84375 0l-3.65625 9.984375l-0.65625 1.8125q-0.359375 0.90625 -0.6875 1.375q-0.328125 0.484375 -0.75 0.78125q-0.421875 0.296875 -1.046875 0.453125q-0.625 0.171875 -1.40625 0.171875q-0.78125 0 -1.546875 -0.15625l-0.25 -2.15625q0.65625 0.125 1.171875 0.125q0.953125 0 1.40625 -0.5625q0.46875 -0.546875 0.703125 -1.421875l-3.9375 -10.40625zm16.507797 10.625l3.546875 -14.8125l2.0625 0l-3.578125 14.8125l-2.03125 0zm24.761719 -0.25l-3.140625 0l-1.25 -3.25l-5.71875 0l-1.1875 3.25l-3.0625 0l5.578125 -14.3125l3.0625 0l5.71875 14.3125zm-5.3125 -5.671875l-1.96875 -5.3125l-1.9375 5.3125l3.90625 0zm16.271484 5.671875l-2.75 0l0 -5.296875q0 -1.671875 -0.171875 -2.15625q-0.171875 -0.5 -0.578125 -0.765625q-0.390625 -0.28125 -0.953125 -0.28125q-0.703125 0 -1.28125 0.390625q-0.5625 0.390625 -0.78125 1.03125q-0.203125 0.640625 -0.203125 2.375l0 4.703125l-2.734375 0l0 -10.375l2.546875 0l0 1.53125q1.359375 -1.765625 3.421875 -1.765625q0.90625 0 1.65625 0.328125q0.75 0.328125 1.125 0.84375q0.390625 0.5 0.546875 1.15625q0.15625 0.640625 0.15625 1.828125l0 6.453125zm1.4824219 -10.375l2.921875 0l2.46875 7.359375l2.421875 -7.359375l2.84375 0l-3.65625 9.984375l-0.65625 1.8125q-0.359375 0.90625 -0.6875 1.375q-0.328125 0.484375 -0.75 0.78125q-0.421875 0.296875 -1.046875 0.453125q-0.625 0.171875 -1.40625 0.171875q-0.78125 0 -1.546875 -0.15625l-0.25 -2.15625q0.65625 0.125 1.171875 0.125q0.953125 0 1.40625 -0.5625q0.46875 -0.546875 0.703125 -1.421875l-3.9375 -10.40625zm11.451172 7.421875l2.75 -0.421875q0.1875 0.796875 0.71875 1.21875q0.53125 0.40625 1.5 0.40625q1.0625 0 1.609375 -0.390625q0.359375 -0.265625 0.359375 -0.734375q0 -0.3125 -0.203125 -0.515625q-0.203125 -0.1875 -0.90625 -0.359375q-3.328125 -0.734375 -4.21875 -1.34375q-1.234375 -0.828125 -1.234375 -2.328125q0 -1.34375 1.0625 -2.265625q1.078125 -0.921875 3.3125 -0.921875q2.125 0 3.15625 0.703125q1.046875 0.6875 1.4375 2.046875l-2.59375 0.46875q-0.171875 -0.59375 -0.640625 -0.921875q-0.453125 -0.328125 -1.3125 -0.328125q-1.078125 0 -1.546875 0.3125q-0.3125 0.21875 -0.3125 0.546875q0 0.296875 0.265625 0.5q0.375 0.28125 2.5625 0.78125q2.1875 0.5 3.0625 1.21875q0.859375 0.734375 0.859375 2.03125q0 1.4375 -1.1875 2.46875q-1.1875 1.015625 -3.53125 1.015625q-2.109375 0 -3.359375 -0.859375q-1.234375 -0.859375 -1.609375 -2.328125zm21.138672 -4.359375l-2.703125 0.5q-0.140625 -0.8125 -0.625 -1.21875q-0.484375 -0.421875 -1.25 -0.421875q-1.03125 0 -1.640625 0.71875q-0.609375 0.703125 -0.609375 2.359375q0 1.84375 0.609375 2.609375q0.625 0.765625 1.671875 0.765625q0.78125 0 1.28125 -0.4375q0.5 -0.453125 0.703125 -1.53125l2.6875 0.453125q-0.40625 1.859375 -1.609375 2.8125q-1.1875 0.9375 -3.1875 0.9375q-2.28125 0 -3.640625 -1.4375q-1.34375 -1.4375 -1.34375 -3.96875q0 -2.578125 1.359375 -4.0q1.359375 -1.4375 3.671875 -1.4375q1.890625 0 3.0 0.828125q1.125 0.8125 1.625 2.46875zm4.123047 0.109375l-2.484375 -0.453125q0.421875 -1.5 1.4375 -2.21875q1.03125 -0.734375 3.046875 -0.734375q1.84375 0 2.734375 0.4375q0.90625 0.4375 1.265625 1.109375q0.375 0.65625 0.375 2.453125l-0.03125 3.203125q0 1.359375 0.125 2.015625q0.140625 0.640625 0.5 1.390625l-2.71875 0q-0.109375 -0.28125 -0.265625 -0.8125q-0.0625 -0.25 -0.09375 -0.328125q-0.703125 0.6875 -1.515625 1.03125q-0.796875 0.34375 -1.703125 0.34375q-1.59375 0 -2.515625 -0.859375q-0.921875 -0.875 -0.921875 -2.203125q0 -0.890625 0.40625 -1.578125q0.421875 -0.6875 1.171875 -1.046875q0.765625 -0.375 2.203125 -0.640625q1.921875 -0.359375 2.65625 -0.671875l0 -0.28125q0 -0.78125 -0.390625 -1.109375q-0.390625 -0.34375 -1.46875 -0.34375q-0.734375 0 -1.15625 0.28125q-0.40625 0.28125 -0.65625 1.015625zm3.671875 2.21875q-0.53125 0.171875 -1.671875 0.421875q-1.140625 0.25 -1.484375 0.484375q-0.546875 0.375 -0.546875 0.96875q0 0.5625 0.421875 0.984375q0.4375 0.421875 1.109375 0.421875q0.734375 0 1.40625 -0.484375q0.5 -0.375 0.65625 -0.90625q0.109375 -0.359375 0.109375 -1.34375l0 -0.546875zm5.404297 4.984375l0 -14.3125l2.75 0l0 14.3125l-2.75 0zm11.556641 -3.296875l2.734375 0.453125q-0.515625 1.5 -1.65625 2.296875q-1.140625 0.78125 -2.84375 0.78125q-2.71875 0 -4.015625 -1.765625q-1.015625 -1.421875 -1.015625 -3.578125q0 -2.578125 1.34375 -4.03125q1.34375 -1.46875 3.40625 -1.46875q2.3125 0 3.640625 1.53125q1.34375 1.53125 1.296875 4.6875l-6.875 0q0.03125 1.21875 0.65625 1.90625q0.640625 0.671875 1.578125 0.671875q0.65625 0 1.09375 -0.34375q0.4375 -0.359375 0.65625 -1.140625zm0.15625 -2.78125q-0.03125 -1.1875 -0.625 -1.796875q-0.578125 -0.625 -1.40625 -0.625q-0.90625 0 -1.484375 0.640625q-0.59375 0.65625 -0.578125 1.78125l4.09375 0z" fill-rule="nonzero"/><path fill="#d9d9d9" d="m379.90375 205.02625l0 0c0 4.596573 30.747803 8.32283 68.677155 8.32283c37.92935 0 68.677155 -3.7262573 68.677155 -8.32283l0 49.93701c0 4.5965576 -30.747803 8.322845 -68.677155 8.322845c-37.92935 0 -68.677155 -3.7262878 -68.677155 -8.322845z" fill-rule="evenodd"/><path fill="#e8e8e8" d="m379.90375 205.02625l0 0c0 -4.596573 30.747803 -8.32283 68.677155 -8.32283c37.92935 0 68.677155 3.7262573 68.677155 8.32283l0 0c0 4.596573 -30.747803 8.32283 -68.677155 8.32283c-37.92935 0 -68.677155 -3.7262573 -68.677155 -8.32283z" fill-rule="evenodd"/><path fill="#000000" fill-opacity="0.0" d="m517.25806 205.02625l0 0c0 4.596573 -30.747803 8.32283 -68.677155 8.32283c-37.92935 0 -68.677155 -3.7262573 -68.677155 -8.32283l0 0c0 -4.596573 30.747803 -8.32283 68.677155 -8.32283c37.92935 0 68.677155 3.7262573 68.677155 8.32283l0 49.93701c0 4.5965576 -30.747803 8.322845 -68.677155 8.322845c-37.92935 0 -68.677155 -3.7262878 -68.677155 -8.322845l0 -49.93701" fill-rule="evenodd"/><path fill="#666666" d="m399.13663 230.07617l0 -13.359375l9.90625 0l0 2.265625l-7.21875 0l0 2.953125l6.71875 0l0 2.25l-6.71875 0l0 3.640625l7.46875 0l0 2.25l-10.15625 0zm11.193573 0l3.484375 -4.984375l-3.34375 -4.6875l3.125 0l1.71875 2.65625l1.796875 -2.65625l3.015625 0l-3.28125 4.578125l3.578125 5.09375l-3.140625 0l-1.96875 -3.0l-1.984375 3.0l-3.0 0zm11.531952 -9.671875l2.390625 0l0 1.421875q0.46875 -0.734375 1.25 -1.1875q0.796875 -0.453125 1.765625 -0.453125q1.6875 0 2.859375 1.328125q1.171875 1.3125 1.171875 3.671875q0 2.421875 -1.1875 3.765625q-1.1875 1.34375 -2.859375 1.34375q-0.8125 0 -1.46875 -0.3125q-0.640625 -0.328125 -1.359375 -1.09375l0 4.875l-2.5625 0l0 -13.359375zm2.53125 4.671875q0 1.625 0.640625 2.40625q0.65625 0.78125 1.578125 0.78125q0.90625 0 1.484375 -0.71875q0.59375 -0.71875 0.59375 -2.34375q0 -1.515625 -0.609375 -2.25q-0.609375 -0.75 -1.515625 -0.75q-0.9375 0 -1.5625 0.734375q-0.609375 0.71875 -0.609375 2.140625zm14.536621 1.921875l2.546875 0.421875q-0.484375 1.40625 -1.546875 2.140625q-1.0625 0.734375 -2.65625 0.734375q-2.515625 0 -3.734375 -1.65625q-0.953125 -1.3125 -0.953125 -3.328125q0 -2.40625 1.25 -3.765625q1.265625 -1.359375 3.1875 -1.359375q2.15625 0 3.40625 1.421875q1.25 1.421875 1.1875 4.375l-6.40625 0q0.03125 1.140625 0.609375 1.78125q0.59375 0.625 1.484375 0.625q0.59375 0 1.0 -0.328125q0.421875 -0.328125 0.625 -1.0625zm0.15625 -2.59375q-0.03125 -1.109375 -0.578125 -1.6875q-0.546875 -0.578125 -1.328125 -0.578125q-0.84375 0 -1.390625 0.609375q-0.546875 0.609375 -0.53125 1.65625l3.828125 0zm7.078827 5.671875l-2.5625 0l0 -9.671875l2.375 0l0 1.375q0.609375 -0.984375 1.09375 -1.28125q0.484375 -0.3125 1.109375 -0.3125q0.875 0 1.6875 0.484375l-0.796875 2.234375q-0.640625 -0.421875 -1.203125 -0.421875q-0.53125 0 -0.90625 0.296875q-0.375 0.296875 -0.59375 1.078125q-0.203125 0.765625 -0.203125 3.234375l0 2.984375zm4.8071594 -10.984375l0 -2.375l2.5625 0l0 2.375l-2.5625 0zm0 10.984375l0 -9.671875l2.5625 0l0 9.671875l-2.5625 0zm4.9801636 -9.671875l2.359375 0l0 1.3125q1.265625 -1.53125 3.015625 -1.53125q0.9375 0 1.609375 0.390625q0.6875 0.375 1.125 1.140625q0.640625 -0.765625 1.375 -1.140625q0.75 -0.390625 1.578125 -0.390625q1.0625 0 1.796875 0.4375q0.75 0.421875 1.109375 1.265625q0.265625 0.625 0.265625 2.0l0 6.1875l-2.5625 0l0 -5.53125q0 -1.4375 -0.265625 -1.859375q-0.34375 -0.546875 -1.09375 -0.546875q-0.53125 0 -1.015625 0.328125q-0.46875 0.328125 -0.671875 0.96875q-0.203125 0.625 -0.203125 2.0l0 4.640625l-2.5625 0l0 -5.296875q0 -1.421875 -0.140625 -1.828125q-0.140625 -0.40625 -0.421875 -0.609375q-0.28125 -0.203125 -0.78125 -0.203125q-0.59375 0 -1.0625 0.328125q-0.46875 0.3125 -0.6875 0.921875q-0.203125 0.59375 -0.203125 1.984375l0 4.703125l-2.5625 0l0 -9.671875zm22.385284 6.59375l2.546875 0.421875q-0.484375 1.40625 -1.546875 2.140625q-1.0625 0.734375 -2.65625 0.734375q-2.515625 0 -3.734375 -1.65625q-0.953125 -1.3125 -0.953125 -3.328125q0 -2.40625 1.25 -3.765625q1.265625 -1.359375 3.1875 -1.359375q2.15625 0 3.40625 1.421875q1.25 1.421875 1.1875 4.375l-6.40625 0q0.03125 1.140625 0.609375 1.78125q0.59375 0.625 1.484375 0.625q0.59375 0 1.0 -0.328125q0.421875 -0.328125 0.625 -1.0625zm0.15625 -2.59375q-0.03125 -1.109375 -0.578125 -1.6875q-0.546875 -0.578125 -1.328125 -0.578125q-0.84375 0 -1.390625 0.609375q-0.546875 0.609375 -0.53125 1.65625l3.828125 0zm13.422577 5.671875l-2.5625 0l0 -4.9375q0 -1.5625 -0.171875 -2.015625q-0.15625 -0.46875 -0.53125 -0.71875q-0.359375 -0.265625 -0.875 -0.265625q-0.671875 0 -1.203125 0.375q-0.53125 0.359375 -0.734375 0.96875q-0.1875 0.59375 -0.1875 2.21875l0 4.375l-2.546875 0l0 -9.671875l2.375 0l0 1.421875q1.265625 -1.640625 3.1875 -1.640625q0.84375 0 1.546875 0.3125q0.703125 0.296875 1.0625 0.78125q0.359375 0.46875 0.5 1.078125q0.140625 0.59375 0.140625 1.703125l0 6.015625zm7.036621 -9.671875l0 2.03125l-1.75 0l0 3.90625q0 1.1875 0.046875 1.390625q0.046875 0.1875 0.21875 0.3125q0.1875 0.125 0.4375 0.125q0.359375 0 1.03125 -0.25l0.21875 2.0q-0.890625 0.375 -2.015625 0.375q-0.703125 0 -1.265625 -0.234375q-0.546875 -0.234375 -0.8125 -0.59375q-0.25 -0.375 -0.34375 -1.0q-0.09375 -0.453125 -0.09375 -1.8125l0 -4.21875l-1.171875 0l0 -2.03125l1.171875 0l0 -1.921875l2.578125 -1.5l0 3.421875l1.75 0z" fill-rule="nonzero"/><path fill="#666666" d="m414.57593 252.07617l0 -11.09375l-3.953125 0l0 -2.265625l10.609375 0l0 2.265625l-3.953125 0l0 11.09375l-2.703125 0zm9.803528 0l-2.5625 0l0 -9.671875l2.375 0l0 1.375q0.609375 -0.984375 1.09375 -1.28125q0.484375 -0.3125 1.109375 -0.3125q0.875 0 1.6875 0.484375l-0.796875 2.234375q-0.640625 -0.421875 -1.203125 -0.421875q-0.53125 0 -0.90625 0.296875q-0.375 0.296875 -0.59375 1.078125q-0.203125 0.765625 -0.203125 3.234375l0 2.984375zm6.7134094 -6.71875l-2.328125 -0.421875q0.40625 -1.40625 1.359375 -2.078125q0.953125 -0.671875 2.84375 -0.671875q1.703125 0 2.546875 0.40625q0.84375 0.40625 1.171875 1.03125q0.34375 0.625 0.34375 2.28125l-0.015625 3.0q0 1.265625 0.109375 1.875q0.125 0.609375 0.46875 1.296875l-2.53125 0q-0.109375 -0.25 -0.25 -0.75q-0.0625 -0.234375 -0.09375 -0.3125q-0.65625 0.640625 -1.40625 0.96875q-0.734375 0.3125 -1.59375 0.3125q-1.484375 0 -2.34375 -0.8125q-0.859375 -0.8125 -0.859375 -2.046875q0 -0.828125 0.390625 -1.46875q0.390625 -0.640625 1.09375 -0.96875q0.703125 -0.34375 2.03125 -0.609375q1.796875 -0.328125 2.484375 -0.625l0 -0.25q0 -0.75 -0.359375 -1.0625q-0.359375 -0.3125 -1.375 -0.3125q-0.6875 0 -1.078125 0.28125q-0.375 0.265625 -0.609375 0.9375zm3.421875 2.078125q-0.484375 0.15625 -1.5625 0.390625q-1.0625 0.21875 -1.390625 0.4375q-0.5 0.359375 -0.5 0.90625q0 0.53125 0.40625 0.9375q0.40625 0.390625 1.015625 0.390625q0.703125 0 1.328125 -0.46875q0.46875 -0.34375 0.609375 -0.84375q0.09375 -0.328125 0.09375 -1.25l0 -0.5zm13.485077 -2.171875l-2.53125 0.453125q-0.125 -0.75 -0.578125 -1.125q-0.453125 -0.390625 -1.171875 -0.390625q-0.953125 0 -1.53125 0.65625q-0.5625 0.65625 -0.5625 2.203125q0 1.734375 0.578125 2.4375q0.578125 0.703125 1.546875 0.703125q0.734375 0 1.203125 -0.40625q0.46875 -0.421875 0.65625 -1.421875l2.515625 0.421875q-0.390625 1.734375 -1.515625 2.625q-1.109375 0.875 -2.96875 0.875q-2.125 0 -3.390625 -1.328125q-1.25 -1.34375 -1.25 -3.71875q0 -2.390625 1.265625 -3.71875q1.265625 -1.34375 3.421875 -1.34375q1.765625 0 2.796875 0.765625q1.046875 0.75 1.515625 2.3125zm1.8444519 6.8125l0 -13.359375l2.5625 0l0 7.09375l3.0 -3.40625l3.140625 0l-3.296875 3.53125l3.53125 6.140625l-2.75 0l-2.4375 -4.34375l-1.1875 1.25l0 3.09375l-2.5625 0zm10.469482 -10.984375l0 -2.375l2.5625 0l0 2.375l-2.5625 0zm0 10.984375l0 -9.671875l2.5625 0l0 9.671875l-2.5625 0zm13.980164 0l-2.5625 0l0 -4.9375q0 -1.5625 -0.171875 -2.015625q-0.15625 -0.46875 -0.53125 -0.71875q-0.359375 -0.265625 -0.875 -0.265625q-0.671875 0 -1.203125 0.375q-0.53125 0.359375 -0.734375 0.96875q-0.1875 0.59375 -0.1875 2.21875l0 4.375l-2.546875 0l0 -9.671875l2.375 0l0 1.421875q1.265625 -1.640625 3.1875 -1.640625q0.84375 0 1.546875 0.3125q0.703125 0.296875 1.0625 0.78125q0.359375 0.46875 0.5 1.078125q0.140625 0.59375 0.140625 1.703125l0 6.015625zm2.364746 0.640625l2.921875 0.359375q0.0625 0.5 0.328125 0.6875q0.375 0.28125 1.15625 0.28125q1.0 0 1.5 -0.296875q0.328125 -0.203125 0.515625 -0.65625q0.109375 -0.3125 0.109375 -1.171875l0 -1.40625q-1.140625 1.5625 -2.890625 1.5625q-1.953125 0 -3.09375 -1.65625q-0.890625 -1.296875 -0.890625 -3.234375q0 -2.4375 1.171875 -3.71875q1.171875 -1.28125 2.90625 -1.28125q1.796875 0 2.96875 1.578125l0 -1.359375l2.390625 0l0 8.671875q0 1.71875 -0.28125 2.5625q-0.28125 0.84375 -0.796875 1.328125q-0.5 0.484375 -1.359375 0.75q-0.84375 0.28125 -2.15625 0.28125q-2.453125 0 -3.484375 -0.84375q-1.03125 -0.84375 -1.03125 -2.125q0 -0.140625 0.015625 -0.3125zm2.28125 -5.671875q0 1.53125 0.59375 2.25q0.59375 0.71875 1.46875 0.71875q0.9375 0 1.578125 -0.734375q0.65625 -0.734375 0.65625 -2.171875q0 -1.515625 -0.625 -2.234375q-0.609375 -0.734375 -1.5625 -0.734375q-0.921875 0 -1.515625 0.71875q-0.59375 0.71875 -0.59375 2.1875z" fill-rule="nonzero"/><path fill="#d9d9d9" d="m193.88277 205.02693l0 0c0 4.596588 30.747803 8.322845 68.67717 8.322845c37.92935 0 68.677155 -3.7262573 68.677155 -8.322845l0 49.93701c0 4.596573 -30.747803 8.32283 -68.677155 8.32283c-37.929367 0 -68.67717 -3.7262573 -68.67717 -8.32283z" fill-rule="evenodd"/><path fill="#e8e8e8" d="m193.88277 205.02693l0 0c0 -4.596573 30.747803 -8.32283 68.67717 -8.32283c37.92935 0 68.677155 3.7262573 68.677155 8.32283l0 0c0 4.596588 -30.747803 8.322845 -68.677155 8.322845c-37.929367 0 -68.67717 -3.7262573 -68.67717 -8.322845z" fill-rule="evenodd"/><path fill="#000000" fill-opacity="0.0" d="m331.2371 205.02693l0 0c0 4.596588 -30.747803 8.322845 -68.677155 8.322845c-37.929367 0 -68.67717 -3.7262573 -68.67717 -8.322845l0 0c0 -4.596573 30.747803 -8.32283 68.67717 -8.32283c37.92935 0 68.677155 3.7262573 68.677155 8.32283l0 49.93701c0 4.596573 -30.747803 8.32283 -68.677155 8.32283c-37.929367 0 -68.67717 -3.7262573 -68.67717 -8.32283l0 -49.93701" fill-rule="evenodd"/><path fill="#666666" d="m230.23889 230.07686l0 -13.359375l9.15625 0l0 2.265625l-6.453125 0l0 3.15625l5.5625 0l0 2.265625l-5.5625 0l0 5.671875l-2.703125 0zm16.95848 -3.078125l2.546875 0.421875q-0.484375 1.40625 -1.546875 2.140625q-1.0625 0.734375 -2.65625 0.734375q-2.515625 0 -3.734375 -1.65625q-0.953125 -1.3125 -0.953125 -3.328125q0 -2.40625 1.25 -3.765625q1.265625 -1.359375 3.1875 -1.359375q2.15625 0 3.40625 1.421875q1.25 1.421875 1.1875 4.375l-6.40625 0q0.03125 1.140625 0.609375 1.78125q0.59375 0.625 1.484375 0.625q0.59375 0 1.0 -0.328125q0.421875 -0.328125 0.625 -1.0625zm0.15625 -2.59375q-0.03125 -1.109375 -0.578125 -1.6875q-0.546875 -0.578125 -1.328125 -0.578125q-0.84375 0 -1.390625 0.609375q-0.546875 0.609375 -0.53125 1.65625l3.828125 0zm6.531967 -1.046875l-2.328125 -0.421875q0.40625 -1.40625 1.359375 -2.078125q0.953125 -0.671875 2.84375 -0.671875q1.703125 0 2.546875 0.40625q0.84375 0.40625 1.171875 1.03125q0.34375 0.625 0.34375 2.28125l-0.015625 3.0q0 1.265625 0.109375 1.875q0.125 0.609375 0.46875 1.296875l-2.53125 0q-0.109375 -0.25 -0.25 -0.75q-0.0625 -0.234375 -0.09375 -0.3125q-0.65625 0.640625 -1.40625 0.96875q-0.734375 0.3125 -1.59375 0.3125q-1.484375 0 -2.34375 -0.8125q-0.859375 -0.8125 -0.859375 -2.046875q0 -0.828125 0.390625 -1.46875q0.390625 -0.640625 1.09375 -0.96875q0.703125 -0.34375 2.03125 -0.609375q1.796875 -0.328125 2.484375 -0.625l0 -0.25q0 -0.75 -0.359375 -1.0625q-0.359375 -0.3125 -1.375 -0.3125q-0.6875 0 -1.078125 0.28125q-0.375 0.265625 -0.609375 0.9375zm3.421875 2.078125q-0.484375 0.15625 -1.5625 0.390625q-1.0625 0.21875 -1.390625 0.4375q-0.5 0.359375 -0.5 0.90625q0 0.53125 0.40625 0.9375q0.40625 0.390625 1.015625 0.390625q0.703125 0 1.328125 -0.46875q0.46875 -0.34375 0.609375 -0.84375q0.09375 -0.328125 0.09375 -1.25l0 -0.5zm9.485107 -5.03125l0 2.03125l-1.75 0l0 3.90625q0 1.1875 0.046875 1.390625q0.046875 0.1875 0.21875 0.3125q0.1875 0.125 0.4375 0.125q0.359375 0 1.03125 -0.25l0.21875 2.0q-0.890625 0.375 -2.015625 0.375q-0.703125 0 -1.265625 -0.234375q-0.546875 -0.234375 -0.8125 -0.59375q-0.25 -0.375 -0.34375 -1.0q-0.09375 -0.453125 -0.09375 -1.8125l0 -4.21875l-1.171875 0l0 -2.03125l1.171875 0l0 -1.921875l2.578125 -1.5l0 3.421875l1.75 0zm8.134552 9.671875l0 -1.453125q-0.53125 0.78125 -1.390625 1.234375q-0.859375 0.4375 -1.8125 0.4375q-0.96875 0 -1.75 -0.421875q-0.765625 -0.4375 -1.125 -1.203125q-0.34375 -0.78125 -0.34375 -2.140625l0 -6.125l2.5625 0l0 4.4375q0 2.046875 0.140625 2.515625q0.140625 0.453125 0.515625 0.71875q0.375 0.265625 0.953125 0.265625q0.65625 0 1.171875 -0.359375q0.515625 -0.359375 0.703125 -0.890625q0.203125 -0.53125 0.203125 -2.609375l0 -4.078125l2.546875 0l0 9.671875l-2.375 0zm7.4897156 0l-2.5625 0l0 -9.671875l2.375 0l0 1.375q0.609375 -0.984375 1.09375 -1.28125q0.484375 -0.3125 1.109375 -0.3125q0.875 0 1.6875 0.484375l-0.796875 2.234375q-0.640625 -0.421875 -1.203125 -0.421875q-0.53125 0 -0.90625 0.296875q-0.375 0.296875 -0.59375 1.078125q-0.203125 0.765625 -0.203125 3.234375l0 2.984375zm10.400909 -3.078125l2.546875 0.421875q-0.484375 1.40625 -1.546875 2.140625q-1.0625 0.734375 -2.65625 0.734375q-2.515625 0 -3.734375 -1.65625q-0.953125 -1.3125 -0.953125 -3.328125q0 -2.40625 1.25 -3.765625q1.265625 -1.359375 3.1875 -1.359375q2.15625 0 3.40625 1.421875q1.25 1.421875 1.1875 4.375l-6.40625 0q0.03125 1.140625 0.609375 1.78125q0.59375 0.625 1.484375 0.625q0.59375 0 1.0 -0.328125q0.421875 -0.328125 0.625 -1.0625zm0.15625 -2.59375q-0.03125 -1.109375 -0.578125 -1.6875q-0.546875 -0.578125 -1.328125 -0.578125q-0.84375 0 -1.390625 0.609375q-0.546875 0.609375 -0.53125 1.65625l3.828125 0z" fill-rule="nonzero"/><path fill="#666666" d="m239.3877 247.73311l2.625 -0.25q0.234375 1.3125 0.953125 1.9375q0.734375 0.609375 1.96875 0.609375q1.296875 0 1.953125 -0.546875q0.671875 -0.546875 0.671875 -1.28125q0 -0.484375 -0.28125 -0.8125q-0.28125 -0.328125 -0.96875 -0.578125q-0.484375 -0.15625 -2.171875 -0.578125q-2.15625 -0.546875 -3.03125 -1.328125q-1.234375 -1.09375 -1.234375 -2.6875q0 -1.015625 0.578125 -1.90625q0.578125 -0.890625 1.65625 -1.34375q1.09375 -0.46875 2.640625 -0.46875q2.515625 0 3.78125 1.109375q1.28125 1.09375 1.34375 2.9375l-2.703125 0.109375q-0.171875 -1.03125 -0.75 -1.46875q-0.5625 -0.453125 -1.703125 -0.453125q-1.171875 0 -1.84375 0.46875q-0.421875 0.3125 -0.421875 0.84375q0 0.46875 0.40625 0.796875q0.5 0.4375 2.46875 0.90625q1.96875 0.453125 2.90625 0.953125q0.953125 0.5 1.484375 1.359375q0.53125 0.859375 0.53125 2.125q0 1.15625 -0.640625 2.15625q-0.640625 1.0 -1.8125 1.484375q-1.15625 0.484375 -2.890625 0.484375q-2.53125 0 -3.890625 -1.171875q-1.359375 -1.171875 -1.625 -3.40625zm17.552948 -5.328125l0 2.03125l-1.75 0l0 3.90625q0 1.1875 0.046875 1.390625q0.046875 0.1875 0.21875 0.3125q0.1875 0.125 0.4375 0.125q0.359375 0 1.03125 -0.25l0.21875 2.0q-0.890625 0.375 -2.015625 0.375q-0.703125 0 -1.265625 -0.234375q-0.546875 -0.234375 -0.8125 -0.59375q-0.25 -0.375 -0.34375 -1.0q-0.09375 -0.453125 -0.09375 -1.8125l0 -4.21875l-1.171875 0l0 -2.03125l1.171875 0l0 -1.921875l2.578125 -1.5l0 3.421875l1.75 0zm1.181427 4.703125q0 -1.28125 0.625 -2.46875q0.625 -1.203125 1.78125 -1.828125q1.15625 -0.625 2.578125 -0.625q2.1875 0 3.59375 1.421875q1.40625 1.421875 1.40625 3.609375q0 2.1875 -1.421875 3.640625q-1.421875 1.4375 -3.5625 1.4375q-1.328125 0 -2.546875 -0.59375q-1.203125 -0.609375 -1.828125 -1.765625q-0.625 -1.171875 -0.625 -2.828125zm2.625 0.125q0 1.453125 0.671875 2.21875q0.6875 0.75 1.6875 0.75q1.0 0 1.671875 -0.75q0.6875 -0.765625 0.6875 -2.234375q0 -1.421875 -0.6875 -2.1875q-0.671875 -0.765625 -1.671875 -0.765625q-1.0 0 -1.6875 0.765625q-0.671875 0.765625 -0.671875 2.203125zm11.817841 4.84375l-2.5625 0l0 -9.671875l2.375 0l0 1.375q0.609375 -0.984375 1.09375 -1.28125q0.484375 -0.3125 1.109375 -0.3125q0.875 0 1.6875 0.484375l-0.796875 2.234375q-0.640625 -0.421875 -1.203125 -0.421875q-0.53125 0 -0.90625 0.296875q-0.375 0.296875 -0.59375 1.078125q-0.203125 0.765625 -0.203125 3.234375l0 2.984375zm10.400909 -3.078125l2.546875 0.421875q-0.484375 1.40625 -1.546875 2.140625q-1.0625 0.734375 -2.65625 0.734375q-2.515625 0 -3.734375 -1.65625q-0.953125 -1.3125 -0.953125 -3.328125q0 -2.40625 1.25 -3.765625q1.265625 -1.359375 3.1875 -1.359375q2.15625 0 3.40625 1.421875q1.25 1.421875 1.1875 4.375l-6.40625 0q0.03125 1.140625 0.609375 1.78125q0.59375 0.625 1.484375 0.625q0.59375 0 1.0 -0.328125q0.421875 -0.328125 0.625 -1.0625zm0.15625 -2.59375q-0.03125 -1.109375 -0.578125 -1.6875q-0.546875 -0.578125 -1.328125 -0.578125q-0.84375 0 -1.390625 0.609375q-0.546875 0.609375 -0.53125 1.65625l3.828125 0z" fill-rule="nonzero"/><path fill="#d9d9d9" d="m17.12995 204.5381l0 0c0 4.326477 30.747816 7.833786 68.67716 7.833786c37.92935 0 68.67717 -3.507309 68.67717 -7.833786l0 50.915115c0 4.326477 -30.747818 7.8337708 -68.67717 7.8337708c-37.929348 0 -68.67716 -3.5072937 -68.67716 -7.8337708z" fill-rule="evenodd"/><path fill="#e8e8e8" d="m17.12995 204.5381l0 0c0 -4.326477 30.747816 -7.833786 68.67716 -7.833786c37.92935 0 68.67717 3.507309 68.67717 7.833786l0 0c0 4.326477 -30.747818 7.833786 -68.67717 7.833786c-37.929348 0 -68.67716 -3.507309 -68.67716 -7.833786z" fill-rule="evenodd"/><path fill="#000000" fill-opacity="0.0" d="m154.48428 204.5381l0 0c0 4.326477 -30.747818 7.833786 -68.67717 7.833786c-37.929348 0 -68.67716 -3.507309 -68.67716 -7.833786l0 0c0 -4.326477 30.747816 -7.833786 68.67716 -7.833786c37.92935 0 68.67717 3.507309 68.67717 7.833786l0 50.915115c0 4.326477 -30.747818 7.8337708 -68.67717 7.8337708c-37.929348 0 -68.67716 -3.5072937 -68.67716 -7.8337708l0 -50.915115" fill-rule="evenodd"/><path fill="#666666" d="m38.513363 240.83255l0 -13.25l2.6875 0l0 11.0l6.703125 0l0 2.25l-9.390625 0zm13.208481 -6.71875l-2.328125 -0.421875q0.40625 -1.40625 1.359375 -2.078125q0.953125 -0.671875 2.84375 -0.671875q1.703125 0 2.546875 0.40625q0.84375 0.40625 1.171875 1.03125q0.34375 0.625 0.34375 2.28125l-0.015625 3.0q0 1.265625 0.109375 1.875q0.125 0.609375 0.46875 1.296875l-2.53125 0q-0.109375 -0.25 -0.25 -0.75q-0.0625 -0.234375 -0.09375 -0.3125q-0.65625 0.640625 -1.40625 0.96875q-0.734375 0.3125 -1.59375 0.3125q-1.484375 0 -2.34375 -0.8125q-0.859375 -0.8125 -0.859375 -2.046875q0 -0.828125 0.390625 -1.46875q0.390625 -0.640625 1.09375 -0.96875q0.703125 -0.34375 2.03125 -0.609375q1.796875 -0.328125 2.484375 -0.625l0 -0.25q0 -0.75 -0.359375 -1.0625q-0.359375 -0.3125 -1.375 -0.3125q-0.6875 0 -1.078125 0.28125q-0.375 0.265625 -0.609375 0.9375zm3.421875 2.078125q-0.484375 0.15625 -1.5625 0.390625q-1.0625 0.21875 -1.390625 0.4375q-0.5 0.359375 -0.5 0.90625q0 0.53125 0.40625 0.9375q0.40625 0.390625 1.015625 0.390625q0.703125 0 1.328125 -0.46875q0.46875 -0.34375 0.609375 -0.84375q0.09375 -0.328125 0.09375 -1.25l0 -0.5zm4.953842 4.640625l0 -13.359375l2.5625 0l0 7.09375l2.9999962 -3.40625l3.140625 0l-3.296875 3.53125l3.53125 6.140625l-2.75 0l-2.4374962 -4.34375l-1.1875 1.25l0 3.09375l-2.5625 0zm16.063213 -3.078125l2.546875 0.421875q-0.484375 1.40625 -1.546875 2.140625q-1.0625 0.734375 -2.65625 0.734375q-2.515625 0 -3.734375 -1.65625q-0.953125 -1.3125 -0.953125 -3.328125q0 -2.40625 1.25 -3.765625q1.265625 -1.359375 3.1875 -1.359375q2.15625 0 3.40625 1.421875q1.25 1.421875 1.1875 4.375l-6.40625 0q0.03125 1.140625 0.609375 1.78125q0.59375 0.625 1.484375 0.625q0.59375 0 1.0 -0.328125q0.421875 -0.328125 0.625 -1.0625zm0.15625 -2.59375q-0.03125 -1.109375 -0.578125 -1.6875q-0.546875 -0.578125 -1.328125 -0.578125q-0.84375 0 -1.390625 0.609375q-0.546875 0.609375 -0.53125 1.65625l3.828125 0zm7.172592 -7.6875l0 4.921875q1.234375 -1.453125 2.953125 -1.453125q0.890625 0 1.59375 0.328125q0.71875 0.328125 1.078125 0.84375q0.359375 0.5 0.484375 1.125q0.140625 0.609375 0.140625 1.921875l0 5.671875l-2.5625 0l0 -5.109375q0 -1.515625 -0.15625 -1.921875q-0.140625 -0.421875 -0.515625 -0.65625q-0.359375 -0.25 -0.90625 -0.25q-0.640625 0 -1.140625 0.3125q-0.5 0.3125 -0.734375 0.9375q-0.234375 0.625 -0.234375 1.84375l0 4.84375l-2.5625 0l0 -13.359375l2.5625 0zm8.255356 8.390625q0 -1.28125 0.625 -2.46875q0.625 -1.203125 1.78125 -1.828125q1.15625 -0.625 2.578125 -0.625q2.1875 0 3.59375 1.421875q1.40625 1.421875 1.40625 3.609375q0 2.1875 -1.421875 3.640625q-1.421875 1.4375 -3.5625 1.4375q-1.328125 0 -2.546875 -0.59375q-1.203125 -0.609375 -1.828125 -1.765625q-0.625 -1.171875 -0.625 -2.828125zm2.625 0.125q0 1.453125 0.671875 2.21875q0.6875 0.75 1.6875 0.75q1.0 0 1.671875 -0.75q0.6875 -0.765625 0.6875 -2.234375q0 -1.421875 -0.6875 -2.1875q-0.671875 -0.765625 -1.671875 -0.765625q-1.0 0 -1.6875 0.765625q-0.671875 0.765625 -0.671875 2.203125zm15.724106 4.84375l0 -1.453125q-0.53125 0.78125 -1.390625 1.234375q-0.859375 0.4375 -1.8125 0.4375q-0.96875 0 -1.75 -0.421875q-0.765625 -0.4375 -1.125 -1.203125q-0.34375 -0.78125 -0.34375 -2.140625l0 -6.125l2.5625 0l0 4.4375q0 2.046875 0.140625 2.515625q0.140625 0.453125 0.515625 0.71875q0.375 0.265625 0.953125 0.265625q0.65625 0 1.171875 -0.359375q0.515625 -0.359375 0.703125 -0.890625q0.203125 -0.53125 0.203125 -2.609375l0 -4.078125l2.546875 0l0 9.671875l-2.375 0zm4.130356 -2.765625l2.5625 -0.390625q0.171875 0.75 0.671875 1.140625q0.5 0.390625 1.40625 0.390625q0.984375 0 1.484375 -0.375q0.34375 -0.25 0.34375 -0.671875q0 -0.296875 -0.1875 -0.484375q-0.1875 -0.1875 -0.859375 -0.34375q-3.09375 -0.6875 -3.921875 -1.25q-1.140625 -0.78125 -1.140625 -2.171875q0 -1.265625 0.984375 -2.109375q1.0 -0.859375 3.078125 -0.859375q1.984375 0 2.953125 0.65625q0.96875 0.640625 1.328125 1.90625l-2.40625 0.4375q-0.15625 -0.5625 -0.59375 -0.859375q-0.421875 -0.296875 -1.234375 -0.296875q-1.0 0 -1.4375 0.28125q-0.296875 0.203125 -0.296875 0.515625q0 0.265625 0.25 0.46875q0.34375 0.25 2.390625 0.71875q2.046875 0.453125 2.859375 1.140625q0.796875 0.671875 0.796875 1.890625q0 1.34375 -1.109375 2.296875q-1.109375 0.953125 -3.28125 0.953125q-1.984375 0 -3.140625 -0.796875q-1.140625 -0.8125 -1.5 -2.1875zm16.87571 -0.3125l2.546875 0.421875q-0.484375 1.40625 -1.546875 2.140625q-1.0625 0.734375 -2.65625 0.734375q-2.5156174 0 -3.7343674 -1.65625q-0.953125 -1.3125 -0.953125 -3.328125q0 -2.40625 1.25 -3.765625q1.265625 -1.359375 3.1874924 -1.359375q2.15625 0 3.40625 1.421875q1.25 1.421875 1.1875 4.375l-6.4062424 0q0.03125 1.140625 0.609375 1.78125q0.5937424 0.625 1.4843674 0.625q0.59375 0 1.0 -0.328125q0.421875 -0.328125 0.625 -1.0625zm0.15625 -2.59375q-0.03125 -1.109375 -0.578125 -1.6875q-0.546875 -0.578125 -1.328125 -0.578125q-0.84375 0 -1.3906174 0.609375q-0.546875 0.609375 -0.53125 1.65625l3.8281174 0z" fill-rule="nonzero"/><path fill="#ffffff" d="m17.131233 268.49344l220.27274 0l11.097336 11.097321l0 55.48535l0 0l-220.27274 0l-11.097336 -11.097321l0 -55.48535z" fill-rule="evenodd"/><path stroke="#a794ff" stroke-width="1.0" stroke-linejoin="round" stroke-linecap="butt" d="m17.131233 268.49344l220.27274 0l11.097336 11.097321l0 55.48535l0 0l-220.27274 0l-11.097336 -11.097321l0 -55.48535z" fill-rule="evenodd"/><path fill="#a794ff" d="m49.827995 308.98477l0 -14.3125l2.8125 0l5.859375 9.5625l0 -9.5625l2.6875 0l0 14.3125l-2.90625 0l-5.765625 -9.34375l0 9.34375l-2.6875 0zm13.755859 -5.328125q0 -1.375 0.671875 -2.65625q0.6875 -1.28125 1.921875 -1.953125q1.234375 -0.671875 2.75 -0.671875q2.359375 0 3.859375 1.53125q1.5 1.53125 1.5 3.859375q0 2.359375 -1.515625 3.90625q-1.515625 1.546875 -3.828125 1.546875q-1.421875 0 -2.71875 -0.640625q-1.28125 -0.65625 -1.96875 -1.890625q-0.671875 -1.25 -0.671875 -3.03125zm2.8125 0.140625q0 1.546875 0.734375 2.375q0.734375 0.8125 1.8125 0.8125q1.078125 0 1.796875 -0.8125q0.734375 -0.828125 0.734375 -2.390625q0 -1.53125 -0.734375 -2.34375q-0.71875 -0.828125 -1.796875 -0.828125q-1.078125 0 -1.8125 0.828125q-0.734375 0.8125 -0.734375 2.359375zm14.794922 -5.1875l0 2.1875l-1.875 0l0 4.1875q0 1.265625 0.046875 1.484375q0.0625 0.203125 0.25 0.34375q0.203125 0.125 0.46875 0.125q0.375 0 1.109375 -0.265625l0.234375 2.140625q-0.96875 0.40625 -2.171875 0.40625q-0.75 0 -1.34375 -0.25q-0.59375 -0.25 -0.875 -0.640625q-0.265625 -0.40625 -0.375 -1.078125q-0.09375 -0.46875 -0.09375 -1.921875l0 -4.53125l-1.265625 0l0 -2.1875l1.265625 0l0 -2.0625l2.75 -1.59375l0 3.65625l1.875 0zm7.9101562 7.078125l2.734375 0.453125q-0.515625 1.5 -1.65625 2.296875q-1.140625 0.78125 -2.84375 0.78125q-2.71875 0 -4.015625 -1.765625q-1.015625 -1.421875 -1.015625 -3.578125q0 -2.578125 1.34375 -4.03125q1.34375 -1.46875 3.40625 -1.46875q2.3125 0 3.640625 1.53125q1.34375 1.53125 1.296875 4.6875l-6.875 0q0.03125 1.21875 0.65625 1.90625q0.640625 0.671875 1.578125 0.671875q0.65625 0 1.09375 -0.34375q0.4375 -0.359375 0.65625 -1.140625zm0.15625 -2.78125q-0.03125 -1.1875 -0.625 -1.796875q-0.578125 -0.625 -1.40625 -0.625q-0.90625 0 -1.484375 0.640625q-0.59375 0.65625 -0.578125 1.78125l4.09375 0zm4.841797 6.078125l0 -14.3125l2.75 0l0 5.15625q1.265625 -1.453125 3.015625 -1.453125q1.890625 0 3.125 1.375q1.25 1.375 1.25 3.9375q0 2.65625 -1.265625 4.09375q-1.265625 1.4375 -3.078125 1.4375q-0.890625 0 -1.75 -0.4375q-0.859375 -0.453125 -1.484375 -1.328125l0 1.53125l-2.5625 0zm2.734375 -5.40625q0 1.609375 0.5 2.375q0.71875 1.09375 1.90625 1.09375q0.90625 0 1.546875 -0.765625q0.640625 -0.78125 0.640625 -2.453125q0 -1.78125 -0.65625 -2.5625q-0.640625 -0.78125 -1.640625 -0.78125q-0.984375 0 -1.640625 0.765625q-0.65625 0.765625 -0.65625 2.328125zm8.966797 0.078125q0 -1.375 0.671875 -2.65625q0.6875 -1.28125 1.921875 -1.953125q1.234375 -0.671875 2.75 -0.671875q2.359375 0 3.859375 1.53125q1.5 1.53125 1.5 3.859375q0 2.359375 -1.515625 3.90625q-1.515625 1.546875 -3.828125 1.546875q-1.421875 0 -2.71875 -0.640625q-1.28125 -0.65625 -1.96875 -1.890625q-0.671875 -1.25 -0.671875 -3.03125zm2.8125 0.140625q0 1.546875 0.734375 2.375q0.734375 0.8125 1.8125 0.8125q1.078125 0 1.796875 -0.8125q0.734375 -0.828125 0.734375 -2.390625q0 -1.53125 -0.734375 -2.34375q-0.71875 -0.828125 -1.796875 -0.828125q-1.078125 0 -1.8125 0.828125q-0.734375 0.8125 -0.734375 2.359375zm9.404297 -0.140625q0 -1.375 0.671875 -2.65625q0.6875 -1.28125 1.921875 -1.953125q1.234375 -0.671875 2.75 -0.671875q2.359375 0 3.859375 1.53125q1.4999924 1.53125 1.4999924 3.859375q0 2.359375 -1.5156174 3.90625q-1.515625 1.546875 -3.828125 1.546875q-1.421875 0 -2.71875 -0.640625q-1.28125 -0.65625 -1.96875 -1.890625q-0.671875 -1.25 -0.671875 -3.03125zm2.8125 0.140625q0 1.546875 0.734375 2.375q0.734375 0.8125 1.8125 0.8125q1.078125 0 1.796875 -0.8125q0.734375 -0.828125 0.734375 -2.390625q0 -1.53125 -0.734375 -2.34375q-0.71875 -0.828125 -1.796875 -0.828125q-1.078125 0 -1.8125 0.828125q-0.734375 0.8125 -0.734375 2.359375zm9.951164 5.1875l0 -14.3125l2.734375 0l0 7.59375l3.21875 -3.65625l3.375 0l-3.546875 3.796875l3.796875 6.578125l-2.953125 0l-2.609375 -4.65625l-1.28125 1.328125l0 3.328125l-2.734375 0zm16.054688 -4.65625l2.8125 -0.28125q0.265625 1.421875 1.03125 2.09375q0.78126526 0.65625 2.0937653 0.65625q1.40625 0 2.109375 -0.59375q0.703125 -0.59375 0.703125 -1.375q0 -0.515625 -0.296875 -0.859375q-0.296875 -0.359375 -1.03125 -0.625q-0.515625 -0.1875 -2.3125 -0.625q-2.3281403 -0.578125 -3.2656403 -1.421875q-1.328125 -1.1875 -1.328125 -2.875q0 -1.09375 0.625 -2.046875q0.625 -0.953125 1.78125 -1.453125q1.1718903 -0.5 2.8281403 -0.5q2.6875 0 4.046875 1.1875q1.375 1.171875 1.4375 3.15625l-2.890625 0.125q-0.1875 -1.109375 -0.796875 -1.59375q-0.609375 -0.484375 -1.828125 -0.484375q-1.265625 0 -1.9687653 0.515625q-0.46875 0.34375 -0.46875 0.890625q0 0.515625 0.4375 0.875q0.54689026 0.453125 2.6562653 0.953125q2.109375 0.5 3.109375 1.03125q1.015625 0.53125 1.578125 1.453125q0.578125 0.921875 0.578125 2.28125q0 1.234375 -0.6875 2.3125q-0.671875 1.0625 -1.921875 1.59375q-1.25 0.515625 -3.125 0.515625q-2.7031403 0 -4.1718903 -1.25q-1.453125 -1.25 -1.734375 -3.65625zm20.058609 1.359375l2.734375 0.453125q-0.515625 1.5 -1.65625 2.296875q-1.140625 0.78125 -2.84375 0.78125q-2.71875 0 -4.015625 -1.765625q-1.015625 -1.421875 -1.015625 -3.578125q0 -2.578125 1.34375 -4.03125q1.34375 -1.46875 3.40625 -1.46875q2.3125 0 3.640625 1.53125q1.34375 1.53125 1.296875 4.6875l-6.875 0q0.03125 1.21875 0.65625 1.90625q0.640625 0.671875 1.578125 0.671875q0.65625 0 1.09375 -0.34375q0.4375 -0.359375 0.65625 -1.140625zm0.15625 -2.78125q-0.03125 -1.1875 -0.625 -1.796875q-0.578125 -0.625 -1.40625 -0.625q-0.90625 0 -1.484375 0.640625q-0.59375 0.65625 -0.578125 1.78125l4.09375 0zm7.591797 6.078125l-2.75 0l0 -10.375l2.5625 0l0 1.484375q0.640625 -1.046875 1.15625 -1.375q0.53125 -0.34375 1.203125 -0.34375q0.9375 0 1.796875 0.515625l-0.84375 2.390625q-0.6875 -0.4375 -1.28125 -0.4375q-0.578125 0 -0.984375 0.3125q-0.40625 0.3125 -0.640625 1.15625q-0.21875 0.828125 -0.21875 3.46875l0 3.203125zm8.001953 0l-4.171875 -10.375l2.875 0l1.953125 5.296875l0.578125 1.765625q0.21875 -0.671875 0.28125 -0.890625q0.125 -0.4375 0.28125 -0.875l1.984375 -5.296875l2.8125 0l-4.109375 10.375l-2.484375 0zm8.279297 -11.78125l0 -2.53125l2.75 0l0 2.53125l-2.75 0zm0 11.78125l0 -10.375l2.75 0l0 10.375l-2.75 0zm14.603516 -7.3125l-2.703125 0.5q-0.140625 -0.8125 -0.625 -1.21875q-0.484375 -0.421875 -1.25 -0.421875q-1.03125 0 -1.640625 0.71875q-0.609375 0.703125 -0.609375 2.359375q0 1.84375 0.609375 2.609375q0.625 0.765625 1.671875 0.765625q0.78125 0 1.28125 -0.4375q0.5 -0.453125 0.703125 -1.53125l2.6875 0.453125q-0.40625 1.859375 -1.609375 2.8125q-1.1875 0.9375 -3.1875 0.9375q-2.28125 0 -3.640625 -1.4375q-1.34375 -1.4375 -1.34375 -3.96875q0 -2.578125 1.359375 -4.0q1.359375 -1.4375 3.671875 -1.4375q1.890625 0 3.0 0.828125q1.125 0.8125 1.625 2.46875zm8.076172 4.015625l2.734375 0.453125q-0.515625 1.5 -1.65625 2.296875q-1.140625 0.78125 -2.84375 0.78125q-2.71875 0 -4.015625 -1.765625q-1.015625 -1.421875 -1.015625 -3.578125q0 -2.578125 1.34375 -4.03125q1.34375 -1.46875 3.40625 -1.46875q2.3125 0 3.640625 1.53125q1.34375 1.53125 1.296875 4.6875l-6.875 0q0.03125 1.21875 0.65625 1.90625q0.640625 0.671875 1.578125 0.671875q0.65625 0 1.09375 -0.34375q0.4375 -0.359375 0.65625 -1.140625zm0.15625 -2.78125q-0.03125 -1.1875 -0.625 -1.796875q-0.578125 -0.625 -1.40625 -0.625q-0.90625 0 -1.484375 0.640625q-0.59375 0.65625 -0.578125 1.78125l4.09375 0z" fill-rule="nonzero"/><path fill="#ffffff" d="m275.79266 268.49344l236.74518 0l11.097351 11.097321l0 55.48535l0 0l-236.74521 0l-11.097321 -11.097321l0 -55.48535z" fill-rule="evenodd"/><path stroke="#a794ff" stroke-width="1.0" stroke-linejoin="round" stroke-linecap="butt" d="m275.79266 268.49344l236.74518 0l11.097351 11.097321l0 55.48535l0 0l-236.74521 0l-11.097321 -11.097321l0 -55.48535z" fill-rule="evenodd"/><path fill="#a794ff" d="m337.43265 294.67227l2.875 0l0 9.0625q0 1.765625 -0.3125 2.734375q-0.421875 1.25 -1.53125 2.015625q-1.09375 0.75 -2.90625 0.75q-2.109375 0 -3.25 -1.1875q-1.140625 -1.1875 -1.15625 -3.484375l2.71875 -0.3125q0.046875 1.234375 0.359375 1.734375q0.46875 0.765625 1.4375 0.765625q0.96875 0 1.359375 -0.546875q0.40625 -0.546875 0.40625 -2.28125l0 -9.25zm5.294922 8.984375q0 -1.375 0.671875 -2.65625q0.6875 -1.28125 1.921875 -1.953125q1.234375 -0.671875 2.75 -0.671875q2.359375 0 3.859375 1.53125q1.5 1.53125 1.5 3.859375q0 2.359375 -1.515625 3.90625q-1.515625 1.546875 -3.828125 1.546875q-1.421875 0 -2.71875 -0.640625q-1.28125 -0.65625 -1.96875 -1.890625q-0.671875 -1.25 -0.671875 -3.03125zm2.8125 0.140625q0 1.546875 0.734375 2.375q0.734375 0.8125 1.8125 0.8125q1.078125 0 1.796875 -0.8125q0.734375 -0.828125 0.734375 -2.390625q0 -1.53125 -0.734375 -2.34375q-0.71875 -0.828125 -1.796875 -0.828125q-1.078125 0 -1.8125 0.828125q-0.734375 0.8125 -0.734375 2.359375zm9.919922 5.1875l0 -14.3125l2.75 0l0 5.15625q1.265625 -1.453125 3.015625 -1.453125q1.890625 0 3.125 1.375q1.25 1.375 1.25 3.9375q0 2.65625 -1.265625 4.09375q-1.265625 1.4375 -3.078125 1.4375q-0.890625 0 -1.75 -0.4375q-0.859375 -0.453125 -1.484375 -1.328125l0 1.53125l-2.5625 0zm2.734375 -5.40625q0 1.609375 0.5 2.375q0.71875 1.09375 1.90625 1.09375q0.90625 0 1.546875 -0.765625q0.640625 -0.78125 0.640625 -2.453125q0 -1.78125 -0.65625 -2.5625q-0.640625 -0.78125 -1.640625 -0.78125q-0.984375 0 -1.640625 0.765625q-0.65625 0.765625 -0.65625 2.328125zm14.4453125 0.75l2.8125 -0.28125q0.265625 1.421875 1.03125 2.09375q0.78125 0.65625 2.09375 0.65625q1.40625 0 2.109375 -0.59375q0.703125 -0.59375 0.703125 -1.375q0 -0.515625 -0.296875 -0.859375q-0.296875 -0.359375 -1.03125 -0.625q-0.515625 -0.1875 -2.3125 -0.625q-2.328125 -0.578125 -3.265625 -1.421875q-1.328125 -1.1875 -1.328125 -2.875q0 -1.09375 0.625 -2.046875q0.625 -0.953125 1.78125 -1.453125q1.171875 -0.5 2.828125 -0.5q2.6875 0 4.046875 1.1875q1.375 1.171875 1.4375 3.15625l-2.890625 0.125q-0.1875 -1.109375 -0.796875 -1.59375q-0.609375 -0.484375 -1.828125 -0.484375q-1.265625 0 -1.96875 0.515625q-0.46875 0.34375 -0.46875 0.890625q0 0.515625 0.4375 0.875q0.546875 0.453125 2.65625 0.953125q2.109375 0.5 3.109375 1.03125q1.015625 0.53125 1.578125 1.453125q0.578125 0.921875 0.578125 2.28125q0 1.234375 -0.6875 2.3125q-0.671875 1.0625 -1.921875 1.59375q-1.25 0.515625 -3.125 0.515625q-2.703125 0 -4.171875 -1.25q-1.453125 -1.25 -1.734375 -3.65625zm23.105469 -2.65625l-2.703125 0.5q-0.140625 -0.8125 -0.625 -1.21875q-0.484375 -0.421875 -1.25 -0.421875q-1.03125 0 -1.640625 0.71875q-0.609375 0.703125 -0.609375 2.359375q0 1.84375 0.609375 2.609375q0.625 0.765625 1.671875 0.765625q0.78125 0 1.28125 -0.4375q0.5 -0.453125 0.703125 -1.53125l2.6875 0.453125q-0.40625 1.859375 -1.609375 2.8125q-1.1875 0.9375 -3.1875 0.9375q-2.28125 0 -3.640625 -1.4375q-1.34375 -1.4375 -1.34375 -3.96875q0 -2.578125 1.359375 -4.0q1.359375 -1.4375 3.671875 -1.4375q1.890625 0 3.0 0.828125q1.125 0.8125 1.625 2.46875zm4.810547 -7.0l0 5.265625q1.328125 -1.5625 3.171875 -1.5625q0.953125 0 1.703125 0.359375q0.765625 0.34375 1.15625 0.890625q0.390625 0.546875 0.53125 1.21875q0.140625 0.65625 0.140625 2.0625l0 6.078125l-2.75 0l0 -5.484375q0 -1.625 -0.15625 -2.0625q-0.15625 -0.4375 -0.5625 -0.6875q-0.390625 -0.265625 -0.984375 -0.265625q-0.671875 0 -1.21875 0.328125q-0.53125 0.328125 -0.78125 1.0q-0.25 0.671875 -0.25 1.96875l0 5.203125l-2.75 0l0 -14.3125l2.75 0zm15.482422 11.015625l2.734375 0.453125q-0.515625 1.5 -1.65625 2.296875q-1.140625 0.78125 -2.84375 0.78125q-2.71875 0 -4.015625 -1.765625q-1.015625 -1.421875 -1.015625 -3.578125q0 -2.578125 1.34375 -4.03125q1.34375 -1.46875 3.40625 -1.46875q2.3125 0 3.640625 1.53125q1.34375 1.53125 1.296875 4.6875l-6.875 0q0.03125 1.21875 0.65625 1.90625q0.640625 0.671875 1.578125 0.671875q0.65625 0 1.09375 -0.34375q0.4375 -0.359375 0.65625 -1.140625zm0.15625 -2.78125q-0.03125 -1.1875 -0.625 -1.796875q-0.578125 -0.625 -1.40625 -0.625q-0.90625 0 -1.484375 0.640625q-0.59375 0.65625 -0.578125 1.78125l4.09375 0zm14.482422 6.078125l-2.546875 0l0 -1.53125q-0.640625 0.890625 -1.515625 1.328125q-0.859375 0.4375 -1.734375 0.4375q-1.78125 0 -3.0625 -1.4375q-1.265625 -1.4375 -1.265625 -4.015625q0 -2.640625 1.234375 -4.015625q1.234375 -1.375 3.140625 -1.375q1.734375 0 3.0 1.453125l0 -5.15625l2.75 0l0 14.3125zm-7.328125 -5.40625q0 1.65625 0.453125 2.390625q0.671875 1.078125 1.859375 1.078125q0.953125 0 1.609375 -0.796875q0.671875 -0.8125 0.671875 -2.40625q0 -1.796875 -0.65625 -2.578125q-0.640625 -0.78125 -1.640625 -0.78125q-0.984375 0 -1.640625 0.78125q-0.65625 0.765625 -0.65625 2.3125zm16.857422 5.40625l0 -1.546875q-0.5625 0.828125 -1.5 1.3125q-0.921875 0.46875 -1.9375 0.46875q-1.046875 0 -1.875 -0.453125q-0.828125 -0.46875 -1.203125 -1.296875q-0.375 -0.828125 -0.375 -2.296875l0 -6.5625l2.75 0l0 4.765625q0 2.1875 0.140625 2.6875q0.15625 0.484375 0.546875 0.78125q0.40625 0.28125 1.03125 0.28125q0.703125 0 1.25 -0.375q0.5625 -0.390625 0.765625 -0.953125q0.203125 -0.578125 0.203125 -2.8125l0 -4.375l2.75 0l0 10.375l-2.546875 0zm5.388672 0l0 -14.3125l2.75 0l0 14.3125l-2.75 0zm11.556641 -3.296875l2.734375 0.453125q-0.515625 1.5 -1.65625 2.296875q-1.140625 0.78125 -2.84375 0.78125q-2.71875 0 -4.015625 -1.765625q-1.015625 -1.421875 -1.015625 -3.578125q0 -2.578125 1.34375 -4.03125q1.34375 -1.46875 3.40625 -1.46875q2.3125 0 3.640625 1.53125q1.34375 1.53125 1.296875 4.6875l-6.875 0q0.03125 1.21875 0.65625 1.90625q0.640625 0.671875 1.578125 0.671875q0.65625 0 1.09375 -0.34375q0.4375 -0.359375 0.65625 -1.140625zm0.15625 -2.78125q-0.03125 -1.1875 -0.625 -1.796875q-0.578125 -0.625 -1.40625 -0.625q-0.90625 0 -1.484375 0.640625q-0.59375 0.65625 -0.578125 1.78125l4.09375 0zm7.591797 6.078125l-2.75 0l0 -10.375l2.5625 0l0 1.484375q0.640625 -1.046875 1.15625 -1.375q0.53125 -0.34375 1.203125 -0.34375q0.9375 0 1.796875 0.515625l-0.84375 2.390625q-0.6875 -0.4375 -1.28125 -0.4375q-0.578125 0 -0.984375 0.3125q-0.40625 0.3125 -0.640625 1.15625q-0.21875 0.828125 -0.21875 3.46875l0 3.203125z" fill-rule="nonzero"/></g></svg>