<svg version="1.1" viewBox="0.0 0.0 416.09186351706035 196.82677165354332" fill="none" stroke="none" stroke-linecap="square" stroke-miterlimit="10" xmlns:xlink="http://www.w3.org/1999/xlink" xmlns="http://www.w3.org/2000/svg"><clipPath id="p.0"><path d="m0 0l416.09186 0l0 196.82677l-416.09186 0l0 -196.82677z" clip-rule="nonzero"/></clipPath><g clip-path="url(#p.0)"><path fill="#000000" fill-opacity="0.0" d="m0 0l416.09186 0l0 196.82677l-416.09186 0z" fill-rule="evenodd"/><g filter="url(#shadowFilter-p.1)"><use xlink:href="#p.1" transform="matrix(1.0 0.0 0.0 1.0 0.0 2.0)"/></g><defs><filter id="shadowFilter-p.1" filterUnits="userSpaceOnUse"><feGaussianBlur in="SourceAlpha" stdDeviation="20.0" result="blur"/><feComponentTransfer in="blur" color-interpolation-filters="sRGB"><feFuncR type="linear" slope="0" intercept="0.0"/><feFuncG type="linear" slope="0" intercept="0.0"/><feFuncB type="linear" slope="0" intercept="0.0"/><feFuncA type="linear" slope="0.15" intercept="0"/></feComponentTransfer></filter></defs><g id="p.1"><path fill="#ecf8fd" d="m8.000894 102.79756l0 0c0 -1.7490997 1.4179306 -3.1670303 3.167036 -3.1670303l80.56884 0c0.83995056 0 1.6454926 0.33366394 2.2394333 0.92759705c0.5939331 0.59394073 0.92759705 1.3994827 0.92759705 2.2394333l0 35.624542c0 1.7490997 -1.4179306 3.167038 -3.1670303 3.167038l-80.56884 0c-1.7491055 0 -3.167036 -1.4179382 -3.167036 -3.167038z" fill-rule="evenodd"/><path stroke="#028cf0" stroke-width="1.0" stroke-linejoin="round" stroke-linecap="butt" d="m8.000894 102.79756l0 0c0 -1.7490997 1.4179306 -3.1670303 3.167036 -3.1670303l80.56884 0c0.83995056 0 1.6454926 0.33366394 2.2394333 0.92759705c0.5939331 0.59394073 0.92759705 1.3994827 0.92759705 2.2394333l0 35.624542c0 1.7490997 -1.4179306 3.167038 -3.1670303 3.167038l-80.56884 0c-1.7491055 0 -3.167036 -1.4179382 -3.167036 -3.167038z" fill-rule="evenodd"/><path fill="#000000" d="m35.411583 125.12984l0 -7.578125l-2.515625 0l0 -0.828125l6.03125 0l0 0.828125l-2.515625 0l0 7.578125l-1.0 0zm4.0047913 0l0 -5.953125l0.90625 0l0.09375 1.140625q0.265625 -0.59375 0.828125 -0.9375q0.578125 -0.34375 1.40625 -0.34375l0 1.046875l-0.28125 0q-0.53125 0 -0.984375 0.1875q-0.4375 0.1875 -0.703125 0.640625q-0.25 0.4375 -0.25 1.21875l0 3.0l-1.015625 0zm6.3404083 0.140625q-0.75 0 -1.25 -0.25q-0.484375 -0.25 -0.734375 -0.671875q-0.234375 -0.421875 -0.234375 -0.90625q0 -0.921875 0.6875 -1.40625q0.703125 -0.5 1.90625 -0.5l1.609375 0l0 -0.0625q0 -0.78125 -0.40625 -1.1875q-0.40625 -0.40625 -1.09375 -0.40625q-0.578125 0 -1.015625 0.296875q-0.421875 0.296875 -0.53125 0.859375l-1.03125 0q0.0625 -0.640625 0.4375 -1.078125q0.375 -0.453125 0.9375 -0.6875q0.5625 -0.234375 1.203125 -0.234375q1.25 0 1.875 0.671875q0.640625 0.65625 0.640625 1.765625l0 3.65625l-0.90625 0l-0.0625 -1.0625q-0.25 0.5 -0.734375 0.859375q-0.484375 0.34375 -1.296875 0.34375zm0.15625 -0.84375q0.578125 0 0.984375 -0.296875q0.421875 -0.3125 0.625 -0.78125q0.21875 -0.484375 0.21875 -1.015625l0 -0.015625l-1.515625 0q-0.890625 0 -1.265625 0.3125q-0.359375 0.296875 -0.359375 0.765625q0 0.46875 0.34375 0.75q0.34375 0.28125 0.96875 0.28125zm4.9608 -6.5625q-0.296875 0 -0.5 -0.203125q-0.1875 -0.203125 -0.1875 -0.5q0 -0.28125 0.1875 -0.46875q0.203125 -0.203125 0.5 -0.203125q0.296875 0 0.5 0.203125q0.203125 0.1875 0.203125 0.46875q0 0.296875 -0.203125 0.5q-0.203125 0.203125 -0.5 0.203125zm-0.5 7.265625l0 -5.953125l1.0 0l0 5.953125l-1.0 0zm2.7586517 0l0 -5.953125l0.90625 0l0.0625 1.0625q0.296875 -0.5625 0.828125 -0.875q0.546875 -0.328125 1.234375 -0.328125q1.046875 0 1.671875 0.640625q0.640625 0.640625 0.640625 1.96875l0 3.484375l-1.015625 0l0 -3.375q0 -1.859375 -1.53125 -1.859375q-0.765625 0 -1.28125 0.5625q-0.5 0.5625 -0.5 1.59375l0 3.078125l-1.015625 0zm9.535919 0.140625q-0.84375 0 -1.515625 -0.390625q-0.65625 -0.390625 -1.03125 -1.078125q-0.375 -0.703125 -0.375 -1.640625q0 -0.9375 0.359375 -1.640625q0.375 -0.703125 1.046875 -1.09375q0.671875 -0.390625 1.546875 -0.390625q0.859375 0 1.484375 0.390625q0.640625 0.390625 0.96875 1.03125q0.34375 0.625 0.34375 1.359375q0 0.125 -0.015625 0.265625q0 0.125 0 0.296875l-4.734375 0q0.03125 0.6875 0.3125 1.140625q0.28125 0.453125 0.703125 0.6875q0.4375 0.21875 0.90625 0.21875q0.625 0 1.046875 -0.28125q0.421875 -0.296875 0.609375 -0.796875l1.0 0q-0.234375 0.828125 -0.921875 1.375q-0.671875 0.546875 -1.734375 0.546875zm0 -5.390625q-0.71875 0 -1.28125 0.4375q-0.546875 0.4375 -0.640625 1.28125l3.75 0q-0.03125 -0.796875 -0.546875 -1.25q-0.515625 -0.46875 -1.28125 -0.46875zm4.1561737 5.25l0 -5.953125l0.90625 0l0.09375 1.140625q0.265625 -0.59375 0.828125 -0.9375q0.578125 -0.34375 1.40625 -0.34375l0 1.046875l-0.28125 0q-0.53125 0 -0.984375 0.1875q-0.4375 0.1875 -0.703125 0.640625q-0.25 0.4375 -0.25 1.21875l0 3.0l-1.015625 0z" fill-rule="nonzero"/></g><path fill="#000000" fill-opacity="0.0" d="m94.9038 120.60983l117.311516 0" fill-rule="evenodd"/><path stroke="#028cf0" stroke-width="2.0" stroke-linejoin="round" stroke-linecap="butt" d="m102.4838 120.60983l97.73153 0" fill-rule="evenodd"/><path fill="#028cf0" stroke="#028cf0" stroke-width="2.0" stroke-linecap="butt" d="m102.4838 123.89983l-6.580002 0l0 -6.579994l6.580002 0l0 6.579994z" fill-rule="nonzero"/><path fill="#028cf0" stroke="#028cf0" stroke-width="2.0" stroke-linecap="butt" d="m200.21533 123.9133l9.076187 -3.3034668l-9.076187 -3.3034592z" fill-rule="evenodd"/><g filter="url(#shadowFilter-p.2)"><use xlink:href="#p.2" transform="matrix(1.0 0.0 0.0 1.0 0.0 2.0)"/></g><defs><filter id="shadowFilter-p.2" filterUnits="userSpaceOnUse"><feGaussianBlur in="SourceAlpha" stdDeviation="20.0" result="blur"/><feComponentTransfer in="blur" color-interpolation-filters="sRGB"><feFuncR type="linear" slope="0" intercept="0.0"/><feFuncG type="linear" slope="0" intercept="0.0"/><feFuncB type="linear" slope="0" intercept="0.0"/><feFuncA type="linear" slope="0.15" intercept="0"/></feComponentTransfer></filter></defs><g id="p.2"><path fill="#ecf8fd" d="m214.48177 60.83895l0 0c0 -1.7491035 1.417923 -3.1670341 3.167038 -3.1670341l80.56885 0c0.8399353 0 1.6454773 0.33366776 2.2394104 0.9276047c0.5939331 0.5939331 0.9276123 1.3994827 0.9276123 2.2394295l0 35.624542c0 1.7491074 -1.4179382 3.167038 -3.1670227 3.167038l-80.56885 0c-1.749115 0 -3.167038 -1.4179306 -3.167038 -3.167038z" fill-rule="evenodd"/><path stroke="#028cf0" stroke-width="1.0" stroke-linejoin="round" stroke-linecap="butt" d="m214.48177 60.83895l0 0c0 -1.7491035 1.417923 -3.1670341 3.167038 -3.1670341l80.56885 0c0.8399353 0 1.6454773 0.33366776 2.2394104 0.9276047c0.5939331 0.5939331 0.9276123 1.3994827 0.9276123 2.2394295l0 35.624542c0 1.7491074 -1.4179382 3.167038 -3.1670227 3.167038l-80.56885 0c-1.749115 0 -3.167038 -1.4179306 -3.167038 -3.167038z" fill-rule="evenodd"/><path fill="#000000" d="m225.01874 83.186844l-2.296875 -8.421875l1.078125 0l1.8125 7.21875l2.0625 -7.21875l1.125 0l2.0 7.21875l1.828125 -7.21875l1.078125 0l-2.34375 8.40625l-1.15625 0l-2.0 -6.9375l-2.046875 6.9375l-1.140625 0.015625zm11.929581 0.125q-0.84375 0 -1.515625 -0.375q-0.671875 -0.390625 -1.0625 -1.09375q-0.390625 -0.703125 -0.390625 -1.640625q0 -0.953125 0.390625 -1.65625q0.40625 -0.703125 1.078125 -1.078125q0.671875 -0.390625 1.515625 -0.390625q0.84375 0 1.515625 0.390625q0.671875 0.375 1.0625 1.078125q0.390625 0.703125 0.390625 1.65625q0 0.9375 -0.40625 1.640625q-0.390625 0.703125 -1.078125 1.09375q-0.671875 0.375 -1.5 0.375zm0 -0.859375q0.515625 0 0.953125 -0.25q0.4375 -0.25 0.71875 -0.75q0.28125 -0.515625 0.28125 -1.25q0 -0.75 -0.28125 -1.25q-0.265625 -0.515625 -0.71875 -0.765625q-0.4375 -0.25 -0.9375 -0.25q-0.515625 0 -0.96875 0.25q-0.4375 0.25 -0.71875 0.765625q-0.265625 0.5 -0.265625 1.25q0 0.734375 0.265625 1.25q0.28125 0.5 0.71875 0.75q0.4375 0.25 0.953125 0.25zm4.3852997 0.71875l0 -5.953125l0.90625 0l0.09375 1.140625q0.265625 -0.59375 0.828125 -0.9375q0.578125 -0.34375 1.40625 -0.34375l0 1.046875l-0.28125 0q-0.53125 0 -0.984375 0.1875q-0.4375 0.1875 -0.703125 0.640625q-0.25 0.4375 -0.25 1.21875l0 3.0l-1.015625 0zm4.3560333 0l0 -8.640625l1.015625 0l0 5.203125l2.421875 -2.515625l1.25 0l-2.640625 2.6875l2.96875 3.265625l-1.28125 0l-2.71875 -3.078125l0 3.078125l-1.015625 0zm8.287918 0.140625q-0.84375 0 -1.515625 -0.390625q-0.65625 -0.390625 -1.03125 -1.078125q-0.375 -0.703125 -0.375 -1.640625q0 -0.9375 0.359375 -1.640625q0.375 -0.703125 1.046875 -1.09375q0.671875 -0.390625 1.546875 -0.390625q0.859375 0 1.484375 0.390625q0.640625 0.390625 0.96875 1.03125q0.34375 0.625 0.34375 1.359375q0 0.125 -0.015625 0.265625q0 0.125 0 0.296875l-4.734375 0q0.03125 0.6875 0.3125 1.140625q0.28125 0.453125 0.703125 0.6875q0.4375 0.21875 0.90625 0.21875q0.625 0 1.046875 -0.28125q0.421875 -0.296875 0.609375 -0.796875l1.0 0q-0.234375 0.828125 -0.921875 1.375q-0.671875 0.546875 -1.734375 0.546875zm0 -5.390625q-0.71875 0 -1.28125 0.4375q-0.546875 0.4375 -0.640625 1.28125l3.75 0q-0.03125 -0.796875 -0.546875 -1.25q-0.515625 -0.46875 -1.28125 -0.46875zm4.1561584 5.25l0 -5.953125l0.90625 0l0.09375 1.140625q0.265625 -0.59375 0.828125 -0.9375q0.578125 -0.34375 1.40625 -0.34375l0 1.046875l-0.28125 0q-0.53125 0 -0.984375 0.1875q-0.4375 0.1875 -0.703125 0.640625q-0.25 0.4375 -0.25 1.21875l0 3.0l-1.015625 0z" fill-rule="nonzero"/></g><g filter="url(#shadowFilter-p.3)"><use xlink:href="#p.3" transform="matrix(1.0 0.0 0.0 1.0 0.0 2.0)"/></g><defs><filter id="shadowFilter-p.3" filterUnits="userSpaceOnUse"><feGaussianBlur in="SourceAlpha" stdDeviation="20.0" result="blur"/><feComponentTransfer in="blur" color-interpolation-filters="sRGB"><feFuncR type="linear" slope="0" intercept="0.0"/><feFuncG type="linear" slope="0" intercept="0.0"/><feFuncB type="linear" slope="0" intercept="0.0"/><feFuncA type="linear" slope="0.15" intercept="0"/></feComponentTransfer></filter></defs><g id="p.3"><path fill="#ecf8fd" d="m214.48177 144.75618l0 0c0 -1.749115 1.417923 -3.167038 3.167038 -3.167038l80.56885 0c0.8399353 0 1.6454773 0.33366394 2.2394104 0.92759705c0.5939331 0.5939331 0.9276123 1.3994904 0.9276123 2.239441l0 35.624527c0 1.749115 -1.4179382 3.167038 -3.1670227 3.167038l-80.56885 0c-1.749115 0 -3.167038 -1.417923 -3.167038 -3.167038z" fill-rule="evenodd"/><path stroke="#028cf0" stroke-width="1.0" stroke-linejoin="round" stroke-linecap="butt" d="m214.48177 144.75618l0 0c0 -1.749115 1.417923 -3.167038 3.167038 -3.167038l80.56885 0c0.8399353 0 1.6454773 0.33366394 2.2394104 0.92759705c0.5939331 0.5939331 0.9276123 1.3994904 0.9276123 2.239441l0 35.624527c0 1.749115 -1.4179382 3.167038 -3.1670227 3.167038l-80.56885 0c-1.749115 0 -3.167038 -1.417923 -3.167038 -3.167038z" fill-rule="evenodd"/><path fill="#000000" d="m225.01874 167.10406l-2.296875 -8.421875l1.078125 0l1.8125 7.21875l2.0625 -7.21875l1.125 0l2.0 7.21875l1.828125 -7.21875l1.078125 0l-2.34375 8.40625l-1.15625 0l-2.0 -6.9375l-2.046875 6.9375l-1.140625 0.015625zm11.929581 0.125q-0.84375 0 -1.515625 -0.375q-0.671875 -0.390625 -1.0625 -1.09375q-0.390625 -0.703125 -0.390625 -1.640625q0 -0.953125 0.390625 -1.65625q0.40625 -0.703125 1.078125 -1.078125q0.671875 -0.390625 1.515625 -0.390625q0.84375 0 1.515625 0.390625q0.671875 0.375 1.0625 1.078125q0.390625 0.703125 0.390625 1.65625q0 0.9375 -0.40625 1.640625q-0.390625 0.703125 -1.078125 1.09375q-0.671875 0.375 -1.5 0.375zm0 -0.859375q0.515625 0 0.953125 -0.25q0.4375 -0.25 0.71875 -0.75q0.28125 -0.515625 0.28125 -1.25q0 -0.75 -0.28125 -1.25q-0.265625 -0.515625 -0.71875 -0.765625q-0.4375 -0.25 -0.9375 -0.25q-0.515625 0 -0.96875 0.25q-0.4375 0.25 -0.71875 0.765625q-0.265625 0.5 -0.265625 1.25q0 0.734375 0.265625 1.25q0.28125 0.5 0.71875 0.75q0.4375 0.25 0.953125 0.25zm4.3852997 0.71875l0 -5.953125l0.90625 0l0.09375 1.140625q0.265625 -0.59375 0.828125 -0.9375q0.578125 -0.34375 1.40625 -0.34375l0 1.046875l-0.28125 0q-0.53125 0 -0.984375 0.1875q-0.4375 0.1875 -0.703125 0.640625q-0.25 0.4375 -0.25 1.21875l0 3.0l-1.015625 0zm4.3560333 0l0 -8.640625l1.015625 0l0 5.203125l2.421875 -2.515625l1.25 0l-2.640625 2.6875l2.96875 3.265625l-1.28125 0l-2.71875 -3.078125l0 3.078125l-1.015625 0zm8.287918 0.140625q-0.84375 0 -1.515625 -0.390625q-0.65625 -0.390625 -1.03125 -1.078125q-0.375 -0.703125 -0.375 -1.640625q0 -0.9375 0.359375 -1.640625q0.375 -0.703125 1.046875 -1.09375q0.671875 -0.390625 1.546875 -0.390625q0.859375 0 1.484375 0.390625q0.640625 0.390625 0.96875 1.03125q0.34375 0.625 0.34375 1.359375q0 0.125 -0.015625 0.265625q0 0.125 0 0.296875l-4.734375 0q0.03125 0.6875 0.3125 1.140625q0.28125 0.453125 0.703125 0.6875q0.4375 0.21875 0.90625 0.21875q0.625 0 1.046875 -0.28125q0.421875 -0.296875 0.609375 -0.796875l1.0 0q-0.234375 0.828125 -0.921875 1.375q-0.671875 0.546875 -1.734375 0.546875zm0 -5.390625q-0.71875 0 -1.28125 0.4375q-0.546875 0.4375 -0.640625 1.28125l3.75 0q-0.03125 -0.796875 -0.546875 -1.25q-0.515625 -0.46875 -1.28125 -0.46875zm4.1561584 5.25l0 -5.953125l0.90625 0l0.09375 1.140625q0.265625 -0.59375 0.828125 -0.9375q0.578125 -0.34375 1.40625 -0.34375l0 1.046875l-0.28125 0q-0.53125 0 -0.984375 0.1875q-0.4375 0.1875 -0.703125 0.640625q-0.25 0.4375 -0.25 1.21875l0 3.0l-1.015625 0z" fill-rule="nonzero"/></g><g filter="url(#shadowFilter-p.4)"><use xlink:href="#p.4" transform="matrix(1.0 0.0 0.0 1.0 0.0 2.0)"/></g><defs><filter id="shadowFilter-p.4" filterUnits="userSpaceOnUse"><feGaussianBlur in="SourceAlpha" stdDeviation="20.0" result="blur"/><feComponentTransfer in="blur" color-interpolation-filters="sRGB"><feFuncR type="linear" slope="0" intercept="0.0"/><feFuncG type="linear" slope="0" intercept="0.0"/><feFuncB type="linear" slope="0" intercept="0.0"/><feFuncA type="linear" slope="0.15" intercept="0"/></feComponentTransfer></filter></defs><g id="p.4"><path fill="#4b34b3" d="m123.00274 43.735634l0 0c0 -1.1005249 0.8921509 -1.9926758 1.9926834 -1.9926758l26.571457 0c0.5285034 0 1.0353394 0.20994186 1.4090424 0.58364105c0.373703 0.3736992 0.5836487 0.88054276 0.5836487 1.4090347l0 22.414734c0 1.1005249 -0.89216614 1.9926834 -1.992691 1.9926834l-26.571457 0l0 0c-1.1005325 0 -1.9926834 -0.8921585 -1.9926834 -1.9926834z" fill-rule="evenodd"/><path stroke="#028cf0" stroke-width="1.0" stroke-linejoin="round" stroke-linecap="butt" d="m123.00274 43.735634l0 0c0 -1.1005249 0.8921509 -1.9926758 1.9926834 -1.9926758l26.571457 0c0.5285034 0 1.0353394 0.20994186 1.4090424 0.58364105c0.373703 0.3736992 0.5836487 0.88054276 0.5836487 1.4090347l0 22.414734c0 1.1005249 -0.89216614 1.9926834 -1.992691 1.9926834l-26.571457 0l0 0c-1.1005325 0 -1.9926834 -0.8921585 -1.9926834 -1.9926834z" fill-rule="evenodd"/></g><g filter="url(#shadowFilter-p.5)"><use xlink:href="#p.5" transform="matrix(1.0 0.0 0.0 1.0 0.0 2.0)"/></g><defs><filter id="shadowFilter-p.5" filterUnits="userSpaceOnUse"><feGaussianBlur in="SourceAlpha" stdDeviation="20.0" result="blur"/><feComponentTransfer in="blur" color-interpolation-filters="sRGB"><feFuncR type="linear" slope="0" intercept="0.0"/><feFuncG type="linear" slope="0" intercept="0.0"/><feFuncB type="linear" slope="0" intercept="0.0"/><feFuncA type="linear" slope="0.15" intercept="0"/></feComponentTransfer></filter></defs><g id="p.5"><path fill="#25b48d" d="m153.55957 43.735634l0 0c0 -1.1005249 0.8921509 -1.9926758 1.9926758 -1.9926758l26.571457 0c0.52848816 0 1.0353394 0.20994186 1.4090424 0.58364105c0.373703 0.3736992 0.5836334 0.88054276 0.5836334 1.4090347l0 22.414734c0 1.1005249 -0.8921509 1.9926834 -1.9926758 1.9926834l-26.571457 0l0 0c-1.1005249 0 -1.9926758 -0.8921585 -1.9926758 -1.9926834z" fill-rule="evenodd"/><path stroke="#028cf0" stroke-width="1.0" stroke-linejoin="round" stroke-linecap="butt" d="m153.55957 43.735634l0 0c0 -1.1005249 0.8921509 -1.9926758 1.9926758 -1.9926758l26.571457 0c0.52848816 0 1.0353394 0.20994186 1.4090424 0.58364105c0.373703 0.3736992 0.5836334 0.88054276 0.5836334 1.4090347l0 22.414734c0 1.1005249 -0.8921509 1.9926834 -1.9926758 1.9926834l-26.571457 0l0 0c-1.1005249 0 -1.9926758 -0.8921585 -1.9926758 -1.9926834z" fill-rule="evenodd"/></g><g filter="url(#shadowFilter-p.6)"><use xlink:href="#p.6" transform="matrix(1.0 0.0 0.0 1.0 0.0 2.0)"/></g><defs><filter id="shadowFilter-p.6" filterUnits="userSpaceOnUse"><feGaussianBlur in="SourceAlpha" stdDeviation="20.0" result="blur"/><feComponentTransfer in="blur" color-interpolation-filters="sRGB"><feFuncR type="linear" slope="0" intercept="0.0"/><feFuncG type="linear" slope="0" intercept="0.0"/><feFuncB type="linear" slope="0" intercept="0.0"/><feFuncA type="linear" slope="0.15" intercept="0"/></feComponentTransfer></filter></defs><g id="p.6"><path fill="#5cbcfe" d="m153.55957 70.13573l0 0c0 -1.1005249 0.8921509 -1.9926758 1.9926758 -1.9926758l26.571457 0c0.52848816 0 1.0353394 0.20993805 1.4090424 0.58364105c0.373703 0.37369537 0.5836334 0.88054657 0.5836334 1.4090347l0 22.414734c0 1.1005249 -0.8921509 1.9926758 -1.9926758 1.9926758l-26.571457 0l0 0c-1.1005249 0 -1.9926758 -0.8921509 -1.9926758 -1.9926758z" fill-rule="evenodd"/><path stroke="#028cf0" stroke-width="1.0" stroke-linejoin="round" stroke-linecap="butt" d="m153.55957 70.13573l0 0c0 -1.1005249 0.8921509 -1.9926758 1.9926758 -1.9926758l26.571457 0c0.52848816 0 1.0353394 0.20993805 1.4090424 0.58364105c0.373703 0.37369537 0.5836334 0.88054657 0.5836334 1.4090347l0 22.414734c0 1.1005249 -0.8921509 1.9926758 -1.9926758 1.9926758l-26.571457 0l0 0c-1.1005249 0 -1.9926758 -0.8921509 -1.9926758 -1.9926758z" fill-rule="evenodd"/></g><g filter="url(#shadowFilter-p.7)"><use xlink:href="#p.7" transform="matrix(1.0 0.0 0.0 1.0 0.0 2.0)"/></g><defs><filter id="shadowFilter-p.7" filterUnits="userSpaceOnUse"><feGaussianBlur in="SourceAlpha" stdDeviation="20.0" result="blur"/><feComponentTransfer in="blur" color-interpolation-filters="sRGB"><feFuncR type="linear" slope="0" intercept="0.0"/><feFuncG type="linear" slope="0" intercept="0.0"/><feFuncB type="linear" slope="0" intercept="0.0"/><feFuncA type="linear" slope="0.15" intercept="0"/></feComponentTransfer></filter></defs><g id="p.7"><path fill="#7a8ea3" d="m123.00274 70.13573l0 0c0 -1.1005249 0.8921509 -1.9926758 1.9926834 -1.9926758l26.571457 0c0.5285034 0 1.0353394 0.20993805 1.4090424 0.58364105c0.373703 0.37369537 0.5836487 0.88054657 0.5836487 1.4090347l0 22.414734c0 1.1005249 -0.89216614 1.9926758 -1.992691 1.9926758l-26.571457 0l0 0c-1.1005325 0 -1.9926834 -0.8921509 -1.9926834 -1.9926758z" fill-rule="evenodd"/><path stroke="#028cf0" stroke-width="1.0" stroke-linejoin="round" stroke-linecap="butt" d="m123.00274 70.13573l0 0c0 -1.1005249 0.8921509 -1.9926758 1.9926834 -1.9926758l26.571457 0c0.5285034 0 1.0353394 0.20993805 1.4090424 0.58364105c0.373703 0.37369537 0.5836487 0.88054657 0.5836487 1.4090347l0 22.414734c0 1.1005249 -0.89216614 1.9926758 -1.992691 1.9926758l-26.571457 0l0 0c-1.1005325 0 -1.9926834 -0.8921509 -1.9926834 -1.9926758z" fill-rule="evenodd"/></g><g filter="url(#shadowFilter-p.8)"><use xlink:href="#p.8" transform="matrix(1.0 0.0 0.0 1.0 0.0 2.0)"/></g><defs><filter id="shadowFilter-p.8" filterUnits="userSpaceOnUse"><feGaussianBlur in="SourceAlpha" stdDeviation="20.0" result="blur"/><feComponentTransfer in="blur" color-interpolation-filters="sRGB"><feFuncR type="linear" slope="0" intercept="0.0"/><feFuncG type="linear" slope="0" intercept="0.0"/><feFuncB type="linear" slope="0" intercept="0.0"/><feFuncA type="linear" slope="0.15" intercept="0"/></feComponentTransfer></filter></defs><g id="p.8"><path fill="#4b34b3" d="m267.25302 67.443855l0 0c0 -1.1005249 0.8921509 -1.9926758 1.9926758 -1.9926758l26.571442 0c0.5285034 0 1.0353394 0.20993805 1.4090576 0.58364105c0.37368774 0.37369537 0.5836487 0.88054657 0.5836487 1.4090347l0 22.414734c0 1.1005249 -0.8921814 1.9926758 -1.9927063 1.9926758l-26.571442 0l0 0c-1.1005249 0 -1.9926758 -0.8921509 -1.9926758 -1.9926758z" fill-rule="evenodd"/><path stroke="#028cf0" stroke-width="1.0" stroke-linejoin="round" stroke-linecap="butt" d="m267.25302 67.443855l0 0c0 -1.1005249 0.8921509 -1.9926758 1.9926758 -1.9926758l26.571442 0c0.5285034 0 1.0353394 0.20993805 1.4090576 0.58364105c0.37368774 0.37369537 0.5836487 0.88054657 0.5836487 1.4090347l0 22.414734c0 1.1005249 -0.8921814 1.9926758 -1.9927063 1.9926758l-26.571442 0l0 0c-1.1005249 0 -1.9926758 -0.8921509 -1.9926758 -1.9926758z" fill-rule="evenodd"/></g><g filter="url(#shadowFilter-p.9)"><use xlink:href="#p.9" transform="matrix(1.0 0.0 0.0 1.0 0.0 2.0)"/></g><defs><filter id="shadowFilter-p.9" filterUnits="userSpaceOnUse"><feGaussianBlur in="SourceAlpha" stdDeviation="20.0" result="blur"/><feComponentTransfer in="blur" color-interpolation-filters="sRGB"><feFuncR type="linear" slope="0" intercept="0.0"/><feFuncG type="linear" slope="0" intercept="0.0"/><feFuncB type="linear" slope="0" intercept="0.0"/><feFuncA type="linear" slope="0.15" intercept="0"/></feComponentTransfer></filter></defs><g id="p.9"><path fill="#7a8ea3" d="m267.25302 151.36108l0 0c0 -1.1005402 0.8921509 -1.992691 1.9926758 -1.992691l26.571442 0c0.5285034 0 1.0353394 0.20994568 1.4090576 0.5836487c0.37368774 0.373703 0.5836487 0.88053894 0.5836487 1.4090424l0 22.414734c0 1.1005249 -0.8921814 1.9926758 -1.9927063 1.9926758l-26.571442 0l0 0c-1.1005249 0 -1.9926758 -0.8921509 -1.9926758 -1.9926758z" fill-rule="evenodd"/><path stroke="#028cf0" stroke-width="1.0" stroke-linejoin="round" stroke-linecap="butt" d="m267.25302 151.36108l0 0c0 -1.1005402 0.8921509 -1.992691 1.9926758 -1.992691l26.571442 0c0.5285034 0 1.0353394 0.20994568 1.4090576 0.5836487c0.37368774 0.373703 0.5836487 0.88053894 0.5836487 1.4090424l0 22.414734c0 1.1005249 -0.8921814 1.9926758 -1.9927063 1.9926758l-26.571442 0l0 0c-1.1005249 0 -1.9926758 -0.8921509 -1.9926758 -1.9926758z" fill-rule="evenodd"/></g><g filter="url(#shadowFilter-p.10)"><use xlink:href="#p.10" transform="matrix(1.0 0.0 0.0 1.0 0.0 2.0)"/></g><defs><filter id="shadowFilter-p.10" filterUnits="userSpaceOnUse"><feGaussianBlur in="SourceAlpha" stdDeviation="20.0" result="blur"/><feComponentTransfer in="blur" color-interpolation-filters="sRGB"><feFuncR type="linear" slope="0" intercept="0.0"/><feFuncG type="linear" slope="0" intercept="0.0"/><feFuncB type="linear" slope="0" intercept="0.0"/><feFuncA type="linear" slope="0.15" intercept="0"/></feComponentTransfer></filter></defs><g id="p.10"><path fill="#ecf8fd" d="m318.95218 60.83895l0 0c0 -1.7491035 1.4179077 -3.1670341 3.1670227 -3.1670341l80.56885 0c0.8399353 0 1.6455078 0.33366776 2.239441 0.9276047c0.5939331 0.5939331 0.9275818 1.3994827 0.9275818 2.2394295l0 35.624542c0 1.7491074 -1.4179077 3.167038 -3.1670227 3.167038l-80.56885 0c-1.749115 0 -3.1670227 -1.4179306 -3.1670227 -3.167038z" fill-rule="evenodd"/><path stroke="#028cf0" stroke-width="1.0" stroke-linejoin="round" stroke-linecap="butt" d="m318.95218 60.83895l0 0c0 -1.7491035 1.4179077 -3.1670341 3.1670227 -3.1670341l80.56885 0c0.8399353 0 1.6455078 0.33366776 2.239441 0.9276047c0.5939331 0.5939331 0.9275818 1.3994827 0.9275818 2.2394295l0 35.624542c0 1.7491074 -1.4179077 3.167038 -3.1670227 3.167038l-80.56885 0c-1.749115 0 -3.1670227 -1.4179306 -3.1670227 -3.167038z" fill-rule="evenodd"/><path fill="#000000" d="m329.48914 83.186844l-2.296875 -8.421875l1.078125 0l1.8125 7.21875l2.0625 -7.21875l1.125 0l2.0 7.21875l1.828125 -7.21875l1.078125 0l-2.34375 8.40625l-1.15625 0l-2.0 -6.9375l-2.046875 6.9375l-1.140625 0.015625zm11.929596 0.125q-0.84375 0 -1.515625 -0.375q-0.671875 -0.390625 -1.0625 -1.09375q-0.390625 -0.703125 -0.390625 -1.640625q0 -0.953125 0.390625 -1.65625q0.40625 -0.703125 1.078125 -1.078125q0.671875 -0.390625 1.515625 -0.390625q0.84375 0 1.515625 0.390625q0.671875 0.375 1.0625 1.078125q0.390625 0.703125 0.390625 1.65625q0 0.9375 -0.40625 1.640625q-0.390625 0.703125 -1.078125 1.09375q-0.671875 0.375 -1.5 0.375zm0 -0.859375q0.515625 0 0.953125 -0.25q0.4375 -0.25 0.71875 -0.75q0.28125 -0.515625 0.28125 -1.25q0 -0.75 -0.28125 -1.25q-0.265625 -0.515625 -0.71875 -0.765625q-0.4375 -0.25 -0.9375 -0.25q-0.515625 0 -0.96875 0.25q-0.4375 0.25 -0.71875 0.765625q-0.265625 0.5 -0.265625 1.25q0 0.734375 0.265625 1.25q0.28125 0.5 0.71875 0.75q0.4375 0.25 0.953125 0.25zm4.3852844 0.71875l0 -5.953125l0.90625 0l0.09375 1.140625q0.265625 -0.59375 0.828125 -0.9375q0.578125 -0.34375 1.40625 -0.34375l0 1.046875l-0.28125 0q-0.53125 0 -0.984375 0.1875q-0.4375 0.1875 -0.703125 0.640625q-0.25 0.4375 -0.25 1.21875l0 3.0l-1.015625 0zm4.3560486 0l0 -8.640625l1.015625 0l0 5.203125l2.421875 -2.515625l1.25 0l-2.640625 2.6875l2.96875 3.265625l-1.28125 0l-2.71875 -3.078125l0 3.078125l-1.015625 0zm8.287903 0.140625q-0.84375 0 -1.515625 -0.390625q-0.65625 -0.390625 -1.03125 -1.078125q-0.375 -0.703125 -0.375 -1.640625q0 -0.9375 0.359375 -1.640625q0.375 -0.703125 1.046875 -1.09375q0.671875 -0.390625 1.546875 -0.390625q0.859375 0 1.484375 0.390625q0.640625 0.390625 0.96875 1.03125q0.34375 0.625 0.34375 1.359375q0 0.125 -0.015625 0.265625q0 0.125 0 0.296875l-4.734375 0q0.03125 0.6875 0.3125 1.140625q0.28125 0.453125 0.703125 0.6875q0.4375 0.21875 0.90625 0.21875q0.625 0 1.046875 -0.28125q0.421875 -0.296875 0.609375 -0.796875l1.0 0q-0.234375 0.828125 -0.921875 1.375q-0.671875 0.546875 -1.734375 0.546875zm0 -5.390625q-0.71875 0 -1.28125 0.4375q-0.546875 0.4375 -0.640625 1.28125l3.75 0q-0.03125 -0.796875 -0.546875 -1.25q-0.515625 -0.46875 -1.28125 -0.46875zm4.156189 5.25l0 -5.953125l0.90625 0l0.09375 1.140625q0.265625 -0.59375 0.828125 -0.9375q0.578125 -0.34375 1.40625 -0.34375l0 1.046875l-0.28125 0q-0.53125 0 -0.984375 0.1875q-0.4375 0.1875 -0.703125 0.640625q-0.25 0.4375 -0.25 1.21875l0 3.0l-1.015625 0z" fill-rule="nonzero"/></g><g filter="url(#shadowFilter-p.11)"><use xlink:href="#p.11" transform="matrix(1.0 0.0 0.0 1.0 0.0 2.0)"/></g><defs><filter id="shadowFilter-p.11" filterUnits="userSpaceOnUse"><feGaussianBlur in="SourceAlpha" stdDeviation="20.0" result="blur"/><feComponentTransfer in="blur" color-interpolation-filters="sRGB"><feFuncR type="linear" slope="0" intercept="0.0"/><feFuncG type="linear" slope="0" intercept="0.0"/><feFuncB type="linear" slope="0" intercept="0.0"/><feFuncA type="linear" slope="0.15" intercept="0"/></feComponentTransfer></filter></defs><g id="p.11"><path fill="#25b48d" d="m371.72342 67.443855l0 0c0 -1.1005249 0.8921509 -1.9926758 1.9926758 -1.9926758l26.571472 0c0.5284729 0 1.0353394 0.20993805 1.4090271 0.58364105c0.37368774 0.37369537 0.5836487 0.88054657 0.5836487 1.4090347l0 22.414734c0 1.1005249 -0.8921509 1.9926758 -1.9926758 1.9926758l-26.571472 0l0 0c-1.1005249 0 -1.9926758 -0.8921509 -1.9926758 -1.9926758z" fill-rule="evenodd"/><path stroke="#028cf0" stroke-width="1.0" stroke-linejoin="round" stroke-linecap="butt" d="m371.72342 67.443855l0 0c0 -1.1005249 0.8921509 -1.9926758 1.9926758 -1.9926758l26.571472 0c0.5284729 0 1.0353394 0.20993805 1.4090271 0.58364105c0.37368774 0.37369537 0.5836487 0.88054657 0.5836487 1.4090347l0 22.414734c0 1.1005249 -0.8921509 1.9926758 -1.9926758 1.9926758l-26.571472 0l0 0c-1.1005249 0 -1.9926758 -0.8921509 -1.9926758 -1.9926758z" fill-rule="evenodd"/></g><g filter="url(#shadowFilter-p.12)"><use xlink:href="#p.12" transform="matrix(1.0 0.0 0.0 1.0 0.0 2.0)"/></g><defs><filter id="shadowFilter-p.12" filterUnits="userSpaceOnUse"><feGaussianBlur in="SourceAlpha" stdDeviation="20.0" result="blur"/><feComponentTransfer in="blur" color-interpolation-filters="sRGB"><feFuncR type="linear" slope="0" intercept="0.0"/><feFuncG type="linear" slope="0" intercept="0.0"/><feFuncB type="linear" slope="0" intercept="0.0"/><feFuncA type="linear" slope="0.15" intercept="0"/></feComponentTransfer></filter></defs><g id="p.12"><path fill="#ecf8fd" d="m318.95218 144.75618l0 0c0 -1.749115 1.4179077 -3.167038 3.1670227 -3.167038l80.56885 0c0.8399353 0 1.6455078 0.33366394 2.239441 0.92759705c0.5939331 0.5939331 0.9275818 1.3994904 0.9275818 2.239441l0 35.624527c0 1.749115 -1.4179077 3.167038 -3.1670227 3.167038l-80.56885 0c-1.749115 0 -3.1670227 -1.417923 -3.1670227 -3.167038z" fill-rule="evenodd"/><path stroke="#028cf0" stroke-width="1.0" stroke-linejoin="round" stroke-linecap="butt" d="m318.95218 144.75618l0 0c0 -1.749115 1.4179077 -3.167038 3.1670227 -3.167038l80.56885 0c0.8399353 0 1.6455078 0.33366394 2.239441 0.92759705c0.5939331 0.5939331 0.9275818 1.3994904 0.9275818 2.239441l0 35.624527c0 1.749115 -1.4179077 3.167038 -3.1670227 3.167038l-80.56885 0c-1.749115 0 -3.1670227 -1.417923 -3.1670227 -3.167038z" fill-rule="evenodd"/><path fill="#000000" d="m329.48914 167.10406l-2.296875 -8.421875l1.078125 0l1.8125 7.21875l2.0625 -7.21875l1.125 0l2.0 7.21875l1.828125 -7.21875l1.078125 0l-2.34375 8.40625l-1.15625 0l-2.0 -6.9375l-2.046875 6.9375l-1.140625 0.015625zm11.929596 0.125q-0.84375 0 -1.515625 -0.375q-0.671875 -0.390625 -1.0625 -1.09375q-0.390625 -0.703125 -0.390625 -1.640625q0 -0.953125 0.390625 -1.65625q0.40625 -0.703125 1.078125 -1.078125q0.671875 -0.390625 1.515625 -0.390625q0.84375 0 1.515625 0.390625q0.671875 0.375 1.0625 1.078125q0.390625 0.703125 0.390625 1.65625q0 0.9375 -0.40625 1.640625q-0.390625 0.703125 -1.078125 1.09375q-0.671875 0.375 -1.5 0.375zm0 -0.859375q0.515625 0 0.953125 -0.25q0.4375 -0.25 0.71875 -0.75q0.28125 -0.515625 0.28125 -1.25q0 -0.75 -0.28125 -1.25q-0.265625 -0.515625 -0.71875 -0.765625q-0.4375 -0.25 -0.9375 -0.25q-0.515625 0 -0.96875 0.25q-0.4375 0.25 -0.71875 0.765625q-0.265625 0.5 -0.265625 1.25q0 0.734375 0.265625 1.25q0.28125 0.5 0.71875 0.75q0.4375 0.25 0.953125 0.25zm4.3852844 0.71875l0 -5.953125l0.90625 0l0.09375 1.140625q0.265625 -0.59375 0.828125 -0.9375q0.578125 -0.34375 1.40625 -0.34375l0 1.046875l-0.28125 0q-0.53125 0 -0.984375 0.1875q-0.4375 0.1875 -0.703125 0.640625q-0.25 0.4375 -0.25 1.21875l0 3.0l-1.015625 0zm4.3560486 0l0 -8.640625l1.015625 0l0 5.203125l2.421875 -2.515625l1.25 0l-2.640625 2.6875l2.96875 3.265625l-1.28125 0l-2.71875 -3.078125l0 3.078125l-1.015625 0zm8.287903 0.140625q-0.84375 0 -1.515625 -0.390625q-0.65625 -0.390625 -1.03125 -1.078125q-0.375 -0.703125 -0.375 -1.640625q0 -0.9375 0.359375 -1.640625q0.375 -0.703125 1.046875 -1.09375q0.671875 -0.390625 1.546875 -0.390625q0.859375 0 1.484375 0.390625q0.640625 0.390625 0.96875 1.03125q0.34375 0.625 0.34375 1.359375q0 0.125 -0.015625 0.265625q0 0.125 0 0.296875l-4.734375 0q0.03125 0.6875 0.3125 1.140625q0.28125 0.453125 0.703125 0.6875q0.4375 0.21875 0.90625 0.21875q0.625 0 1.046875 -0.28125q0.421875 -0.296875 0.609375 -0.796875l1.0 0q-0.234375 0.828125 -0.921875 1.375q-0.671875 0.546875 -1.734375 0.546875zm0 -5.390625q-0.71875 0 -1.28125 0.4375q-0.546875 0.4375 -0.640625 1.28125l3.75 0q-0.03125 -0.796875 -0.546875 -1.25q-0.515625 -0.46875 -1.28125 -0.46875zm4.156189 5.25l0 -5.953125l0.90625 0l0.09375 1.140625q0.265625 -0.59375 0.828125 -0.9375q0.578125 -0.34375 1.40625 -0.34375l0 1.046875l-0.28125 0q-0.53125 0 -0.984375 0.1875q-0.4375 0.1875 -0.703125 0.640625q-0.25 0.4375 -0.25 1.21875l0 3.0l-1.015625 0z" fill-rule="nonzero"/></g><g filter="url(#shadowFilter-p.13)"><use xlink:href="#p.13" transform="matrix(1.0 0.0 0.0 1.0 0.0 2.0)"/></g><defs><filter id="shadowFilter-p.13" filterUnits="userSpaceOnUse"><feGaussianBlur in="SourceAlpha" stdDeviation="20.0" result="blur"/><feComponentTransfer in="blur" color-interpolation-filters="sRGB"><feFuncR type="linear" slope="0" intercept="0.0"/><feFuncG type="linear" slope="0" intercept="0.0"/><feFuncB type="linear" slope="0" intercept="0.0"/><feFuncA type="linear" slope="0.15" intercept="0"/></feComponentTransfer></filter></defs><g id="p.13"><path fill="#5cbcfe" d="m371.72342 151.36108l0 0c0 -1.1005402 0.8921509 -1.992691 1.9926758 -1.992691l26.571472 0c0.5284729 0 1.0353394 0.20994568 1.4090271 0.5836487c0.37368774 0.373703 0.5836487 0.88053894 0.5836487 1.4090424l0 22.414734c0 1.1005249 -0.8921509 1.9926758 -1.9926758 1.9926758l-26.571472 0l0 0c-1.1005249 0 -1.9926758 -0.8921509 -1.9926758 -1.9926758z" fill-rule="evenodd"/><path stroke="#028cf0" stroke-width="1.0" stroke-linejoin="round" stroke-linecap="butt" d="m371.72342 151.36108l0 0c0 -1.1005402 0.8921509 -1.992691 1.9926758 -1.992691l26.571472 0c0.5284729 0 1.0353394 0.20994568 1.4090271 0.5836487c0.37368774 0.373703 0.5836487 0.88053894 0.5836487 1.4090424l0 22.414734c0 1.1005249 -0.8921509 1.9926758 -1.9926758 1.9926758l-26.571472 0l0 0c-1.1005249 0 -1.9926758 -0.8921509 -1.9926758 -1.9926758z" fill-rule="evenodd"/></g><path fill="#ffffff" d="m104.99472 18.273464l0 0c0 -5.673932 4.5996323 -10.2735615 10.27356 -10.2735615l76.582565 0c2.7247162 0 5.337845 1.0823903 7.264511 3.0090566c1.9266663 1.9266663 3.0090485 4.5397873 3.0090485 7.2645054l0 0l0 0c0 5.673931 -4.5996246 10.2735615 -10.27356 10.2735615l-76.582565 0c-5.6739273 0 -10.27356 -4.5996304 -10.27356 -10.2735615z" fill-rule="evenodd"/><path stroke="#00375c" stroke-width="1.0" stroke-linejoin="round" stroke-linecap="butt" d="m104.99472 18.273464l0 0c0 -5.673932 4.5996323 -10.2735615 10.27356 -10.2735615l76.582565 0c2.7247162 0 5.337845 1.0823903 7.264511 3.0090566c1.9266663 1.9266663 3.0090485 4.5397873 3.0090485 7.2645054l0 0l0 0c0 5.673931 -4.5996246 10.2735615 -10.27356 10.2735615l-76.582565 0c-5.6739273 0 -10.27356 -4.5996304 -10.27356 -10.2735615z" fill-rule="evenodd"/><path fill="#00375c" d="m131.79059 22.013464l0 -7.453125l1.78125 0q1.8125 0 2.6875 1.0q0.875 0.984375 0.875 2.71875q0 1.734375 -0.875 2.734375q-0.875 1.0 -2.6875 1.0l-1.78125 0zm1.125 -1.046875l0.625 0q1.296875 0 1.875 -0.71875q0.578125 -0.734375 0.578125 -1.96875q0 -1.21875 -0.578125 -1.953125q-0.578125 -0.734375 -1.875 -0.734375l-0.625 0l0 5.375zm7.378189 1.171875q-0.625 0 -1.0625 -0.21875q-0.421875 -0.21875 -0.640625 -0.578125q-0.203125 -0.375 -0.203125 -0.8125q0 -0.78125 0.5625 -1.21875q0.578125 -0.4375 1.625 -0.4375l1.359375 0l0 -0.109375q0 -1.1875 -1.109375 -1.1875q-0.453125 0 -0.78125 0.203125q-0.3125 0.1875 -0.40625 0.625l-1.140625 0q0.09375 -0.828125 0.71875 -1.3125q0.640625 -0.484375 1.609375 -0.484375q1.171875 0 1.703125 0.578125q0.53125 0.5625 0.53125 1.578125l0 3.25l-0.953125 0l-0.09375 -0.78125l-0.078125 0q-0.234375 0.375 -0.59375 0.640625q-0.34375 0.265625 -1.046875 0.265625zm0.21875 -0.953125q0.6875 0 1.03125 -0.40625q0.34375 -0.421875 0.375 -1.078125l-1.234375 0q-0.609375 0 -0.859375 0.203125q-0.25 0.1875 -0.25 0.546875q0 0.34375 0.25 0.546875q0.25 0.1875 0.6875 0.1875zm7.221939 0.828125q-0.765625 0 -1.234375 -0.375q-0.453125 -0.375 -0.453125 -1.34375l0 -2.609375l-1.328125 0l0 -0.953125l0.78125 0q0.546875 0 0.640625 -0.53125l0.15625 -0.859375l0.875 0l0 1.390625l2.09375 0l0 0.953125l-2.09375 0l0 2.578125q0 0.421875 0.1875 0.59375q0.1875 0.15625 0.640625 0.15625l1.25 0l0 1.0l-1.515625 0zm5.346939 0.125q-0.625 0 -1.0625 -0.21875q-0.421875 -0.21875 -0.640625 -0.578125q-0.203125 -0.375 -0.203125 -0.8125q0 -0.78125 0.5625 -1.21875q0.578125 -0.4375 1.625 -0.4375l1.359375 0l0 -0.109375q0 -1.1875 -1.109375 -1.1875q-0.453125 0 -0.78125 0.203125q-0.3125 0.1875 -0.40625 0.625l-1.140625 0q0.09375 -0.828125 0.71875 -1.3125q0.640625 -0.484375 1.609375 -0.484375q1.171875 0 1.703125 0.578125q0.53125 0.5625 0.53125 1.578125l0 3.25l-0.953125 0l-0.09375 -0.78125l-0.078125 0q-0.234375 0.375 -0.59375 0.640625q-0.34375 0.265625 -1.046875 0.265625zm0.21875 -0.953125q0.6875 0 1.03125 -0.40625q0.34375 -0.421875 0.375 -1.078125l-1.234375 0q-0.609375 0 -0.859375 0.203125q-0.25 0.1875 -0.25 0.546875q0 0.34375 0.25 0.546875q0.25 0.1875 0.6875 0.1875zm6.690689 0.953125q-1.046875 0 -1.671875 -0.484375q-0.609375 -0.5 -0.6875 -1.296875l1.15625 0q0.0625 0.359375 0.375 0.59375q0.328125 0.234375 0.84375 0.234375q0.5 0 0.765625 -0.203125q0.28125 -0.203125 0.28125 -0.484375q0 -0.40625 -0.328125 -0.546875q-0.328125 -0.15625 -0.953125 -0.234375q-0.546875 -0.0625 -0.984375 -0.25q-0.4375 -0.1875 -0.703125 -0.5q-0.25 -0.328125 -0.25 -0.828125q0 -0.6875 0.53125 -1.109375q0.546875 -0.421875 1.53125 -0.421875q0.96875 0 1.5 0.4375q0.53125 0.421875 0.609375 1.1875l-1.078125 0q-0.046875 -0.328125 -0.34375 -0.5q-0.28125 -0.1875 -0.703125 -0.1875q-0.4375 0 -0.703125 0.171875q-0.25 0.15625 -0.25 0.421875q0 0.578125 1.234375 0.703125q0.59375 0.0625 1.046875 0.21875q0.453125 0.15625 0.71875 0.484375q0.28125 0.3125 0.28125 0.90625q0 0.46875 -0.28125 0.859375q-0.28125 0.390625 -0.78125 0.609375q-0.484375 0.21875 -1.15625 0.21875zm6.425064 0q-0.765625 0 -1.359375 -0.34375q-0.578125 -0.34375 -0.921875 -0.953125q-0.328125 -0.625 -0.328125 -1.453125q0 -0.828125 0.328125 -1.453125q0.328125 -0.625 0.921875 -0.96875q0.59375 -0.359375 1.359375 -0.359375q0.765625 0 1.3125 0.34375q0.5625 0.34375 0.859375 0.921875q0.3125 0.578125 0.3125 1.265625q0 0.109375 0 0.234375q0 0.109375 0 0.265625l-3.984375 0q0.0625 0.734375 0.484375 1.109375q0.421875 0.375 1.0 0.375q0.5 0 0.796875 -0.203125q0.296875 -0.203125 0.421875 -0.5625l1.140625 0q-0.1875 0.75 -0.796875 1.265625q-0.609375 0.515625 -1.546875 0.515625zm0 -4.5625q-0.53125 0 -0.9375 0.328125q-0.40625 0.3125 -0.515625 0.875l2.8125 0q-0.046875 -0.53125 -0.421875 -0.859375q-0.359375 -0.34375 -0.9375 -0.34375zm6.893814 4.4375q-0.765625 0 -1.234375 -0.375q-0.453125 -0.375 -0.453125 -1.34375l0 -2.609375l-1.328125 0l0 -0.953125l0.78125 0q0.546875 0 0.640625 -0.53125l0.15625 -0.859375l0.875 0l0 1.390625l2.09375 0l0 0.953125l-2.09375 0l0 2.578125q0 0.421875 0.1875 0.59375q0.1875 0.15625 0.640625 0.15625l1.25 0l0 1.0l-1.515625 0z" fill-rule="nonzero"/><path fill="#ffffff" d="m104.99472 151.6466l0 0c0 -5.673935 4.5996323 -10.27356 10.27356 -10.27356l76.582565 0c2.7247162 0 5.337845 1.0823975 7.264511 3.0090637c1.9266663 1.9266663 3.0090485 4.5397797 3.0090485 7.264496l0 0l0 0c0 5.673935 -4.5996246 10.27356 -10.27356 10.27356l-76.582565 0c-5.6739273 0 -10.27356 -4.5996246 -10.27356 -10.27356z" fill-rule="evenodd"/><path stroke="#00375c" stroke-width="1.0" stroke-linejoin="round" stroke-linecap="butt" d="m104.99472 151.6466l0 0c0 -5.673935 4.5996323 -10.27356 10.27356 -10.27356l76.582565 0c2.7247162 0 5.337845 1.0823975 7.264511 3.0090637c1.9266663 1.9266663 3.0090485 4.5397797 3.0090485 7.264496l0 0l0 0c0 5.673935 -4.5996246 10.27356 -10.27356 10.27356l-76.582565 0c-5.6739273 0 -10.27356 -4.5996246 -10.27356 -10.27356z" fill-rule="evenodd"/><path fill="#00375c" d="m121.018585 155.38661l0 -6.453125l-2.0 0l0 -1.0l5.140625 0l0 1.0l-2.0 0l0 6.453125l-1.140625 0zm4.596939 0l0 -0.984375l1.28125 0l0 -2.96875q0 -0.359375 -0.34375 -0.359375l-0.84375 0l0 -0.96875l1.265625 0q0.4375 0 0.71875 0.25q0.28125 0.25 0.28125 0.6875l0 0.140625l0.046875 0q0.125 -0.609375 0.515625 -0.90625q0.390625 -0.296875 1.125 -0.296875l0.828125 0l0 1.1875l-1.15625 0q-0.625 0 -0.96875 0.4375q-0.34375 0.4375 -0.34375 1.046875l0 1.75l1.640625 0l0 0.984375l-4.046875 0zm8.284439 0.125q-0.625 0 -1.0625 -0.21875q-0.421875 -0.21875 -0.640625 -0.578125q-0.203125 -0.375 -0.203125 -0.8125q0 -0.78125 0.5625 -1.21875q0.578125 -0.4375 1.625 -0.4375l1.359375 0l0 -0.109375q0 -1.1875 -1.109375 -1.1875q-0.453125 0 -0.78125 0.203125q-0.3125 0.1875 -0.40625 0.625l-1.140625 0q0.09375 -0.828125 0.71875 -1.3125q0.640625 -0.484375 1.609375 -0.484375q1.171875 0 1.703125 0.578125q0.53125 0.5625 0.53125 1.578125l0 3.25l-0.953125 0l-0.09375 -0.78125l-0.078125 0q-0.234375 0.375 -0.59375 0.640625q-0.34375 0.265625 -1.046875 0.265625zm0.21875 -0.953125q0.6875 0 1.03125 -0.40625q0.34375 -0.421875 0.375 -1.078125l-1.234375 0q-0.609375 0 -0.859375 0.203125q-0.25 0.1875 -0.25 0.546875q0 0.34375 0.25 0.546875q0.25 0.1875 0.6875 0.1875zm6.550064 -5.265625q-0.375 0 -0.625 -0.234375q-0.25 -0.25 -0.25 -0.59375q0 -0.359375 0.25 -0.59375q0.25 -0.234375 0.625 -0.234375q0.375 0 0.625 0.234375q0.25 0.234375 0.25 0.59375q0 0.34375 -0.25 0.59375q-0.25 0.234375 -0.625 0.234375zm-2.125 6.09375l0 -0.984375l1.65625 0l0 -2.96875q0 -0.359375 -0.328125 -0.359375l-1.171875 0l0 -0.96875l1.375 0q0.65625 0 0.953125 0.3125q0.3125 0.296875 0.3125 0.953125l0 3.03125l1.65625 0l0 0.984375l-4.453125 0zm6.253189 0l0 -5.28125l0.984375 0l0.09375 0.78125l0.046875 0q0.21875 -0.375 0.65625 -0.640625q0.453125 -0.265625 1.046875 -0.265625q0.96875 0 1.453125 0.59375q0.5 0.578125 0.5 1.71875l0 3.09375l-1.140625 0l0 -2.96875q0 -0.65625 -0.28125 -1.015625q-0.265625 -0.359375 -0.859375 -0.359375q-0.59375 0 -0.984375 0.390625q-0.390625 0.390625 -0.390625 1.140625l0 2.8125l-1.125 0zm8.831314 0.125q-0.765625 0 -1.359375 -0.34375q-0.578125 -0.34375 -0.921875 -0.953125q-0.328125 -0.625 -0.328125 -1.453125q0 -0.828125 0.328125 -1.453125q0.328125 -0.625 0.921875 -0.96875q0.59375 -0.359375 1.359375 -0.359375q0.765625 0 1.3125 0.34375q0.5625 0.34375 0.859375 0.921875q0.3125 0.578125 0.3125 1.265625q0 0.109375 0 0.234375q0 0.109375 0 0.265625l-3.984375 0q0.0625 0.734375 0.484375 1.109375q0.421875 0.375 1.0 0.375q0.5 0 0.796875 -0.203125q0.296875 -0.203125 0.421875 -0.5625l1.140625 0q-0.1875 0.75 -0.796875 1.265625q-0.609375 0.515625 -1.546875 0.515625zm0 -4.5625q-0.53125 0 -0.9375 0.328125q-0.40625 0.3125 -0.515625 0.875l2.8125 0q-0.046875 -0.53125 -0.421875 -0.859375q-0.359375 -0.34375 -0.9375 -0.34375zm3.956314 4.4375l0 -0.984375l1.28125 0l0 -2.96875q0 -0.359375 -0.34375 -0.359375l-0.84375 0l0 -0.96875l1.265625 0q0.4375 0 0.71875 0.25q0.28125 0.25 0.28125 0.6875l0 0.140625l0.046875 0q0.125 -0.609375 0.515625 -0.90625q0.390625 -0.296875 1.125 -0.296875l0.828125 0l0 1.1875l-1.15625 0q-0.625 0 -0.96875 0.4375q-0.34375 0.4375 -0.34375 1.046875l0 1.75l1.640625 0l0 0.984375l-4.046875 0zm8.768814 0.0625q-0.40625 0 -0.6875 -0.25q-0.265625 -0.265625 -0.265625 -0.640625q0 -0.375 0.265625 -0.625q0.28125 -0.265625 0.6875 -0.265625q0.40625 0 0.671875 0.265625q0.265625 0.25 0.265625 0.625q0 0.375 -0.265625 0.640625q-0.265625 0.25 -0.671875 0.25zm3.925064 2.28125l0 -0.984375l0.859375 0q0.375 0 0.53125 -0.15625q0.171875 -0.15625 0.171875 -0.515625l0 -5.015625l-1.34375 0l0 -0.953125l1.34375 0l0 -0.734375q0 -0.890625 0.4375 -1.265625q0.4375 -0.390625 1.25 -0.390625l1.296875 0l0 0.984375l-1.15625 0q-0.375 0 -0.53125 0.15625q-0.15625 0.140625 -0.15625 0.515625l0 0.734375l1.84375 0l0 0.953125l-1.84375 0l0 5.015625q0 0.890625 -0.4375 1.265625q-0.4375 0.390625 -1.265625 0.390625l-1.0 0zm8.753189 -8.4375q-0.375 0 -0.625 -0.234375q-0.25 -0.25 -0.25 -0.59375q0 -0.359375 0.25 -0.59375q0.25 -0.234375 0.625 -0.234375q0.375 0 0.625 0.234375q0.25 0.234375 0.25 0.59375q0 0.34375 -0.25 0.59375q-0.25 0.234375 -0.625 0.234375zm-2.125 6.09375l0 -0.984375l1.65625 0l0 -2.96875q0 -0.359375 -0.328125 -0.359375l-1.171875 0l0 -0.96875l1.375 0q0.65625 0 0.953125 0.3125q0.3125 0.296875 0.3125 0.953125l0 3.03125l1.65625 0l0 0.984375l-4.453125 0zm9.190689 0q-0.765625 0 -1.234375 -0.375q-0.453125 -0.375 -0.453125 -1.34375l0 -2.609375l-1.328125 0l0 -0.953125l0.78125 0q0.546875 0 0.640625 -0.53125l0.15625 -0.859375l0.875 0l0 1.390625l2.09375 0l0 0.953125l-2.09375 0l0 2.578125q0 0.421875 0.1875 0.59375q0.1875 0.15625 0.640625 0.15625l1.25 0l0 1.0l-1.515625 0z" fill-rule="nonzero"/></g></svg>