<svg version="1.1" viewBox="0.0 0.0 853.9028871391076 202.1522309711286" fill="none" stroke="none" stroke-linecap="square" stroke-miterlimit="10" xmlns:xlink="http://www.w3.org/1999/xlink" xmlns="http://www.w3.org/2000/svg"><clipPath id="p.0"><path d="m0 0l853.9029 0l0 202.15224l-853.9029 0l0 -202.15224z" clip-rule="nonzero"/></clipPath><g clip-path="url(#p.0)"><path fill="#ffffff" d="m0 0l853.9029 0l0 202.15224l-853.9029 0z" fill-rule="evenodd"/><path fill="#ffffff" d="m62.139435 12.315434l114.61417 0l0 114.614174l-114.61417 0z" fill-rule="evenodd"/><path stroke="#00a2e9" stroke-width="2.0" stroke-linejoin="round" stroke-linecap="butt" stroke-dasharray="8.0,6.0" d="m62.139435 12.315434l114.61417 0l0 114.614174l-114.61417 0z" fill-rule="evenodd"/><path fill="#ccecfb" d="m62.139435 85.41862l41.984253 0l0 41.543304l-41.984253 0z" fill-rule="evenodd"/><path stroke="#00a2e9" stroke-width="2.0" stroke-linejoin="round" stroke-linecap="butt" d="m62.139435 85.41862l41.984253 0l0 41.543304l-41.984253 0z" fill-rule="evenodd"/><path fill="#000000" fill-opacity="0.0" d="m104.8893 84.68876l70.23622 -70.23622" fill-rule="evenodd"/><path stroke="#00a2e9" stroke-width="2.0" stroke-linejoin="round" stroke-linecap="butt" d="m104.88929 84.68876l61.75094 -61.75094" fill-rule="evenodd"/><path fill="#00a2e9" stroke="#00a2e9" stroke-width="2.0" stroke-linecap="butt" d="m168.97614 25.273724l4.0819397 -8.753742l-8.753738 4.081936z" fill-rule="evenodd"/><path fill="#000000" fill-opacity="0.0" d="m19.30019 137.95338l220.37796 0l0 46.86615l-220.37796 0z" fill-rule="evenodd"/><path fill="#000000" d="m40.466114 163.51027l2.03125 -0.1875q0.140625 1.21875 0.65625 2.0q0.53125 0.78125 1.640625 1.265625q1.109375 0.484375 2.484375 0.484375q1.234375 0 2.171875 -0.359375q0.9375 -0.375 1.390625 -1.015625q0.46875 -0.640625 0.46875 -1.390625q0 -0.765625 -0.453125 -1.328125q-0.4375 -0.578125 -1.453125 -0.953125q-0.65625 -0.265625 -2.890625 -0.796875q-2.234375 -0.53125 -3.125 -1.015625q-1.15625 -0.609375 -1.734375 -1.5q-0.5625 -0.90625 -0.5625 -2.03125q0 -1.21875 0.6875 -2.28125q0.703125 -1.078125 2.03125 -1.625q1.34375 -0.5625 2.984375 -0.5625q1.8125 0 3.1875 0.59375q1.375 0.578125 2.109375 1.703125q0.75 1.125 0.796875 2.546875l-2.046875 0.15625q-0.171875 -1.53125 -1.140625 -2.3125q-0.953125 -0.796875 -2.8125 -0.796875q-1.953125 0 -2.84375 0.71875q-0.890625 0.71875 -0.890625 1.71875q0 0.875 0.640625 1.4375q0.609375 0.5625 3.21875 1.15625q2.625 0.59375 3.59375 1.03125q1.421875 0.65625 2.09375 1.65625q0.671875 1.0 0.671875 2.3125q0 1.296875 -0.734375 2.4375q-0.734375 1.140625 -2.125 1.78125q-1.390625 0.640625 -3.125 0.640625q-2.203125 0 -3.703125 -0.640625q-1.484375 -0.640625 -2.328125 -1.921875q-0.84375 -1.296875 -0.890625 -2.921875zm23.627163 1.421875l2.0625 0.25q-0.484375 1.8125 -1.8125 2.8125q-1.3124962 0.984375 -3.3593712 0.984375q-2.578125 0 -4.09375 -1.578125q-1.5 -1.59375 -1.5 -4.46875q0 -2.953125 1.53125 -4.59375q1.53125 -1.640625 3.953125 -1.640625q2.359375 0 3.8437462 1.609375q1.5 1.59375 1.5 4.515625q0 0.171875 0 0.53125l-8.765621 0q0.109375 1.9375 1.09375 2.96875q0.984375 1.015625 2.453125 1.015625q1.09375 0 1.859375 -0.5625q0.78125 -0.578125 1.2343712 -1.84375zm-6.531246 -3.21875l6.562496 0q-0.14062119 -1.484375 -0.7499962 -2.21875q-0.953125 -1.15625 -2.46875 -1.15625q-1.375 0 -2.3125 0.921875q-0.9375 0.90625 -1.03125 2.453125zm18.756573 5.546875q-1.109375 0.9375 -2.140625 1.328125q-1.015625 0.390625 -2.1875 0.390625q-1.9375 0 -2.984375 -0.9375q-1.03125 -0.953125 -1.03125 -2.421875q0 -0.859375 0.390625 -1.578125q0.40625 -0.71875 1.03125 -1.140625q0.640625 -0.4375 1.4375 -0.65625q0.59375 -0.15625 1.765625 -0.296875q2.421875 -0.296875 3.5625 -0.6875q0 -0.40625 0 -0.515625q0 -1.21875 -0.5625 -1.71875q-0.765625 -0.671875 -2.265625 -0.671875q-1.40625 0 -2.078125 0.5q-0.671875 0.484375 -0.984375 1.734375l-1.953125 -0.265625q0.265625 -1.25 0.875 -2.015625q0.609375 -0.78125 1.75 -1.1875q1.15625 -0.421875 2.671875 -0.421875q1.515625 0 2.453125 0.359375q0.9375 0.34375 1.375 0.890625q0.453125 0.53125 0.625 1.34375q0.09375 0.515625 0.09375 1.84375l0 2.65625q0 2.78125 0.125 3.515625q0.140625 0.734375 0.515625 1.40625l-2.078125 0q-0.3125 -0.625 -0.40625 -1.453125zm-0.15625 -4.4375q-1.09375 0.4375 -3.265625 0.75q-1.21875 0.171875 -1.734375 0.390625q-0.5 0.21875 -0.78125 0.65625q-0.28125 0.421875 -0.28125 0.9375q0 0.796875 0.609375 1.328125q0.609375 0.53125 1.765625 0.53125q1.140625 0 2.03125 -0.5q0.90625 -0.5 1.328125 -1.375q0.328125 -0.671875 0.328125 -2.0l0 -0.71875zm5.1003265 5.890625l0 -11.75l1.78125 0l0 1.65625q0.546875 -0.875 1.46875 -1.390625q0.921875 -0.53125 2.09375 -0.53125q1.296875 0 2.125 0.546875q0.84375 0.53125 1.1875 1.515625q1.390625 -2.0625 3.625 -2.0625q1.75 0 2.6875 0.96875q0.9375 0.96875 0.9375 2.984375l0 8.0625l-1.96875 0l0 -7.40625q0 -1.1875 -0.203125 -1.703125q-0.1875 -0.53125 -0.703125 -0.84375q-0.5 -0.328125 -1.1875 -0.328125q-1.234375 0 -2.0625 0.828125q-0.8125 0.8125 -0.8125 2.625l0 6.828125l-2.0 0l0 -7.640625q0 -1.3125 -0.484375 -1.96875q-0.484375 -0.671875 -1.59375 -0.671875q-0.84375 0 -1.5625 0.4375q-0.703125 0.4375 -1.03125 1.296875q-0.3125 0.84375 -0.3125 2.453125l0 6.09375l-1.984375 0zm18.825958 0l0 -16.21875l1.984375 0l0 16.21875l-1.984375 0zm13.111618 -3.78125l2.0625 0.25q-0.484375 1.8125 -1.8125 2.8125q-1.3125 0.984375 -3.359375 0.984375q-2.578125 0 -4.09375 -1.578125q-1.5 -1.59375 -1.5 -4.46875q0 -2.953125 1.53125 -4.59375q1.53125 -1.640625 3.953125 -1.640625q2.359375 0 3.84375 1.609375q1.5 1.59375 1.5 4.515625q0 0.171875 0 0.53125l-8.765625 0q0.109375 1.9375 1.09375 2.96875q0.984375 1.015625 2.453125 1.015625q1.09375 0 1.859375 -0.5625q0.78125 -0.578125 1.234375 -1.84375zm-6.53125 -3.21875l6.5625 0q-0.140625 -1.484375 -0.75 -2.21875q-0.953125 -1.15625 -2.46875 -1.15625q-1.375 0 -2.3125 0.921875q-0.9375 0.90625 -1.03125 2.453125zm10.303452 3.5l1.96875 -0.3125q0.15625 1.171875 0.90625 1.8125q0.765625 0.625 2.125 0.625q1.375 0 2.03125 -0.546875q0.671875 -0.5625 0.671875 -1.3125q0 -0.6875 -0.578125 -1.0625q-0.421875 -0.265625 -2.046875 -0.6875q-2.1875 -0.546875 -3.03125 -0.953125q-0.84375 -0.40625 -1.28125 -1.109375q-0.4375 -0.71875 -0.4375 -1.578125q0 -0.796875 0.359375 -1.453125q0.359375 -0.671875 0.984375 -1.125q0.453125 -0.328125 1.25 -0.5625q0.8125 -0.25 1.734375 -0.25q1.375 0 2.421875 0.40625q1.046875 0.390625 1.546875 1.078125q0.5 0.671875 0.6875 1.8125l-1.953125 0.265625q-0.125 -0.90625 -0.765625 -1.40625q-0.640625 -0.515625 -1.796875 -0.515625q-1.375 0 -1.96875 0.453125q-0.578125 0.453125 -0.578125 1.0625q0 0.390625 0.25 0.6875q0.234375 0.328125 0.75 0.53125q0.3125 0.125 1.765625 0.515625q2.109375 0.5625 2.9375 0.921875q0.84375 0.359375 1.3125 1.046875q0.484375 0.6875 0.484375 1.703125q0 1.0 -0.578125 1.875q-0.578125 0.875 -1.671875 1.359375q-1.09375 0.484375 -2.484375 0.484375q-2.296875 0 -3.5 -0.953125q-1.1875 -0.953125 -1.515625 -2.8125zm11.328125 0l1.96875 -0.3125q0.15625 1.171875 0.90625 1.8125q0.765625 0.625 2.125 0.625q1.375 0 2.03125 -0.546875q0.671875 -0.5625 0.671875 -1.3125q0 -0.6875 -0.578125 -1.0625q-0.421875 -0.265625 -2.046875 -0.6875q-2.1875 -0.546875 -3.03125 -0.953125q-0.84375 -0.40625 -1.28125 -1.109375q-0.4375 -0.71875 -0.4375 -1.578125q0 -0.796875 0.359375 -1.453125q0.359375 -0.671875 0.984375 -1.125q0.453125 -0.328125 1.25 -0.5625q0.8125 -0.25 1.734375 -0.25q1.375 0 2.421875 0.40625q1.046875 0.390625 1.546875 1.078125q0.5 0.671875 0.6875 1.8125l-1.953125 0.265625q-0.125 -0.90625 -0.765625 -1.40625q-0.640625 -0.515625 -1.796875 -0.515625q-1.375 0 -1.96875 0.453125q-0.578125 0.453125 -0.578125 1.0625q0 0.390625 0.25 0.6875q0.234375 0.328125 0.75 0.53125q0.3125 0.125 1.765625 0.515625q2.109375 0.5625 2.9375 0.921875q0.84375 0.359375 1.3125 1.046875q0.484375 0.6875 0.484375 1.703125q0 1.0 -0.578125 1.875q-0.578125 0.875 -1.671875 1.359375q-1.09375 0.484375 -2.484375 0.484375q-2.296875 0 -3.5 -0.953125q-1.1875 -0.953125 -1.515625 -2.8125zm17.935257 -1.703125l2.03125 -0.1875q0.140625 1.21875 0.65625 2.0q0.53125 0.78125 1.640625 1.265625q1.109375 0.484375 2.484375 0.484375q1.234375 0 2.171875 -0.359375q0.9375 -0.375 1.390625 -1.015625q0.46875 -0.640625 0.46875 -1.390625q0 -0.765625 -0.453125 -1.328125q-0.4375 -0.578125 -1.453125 -0.953125q-0.65625 -0.265625 -2.890625 -0.796875q-2.234375 -0.53125 -3.125 -1.015625q-1.15625 -0.609375 -1.734375 -1.5q-0.5625 -0.90625 -0.5625 -2.03125q0 -1.21875 0.6875 -2.28125q0.703125 -1.078125 2.03125 -1.625q1.34375 -0.5625 2.984375 -0.5625q1.8125 0 3.1875 0.59375q1.375 0.578125 2.109375 1.703125q0.75 1.125 0.796875 2.546875l-2.046875 0.15625q-0.171875 -1.53125 -1.140625 -2.3125q-0.953125 -0.796875 -2.8125 -0.796875q-1.953125 0 -2.84375 0.71875q-0.890625 0.71875 -0.890625 1.71875q0 0.875 0.640625 1.4375q0.609375 0.5625 3.21875 1.15625q2.625 0.59375 3.59375 1.03125q1.421875 0.65625 2.09375 1.65625q0.671875 1.0 0.671875 2.3125q0 1.296875 -0.734375 2.4375q-0.734375 1.140625 -2.125 1.78125q-1.390625 0.640625 -3.125 0.640625q-2.203125 0 -3.703125 -0.640625q-1.484375 -0.640625 -2.328125 -1.921875q-0.84375 -1.296875 -0.890625 -2.921875zm23.252167 0.90625l1.96875 0.25q-0.328125 2.015625 -1.65625 3.171875q-1.3125 1.140625 -3.234375 1.140625q-2.421875 0 -3.890625 -1.578125q-1.453125 -1.578125 -1.453125 -4.515625q0 -1.90625 0.625 -3.328125q0.625 -1.4375 1.90625 -2.140625q1.296875 -0.71875 2.8125 -0.71875q1.921875 0 3.140625 0.96875q1.21875 0.96875 1.5625 2.75l-1.9375 0.296875q-0.28125 -1.1875 -0.984375 -1.78125q-0.703125 -0.59375 -1.703125 -0.59375q-1.5 0 -2.4375 1.078125q-0.9375 1.078125 -0.9375 3.40625q0 2.375 0.90625 3.453125q0.90625 1.0625 2.359375 1.0625q1.171875 0 1.953125 -0.71875q0.796875 -0.71875 1.0 -2.203125zm11.328125 2.84375q-1.109375 0.9375 -2.140625 1.328125q-1.015625 0.390625 -2.1875 0.390625q-1.9375 0 -2.984375 -0.9375q-1.03125 -0.953125 -1.03125 -2.421875q0 -0.859375 0.390625 -1.578125q0.40625 -0.71875 1.03125 -1.140625q0.640625 -0.4375 1.4375 -0.65625q0.59375 -0.15625 1.765625 -0.296875q2.421875 -0.296875 3.5625 -0.6875q0 -0.40625 0 -0.515625q0 -1.21875 -0.5625 -1.71875q-0.765625 -0.671875 -2.265625 -0.671875q-1.40625 0 -2.078125 0.5q-0.671875 0.484375 -0.984375 1.734375l-1.953125 -0.265625q0.265625 -1.25 0.875 -2.015625q0.609375 -0.78125 1.75 -1.1875q1.15625 -0.421875 2.671875 -0.421875q1.515625 0 2.453125 0.359375q0.9375 0.34375 1.375 0.890625q0.453125 0.53125 0.625 1.34375q0.09375 0.515625 0.09375 1.84375l0 2.65625q0 2.78125 0.125 3.515625q0.140625 0.734375 0.515625 1.40625l-2.078125 0q-0.3125 -0.625 -0.40625 -1.453125zm-0.15625 -4.4375q-1.09375 0.4375 -3.265625 0.75q-1.21875 0.171875 -1.734375 0.390625q-0.5 0.21875 -0.78125 0.65625q-0.28125 0.421875 -0.28125 0.9375q0 0.796875 0.609375 1.328125q0.609375 0.53125 1.765625 0.53125q1.140625 0 2.03125 -0.5q0.90625 -0.5 1.328125 -1.375q0.328125 -0.671875 0.328125 -2.0l0 -0.71875zm5.0534515 5.890625l0 -16.21875l1.984375 0l0 16.21875l-1.984375 0zm5.080368 -13.921875l0 -2.296875l2.0 0l0 2.296875l-2.0 0zm0 13.921875l0 -11.75l2.0 0l0 11.75l-2.0 0zm5.033493 0l0 -11.75l1.78125 0l0 1.671875q1.296875 -1.9375 3.75 -1.9375q1.0625 0 1.953125 0.390625q0.890625 0.375 1.328125 1.0q0.4375 0.609375 0.625 1.46875q0.109375 0.546875 0.109375 1.9375l0 7.21875l-2.0 0l0 -7.140625q0 -1.21875 -0.234375 -1.8125q-0.234375 -0.609375 -0.828125 -0.96875q-0.578125 -0.359375 -1.375 -0.359375q-1.28125 0 -2.203125 0.8125q-0.921875 0.796875 -0.921875 3.046875l0 6.421875l-1.984375 0zm12.225327 0.96875l1.9375 0.296875q0.125 0.890625 0.671875 1.296875q0.75 0.5625 2.03125 0.5625q1.375 0 2.125 -0.5625q0.765625 -0.546875 1.03125 -1.546875q0.15625 -0.609375 0.140625 -2.546875q-1.3125 1.53125 -3.25 1.53125q-2.421875 0 -3.75 -1.75q-1.328125 -1.75 -1.328125 -4.1875q0 -1.6875 0.609375 -3.109375q0.609375 -1.421875 1.765625 -2.1875q1.15625 -0.78125 2.703125 -0.78125q2.09375 0 3.4375 1.6875l0 -1.421875l1.828125 0l0 10.15625q0 2.75 -0.5625 3.890625q-0.546875 1.140625 -1.765625 1.796875q-1.203125 0.671875 -2.96875 0.671875q-2.109375 0 -3.40625 -0.953125q-1.296875 -0.9375 -1.25 -2.84375zm1.65625 -7.046875q0 2.3125 0.90625 3.375q0.921875 1.0625 2.3125 1.0625q1.375 0 2.296875 -1.0625q0.921875 -1.0625 0.921875 -3.3125q0 -2.15625 -0.953125 -3.25q-0.953125 -1.09375 -2.296875 -1.09375q-1.328125 0 -2.265625 1.078125q-0.921875 1.078125 -0.921875 3.203125z" fill-rule="nonzero"/><path fill="#000000" fill-opacity="0.0" d="m314.3002 137.95338l195.874 0l0 46.86615l-195.874 0z" fill-rule="evenodd"/><path fill="#000000" d="m350.12155 152.49464l2.140625 0l0 9.375q0 2.4375 -0.546875 3.875q-0.546875 1.4375 -2.0 2.34375q-1.4375 0.90625 -3.78125 0.90625q-2.28125 0 -3.734375 -0.78125q-1.453125 -0.796875 -2.078125 -2.28125q-0.609375 -1.484375 -0.609375 -4.0625l0 -9.375l2.140625 0l0 9.359375q0 2.109375 0.390625 3.109375q0.40625 1.0 1.359375 1.546875q0.953125 0.546875 2.34375 0.546875q2.359375 0 3.359375 -1.078125q1.015625 -1.078125 1.015625 -4.125l0 -9.359375zm5.470978 16.21875l0 -11.75l1.78125 0l0 1.671875q1.296875 -1.9375 3.75 -1.9375q1.0625 0 1.953125 0.390625q0.890625 0.375 1.328125 1.0q0.4375 0.609375 0.625 1.46875q0.109375 0.546875 0.109375 1.9375l0 7.21875l-2.0 0l0 -7.140625q0 -1.21875 -0.234375 -1.8125q-0.234375 -0.609375 -0.828125 -0.96875q-0.578125 -0.359375 -1.375 -0.359375q-1.28125 0 -2.203125 0.8125q-0.921875 0.796875 -0.921875 3.046875l0 6.421875l-1.984375 0zm12.600342 -13.921875l0 -2.296875l2.0 0l0 2.296875l-2.0 0zm0 13.921875l0 -11.75l2.0 0l0 11.75l-2.0 0zm5.502228 0l0 -10.203125l-1.765625 0l0 -1.546875l1.765625 0l0 -1.25q0 -1.1875 0.203125 -1.75q0.296875 -0.78125 1.015625 -1.265625q0.734375 -0.484375 2.03125 -0.484375q0.84375 0 1.859375 0.203125l-0.296875 1.734375q-0.625 -0.109375 -1.171875 -0.109375q-0.90625 0 -1.28125 0.390625q-0.375 0.390625 -0.375 1.453125l0 1.078125l2.28125 0l0 1.546875l-2.28125 0l0 10.203125l-1.984375 0zm5.825897 -13.921875l0 -2.296875l2.0 0l0 2.296875l-2.0 0zm0 13.921875l0 -11.75l2.0 0l0 11.75l-2.0 0zm13.064728 -3.78125l2.0625 0.25q-0.484375 1.8125 -1.8125 2.8125q-1.3125 0.984375 -3.359375 0.984375q-2.578125 0 -4.09375 -1.578125q-1.5 -1.59375 -1.5 -4.46875q0 -2.953125 1.53125 -4.59375q1.53125 -1.640625 3.953125 -1.640625q2.359375 0 3.84375 1.609375q1.5 1.59375 1.5 4.515625q0 0.171875 0 0.53125l-8.765625 0q0.109375 1.9375 1.09375 2.96875q0.984375 1.015625 2.453125 1.015625q1.09375 0 1.859375 -0.5625q0.78125 -0.578125 1.234375 -1.84375zm-6.53125 -3.21875l6.5625 0q-0.140625 -1.484375 -0.75 -2.21875q-0.953125 -1.15625 -2.46875 -1.15625q-1.375 0 -2.3125 0.921875q-0.9375 0.90625 -1.03125 2.453125zm18.709717 7.0l0 -1.484375q-1.109375 1.75 -3.28125 1.75q-1.40625 0 -2.59375 -0.765625q-1.171875 -0.78125 -1.8125 -2.171875q-0.640625 -1.390625 -0.640625 -3.1875q0 -1.765625 0.578125 -3.1875q0.59375 -1.4375 1.765625 -2.203125q1.171875 -0.765625 2.609375 -0.765625q1.0625 0 1.890625 0.453125q0.84375 0.4375 1.359375 1.15625l0 -5.8125l1.984375 0l0 16.21875l-1.859375 0zm-6.28125 -5.859375q0 2.25 0.9375 3.375q0.953125 1.109375 2.25 1.109375q1.3125 0 2.21875 -1.0625q0.921875 -1.0625 0.921875 -3.265625q0 -2.40625 -0.9375 -3.53125q-0.921875 -1.125 -2.296875 -1.125q-1.3125 0 -2.203125 1.078125q-0.890625 1.078125 -0.890625 3.421875zm17.754333 5.859375l0 -16.21875l3.21875 0l3.84375 11.484375q0.53125 1.609375 0.78125 2.40625q0.265625 -0.890625 0.859375 -2.609375l3.875 -11.28125l2.890625 0l0 16.21875l-2.0625 0l0 -13.578125l-4.71875 13.578125l-1.9375 0l-4.6875 -13.8125l0 13.8125l-2.0625 0zm18.841583 0l0 -16.21875l2.15625 0l0 14.3125l7.984375 0l0 1.90625l-10.140625 0zm15.115662 0l6.21875 -16.21875l2.3125 0l6.640625 16.21875l-2.4375 0l-1.890625 -4.90625l-6.78125 0l-1.78125 4.90625l-2.28125 0zm4.671875 -6.65625l5.5 0l-1.6875 -4.5q-0.78125 -2.046875 -1.15625 -3.359375q-0.3125 1.5625 -0.875 3.09375l-1.78125 4.765625zm12.220917 6.65625l0 -16.21875l6.109375 0q1.625 0 2.46875 0.15625q1.203125 0.203125 2.0 0.765625q0.8125 0.546875 1.296875 1.5625q0.5 1.0 0.5 2.203125q0 2.078125 -1.3125 3.515625q-1.3125 1.421875 -4.765625 1.421875l-4.15625 0l0 6.59375l-2.140625 0zm2.140625 -8.5l4.203125 0q2.078125 0 2.953125 -0.78125q0.875 -0.78125 0.875 -2.171875q0 -1.03125 -0.515625 -1.75q-0.515625 -0.71875 -1.359375 -0.953125q-0.546875 -0.140625 -2.0 -0.140625l-4.15625 0l0 5.796875zm13.330292 8.5l0 -16.21875l2.15625 0l0 16.21875l-2.15625 0z" fill-rule="nonzero"/><path fill="#000000" fill-opacity="0.0" d="m583.5095 137.95338l256.063 0l0 46.86615l-256.063 0z" fill-rule="evenodd"/><path fill="#000000" d="m607.4624 160.80714q0 -4.03125 2.171875 -6.3125q2.171875 -2.28125 5.59375 -2.28125q2.25 0 4.046875 1.078125q1.8125 1.0625 2.75 2.984375q0.953125 1.921875 0.953125 4.34375q0 2.46875 -1.0 4.421875q-1.0 1.953125 -2.828125 2.953125q-1.8125 1.0 -3.9375 1.0q-2.28125 0 -4.09375 -1.109375q-1.796875 -1.109375 -2.734375 -3.015625q-0.921875 -1.921875 -0.921875 -4.0625zm2.21875 0.046875q0 2.921875 1.5625 4.609375q1.578125 1.6875 3.96875 1.6875q2.421875 0 3.984375 -1.703125q1.5625 -1.703125 1.5625 -4.828125q0 -1.984375 -0.671875 -3.453125q-0.671875 -1.484375 -1.96875 -2.296875q-1.28125 -0.8125 -2.875 -0.8125q-2.28125 0 -3.921875 1.5625q-1.640625 1.5625 -1.640625 5.234375zm15.810303 12.359375l0 -16.25l1.8125 0l0 1.53125q0.640625 -0.90625 1.4375 -1.34375q0.8125 -0.453125 1.96875 -0.453125q1.5 0 2.640625 0.78125q1.15625 0.765625 1.734375 2.1875q0.59375 1.40625 0.59375 3.078125q0 1.8125 -0.640625 3.265625q-0.640625 1.4375 -1.875 2.203125q-1.234375 0.765625 -2.59375 0.765625q-1.0 0 -1.796875 -0.421875q-0.78125 -0.421875 -1.296875 -1.0625l0 5.71875l-1.984375 0zm1.796875 -10.3125q0 2.265625 0.921875 3.359375q0.921875 1.078125 2.21875 1.078125q1.328125 0 2.265625 -1.125q0.953125 -1.125 0.953125 -3.46875q0 -2.25 -0.921875 -3.359375q-0.921875 -1.125 -2.203125 -1.125q-1.28125 0 -2.265625 1.1875q-0.96875 1.1875 -0.96875 3.453125zm18.834656 2.03125l2.0625 0.25q-0.484375 1.8125 -1.8125 2.8125q-1.3125 0.984375 -3.359375 0.984375q-2.578125 0 -4.09375 -1.578125q-1.5 -1.59375 -1.5 -4.46875q0 -2.953125 1.53125 -4.59375q1.53125 -1.640625 3.953125 -1.640625q2.359375 0 3.84375 1.609375q1.5 1.59375 1.5 4.515625q0 0.171875 0 0.53125l-8.765625 0q0.109375 1.9375 1.09375 2.96875q0.984375 1.015625 2.453125 1.015625q1.09375 0 1.859375 -0.5625q0.78125 -0.578125 1.234375 -1.84375zm-6.53125 -3.21875l6.5625 0q-0.140625 -1.484375 -0.75 -2.21875q-0.953125 -1.15625 -2.46875 -1.15625q-1.375 0 -2.3125 0.921875q-0.9375 0.90625 -1.03125 2.453125zm11.100342 7.0l0 -11.75l1.78125 0l0 1.671875q1.296875 -1.9375 3.75 -1.9375q1.0625 0 1.953125 0.390625q0.890625 0.375 1.328125 1.0q0.4375 0.609375 0.625 1.46875q0.109375 0.546875 0.109375 1.9375l0 7.21875l-2.0 0l0 -7.140625q0 -1.21875 -0.234375 -1.8125q-0.234375 -0.609375 -0.828125 -0.96875q-0.578125 -0.359375 -1.375 -0.359375q-1.28125 0 -2.203125 0.8125q-0.921875 0.796875 -0.921875 3.046875l0 6.421875l-1.984375 0zm26.551208 -1.453125q-1.109375 0.9375 -2.140625 1.328125q-1.015625 0.390625 -2.1875 0.390625q-1.9375 0 -2.984375 -0.9375q-1.03125 -0.953125 -1.03125 -2.421875q0 -0.859375 0.390625 -1.578125q0.40625 -0.71875 1.03125 -1.140625q0.640625 -0.4375 1.4375 -0.65625q0.59375 -0.15625 1.765625 -0.296875q2.421875 -0.296875 3.5625 -0.6875q0 -0.40625 0 -0.515625q0 -1.21875 -0.5625 -1.71875q-0.765625 -0.671875 -2.265625 -0.671875q-1.40625 0 -2.078125 0.5q-0.671875 0.484375 -0.984375 1.734375l-1.953125 -0.265625q0.265625 -1.25 0.875 -2.015625q0.609375 -0.78125 1.75 -1.1875q1.15625 -0.421875 2.671875 -0.421875q1.515625 0 2.453125 0.359375q0.9375 0.34375 1.375 0.890625q0.453125 0.53125 0.625 1.34375q0.09375 0.515625 0.09375 1.84375l0 2.65625q0 2.78125 0.125 3.515625q0.140625 0.734375 0.515625 1.40625l-2.078125 0q-0.3125 -0.625 -0.40625 -1.453125zm-0.15625 -4.4375q-1.09375 0.4375 -3.265625 0.75q-1.21875 0.171875 -1.734375 0.390625q-0.5 0.21875 -0.78125 0.65625q-0.28125 0.421875 -0.28125 0.9375q0 0.796875 0.609375 1.328125q0.609375 0.53125 1.765625 0.53125q1.140625 0 2.03125 -0.5q0.90625 -0.5 1.328125 -1.375q0.328125 -0.671875 0.328125 -2.0l0 -0.71875zm5.100342 5.890625l0 -11.75l1.78125 0l0 1.671875q1.296875 -1.9375 3.75 -1.9375q1.0625 0 1.953125 0.390625q0.890625 0.375 1.328125 1.0q0.4375 0.609375 0.625 1.46875q0.109375 0.546875 0.109375 1.9375l0 7.21875l-2.0 0l0 -7.140625q0 -1.21875 -0.234375 -1.8125q-0.234375 -0.609375 -0.828125 -0.96875q-0.578125 -0.359375 -1.375 -0.359375q-1.28125 0 -2.203125 0.8125q-0.921875 0.796875 -0.921875 3.046875l0 6.421875l-1.984375 0zm20.209717 0l0 -1.484375q-1.109375 1.75 -3.28125 1.75q-1.40625 0 -2.59375 -0.765625q-1.171875 -0.78125 -1.8125 -2.171875q-0.640625 -1.390625 -0.640625 -3.1875q0 -1.765625 0.578125 -3.1875q0.59375 -1.4375 1.765625 -2.203125q1.171875 -0.765625 2.609375 -0.765625q1.0625 0 1.890625 0.453125q0.84375 0.4375 1.359375 1.15625l0 -5.8125l1.984375 0l0 16.21875l-1.859375 0zm-6.28125 -5.859375q0 2.25 0.9375 3.375q0.953125 1.109375 2.25 1.109375q1.3125 0 2.21875 -1.0625q0.921875 -1.0625 0.921875 -3.265625q0 -2.40625 -0.9375 -3.53125q-0.921875 -1.125 -2.296875 -1.125q-1.3125 0 -2.203125 1.078125q-0.890625 1.078125 -0.890625 3.421875zm17.863708 5.859375l0 -16.21875l11.71875 0l0 1.921875l-9.578125 0l0 4.953125l8.96875 0l0 1.90625l-8.96875 0l0 5.53125l9.953125 0l0 1.90625l-12.09375 0zm13.486511 0l4.28125 -6.109375l-3.96875 -5.640625l2.484375 0l1.8125 2.75q0.5 0.796875 0.8125 1.328125q0.484375 -0.734375 0.90625 -1.296875l1.96875 -2.78125l2.390625 0l-4.0625 5.53125l4.359375 6.21875l-2.4375 0l-2.40625 -3.65625l-0.640625 -0.984375l-3.09375 4.640625l-2.40625 0zm17.0 -1.78125l0.28125 1.765625q-0.84375 0.171875 -1.5 0.171875q-1.078125 0 -1.6875 -0.34375q-0.59375 -0.34375 -0.84375 -0.890625q-0.234375 -0.5625 -0.234375 -2.359375l0 -6.765625l-1.46875 0l0 -1.546875l1.46875 0l0 -2.90625l1.984375 -1.203125l0 4.109375l2.0 0l0 1.546875l-2.0 0l0 6.875q0 0.84375 0.09375 1.09375q0.109375 0.25 0.34375 0.390625q0.25 0.140625 0.6875 0.140625q0.328125 0 0.875 -0.078125zm9.982117 -2.0l2.0625 0.25q-0.484375 1.8125 -1.8125 2.8125q-1.3125 0.984375 -3.359375 0.984375q-2.578125 0 -4.09375 -1.578125q-1.5 -1.59375 -1.5 -4.46875q0 -2.953125 1.53125 -4.59375q1.53125 -1.640625 3.953125 -1.640625q2.359375 0 3.84375 1.609375q1.5 1.59375 1.5 4.515625q0 0.171875 0 0.53125l-8.765625 0q0.109375 1.9375 1.09375 2.96875q0.984375 1.015625 2.453125 1.015625q1.09375 0 1.859375 -0.5625q0.78125 -0.578125 1.234375 -1.84375zm-6.53125 -3.21875l6.5625 0q-0.140625 -1.484375 -0.75 -2.21875q-0.953125 -1.15625 -2.46875 -1.15625q-1.375 0 -2.3125 0.921875q-0.9375 0.90625 -1.03125 2.453125zm11.100342 7.0l0 -11.75l1.78125 0l0 1.671875q1.296875 -1.9375 3.75 -1.9375q1.0625 0 1.953125 0.390625q0.890625 0.375 1.328125 1.0q0.4375 0.609375 0.625 1.46875q0.109375 0.546875 0.109375 1.9375l0 7.21875l-2.0 0l0 -7.140625q0 -1.21875 -0.234375 -1.8125q-0.234375 -0.609375 -0.828125 -0.96875q-0.578125 -0.359375 -1.375 -0.359375q-1.28125 0 -2.203125 0.8125q-0.921875 0.796875 -0.921875 3.046875l0 6.421875l-1.984375 0zm11.803467 -3.5l1.96875 -0.3125q0.15625 1.171875 0.90625 1.8125q0.765625 0.625 2.125 0.625q1.375 0 2.03125 -0.546875q0.671875 -0.5625 0.671875 -1.3125q0 -0.6875 -0.578125 -1.0625q-0.421875 -0.265625 -2.046875 -0.6875q-2.1875 -0.546875 -3.03125 -0.953125q-0.84375 -0.40625 -1.28125 -1.109375q-0.4375 -0.71875 -0.4375 -1.578125q0 -0.796875 0.359375 -1.453125q0.359375 -0.671875 0.984375 -1.125q0.453125 -0.328125 1.25 -0.5625q0.8125 -0.25 1.734375 -0.25q1.375 0 2.421875 0.40625q1.046875 0.390625 1.546875 1.078125q0.5 0.671875 0.6875 1.8125l-1.953125 0.265625q-0.125 -0.90625 -0.765625 -1.40625q-0.640625 -0.515625 -1.796875 -0.515625q-1.375 0 -1.96875 0.453125q-0.578125 0.453125 -0.578125 1.0625q0 0.390625 0.25 0.6875q0.234375 0.328125 0.75 0.53125q0.3125 0.125 1.765625 0.515625q2.109375 0.5625 2.9375 0.921875q0.84375 0.359375 1.3125 1.046875q0.484375 0.6875 0.484375 1.703125q0 1.0 -0.578125 1.875q-0.578125 0.875 -1.671875 1.359375q-1.09375 0.484375 -2.484375 0.484375q-2.296875 0 -3.5 -0.953125q-1.1875 -0.953125 -1.515625 -2.8125zm12.125 -10.421875l0 -2.296875l2.0 0l0 2.296875l-2.0 0zm0 13.921875l0 -11.75l2.0 0l0 11.75l-2.0 0zm6.8616333 0l-1.84375 0l0 -16.21875l1.984375 0l0 5.78125q1.265625 -1.578125 3.21875 -1.578125q1.09375 0 2.0625 0.4375q0.96875 0.4375 1.59375 1.234375q0.625 0.78125 0.96875 1.90625q0.359375 1.109375 0.359375 2.390625q0 3.015625 -1.5 4.671875q-1.484375 1.640625 -3.578125 1.640625q-2.078125 0 -3.265625 -1.734375l0 1.46875zm-0.015625 -5.96875q0 2.125 0.578125 3.0625q0.9375 1.53125 2.53125 1.53125q1.3125 0 2.265625 -1.125q0.953125 -1.140625 0.953125 -3.390625q0 -2.296875 -0.921875 -3.390625q-0.90625 -1.09375 -2.203125 -1.09375q-1.3125 0 -2.265625 1.140625q-0.9375 1.125 -0.9375 3.265625zm10.740906 5.96875l0 -16.21875l1.984375 0l0 16.21875l-1.984375 0zm13.111633 -3.78125l2.0625 0.25q-0.484375 1.8125 -1.8125 2.8125q-1.3125 0.984375 -3.359375 0.984375q-2.578125 0 -4.09375 -1.578125q-1.5 -1.59375 -1.5 -4.46875q0 -2.953125 1.53125 -4.59375q1.53125 -1.640625 3.953125 -1.640625q2.359375 0 3.84375 1.609375q1.5 1.59375 1.5 4.515625q0 0.171875 0 0.53125l-8.765625 0q0.109375 1.9375 1.09375 2.96875q0.984375 1.015625 2.453125 1.015625q1.09375 0 1.859375 -0.5625q0.78125 -0.578125 1.234375 -1.84375zm-6.53125 -3.21875l6.5625 0q-0.140625 -1.484375 -0.75 -2.21875q-0.953125 -1.15625 -2.46875 -1.15625q-1.375 0 -2.3125 0.921875q-0.9375 0.90625 -1.03125 2.453125z" fill-rule="nonzero"/><path fill="#a794ff" fill-opacity="0.4611" d="m647.70337 67.4862l0 0c0 -33.276245 30.226074 -60.25197 67.51178 -60.25197l0 0c37.285767 0 67.51184 26.975725 67.51184 60.25197l0 0c0 33.276245 -30.226074 60.25197 -67.51184 60.25197l0 0c-37.285706 0 -67.51178 -26.975723 -67.51178 -60.25197z" fill-rule="evenodd"/><path stroke="#a794ff" stroke-width="2.0" stroke-linejoin="round" stroke-linecap="butt" stroke-dasharray="8.0,6.0" d="m647.70337 67.4862l0 0c0 -33.276245 30.226074 -60.25197 67.51178 -60.25197l0 0c37.285767 0 67.51184 26.975725 67.51184 60.25197l0 0c0 33.276245 -30.226074 60.25197 -67.51184 60.25197l0 0c-37.285706 0 -67.51178 -26.975723 -67.51178 -60.25197z" fill-rule="evenodd"/><path fill="#e0f4e9" d="m647.9043 67.50551l0 0c0 -24.34402 26.129639 -44.078743 58.362183 -44.078743l0 0c32.232544 0 58.362183 19.734722 58.362183 44.078743l0 0c0 24.34401 -26.129639 44.078735 -58.362183 44.078735l0 0c-32.232544 0 -58.362183 -19.734726 -58.362183 -44.078735z" fill-rule="evenodd"/><path stroke="#25b48d" stroke-width="2.0" stroke-linejoin="round" stroke-linecap="butt" stroke-dasharray="8.0,6.0" d="m647.9043 67.50551l0 0c0 -24.34402 26.129639 -44.078743 58.362183 -44.078743l0 0c32.232544 0 58.362183 19.734722 58.362183 44.078743l0 0c0 24.34401 -26.129639 44.078735 -58.362183 44.078735l0 0c-32.232544 0 -58.362183 -19.734726 -58.362183 -44.078735z" fill-rule="evenodd"/><path fill="#ccecfb" d="m647.9056 67.71835l0 0c0 -16.464172 22.43512 -29.81102 50.11023 -29.81102l0 0c27.67517 0 50.11029 13.346848 50.11029 29.81102l0 0c0 16.46418 -22.43512 29.811028 -50.11029 29.811028l0 0c-27.67511 0 -50.11023 -13.346848 -50.11023 -29.811028z" fill-rule="evenodd"/><path stroke="#00a2e9" stroke-width="2.0" stroke-linejoin="round" stroke-linecap="butt" d="m647.9056 67.71835l0 0c0 -16.464172 22.43512 -29.81102 50.11023 -29.81102l0 0c27.67517 0 50.11029 13.346848 50.11029 29.81102l0 0c0 16.46418 -22.43512 29.811028 -50.11029 29.811028l0 0c-27.67511 0 -50.11023 -13.346848 -50.11023 -29.811028z" fill-rule="evenodd"/><path fill="#85ddb5" fill-opacity="0.3036" d="m339.58728 12.172548l33.29132 0l0 41.543304l-33.29132 0z" fill-rule="evenodd"/><path stroke="#25b48d" stroke-width="2.0" stroke-linejoin="round" stroke-linecap="butt" d="m339.58728 12.172548l33.29132 0l0 41.543304l-33.29132 0z" fill-rule="evenodd"/><path fill="#ccecfb" d="m339.58728 85.5295l33.29132 0l0 41.543304l-33.29132 0z" fill-rule="evenodd"/><path stroke="#00a2e9" stroke-width="2.0" stroke-linejoin="round" stroke-linecap="butt" d="m339.58728 85.5295l33.29132 0l0 41.543304l-33.29132 0z" fill-rule="evenodd"/><path fill="#ccecfb" d="m379.32028 85.5295l33.29135 0l0 41.543304l-33.29135 0z" fill-rule="evenodd"/><path stroke="#00a2e9" stroke-width="2.0" stroke-linejoin="round" stroke-linecap="butt" d="m379.32028 85.5295l33.29135 0l0 41.543304l-33.29135 0z" fill-rule="evenodd"/><path fill="#ccecfb" d="m419.05328 85.5295l33.29135 0l0 41.543304l-33.29135 0z" fill-rule="evenodd"/><path stroke="#00a2e9" stroke-width="2.0" stroke-linejoin="round" stroke-linecap="butt" d="m419.05328 85.5295l33.29135 0l0 41.543304l-33.29135 0z" fill-rule="evenodd"/><path fill="#ccecfb" d="m458.7863 85.5295l33.29135 0l0 41.543304l-33.29135 0z" fill-rule="evenodd"/><path stroke="#00a2e9" stroke-width="2.0" stroke-linejoin="round" stroke-linecap="butt" d="m458.7863 85.5295l33.29135 0l0 41.543304l-33.29135 0z" fill-rule="evenodd"/><path fill="#000000" fill-opacity="0.0" d="m356.2338 85.52997l0 -31.46457" fill-rule="evenodd"/><path stroke="#25b48d" stroke-width="2.0" stroke-linejoin="round" stroke-linecap="butt" d="m356.2338 85.52997l0 -19.46457" fill-rule="evenodd"/><path fill="#25b48d" stroke="#25b48d" stroke-width="2.0" stroke-linecap="butt" d="m359.53726 66.0654l-3.3034668 -9.076195l-3.3034668 9.076195z" fill-rule="evenodd"/><path fill="#000000" fill-opacity="0.0" d="m395.9668 85.52997l0 -31.46457" fill-rule="evenodd"/><path stroke="#25b48d" stroke-width="2.0" stroke-linejoin="round" stroke-linecap="butt" d="m395.96677 85.52997l0 -19.46457" fill-rule="evenodd"/><path fill="#25b48d" stroke="#25b48d" stroke-width="2.0" stroke-linecap="butt" d="m399.27023 66.0654l-3.3034668 -9.076195l-3.3034363 9.076195z" fill-rule="evenodd"/><path fill="#000000" fill-opacity="0.0" d="m435.6998 85.35542l0 -31.464561" fill-rule="evenodd"/><path stroke="#25b48d" stroke-width="2.0" stroke-linejoin="round" stroke-linecap="butt" d="m435.6998 85.35543l0 -19.46457" fill-rule="evenodd"/><path fill="#25b48d" stroke="#25b48d" stroke-width="2.0" stroke-linecap="butt" d="m439.00327 65.89086l-3.3034668 -9.076195l-3.3034668 9.076195z" fill-rule="evenodd"/><path fill="#000000" fill-opacity="0.0" d="m475.4328 85.35542l0 -31.464561" fill-rule="evenodd"/><path stroke="#25b48d" stroke-width="2.0" stroke-linejoin="round" stroke-linecap="butt" d="m475.43283 85.35543l0 -19.46457" fill-rule="evenodd"/><path fill="#25b48d" stroke="#25b48d" stroke-width="2.0" stroke-linecap="butt" d="m478.7363 65.89086l-3.3034668 -9.076195l-3.3034668 9.076195z" fill-rule="evenodd"/><path fill="#85ddb5" fill-opacity="0.3036" d="m379.32028 12.172548l33.29135 0l0 41.543304l-33.29135 0z" fill-rule="evenodd"/><path stroke="#25b48d" stroke-width="2.0" stroke-linejoin="round" stroke-linecap="butt" d="m379.32028 12.172548l33.29135 0l0 41.543304l-33.29135 0z" fill-rule="evenodd"/><path fill="#85ddb5" fill-opacity="0.3036" d="m419.05328 12.175173l33.29135 0l0 41.543304l-33.29135 0z" fill-rule="evenodd"/><path stroke="#25b48d" stroke-width="2.0" stroke-linejoin="round" stroke-linecap="butt" d="m419.05328 12.175173l33.29135 0l0 41.543304l-33.29135 0z" fill-rule="evenodd"/><path fill="#85ddb5" fill-opacity="0.3036" d="m458.7863 12.175173l33.29135 0l0 41.543304l-33.29135 0z" fill-rule="evenodd"/><path stroke="#25b48d" stroke-width="2.0" stroke-linejoin="round" stroke-linecap="butt" d="m458.7863 12.175173l33.29135 0l0 41.543304l-33.29135 0z" fill-rule="evenodd"/></g></svg>