<svg version="1.1" viewBox="0.0 0.0 623.0288713910761 142.03149606299212" fill="none" stroke="none" stroke-linecap="square" stroke-miterlimit="10" xmlns:xlink="http://www.w3.org/1999/xlink" xmlns="http://www.w3.org/2000/svg"><clipPath id="p.0"><path d="m0 0l623.0289 0l0 142.0315l-623.0289 0l0 -142.0315z" clip-rule="nonzero"/></clipPath><g clip-path="url(#p.0)"><path fill="#ffffff" d="m0 0l623.0289 0l0 142.0315l-623.0289 0z" fill-rule="evenodd"/><path fill="#ffffff" d="m45.5873 3.5279005l80.0 0l0 80.0l-80.0 0z" fill-rule="evenodd"/><path stroke="#25b48d" stroke-width="2.0" stroke-linejoin="round" stroke-linecap="butt" stroke-dasharray="8.0,6.0" d="m45.5873 3.5279005l80.0 0l0 80.0l-80.0 0z" fill-rule="evenodd"/><path fill="#000000" fill-opacity="0.0" d="m203.05048 92.25236l210.51968 0l0 38.77166l-210.51968 0z" fill-rule="evenodd"/><path fill="#00375c" d="m256.90247 105.45611l0 7.0625q0 1.484375 0.71875 2.203125q0.734375 0.71875 2.03125 0.71875q1.28125 0 2.0 -0.71875q0.734375 -0.71875 0.734375 -2.203125l0 -7.0625l1.453125 0l0 7.046875q0 1.390625 -0.5625 2.34375q-0.546875 0.953125 -1.5 1.421875q-0.953125 0.453125 -2.140625 0.453125q-1.1875 0 -2.140625 -0.453125q-0.953125 -0.46875 -1.5 -1.421875q-0.546875 -0.953125 -0.546875 -2.34375l0 -7.046875l1.453125 0zm13.643768 2.234375q1.609375 0 2.59375 0.96875q1.0 0.96875 1.0 2.78125l0 5.171875l-1.453125 0l0 -4.953125q0 -1.3125 -0.65625 -2.0q-0.640625 -0.703125 -1.78125 -0.703125q-1.15625 0 -1.84375 0.71875q-0.671875 0.71875 -0.671875 2.09375l0 4.84375l-1.453125 0l0 -8.765625l1.453125 0l0 1.25q0.4375 -0.671875 1.171875 -1.03125q0.75 -0.375 1.640625 -0.375zm6.7243958 -1.265625q-0.421875 0 -0.71875 -0.28125q-0.28125 -0.296875 -0.28125 -0.71875q0 -0.40625 0.28125 -0.6875q0.296875 -0.296875 0.71875 -0.296875q0.40625 0 0.671875 0.296875q0.28125 0.28125 0.28125 0.6875q0 0.421875 -0.28125 0.71875q-0.265625 0.28125 -0.671875 0.28125zm0.703125 1.421875l0 8.765625l-1.453125 0l0 -8.765625l1.453125 0zm6.0453796 1.203125l-1.84375 0l0 7.5625l-1.453125 0l0 -7.5625l-1.125 0l0 -1.203125l1.125 0l0 -0.625q0 -1.46875 0.765625 -2.140625q0.765625 -0.6875 2.4375 -0.6875l0 1.203125q-0.953125 0 -1.359375 0.390625q-0.390625 0.375 -0.390625 1.234375l0 0.625l1.84375 0l0 1.203125zm2.4515076 -2.625q-0.421875 0 -0.71875 -0.28125q-0.28125 -0.296875 -0.28125 -0.71875q0 -0.40625 0.28125 -0.6875q0.296875 -0.296875 0.71875 -0.296875q0.40625 0 0.671875 0.296875q0.28125 0.28125 0.28125 0.6875q0 0.421875 -0.28125 0.71875q-0.265625 0.28125 -0.671875 0.28125zm0.703125 1.421875l0 8.765625l-1.453125 0l0 -8.765625l1.453125 0zm10.48288 4.046875q0 0.421875 -0.046875 0.875l-7.015625 0q0.078125 1.296875 0.890625 2.03125q0.8125 0.71875 1.96875 0.71875q0.9375 0 1.5625 -0.4375q0.640625 -0.4375 0.890625 -1.171875l1.578125 0q-0.359375 1.265625 -1.421875 2.0625q-1.046875 0.78125 -2.609375 0.78125q-1.25 0 -2.234375 -0.546875q-0.984375 -0.5625 -1.546875 -1.59375q-0.5625 -1.046875 -0.5625 -2.40625q0 -1.359375 0.546875 -2.375q0.546875 -1.03125 1.53125 -1.578125q0.984375 -0.546875 2.265625 -0.546875q1.234375 0 2.1875 0.546875q0.96875 0.53125 1.484375 1.484375q0.53125 0.953125 0.53125 2.15625zm-1.5 -0.3125q0 -0.828125 -0.375 -1.421875q-0.375 -0.609375 -1.0 -0.921875q-0.625 -0.3125 -1.40625 -0.3125q-1.09375 0 -1.875 0.71875q-0.78125 0.703125 -0.890625 1.9375l5.546875 0zm2.8731384 0.609375q0 -1.34375 0.546875 -2.359375q0.546875 -1.015625 1.5 -1.5625q0.953125 -0.5625 2.125 -0.5625q1.03125 0 1.90625 0.46875q0.875 0.46875 1.34375 1.234375l0 -4.640625l1.46875 0l0 11.84375l-1.46875 0l0 -1.640625q-0.421875 0.78125 -1.28125 1.28125q-0.84375 0.5 -1.984375 0.5q-1.15625 0 -2.109375 -0.578125q-0.953125 -0.578125 -1.5 -1.609375q-0.546875 -1.046875 -0.546875 -2.375zm7.421875 0.015625q0 -0.984375 -0.40625 -1.71875q-0.390625 -0.734375 -1.078125 -1.125q-0.671875 -0.390625 -1.484375 -0.390625q-0.828125 0 -1.5 0.390625q-0.671875 0.375 -1.078125 1.109375q-0.390625 0.734375 -0.390625 1.71875q0 1.015625 0.390625 1.765625q0.40625 0.734375 1.078125 1.125q0.671875 0.390625 1.5 0.390625q0.8125 0 1.484375 -0.390625q0.6875 -0.390625 1.078125 -1.125q0.40625 -0.75 0.40625 -1.75zm19.525513 -6.671875l0 11.078125l-1.453125 0l0 -8.25l-3.6875 8.25l-1.015625 0l-3.703125 -8.265625l0 8.265625l-1.453125 0l0 -11.078125l1.5625 0l4.09375 9.15625l4.09375 -9.15625l1.5625 0zm3.9166565 9.890625l3.90625 0l0 1.1875l-5.359375 0l0 -11.15625l1.453125 0l0 9.96875zm16.324646 -1.296875l-4.875 0l-0.890625 2.484375l-1.53125 0l4.03125 -11.09375l1.671875 0l4.015625 11.09375l-1.53125 0l-0.890625 -2.484375zm-0.421875 -1.171875l-2.015625 -5.640625l-2.015625 5.640625l4.03125 0zm12.065277 -4.234375q0 1.390625 -0.953125 2.3125q-0.953125 0.921875 -2.90625 0.921875l-2.140625 0l0 4.65625l-1.453125 0l0 -11.15625l3.59375 0q1.890625 0 2.875 0.921875q0.984375 0.90625 0.984375 2.34375zm-3.859375 2.03125q1.21875 0 1.796875 -0.515625q0.578125 -0.53125 0.578125 -1.515625q0 -2.0625 -2.375 -2.0625l-2.140625 0l0 4.09375l2.140625 0zm7.123413 -5.296875l0 11.15625l-1.453125 0l0 -11.15625l1.453125 0z" fill-rule="nonzero"/><path fill="#000000" fill-opacity="0.0" d="m419.50925 92.25236l195.81107 0l0 38.77166l-195.81107 0z" fill-rule="evenodd"/><path fill="#00375c" d="m442.30386 116.72173q-1.546875 0 -2.828125 -0.71875q-1.28125 -0.734375 -2.03125 -2.03125q-0.734375 -1.3125 -0.734375 -2.9375q0 -1.640625 0.734375 -2.9375q0.75 -1.3125 2.03125 -2.03125q1.28125 -0.734375 2.828125 -0.734375q1.578125 0 2.859375 0.734375q1.28125 0.71875 2.015625 2.015625q0.734375 1.296875 0.734375 2.953125q0 1.640625 -0.734375 2.9375q-0.734375 1.296875 -2.015625 2.03125q-1.28125 0.71875 -2.859375 0.71875zm0 -1.265625q1.171875 0 2.109375 -0.53125q0.9375 -0.546875 1.46875 -1.546875q0.546875 -1.015625 0.546875 -2.34375q0 -1.34375 -0.546875 -2.34375q-0.53125 -1.0 -1.46875 -1.546875q-0.921875 -0.546875 -2.109375 -0.546875q-1.171875 0 -2.109375 0.546875q-0.921875 0.546875 -1.46875 1.546875q-0.53125 1.0 -0.53125 2.34375q0 1.328125 0.53125 2.34375q0.546875 1.0 1.484375 1.546875q0.9375 0.53125 2.09375 0.53125zm8.982269 -6.0q0.4375 -0.75 1.28125 -1.25q0.859375 -0.5 2.0 -0.5q1.171875 0 2.125 0.5625q0.953125 0.546875 1.484375 1.5625q0.546875 1.015625 0.546875 2.359375q0 1.328125 -0.546875 2.375q-0.53125 1.03125 -1.484375 1.609375q-0.953125 0.578125 -2.125 0.578125q-1.125 0 -1.984375 -0.5q-0.84375 -0.5 -1.296875 -1.25l0 5.765625l-1.453125 0l0 -12.921875l1.453125 0l0 1.609375zm5.953125 2.734375q0 -0.984375 -0.40625 -1.71875q-0.390625 -0.734375 -1.078125 -1.109375q-0.671875 -0.390625 -1.5 -0.390625q-0.796875 0 -1.484375 0.390625q-0.671875 0.390625 -1.078125 1.140625q-0.40625 0.734375 -0.40625 1.703125q0 1.0 0.40625 1.75q0.40625 0.734375 1.078125 1.125q0.6875 0.390625 1.484375 0.390625q0.828125 0 1.5 -0.390625q0.6875 -0.390625 1.078125 -1.125q0.40625 -0.75 0.40625 -1.765625zm11.40979 -0.296875q0 0.421875 -0.046875 0.875l-7.015625 0q0.078125 1.296875 0.890625 2.03125q0.8125 0.71875 1.96875 0.71875q0.9375 0 1.5625 -0.4375q0.640625 -0.4375 0.890625 -1.171875l1.578125 0q-0.359375 1.265625 -1.421875 2.0625q-1.046875 0.78125 -2.609375 0.78125q-1.25 0 -2.234375 -0.546875q-0.984375 -0.5625 -1.546875 -1.59375q-0.5625 -1.046875 -0.5625 -2.40625q0 -1.359375 0.546875 -2.375q0.546875 -1.03125 1.53125 -1.578125q0.984375 -0.546875 2.265625 -0.546875q1.234375 0 2.1875 0.546875q0.96875 0.53125 1.484375 1.484375q0.53125 0.953125 0.53125 2.15625zm-1.5 -0.3125q0 -0.828125 -0.375 -1.421875q-0.375 -0.609375 -1.0 -0.921875q-0.625 -0.3125 -1.40625 -0.3125q-1.09375 0 -1.875 0.71875q-0.78125 0.703125 -0.890625 1.9375l5.546875 0zm7.6856384 -3.890625q1.609375 0 2.59375 0.96875q1.0 0.96875 1.0 2.78125l0 5.171875l-1.453125 0l0 -4.953125q0 -1.3125 -0.65625 -2.0q-0.640625 -0.703125 -1.78125 -0.703125q-1.15625 0 -1.84375 0.71875q-0.671875 0.71875 -0.671875 2.09375l0 4.84375l-1.453125 0l0 -8.765625l1.453125 0l0 1.25q0.4375 -0.671875 1.171875 -1.03125q0.75 -0.375 1.640625 -0.375zm9.699524 4.5q0 -1.34375 0.546875 -2.359375q0.546875 -1.015625 1.5 -1.5625q0.953125 -0.5625 2.109375 -0.5625q1.15625 0 2.0 0.5q0.859375 0.484375 1.265625 1.234375l0 -1.59375l1.46875 0l0 8.765625l-1.46875 0l0 -1.625q-0.421875 0.765625 -1.28125 1.265625q-0.859375 0.5 -2.0 0.5q-1.171875 0 -2.109375 -0.578125q-0.9375 -0.578125 -1.484375 -1.609375q-0.546875 -1.046875 -0.546875 -2.375zm7.421875 0.015625q0 -0.984375 -0.40625 -1.71875q-0.390625 -0.734375 -1.078125 -1.125q-0.671875 -0.390625 -1.484375 -0.390625q-0.828125 0 -1.5 0.390625q-0.671875 0.375 -1.078125 1.109375q-0.390625 0.734375 -0.390625 1.71875q0 1.015625 0.390625 1.765625q0.40625 0.734375 1.078125 1.125q0.671875 0.390625 1.5 0.390625q0.8125 0 1.484375 -0.390625q0.6875 -0.390625 1.078125 -1.125q0.40625 -0.75 0.40625 -1.75zm8.2066345 -4.515625q1.609375 0 2.59375 0.96875q1.0 0.96875 1.0 2.78125l0 5.171875l-1.453125 0l0 -4.953125q0 -1.3125 -0.65625 -2.0q-0.640625 -0.703125 -1.78125 -0.703125q-1.15625 0 -1.84375 0.71875q-0.671875 0.71875 -0.671875 2.09375l0 4.84375l-1.453125 0l0 -8.765625l1.453125 0l0 1.25q0.4375 -0.671875 1.171875 -1.03125q0.75 -0.375 1.640625 -0.375zm5.4275208 4.5q0 -1.34375 0.546875 -2.359375q0.546875 -1.015625 1.5 -1.5625q0.953125 -0.5625 2.125 -0.5625q1.03125 0 1.90625 0.46875q0.8750305 0.46875 1.3437805 1.234375l0 -4.640625l1.46875 0l0 11.84375l-1.46875 0l0 -1.640625q-0.421875 0.78125 -1.2812805 1.28125q-0.84375 0.5 -1.984375 0.5q-1.15625 0 -2.109375 -0.578125q-0.953125 -0.578125 -1.5 -1.609375q-0.546875 -1.046875 -0.546875 -2.375zm7.4219055 0.015625q0 -0.984375 -0.40625 -1.71875q-0.390625 -0.734375 -1.0781555 -1.125q-0.671875 -0.390625 -1.484375 -0.390625q-0.828125 0 -1.5 0.390625q-0.671875 0.375 -1.078125 1.109375q-0.390625 0.734375 -0.390625 1.71875q0 1.015625 0.390625 1.765625q0.40625 0.734375 1.078125 1.125q0.671875 0.390625 1.5 0.390625q0.8125 0 1.484375 -0.390625q0.6875305 -0.390625 1.0781555 -1.125q0.40625 -0.75 0.40625 -1.75zm9.666138 -5.5625l0 3.734375l4.0625 0l0 1.1875l-4.0625 0l0 3.84375l4.546875 0l0 1.203125l-6.0 0l0 -11.171875l6.0 0l0 1.203125l-4.546875 0zm11.333008 9.96875l-2.078125 -3.265625l-2.0 3.265625l-1.53125 0l2.84375 -4.359375l-2.84375 -4.40625l1.65625 0l2.078125 3.25l1.984375 -3.25l1.515625 0l-2.8125 4.328125l2.828125 4.4375l-1.640625 0zm4.8671265 -7.5625l0 5.15625q0 0.640625 0.265625 0.90625q0.265625 0.265625 0.9375 0.265625l1.078125 0l0 1.234375l-1.3125 0q-1.21875 0 -1.828125 -0.5625q-0.609375 -0.5625 -0.609375 -1.84375l0 -5.15625l-1.125 0l0 -1.203125l1.125 0l0 -2.203125l1.46875 0l0 2.203125l2.28125 0l0 1.203125l-2.28125 0zm12.042786 2.84375q0 0.421875 -0.046875 0.875l-7.015625 0q0.078125 1.296875 0.890625 2.03125q0.8125 0.71875 1.96875 0.71875q0.9375 0 1.5625 -0.4375q0.640625 -0.4375 0.890625 -1.171875l1.578125 0q-0.359375 1.265625 -1.421875 2.0625q-1.046875 0.78125 -2.609375 0.78125q-1.25 0 -2.234375 -0.546875q-0.984375 -0.5625 -1.546875 -1.59375q-0.5625 -1.046875 -0.5625 -2.40625q0 -1.359375 0.546875 -2.375q0.546875 -1.03125 1.53125 -1.578125q0.984375 -0.546875 2.265625 -0.546875q1.234375 0 2.1875 0.546875q0.96875 0.53125 1.484375 1.484375q0.53125 0.953125 0.53125 2.15625zm-1.5 -0.3125q0 -0.828125 -0.375 -1.421875q-0.375 -0.609375 -1.0 -0.921875q-0.625 -0.3125 -1.40625 -0.3125q-1.09375 0 -1.875 0.71875q-0.78125 0.703125 -0.890625 1.9375l5.546875 0zm7.685608 -3.890625q1.609375 0 2.59375 0.96875q1.0 0.96875 1.0 2.78125l0 5.171875l-1.453125 0l0 -4.953125q0 -1.3125 -0.65625 -2.0q-0.640625 -0.703125 -1.78125 -0.703125q-1.15625 0 -1.84375 0.71875q-0.671875 0.71875 -0.671875 2.09375l0 4.84375l-1.453125 0l0 -8.765625l1.453125 0l0 1.25q0.4375 -0.671875 1.171875 -1.03125q0.75 -0.375 1.640625 -0.375zm9.083801 9.0625q-1.015625 0 -1.8125 -0.34375q-0.796875 -0.34375 -1.265625 -0.953125q-0.46875 -0.625 -0.515625 -1.421875l1.5 0q0.0625 0.65625 0.609375 1.078125q0.5625 0.40625 1.453125 0.40625q0.84375 0 1.3125 -0.359375q0.484375 -0.375 0.484375 -0.9375q0 -0.5625 -0.515625 -0.84375q-0.5 -0.28125 -1.578125 -0.5625q-0.96875 -0.25 -1.59375 -0.515625q-0.609375 -0.265625 -1.0625 -0.78125q-0.4375 -0.515625 -0.4375 -1.375q0 -0.671875 0.40625 -1.21875q0.40625 -0.5625 1.140625 -0.890625q0.734375 -0.328125 1.671875 -0.328125q1.453125 0 2.34375 0.734375q0.90625 0.734375 0.96875 2.015625l-1.453125 0q-0.046875 -0.6875 -0.5625 -1.109375q-0.5 -0.421875 -1.34375 -0.421875q-0.78125 0 -1.25 0.34375q-0.453125 0.328125 -0.453125 0.875q0 0.4375 0.265625 0.71875q0.28125 0.28125 0.703125 0.453125q0.4375 0.15625 1.1875 0.375q0.9375 0.25 1.53125 0.5q0.59375 0.25 1.015625 0.75q0.421875 0.484375 0.4375 1.28125q0 0.734375 -0.40625 1.3125q-0.390625 0.5625 -1.125 0.890625q-0.71875 0.328125 -1.65625 0.328125zm5.9926147 -10.328125q-0.421875 0 -0.71875 -0.28125q-0.28125 -0.296875 -0.28125 -0.71875q0 -0.40625 0.28125 -0.6875q0.296875 -0.296875 0.71875 -0.296875q0.40625 0 0.671875 0.296875q0.28125 0.28125 0.28125 0.6875q0 0.421875 -0.28125 0.71875q-0.265625 0.28125 -0.671875 0.28125zm0.703125 1.421875l0 8.765625l-1.453125 0l0 -8.765625l1.453125 0zm3.9360352 1.625q0.453125 -0.78125 1.3125 -1.265625q0.859375 -0.5 1.96875 -0.5q1.1875 0 2.125 0.5625q0.953125 0.546875 1.484375 1.5625q0.546875 1.015625 0.546875 2.359375q0 1.328125 -0.546875 2.375q-0.53125 1.03125 -1.484375 1.609375q-0.953125 0.578125 -2.125 0.578125q-1.140625 0 -2.0 -0.484375q-0.84375 -0.5 -1.28125 -1.265625l0 1.609375l-1.453125 0l0 -11.84375l1.453125 0l0 4.703125zm5.953125 2.71875q0 -0.984375 -0.40625 -1.71875q-0.390625 -0.734375 -1.078125 -1.109375q-0.671875 -0.390625 -1.5 -0.390625q-0.796875 0 -1.484375 0.390625q-0.671875 0.390625 -1.078125 1.140625q-0.40625 0.734375 -0.40625 1.703125q0 1.0 0.40625 1.75q0.40625 0.734375 1.078125 1.125q0.6875 0.390625 1.484375 0.390625q0.828125 0 1.5 -0.390625q0.6875 -0.390625 1.078125 -1.125q0.40625 -0.75 0.40625 -1.765625zm4.862915 -7.421875l0 11.84375l-1.453125 0l0 -11.84375l1.453125 0zm10.482849 7.125q0 0.421875 -0.046875 0.875l-7.015625 0q0.078125 1.296875 0.890625 2.03125q0.8125 0.71875 1.96875 0.71875q0.9375 0 1.5625 -0.4375q0.640625 -0.4375 0.890625 -1.171875l1.578125 0q-0.359375 1.265625 -1.421875 2.0625q-1.046875 0.78125 -2.609375 0.78125q-1.25 0 -2.234375 -0.546875q-0.984375 -0.5625 -1.546875 -1.59375q-0.5625 -1.046875 -0.5625 -2.40625q0 -1.359375 0.546875 -2.375q0.546875 -1.03125 1.53125 -1.578125q0.984375 -0.546875 2.265625 -0.546875q1.234375 0 2.1875 0.546875q0.96875 0.53125 1.484375 1.484375q0.53125 0.953125 0.53125 2.15625zm-1.5 -0.3125q0 -0.828125 -0.375 -1.421875q-0.375 -0.609375 -1.0 -0.921875q-0.625 -0.3125 -1.40625 -0.3125q-1.09375 0 -1.875 0.71875q-0.78125 0.703125 -0.890625 1.9375l5.546875 0z" fill-rule="nonzero"/><path fill="#000000" fill-opacity="0.0" d="m-1.9527559 92.25271l195.81102 0l0 38.77166l-195.81102 0z" fill-rule="evenodd"/><path fill="#00375c" d="m30.574253 116.722084q-1.109375 0 -1.984375 -0.390625q-0.859375 -0.390625 -1.359375 -1.078125q-0.5 -0.703125 -0.515625 -1.609375l1.5625 0q0.078125 0.78125 0.640625 1.3125q0.578125 0.53125 1.65625 0.53125q1.046875 0 1.640625 -0.515625q0.609375 -0.515625 0.609375 -1.328125q0 -0.640625 -0.359375 -1.046875q-0.359375 -0.40625 -0.890625 -0.609375q-0.515625 -0.203125 -1.40625 -0.453125q-1.109375 -0.28125 -1.78125 -0.5625q-0.65625 -0.296875 -1.140625 -0.90625q-0.46875 -0.625 -0.46875 -1.65625q0 -0.921875 0.46875 -1.625q0.46875 -0.703125 1.296875 -1.078125q0.84375 -0.390625 1.9375 -0.390625q1.5625 0 2.5625 0.78125q1.0 0.78125 1.140625 2.078125l-1.609375 0q-0.078125 -0.640625 -0.671875 -1.125q-0.59375 -0.484375 -1.5625 -0.484375q-0.921875 0 -1.5 0.46875q-0.5625 0.46875 -0.5625 1.328125q0 0.609375 0.34375 1.0q0.34375 0.375 0.84375 0.578125q0.5 0.1875 1.421875 0.453125q1.09375 0.296875 1.765625 0.59375q0.671875 0.296875 1.15625 0.921875q0.484375 0.609375 0.484375 1.65625q0 0.828125 -0.4375 1.546875q-0.4375 0.71875 -1.28125 1.171875q-0.84375 0.4375 -2.0 0.4375zm13.860764 -4.828125q0 0.421875 -0.046875 0.875l-7.015625 0q0.078125 1.296875 0.890625 2.03125q0.8125 0.71875 1.96875 0.71875q0.9375 0 1.5625 -0.4375q0.640625 -0.4375 0.890625 -1.171875l1.578125 0q-0.359375 1.265625 -1.421875 2.0625q-1.046875 0.78125 -2.609375 0.78125q-1.25 0 -2.234375 -0.546875q-0.984375 -0.5625 -1.546875 -1.59375q-0.5625 -1.046875 -0.5625 -2.40625q0 -1.359375 0.546875 -2.375q0.546875 -1.03125 1.53125 -1.578125q0.984375 -0.546875 2.265625 -0.546875q1.234375 0 2.1875 0.546875q0.96875 0.53125 1.484375 1.484375q0.53125 0.953125 0.53125 2.15625zm-1.5 -0.3125q0 -0.828125 -0.375 -1.421875q-0.375 -0.609375 -1.0 -0.921875q-0.625 -0.3125 -1.40625 -0.3125q-1.09375 0 -1.875 0.71875q-0.78125 0.703125 -0.890625 1.9375l5.546875 0zm2.8731384 0.609375q0 -1.34375 0.546875 -2.359375q0.546875 -1.015625 1.5 -1.5625q0.953125 -0.5625 2.109375 -0.5625q1.15625 0 2.0 0.5q0.859375 0.484375 1.265625 1.234375l0 -1.59375l1.46875 0l0 8.765625l-1.46875 0l0 -1.625q-0.421875 0.765625 -1.28125 1.265625q-0.859375 0.5 -2.0 0.5q-1.171875 0 -2.109375 -0.578125q-0.9375 -0.578125 -1.484375 -1.609375q-0.546875 -1.046875 -0.546875 -2.375zm7.421875 0.015625q0 -0.984375 -0.40625 -1.71875q-0.390625 -0.734375 -1.078125 -1.125q-0.671875 -0.390625 -1.484375 -0.390625q-0.828125 0 -1.5 0.390625q-0.671875 0.375 -1.078125 1.109375q-0.390625 0.734375 -0.390625 1.71875q0 1.015625 0.390625 1.765625q0.40625 0.734375 1.078125 1.125q0.671875 0.390625 1.5 0.390625q0.8125 0 1.484375 -0.390625q0.6875 -0.390625 1.078125 -1.125q0.40625 -0.75 0.40625 -1.75zm14.487896 -4.515625q1.015625 0 1.8125 0.421875q0.8125 0.421875 1.265625 1.265625q0.46875 0.84375 0.46875 2.0625l0 5.171875l-1.4375 0l0 -4.953125q0 -1.3125 -0.65625 -2.0q-0.640625 -0.703125 -1.75 -0.703125q-1.125 0 -1.796875 0.734375q-0.671875 0.71875 -0.671875 2.09375l0 4.828125l-1.4531212 0l0 -4.953125q0 -1.3125 -0.65625 -2.0q-0.640625 -0.703125 -1.734375 -0.703125q-1.140625 0 -1.8125 0.734375q-0.671875 0.71875 -0.671875 2.09375l0 4.828125l-1.453125 0l0 -8.765625l1.453125 0l0 1.265625q0.4375 -0.6875 1.15625 -1.046875q0.734375 -0.375 1.609375 -0.375q1.109375 0 1.953125 0.5q0.8437462 0.484375 1.2656212 1.453125q0.375 -0.9375 1.21875 -1.4375q0.84375 -0.515625 1.890625 -0.515625zm7.3862762 -2.921875l0 11.84375l-1.453125 0l0 -11.84375l1.453125 0zm10.48288 7.125q0 0.421875 -0.046875 0.875l-7.015625 0q0.078125 1.296875 0.890625 2.03125q0.8125 0.71875 1.96875 0.71875q0.9375 0 1.5625 -0.4375q0.640625 -0.4375 0.890625 -1.171875l1.578125 0q-0.359375 1.265625 -1.421875 2.0625q-1.046875 0.78125 -2.609375 0.78125q-1.25 0 -2.234375 -0.546875q-0.984375 -0.5625 -1.546875 -1.59375q-0.5625 -1.046875 -0.5625 -2.40625q0 -1.359375 0.546875 -2.375q0.546875 -1.03125 1.53125 -1.578125q0.984375 -0.546875 2.265625 -0.546875q1.234375 0 2.1875 0.546875q0.96875 0.53125 1.484375 1.484375q0.53125 0.953125 0.53125 2.15625zm-1.5 -0.3125q0 -0.828125 -0.375 -1.421875q-0.375 -0.609375 -1.0 -0.921875q-0.625 -0.3125 -1.40625 -0.3125q-1.09375 0 -1.875 0.71875q-0.78125 0.703125 -0.890625 1.9375l5.546875 0zm6.5293884 5.171875q-1.015625 0 -1.8125 -0.34375q-0.796875 -0.34375 -1.265625 -0.953125q-0.46875 -0.625 -0.515625 -1.421875l1.5 0q0.0625 0.65625 0.609375 1.078125q0.5625 0.40625 1.453125 0.40625q0.84375 0 1.3125 -0.359375q0.484375 -0.375 0.484375 -0.9375q0 -0.5625 -0.515625 -0.84375q-0.5 -0.28125 -1.578125 -0.5625q-0.96875 -0.25 -1.59375 -0.515625q-0.609375 -0.265625 -1.0625 -0.78125q-0.4375 -0.515625 -0.4375 -1.375q0 -0.671875 0.40625 -1.21875q0.40625 -0.5625 1.140625 -0.890625q0.734375 -0.328125 1.671875 -0.328125q1.453125 0 2.34375 0.734375q0.90625 0.734375 0.96875 2.015625l-1.453125 0q-0.046875 -0.6875 -0.5625 -1.109375q-0.5 -0.421875 -1.34375 -0.421875q-0.78125 0 -1.25 0.34375q-0.453125 0.328125 -0.453125 0.875q0 0.4375 0.265625 0.71875q0.28125 0.28125 0.703125 0.453125q0.4375 0.15625 1.1875 0.375q0.9375 0.25 1.53125 0.5q0.59375 0.25 1.015625 0.75q0.421875 0.484375 0.4375 1.28125q0 0.734375 -0.40625 1.3125q-0.390625 0.5625 -1.125 0.890625q-0.71875 0.328125 -1.65625 0.328125zm8.35202 0q-1.015625 0 -1.8125 -0.34375q-0.796875 -0.34375 -1.265625 -0.953125q-0.46875 -0.625 -0.515625 -1.421875l1.5 0q0.0625 0.65625 0.609375 1.078125q0.5625 0.40625 1.453125 0.40625q0.84375 0 1.3125 -0.359375q0.484375 -0.375 0.484375 -0.9375q0 -0.5625 -0.515625 -0.84375q-0.5 -0.28125 -1.578125 -0.5625q-0.96875 -0.25 -1.59375 -0.515625q-0.609375 -0.265625 -1.0625 -0.78125q-0.4375 -0.515625 -0.4375 -1.375q0 -0.671875 0.40625 -1.21875q0.40625 -0.5625 1.140625 -0.890625q0.734375 -0.328125 1.671875 -0.328125q1.453125 0 2.34375 0.734375q0.90625 0.734375 0.96875 2.015625l-1.453125 0q-0.046875 -0.6875 -0.5625 -1.109375q-0.5 -0.421875 -1.34375 -0.421875q-0.78125 0 -1.25 0.34375q-0.453125 0.328125 -0.453125 0.875q0 0.4375 0.265625 0.71875q0.28125 0.28125 0.703125 0.453125q0.4375 0.15625 1.1875 0.375q0.9375 0.25 1.53125 0.5q0.59375 0.25 1.015625 0.75q0.421875 0.484375 0.4375 1.28125q0 0.734375 -0.40625 1.3125q-0.390625 0.5625 -1.125 0.890625q-0.71875 0.328125 -1.65625 0.328125zm13.045898 -0.03125q-1.109375 0 -1.984375 -0.390625q-0.859375 -0.390625 -1.359375 -1.078125q-0.5 -0.703125 -0.515625 -1.609375l1.5625 0q0.078125 0.78125 0.640625 1.3125q0.578125 0.53125 1.65625 0.53125q1.046875 0 1.640625 -0.515625q0.609375 -0.515625 0.609375 -1.328125q0 -0.640625 -0.359375 -1.046875q-0.359375 -0.40625 -0.890625 -0.609375q-0.515625 -0.203125 -1.40625 -0.453125q-1.109375 -0.28125 -1.78125 -0.5625q-0.65625 -0.296875 -1.140625 -0.90625q-0.46875 -0.625 -0.46875 -1.65625q0 -0.921875 0.46875 -1.625q0.46875 -0.703125 1.296875 -1.078125q0.84375 -0.390625 1.9375 -0.390625q1.5625 0 2.5625 0.78125q1.0 0.78125 1.140625 2.078125l-1.609375 0q-0.078125 -0.640625 -0.671875 -1.125q-0.59375 -0.484375 -1.5625 -0.484375q-0.921875 0 -1.5 0.46875q-0.5625 0.46875 -0.5625 1.328125q0 0.609375 0.34375 1.0q0.34375 0.375 0.84375 0.578125q0.5 0.1875 1.421875 0.453125q1.09375 0.296875 1.765625 0.59375q0.671875 0.296875 1.15625 0.921875q0.484375 0.609375 0.484375 1.65625q0 0.828125 -0.4375 1.546875q-0.4375 0.71875 -1.28125 1.171875q-0.84375 0.4375 -2.0 0.4375zm5.3138885 -4.515625q0 -1.359375 0.546875 -2.375q0.546875 -1.015625 1.515625 -1.5625q0.96875 -0.5625 2.203125 -0.5625q1.625 0 2.671875 0.78125q1.046875 0.78125 1.390625 2.171875l-1.578125 0q-0.21875 -0.796875 -0.875 -1.265625q-0.640625 -0.46875 -1.609375 -0.46875q-1.234375 0 -2.015625 0.859375q-0.765625 0.859375 -0.765625 2.421875q0 1.59375 0.765625 2.453125q0.78125 0.859375 2.015625 0.859375q0.96875 0 1.609375 -0.4375q0.640625 -0.453125 0.875 -1.28125l1.578125 0q-0.359375 1.34375 -1.421875 2.15625q-1.046875 0.796875 -2.640625 0.796875q-1.234375 0 -2.203125 -0.546875q-0.96875 -0.5625 -1.515625 -1.59375q-0.546875 -1.03125 -0.546875 -2.40625zm9.712021 -0.015625q0 -1.34375 0.546875 -2.359375q0.546875 -1.015625 1.5 -1.5625q0.953125 -0.5625 2.109375 -0.5625q1.15625 0 2.0 0.5q0.859375 0.484375 1.265625 1.234375l0 -1.59375l1.46875 0l0 8.765625l-1.46875 0l0 -1.625q-0.421875 0.765625 -1.28125 1.265625q-0.859375 0.5 -2.0 0.5q-1.171875 0 -2.109375 -0.578125q-0.9375 -0.578125 -1.484375 -1.609375q-0.546875 -1.046875 -0.546875 -2.375zm7.421875 0.015625q0 -0.984375 -0.40625 -1.71875q-0.390625 -0.734375 -1.078125 -1.125q-0.671875 -0.390625 -1.484375 -0.390625q-0.828125 0 -1.5 0.390625q-0.671875 0.375 -1.078125 1.109375q-0.390625 0.734375 -0.390625 1.71875q0 1.015625 0.390625 1.765625q0.40625 0.734375 1.078125 1.125q0.671875 0.390625 1.5 0.390625q0.8125 0 1.484375 -0.390625q0.6875 -0.390625 1.078125 -1.125q0.40625 -0.75 0.40625 -1.75zm5.39415 -7.4375l0 11.84375l-1.453125 0l0 -11.84375l1.453125 0zm3.2328796 1.65625q-0.421875 0 -0.71875 -0.28125q-0.28125 -0.296875 -0.28125 -0.71875q0 -0.40625 0.28125 -0.6875q0.296875 -0.296875 0.71875 -0.296875q0.40625 0 0.671875 0.296875q0.28125 0.28125 0.28125 0.6875q0 0.421875 -0.28125 0.71875q-0.265625 0.28125 -0.671875 0.28125zm0.703125 1.421875l0 8.765625l-1.453125 0l0 -8.765625l1.453125 0zm6.7485046 -0.15625q1.609375 0 2.59375 0.96875q1.0 0.96875 1.0 2.78125l0 5.171875l-1.453125 0l0 -4.953125q0 -1.3125 -0.65625 -2.0q-0.640625 -0.703125 -1.78125 -0.703125q-1.15625 0 -1.84375 0.71875q-0.671875 0.71875 -0.671875 2.09375l0 4.84375l-1.453125 0l0 -8.765625l1.453125 0l0 1.25q0.4375 -0.671875 1.171875 -1.03125q0.75 -0.375 1.640625 -0.375zm9.583771 0.015625q1.140625 0 2.0 0.5q0.859375 0.484375 1.265625 1.234375l0 -1.59375l1.46875 0l0 8.953125q0 1.203125 -0.515625 2.140625q-0.5 0.9375 -1.453125 1.453125q-0.953125 0.53125 -2.21875 0.53125q-1.734375 0 -2.890625 -0.8125q-1.140625 -0.8125 -1.34375 -2.21875l1.4375 0q0.234375 0.796875 0.984375 1.28125q0.765625 0.5 1.8125 0.5q1.203125 0 1.953125 -0.765625q0.765625 -0.75 0.765625 -2.109375l0 -1.828125q-0.421875 0.765625 -1.28125 1.28125q-0.84375 0.5 -1.984375 0.5q-1.15625 0 -2.109375 -0.578125q-0.953125 -0.578125 -1.5 -1.609375q-0.546875 -1.046875 -0.546875 -2.375q0 -1.34375 0.546875 -2.359375q0.546875 -1.015625 1.5 -1.5625q0.953125 -0.5625 2.109375 -0.5625zm3.265625 4.5q0 -0.984375 -0.40625 -1.71875q-0.390625 -0.734375 -1.078125 -1.125q-0.671875 -0.390625 -1.484375 -0.390625q-0.828125 0 -1.5 0.390625q-0.671875 0.375 -1.078125 1.109375q-0.390625 0.734375 -0.390625 1.71875q0 1.015625 0.390625 1.765625q0.40625 0.734375 1.078125 1.125q0.671875 0.390625 1.5 0.390625q0.8125 0 1.484375 -0.390625q0.6875 -0.390625 1.078125 -1.125q0.40625 -0.75 0.40625 -1.75z" fill-rule="nonzero"/><path fill="#85ddb5" fill-opacity="0.3036" d="m45.5873 54.560596l29.322834 0l0 29.007877l-29.322834 0z" fill-rule="evenodd"/><path stroke="#85ddb5" stroke-width="2.0" stroke-linejoin="round" stroke-linecap="butt" d="m45.5873 54.560596l29.322834 0l0 29.007877l-29.322834 0z" fill-rule="evenodd"/><path fill="#000000" fill-opacity="0.0" d="m75.43075 54.051094l49.039368 -49.03937" fill-rule="evenodd"/><path stroke="#25b48d" stroke-width="2.0" stroke-linejoin="round" stroke-linecap="butt" d="m75.43074 54.051094l40.554092 -40.55409" fill-rule="evenodd"/><path fill="#25b48d" stroke="#25b48d" stroke-width="2.0" stroke-linecap="butt" d="m118.32073 15.832907l4.0819397 -8.753741l-8.753738 4.081937z" fill-rule="evenodd"/><path fill="#f65202" fill-opacity="0.1131" d="m249.73204 8.445799l26.488205 0l0 29.007875l-26.488205 0z" fill-rule="evenodd"/><path stroke="#f65202" stroke-width="2.0" stroke-linejoin="round" stroke-linecap="butt" d="m249.73204 8.445799l26.488205 0l0 29.007875l-26.488205 0z" fill-rule="evenodd"/><path fill="#85ddb5" fill-opacity="0.3036" d="m249.73204 59.655655l26.488205 0l0 29.007874l-26.488205 0z" fill-rule="evenodd"/><path stroke="#85ddb5" stroke-width="2.0" stroke-linejoin="round" stroke-linecap="butt" d="m249.73204 59.655655l26.488205 0l0 29.007874l-26.488205 0z" fill-rule="evenodd"/><path fill="#85ddb5" fill-opacity="0.3036" d="m281.32404 59.655655l26.48819 0l0 29.007874l-26.48819 0z" fill-rule="evenodd"/><path stroke="#85ddb5" stroke-width="2.0" stroke-linejoin="round" stroke-linecap="butt" d="m281.32404 59.655655l26.48819 0l0 29.007874l-26.48819 0z" fill-rule="evenodd"/><path fill="#85ddb5" fill-opacity="0.3036" d="m312.91602 59.655655l26.48819 0l0 29.007874l-26.48819 0z" fill-rule="evenodd"/><path stroke="#85ddb5" stroke-width="2.0" stroke-linejoin="round" stroke-linecap="butt" d="m312.91602 59.655655l26.48819 0l0 29.007874l-26.48819 0z" fill-rule="evenodd"/><path fill="#85ddb5" fill-opacity="0.3036" d="m344.508 59.655655l26.48819 0l0 29.007874l-26.48819 0z" fill-rule="evenodd"/><path stroke="#85ddb5" stroke-width="2.0" stroke-linejoin="round" stroke-linecap="butt" d="m344.508 59.655655l26.48819 0l0 29.007874l-26.48819 0z" fill-rule="evenodd"/><path fill="#000000" fill-opacity="0.0" d="m262.9678 59.65598l0 -21.952755" fill-rule="evenodd"/><path stroke="#f65202" stroke-width="2.0" stroke-linejoin="round" stroke-linecap="butt" d="m262.9678 59.65598l0 -9.952755" fill-rule="evenodd"/><path fill="#f65202" stroke="#f65202" stroke-width="2.0" stroke-linecap="butt" d="m266.27127 49.70322l-3.3034668 -9.076195l-3.3034668 9.076195z" fill-rule="evenodd"/><path fill="#000000" fill-opacity="0.0" d="m294.55978 59.65598l0 -21.952755" fill-rule="evenodd"/><path stroke="#f65202" stroke-width="2.0" stroke-linejoin="round" stroke-linecap="butt" d="m294.55978 59.65598l0 -9.952755" fill-rule="evenodd"/><path fill="#f65202" stroke="#f65202" stroke-width="2.0" stroke-linecap="butt" d="m297.86325 49.70322l-3.3034668 -9.076195l-3.3034668 9.076195z" fill-rule="evenodd"/><path fill="#000000" fill-opacity="0.0" d="m326.15176 59.534134l0 -21.952755" fill-rule="evenodd"/><path stroke="#f65202" stroke-width="2.0" stroke-linejoin="round" stroke-linecap="butt" d="m326.1518 59.534138l0 -9.952763" fill-rule="evenodd"/><path fill="#f65202" stroke="#f65202" stroke-width="2.0" stroke-linecap="butt" d="m329.45523 49.58138l-3.3034363 -9.076199l-3.3034668 9.076199z" fill-rule="evenodd"/><path fill="#000000" fill-opacity="0.0" d="m357.74374 59.534134l0 -21.952755" fill-rule="evenodd"/><path stroke="#f65202" stroke-width="2.0" stroke-linejoin="round" stroke-linecap="butt" d="m357.74377 59.534138l0 -9.952763" fill-rule="evenodd"/><path fill="#f65202" stroke="#f65202" stroke-width="2.0" stroke-linecap="butt" d="m361.04724 49.58138l-3.3034668 -9.076199l-3.3034668 9.076199z" fill-rule="evenodd"/><path fill="#f65202" fill-opacity="0.1131" d="m281.32404 8.445799l26.48819 0l0 29.007875l-26.48819 0z" fill-rule="evenodd"/><path stroke="#f65202" stroke-width="2.0" stroke-linejoin="round" stroke-linecap="butt" d="m281.32404 8.445799l26.48819 0l0 29.007875l-26.48819 0z" fill-rule="evenodd"/><path fill="#f65202" fill-opacity="0.1131" d="m312.91602 8.447631l26.48819 0l0 29.007874l-26.48819 0z" fill-rule="evenodd"/><path stroke="#f65202" stroke-width="2.0" stroke-linejoin="round" stroke-linecap="butt" d="m312.91602 8.447631l26.48819 0l0 29.007874l-26.48819 0z" fill-rule="evenodd"/><path fill="#f65202" fill-opacity="0.1131" d="m344.508 8.447631l26.48819 0l0 29.007874l-26.48819 0z" fill-rule="evenodd"/><path stroke="#f65202" stroke-width="2.0" stroke-linejoin="round" stroke-linecap="butt" d="m344.508 8.447631l26.48819 0l0 29.007874l-26.48819 0z" fill-rule="evenodd"/><path fill="#a794ff" fill-opacity="0.4611" d="m471.36746 48.559055l0 0c0 -22.700209 20.616058 -41.102364 46.04721 -41.102364l0 0c25.431213 0 46.04724 18.402153 46.04724 41.102364l0 0c0 22.700207 -20.616028 41.10236 -46.04724 41.10236l0 0c-25.431152 0 -46.04721 -18.402153 -46.04721 -41.10236z" fill-rule="evenodd"/><path stroke="#a794ff" stroke-width="2.0" stroke-linejoin="round" stroke-linecap="butt" stroke-dasharray="8.0,6.0" d="m471.36746 48.559055l0 0c0 -22.700209 20.616058 -41.102364 46.04721 -41.102364l0 0c25.431213 0 46.04724 18.402153 46.04724 41.102364l0 0c0 22.700207 -20.616028 41.10236 -46.04724 41.10236l0 0c-25.431152 0 -46.04721 -18.402153 -46.04721 -41.10236z" fill-rule="evenodd"/><path fill="#e0f4e9" d="m471.5045 48.56376l0 0c0 -16.60333 17.824005 -30.06299 39.811035 -30.06299l0 0c21.98703 0 39.811005 13.45966 39.811005 30.06299l0 0c0 16.603333 -17.823975 30.062996 -39.811005 30.062996l0 0c-21.98703 0 -39.811035 -13.459663 -39.811035 -30.062996z" fill-rule="evenodd"/><path stroke="#25b48d" stroke-width="2.0" stroke-linejoin="round" stroke-linecap="butt" stroke-dasharray="8.0,6.0" d="m471.5045 48.56376l0 0c0 -16.60333 17.824005 -30.06299 39.811035 -30.06299l0 0c21.98703 0 39.811005 13.45966 39.811005 30.06299l0 0c0 16.603333 -17.823975 30.062996 -39.811005 30.062996l0 0c-21.98703 0 -39.811035 -13.459663 -39.811035 -30.062996z" fill-rule="evenodd"/><path fill="#ccecfb" d="m471.5054 48.70791l0 0c0 -11.22834 15.299866 -20.33071 34.173218 -20.33071l0 0c18.873383 0 34.17325 9.102369 34.17325 20.33071l0 0c0 11.22834 -15.299866 20.330711 -34.17325 20.330711l0 0c-18.873352 0 -34.173218 -9.102371 -34.173218 -20.330711z" fill-rule="evenodd"/><path stroke="#00a2e9" stroke-width="2.0" stroke-linejoin="round" stroke-linecap="butt" d="m471.5054 48.70791l0 0c0 -11.22834 15.299866 -20.33071 34.173218 -20.33071l0 0c18.873383 0 34.17325 9.102369 34.17325 20.33071l0 0c0 11.22834 -15.299866 20.330711 -34.17325 20.330711l0 0c-18.873352 0 -34.173218 -9.102371 -34.173218 -20.330711z" fill-rule="evenodd"/></g></svg>