<svg version="1.1" viewBox="0.0 0.0 725.2073490813648 120.21259842519684" fill="none" stroke="none" stroke-linecap="square" stroke-miterlimit="10" xmlns:xlink="http://www.w3.org/1999/xlink" xmlns="http://www.w3.org/2000/svg"><clipPath id="p.0"><path d="m0 0l725.20734 0l0 120.2126l-725.20734 0l0 -120.2126z" clip-rule="nonzero"/></clipPath><g clip-path="url(#p.0)"><path fill="#ffffff" d="m0 0l725.20734 0l0 120.2126l-725.20734 0z" fill-rule="evenodd"/><path fill="#d9d9d9" d="m87.541626 59.344788l30.456688 0l0 20.724411l-30.456688 0z" fill-rule="evenodd"/><path fill="#d9d9d9" d="m50.946354 32.20568l30.456692 0l0 20.724407l-30.456692 0z" fill-rule="evenodd"/><path fill="#d9d9d9" d="m14.395094 5.063948l30.456694 0l0 20.72441l-30.456694 0z" fill-rule="evenodd"/><path fill="#4a86e8" d="m17.61415 10.176862l0 0c0 -1.4495955 1.1751289 -2.6247249 2.6247253 -2.6247249l18.750551 0c0.6961212 0 1.3637276 0.27653265 1.8559608 0.768764c0.49222946 0.49223137 0.7687645 1.1598406 0.7687645 1.8559608l0 10.498582c0 1.4495964 -1.1751289 2.6247253 -2.6247253 2.6247253l-18.750551 0c-1.4495964 0 -2.6247253 -1.1751289 -2.6247253 -2.6247253z" fill-rule="evenodd"/><path fill="#6aa84f" d="m54.3334 37.100494l0 0c0 -1.4495964 1.1751289 -2.6247253 2.6247253 -2.6247253l18.750553 0c0.6961212 0 1.3637238 0.27653503 1.855957 0.7687645c0.49223328 0.49223328 0.7687683 1.1598396 0.7687683 1.8559608l0 10.498581c0 1.4495964 -1.1751328 2.6247253 -2.6247253 2.6247253l-18.750553 0c-1.4495964 0 -2.6247253 -1.1751289 -2.6247253 -2.6247253z" fill-rule="evenodd"/><path fill="#8e7cc3" d="m91.130035 64.4102l0 0c0 -1.4495926 1.1751328 -2.6247215 2.6247253 -2.6247215l18.75055 0c0.6961212 0 1.3637314 0.27653503 1.8559647 0.7687645c0.49222565 0.49223328 0.7687607 1.1598396 0.7687607 1.855957l0 10.498589c0 1.4495926 -1.1751328 2.6247253 -2.6247253 2.6247253l-18.75055 0c-1.4495926 0 -2.6247253 -1.1751328 -2.6247253 -2.6247253z" fill-rule="evenodd"/><path fill="#000000" fill-opacity="0.0" d="m41.61415 15.426153l12.724407 26.929132" fill-rule="evenodd"/><path stroke="#000000" stroke-width="1.0" stroke-linejoin="round" stroke-linecap="butt" d="m41.61415 15.426153l10.161072 21.504255" fill-rule="evenodd"/><path fill="#000000" stroke="#000000" stroke-width="1.0" stroke-linecap="butt" d="m50.281815 37.636066l3.4321861 3.3974457l-0.44536972 -4.8087616z" fill-rule="evenodd"/><path fill="#000000" fill-opacity="0.0" d="m78.333405 42.349785l12.787399 27.30709" fill-rule="evenodd"/><path stroke="#000000" stroke-width="1.0" stroke-linejoin="round" stroke-linecap="butt" d="m78.3334 42.349785l10.242889 21.873352" fill-rule="evenodd"/><path fill="#000000" stroke="#000000" stroke-width="1.0" stroke-linecap="butt" d="m87.080444 64.923615l3.4203873 3.4093246l-0.42869568 -4.810276z" fill-rule="evenodd"/><path fill="#000000" fill-opacity="0.0" d="m12.930779 62.06871l108.53543 0l0 30.708664l-108.53543 0z" fill-rule="evenodd"/><path fill="#ff0000" d="m25.758904 77.40371l0.15625 -0.765625l2.921875 0l-0.578125 2.71875q-0.546875 0.34375 -1.25 0.5625q-0.703125 0.21875 -1.390625 0.21875q-1.453125 0 -2.171875 -0.875q-0.609375 -0.734375 -0.609375 -1.90625q0 -1.203125 0.53125 -2.1875q0.53125 -0.984375 1.328125 -1.453125q0.8125 -0.484375 1.8125 -0.484375q0.703125 0 1.265625 0.265625q0.5625 0.25 0.859375 0.6875q0.3125 0.421875 0.4375 1.125l-0.875 0.09375q-0.140625 -0.6875 -0.578125 -1.046875q-0.4375 -0.375 -1.140625 -0.375q-0.71875 0 -1.359375 0.390625q-0.625 0.390625 -1.0 1.1875q-0.375 0.796875 -0.375 1.8125q0 1.0 0.5 1.515625q0.5 0.515625 1.375 0.515625q0.859375 0 1.859375 -0.578125l0.3125 -1.421875l-2.03125 0zm3.833847 2.625l1.390625 -6.671875l2.796875 0q0.71875 0 1.078125 0.171875q0.359375 0.15625 0.59375 0.5625q0.25 0.40625 0.25 0.90625q0 0.40625 -0.171875 0.84375q-0.171875 0.421875 -0.4375 0.703125q-0.25 0.265625 -0.515625 0.421875q-0.265625 0.140625 -0.5625 0.203125q-0.640625 0.15625 -1.296875 0.15625l-1.671875 0l-0.5625 2.703125l-0.890625 0zm1.609375 -3.46875l1.46875 0q0.859375 0 1.25 -0.171875q0.40625 -0.1875 0.640625 -0.5625q0.25 -0.390625 0.25 -0.8125q0 -0.328125 -0.125 -0.53125q-0.125 -0.203125 -0.359375 -0.296875q-0.234375 -0.109375 -0.890625 -0.109375l-1.71875 0l-0.515625 2.484375zm6.0499115 -3.203125l0.890625 0l-0.84375 4.09375q-0.109375 0.515625 -0.109375 0.765625q0 0.53125 0.421875 0.859375q0.421875 0.328125 1.0625 0.328125q0.515625 0 0.953125 -0.234375q0.4375 -0.234375 0.6875 -0.6875q0.265625 -0.453125 0.46875 -1.453125l0.765625 -3.671875l0.890625 0l-0.8125 3.90625q-0.203125 1.0 -0.546875 1.59375q-0.34375 0.578125 -0.953125 0.9375q-0.59375 0.359375 -1.40625 0.359375q-0.75 0 -1.3125 -0.25q-0.546875 -0.25 -0.828125 -0.6875q-0.265625 -0.453125 -0.265625 -1.015625q0 -0.34375 0.1875 -1.203125l0.75 -3.640625zm8.01564 6.671875l1.40625 -6.671875l0.875 0l-1.390625 6.671875l-0.890625 0zm5.6385345 -0.703125q-0.71875 0.8125 -1.484375 0.8125q-0.6875 0 -1.15625 -0.5q-0.453125 -0.515625 -0.453125 -1.484375q0 -0.875 0.359375 -1.609375q0.375 -0.734375 0.921875 -1.09375q0.546875 -0.375 1.078125 -0.375q0.90625 0 1.375 0.875l0.546875 -2.59375l0.8125 0l-1.390625 6.671875l-0.765625 0l0.15625 -0.703125zm-2.265625 -1.328125q0 0.515625 0.09375 0.8125q0.109375 0.28125 0.34375 0.484375q0.25 0.1875 0.578125 0.1875q0.5625 0 1.015625 -0.59375q0.609375 -0.765625 0.609375 -1.90625q0 -0.578125 -0.296875 -0.890625q-0.296875 -0.328125 -0.75 -0.328125q-0.296875 0 -0.546875 0.140625q-0.234375 0.125 -0.484375 0.4375q-0.234375 0.3125 -0.40625 0.8125q-0.15625 0.484375 -0.15625 0.84375zm4.125366 2.03125l1.390625 -6.671875l0.828125 0l-1.390625 6.671875l-0.828125 0zm5.681793 -1.640625l0.8125 0.078125q-0.1875 0.59375 -0.8125 1.140625q-0.609375 0.53125 -1.46875 0.53125q-0.546875 0 -1.0 -0.25q-0.4375 -0.25 -0.671875 -0.71875q-0.234375 -0.46875 -0.234375 -1.078125q0 -0.796875 0.359375 -1.53125q0.375 -0.75 0.953125 -1.109375q0.578125 -0.375 1.265625 -0.375q0.859375 0 1.375 0.546875q0.515625 0.53125 0.515625 1.46875q0 0.34375 -0.0625 0.71875l-3.5625 0q-0.015625 0.140625 -0.015625 0.265625q0 0.671875 0.3125 1.03125q0.3125 0.359375 0.765625 0.359375q0.421875 0 0.828125 -0.28125q0.421875 -0.28125 0.640625 -0.796875zm-2.390625 -1.203125l2.71875 0q0 -0.125 0 -0.1875q0 -0.609375 -0.3125 -0.9375q-0.3125 -0.328125 -0.796875 -0.328125q-0.53125 0 -0.96875 0.359375q-0.421875 0.359375 -0.640625 1.09375z" fill-rule="nonzero"/><path fill="#000000" fill-opacity="0.0" d="m13.093297 70.14934l62.677166 0" fill-rule="evenodd"/><path stroke="#ff0000" stroke-width="1.0" stroke-linejoin="round" stroke-linecap="butt" d="m13.093298 70.14934l58.88716 0" fill-rule="evenodd"/><path fill="#ff0000" stroke="#ff0000" stroke-width="1.0" stroke-linecap="butt" d="m75.27046 70.14934c0 0.9085083 -0.73648834 1.6450043 -1.6449966 1.6450043c-0.9085083 0 -1.6450043 -0.736496 -1.6450043 -1.6450043c0 -0.9085083 0.736496 -1.6449966 1.6450043 -1.6449966c0.9085083 0 1.6449966 0.73648834 1.6449966 1.6449966z" fill-rule="nonzero"/><path fill="#000000" fill-opacity="0.0" d="m11.886523 89.33429l697.8268 0" fill-rule="evenodd"/><path stroke="#000000" stroke-width="1.0" stroke-linejoin="round" stroke-linecap="butt" d="m11.886524 89.33429l691.8267 0" fill-rule="evenodd"/><path fill="#000000" stroke="#000000" stroke-width="1.0" stroke-linecap="butt" d="m703.71326 90.98602l4.538086 -1.6517334l-4.538086 -1.6517334z" fill-rule="evenodd"/><path fill="#000000" fill-opacity="0.0" d="m1.9626373 92.38153l748.1575 0l0 35.55906l-748.1575 0z" fill-rule="evenodd"/><path fill="#000000" d="m14.400137 113.13466l0.171875 1.03125q-0.5 0.109375 -0.890625 0.109375q-0.640625 0 -1.0 -0.203125q-0.34375 -0.203125 -0.484375 -0.53125q-0.140625 -0.328125 -0.140625 -1.390625l0 -3.96875l-0.859375 0l0 -0.90625l0.859375 0l0 -1.71875l1.171875 -0.703125l0 2.421875l1.171875 0l0 0.90625l-1.171875 0l0 4.046875q0 0.5 0.046875 0.640625q0.0625 0.140625 0.203125 0.234375q0.140625 0.078125 0.40625 0.078125q0.203125 0 0.515625 -0.046875zm7.3123627 -4.5625l-6.3125 0l0 -1.09375l6.3125 0l0 1.09375zm0 2.890625l-6.3125 0l0 -1.09375l6.3125 0l0 1.09375zm1.2834167 -1.984375q0 -1.6875 0.34375 -2.71875q0.359375 -1.03125 1.046875 -1.59375q0.6875 -0.5625 1.71875 -0.5625q0.78125 0 1.359375 0.3125q0.578125 0.296875 0.953125 0.890625q0.375 0.578125 0.59375 1.421875q0.21875 0.828125 0.21875 2.25q0 1.671875 -0.359375 2.703125q-0.34375 1.03125 -1.03125 1.59375q-0.671875 0.5625 -1.734375 0.5625q-1.375 0 -2.15625 -0.984375q-0.953125 -1.1875 -0.953125 -3.875zm1.203125 0q0 2.34375 0.546875 3.125q0.5625 0.78125 1.359375 0.78125q0.8125 0 1.359375 -0.78125q0.5625 -0.78125 0.5625 -3.125q0 -2.359375 -0.5625 -3.125q-0.546875 -0.78125 -1.359375 -0.78125q-0.8125 0 -1.296875 0.6875q-0.609375 0.875 -0.609375 3.21875zm216.46729 3.65625l0.171875 1.03125q-0.5 0.109375 -0.890625 0.109375q-0.640625 0 -1.0 -0.203125q-0.34375 -0.203125 -0.484375 -0.53125q-0.140625 -0.328125 -0.140625 -1.390625l0 -3.96875l-0.859375 0l0 -0.90625l0.859375 0l0 -1.71875l1.171875 -0.703125l0 2.421875l1.171875 0l0 0.90625l-1.171875 0l0 4.046875q0 0.5 0.046875 0.640625q0.0625 0.140625 0.203125 0.234375q0.140625 0.078125 0.40625 0.078125q0.203125 0 0.515625 -0.046875zm7.3123627 -4.5625l-6.3125 0l0 -1.09375l6.3125 0l0 1.09375zm0 2.890625l-6.3125 0l0 -1.09375l6.3125 0l0 1.09375zm5.7052917 2.71875l-1.171875 0l0 -7.46875q-0.421875 0.40625 -1.109375 0.8125q-0.6875 0.40625 -1.234375 0.609375l0 -1.140625q0.984375 -0.453125 1.71875 -1.109375q0.734375 -0.671875 1.03125 -1.28125l0.765625 0l0 9.578125zm2.9906158 -4.703125q0 -1.6875 0.34375 -2.71875q0.359375 -1.03125 1.046875 -1.59375q0.6875 -0.5625 1.71875 -0.5625q0.78125 0 1.359375 0.3125q0.578125 0.296875 0.953125 0.890625q0.375 0.578125 0.59375 1.421875q0.21875 0.828125 0.21875 2.25q0 1.671875 -0.359375 2.703125q-0.34375 1.03125 -1.03125 1.59375q-0.671875 0.5625 -1.734375 0.5625q-1.375 0 -2.15625 -0.984375q-0.953125 -1.1875 -0.953125 -3.875zm1.203125 0q0 2.34375 0.546875 3.125q0.5625 0.78125 1.359375 0.78125q0.8125 0 1.359375 -0.78125q0.5625 -0.78125 0.5625 -3.125q0 -2.359375 -0.5625 -3.125q-0.546875 -0.78125 -1.359375 -0.78125q-0.8125 0 -1.296875 0.6875q-0.609375 0.875 -0.609375 3.21875zm6.2093506 0q0 -1.6875 0.34375 -2.71875q0.359375 -1.03125 1.046875 -1.59375q0.6875 -0.5625 1.71875 -0.5625q0.78125 0 1.359375 0.3125q0.578125 0.296875 0.953125 0.890625q0.375 0.578125 0.59375 1.421875q0.21875 0.828125 0.21875 2.25q0 1.671875 -0.359375 2.703125q-0.34375 1.03125 -1.03125 1.59375q-0.671875 0.5625 -1.734375 0.5625q-1.375 0 -2.15625 -0.984375q-0.953125 -1.1875 -0.953125 -3.875zm1.203125 0q0 2.34375 0.546875 3.125q0.5625 0.78125 1.359375 0.78125q0.8125 0 1.359375 -0.78125q0.5625 -0.78125 0.5625 -3.125q0 -2.359375 -0.5625 -3.125q-0.546875 -0.78125 -1.359375 -0.78125q-0.8125 0 -1.296875 0.6875q-0.609375 0.875 -0.609375 3.21875zm6.0687256 2.640625l1.15625 -0.1875q0.109375 0.703125 0.546875 1.078125q0.453125 0.359375 1.25 0.359375q0.8125 0 1.203125 -0.328125q0.390625 -0.328125 0.390625 -0.765625q0 -0.390625 -0.359375 -0.625q-0.234375 -0.15625 -1.1875 -0.390625q-1.296875 -0.328125 -1.796875 -0.5625q-0.484375 -0.25 -0.75 -0.65625q-0.25 -0.421875 -0.25 -0.9375q0 -0.453125 0.203125 -0.84375q0.21875 -0.40625 0.578125 -0.671875q0.28125 -0.1875 0.75 -0.328125q0.46875 -0.140625 1.015625 -0.140625q0.8125 0 1.421875 0.234375q0.609375 0.234375 0.90625 0.640625q0.296875 0.390625 0.40625 1.0625l-1.140625 0.15625q-0.078125 -0.53125 -0.453125 -0.828125q-0.375 -0.3125 -1.0625 -0.3125q-0.8125 0 -1.15625 0.265625q-0.34375 0.265625 -0.34375 0.625q0 0.234375 0.140625 0.421875q0.15625 0.1875 0.453125 0.3125q0.171875 0.0625 1.03125 0.296875q1.25 0.328125 1.734375 0.546875q0.5 0.203125 0.78125 0.609375q0.28125 0.40625 0.28125 1.0q0 0.59375 -0.34375 1.109375q-0.34375 0.515625 -1.0 0.796875q-0.640625 0.28125 -1.453125 0.28125q-1.34375 0 -2.046875 -0.5625q-0.703125 -0.5625 -0.90625 -1.65625zm194.84543 1.015625l0.171875 1.03125q-0.5 0.109375 -0.890625 0.109375q-0.640625 0 -1.0 -0.203125q-0.34375 -0.203125 -0.484375 -0.53125q-0.140625 -0.328125 -0.140625 -1.390625l0 -3.96875l-0.859375 0l0 -0.90625l0.859375 0l0 -1.71875l1.171875 -0.703125l0 2.421875l1.171875 0l0 0.90625l-1.171875 0l0 4.046875q0 0.5 0.046875 0.640625q0.0625 0.140625 0.203125 0.234375q0.140625 0.078125 0.40625 0.078125q0.203125 0 0.515625 -0.046875zm7.312378 -4.5625l-6.3125 0l0 -1.09375l6.3125 0l0 1.09375zm0 2.890625l-6.3125 0l0 -1.09375l6.3125 0l0 1.09375zm7.4396667 1.59375l0 1.125l-6.296875 0q-0.015625 -0.421875 0.140625 -0.8125q0.234375 -0.640625 0.765625 -1.265625q0.53125 -0.625 1.53125 -1.453125q1.5625 -1.265625 2.109375 -2.015625q0.546875 -0.75 0.546875 -1.40625q0 -0.703125 -0.5 -1.171875q-0.5 -0.484375 -1.296875 -0.484375q-0.859375 0 -1.375 0.515625q-0.5 0.5 -0.5 1.390625l-1.203125 -0.109375q0.125 -1.359375 0.921875 -2.0625q0.8125 -0.703125 2.171875 -0.703125q1.375 0 2.171875 0.765625q0.8125 0.75 0.8125 1.875q0 0.578125 -0.234375 1.140625q-0.234375 0.546875 -0.78125 1.15625q-0.546875 0.609375 -1.8125 1.671875q-1.046875 0.890625 -1.359375 1.21875q-0.296875 0.3125 -0.484375 0.625l4.671875 0zm1.2562256 -3.578125q0 -1.6875 0.34375 -2.71875q0.359375 -1.03125 1.046875 -1.59375q0.6875 -0.5625 1.71875 -0.5625q0.78125 0 1.359375 0.3125q0.578125 0.296875 0.953125 0.890625q0.375 0.578125 0.59375 1.421875q0.21875 0.828125 0.21875 2.25q0 1.671875 -0.359375 2.703125q-0.34375 1.03125 -1.03125 1.59375q-0.671875 0.5625 -1.734375 0.5625q-1.375 0 -2.15625 -0.984375q-0.953125 -1.1875 -0.953125 -3.875zm1.203125 0q0 2.34375 0.546875 3.125q0.5625 0.78125 1.359375 0.78125q0.8125 0 1.359375 -0.78125q0.5625 -0.78125 0.5625 -3.125q0 -2.359375 -0.5625 -3.125q-0.546875 -0.78125 -1.359375 -0.78125q-0.8125 0 -1.296875 0.6875q-0.609375 0.875 -0.609375 3.21875zm6.2093506 0q0 -1.6875 0.34375 -2.71875q0.359375 -1.03125 1.046875 -1.59375q0.6875 -0.5625 1.71875 -0.5625q0.78125 0 1.359375 0.3125q0.578125 0.296875 0.953125 0.890625q0.375 0.578125 0.59375 1.421875q0.21875 0.828125 0.21875 2.25q0 1.671875 -0.359375 2.703125q-0.34375 1.03125 -1.03125 1.59375q-0.671875 0.5625 -1.734375 0.5625q-1.375 0 -2.15625 -0.984375q-0.953125 -1.1875 -0.953125 -3.875zm1.203125 0q0 2.34375 0.546875 3.125q0.5625 0.78125 1.359375 0.78125q0.8125 0 1.359375 -0.78125q0.5625 -0.78125 0.5625 -3.125q0 -2.359375 -0.5625 -3.125q-0.546875 -0.78125 -1.359375 -0.78125q-0.8125 0 -1.296875 0.6875q-0.609375 0.875 -0.609375 3.21875zm6.0687256 2.640625l1.15625 -0.1875q0.109375 0.703125 0.546875 1.078125q0.453125 0.359375 1.25 0.359375q0.8125 0 1.203125 -0.328125q0.390625 -0.328125 0.390625 -0.765625q0 -0.390625 -0.359375 -0.625q-0.234375 -0.15625 -1.1875 -0.390625q-1.296875 -0.328125 -1.796875 -0.5625q-0.484375 -0.25 -0.75 -0.65625q-0.25 -0.421875 -0.25 -0.9375q0 -0.453125 0.203125 -0.84375q0.21875 -0.40625 0.578125 -0.671875q0.28125 -0.1875 0.75 -0.328125q0.46875 -0.140625 1.015625 -0.140625q0.8125 0 1.421875 0.234375q0.609375 0.234375 0.90625 0.640625q0.296875 0.390625 0.40625 1.0625l-1.140625 0.15625q-0.078125 -0.53125 -0.453125 -0.828125q-0.375 -0.3125 -1.0625 -0.3125q-0.8125 0 -1.15625 0.265625q-0.34375 0.265625 -0.34375 0.625q0 0.234375 0.140625 0.421875q0.15625 0.1875 0.453125 0.3125q0.171875 0.0625 1.03125 0.296875q1.25 0.328125 1.734375 0.546875q0.5 0.203125 0.78125 0.609375q0.28125 0.40625 0.28125 1.0q0 0.59375 -0.34375 1.109375q-0.34375 0.515625 -1.0 0.796875q-0.640625 0.28125 -1.453125 0.28125q-1.34375 0 -2.046875 -0.5625q-0.703125 -0.5625 -0.90625 -1.65625zm187.43942 1.015625l0.171875 1.03125q-0.5 0.109375 -0.890625 0.109375q-0.640625 0 -1.0 -0.203125q-0.34375 -0.203125 -0.484375 -0.53125q-0.140625 -0.328125 -0.140625 -1.390625l0 -3.96875l-0.859375 0l0 -0.90625l0.859375 0l0 -1.71875l1.171875 -0.703125l0 2.421875l1.171875 0l0 0.90625l-1.171875 0l0 4.046875q0 0.5 0.046875 0.640625q0.0625 0.140625 0.203125 0.234375q0.140625 0.078125 0.40625 0.078125q0.203125 0 0.515625 -0.046875zm7.312378 -4.5625l-6.3125 0l0 -1.09375l6.3125 0l0 1.09375zm0 2.890625l-6.3125 0l0 -1.09375l6.3125 0l0 1.09375zm1.2990112 0.203125l1.171875 -0.15625q0.203125 1.0 0.6875 1.4375q0.484375 0.4375 1.171875 0.4375q0.828125 0 1.390625 -0.578125q0.578125 -0.578125 0.578125 -1.421875q0 -0.796875 -0.53125 -1.3125q-0.515625 -0.53125 -1.328125 -0.53125q-0.34375 0 -0.828125 0.125l0.125 -1.03125q0.125 0.015625 0.1875 0.015625q0.75 0 1.34375 -0.390625q0.609375 -0.390625 0.609375 -1.203125q0 -0.640625 -0.4375 -1.0625q-0.4375 -0.421875 -1.125 -0.421875q-0.6875 0 -1.140625 0.4375q-0.453125 0.421875 -0.59375 1.28125l-1.171875 -0.21875q0.21875 -1.171875 0.984375 -1.8125q0.765625 -0.65625 1.890625 -0.65625q0.78125 0 1.4375 0.34375q0.65625 0.328125 1.0 0.90625q0.359375 0.578125 0.359375 1.234375q0 0.609375 -0.34375 1.125q-0.328125 0.5 -0.96875 0.796875q0.84375 0.203125 1.3125 0.828125q0.46875 0.609375 0.46875 1.53125q0 1.25 -0.921875 2.125q-0.90625 0.859375 -2.296875 0.859375q-1.25 0 -2.09375 -0.75q-0.828125 -0.75 -0.9375 -1.9375zm7.3968506 -2.1875q0 -1.6875 0.34375 -2.71875q0.359375 -1.03125 1.046875 -1.59375q0.6875 -0.5625 1.71875 -0.5625q0.78125 0 1.359375 0.3125q0.578125 0.296875 0.953125 0.890625q0.375 0.578125 0.59375 1.421875q0.21875 0.828125 0.21875 2.25q0 1.671875 -0.359375 2.703125q-0.34375 1.03125 -1.03125 1.59375q-0.671875 0.5625 -1.734375 0.5625q-1.375 0 -2.15625 -0.984375q-0.953125 -1.1875 -0.953125 -3.875zm1.203125 0q0 2.34375 0.546875 3.125q0.5625 0.78125 1.359375 0.78125q0.8125 0 1.359375 -0.78125q0.5625 -0.78125 0.5625 -3.125q0 -2.359375 -0.5625 -3.125q-0.546875 -0.78125 -1.359375 -0.78125q-0.8125 0 -1.296875 0.6875q-0.609375 0.875 -0.609375 3.21875zm6.2093506 0q0 -1.6875 0.34375 -2.71875q0.359375 -1.03125 1.046875 -1.59375q0.6875 -0.5625 1.71875 -0.5625q0.78125 0 1.359375 0.3125q0.578125 0.296875 0.953125 0.890625q0.375 0.578125 0.59375 1.421875q0.21875 0.828125 0.21875 2.25q0 1.671875 -0.359375 2.703125q-0.34375 1.03125 -1.03125 1.59375q-0.671875 0.5625 -1.734375 0.5625q-1.375 0 -2.15625 -0.984375q-0.953125 -1.1875 -0.953125 -3.875zm1.203125 0q0 2.34375 0.546875 3.125q0.5625 0.78125 1.359375 0.78125q0.8125 0 1.359375 -0.78125q0.5625 -0.78125 0.5625 -3.125q0 -2.359375 -0.5625 -3.125q-0.546875 -0.78125 -1.359375 -0.78125q-0.8125 0 -1.296875 0.6875q-0.609375 0.875 -0.609375 3.21875zm6.0687256 2.640625l1.15625 -0.1875q0.109375 0.703125 0.546875 1.078125q0.453125 0.359375 1.25 0.359375q0.8125 0 1.203125 -0.328125q0.390625 -0.328125 0.390625 -0.765625q0 -0.390625 -0.359375 -0.625q-0.234375 -0.15625 -1.1875 -0.390625q-1.296875 -0.328125 -1.796875 -0.5625q-0.484375 -0.25 -0.75 -0.65625q-0.25 -0.421875 -0.25 -0.9375q0 -0.453125 0.203125 -0.84375q0.21875 -0.40625 0.578125 -0.671875q0.28125 -0.1875 0.75 -0.328125q0.46875 -0.140625 1.015625 -0.140625q0.8125 0 1.421875 0.234375q0.609375 0.234375 0.90625 0.640625q0.296875 0.390625 0.40625 1.0625l-1.140625 0.15625q-0.078125 -0.53125 -0.453125 -0.828125q-0.375 -0.3125 -1.0625 -0.3125q-0.8125 0 -1.15625 0.265625q-0.34375 0.265625 -0.34375 0.625q0 0.234375 0.140625 0.421875q0.15625 0.1875 0.453125 0.3125q0.171875 0.0625 1.03125 0.296875q1.25 0.328125 1.734375 0.546875q0.5 0.203125 0.78125 0.609375q0.28125 0.40625 0.28125 1.0q0 0.59375 -0.34375 1.109375q-0.34375 0.515625 -1.0 0.796875q-0.640625 0.28125 -1.453125 0.28125q-1.34375 0 -2.046875 -0.5625q-0.703125 -0.5625 -0.90625 -1.65625z" fill-rule="nonzero"/><path fill="#000000" fill-opacity="0.0" d="m329.17767 -3.1957176l68.72443 0l0 35.559055l-68.72443 0z" fill-rule="evenodd"/><path fill="#000000" d="m338.52142 18.604282l2.0 -9.546876l1.171875 0l-1.984375 9.546876l-1.1875 0zm3.27359 -2.625001q0 -2.015625 1.1875 -3.34375q0.984375 -1.09375 2.578125 -1.09375q1.25 0 2.015625 0.78125q0.765625 0.78125 0.765625 2.109375q0 1.1875 -0.484375 2.218751q-0.484375 1.015625 -1.375 1.5625q-0.890625 0.546875 -1.875 0.546875q-0.796875 0 -1.46875 -0.34375q-0.65625 -0.34375 -1.0 -0.96875q-0.34375 -0.640625 -0.34375 -1.468751zm1.171875 -0.109375q0 0.96875095 0.46875 1.484376q0.46875 0.5 1.1875 0.5q0.375 0 0.75 -0.15625q0.375 -0.15625 0.6875 -0.46875q0.328125 -0.3125 0.546875 -0.703125q0.21875 -0.40625 0.359375 -0.87500095q0.203125 -0.640625 0.203125 -1.234375q0 -0.9375 -0.46875 -1.453125q-0.46875 -0.515625 -1.1875 -0.515625q-0.5625 0 -1.015625 0.265625q-0.453125 0.265625 -0.828125 0.78125q-0.359375 0.5 -0.53125 1.171875q-0.171875 0.671875 -0.171875 1.203125zm10.693726 1.875001q-0.625 0.53125 -1.1875 0.78125q-0.5625 0.234375 -1.203125 0.234375q-0.96875 0 -1.5625 -0.5625q-0.578125 -0.5625 -0.578125 -1.4375q0 -0.578125 0.265625 -1.015626q0.265625 -0.453125 0.703125 -0.71875q0.4375 -0.28125 1.0625 -0.390625q0.40625 -0.078125 1.515625 -0.125q1.109375 -0.046875 1.59375 -0.234375q0.125 -0.484375 0.125 -0.8125q0 -0.40625 -0.296875 -0.640625q-0.40625 -0.328125 -1.1875 -0.328125q-0.75 0 -1.21875 0.328125q-0.46875 0.328125 -0.6875 0.9375l-1.1875 -0.109375q0.359375 -1.015625 1.140625 -1.5625q0.796875 -0.546875 2.0 -0.546875q1.28125 0 2.03125 0.609375q0.578125 0.453125 0.578125 1.1875q0 0.546875 -0.15625 1.28125l-0.390625 1.718751q-0.1875 0.8125 -0.1875 1.328125q0 0.328125 0.15625 0.9375l-1.203125 0q-0.09375 -0.34375 -0.125 -0.859375zm0.421875 -2.640626q-0.234375 0.09375 -0.53125 0.15625q-0.28125 0.046875 -0.9375 0.109375q-1.03125 0.078125 -1.453125 0.21875q-0.421875 0.140625 -0.640625 0.45312595q-0.21875 0.296875 -0.21875 0.671875q0 0.5 0.34375 0.828125q0.34375 0.3125 0.984375 0.3125q0.578125 0 1.109375 -0.3125q0.546875 -0.3125 0.859375 -0.859375q0.3125 -0.5625 0.484375 -1.578126zm6.9906006 2.500001q-1.015625 1.15625 -2.109375 1.15625q-0.984375 0 -1.640625 -0.71875q-0.65625 -0.734375 -0.65625 -2.109376q0 -1.265625 0.515625 -2.3125q0.515625 -1.046875 1.296875 -1.5625q0.78125 -0.515625 1.5625 -0.515625q1.28125 0 1.9375 1.234375l0.78125 -3.71875l1.171875 0l-1.984375 9.546876l-1.09375 0l0.21875 -1.0zm-3.234375 -1.890626q0 0.71875095 0.140625 1.140626q0.140625 0.40625 0.484375 0.6875q0.34375 0.28125 0.828125 0.28125q0.796875 0 1.453125 -0.84375q0.875 -1.109376 0.875 -2.734376q0 -0.8125 -0.4375 -1.265625q-0.421875 -0.46875 -1.078125 -0.46875q-0.421875 0 -0.765625 0.1875q-0.34375 0.1875 -0.6875 0.640625q-0.34375 0.453125 -0.578125 1.15625q-0.234375 0.6875 -0.234375 1.21875zm7.6468506 -5.3125l0.28125 -1.34375l1.171875 0l-0.28125 1.34375l-1.171875 0zm-1.71875 8.203126l1.453125 -6.906251l1.171875 0l-1.4375 6.906251l-1.1875 0zm3.007965 0l1.453125 -6.906251l1.0625 0l-0.25 1.203125q0.6875 -0.71875 1.296875 -1.03125q0.609375 -0.328125 1.234375 -0.328125q0.84375 0 1.3125 0.453125q0.484375 0.453125 0.484375 1.21875q0 0.375 -0.171875 1.203125l-0.875 4.187501l-1.171875 0l0.921875 -4.375001q0.125 -0.640625 0.125 -0.953125q0 -0.34375 -0.234375 -0.546875q-0.234375 -0.21875 -0.6875 -0.21875q-0.90625 0 -1.609375 0.65625q-0.703125 0.640625 -1.03125 2.21875l-0.671875 3.218751l-1.1875 0zm7.3499756 0.625l1.1875 0.109375q0 0.40625 0.109375 0.609375q0.109375 0.203125 0.34375 0.3125q0.328125 0.140625 0.828125 0.140625q1.0625 0 1.53125 -0.546875q0.3125 -0.375 0.578125 -1.625l0.109375 -0.5625q-0.921875 0.9375 -1.953125 0.9375q-1.046875 0 -1.75 -0.765625q-0.703125 -0.78125 -0.703125 -2.187501q0 -1.171875 0.546875 -2.140625q0.5625 -0.984375 1.328125 -1.46875q0.765625 -0.5 1.578125 -0.5q1.359375 0 2.09375 1.28125l0.234375 -1.125l1.078125 0l-1.390625 6.671876q-0.21875 1.09375 -0.59375 1.703125q-0.375 0.625 -1.03125 0.953125q-0.65625 0.34375 -1.53125 0.34375q-0.828125 0 -1.4375 -0.21875q-0.59375 -0.203125 -0.890625 -0.625q-0.296875 -0.40625 -0.296875 -0.953125q0 -0.15625 0.03125 -0.34375zm1.46875 -3.687501q0 0.71875095 0.140625 1.078126q0.203125 0.5 0.5625 0.765625q0.359375 0.25 0.796875 0.25q0.578125 0 1.140625 -0.40625q0.578125 -0.40625 0.9375 -1.250001q0.359375 -0.859375 0.359375 -1.625q0 -0.859375 -0.484375 -1.359375q-0.46875 -0.515625 -1.15625 -0.515625q-0.4375 0 -0.84375 0.234375q-0.390625 0.234375 -0.75 0.703125q-0.34375 0.46875 -0.53125 1.140625q-0.171875 0.65625 -0.171875 0.984375z" fill-rule="nonzero"/><path fill="#000000" fill-opacity="0.0" d="m366.89743 23.282946l134.2362 0l0 35.55906l-134.2362 0z" fill-rule="evenodd"/><path fill="#000000" d="m375.7568 47.739197l2.0 -9.5625l1.09375 0l-0.203125 0.953125q0.59375 -0.625 1.078125 -0.859375q0.484375 -0.25 1.015625 -0.25q0.984375 0 1.625 0.71875q0.65625 0.71875 0.65625 2.0625q0 1.078125 -0.359375 1.96875q-0.34375 0.875 -0.875 1.421875q-0.515625 0.546875 -1.046875 0.796875q-0.53125 0.25 -1.09375 0.25q-1.25 0 -1.921875 -1.265625l-0.78125 3.765625l-1.1875 0zm2.328125 -5.484375q0 0.78125 0.109375 1.078125q0.171875 0.421875 0.53125 0.6875q0.375 0.25 0.875 0.25q1.015625 0 1.640625 -1.140625q0.625 -1.140625 0.625 -2.328125q0 -0.875 -0.421875 -1.359375q-0.421875 -0.484375 -1.046875 -0.484375q-0.453125 0 -0.84375 0.25q-0.375 0.234375 -0.703125 0.703125q-0.328125 0.46875 -0.546875 1.15625q-0.21875 0.6875 -0.21875 1.1875zm5.6624756 2.828125l1.453125 -6.90625l1.03125 0l-0.28125 1.40625q0.53125 -0.796875 1.03125 -1.171875q0.515625 -0.390625 1.046875 -0.390625q0.359375 0 0.875 0.25l-0.484375 1.09375q-0.3125 -0.21875 -0.671875 -0.21875q-0.625 0 -1.28125 0.6875q-0.640625 0.6875 -1.015625 2.484375l-0.578125 2.765625l-1.125 0zm9.5164795 -2.34375l1.15625 0.109375q-0.25 0.859375 -1.140625 1.625q-0.890625 0.765625 -2.125 0.765625q-0.765625 0 -1.40625 -0.34375q-0.640625 -0.359375 -0.984375 -1.03125q-0.328125 -0.6875 -0.328125 -1.546875q0 -1.140625 0.515625 -2.203125q0.53125 -1.0625 1.359375 -1.578125q0.84375 -0.515625 1.8125 -0.515625q1.234375 0 1.96875 0.765625q0.75 0.765625 0.75 2.09375q0 0.5 -0.09375 1.046875l-5.09375 0q-0.03125 0.1875 -0.03125 0.359375q0 0.96875 0.4375 1.484375q0.453125 0.5 1.109375 0.5q0.59375 0 1.171875 -0.390625q0.59375 -0.390625 0.921875 -1.140625zm-3.421875 -1.71875l3.875 0q0.015625 -0.1875 0.015625 -0.265625q0 -0.875 -0.453125 -1.34375q-0.4375 -0.484375 -1.125 -0.484375q-0.765625 0 -1.390625 0.53125q-0.609375 0.515625 -0.921875 1.5625zm5.1781006 6.71875l2.0 -9.5625l1.09375 0l-0.203125 0.953125q0.59375 -0.625 1.078125 -0.859375q0.484375 -0.25 1.015625 -0.25q0.984375 0 1.625 0.71875q0.65625 0.71875 0.65625 2.0625q0 1.078125 -0.359375 1.96875q-0.34375 0.875 -0.875 1.421875q-0.515625 0.546875 -1.046875 0.796875q-0.53125 0.25 -1.09375 0.25q-1.25 0 -1.921875 -1.265625l-0.78125 3.765625l-1.1875 0zm2.328125 -5.484375q0 0.78125 0.109375 1.078125q0.171875 0.421875 0.53125 0.6875q0.375 0.25 0.875 0.25q1.015625 0 1.640625 -1.140625q0.625 -1.140625 0.625 -2.328125q0 -0.875 -0.421875 -1.359375q-0.421875 -0.484375 -1.046875 -0.484375q-0.453125 0 -0.84375 0.25q-0.375 0.234375 -0.703125 0.703125q-0.328125 0.46875 -0.546875 1.15625q-0.21875 0.6875 -0.21875 1.1875zm5.6624756 2.828125l1.453125 -6.90625l1.03125 0l-0.28125 1.40625q0.53125 -0.796875 1.03125 -1.171875q0.515625 -0.390625 1.046875 -0.390625q0.359375 0 0.875 0.25l-0.484375 1.09375q-0.3125 -0.21875 -0.671875 -0.21875q-0.625 0 -1.28125 0.6875q-0.640625 0.6875 -1.015625 2.484375l-0.578125 2.765625l-1.125 0zm4.657135 -2.625q0 -2.015625 1.1875 -3.34375q0.984375 -1.09375 2.578125 -1.09375q1.25 0 2.015625 0.78125q0.765625 0.78125 0.765625 2.109375q0 1.1875 -0.484375 2.21875q-0.484375 1.015625 -1.375 1.5625q-0.890625 0.546875 -1.875 0.546875q-0.796875 0 -1.46875 -0.34375q-0.65625 -0.34375 -1.0 -0.96875q-0.34375 -0.640625 -0.34375 -1.46875zm1.171875 -0.109375q0 0.96875 0.46875 1.484375q0.46875 0.5 1.1875 0.5q0.375 0 0.75 -0.15625q0.375 -0.15625 0.6875 -0.46875q0.328125 -0.3125 0.546875 -0.703125q0.21875 -0.40625 0.359375 -0.875q0.203125 -0.640625 0.203125 -1.234375q0 -0.9375 -0.46875 -1.453125q-0.46875 -0.515625 -1.1875 -0.515625q-0.5625 0 -1.015625 0.265625q-0.453125 0.265625 -0.828125 0.78125q-0.359375 0.5 -0.53125 1.171875q-0.171875 0.671875 -0.171875 1.203125zm10.803101 0.21875l1.171875 0.125q-0.4375 1.296875 -1.265625 1.921875q-0.8125 0.625 -1.84375 0.625q-1.140625 0 -1.84375 -0.71875q-0.6875 -0.734375 -0.6875 -2.046875q0 -1.125 0.4375 -2.21875q0.453125 -1.09375 1.28125 -1.65625q0.84375 -0.578125 1.921875 -0.578125q1.109375 0 1.765625 0.625q0.65625 0.625 0.65625 1.65625l-1.15625 0.078125q-0.015625 -0.65625 -0.390625 -1.015625q-0.375 -0.375 -0.984375 -0.375q-0.703125 0 -1.234375 0.453125q-0.515625 0.4375 -0.8125 1.359375q-0.296875 0.90625 -0.296875 1.75q0 0.890625 0.390625 1.34375q0.390625 0.4375 0.96875 0.4375q0.5625 0 1.078125 -0.4375q0.53125 -0.4375 0.84375 -1.328125zm6.9609375 0.171875l1.15625 0.109375q-0.25 0.859375 -1.140625 1.625q-0.890625 0.765625 -2.125 0.765625q-0.765625 0 -1.40625 -0.34375q-0.640625 -0.359375 -0.984375 -1.03125q-0.328125 -0.6875 -0.328125 -1.546875q0 -1.140625 0.515625 -2.203125q0.53125 -1.0625 1.359375 -1.578125q0.84375 -0.515625 1.8125 -0.515625q1.234375 0 1.96875 0.765625q0.75 0.765625 0.75 2.09375q0 0.5 -0.09375 1.046875l-5.09375 0q-0.03125 0.1875 -0.03125 0.359375q0 0.96875 0.4375 1.484375q0.453125 0.5 1.109375 0.5q0.59375 0 1.171875 -0.390625q0.59375 -0.390625 0.921875 -1.140625zm-3.421875 -1.71875l3.875 0q0.015625 -0.1875 0.015625 -0.265625q0 -0.875 -0.453125 -1.34375q-0.4375 -0.484375 -1.125 -0.484375q-0.765625 0 -1.390625 0.53125q-0.609375 0.515625 -0.921875 1.5625zm5.8656006 1.703125l1.1875 -0.078125q0 0.515625 0.15625 0.875q0.15625 0.359375 0.578125 0.59375q0.421875 0.21875 0.96875 0.21875q0.78125 0 1.171875 -0.3125q0.390625 -0.3125 0.390625 -0.734375q0 -0.3125 -0.234375 -0.578125q-0.234375 -0.28125 -1.171875 -0.671875q-0.9375 -0.40625 -1.1875 -0.578125q-0.4375 -0.265625 -0.671875 -0.625q-0.21875 -0.359375 -0.21875 -0.828125q0 -0.8125 0.65625 -1.390625q0.65625 -0.59375 1.828125 -0.59375q1.296875 0 1.96875 0.609375q0.6875 0.59375 0.71875 1.578125l-1.15625 0.078125q-0.03125 -0.625 -0.453125 -0.984375q-0.40625 -0.375 -1.171875 -0.375q-0.609375 0 -0.953125 0.28125q-0.328125 0.28125 -0.328125 0.609375q0 0.3125 0.296875 0.5625q0.1875 0.171875 1.0 0.53125q1.359375 0.578125 1.703125 0.921875q0.5625 0.53125 0.5625 1.3125q0 0.515625 -0.3125 1.015625q-0.3125 0.484375 -0.96875 0.78125q-0.640625 0.296875 -1.515625 0.296875q-1.203125 0 -2.046875 -0.59375q-0.84375 -0.59375 -0.796875 -1.921875zm6.6640625 0l1.1875 -0.078125q0 0.515625 0.15625 0.875q0.15625 0.359375 0.578125 0.59375q0.421875 0.21875 0.96875 0.21875q0.78125 0 1.171875 -0.3125q0.390625 -0.3125 0.390625 -0.734375q0 -0.3125 -0.234375 -0.578125q-0.234375 -0.28125 -1.171875 -0.671875q-0.9375 -0.40625 -1.1875 -0.578125q-0.4375 -0.265625 -0.671875 -0.625q-0.21875 -0.359375 -0.21875 -0.828125q0 -0.8125 0.65625 -1.390625q0.65625 -0.59375 1.828125 -0.59375q1.296875 0 1.96875 0.609375q0.6875 0.59375 0.71875 1.578125l-1.15625 0.078125q-0.03125 -0.625 -0.453125 -0.984375q-0.40625 -0.375 -1.171875 -0.375q-0.609375 0 -0.953125 0.28125q-0.328125 0.28125 -0.328125 0.609375q0 0.3125 0.296875 0.5625q0.1875 0.171875 1.0 0.53125q1.359375 0.578125 1.703125 0.921875q0.5625 0.53125 0.5625 1.3125q0 0.515625 -0.3125 1.015625q-0.3125 0.484375 -0.96875 0.78125q-0.640625 0.296875 -1.515625 0.296875q-1.203125 0 -2.046875 -0.59375q-0.84375 -0.59375 -0.796875 -1.921875zm8.2265625 -5.84375l0.28125 -1.34375l1.171875 0l-0.28125 1.34375l-1.171875 0zm-1.71875 8.203125l1.453125 -6.90625l1.171875 0l-1.4375 6.90625l-1.1875 0zm3.007965 0l1.453125 -6.90625l1.0625 0l-0.25 1.203125q0.6875 -0.71875 1.296875 -1.03125q0.609375 -0.328125 1.234375 -0.328125q0.84375 0 1.3125 0.453125q0.484375 0.453125 0.484375 1.21875q0 0.375 -0.171875 1.203125l-0.875 4.1875l-1.171875 0l0.921875 -4.375q0.125 -0.640625 0.125 -0.953125q0 -0.34375 -0.234375 -0.546875q-0.234375 -0.21875 -0.6875 -0.21875q-0.90625 0 -1.609375 0.65625q-0.703125 0.640625 -1.03125 2.21875l-0.671875 3.21875l-1.1875 0zm7.3499756 0.625l1.1875 0.109375q0 0.40625 0.109375 0.609375q0.109375 0.203125 0.34375 0.3125q0.328125 0.140625 0.828125 0.140625q1.0625 0 1.53125 -0.546875q0.3125 -0.375 0.578125 -1.625l0.109375 -0.5625q-0.921875 0.9375 -1.953125 0.9375q-1.046875 0 -1.75 -0.765625q-0.703125 -0.78125 -0.703125 -2.1875q0 -1.171875 0.546875 -2.140625q0.5625 -0.984375 1.328125 -1.46875q0.765625 -0.5 1.578125 -0.5q1.359375 0 2.09375 1.28125l0.234375 -1.125l1.078125 0l-1.390625 6.671875q-0.21875 1.09375 -0.59375 1.703125q-0.375 0.625 -1.03125 0.953125q-0.65625 0.34375 -1.53125 0.34375q-0.828125 0 -1.4375 -0.21875q-0.59375 -0.203125 -0.890625 -0.625q-0.296875 -0.40625 -0.296875 -0.953125q0 -0.15625 0.03125 -0.34375zm1.46875 -3.6875q0 0.71875 0.140625 1.078125q0.203125 0.5 0.5625 0.765625q0.359375 0.25 0.796875 0.25q0.578125 0 1.140625 -0.40625q0.578125 -0.40625 0.9375 -1.25q0.359375 -0.859375 0.359375 -1.625q0 -0.859375 -0.484375 -1.359375q-0.46875 -0.515625 -1.15625 -0.515625q-0.4375 0 -0.84375 0.234375q-0.390625 0.234375 -0.75 0.703125q-0.34375 0.46875 -0.53125 1.140625q-0.171875 0.65625 -0.171875 0.984375z" fill-rule="nonzero"/><path fill="#000000" fill-opacity="0.0" d="m401.12674 51.166813l134.23624 0l0 35.559055l-134.23624 0z" fill-rule="evenodd"/><path fill="#000000" d="m412.2361 64.76369l0.28125 -1.34375l1.171875 0l-0.28125 1.34375l-1.171875 0zm-1.71875 8.203125l1.453125 -6.90625l1.171875 0l-1.4375 6.90625l-1.1875 0zm3.007965 0l1.453125 -6.90625l1.0625 0l-0.25 1.203125q0.6875 -0.71875 1.296875 -1.03125q0.609375 -0.328125 1.234375 -0.328125q0.84375 0 1.3125 0.453125q0.484375 0.453125 0.484375 1.21875q0 0.375 -0.171875 1.203125l-0.875 4.1875l-1.171875 0l0.921875 -4.375q0.125 -0.640625 0.125 -0.953125q0 -0.34375 -0.234375 -0.546875q-0.234375 -0.21875 -0.6875 -0.21875q-0.90625 0 -1.609375 0.65625q-0.703125 0.640625 -1.03125 2.21875l-0.671875 3.21875l-1.1875 0zm7.5843506 0l1.25 -6.0l-1.046875 0l0.1875 -0.90625l1.046875 0l0.203125 -0.984375q0.15625 -0.734375 0.3125 -1.0625q0.171875 -0.328125 0.546875 -0.53125q0.375 -0.21875 1.015625 -0.21875q0.453125 0 1.3125 0.1875l-0.21875 1.03125q-0.59375 -0.15625 -1.0 -0.15625q-0.34375 0 -0.53125 0.171875q-0.171875 0.171875 -0.296875 0.8125l-0.15625 0.75l1.3125 0l-0.1875 0.90625l-1.3125 0l-1.265625 6.0l-1.171875 0zm8.609222 -2.34375l1.15625 0.109375q-0.25 0.859375 -1.140625 1.625q-0.890625 0.765625 -2.125 0.765625q-0.765625 0 -1.40625 -0.34375q-0.640625 -0.359375 -0.984375 -1.03125q-0.328125 -0.6875 -0.328125 -1.546875q0 -1.140625 0.515625 -2.203125q0.53125 -1.0625 1.359375 -1.578125q0.84375 -0.515625 1.8125 -0.515625q1.234375 0 1.96875 0.765625q0.75 0.765625 0.75 2.09375q0 0.5 -0.09375 1.046875l-5.09375 0q-0.03125 0.1875 -0.03125 0.359375q0 0.96875 0.4375 1.484375q0.453125 0.5 1.109375 0.5q0.59375 0 1.171875 -0.390625q0.59375 -0.390625 0.921875 -1.140625zm-3.421875 -1.71875l3.875 0q0.015625 -0.1875 0.015625 -0.265625q0 -0.875 -0.453125 -1.34375q-0.4375 -0.484375 -1.125 -0.484375q-0.765625 0 -1.390625 0.53125q-0.609375 0.515625 -0.921875 1.5625zm5.7562256 4.0625l1.453125 -6.90625l1.03125 0l-0.28125 1.40625q0.53125 -0.796875 1.03125 -1.171875q0.515625 -0.390625 1.046875 -0.390625q0.359375 0 0.875 0.25l-0.484375 1.09375q-0.3125 -0.21875 -0.671875 -0.21875q-0.625 0 -1.28125 0.6875q-0.640625 0.6875 -1.015625 2.484375l-0.578125 2.765625l-1.125 0zm9.51651 -2.34375l1.15625 0.109375q-0.25 0.859375 -1.140625 1.625q-0.890625 0.765625 -2.125 0.765625q-0.765625 0 -1.40625 -0.34375q-0.640625 -0.359375 -0.984375 -1.03125q-0.328125 -0.6875 -0.328125 -1.546875q0 -1.140625 0.515625 -2.203125q0.53125 -1.0625 1.359375 -1.578125q0.84375 -0.515625 1.8125 -0.515625q1.234375 0 1.96875 0.765625q0.75 0.765625 0.75 2.09375q0 0.5 -0.09375 1.046875l-5.09375 0q-0.03125 0.1875 -0.03125 0.359375q0 0.96875 0.4375 1.484375q0.453125 0.5 1.109375 0.5q0.59375 0 1.171875 -0.390625q0.59375 -0.390625 0.921875 -1.140625zm-3.421875 -1.71875l3.875 0q0.015625 -0.1875 0.015625 -0.265625q0 -0.875 -0.453125 -1.34375q-0.4375 -0.484375 -1.125 -0.484375q-0.765625 0 -1.390625 0.53125q-0.609375 0.515625 -0.921875 1.5625zm5.7562256 4.0625l1.453125 -6.90625l1.0625 0l-0.25 1.203125q0.6875 -0.71875 1.296875 -1.03125q0.609375 -0.328125 1.234375 -0.328125q0.84375 0 1.3125 0.453125q0.484375 0.453125 0.484375 1.21875q0 0.375 -0.171875 1.203125l-0.875 4.1875l-1.171875 0l0.921875 -4.375q0.125 -0.640625 0.125 -0.953125q0 -0.34375 -0.234375 -0.546875q-0.234375 -0.21875 -0.6875 -0.21875q-0.90625 0 -1.609375 0.65625q-0.703125 0.640625 -1.03125 2.21875l-0.671875 3.21875l-1.1875 0zm12.193726 -2.515625l1.171875 0.125q-0.4375 1.296875 -1.265625 1.921875q-0.8125 0.625 -1.84375 0.625q-1.140625 0 -1.84375 -0.71875q-0.6875 -0.734375 -0.6875 -2.046875q0 -1.125 0.4375 -2.21875q0.453125 -1.09375 1.28125 -1.65625q0.84375 -0.578125 1.921875 -0.578125q1.109375 0 1.765625 0.625q0.65625 0.625 0.65625 1.65625l-1.15625 0.078125q-0.015625 -0.65625 -0.390625 -1.015625q-0.375 -0.375 -0.984375 -0.375q-0.703125 0 -1.234375 0.453125q-0.515625 0.4375 -0.8125 1.359375q-0.296875 0.90625 -0.296875 1.75q0 0.890625 0.390625 1.34375q0.390625 0.4375 0.96875 0.4375q0.5625 0 1.078125 -0.4375q0.53125 -0.4375 0.84375 -1.328125zm6.9609375 0.171875l1.15625 0.109375q-0.25 0.859375 -1.140625 1.625q-0.890625 0.765625 -2.125 0.765625q-0.765625 0 -1.40625 -0.34375q-0.640625 -0.359375 -0.984375 -1.03125q-0.328125 -0.6875 -0.328125 -1.546875q0 -1.140625 0.515625 -2.203125q0.53125 -1.0625 1.359375 -1.578125q0.84375 -0.515625 1.8125 -0.515625q1.234375 0 1.96875 0.765625q0.75 0.765625 0.75 2.09375q0 0.5 -0.09375 1.046875l-5.09375 0q-0.03125 0.1875 -0.03125 0.359375q0 0.96875 0.4375 1.484375q0.453125 0.5 1.109375 0.5q0.59375 0 1.171875 -0.390625q0.59375 -0.390625 0.921875 -1.140625zm-3.421875 -1.71875l3.875 0q0.015625 -0.1875 0.015625 -0.265625q0 -0.875 -0.453125 -1.34375q-0.4375 -0.484375 -1.125 -0.484375q-0.765625 0 -1.390625 0.53125q-0.609375 0.515625 -0.921875 1.5625z" fill-rule="nonzero"/><path fill="#d9d9d9" d="m127.541626 59.344788l30.456696 0l0 20.724411l-30.456696 0z" fill-rule="evenodd"/><path fill="#d9d9d9" d="m90.94635 32.20568l30.456696 0l0 20.724407l-30.456696 0z" fill-rule="evenodd"/><path fill="#d9d9d9" d="m54.395096 5.063948l30.456688 0l0 20.72441l-30.456688 0z" fill-rule="evenodd"/><path fill="#4a86e8" d="m57.61415 10.176862l0 0c0 -1.4495955 1.1751289 -2.6247249 2.6247215 -2.6247249l18.750553 0c0.6961212 0 1.3637314 0.27653265 1.855957 0.768764c0.49223328 0.49223137 0.7687683 1.1598406 0.7687683 1.8559608l0 10.498582c0 1.4495964 -1.1751328 2.6247253 -2.6247253 2.6247253l-18.750553 0c-1.4495926 0 -2.6247215 -1.1751289 -2.6247215 -2.6247253z" fill-rule="evenodd"/><path fill="#6aa84f" d="m94.333405 37.100494l0 0c0 -1.4495964 1.1751251 -2.6247253 2.6247177 -2.6247253l18.750557 0c0.6961212 0 1.3637238 0.27653503 1.855957 0.7687645c0.49223328 0.49223328 0.7687683 1.1598396 0.7687683 1.8559608l0 10.498581c0 1.4495964 -1.1751328 2.6247253 -2.6247253 2.6247253l-18.750557 0c-1.4495926 0 -2.6247177 -1.1751289 -2.6247177 -2.6247253z" fill-rule="evenodd"/><path fill="#8e7cc3" d="m131.13004 64.4102l0 0c0 -1.4495926 1.1751251 -2.6247215 2.6247253 -2.6247215l18.75055 0c0.6961212 0 1.3637238 0.27653503 1.855957 0.7687645c0.49223328 0.49223328 0.7687683 1.1598396 0.7687683 1.855957l0 10.498589c0 1.4495926 -1.1751251 2.6247253 -2.6247253 2.6247253l-18.75055 0c-1.4496002 0 -2.6247253 -1.1751328 -2.6247253 -2.6247253z" fill-rule="evenodd"/><path fill="#000000" fill-opacity="0.0" d="m81.61415 15.426153l12.724411 26.929132" fill-rule="evenodd"/><path stroke="#000000" stroke-width="1.0" stroke-linejoin="round" stroke-linecap="butt" d="m81.61415 15.426153l10.161079 21.504255" fill-rule="evenodd"/><path fill="#000000" stroke="#000000" stroke-width="1.0" stroke-linecap="butt" d="m90.28182 37.636066l3.4321823 3.3974457l-0.44537354 -4.8087616z" fill-rule="evenodd"/><path fill="#000000" fill-opacity="0.0" d="m118.333405 42.349785l12.787399 27.30709" fill-rule="evenodd"/><path stroke="#000000" stroke-width="1.0" stroke-linejoin="round" stroke-linecap="butt" d="m118.333405 42.349785l10.242889 21.873352" fill-rule="evenodd"/><path fill="#000000" stroke="#000000" stroke-width="1.0" stroke-linecap="butt" d="m127.080444 64.923615l3.420395 3.4093246l-0.42869568 -4.810276z" fill-rule="evenodd"/><path fill="#d9d9d9" d="m167.54163 59.344788l30.456696 0l0 20.724411l-30.456696 0z" fill-rule="evenodd"/><path fill="#d9d9d9" d="m130.94635 32.20568l30.456696 0l0 20.724407l-30.456696 0z" fill-rule="evenodd"/><path fill="#d9d9d9" d="m94.395096 5.063948l30.456688 0l0 20.72441l-30.456688 0z" fill-rule="evenodd"/><path fill="#4a86e8" d="m97.61415 10.176862l0 0c0 -1.4495955 1.1751251 -2.6247249 2.6247253 -2.6247249l18.75055 0c0.6961212 0 1.3637314 0.27653265 1.855957 0.768764c0.49223328 0.49223137 0.7687683 1.1598406 0.7687683 1.8559608l0 10.498582c0 1.4495964 -1.1751328 2.6247253 -2.6247253 2.6247253l-18.75055 0c-1.4496002 0 -2.6247253 -1.1751289 -2.6247253 -2.6247253z" fill-rule="evenodd"/><path fill="#6aa84f" d="m134.3334 37.100494l0 0c0 -1.4495964 1.1751251 -2.6247253 2.6247253 -2.6247253l18.75055 0c0.6961212 0 1.3637238 0.27653503 1.855957 0.7687645c0.49223328 0.49223328 0.7687683 1.1598396 0.7687683 1.8559608l0 10.498581c0 1.4495964 -1.1751251 2.6247253 -2.6247253 2.6247253l-18.75055 0c-1.4496002 0 -2.6247253 -1.1751289 -2.6247253 -2.6247253z" fill-rule="evenodd"/><path fill="#8e7cc3" d="m171.13004 64.4102l0 0c0 -1.4495926 1.1751251 -2.6247215 2.6247253 -2.6247215l18.75055 0c0.6961212 0 1.3637238 0.27653503 1.855957 0.7687645c0.49223328 0.49223328 0.7687683 1.1598396 0.7687683 1.855957l0 10.498589c0 1.4495926 -1.1751251 2.6247253 -2.6247253 2.6247253l-18.75055 0c-1.4496002 0 -2.6247253 -1.1751328 -2.6247253 -2.6247253z" fill-rule="evenodd"/><path fill="#000000" fill-opacity="0.0" d="m121.61415 15.426153l12.724411 26.929132" fill-rule="evenodd"/><path stroke="#000000" stroke-width="1.0" stroke-linejoin="round" stroke-linecap="butt" d="m121.61415 15.426153l10.161087 21.504255" fill-rule="evenodd"/><path fill="#000000" stroke="#000000" stroke-width="1.0" stroke-linecap="butt" d="m130.28181 37.636066l3.43219 3.3974457l-0.44537354 -4.8087616z" fill-rule="evenodd"/><path fill="#000000" fill-opacity="0.0" d="m158.3334 42.349785l12.787399 27.30709" fill-rule="evenodd"/><path stroke="#000000" stroke-width="1.0" stroke-linejoin="round" stroke-linecap="butt" d="m158.3334 42.349785l10.242889 21.873352" fill-rule="evenodd"/><path fill="#000000" stroke="#000000" stroke-width="1.0" stroke-linecap="butt" d="m167.08044 64.923615l3.420395 3.4093246l-0.42869568 -4.810276z" fill-rule="evenodd"/><path fill="#d9d9d9" d="m207.54163 59.344788l30.456696 0l0 20.724411l-30.456696 0z" fill-rule="evenodd"/><path fill="#d9d9d9" d="m170.94635 32.20568l30.456696 0l0 20.724407l-30.456696 0z" fill-rule="evenodd"/><path fill="#d9d9d9" d="m134.3951 5.063948l30.456696 0l0 20.72441l-30.456696 0z" fill-rule="evenodd"/><path fill="#4a86e8" d="m137.61415 10.176862l0 0c0 -1.4495955 1.1751251 -2.6247249 2.6247253 -2.6247249l18.75055 0c0.6961212 0 1.3637238 0.27653265 1.855957 0.768764c0.49223328 0.49223137 0.7687683 1.1598406 0.7687683 1.8559608l0 10.498582c0 1.4495964 -1.1751251 2.6247253 -2.6247253 2.6247253l-18.75055 0c-1.4496002 0 -2.6247253 -1.1751289 -2.6247253 -2.6247253z" fill-rule="evenodd"/><path fill="#6aa84f" d="m174.3334 37.100494l0 0c0 -1.4495964 1.1751251 -2.6247253 2.6247253 -2.6247253l18.75055 0c0.6961212 0 1.3637238 0.27653503 1.855957 0.7687645c0.49223328 0.49223328 0.7687683 1.1598396 0.7687683 1.8559608l0 10.498581c0 1.4495964 -1.1751251 2.6247253 -2.6247253 2.6247253l-18.75055 0c-1.4496002 0 -2.6247253 -1.1751289 -2.6247253 -2.6247253z" fill-rule="evenodd"/><path fill="#8e7cc3" d="m211.13004 64.4102l0 0c0 -1.4495926 1.1751251 -2.6247215 2.6247253 -2.6247215l18.75055 0c0.6961212 0 1.3637238 0.27653503 1.855957 0.7687645c0.49223328 0.49223328 0.7687683 1.1598396 0.7687683 1.855957l0 10.498589c0 1.4495926 -1.1751251 2.6247253 -2.6247253 2.6247253l-18.75055 0c-1.4496002 0 -2.6247253 -1.1751328 -2.6247253 -2.6247253z" fill-rule="evenodd"/><path fill="#000000" fill-opacity="0.0" d="m161.61415 15.426153l12.724411 26.929132" fill-rule="evenodd"/><path stroke="#000000" stroke-width="1.0" stroke-linejoin="round" stroke-linecap="butt" d="m161.61415 15.426153l10.161087 21.504255" fill-rule="evenodd"/><path fill="#000000" stroke="#000000" stroke-width="1.0" stroke-linecap="butt" d="m170.28181 37.636066l3.43219 3.3974457l-0.44537354 -4.8087616z" fill-rule="evenodd"/><path fill="#000000" fill-opacity="0.0" d="m198.3334 42.349785l12.787399 27.30709" fill-rule="evenodd"/><path stroke="#000000" stroke-width="1.0" stroke-linejoin="round" stroke-linecap="butt" d="m198.33339 42.349785l10.242889 21.873352" fill-rule="evenodd"/><path fill="#000000" stroke="#000000" stroke-width="1.0" stroke-linecap="butt" d="m207.08043 64.923615l3.420395 3.4093246l-0.42869568 -4.810276z" fill-rule="evenodd"/><path fill="#d9d9d9" d="m247.54163 59.344788l30.456696 0l0 20.724411l-30.456696 0z" fill-rule="evenodd"/><path fill="#d9d9d9" d="m210.94635 32.20568l30.456696 0l0 20.724407l-30.456696 0z" fill-rule="evenodd"/><path fill="#d9d9d9" d="m174.3951 5.063948l30.456696 0l0 20.72441l-30.456696 0z" fill-rule="evenodd"/><path fill="#4a86e8" d="m177.61415 10.176862l0 0c0 -1.4495955 1.1751251 -2.6247249 2.6247253 -2.6247249l18.75055 0c0.6961212 0 1.3637238 0.27653265 1.855957 0.768764c0.49223328 0.49223137 0.7687683 1.1598406 0.7687683 1.8559608l0 10.498582c0 1.4495964 -1.1751251 2.6247253 -2.6247253 2.6247253l-18.75055 0c-1.4496002 0 -2.6247253 -1.1751289 -2.6247253 -2.6247253z" fill-rule="evenodd"/><path fill="#6aa84f" d="m214.3334 37.100494l0 0c0 -1.4495964 1.1751251 -2.6247253 2.6247253 -2.6247253l18.75055 0c0.6961212 0 1.3637238 0.27653503 1.855957 0.7687645c0.49223328 0.49223328 0.7687683 1.1598396 0.7687683 1.8559608l0 10.498581c0 1.4495964 -1.1751251 2.6247253 -2.6247253 2.6247253l-18.75055 0c-1.4496002 0 -2.6247253 -1.1751289 -2.6247253 -2.6247253z" fill-rule="evenodd"/><path fill="#8e7cc3" d="m251.13004 64.4102l0 0c0 -1.4495926 1.1751251 -2.6247215 2.6247253 -2.6247215l18.75055 0c0.69610596 0 1.363739 0.27653503 1.855957 0.7687645c0.49224854 0.49223328 0.7687683 1.1598396 0.7687683 1.855957l0 10.498589c0 1.4495926 -1.1751404 2.6247253 -2.6247253 2.6247253l-18.75055 0c-1.4496002 0 -2.6247253 -1.1751328 -2.6247253 -2.6247253z" fill-rule="evenodd"/><path fill="#000000" fill-opacity="0.0" d="m201.61415 15.426153l12.724411 26.929132" fill-rule="evenodd"/><path stroke="#000000" stroke-width="1.0" stroke-linejoin="round" stroke-linecap="butt" d="m201.61415 15.426153l10.161072 21.504255" fill-rule="evenodd"/><path fill="#000000" stroke="#000000" stroke-width="1.0" stroke-linecap="butt" d="m210.28181 37.636066l3.43219 3.3974457l-0.44537354 -4.8087616z" fill-rule="evenodd"/><path fill="#000000" fill-opacity="0.0" d="m238.3334 42.349785l12.787399 27.30709" fill-rule="evenodd"/><path stroke="#000000" stroke-width="1.0" stroke-linejoin="round" stroke-linecap="butt" d="m238.33339 42.349785l10.242889 21.873352" fill-rule="evenodd"/><path fill="#000000" stroke="#000000" stroke-width="1.0" stroke-linecap="butt" d="m247.08043 64.923615l3.420395 3.4093246l-0.42869568 -4.810276z" fill-rule="evenodd"/><path fill="#d9d9d9" d="m287.54163 59.344788l30.456696 0l0 20.724411l-30.456696 0z" fill-rule="evenodd"/><path fill="#d9d9d9" d="m250.94635 32.20568l30.456696 0l0 20.724407l-30.456696 0z" fill-rule="evenodd"/><path fill="#d9d9d9" d="m214.3951 5.063948l30.456696 0l0 20.72441l-30.456696 0z" fill-rule="evenodd"/><path fill="#4a86e8" d="m217.61415 10.176862l0 0c0 -1.4495955 1.1751251 -2.6247249 2.6247253 -2.6247249l18.75055 0c0.6961212 0 1.3637238 0.27653265 1.855957 0.768764c0.49223328 0.49223137 0.7687683 1.1598406 0.7687683 1.8559608l0 10.498582c0 1.4495964 -1.1751251 2.6247253 -2.6247253 2.6247253l-18.75055 0c-1.4496002 0 -2.6247253 -1.1751289 -2.6247253 -2.6247253z" fill-rule="evenodd"/><path fill="#6aa84f" d="m254.3334 37.100494l0 0c0 -1.4495964 1.1751251 -2.6247253 2.6247253 -2.6247253l18.75055 0c0.69610596 0 1.363739 0.27653503 1.855957 0.7687645c0.49221802 0.49223328 0.7687683 1.1598396 0.7687683 1.8559608l0 10.498581c0 1.4495964 -1.1751404 2.6247253 -2.6247253 2.6247253l-18.75055 0c-1.4496002 0 -2.6247253 -1.1751289 -2.6247253 -2.6247253z" fill-rule="evenodd"/><path fill="#8e7cc3" d="m291.13004 64.4102l0 0c0 -1.4495926 1.1751404 -2.6247215 2.6247253 -2.6247215l18.75055 0c0.69610596 0 1.363739 0.27653503 1.855957 0.7687645c0.49224854 0.49223328 0.7687683 1.1598396 0.7687683 1.855957l0 10.498589c0 1.4495926 -1.1751404 2.6247253 -2.6247253 2.6247253l-18.75055 0c-1.449585 0 -2.6247253 -1.1751328 -2.6247253 -2.6247253z" fill-rule="evenodd"/><path fill="#000000" fill-opacity="0.0" d="m241.61415 15.426153l12.724411 26.929132" fill-rule="evenodd"/><path stroke="#000000" stroke-width="1.0" stroke-linejoin="round" stroke-linecap="butt" d="m241.61415 15.426153l10.161072 21.504255" fill-rule="evenodd"/><path fill="#000000" stroke="#000000" stroke-width="1.0" stroke-linecap="butt" d="m250.28181 37.636066l3.43219 3.3974457l-0.44537354 -4.8087616z" fill-rule="evenodd"/><path fill="#000000" fill-opacity="0.0" d="m278.3334 42.349785l12.787384 27.30709" fill-rule="evenodd"/><path stroke="#000000" stroke-width="1.0" stroke-linejoin="round" stroke-linecap="butt" d="m278.3334 42.349785l10.242889 21.873352" fill-rule="evenodd"/><path fill="#000000" stroke="#000000" stroke-width="1.0" stroke-linecap="butt" d="m287.08044 64.923615l3.4203796 3.4093246l-0.42871094 -4.810276z" fill-rule="evenodd"/><path fill="#d9d9d9" d="m327.54163 59.344788l30.456696 0l0 20.724411l-30.456696 0z" fill-rule="evenodd"/><path fill="#d9d9d9" d="m290.94635 32.20568l30.456696 0l0 20.724407l-30.456696 0z" fill-rule="evenodd"/><path fill="#d9d9d9" d="m254.3951 5.063948l30.45668 0l0 20.72441l-30.45668 0z" fill-rule="evenodd"/><path fill="#4a86e8" d="m257.61414 10.176862l0 0c0 -1.4495955 1.1751404 -2.6247249 2.6247253 -2.6247249l18.75055 0c0.6961365 0 1.363739 0.27653265 1.8559875 0.768764c0.49221802 0.49223137 0.7687378 1.1598406 0.7687378 1.8559608l0 10.498582c0 1.4495964 -1.1751099 2.6247253 -2.6247253 2.6247253l-18.75055 0c-1.449585 0 -2.6247253 -1.1751289 -2.6247253 -2.6247253z" fill-rule="evenodd"/><path fill="#6aa84f" d="m294.3334 37.100494l0 0c0 -1.4495964 1.1751404 -2.6247253 2.6247253 -2.6247253l18.75055 0c0.69610596 0 1.363739 0.27653503 1.855957 0.7687645c0.49221802 0.49223328 0.7687683 1.1598396 0.7687683 1.8559608l0 10.498581c0 1.4495964 -1.1751404 2.6247253 -2.6247253 2.6247253l-18.75055 0c-1.449585 0 -2.6247253 -1.1751289 -2.6247253 -2.6247253z" fill-rule="evenodd"/><path fill="#8e7cc3" d="m331.13004 64.4102l0 0c0 -1.4495926 1.1751404 -2.6247215 2.6247253 -2.6247215l18.75055 0c0.69610596 0 1.363739 0.27653503 1.855957 0.7687645c0.49224854 0.49223328 0.7687683 1.1598396 0.7687683 1.855957l0 10.498589c0 1.4495926 -1.1751404 2.6247253 -2.6247253 2.6247253l-18.75055 0c-1.449585 0 -2.6247253 -1.1751328 -2.6247253 -2.6247253z" fill-rule="evenodd"/><path fill="#000000" fill-opacity="0.0" d="m281.61414 15.426153l12.724426 26.929132" fill-rule="evenodd"/><path stroke="#000000" stroke-width="1.0" stroke-linejoin="round" stroke-linecap="butt" d="m281.61417 15.426153l10.161041 21.504255" fill-rule="evenodd"/><path fill="#000000" stroke="#000000" stroke-width="1.0" stroke-linecap="butt" d="m290.28183 37.636066l3.43219 3.3974457l-0.44537354 -4.8087616z" fill-rule="evenodd"/><path fill="#000000" fill-opacity="0.0" d="m318.3334 42.349785l12.787384 27.30709" fill-rule="evenodd"/><path stroke="#000000" stroke-width="1.0" stroke-linejoin="round" stroke-linecap="butt" d="m318.3334 42.349785l10.242889 21.873352" fill-rule="evenodd"/><path fill="#000000" stroke="#000000" stroke-width="1.0" stroke-linecap="butt" d="m327.08044 64.923615l3.4203796 3.4093246l-0.42871094 -4.810276z" fill-rule="evenodd"/><path fill="#d9d9d9" d="m367.54163 59.344788l30.456696 0l0 20.724411l-30.456696 0z" fill-rule="evenodd"/><path fill="#d9d9d9" d="m330.94635 32.20568l30.456696 0l0 20.724407l-30.456696 0z" fill-rule="evenodd"/><path fill="#d9d9d9" d="m294.39508 5.063948l30.456696 0l0 20.72441l-30.456696 0z" fill-rule="evenodd"/><path fill="#4a86e8" d="m297.61414 10.176862l0 0c0 -1.4495955 1.1751404 -2.6247249 2.6247253 -2.6247249l18.75055 0c0.6961365 0 1.363739 0.27653265 1.8559875 0.768764c0.49221802 0.49223137 0.7687378 1.1598406 0.7687378 1.8559608l0 10.498582c0 1.4495964 -1.1751099 2.6247253 -2.6247253 2.6247253l-18.75055 0c-1.449585 0 -2.6247253 -1.1751289 -2.6247253 -2.6247253z" fill-rule="evenodd"/><path fill="#6aa84f" d="m334.3334 37.100494l0 0c0 -1.4495964 1.1751404 -2.6247253 2.6247253 -2.6247253l18.75055 0c0.69610596 0 1.363739 0.27653503 1.855957 0.7687645c0.49221802 0.49223328 0.7687683 1.1598396 0.7687683 1.8559608l0 10.498581c0 1.4495964 -1.1751404 2.6247253 -2.6247253 2.6247253l-18.75055 0c-1.449585 0 -2.6247253 -1.1751289 -2.6247253 -2.6247253z" fill-rule="evenodd"/><path fill="#8e7cc3" d="m371.13004 64.4102l0 0c0 -1.4495926 1.1751404 -2.6247215 2.6247253 -2.6247215l18.75055 0c0.69610596 0 1.363739 0.27653503 1.855957 0.7687645c0.49224854 0.49223328 0.7687683 1.1598396 0.7687683 1.855957l0 10.498589c0 1.4495926 -1.1751404 2.6247253 -2.6247253 2.6247253l-18.75055 0c-1.449585 0 -2.6247253 -1.1751328 -2.6247253 -2.6247253z" fill-rule="evenodd"/><path fill="#000000" fill-opacity="0.0" d="m321.61414 15.426153l12.724426 26.929132" fill-rule="evenodd"/><path stroke="#000000" stroke-width="1.0" stroke-linejoin="round" stroke-linecap="butt" d="m321.61417 15.426153l10.161041 21.504255" fill-rule="evenodd"/><path fill="#000000" stroke="#000000" stroke-width="1.0" stroke-linecap="butt" d="m330.28183 37.636066l3.43219 3.3974457l-0.44537354 -4.8087616z" fill-rule="evenodd"/><path fill="#000000" fill-opacity="0.0" d="m358.3334 42.349785l12.787384 27.30709" fill-rule="evenodd"/><path stroke="#000000" stroke-width="1.0" stroke-linejoin="round" stroke-linecap="butt" d="m358.3334 42.349785l10.24292 21.873352" fill-rule="evenodd"/><path fill="#000000" stroke="#000000" stroke-width="1.0" stroke-linecap="butt" d="m367.08044 64.923615l3.4204102 3.4093246l-0.42871094 -4.810276z" fill-rule="evenodd"/></g></svg>