<svg version="1.1" viewBox="0.0 0.0 533.6640419947506 154.48556430446195" fill="none" stroke="none" stroke-linecap="square" stroke-miterlimit="10" xmlns:xlink="http://www.w3.org/1999/xlink" xmlns="http://www.w3.org/2000/svg"><clipPath id="p.0"><path d="m0 0l533.66406 0l0 154.48557l-533.66406 0l0 -154.48557z" clip-rule="nonzero"/></clipPath><g clip-path="url(#p.0)"><path fill="#ffffff" d="m0 0l533.66406 0l0 154.48557l-533.66406 0z" fill-rule="evenodd"/><path fill="#d9d9d9" d="m134.30022 70.8826l57.16536 0l0 20.724411l-57.16536 0z" fill-rule="evenodd"/><path fill="#d9d9d9" d="m73.705605 43.74213l57.16535 0l0 20.724407l-57.16535 0z" fill-rule="evenodd"/><path fill="#d9d9d9" d="m13.143742 16.601665l57.165356 0l0 20.724411l-57.165356 0z" fill-rule="evenodd"/><path fill="#4a86e8" d="m15.862902 21.714579l0 0c0 -1.4495945 1.1751289 -2.6247234 2.6247234 -2.6247234l18.750553 0c0.6961174 0 1.3637276 0.27653122 1.8559608 0.7687626c0.49222946 0.49223137 0.7687607 1.1598415 0.7687607 1.8559608l0 10.498583c0 1.4495964 -1.1751289 2.6247253 -2.6247215 2.6247253l-18.750553 0c-1.4495945 0 -2.6247234 -1.1751289 -2.6247234 -2.6247253z" fill-rule="evenodd"/><path fill="#4a86e8" d="m43.08196 21.714579l0 0c0 -1.4495945 1.1751289 -2.6247234 2.6247215 -2.6247234l18.75055 0c0.6961212 0 1.3637314 0.27653122 1.8559647 0.7687626c0.49223328 0.49223137 0.7687607 1.1598415 0.7687607 1.8559608l0 10.498583c0 1.4495964 -1.1751251 2.6247253 -2.6247253 2.6247253l-18.75055 0c-1.4495926 0 -2.6247215 -1.1751289 -2.6247215 -2.6247253z" fill-rule="evenodd"/><path fill="#6aa84f" d="m76.58215 48.63821l0 0c0 -1.4495926 1.1751328 -2.6247215 2.6247253 -2.6247215l18.75055 0c0.6961212 0 1.3637314 0.27653122 1.8559647 0.7687645c0.49222565 0.49222946 0.7687607 1.1598396 0.7687607 1.855957l0 10.498585c0 1.4495964 -1.1751328 2.6247253 -2.6247253 2.6247253l-18.75055 0c-1.4495926 0 -2.6247253 -1.1751289 -2.6247253 -2.6247253z" fill-rule="evenodd"/><path fill="#6aa84f" d="m103.80121 48.63821l0 0c0 -1.4495926 1.1751328 -2.6247215 2.6247253 -2.6247215l18.75055 0c0.6961212 0 1.3637314 0.27653122 1.8559647 0.7687645c0.49222565 0.49222946 0.7687607 1.1598396 0.7687607 1.855957l0 10.498585c0 1.4495964 -1.1751251 2.6247253 -2.6247253 2.6247253l-18.75055 0c-1.4495926 0 -2.6247253 -1.1751289 -2.6247253 -2.6247253z" fill-rule="evenodd"/><path fill="#8e7cc3" d="m137.37878 75.94792l0 0c0 -1.4495926 1.1751251 -2.6247253 2.6247253 -2.6247253l18.75055 0c0.6961212 0 1.363739 0.27653503 1.855957 0.7687683c0.49223328 0.49222565 0.7687683 1.1598358 0.7687683 1.855957l0 10.498581c0 1.4496002 -1.1751251 2.6247253 -2.6247253 2.6247253l-18.75055 0c-1.4496002 0 -2.6247253 -1.1751251 -2.6247253 -2.6247253z" fill-rule="evenodd"/><path fill="#8e7cc3" d="m164.59784 75.94792l0 0c0 -1.4495926 1.1751251 -2.6247253 2.6247253 -2.6247253l18.75055 0c0.6961212 0 1.363739 0.27653503 1.8559723 0.7687683c0.49221802 0.49222565 0.76875305 1.1598358 0.76875305 1.855957l0 10.498581c0 1.4496002 -1.1751251 2.6247253 -2.6247253 2.6247253l-18.75055 0c-1.4496002 0 -2.6247253 -1.1751251 -2.6247253 -2.6247253z" fill-rule="evenodd"/><path fill="#d9d9d9" d="m198.30022 70.8826l57.16536 0l0 20.724411l-57.16536 0z" fill-rule="evenodd"/><path fill="#d9d9d9" d="m137.70561 43.74213l57.165344 0l0 20.724407l-57.165344 0z" fill-rule="evenodd"/><path fill="#d9d9d9" d="m77.14374 16.601665l57.16536 0l0 20.724411l-57.16536 0z" fill-rule="evenodd"/><path fill="#4a86e8" d="m79.8629 21.714579l0 0c0 -1.4495945 1.1751328 -2.6247234 2.6247253 -2.6247234l18.75055 0c0.6961212 0 1.3637314 0.27653122 1.8559647 0.7687626c0.49223328 0.49223137 0.7687607 1.1598415 0.7687607 1.8559608l0 10.498583c0 1.4495964 -1.1751251 2.6247253 -2.6247253 2.6247253l-18.75055 0c-1.4495926 0 -2.6247253 -1.1751289 -2.6247253 -2.6247253z" fill-rule="evenodd"/><path fill="#4a86e8" d="m107.081955 21.714579l0 0c0 -1.4495945 1.1751328 -2.6247234 2.6247253 -2.6247234l18.75055 0c0.6961212 0 1.363739 0.27653122 1.855957 0.7687626c0.49223328 0.49223137 0.7687683 1.1598415 0.7687683 1.8559608l0 10.498583c0 1.4495964 -1.1751251 2.6247253 -2.6247253 2.6247253l-18.75055 0c-1.4495926 0 -2.6247253 -1.1751289 -2.6247253 -2.6247253z" fill-rule="evenodd"/><path fill="#6aa84f" d="m140.58215 48.63821l0 0c0 -1.4495926 1.1751251 -2.6247215 2.6247253 -2.6247215l18.75055 0c0.6961212 0 1.3637238 0.27653122 1.855957 0.7687645c0.49223328 0.49222946 0.7687683 1.1598396 0.7687683 1.855957l0 10.498585c0 1.4495964 -1.1751251 2.6247253 -2.6247253 2.6247253l-18.75055 0c-1.4496002 0 -2.6247253 -1.1751289 -2.6247253 -2.6247253z" fill-rule="evenodd"/><path fill="#6aa84f" d="m167.80121 48.63821l0 0c0 -1.4495926 1.1751251 -2.6247215 2.6247253 -2.6247215l18.75055 0c0.6961212 0 1.3637238 0.27653122 1.855957 0.7687645c0.49223328 0.49222946 0.7687683 1.1598396 0.7687683 1.855957l0 10.498585c0 1.4495964 -1.1751251 2.6247253 -2.6247253 2.6247253l-18.75055 0c-1.4496002 0 -2.6247253 -1.1751289 -2.6247253 -2.6247253z" fill-rule="evenodd"/><path fill="#8e7cc3" d="m201.37878 75.94792l0 0c0 -1.4495926 1.1751251 -2.6247253 2.6247253 -2.6247253l18.75055 0c0.6961212 0 1.363739 0.27653503 1.855957 0.7687683c0.49223328 0.49222565 0.7687683 1.1598358 0.7687683 1.855957l0 10.498581c0 1.4496002 -1.1751251 2.6247253 -2.6247253 2.6247253l-18.75055 0c-1.4496002 0 -2.6247253 -1.1751251 -2.6247253 -2.6247253z" fill-rule="evenodd"/><path fill="#8e7cc3" d="m228.59784 75.94792l0 0c0 -1.4495926 1.1751251 -2.6247253 2.6247253 -2.6247253l18.75055 0c0.6961212 0 1.363739 0.27653503 1.8559723 0.7687683c0.49221802 0.49222565 0.76875305 1.1598358 0.76875305 1.855957l0 10.498581c0 1.4496002 -1.1751251 2.6247253 -2.6247253 2.6247253l-18.75055 0c-1.4496002 0 -2.6247253 -1.1751251 -2.6247253 -2.6247253z" fill-rule="evenodd"/><path fill="#d9d9d9" d="m262.30023 70.8826l57.165344 0l0 20.724411l-57.165344 0z" fill-rule="evenodd"/><path fill="#d9d9d9" d="m201.70561 43.74213l57.16536 0l0 20.724407l-57.16536 0z" fill-rule="evenodd"/><path fill="#d9d9d9" d="m141.14374 16.601665l57.16536 0l0 20.724411l-57.16536 0z" fill-rule="evenodd"/><path fill="#4a86e8" d="m143.8629 21.714579l0 0c0 -1.4495945 1.1751251 -2.6247234 2.6247253 -2.6247234l18.75055 0c0.6961212 0 1.363739 0.27653122 1.855957 0.7687626c0.49223328 0.49223137 0.7687683 1.1598415 0.7687683 1.8559608l0 10.498583c0 1.4495964 -1.1751251 2.6247253 -2.6247253 2.6247253l-18.75055 0c-1.4496002 0 -2.6247253 -1.1751289 -2.6247253 -2.6247253z" fill-rule="evenodd"/><path fill="#4a86e8" d="m171.08195 21.714579l0 0c0 -1.4495945 1.1751251 -2.6247234 2.6247253 -2.6247234l18.75055 0c0.6961212 0 1.363739 0.27653122 1.855957 0.7687626c0.49223328 0.49223137 0.7687683 1.1598415 0.7687683 1.8559608l0 10.498583c0 1.4495964 -1.1751251 2.6247253 -2.6247253 2.6247253l-18.75055 0c-1.4496002 0 -2.6247253 -1.1751289 -2.6247253 -2.6247253z" fill-rule="evenodd"/><path fill="#6aa84f" d="m204.58215 48.63821l0 0c0 -1.4495926 1.1751251 -2.6247215 2.6247253 -2.6247215l18.75055 0c0.6961212 0 1.3637238 0.27653122 1.855957 0.7687645c0.49223328 0.49222946 0.7687683 1.1598396 0.7687683 1.855957l0 10.498585c0 1.4495964 -1.1751251 2.6247253 -2.6247253 2.6247253l-18.75055 0c-1.4496002 0 -2.6247253 -1.1751289 -2.6247253 -2.6247253z" fill-rule="evenodd"/><path fill="#6aa84f" d="m231.80121 48.63821l0 0c0 -1.4495926 1.1751251 -2.6247215 2.6247253 -2.6247215l18.75055 0c0.6961212 0 1.3637238 0.27653122 1.855957 0.7687645c0.49223328 0.49222946 0.7687683 1.1598396 0.7687683 1.855957l0 10.498585c0 1.4495964 -1.1751251 2.6247253 -2.6247253 2.6247253l-18.75055 0c-1.4496002 0 -2.6247253 -1.1751289 -2.6247253 -2.6247253z" fill-rule="evenodd"/><path fill="#8e7cc3" d="m265.37878 75.94792l0 0c0 -1.4495926 1.1751404 -2.6247253 2.6247253 -2.6247253l18.75055 0c0.6961365 0 1.363739 0.27653503 1.855957 0.7687683c0.49224854 0.49222565 0.7687683 1.1598358 0.7687683 1.855957l0 10.498581c0 1.4496002 -1.1751404 2.6247253 -2.6247253 2.6247253l-18.75055 0c-1.449585 0 -2.6247253 -1.1751251 -2.6247253 -2.6247253z" fill-rule="evenodd"/><path fill="#8e7cc3" d="m292.59784 75.94792l0 0c0 -1.4495926 1.1751404 -2.6247253 2.6247253 -2.6247253l18.75055 0c0.6961365 0 1.363739 0.27653503 1.855957 0.7687683c0.49224854 0.49222565 0.7687683 1.1598358 0.7687683 1.855957l0 10.498581c0 1.4496002 -1.1751404 2.6247253 -2.6247253 2.6247253l-18.75055 0c-1.449585 0 -2.6247253 -1.1751251 -2.6247253 -2.6247253z" fill-rule="evenodd"/><path fill="#d9d9d9" d="m326.30023 70.8826l57.165344 0l0 20.724411l-57.165344 0z" fill-rule="evenodd"/><path fill="#d9d9d9" d="m265.7056 43.74213l57.165375 0l0 20.724407l-57.165375 0z" fill-rule="evenodd"/><path fill="#d9d9d9" d="m205.14374 16.601665l57.165344 0l0 20.724411l-57.165344 0z" fill-rule="evenodd"/><path fill="#4a86e8" d="m207.8629 21.714579l0 0c0 -1.4495945 1.1751251 -2.6247234 2.6247253 -2.6247234l18.75055 0c0.6961212 0 1.363739 0.27653122 1.855957 0.7687626c0.49223328 0.49223137 0.7687683 1.1598415 0.7687683 1.8559608l0 10.498583c0 1.4495964 -1.1751251 2.6247253 -2.6247253 2.6247253l-18.75055 0c-1.4496002 0 -2.6247253 -1.1751289 -2.6247253 -2.6247253z" fill-rule="evenodd"/><path fill="#4a86e8" d="m235.08195 21.714579l0 0c0 -1.4495945 1.1751251 -2.6247234 2.6247253 -2.6247234l18.750565 0c0.69610596 0 1.3637085 0.27653122 1.855957 0.7687626c0.49221802 0.49223137 0.7687683 1.1598415 0.7687683 1.8559608l0 10.498583c0 1.4495964 -1.1751404 2.6247253 -2.6247253 2.6247253l-18.750565 0c-1.4496002 0 -2.6247253 -1.1751289 -2.6247253 -2.6247253z" fill-rule="evenodd"/><path fill="#6aa84f" d="m268.58215 48.63821l0 0c0 -1.4495926 1.1751404 -2.6247215 2.6247253 -2.6247215l18.75055 0c0.69610596 0 1.363739 0.27653122 1.855957 0.7687645c0.49224854 0.49222946 0.7687683 1.1598396 0.7687683 1.855957l0 10.498585c0 1.4495964 -1.1751404 2.6247253 -2.6247253 2.6247253l-18.75055 0c-1.449585 0 -2.6247253 -1.1751289 -2.6247253 -2.6247253z" fill-rule="evenodd"/><path fill="#6aa84f" d="m295.8012 48.63821l0 0c0 -1.4495926 1.1751404 -2.6247215 2.6247253 -2.6247215l18.75055 0c0.6961365 0 1.363739 0.27653122 1.855957 0.7687645c0.49224854 0.49222946 0.7687683 1.1598396 0.7687683 1.855957l0 10.498585c0 1.4495964 -1.1751404 2.6247253 -2.6247253 2.6247253l-18.75055 0c-1.449585 0 -2.6247253 -1.1751289 -2.6247253 -2.6247253z" fill-rule="evenodd"/><path fill="#8e7cc3" d="m329.37878 75.94792l0 0c0 -1.4495926 1.1751404 -2.6247253 2.6247253 -2.6247253l18.75055 0c0.6961365 0 1.363739 0.27653503 1.855957 0.7687683c0.49224854 0.49222565 0.7687683 1.1598358 0.7687683 1.855957l0 10.498581c0 1.4496002 -1.1751404 2.6247253 -2.6247253 2.6247253l-18.75055 0c-1.449585 0 -2.6247253 -1.1751251 -2.6247253 -2.6247253z" fill-rule="evenodd"/><path fill="#8e7cc3" d="m356.59784 75.94792l0 0c0 -1.4495926 1.1751404 -2.6247253 2.6247253 -2.6247253l18.75055 0c0.6961365 0 1.363739 0.27653503 1.855957 0.7687683c0.49224854 0.49222565 0.7687683 1.1598358 0.7687683 1.855957l0 10.498581c0 1.4496002 -1.1751404 2.6247253 -2.6247253 2.6247253l-18.75055 0c-1.449585 0 -2.6247253 -1.1751251 -2.6247253 -2.6247253z" fill-rule="evenodd"/><path fill="#000000" fill-opacity="0.0" d="m67.07034 26.95837l9.51181 26.929134" fill-rule="evenodd"/><path stroke="#000000" stroke-width="1.0" stroke-linejoin="round" stroke-linecap="butt" d="m67.07034 26.958368l7.5135117 21.27168" fill-rule="evenodd"/><path fill="#000000" stroke="#000000" stroke-width="1.0" stroke-linecap="butt" d="m73.02641 48.780163l3.0688553 3.728901l0.04601288 -4.8291245z" fill-rule="evenodd"/><path fill="#000000" fill-opacity="0.0" d="m131.07034 26.95837l9.51181 26.929134" fill-rule="evenodd"/><path stroke="#000000" stroke-width="1.0" stroke-linejoin="round" stroke-linecap="butt" d="m131.07034 26.958368l7.513504 21.27168" fill-rule="evenodd"/><path fill="#000000" stroke="#000000" stroke-width="1.0" stroke-linecap="butt" d="m137.02641 48.780163l3.0688477 3.728901l0.046020508 -4.8291245z" fill-rule="evenodd"/><path fill="#000000" fill-opacity="0.0" d="m195.08195 26.963871l9.51181 26.929134" fill-rule="evenodd"/><path stroke="#000000" stroke-width="1.0" stroke-linejoin="round" stroke-linecap="butt" d="m195.08195 26.96387l7.5135193 21.27168" fill-rule="evenodd"/><path fill="#000000" stroke="#000000" stroke-width="1.0" stroke-linecap="butt" d="m201.03802 48.78566l3.068863 3.7289047l0.04600525 -4.8291245z" fill-rule="evenodd"/><path fill="#000000" fill-opacity="0.0" d="m259.08197 26.963871l9.51181 26.929134" fill-rule="evenodd"/><path stroke="#000000" stroke-width="1.0" stroke-linejoin="round" stroke-linecap="butt" d="m259.08197 26.96387l7.513489 21.27168" fill-rule="evenodd"/><path fill="#000000" stroke="#000000" stroke-width="1.0" stroke-linecap="butt" d="m265.03802 48.78566l3.0688477 3.7289047l0.046020508 -4.8291245z" fill-rule="evenodd"/><path fill="#000000" fill-opacity="0.0" d="m127.803986 53.89013l9.574799 27.307083" fill-rule="evenodd"/><path stroke="#000000" stroke-width="1.0" stroke-linejoin="round" stroke-linecap="butt" d="m127.80398 53.89013l7.5895004 21.645058" fill-rule="evenodd"/><path fill="#000000" stroke="#000000" stroke-width="1.0" stroke-linecap="butt" d="m133.8348 76.08172l3.0602722 3.735939l0.057113647 -4.8290024z" fill-rule="evenodd"/><path fill="#000000" fill-opacity="0.0" d="m191.80121 53.887505l9.574799 27.307083" fill-rule="evenodd"/><path stroke="#000000" stroke-width="1.0" stroke-linejoin="round" stroke-linecap="butt" d="m191.80121 53.887505l7.589493 21.645058" fill-rule="evenodd"/><path fill="#000000" stroke="#000000" stroke-width="1.0" stroke-linecap="butt" d="m197.83202 76.079094l3.0602722 3.735939l0.057113647 -4.8290024z" fill-rule="evenodd"/><path fill="#000000" fill-opacity="0.0" d="m255.80121 53.887505l9.574799 27.307083" fill-rule="evenodd"/><path stroke="#000000" stroke-width="1.0" stroke-linejoin="round" stroke-linecap="butt" d="m255.80121 53.887505l7.589508 21.645058" fill-rule="evenodd"/><path fill="#000000" stroke="#000000" stroke-width="1.0" stroke-linecap="butt" d="m261.832 76.079094l3.0602722 3.735939l0.057128906 -4.8290024z" fill-rule="evenodd"/><path fill="#000000" fill-opacity="0.0" d="m319.8012 53.887505l9.574799 27.307083" fill-rule="evenodd"/><path stroke="#000000" stroke-width="1.0" stroke-linejoin="round" stroke-linecap="butt" d="m319.8012 53.887505l7.589508 21.645058" fill-rule="evenodd"/><path fill="#000000" stroke="#000000" stroke-width="1.0" stroke-linecap="butt" d="m325.832 76.079094l3.0602722 3.735939l0.057128906 -4.8290024z" fill-rule="evenodd"/><path fill="#000000" fill-opacity="0.0" d="m28.820244 73.60643l108.53544 0l0 32.314957l-108.53544 0z" fill-rule="evenodd"/><path fill="#ff0000" d="m42.17962 89.84643l0.1875 -0.875l3.34375 0l-0.65625 3.109375q-0.625 0.390625 -1.4375 0.640625q-0.796875 0.25 -1.578125 0.25q-1.671875 0 -2.484375 -1.0q-0.703125 -0.84375 -0.703125 -2.171875q0 -1.375 0.609375 -2.5q0.609375 -1.140625 1.53125 -1.671875q0.921875 -0.546875 2.046875 -0.546875q0.8125 0 1.453125 0.296875q0.65625 0.296875 1.0 0.796875q0.34375 0.484375 0.484375 1.28125l-0.984375 0.109375q-0.171875 -0.796875 -0.6875 -1.203125q-0.5 -0.421875 -1.296875 -0.421875q-0.828125 0 -1.546875 0.453125q-0.71875 0.4375 -1.140625 1.359375q-0.421875 0.90625 -0.421875 2.0625q0 1.140625 0.5625 1.734375q0.5625 0.578125 1.5625 0.578125q1.0 0 2.140625 -0.65625l0.34375 -1.625l-2.328125 0zm4.3825226 3.0l1.609375 -7.625l3.171875 0q0.828125 0 1.234375 0.1875q0.421875 0.1875 0.6875 0.65625q0.28125 0.453125 0.28125 1.03125q0 0.46875 -0.203125 0.96875q-0.1875 0.484375 -0.484375 0.796875q-0.28125 0.3125 -0.59375 0.484375q-0.296875 0.15625 -0.640625 0.234375q-0.734375 0.171875 -1.484375 0.171875l-1.90625 0l-0.640625 3.09375l-1.03125 0zm1.859375 -3.953125l1.671875 0q0.984375 0 1.4375 -0.203125q0.453125 -0.21875 0.734375 -0.65625q0.28125 -0.4375 0.28125 -0.921875q0 -0.375 -0.15625 -0.609375q-0.140625 -0.234375 -0.40625 -0.34375q-0.265625 -0.109375 -1.015625 -0.109375l-1.96875 0l-0.578125 2.84375zm6.9045105 -3.671875l1.015625 0l-0.96875 4.6875q-0.125 0.578125 -0.125 0.859375q0 0.609375 0.484375 0.984375q0.484375 0.375 1.21875 0.375q0.578125 0 1.078125 -0.265625q0.515625 -0.265625 0.796875 -0.78125q0.296875 -0.53125 0.53125 -1.65625l0.875 -4.203125l1.015625 0l-0.921875 4.46875q-0.234375 1.140625 -0.625 1.8125q-0.390625 0.671875 -1.09375 1.078125q-0.6875 0.40625 -1.609375 0.40625q-0.859375 0 -1.5 -0.28125q-0.625 -0.296875 -0.9375 -0.796875q-0.3125 -0.515625 -0.3125 -1.15625q0 -0.390625 0.21875 -1.375l0.859375 -4.15625zm9.15625 7.625l1.59375 -7.625l1.015625 0l-1.59375 7.625l-1.015625 0zm6.4293976 -0.796875q-0.8125 0.921875 -1.6875 0.921875q-0.78125 0 -1.3125 -0.578125q-0.515625 -0.578125 -0.515625 -1.6875q0 -1.0 0.40625 -1.828125q0.421875 -0.84375 1.046875 -1.265625q0.625 -0.421875 1.234375 -0.421875q1.03125 0 1.5625 1.0l0.625 -2.96875l0.9375 0l-1.59375 7.625l-0.875 0l0.171875 -0.796875zm-2.578125 -1.515625q0 0.578125 0.109375 0.90625q0.125 0.328125 0.390625 0.5625q0.28125 0.21875 0.671875 0.21875q0.625 0 1.15625 -0.671875q0.6875 -0.890625 0.6875 -2.1875q0 -0.65625 -0.34375 -1.015625q-0.34375 -0.375 -0.859375 -0.375q-0.34375 0 -0.625 0.15625q-0.265625 0.140625 -0.546875 0.515625q-0.265625 0.359375 -0.453125 0.921875q-0.1875 0.546875 -0.1875 0.96875zm4.7077484 2.3125l1.59375 -7.625l0.9375 0l-1.59375 7.625l-0.9375 0zm6.4924774 -1.875l0.921875 0.09375q-0.203125 0.671875 -0.921875 1.296875q-0.703125 0.609375 -1.6875 0.609375q-0.609375 0 -1.125 -0.28125q-0.5 -0.28125 -0.78125 -0.828125q-0.265625 -0.546875 -0.265625 -1.234375q0 -0.90625 0.421875 -1.75q0.421875 -0.859375 1.078125 -1.265625q0.671875 -0.421875 1.453125 -0.421875q0.984375 0 1.578125 0.625q0.59375 0.609375 0.59375 1.671875q0 0.40625 -0.078125 0.828125l-4.0625 0q-0.03125 0.15625 -0.03125 0.296875q0 0.765625 0.359375 1.1875q0.359375 0.40625 0.875 0.40625q0.484375 0 0.953125 -0.3125q0.46875 -0.328125 0.71875 -0.921875zm-2.734375 -1.375l3.109375 0q0 -0.140625 0 -0.203125q0 -0.703125 -0.359375 -1.078125q-0.34375 -0.390625 -0.90625 -0.390625q-0.609375 0 -1.109375 0.421875q-0.484375 0.421875 -0.734375 1.25z" fill-rule="nonzero"/><path fill="#000000" fill-opacity="0.0" d="m13.093297 81.68706l110.58267 0" fill-rule="evenodd"/><path stroke="#ff0000" stroke-width="1.0" stroke-linejoin="round" stroke-linecap="butt" d="m13.093298 81.68706l106.79268 0" fill-rule="evenodd"/><path fill="#ff0000" stroke="#ff0000" stroke-width="1.0" stroke-linecap="butt" d="m123.17598 81.68706c0 0.9085083 -0.736496 1.6449966 -1.6450043 1.6449966c-0.9085083 0 -1.6449966 -0.73648834 -1.6449966 -1.6449966c0 -0.9085083 0.73648834 -1.6450043 1.6449966 -1.6450043c0.9085083 0 1.6450043 0.736496 1.6450043 1.6450043z" fill-rule="nonzero"/><path fill="#000000" fill-opacity="0.0" d="m11.886523 100.87201l516.7559 0" fill-rule="evenodd"/><path stroke="#000000" stroke-width="1.0" stroke-linejoin="round" stroke-linecap="butt" d="m11.886524 100.87201l510.75592 0" fill-rule="evenodd"/><path fill="#000000" stroke="#000000" stroke-width="1.0" stroke-linecap="butt" d="m522.64246 102.523735l4.538086 -1.6517258l-4.538086 -1.6517334z" fill-rule="evenodd"/><path fill="#000000" fill-opacity="0.0" d="m1.9626373 103.91925l748.1575 0l0 35.55905l-748.1575 0z" fill-rule="evenodd"/><path fill="#000000" d="m14.400137 124.67238l0.171875 1.03125q-0.5 0.109375 -0.890625 0.109375q-0.640625 0 -1.0 -0.203125q-0.34375 -0.203125 -0.484375 -0.53125q-0.140625 -0.328125 -0.140625 -1.390625l0 -3.96875l-0.859375 0l0 -0.90625l0.859375 0l0 -1.71875l1.171875 -0.703125l0 2.421875l1.171875 0l0 0.90625l-1.171875 0l0 4.046875q0 0.5 0.046875 0.640625q0.0625 0.140625 0.203125 0.234375q0.140625 0.078125 0.40625 0.078125q0.203125 0 0.515625 -0.046875zm7.3123627 -4.5625l-6.3125 0l0 -1.09375l6.3125 0l0 1.09375zm0 2.890625l-6.3125 0l0 -1.09375l6.3125 0l0 1.09375zm1.2834167 -1.984375q0 -1.6875 0.34375 -2.71875q0.359375 -1.03125 1.046875 -1.59375q0.6875 -0.5625 1.71875 -0.5625q0.78125 0 1.359375 0.3125q0.578125 0.296875 0.953125 0.890625q0.375 0.578125 0.59375 1.421875q0.21875 0.828125 0.21875 2.25q0 1.671875 -0.359375 2.703125q-0.34375 1.03125 -1.03125 1.59375q-0.671875 0.5625 -1.734375 0.5625q-1.375 0 -2.15625 -0.984375q-0.953125 -1.1875 -0.953125 -3.875zm1.203125 0q0 2.34375 0.546875 3.125q0.5625 0.78125 1.359375 0.78125q0.8125 0 1.359375 -0.78125q0.5625 -0.78125 0.5625 -3.125q0 -2.359375 -0.5625 -3.125q-0.546875 -0.78125 -1.359375 -0.78125q-0.8125 0 -1.296875 0.6875q-0.609375 0.875 -0.609375 3.21875zm216.46729 3.65625l0.171875 1.03125q-0.5 0.109375 -0.890625 0.109375q-0.640625 0 -1.0 -0.203125q-0.34375 -0.203125 -0.484375 -0.53125q-0.140625 -0.328125 -0.140625 -1.390625l0 -3.96875l-0.859375 0l0 -0.90625l0.859375 0l0 -1.71875l1.171875 -0.703125l0 2.421875l1.171875 0l0 0.90625l-1.171875 0l0 4.046875q0 0.5 0.046875 0.640625q0.0625 0.140625 0.203125 0.234375q0.140625 0.078125 0.40625 0.078125q0.203125 0 0.515625 -0.046875zm7.3123627 -4.5625l-6.3125 0l0 -1.09375l6.3125 0l0 1.09375zm0 2.890625l-6.3125 0l0 -1.09375l6.3125 0l0 1.09375zm5.7052917 2.71875l-1.171875 0l0 -7.46875q-0.421875 0.40625 -1.109375 0.8125q-0.6875 0.40625 -1.234375 0.609375l0 -1.140625q0.984375 -0.453125 1.71875 -1.109375q0.734375 -0.671875 1.03125 -1.28125l0.765625 0l0 9.578125zm2.9906158 -4.703125q0 -1.6875 0.34375 -2.71875q0.359375 -1.03125 1.046875 -1.59375q0.6875 -0.5625 1.71875 -0.5625q0.78125 0 1.359375 0.3125q0.578125 0.296875 0.953125 0.890625q0.375 0.578125 0.59375 1.421875q0.21875 0.828125 0.21875 2.25q0 1.671875 -0.359375 2.703125q-0.34375 1.03125 -1.03125 1.59375q-0.671875 0.5625 -1.734375 0.5625q-1.375 0 -2.15625 -0.984375q-0.953125 -1.1875 -0.953125 -3.875zm1.203125 0q0 2.34375 0.546875 3.125q0.5625 0.78125 1.359375 0.78125q0.8125 0 1.359375 -0.78125q0.5625 -0.78125 0.5625 -3.125q0 -2.359375 -0.5625 -3.125q-0.546875 -0.78125 -1.359375 -0.78125q-0.8125 0 -1.296875 0.6875q-0.609375 0.875 -0.609375 3.21875zm6.2093506 0q0 -1.6875 0.34375 -2.71875q0.359375 -1.03125 1.046875 -1.59375q0.6875 -0.5625 1.71875 -0.5625q0.78125 0 1.359375 0.3125q0.578125 0.296875 0.953125 0.890625q0.375 0.578125 0.59375 1.421875q0.21875 0.828125 0.21875 2.25q0 1.671875 -0.359375 2.703125q-0.34375 1.03125 -1.03125 1.59375q-0.671875 0.5625 -1.734375 0.5625q-1.375 0 -2.15625 -0.984375q-0.953125 -1.1875 -0.953125 -3.875zm1.203125 0q0 2.34375 0.546875 3.125q0.5625 0.78125 1.359375 0.78125q0.8125 0 1.359375 -0.78125q0.5625 -0.78125 0.5625 -3.125q0 -2.359375 -0.5625 -3.125q-0.546875 -0.78125 -1.359375 -0.78125q-0.8125 0 -1.296875 0.6875q-0.609375 0.875 -0.609375 3.21875zm6.0687256 2.640625l1.15625 -0.1875q0.109375 0.703125 0.546875 1.078125q0.453125 0.359375 1.25 0.359375q0.8125 0 1.203125 -0.328125q0.390625 -0.328125 0.390625 -0.765625q0 -0.390625 -0.359375 -0.625q-0.234375 -0.15625 -1.1875 -0.390625q-1.296875 -0.328125 -1.796875 -0.5625q-0.484375 -0.25 -0.75 -0.65625q-0.25 -0.421875 -0.25 -0.9375q0 -0.453125 0.203125 -0.84375q0.21875 -0.40625 0.578125 -0.671875q0.28125 -0.1875 0.75 -0.328125q0.46875 -0.140625 1.015625 -0.140625q0.8125 0 1.421875 0.234375q0.609375 0.234375 0.90625 0.640625q0.296875 0.390625 0.40625 1.0625l-1.140625 0.15625q-0.078125 -0.53125 -0.453125 -0.828125q-0.375 -0.3125 -1.0625 -0.3125q-0.8125 0 -1.15625 0.265625q-0.34375 0.265625 -0.34375 0.625q0 0.234375 0.140625 0.421875q0.15625 0.1875 0.453125 0.3125q0.171875 0.0625 1.03125 0.296875q1.25 0.328125 1.734375 0.546875q0.5 0.203125 0.78125 0.609375q0.28125 0.40625 0.28125 1.0q0 0.59375 -0.34375 1.109375q-0.34375 0.515625 -1.0 0.796875q-0.640625 0.28125 -1.453125 0.28125q-1.34375 0 -2.046875 -0.5625q-0.703125 -0.5625 -0.90625 -1.65625zm194.84543 1.015625l0.171875 1.03125q-0.5 0.109375 -0.890625 0.109375q-0.640625 0 -1.0 -0.203125q-0.34375 -0.203125 -0.484375 -0.53125q-0.140625 -0.328125 -0.140625 -1.390625l0 -3.96875l-0.859375 0l0 -0.90625l0.859375 0l0 -1.71875l1.171875 -0.703125l0 2.421875l1.171875 0l0 0.90625l-1.171875 0l0 4.046875q0 0.5 0.046875 0.640625q0.0625 0.140625 0.203125 0.234375q0.140625 0.078125 0.40625 0.078125q0.203125 0 0.515625 -0.046875zm7.312378 -4.5625l-6.3125 0l0 -1.09375l6.3125 0l0 1.09375zm0 2.890625l-6.3125 0l0 -1.09375l6.3125 0l0 1.09375zm7.4396667 1.59375l0 1.125l-6.296875 0q-0.015625 -0.421875 0.140625 -0.8125q0.234375 -0.640625 0.765625 -1.265625q0.53125 -0.625 1.53125 -1.453125q1.5625 -1.265625 2.109375 -2.015625q0.546875 -0.75 0.546875 -1.40625q0 -0.703125 -0.5 -1.171875q-0.5 -0.484375 -1.296875 -0.484375q-0.859375 0 -1.375 0.515625q-0.5 0.5 -0.5 1.390625l-1.203125 -0.109375q0.125 -1.359375 0.921875 -2.0625q0.8125 -0.703125 2.171875 -0.703125q1.375 0 2.171875 0.765625q0.8125 0.75 0.8125 1.875q0 0.578125 -0.234375 1.140625q-0.234375 0.546875 -0.78125 1.15625q-0.546875 0.609375 -1.8125 1.671875q-1.046875 0.890625 -1.359375 1.21875q-0.296875 0.3125 -0.484375 0.625l4.671875 0zm1.2562256 -3.578125q0 -1.6875 0.34375 -2.71875q0.359375 -1.03125 1.046875 -1.59375q0.6875 -0.5625 1.71875 -0.5625q0.78125 0 1.359375 0.3125q0.578125 0.296875 0.953125 0.890625q0.375 0.578125 0.59375 1.421875q0.21875 0.828125 0.21875 2.25q0 1.671875 -0.359375 2.703125q-0.34375 1.03125 -1.03125 1.59375q-0.671875 0.5625 -1.734375 0.5625q-1.375 0 -2.15625 -0.984375q-0.953125 -1.1875 -0.953125 -3.875zm1.203125 0q0 2.34375 0.546875 3.125q0.5625 0.78125 1.359375 0.78125q0.8125 0 1.359375 -0.78125q0.5625 -0.78125 0.5625 -3.125q0 -2.359375 -0.5625 -3.125q-0.546875 -0.78125 -1.359375 -0.78125q-0.8125 0 -1.296875 0.6875q-0.609375 0.875 -0.609375 3.21875zm6.2093506 0q0 -1.6875 0.34375 -2.71875q0.359375 -1.03125 1.046875 -1.59375q0.6875 -0.5625 1.71875 -0.5625q0.78125 0 1.359375 0.3125q0.578125 0.296875 0.953125 0.890625q0.375 0.578125 0.59375 1.421875q0.21875 0.828125 0.21875 2.25q0 1.671875 -0.359375 2.703125q-0.34375 1.03125 -1.03125 1.59375q-0.671875 0.5625 -1.734375 0.5625q-1.375 0 -2.15625 -0.984375q-0.953125 -1.1875 -0.953125 -3.875zm1.203125 0q0 2.34375 0.546875 3.125q0.5625 0.78125 1.359375 0.78125q0.8125 0 1.359375 -0.78125q0.5625 -0.78125 0.5625 -3.125q0 -2.359375 -0.5625 -3.125q-0.546875 -0.78125 -1.359375 -0.78125q-0.8125 0 -1.296875 0.6875q-0.609375 0.875 -0.609375 3.21875zm6.0687256 2.640625l1.15625 -0.1875q0.109375 0.703125 0.546875 1.078125q0.453125 0.359375 1.25 0.359375q0.8125 0 1.203125 -0.328125q0.390625 -0.328125 0.390625 -0.765625q0 -0.390625 -0.359375 -0.625q-0.234375 -0.15625 -1.1875 -0.390625q-1.296875 -0.328125 -1.796875 -0.5625q-0.484375 -0.25 -0.75 -0.65625q-0.25 -0.421875 -0.25 -0.9375q0 -0.453125 0.203125 -0.84375q0.21875 -0.40625 0.578125 -0.671875q0.28125 -0.1875 0.75 -0.328125q0.46875 -0.140625 1.015625 -0.140625q0.8125 0 1.421875 0.234375q0.609375 0.234375 0.90625 0.640625q0.296875 0.390625 0.40625 1.0625l-1.140625 0.15625q-0.078125 -0.53125 -0.453125 -0.828125q-0.375 -0.3125 -1.0625 -0.3125q-0.8125 0 -1.15625 0.265625q-0.34375 0.265625 -0.34375 0.625q0 0.234375 0.140625 0.421875q0.15625 0.1875 0.453125 0.3125q0.171875 0.0625 1.03125 0.296875q1.25 0.328125 1.734375 0.546875q0.5 0.203125 0.78125 0.609375q0.28125 0.40625 0.28125 1.0q0 0.59375 -0.34375 1.109375q-0.34375 0.515625 -1.0 0.796875q-0.640625 0.28125 -1.453125 0.28125q-1.34375 0 -2.046875 -0.5625q-0.703125 -0.5625 -0.90625 -1.65625z" fill-rule="nonzero"/><path fill="#000000" fill-opacity="0.0" d="m266.64548 8.342l68.72443 0l0 35.559055l-68.72443 0z" fill-rule="evenodd"/><path fill="#000000" d="m275.98923 30.141998l2.0 -9.546875l1.171875 0l-1.984375 9.546875l-1.1875 0zm3.27359 -2.625q0 -2.015625 1.1875 -3.34375q0.984375 -1.09375 2.578125 -1.09375q1.25 0 2.015625 0.78125q0.765625 0.78125 0.765625 2.109375q0 1.1875 -0.484375 2.21875q-0.484375 1.015625 -1.375 1.5625q-0.890625 0.546875 -1.875 0.546875q-0.796875 0 -1.46875 -0.34375q-0.65625 -0.34375 -1.0 -0.96875q-0.34375 -0.640625 -0.34375 -1.46875zm1.171875 -0.109375q0 0.96875 0.46875 1.484375q0.46875 0.5 1.1875 0.5q0.375 0 0.75 -0.15625q0.375 -0.15625 0.6875 -0.46875q0.328125 -0.3125 0.546875 -0.703125q0.21875 -0.40625 0.359375 -0.875q0.203125 -0.640625 0.203125 -1.234375q0 -0.9375 -0.46875 -1.453125q-0.46875 -0.515625 -1.1875 -0.515625q-0.5625 0 -1.015625 0.265625q-0.453125 0.265625 -0.828125 0.78125q-0.359375 0.5 -0.53125 1.171875q-0.171875 0.671875 -0.171875 1.203125zm10.693726 1.875q-0.625 0.53125 -1.1875 0.78125q-0.5625 0.234375 -1.203125 0.234375q-0.96875 0 -1.5625 -0.5625q-0.578125 -0.5625 -0.578125 -1.4375q0 -0.578125 0.265625 -1.015625q0.265625 -0.453125 0.703125 -0.71875q0.4375 -0.28125 1.0625 -0.390625q0.40625 -0.078125 1.515625 -0.125q1.109375 -0.046875 1.59375 -0.234375q0.125 -0.484375 0.125 -0.8125q0 -0.40625 -0.296875 -0.640625q-0.40625 -0.328125 -1.1875 -0.328125q-0.75 0 -1.21875 0.328125q-0.46875 0.328125 -0.6875 0.9375l-1.1875 -0.109375q0.359375 -1.015625 1.140625 -1.5625q0.796875 -0.546875 2.0 -0.546875q1.28125 0 2.03125 0.609375q0.578125 0.453125 0.578125 1.1875q0 0.546875 -0.15625 1.28125l-0.390625 1.71875q-0.1875 0.8125 -0.1875 1.328125q0 0.328125 0.15625 0.9375l-1.203125 0q-0.09375 -0.34375 -0.125 -0.859375zm0.421875 -2.640625q-0.234375 0.09375 -0.53125 0.15625q-0.28125 0.046875 -0.9375 0.109375q-1.03125 0.078125 -1.453125 0.21875q-0.421875 0.140625 -0.640625 0.453125q-0.21875 0.296875 -0.21875 0.671875q0 0.5 0.34375 0.828125q0.34375 0.3125 0.984375 0.3125q0.578125 0 1.109375 -0.3125q0.546875 -0.3125 0.859375 -0.859375q0.3125 -0.5625 0.484375 -1.578125zm6.9906006 2.5q-1.015625 1.15625 -2.109375 1.15625q-0.984375 0 -1.640625 -0.71875q-0.65625 -0.734375 -0.65625 -2.109375q0 -1.265625 0.515625 -2.3125q0.515625 -1.046875 1.296875 -1.5625q0.78125 -0.515625 1.5625 -0.515625q1.28125 0 1.9375 1.234375l0.78125 -3.71875l1.171875 0l-1.984375 9.546875l-1.09375 0l0.21875 -1.0zm-3.234375 -1.890625q0 0.71875 0.140625 1.140625q0.140625 0.40625 0.484375 0.6875q0.34375 0.28125 0.828125 0.28125q0.796875 0 1.453125 -0.84375q0.875 -1.109375 0.875 -2.734375q0 -0.8125 -0.4375 -1.265625q-0.421875 -0.46875 -1.078125 -0.46875q-0.421875 0 -0.765625 0.1875q-0.34375 0.1875 -0.6875 0.640625q-0.34375 0.453125 -0.578125 1.15625q-0.234375 0.6875 -0.234375 1.21875zm7.6468506 -5.3125l0.28125 -1.34375l1.171875 0l-0.28125 1.34375l-1.171875 0zm-1.71875 8.203125l1.453125 -6.90625l1.171875 0l-1.4375 6.90625l-1.1875 0zm3.007965 0l1.453125 -6.90625l1.0625 0l-0.25 1.203125q0.6875 -0.71875 1.296875 -1.03125q0.609375 -0.328125 1.234375 -0.328125q0.84375 0 1.3125 0.453125q0.484375 0.453125 0.484375 1.21875q0 0.375 -0.171875 1.203125l-0.875 4.1875l-1.171875 0l0.921875 -4.375q0.125 -0.640625 0.125 -0.953125q0 -0.34375 -0.234375 -0.546875q-0.234375 -0.21875 -0.6875 -0.21875q-0.90625 0 -1.609375 0.65625q-0.703125 0.640625 -1.03125 2.21875l-0.671875 3.21875l-1.1875 0zm7.3499756 0.625l1.1875 0.109375q0 0.40625 0.109375 0.609375q0.109375 0.203125 0.34375 0.3125q0.328125 0.140625 0.828125 0.140625q1.0625 0 1.53125 -0.546875q0.3125 -0.375 0.578125 -1.625l0.109375 -0.5625q-0.921875 0.9375 -1.953125 0.9375q-1.046875 0 -1.75 -0.765625q-0.703125 -0.78125 -0.703125 -2.1875q0 -1.171875 0.546875 -2.140625q0.5625 -0.984375 1.328125 -1.46875q0.765625 -0.5 1.578125 -0.5q1.359375 0 2.09375 1.28125l0.234375 -1.125l1.078125 0l-1.390625 6.671875q-0.21875 1.09375 -0.59375 1.703125q-0.375 0.625 -1.03125 0.953125q-0.65625 0.34375 -1.53125 0.34375q-0.828125 0 -1.4375 -0.21875q-0.59375 -0.203125 -0.890625 -0.625q-0.296875 -0.40625 -0.296875 -0.953125q0 -0.15625 0.03125 -0.34375zm1.46875 -3.6875q0 0.71875 0.140625 1.078125q0.203125 0.5 0.5625 0.765625q0.359375 0.25 0.796875 0.25q0.578125 0 1.140625 -0.40625q0.578125 -0.40625 0.9375 -1.25q0.359375 -0.859375 0.359375 -1.625q0 -0.859375 -0.484375 -1.359375q-0.46875 -0.515625 -1.15625 -0.515625q-0.4375 0 -0.84375 0.234375q-0.390625 0.234375 -0.75 0.703125q-0.34375 0.46875 -0.53125 1.140625q-0.171875 0.65625 -0.171875 0.984375z" fill-rule="nonzero"/><path fill="#000000" fill-opacity="0.0" d="m328.36523 34.820663l134.2362 0l0 35.55905l-134.2362 0z" fill-rule="evenodd"/><path fill="#000000" d="m337.2246 59.276913l2.0 -9.5625l1.09375 0l-0.203125 0.953125q0.59375 -0.625 1.078125 -0.859375q0.484375 -0.25 1.015625 -0.25q0.984375 0 1.625 0.71875q0.65625 0.71875 0.65625 2.0625q0 1.078125 -0.359375 1.96875q-0.34375 0.875 -0.875 1.421875q-0.515625 0.546875 -1.046875 0.796875q-0.53125 0.25 -1.09375 0.25q-1.25 0 -1.921875 -1.265625l-0.78125 3.765625l-1.1875 0zm2.328125 -5.484375q0 0.78125 0.109375 1.078125q0.171875 0.421875 0.53125 0.6875q0.375 0.25 0.875 0.25q1.015625 0 1.640625 -1.140625q0.625 -1.140625 0.625 -2.328125q0 -0.875 -0.421875 -1.359375q-0.421875 -0.484375 -1.046875 -0.484375q-0.453125 0 -0.84375 0.25q-0.375 0.234375 -0.703125 0.703125q-0.328125 0.46875 -0.546875 1.15625q-0.21875 0.6875 -0.21875 1.1875zm5.6624756 2.828125l1.453125 -6.90625l1.03125 0l-0.28125 1.40625q0.53125 -0.796875 1.03125 -1.171875q0.515625 -0.390625 1.046875 -0.390625q0.359375 0 0.875 0.25l-0.484375 1.09375q-0.3125 -0.21875 -0.671875 -0.21875q-0.625 0 -1.28125 0.6875q-0.640625 0.6875 -1.015625 2.484375l-0.578125 2.765625l-1.125 0zm9.5164795 -2.34375l1.15625 0.109375q-0.25 0.859375 -1.140625 1.625q-0.890625 0.765625 -2.125 0.765625q-0.765625 0 -1.40625 -0.34375q-0.640625 -0.359375 -0.984375 -1.03125q-0.328125 -0.6875 -0.328125 -1.546875q0 -1.140625 0.515625 -2.203125q0.53125 -1.0625 1.359375 -1.578125q0.84375 -0.515625 1.8125 -0.515625q1.234375 0 1.96875 0.765625q0.75 0.765625 0.75 2.09375q0 0.5 -0.09375 1.046875l-5.09375 0q-0.03125 0.1875 -0.03125 0.359375q0 0.96875 0.4375 1.484375q0.453125 0.5 1.109375 0.5q0.59375 0 1.171875 -0.390625q0.59375 -0.390625 0.921875 -1.140625zm-3.421875 -1.71875l3.875 0q0.015625 -0.1875 0.015625 -0.265625q0 -0.875 -0.453125 -1.34375q-0.4375 -0.484375 -1.125 -0.484375q-0.765625 0 -1.390625 0.53125q-0.609375 0.515625 -0.921875 1.5625zm5.1781006 6.71875l2.0 -9.5625l1.09375 0l-0.203125 0.953125q0.59375 -0.625 1.078125 -0.859375q0.484375 -0.25 1.015625 -0.25q0.984375 0 1.625 0.71875q0.65625 0.71875 0.65625 2.0625q0 1.078125 -0.359375 1.96875q-0.34375 0.875 -0.875 1.421875q-0.515625 0.546875 -1.046875 0.796875q-0.53125 0.25 -1.09375 0.25q-1.25 0 -1.921875 -1.265625l-0.78125 3.765625l-1.1875 0zm2.328125 -5.484375q0 0.78125 0.109375 1.078125q0.171875 0.421875 0.53125 0.6875q0.375 0.25 0.875 0.25q1.015625 0 1.640625 -1.140625q0.625 -1.140625 0.625 -2.328125q0 -0.875 -0.421875 -1.359375q-0.421875 -0.484375 -1.046875 -0.484375q-0.453125 0 -0.84375 0.25q-0.375 0.234375 -0.703125 0.703125q-0.328125 0.46875 -0.546875 1.15625q-0.21875 0.6875 -0.21875 1.1875zm5.6624756 2.828125l1.453125 -6.90625l1.03125 0l-0.28125 1.40625q0.53125 -0.796875 1.03125 -1.171875q0.515625 -0.390625 1.046875 -0.390625q0.359375 0 0.875 0.25l-0.484375 1.09375q-0.3125 -0.21875 -0.671875 -0.21875q-0.625 0 -1.28125 0.6875q-0.640625 0.6875 -1.015625 2.484375l-0.578125 2.765625l-1.125 0zm4.657135 -2.625q0 -2.015625 1.1875 -3.34375q0.984375 -1.09375 2.578125 -1.09375q1.25 0 2.015625 0.78125q0.765625 0.78125 0.765625 2.109375q0 1.1875 -0.484375 2.21875q-0.484375 1.015625 -1.375 1.5625q-0.890625 0.546875 -1.875 0.546875q-0.796875 0 -1.46875 -0.34375q-0.65625 -0.34375 -1.0 -0.96875q-0.34375 -0.640625 -0.34375 -1.46875zm1.171875 -0.109375q0 0.96875 0.46875 1.484375q0.46875 0.5 1.1875 0.5q0.375 0 0.75 -0.15625q0.375 -0.15625 0.6875 -0.46875q0.328125 -0.3125 0.546875 -0.703125q0.21875 -0.40625 0.359375 -0.875q0.203125 -0.640625 0.203125 -1.234375q0 -0.9375 -0.46875 -1.453125q-0.46875 -0.515625 -1.1875 -0.515625q-0.5625 0 -1.015625 0.265625q-0.453125 0.265625 -0.828125 0.78125q-0.359375 0.5 -0.53125 1.171875q-0.171875 0.671875 -0.171875 1.203125zm10.803101 0.21875l1.171875 0.125q-0.4375 1.296875 -1.265625 1.921875q-0.8125 0.625 -1.84375 0.625q-1.140625 0 -1.84375 -0.71875q-0.6875 -0.734375 -0.6875 -2.046875q0 -1.125 0.4375 -2.21875q0.453125 -1.09375 1.28125 -1.65625q0.84375 -0.578125 1.921875 -0.578125q1.109375 0 1.765625 0.625q0.65625 0.625 0.65625 1.65625l-1.15625 0.078125q-0.015625 -0.65625 -0.390625 -1.015625q-0.375 -0.375 -0.984375 -0.375q-0.703125 0 -1.234375 0.453125q-0.515625 0.4375 -0.8125 1.359375q-0.296875 0.90625 -0.296875 1.75q0 0.890625 0.390625 1.34375q0.390625 0.4375 0.96875 0.4375q0.5625 0 1.078125 -0.4375q0.53125 -0.4375 0.84375 -1.328125zm6.9609375 0.171875l1.15625 0.109375q-0.25 0.859375 -1.140625 1.625q-0.890625 0.765625 -2.125 0.765625q-0.765625 0 -1.40625 -0.34375q-0.640625 -0.359375 -0.984375 -1.03125q-0.328125 -0.6875 -0.328125 -1.546875q0 -1.140625 0.515625 -2.203125q0.53125 -1.0625 1.359375 -1.578125q0.84375 -0.515625 1.8125 -0.515625q1.234375 0 1.96875 0.765625q0.75 0.765625 0.75 2.09375q0 0.5 -0.09375 1.046875l-5.09375 0q-0.03125 0.1875 -0.03125 0.359375q0 0.96875 0.4375 1.484375q0.453125 0.5 1.109375 0.5q0.59375 0 1.171875 -0.390625q0.59375 -0.390625 0.921875 -1.140625zm-3.421875 -1.71875l3.875 0q0.015625 -0.1875 0.015625 -0.265625q0 -0.875 -0.453125 -1.34375q-0.4375 -0.484375 -1.125 -0.484375q-0.765625 0 -1.390625 0.53125q-0.609375 0.515625 -0.921875 1.5625zm5.8656006 1.703125l1.1875 -0.078125q0 0.515625 0.15625 0.875q0.15625 0.359375 0.578125 0.59375q0.421875 0.21875 0.96875 0.21875q0.78125 0 1.171875 -0.3125q0.390625 -0.3125 0.390625 -0.734375q0 -0.3125 -0.234375 -0.578125q-0.234375 -0.28125 -1.171875 -0.671875q-0.9375 -0.40625 -1.1875 -0.578125q-0.4375 -0.265625 -0.671875 -0.625q-0.21875 -0.359375 -0.21875 -0.828125q0 -0.8125 0.65625 -1.390625q0.65625 -0.59375 1.828125 -0.59375q1.296875 0 1.96875 0.609375q0.6875 0.59375 0.71875 1.578125l-1.15625 0.078125q-0.03125 -0.625 -0.453125 -0.984375q-0.40625 -0.375 -1.171875 -0.375q-0.609375 0 -0.953125 0.28125q-0.328125 0.28125 -0.328125 0.609375q0 0.3125 0.296875 0.5625q0.1875 0.171875 1.0 0.53125q1.359375 0.578125 1.703125 0.921875q0.5625 0.53125 0.5625 1.3125q0 0.515625 -0.3125 1.015625q-0.3125 0.484375 -0.96875 0.78125q-0.640625 0.296875 -1.515625 0.296875q-1.203125 0 -2.046875 -0.59375q-0.84375 -0.59375 -0.796875 -1.921875zm6.6640625 0l1.1875 -0.078125q0 0.515625 0.15625 0.875q0.15625 0.359375 0.578125 0.59375q0.421875 0.21875 0.96875 0.21875q0.78125 0 1.171875 -0.3125q0.390625 -0.3125 0.390625 -0.734375q0 -0.3125 -0.234375 -0.578125q-0.234375 -0.28125 -1.171875 -0.671875q-0.9375 -0.40625 -1.1875 -0.578125q-0.4375 -0.265625 -0.671875 -0.625q-0.21875 -0.359375 -0.21875 -0.828125q0 -0.8125 0.65625 -1.390625q0.65625 -0.59375 1.828125 -0.59375q1.296875 0 1.96875 0.609375q0.6875 0.59375 0.71875 1.578125l-1.15625 0.078125q-0.03125 -0.625 -0.453125 -0.984375q-0.40625 -0.375 -1.171875 -0.375q-0.609375 0 -0.953125 0.28125q-0.328125 0.28125 -0.328125 0.609375q0 0.3125 0.296875 0.5625q0.1875 0.171875 1.0 0.53125q1.359375 0.578125 1.703125 0.921875q0.5625 0.53125 0.5625 1.3125q0 0.515625 -0.3125 1.015625q-0.3125 0.484375 -0.96875 0.78125q-0.640625 0.296875 -1.515625 0.296875q-1.203125 0 -2.046875 -0.59375q-0.84375 -0.59375 -0.796875 -1.921875zm8.2265625 -5.84375l0.28125 -1.34375l1.171875 0l-0.28125 1.34375l-1.171875 0zm-1.71875 8.203125l1.453125 -6.90625l1.171875 0l-1.4375 6.90625l-1.1875 0zm3.007965 0l1.453125 -6.90625l1.0625 0l-0.25 1.203125q0.6875 -0.71875 1.296875 -1.03125q0.609375 -0.328125 1.234375 -0.328125q0.84375 0 1.3125 0.453125q0.484375 0.453125 0.484375 1.21875q0 0.375 -0.171875 1.203125l-0.875 4.1875l-1.171875 0l0.921875 -4.375q0.125 -0.640625 0.125 -0.953125q0 -0.34375 -0.234375 -0.546875q-0.234375 -0.21875 -0.6875 -0.21875q-0.90625 0 -1.609375 0.65625q-0.703125 0.640625 -1.03125 2.21875l-0.671875 3.21875l-1.1875 0zm7.3499756 0.625l1.1875 0.109375q0 0.40625 0.109375 0.609375q0.109375 0.203125 0.34375 0.3125q0.328125 0.140625 0.828125 0.140625q1.0625 0 1.53125 -0.546875q0.3125 -0.375 0.578125 -1.625l0.109375 -0.5625q-0.921875 0.9375 -1.953125 0.9375q-1.046875 0 -1.75 -0.765625q-0.703125 -0.78125 -0.703125 -2.1875q0 -1.171875 0.546875 -2.140625q0.5625 -0.984375 1.328125 -1.46875q0.765625 -0.5 1.578125 -0.5q1.359375 0 2.09375 1.28125l0.234375 -1.125l1.078125 0l-1.390625 6.671875q-0.21875 1.09375 -0.59375 1.703125q-0.375 0.625 -1.03125 0.953125q-0.65625 0.34375 -1.53125 0.34375q-0.828125 0 -1.4375 -0.21875q-0.59375 -0.203125 -0.890625 -0.625q-0.296875 -0.40625 -0.296875 -0.953125q0 -0.15625 0.03125 -0.34375zm1.46875 -3.6875q0 0.71875 0.140625 1.078125q0.203125 0.5 0.5625 0.765625q0.359375 0.25 0.796875 0.25q0.578125 0 1.140625 -0.40625q0.578125 -0.40625 0.9375 -1.25q0.359375 -0.859375 0.359375 -1.625q0 -0.859375 -0.484375 -1.359375q-0.46875 -0.515625 -1.15625 -0.515625q-0.4375 0 -0.84375 0.234375q-0.390625 0.234375 -0.75 0.703125q-0.34375 0.46875 -0.53125 1.140625q-0.171875 0.65625 -0.171875 0.984375z" fill-rule="nonzero"/><path fill="#000000" fill-opacity="0.0" d="m388.79626 62.70453l134.2362 0l0 35.55906l-134.2362 0z" fill-rule="evenodd"/><path fill="#000000" d="m399.90564 76.30141l0.28125 -1.34375l1.171875 0l-0.28125 1.34375l-1.171875 0zm-1.71875 8.203125l1.453125 -6.90625l1.171875 0l-1.4375 6.90625l-1.1875 0zm3.007965 0l1.453125 -6.90625l1.0625 0l-0.25 1.203125q0.6875 -0.71875 1.296875 -1.03125q0.609375 -0.328125 1.234375 -0.328125q0.84375 0 1.3125 0.453125q0.484375 0.453125 0.484375 1.21875q0 0.375 -0.171875 1.203125l-0.875 4.1875l-1.171875 0l0.921875 -4.375q0.125 -0.640625 0.125 -0.953125q0 -0.34375 -0.234375 -0.546875q-0.234375 -0.21875 -0.6875 -0.21875q-0.90625 0 -1.609375 0.65625q-0.703125 0.640625 -1.03125 2.21875l-0.671875 3.21875l-1.1875 0zm7.5843506 0l1.25 -6.0l-1.046875 0l0.1875 -0.90625l1.046875 0l0.203125 -0.984375q0.15625 -0.734375 0.3125 -1.0625q0.171875 -0.328125 0.546875 -0.53125q0.375 -0.21875 1.015625 -0.21875q0.453125 0 1.3125 0.1875l-0.21875 1.03125q-0.59375 -0.15625 -1.0 -0.15625q-0.34375 0 -0.53125 0.171875q-0.171875 0.171875 -0.296875 0.8125l-0.15625 0.75l1.3125 0l-0.1875 0.90625l-1.3125 0l-1.265625 6.0l-1.171875 0zm8.609222 -2.34375l1.15625 0.109375q-0.25 0.859375 -1.140625 1.625q-0.890625 0.765625 -2.125 0.765625q-0.765625 0 -1.40625 -0.34375q-0.640625 -0.359375 -0.984375 -1.03125q-0.328125 -0.6875 -0.328125 -1.546875q0 -1.140625 0.515625 -2.203125q0.53125 -1.0625 1.359375 -1.578125q0.84375 -0.515625 1.8125 -0.515625q1.234375 0 1.96875 0.765625q0.75 0.765625 0.75 2.09375q0 0.5 -0.09375 1.046875l-5.09375 0q-0.03125 0.1875 -0.03125 0.359375q0 0.96875 0.4375 1.484375q0.453125 0.5 1.109375 0.5q0.59375 0 1.171875 -0.390625q0.59375 -0.390625 0.921875 -1.140625zm-3.421875 -1.71875l3.875 0q0.015625 -0.1875 0.015625 -0.265625q0 -0.875 -0.453125 -1.34375q-0.4375 -0.484375 -1.125 -0.484375q-0.765625 0 -1.390625 0.53125q-0.609375 0.515625 -0.921875 1.5625zm5.7562256 4.0625l1.453125 -6.90625l1.03125 0l-0.28125 1.40625q0.53125 -0.796875 1.03125 -1.171875q0.515625 -0.390625 1.046875 -0.390625q0.359375 0 0.875 0.25l-0.484375 1.09375q-0.3125 -0.21875 -0.671875 -0.21875q-0.625 0 -1.28125 0.6875q-0.640625 0.6875 -1.015625 2.484375l-0.578125 2.765625l-1.125 0zm9.51651 -2.34375l1.15625 0.109375q-0.25 0.859375 -1.140625 1.625q-0.890625 0.765625 -2.125 0.765625q-0.765625 0 -1.40625 -0.34375q-0.640625 -0.359375 -0.984375 -1.03125q-0.328125 -0.6875 -0.328125 -1.546875q0 -1.140625 0.515625 -2.203125q0.53125 -1.0625 1.359375 -1.578125q0.84375 -0.515625 1.8125 -0.515625q1.234375 0 1.96875 0.765625q0.75 0.765625 0.75 2.09375q0 0.5 -0.09375 1.046875l-5.09375 0q-0.03125 0.1875 -0.03125 0.359375q0 0.96875 0.4375 1.484375q0.453125 0.5 1.109375 0.5q0.59375 0 1.171875 -0.390625q0.59375 -0.390625 0.921875 -1.140625zm-3.421875 -1.71875l3.875 0q0.015625 -0.1875 0.015625 -0.265625q0 -0.875 -0.453125 -1.34375q-0.4375 -0.484375 -1.125 -0.484375q-0.765625 0 -1.390625 0.53125q-0.609375 0.515625 -0.921875 1.5625zm5.7562256 4.0625l1.453125 -6.90625l1.0625 0l-0.25 1.203125q0.6875 -0.71875 1.296875 -1.03125q0.609375 -0.328125 1.234375 -0.328125q0.84375 0 1.3125 0.453125q0.484375 0.453125 0.484375 1.21875q0 0.375 -0.171875 1.203125l-0.875 4.1875l-1.171875 0l0.921875 -4.375q0.125 -0.640625 0.125 -0.953125q0 -0.34375 -0.234375 -0.546875q-0.234375 -0.21875 -0.6875 -0.21875q-0.90625 0 -1.609375 0.65625q-0.703125 0.640625 -1.03125 2.21875l-0.671875 3.21875l-1.1875 0zm12.193726 -2.515625l1.171875 0.125q-0.4375 1.296875 -1.265625 1.921875q-0.8125 0.625 -1.84375 0.625q-1.140625 0 -1.84375 -0.71875q-0.6875 -0.734375 -0.6875 -2.046875q0 -1.125 0.4375 -2.21875q0.453125 -1.09375 1.28125 -1.65625q0.84375 -0.578125 1.921875 -0.578125q1.109375 0 1.765625 0.625q0.65625 0.625 0.65625 1.65625l-1.15625 0.078125q-0.015625 -0.65625 -0.390625 -1.015625q-0.375 -0.375 -0.984375 -0.375q-0.703125 0 -1.234375 0.453125q-0.515625 0.4375 -0.8125 1.359375q-0.296875 0.90625 -0.296875 1.75q0 0.890625 0.390625 1.34375q0.390625 0.4375 0.96875 0.4375q0.5625 0 1.078125 -0.4375q0.53125 -0.4375 0.84375 -1.328125zm6.9609375 0.171875l1.15625 0.109375q-0.25 0.859375 -1.140625 1.625q-0.890625 0.765625 -2.125 0.765625q-0.765625 0 -1.40625 -0.34375q-0.640625 -0.359375 -0.984375 -1.03125q-0.328125 -0.6875 -0.328125 -1.546875q0 -1.140625 0.515625 -2.203125q0.53125 -1.0625 1.359375 -1.578125q0.84375 -0.515625 1.8125 -0.515625q1.234375 0 1.96875 0.765625q0.75 0.765625 0.75 2.09375q0 0.5 -0.09375 1.046875l-5.09375 0q-0.03125 0.1875 -0.03125 0.359375q0 0.96875 0.4375 1.484375q0.453125 0.5 1.109375 0.5q0.59375 0 1.171875 -0.390625q0.59375 -0.390625 0.921875 -1.140625zm-3.421875 -1.71875l3.875 0q0.015625 -0.1875 0.015625 -0.265625q0 -0.875 -0.453125 -1.34375q-0.4375 -0.484375 -1.125 -0.484375q-0.765625 0 -1.390625 0.53125q-0.609375 0.515625 -0.921875 1.5625z" fill-rule="nonzero"/></g></svg>