<svg version="1.1" viewBox="0.0 0.0 526.9370078740158 217.5275590551181" fill="none" stroke="none" stroke-linecap="square" stroke-miterlimit="10" xmlns:xlink="http://www.w3.org/1999/xlink" xmlns="http://www.w3.org/2000/svg"><clipPath id="p.0"><path d="m0 0l526.937 0l0 217.52756l-526.937 0l0 -217.52756z" clip-rule="nonzero"/></clipPath><g clip-path="url(#p.0)"><path fill="#ffffff" d="m0 0l526.937 0l0 217.52756l-526.937 0z" fill-rule="evenodd"/><path fill="#ffffff" d="m177.17113 40.09659l127.401566 0l0 33.574806l-127.401566 0z" fill-rule="evenodd"/><path stroke="#000000" stroke-width="1.0" stroke-linejoin="round" stroke-linecap="butt" d="m177.17113 40.09659l127.401566 0l0 33.574806l-127.401566 0z" fill-rule="evenodd"/><path fill="#000000" d="m187.56175 63.80399l0 -13.359375l2.65625 0l3.15625 9.453125q0.4375 1.328125 0.640625 1.984375q0.234375 -0.734375 0.703125 -2.140625l3.203125 -9.296875l2.375 0l0 13.359375l-1.703125 0l0 -11.171875l-3.875 11.171875l-1.59375 0l-3.859375 -11.375l0 11.375l-1.703125 0zm21.697052 -1.1875q-0.921875 0.765625 -1.765625 1.09375q-0.828125 0.3124962 -1.796875 0.3124962q-1.59375 0 -2.453125 -0.7812462q-0.859375 -0.78125 -0.859375 -1.984375q0 -0.71875 0.328125 -1.296875q0.328125 -0.59375 0.84375 -0.9375q0.53125 -0.359375 1.1875 -0.546875q0.46875 -0.125 1.453125 -0.25q1.984375 -0.234375 2.921875 -0.5625q0.015625 -0.34375 0.015625 -0.421875q0 -1.0 -0.46875 -1.421875q-0.625 -0.546875 -1.875 -0.546875q-1.15625 0 -1.703125 0.40625q-0.546875 0.40625 -0.8125 1.421875l-1.609375 -0.21875q0.21875 -1.015625 0.71875 -1.640625q0.5 -0.640625 1.453125 -0.984375q0.953125 -0.34375 2.1875 -0.34375q1.25 0 2.015625 0.296875q0.78125 0.28125 1.140625 0.734375q0.375 0.4375 0.515625 1.109375q0.078125 0.421875 0.078125 1.515625l0 2.1875q0 2.28125 0.109375 2.890625q0.109375 0.59375 0.40625 1.15625l-1.703125 0q-0.265625 -0.515625 -0.328125 -1.1875zm-0.140625 -3.671875q-0.890625 0.375 -2.671875 0.625q-1.015625 0.140625 -1.4375 0.328125q-0.421875 0.1875 -0.65625 0.53125q-0.21875 0.34375 -0.21875 0.78125q0 0.65625 0.5 1.09375q0.5 0.4375 1.453125 0.4375q0.9375 0 1.671875 -0.40625q0.75 -0.421875 1.09375 -1.140625q0.265625 -0.5625 0.265625 -1.640625l0 -0.609375zm4.203842 8.562496l0 -13.374996l1.484375 0l0 1.25q0.53125 -0.734375 1.1875 -1.09375q0.671875 -0.375 1.625 -0.375q1.234375 0 2.171875 0.640625q0.953125 0.625 1.4375 1.796875q0.484375 1.15625 0.484375 2.546875q0 1.484375 -0.53125 2.671875q-0.53125 1.1875 -1.546875 1.828125q-1.015625 0.6249962 -2.140625 0.6249962q-0.8125 0 -1.46875 -0.3437462q-0.65625 -0.34375 -1.0625 -0.875l0 4.703121l-1.640625 0zm1.484375 -8.484371q0 1.859375 0.75 2.765625q0.765625 0.890625 1.828125 0.890625q1.09375 0 1.875 -0.921875q0.78125 -0.9375 0.78125 -2.875q0 -1.84375 -0.765625 -2.765625q-0.75 -0.921875 -1.8125 -0.921875q-1.046875 0 -1.859375 0.984375q-0.796875 0.96875 -0.796875 2.84375zm17.346786 4.78125l0 -11.78125l-4.40625 0l0 -1.578125l10.578125 0l0 1.578125l-4.40625 0l0 11.78125l-1.765625 0zm12.03009 -1.1875q-0.921875 0.765625 -1.765625 1.09375q-0.828125 0.3124962 -1.796875 0.3124962q-1.59375 0 -2.453125 -0.7812462q-0.859375 -0.78125 -0.859375 -1.984375q0 -0.71875 0.328125 -1.296875q0.328125 -0.59375 0.84375 -0.9375q0.53125 -0.359375 1.1875 -0.546875q0.46875 -0.125 1.453125 -0.25q1.984375 -0.234375 2.921875 -0.5625q0.015625 -0.34375 0.015625 -0.421875q0 -1.0 -0.46875 -1.421875q-0.625 -0.546875 -1.875 -0.546875q-1.15625 0 -1.703125 0.40625q-0.546875 0.40625 -0.8125 1.421875l-1.609375 -0.21875q0.21875 -1.015625 0.71875 -1.640625q0.5 -0.640625 1.453125 -0.984375q0.953125 -0.34375 2.1875 -0.34375q1.25 0 2.015625 0.296875q0.78125 0.28125 1.140625 0.734375q0.375 0.4375 0.515625 1.109375q0.078125 0.421875 0.078125 1.515625l0 2.1875q0 2.28125 0.109375 2.890625q0.109375 0.59375 0.40625 1.15625l-1.703125 0q-0.265625 -0.515625 -0.328125 -1.1875zm-0.140625 -3.671875q-0.890625 0.375 -2.671875 0.625q-1.015625 0.140625 -1.4375 0.328125q-0.421875 0.1875 -0.65625 0.53125q-0.21875 0.34375 -0.21875 0.78125q0 0.65625 0.5 1.09375q0.5 0.4375 1.453125 0.4375q0.9375 0 1.671875 -0.40625q0.75 -0.421875 1.09375 -1.140625q0.265625 -0.5625 0.265625 -1.640625l0 -0.609375zm3.5475922 1.96875l1.625 -0.25q0.125 0.96875 0.75 1.5q0.625 0.515625 1.75 0.515625q1.125 0 1.671875 -0.453125q0.546875 -0.46875 0.546875 -1.09375q0 -0.546875 -0.484375 -0.875q-0.328125 -0.21875 -1.671875 -0.546875q-1.8125 -0.46875 -2.515625 -0.796875q-0.6875 -0.328125 -1.046875 -0.90625q-0.359375 -0.59375 -0.359375 -1.3125q0 -0.640625 0.296875 -1.1875q0.296875 -0.5625 0.8125 -0.921875q0.375 -0.28125 1.03125 -0.46875q0.671875 -0.203125 1.421875 -0.203125q1.140625 0 2.0 0.328125q0.859375 0.328125 1.265625 0.890625q0.421875 0.5625 0.578125 1.5l-1.609375 0.21875q-0.109375 -0.75 -0.640625 -1.171875q-0.515625 -0.421875 -1.46875 -0.421875q-1.140625 0 -1.625 0.375q-0.46875 0.375 -0.46875 0.875q0 0.3125 0.1875 0.578125q0.203125 0.265625 0.640625 0.4375q0.234375 0.09375 1.4375 0.421875q1.75 0.453125 2.4375 0.75q0.6875 0.296875 1.078125 0.859375q0.390625 0.5625 0.390625 1.40625q0 0.828125 -0.484375 1.546875q-0.46875 0.71875 -1.375 1.125q-0.90625 0.3906212 -2.046875 0.3906212q-1.875 0 -2.875 -0.7812462q-0.984375 -0.78125 -1.25 -2.328125zm9.984375 2.890625l0 -13.359375l1.640625 0l0 7.625l3.890625 -3.9375l2.109375 0l-3.6875 3.59375l4.0625 6.078125l-2.015625 0l-3.203125 -4.953125l-1.15625 1.125l0 3.828125l-1.640625 0z" fill-rule="nonzero"/><path fill="#ffffff" d="m177.17113 80.09659l127.401566 0l0 33.574806l-127.401566 0z" fill-rule="evenodd"/><path stroke="#000000" stroke-width="1.0" stroke-linejoin="round" stroke-linecap="butt" d="m177.17113 80.09659l127.401566 0l0 33.574806l-127.401566 0z" fill-rule="evenodd"/><path fill="#000000" d="m187.56175 103.803986l0 -13.359375l2.65625 0l3.15625 9.453125q0.4375 1.328125 0.640625 1.984375q0.234375 -0.734375 0.703125 -2.140625l3.203125 -9.296875l2.375 0l0 13.359375l-1.703125 0l0 -11.171875l-3.875 11.171875l-1.59375 0l-3.859375 -11.375l0 11.375l-1.703125 0zm21.697052 -1.1875q-0.921875 0.765625 -1.765625 1.09375q-0.828125 0.3125 -1.796875 0.3125q-1.59375 0 -2.453125 -0.78125q-0.859375 -0.78125 -0.859375 -1.984375q0 -0.71875 0.328125 -1.296875q0.328125 -0.59375 0.84375 -0.9375q0.53125 -0.359375 1.1875 -0.546875q0.46875 -0.125 1.453125 -0.25q1.984375 -0.234375 2.921875 -0.5625q0.015625 -0.34375 0.015625 -0.421875q0 -1.0 -0.46875 -1.421875q-0.625 -0.546875 -1.875 -0.546875q-1.15625 0 -1.703125 0.40625q-0.546875 0.40625 -0.8125 1.421875l-1.609375 -0.21875q0.21875 -1.015625 0.71875 -1.640625q0.5 -0.640625 1.453125 -0.984375q0.953125 -0.34375 2.1875 -0.34375q1.25 0 2.015625 0.296875q0.78125 0.28125 1.140625 0.734375q0.375 0.4375 0.515625 1.109375q0.078125 0.421875 0.078125 1.515625l0 2.1875q0 2.28125 0.109375 2.890625q0.109375 0.59375 0.40625 1.15625l-1.703125 0q-0.265625 -0.515625 -0.328125 -1.1875zm-0.140625 -3.671875q-0.890625 0.375 -2.671875 0.625q-1.015625 0.140625 -1.4375 0.328125q-0.421875 0.1875 -0.65625 0.53125q-0.21875 0.34375 -0.21875 0.78125q0 0.65625 0.5 1.09375q0.5 0.4375 1.453125 0.4375q0.9375 0 1.671875 -0.40625q0.75 -0.421875 1.09375 -1.140625q0.265625 -0.5625 0.265625 -1.640625l0 -0.609375zm4.203842 8.5625l0 -13.375l1.484375 0l0 1.25q0.53125 -0.734375 1.1875 -1.09375q0.671875 -0.375 1.625 -0.375q1.234375 0 2.171875 0.640625q0.953125 0.625 1.4375 1.796875q0.484375 1.15625 0.484375 2.546875q0 1.484375 -0.53125 2.671875q-0.53125 1.1875 -1.546875 1.828125q-1.015625 0.625 -2.140625 0.625q-0.8125 0 -1.46875 -0.34375q-0.65625 -0.34375 -1.0625 -0.875l0 4.703125l-1.640625 0zm1.484375 -8.484375q0 1.859375 0.75 2.765625q0.765625 0.890625 1.828125 0.890625q1.09375 0 1.875 -0.921875q0.78125 -0.9375 0.78125 -2.875q0 -1.84375 -0.765625 -2.765625q-0.75 -0.921875 -1.8125 -0.921875q-1.046875 0 -1.859375 0.984375q-0.796875 0.96875 -0.796875 2.84375zm17.346786 4.78125l0 -11.78125l-4.40625 0l0 -1.578125l10.578125 0l0 1.578125l-4.40625 0l0 11.78125l-1.765625 0zm12.03009 -1.1875q-0.921875 0.765625 -1.765625 1.09375q-0.828125 0.3125 -1.796875 0.3125q-1.59375 0 -2.453125 -0.78125q-0.859375 -0.78125 -0.859375 -1.984375q0 -0.71875 0.328125 -1.296875q0.328125 -0.59375 0.84375 -0.9375q0.53125 -0.359375 1.1875 -0.546875q0.46875 -0.125 1.453125 -0.25q1.984375 -0.234375 2.921875 -0.5625q0.015625 -0.34375 0.015625 -0.421875q0 -1.0 -0.46875 -1.421875q-0.625 -0.546875 -1.875 -0.546875q-1.15625 0 -1.703125 0.40625q-0.546875 0.40625 -0.8125 1.421875l-1.609375 -0.21875q0.21875 -1.015625 0.71875 -1.640625q0.5 -0.640625 1.453125 -0.984375q0.953125 -0.34375 2.1875 -0.34375q1.25 0 2.015625 0.296875q0.78125 0.28125 1.140625 0.734375q0.375 0.4375 0.515625 1.109375q0.078125 0.421875 0.078125 1.515625l0 2.1875q0 2.28125 0.109375 2.890625q0.109375 0.59375 0.40625 1.15625l-1.703125 0q-0.265625 -0.515625 -0.328125 -1.1875zm-0.140625 -3.671875q-0.890625 0.375 -2.671875 0.625q-1.015625 0.140625 -1.4375 0.328125q-0.421875 0.1875 -0.65625 0.53125q-0.21875 0.34375 -0.21875 0.78125q0 0.65625 0.5 1.09375q0.5 0.4375 1.453125 0.4375q0.9375 0 1.671875 -0.40625q0.75 -0.421875 1.09375 -1.140625q0.265625 -0.5625 0.265625 -1.640625l0 -0.609375zm3.5475922 1.96875l1.625 -0.25q0.125 0.96875 0.75 1.5q0.625 0.515625 1.75 0.515625q1.125 0 1.671875 -0.453125q0.546875 -0.46875 0.546875 -1.09375q0 -0.546875 -0.484375 -0.875q-0.328125 -0.21875 -1.671875 -0.546875q-1.8125 -0.46875 -2.515625 -0.796875q-0.6875 -0.328125 -1.046875 -0.90625q-0.359375 -0.59375 -0.359375 -1.3125q0 -0.640625 0.296875 -1.1875q0.296875 -0.5625 0.8125 -0.921875q0.375 -0.28125 1.03125 -0.46875q0.671875 -0.203125 1.421875 -0.203125q1.140625 0 2.0 0.328125q0.859375 0.328125 1.265625 0.890625q0.421875 0.5625 0.578125 1.5l-1.609375 0.21875q-0.109375 -0.75 -0.640625 -1.171875q-0.515625 -0.421875 -1.46875 -0.421875q-1.140625 0 -1.625 0.375q-0.46875 0.375 -0.46875 0.875q0 0.3125 0.1875 0.578125q0.203125 0.265625 0.640625 0.4375q0.234375 0.09375 1.4375 0.421875q1.75 0.453125 2.4375 0.75q0.6875 0.296875 1.078125 0.859375q0.390625 0.5625 0.390625 1.40625q0 0.828125 -0.484375 1.546875q-0.46875 0.71875 -1.375 1.125q-0.90625 0.390625 -2.046875 0.390625q-1.875 0 -2.875 -0.78125q-0.984375 -0.78125 -1.25 -2.328125zm9.984375 2.890625l0 -13.359375l1.640625 0l0 7.625l3.890625 -3.9375l2.109375 0l-3.6875 3.59375l4.0625 6.078125l-2.015625 0l-3.203125 -4.953125l-1.15625 1.125l0 3.828125l-1.640625 0z" fill-rule="nonzero"/><path fill="#ffffff" d="m177.17113 120.09659l127.401566 0l0 33.5748l-127.401566 0z" fill-rule="evenodd"/><path stroke="#000000" stroke-width="1.0" stroke-linejoin="round" stroke-linecap="butt" d="m177.17113 120.09659l127.401566 0l0 33.5748l-127.401566 0z" fill-rule="evenodd"/><path fill="#000000" d="m187.56175 143.80399l0 -13.359375l2.65625 0l3.15625 9.453125q0.4375 1.328125 0.640625 1.984375q0.234375 -0.734375 0.703125 -2.140625l3.203125 -9.296875l2.375 0l0 13.359375l-1.703125 0l0 -11.171875l-3.875 11.171875l-1.59375 0l-3.859375 -11.375l0 11.375l-1.703125 0zm21.697052 -1.1875q-0.921875 0.765625 -1.765625 1.09375q-0.828125 0.3125 -1.796875 0.3125q-1.59375 0 -2.453125 -0.78125q-0.859375 -0.78125 -0.859375 -1.984375q0 -0.71875 0.328125 -1.296875q0.328125 -0.59375 0.84375 -0.9375q0.53125 -0.359375 1.1875 -0.546875q0.46875 -0.125 1.453125 -0.25q1.984375 -0.234375 2.921875 -0.5625q0.015625 -0.34375 0.015625 -0.421875q0 -1.0 -0.46875 -1.421875q-0.625 -0.546875 -1.875 -0.546875q-1.15625 0 -1.703125 0.40625q-0.546875 0.40625 -0.8125 1.421875l-1.609375 -0.21875q0.21875 -1.015625 0.71875 -1.640625q0.5 -0.640625 1.453125 -0.984375q0.953125 -0.34375 2.1875 -0.34375q1.25 0 2.015625 0.296875q0.78125 0.28125 1.140625 0.734375q0.375 0.4375 0.515625 1.109375q0.078125 0.421875 0.078125 1.515625l0 2.1875q0 2.28125 0.109375 2.890625q0.109375 0.59375 0.40625 1.15625l-1.703125 0q-0.265625 -0.515625 -0.328125 -1.1875zm-0.140625 -3.671875q-0.890625 0.375 -2.671875 0.625q-1.015625 0.140625 -1.4375 0.328125q-0.421875 0.1875 -0.65625 0.53125q-0.21875 0.34375 -0.21875 0.78125q0 0.65625 0.5 1.09375q0.5 0.4375 1.453125 0.4375q0.9375 0 1.671875 -0.40625q0.75 -0.421875 1.09375 -1.140625q0.265625 -0.5625 0.265625 -1.640625l0 -0.609375zm4.203842 8.5625l0 -13.375l1.484375 0l0 1.25q0.53125 -0.734375 1.1875 -1.09375q0.671875 -0.375 1.625 -0.375q1.234375 0 2.171875 0.640625q0.953125 0.625 1.4375 1.796875q0.484375 1.15625 0.484375 2.546875q0 1.484375 -0.53125 2.671875q-0.53125 1.1875 -1.546875 1.828125q-1.015625 0.625 -2.140625 0.625q-0.8125 0 -1.46875 -0.34375q-0.65625 -0.34375 -1.0625 -0.875l0 4.703125l-1.640625 0zm1.484375 -8.484375q0 1.859375 0.75 2.765625q0.765625 0.890625 1.828125 0.890625q1.09375 0 1.875 -0.921875q0.78125 -0.9375 0.78125 -2.875q0 -1.84375 -0.765625 -2.765625q-0.75 -0.921875 -1.8125 -0.921875q-1.046875 0 -1.859375 0.984375q-0.796875 0.96875 -0.796875 2.84375zm17.346786 4.78125l0 -11.78125l-4.40625 0l0 -1.578125l10.578125 0l0 1.578125l-4.40625 0l0 11.78125l-1.765625 0zm12.03009 -1.1875q-0.921875 0.765625 -1.765625 1.09375q-0.828125 0.3125 -1.796875 0.3125q-1.59375 0 -2.453125 -0.78125q-0.859375 -0.78125 -0.859375 -1.984375q0 -0.71875 0.328125 -1.296875q0.328125 -0.59375 0.84375 -0.9375q0.53125 -0.359375 1.1875 -0.546875q0.46875 -0.125 1.453125 -0.25q1.984375 -0.234375 2.921875 -0.5625q0.015625 -0.34375 0.015625 -0.421875q0 -1.0 -0.46875 -1.421875q-0.625 -0.546875 -1.875 -0.546875q-1.15625 0 -1.703125 0.40625q-0.546875 0.40625 -0.8125 1.421875l-1.609375 -0.21875q0.21875 -1.015625 0.71875 -1.640625q0.5 -0.640625 1.453125 -0.984375q0.953125 -0.34375 2.1875 -0.34375q1.25 0 2.015625 0.296875q0.78125 0.28125 1.140625 0.734375q0.375 0.4375 0.515625 1.109375q0.078125 0.421875 0.078125 1.515625l0 2.1875q0 2.28125 0.109375 2.890625q0.109375 0.59375 0.40625 1.15625l-1.703125 0q-0.265625 -0.515625 -0.328125 -1.1875zm-0.140625 -3.671875q-0.890625 0.375 -2.671875 0.625q-1.015625 0.140625 -1.4375 0.328125q-0.421875 0.1875 -0.65625 0.53125q-0.21875 0.34375 -0.21875 0.78125q0 0.65625 0.5 1.09375q0.5 0.4375 1.453125 0.4375q0.9375 0 1.671875 -0.40625q0.75 -0.421875 1.09375 -1.140625q0.265625 -0.5625 0.265625 -1.640625l0 -0.609375zm3.5475922 1.96875l1.625 -0.25q0.125 0.96875 0.75 1.5q0.625 0.515625 1.75 0.515625q1.125 0 1.671875 -0.453125q0.546875 -0.46875 0.546875 -1.09375q0 -0.546875 -0.484375 -0.875q-0.328125 -0.21875 -1.671875 -0.546875q-1.8125 -0.46875 -2.515625 -0.796875q-0.6875 -0.328125 -1.046875 -0.90625q-0.359375 -0.59375 -0.359375 -1.3125q0 -0.640625 0.296875 -1.1875q0.296875 -0.5625 0.8125 -0.921875q0.375 -0.28125 1.03125 -0.46875q0.671875 -0.203125 1.421875 -0.203125q1.140625 0 2.0 0.328125q0.859375 0.328125 1.265625 0.890625q0.421875 0.5625 0.578125 1.5l-1.609375 0.21875q-0.109375 -0.75 -0.640625 -1.171875q-0.515625 -0.421875 -1.46875 -0.421875q-1.140625 0 -1.625 0.375q-0.46875 0.375 -0.46875 0.875q0 0.3125 0.1875 0.578125q0.203125 0.265625 0.640625 0.4375q0.234375 0.09375 1.4375 0.421875q1.75 0.453125 2.4375 0.75q0.6875 0.296875 1.078125 0.859375q0.390625 0.5625 0.390625 1.40625q0 0.828125 -0.484375 1.546875q-0.46875 0.71875 -1.375 1.125q-0.90625 0.390625 -2.046875 0.390625q-1.875 0 -2.875 -0.78125q-0.984375 -0.78125 -1.25 -2.328125zm9.984375 2.890625l0 -13.359375l1.640625 0l0 7.625l3.890625 -3.9375l2.109375 0l-3.6875 3.59375l4.0625 6.078125l-2.015625 0l-3.203125 -4.953125l-1.15625 1.125l0 3.828125l-1.640625 0z" fill-rule="nonzero"/><path fill="#6aa84f" d="m388.39377 8.897637l70.33072 0l0 28.629921l-70.33072 0z" fill-rule="evenodd"/><path fill="#ffffff" d="m398.75314 30.132597l0 -13.359375l5.015625 0q1.53125 0 2.453125 0.40625q0.921875 0.40625 1.4375 1.25q0.53125 0.84375 0.53125 1.765625q0 0.859375 -0.46875 1.625q-0.453125 0.75 -1.390625 1.203125q1.203125 0.359375 1.859375 1.21875q0.65625 0.859375 0.65625 2.015625q0 0.9375 -0.40625 1.75q-0.390625 0.796875 -0.984375 1.234375q-0.578125 0.4375 -1.453125 0.671875q-0.875 0.21875 -2.15625 0.21875l-5.09375 0zm1.78125 -7.75l2.875 0q1.1875 0 1.6875 -0.140625q0.671875 -0.203125 1.015625 -0.671875q0.34375 -0.46875 0.34375 -1.171875q0 -0.65625 -0.328125 -1.15625q-0.3125 -0.515625 -0.90625 -0.703125q-0.59375 -0.1875 -2.03125 -0.1875l-2.65625 0l0 4.03125zm0 6.171875l3.3125 0q0.859375 0 1.203125 -0.0625q0.609375 -0.109375 1.015625 -0.359375q0.421875 -0.265625 0.6875 -0.75q0.265625 -0.484375 0.265625 -1.125q0 -0.75 -0.390625 -1.296875q-0.375 -0.546875 -1.0625 -0.765625q-0.671875 -0.234375 -1.953125 -0.234375l-3.078125 0l0 4.59375zm10.490448 1.578125l0 -13.359375l1.640625 0l0 13.359375l-1.640625 0zm3.5823364 -4.84375q0 -2.6875 1.484375 -3.96875q1.25 -1.078125 3.046875 -1.078125q2.0 0 3.265625 1.3125q1.265625 1.296875 1.265625 3.609375q0 1.859375 -0.5625 2.9375q-0.5625 1.0625 -1.640625 1.65625q-1.0625 0.59375 -2.328125 0.59375q-2.03125 0 -3.28125 -1.296875q-1.25 -1.3125 -1.25 -3.765625zm1.6875 0q0 1.859375 0.796875 2.796875q0.8125 0.921875 2.046875 0.921875q1.21875 0 2.03125 -0.921875q0.8125 -0.9375 0.8125 -2.84375q0 -1.796875 -0.8125 -2.71875q-0.8125 -0.921875 -2.03125 -0.921875q-1.234375 0 -2.046875 0.921875q-0.796875 0.90625 -0.796875 2.765625zm15.610077 1.296875l1.609375 0.21875q-0.265625 1.65625 -1.359375 2.609375q-1.078125 0.9375 -2.671875 0.9375q-1.984375 0 -3.1875 -1.296875q-1.203125 -1.296875 -1.203125 -3.71875q0 -1.578125 0.515625 -2.75q0.515625 -1.171875 1.578125 -1.75q1.0625 -0.59375 2.3125 -0.59375q1.578125 0 2.578125 0.796875q1.0 0.796875 1.28125 2.265625l-1.59375 0.234375q-0.234375 -0.96875 -0.8125 -1.453125q-0.578125 -0.5 -1.390625 -0.5q-1.234375 0 -2.015625 0.890625q-0.78125 0.890625 -0.78125 2.8125q0 1.953125 0.75 2.84375q0.75 0.875 1.953125 0.875q0.96875 0 1.609375 -0.59375q0.65625 -0.59375 0.828125 -1.828125zm3.015625 3.546875l0 -13.359375l1.640625 0l0 7.625l3.890625 -3.9375l2.109375 0l-3.6875 3.59375l4.0625 6.078125l-2.015625 0l-3.203125 -4.953125l-1.15625 1.125l0 3.828125l-1.640625 0z" fill-rule="nonzero"/><path fill="#6aa84f" d="m388.3937 44.25197l86.01575 0l0 28.629921l-86.01575 0z" fill-rule="evenodd"/><path fill="#ffffff" d="m398.75308 65.48693l0 -13.359379l5.015625 0q1.53125 0 2.453125 0.40625q0.921875 0.40625 1.4375 1.25q0.53125 0.84375 0.53125 1.765625q0 0.859375 -0.46875 1.625q-0.453125 0.75 -1.390625 1.203125q1.203125 0.359375 1.859375 1.21875q0.65625 0.859375 0.65625 2.015625q0 0.9375 -0.40625 1.75q-0.390625 0.7968788 -0.984375 1.2343788q-0.578125 0.4375 -1.453125 0.671875q-0.875 0.21875 -2.15625 0.21875l-5.09375 0zm1.78125 -7.750004l2.875 0q1.1875 0 1.6875 -0.140625q0.671875 -0.203125 1.015625 -0.671875q0.34375 -0.46875 0.34375 -1.171875q0 -0.65625 -0.328125 -1.15625q-0.3125 -0.515625 -0.90625 -0.703125q-0.59375 -0.1875 -2.03125 -0.1875l-2.65625 0l0 4.03125zm0 6.171875l3.3125 0q0.859375 0 1.203125 -0.0625q0.609375 -0.109375 1.015625 -0.359375q0.421875 -0.265625 0.6875 -0.75q0.265625 -0.484375 0.265625 -1.125q0 -0.75 -0.390625 -1.296875q-0.375 -0.546875 -1.0625 -0.765625q-0.671875 -0.234375 -1.953125 -0.234375l-3.078125 0l0 4.59375zm10.490448 1.5781288l0 -13.359379l1.640625 0l0 13.359379l-1.640625 0zm3.5823364 -4.843754q0 -2.6875 1.484375 -3.96875q1.25 -1.078125 3.046875 -1.078125q2.0 0 3.265625 1.3125q1.265625 1.296875 1.265625 3.609375q0 1.859375 -0.5625 2.9375q-0.5625 1.0625038 -1.640625 1.6562538q-1.0625 0.59375 -2.328125 0.59375q-2.03125 0 -3.28125 -1.296875q-1.25 -1.3125038 -1.25 -3.7656288zm1.6875 0q0 1.859375 0.796875 2.796875q0.8125 0.9218788 2.046875 0.9218788q1.21875 0 2.03125 -0.9218788q0.8125 -0.9375 0.8125 -2.84375q0 -1.796875 -0.8125 -2.71875q-0.8125 -0.921875 -2.03125 -0.921875q-1.234375 0 -2.046875 0.921875q-0.796875 0.90625 -0.796875 2.765625zm15.610077 1.296875l1.609375 0.21875q-0.265625 1.65625 -1.359375 2.6093788q-1.078125 0.9375 -2.671875 0.9375q-1.984375 0 -3.1875 -1.296875q-1.203125 -1.2968788 -1.203125 -3.7187538q0 -1.578125 0.515625 -2.75q0.515625 -1.171875 1.578125 -1.75q1.0625 -0.59375 2.3125 -0.59375q1.578125 0 2.578125 0.796875q1.0 0.796875 1.28125 2.265625l-1.59375 0.234375q-0.234375 -0.96875 -0.8125 -1.453125q-0.578125 -0.5 -1.390625 -0.5q-1.234375 0 -2.015625 0.890625q-0.78125 0.890625 -0.78125 2.8125q0 1.953125 0.75 2.84375q0.75 0.8750038 1.953125 0.8750038q0.96875 0 1.609375 -0.5937538q0.65625 -0.59375 0.828125 -1.828125zm3.015625 3.5468788l0 -13.359379l1.640625 0l0 7.625l3.890625 -3.9375l2.109375 0l-3.6875 3.59375l4.0625 6.078129l-2.015625 0l-3.203125 -4.953129l-1.15625 1.125l0 3.8281288l-1.640625 0z" fill-rule="nonzero"/><path fill="#6aa84f" d="m388.3938 79.6063l86.01575 0l0 28.629921l-86.01575 0z" fill-rule="evenodd"/><path fill="#ffffff" d="m398.75317 100.841255l0 -13.359375l5.015625 0q1.53125 0 2.453125 0.40625q0.921875 0.40625 1.4375 1.25q0.53125 0.84375 0.53125 1.765625q0 0.859375 -0.46875 1.625q-0.453125 0.75 -1.390625 1.203125q1.203125 0.359375 1.859375 1.21875q0.65625 0.859375 0.65625 2.015625q0 0.9375 -0.40625 1.75q-0.390625 0.796875 -0.984375 1.234375q-0.578125 0.4375 -1.453125 0.671875q-0.875 0.21875 -2.15625 0.21875l-5.09375 0zm1.78125 -7.75l2.875 0q1.1875 0 1.6875 -0.140625q0.671875 -0.203125 1.015625 -0.671875q0.34375 -0.46875 0.34375 -1.171875q0 -0.65625 -0.328125 -1.15625q-0.3125 -0.515625 -0.90625 -0.703125q-0.59375 -0.1875 -2.03125 -0.1875l-2.65625 0l0 4.03125zm0 6.171875l3.3125 0q0.859375 0 1.203125 -0.0625q0.609375 -0.109375 1.015625 -0.359375q0.421875 -0.265625 0.6875 -0.75q0.265625 -0.484375 0.265625 -1.125q0 -0.75 -0.390625 -1.296875q-0.375 -0.546875 -1.0625 -0.765625q-0.671875 -0.234375 -1.953125 -0.234375l-3.078125 0l0 4.59375zm10.490448 1.578125l0 -13.359375l1.640625 0l0 13.359375l-1.640625 0zm3.5823364 -4.84375q0 -2.6875 1.484375 -3.96875q1.25 -1.078125 3.046875 -1.078125q2.0 0 3.265625 1.3125q1.265625 1.296875 1.265625 3.609375q0 1.859375 -0.5625 2.9375q-0.5625 1.0625 -1.640625 1.65625q-1.0625 0.59375 -2.328125 0.59375q-2.03125 0 -3.28125 -1.296875q-1.25 -1.3125 -1.25 -3.765625zm1.6875 0q0 1.859375 0.796875 2.796875q0.8125 0.921875 2.046875 0.921875q1.21875 0 2.03125 -0.921875q0.8125 -0.9375 0.8125 -2.84375q0 -1.796875 -0.8125 -2.71875q-0.8125 -0.921875 -2.03125 -0.921875q-1.234375 0 -2.046875 0.921875q-0.796875 0.90625 -0.796875 2.765625zm15.610077 1.296875l1.609375 0.21875q-0.265625 1.65625 -1.359375 2.609375q-1.078125 0.9375 -2.671875 0.9375q-1.984375 0 -3.1875 -1.296875q-1.203125 -1.296875 -1.203125 -3.71875q0 -1.578125 0.515625 -2.75q0.515625 -1.171875 1.578125 -1.75q1.0625 -0.59375 2.3125 -0.59375q1.578125 0 2.578125 0.796875q1.0 0.796875 1.28125 2.265625l-1.59375 0.234375q-0.234375 -0.96875 -0.8125 -1.453125q-0.578125 -0.5 -1.390625 -0.5q-1.234375 0 -2.015625 0.890625q-0.78125 0.890625 -0.78125 2.8125q0 1.953125 0.75 2.84375q0.75 0.875 1.953125 0.875q0.96875 0 1.609375 -0.59375q0.65625 -0.59375 0.828125 -1.828125zm3.015625 3.546875l0 -13.359375l1.640625 0l0 7.625l3.890625 -3.9375l2.109375 0l-3.6875 3.59375l4.0625 6.078125l-2.015625 0l-3.203125 -4.953125l-1.15625 1.125l0 3.828125l-1.640625 0z" fill-rule="nonzero"/><path fill="#6aa84f" d="m388.3937 114.96063l66.17322 0l0 28.629913l-66.17322 0z" fill-rule="evenodd"/><path fill="#ffffff" d="m398.75308 136.19559l0 -13.359375l5.015625 0q1.53125 0 2.453125 0.40625q0.921875 0.40625 1.4375 1.25q0.53125 0.84375 0.53125 1.765625q0 0.859375 -0.46875 1.625q-0.453125 0.75 -1.390625 1.203125q1.203125 0.359375 1.859375 1.21875q0.65625 0.859375 0.65625 2.015625q0 0.9375 -0.40625 1.75q-0.390625 0.796875 -0.984375 1.234375q-0.578125 0.4375 -1.453125 0.671875q-0.875 0.21875 -2.15625 0.21875l-5.09375 0zm1.78125 -7.75l2.875 0q1.1875 0 1.6875 -0.140625q0.671875 -0.203125 1.015625 -0.671875q0.34375 -0.46875 0.34375 -1.171875q0 -0.65625 -0.328125 -1.15625q-0.3125 -0.515625 -0.90625 -0.703125q-0.59375 -0.1875 -2.03125 -0.1875l-2.65625 0l0 4.03125zm0 6.171875l3.3125 0q0.859375 0 1.203125 -0.0625q0.609375 -0.109375 1.015625 -0.359375q0.421875 -0.265625 0.6875 -0.75q0.265625 -0.484375 0.265625 -1.125q0 -0.75 -0.390625 -1.296875q-0.375 -0.546875 -1.0625 -0.765625q-0.671875 -0.234375 -1.953125 -0.234375l-3.078125 0l0 4.59375zm10.490448 1.578125l0 -13.359375l1.640625 0l0 13.359375l-1.640625 0zm3.582306 -4.84375q0 -2.6875 1.484375 -3.96875q1.25 -1.078125 3.046875 -1.078125q2.0 0 3.265625 1.3125q1.265625 1.296875 1.265625 3.609375q0 1.859375 -0.5625 2.9375q-0.5625 1.0625 -1.640625 1.65625q-1.0625 0.59375 -2.328125 0.59375q-2.03125 0 -3.28125 -1.296875q-1.25 -1.3125 -1.25 -3.765625zm1.6875 0q0 1.859375 0.796875 2.796875q0.8125 0.921875 2.046875 0.921875q1.21875 0 2.03125 -0.921875q0.8125 -0.9375 0.8125 -2.84375q0 -1.796875 -0.8125 -2.71875q-0.8125 -0.921875 -2.03125 -0.921875q-1.234375 0 -2.046875 0.921875q-0.796875 0.90625 -0.796875 2.765625zm15.610107 1.296875l1.609375 0.21875q-0.265625 1.65625 -1.359375 2.609375q-1.078125 0.9375 -2.671875 0.9375q-1.984375 0 -3.1875 -1.296875q-1.203125 -1.296875 -1.203125 -3.71875q0 -1.578125 0.515625 -2.75q0.515625 -1.171875 1.578125 -1.75q1.0625 -0.59375 2.3125 -0.59375q1.578125 0 2.578125 0.796875q1.0 0.796875 1.28125 2.265625l-1.59375 0.234375q-0.234375 -0.96875 -0.8125 -1.453125q-0.578125 -0.5 -1.390625 -0.5q-1.234375 0 -2.015625 0.890625q-0.78125 0.890625 -0.78125 2.8125q0 1.953125 0.75 2.84375q0.75 0.875 1.953125 0.875q0.96875 0 1.609375 -0.59375q0.65625 -0.59375 0.828125 -1.828125zm3.015625 3.546875l0 -13.359375l1.640625 0l0 7.625l3.890625 -3.9375l2.109375 0l-3.6875 3.59375l4.0625 6.078125l-2.015625 0l-3.203125 -4.953125l-1.15625 1.125l0 3.828125l-1.640625 0z" fill-rule="nonzero"/><path fill="#6aa84f" d="m388.39365 150.31496l79.49606 0l0 28.629929l-79.49606 0z" fill-rule="evenodd"/><path fill="#ffffff" d="m398.75302 171.54993l0 -13.359375l5.015625 0q1.53125 0 2.453125 0.40625q0.921875 0.40625 1.4375 1.25q0.53125 0.84375 0.53125 1.765625q0 0.859375 -0.46875 1.625q-0.453125 0.75 -1.390625 1.203125q1.203125 0.359375 1.859375 1.21875q0.65625 0.859375 0.65625 2.015625q0 0.9375 -0.40625 1.75q-0.390625 0.796875 -0.984375 1.234375q-0.578125 0.4375 -1.453125 0.671875q-0.875 0.21875 -2.15625 0.21875l-5.09375 0zm1.78125 -7.75l2.875 0q1.1875 0 1.6875 -0.140625q0.671875 -0.203125 1.015625 -0.671875q0.34375 -0.46875 0.34375 -1.171875q0 -0.65625 -0.328125 -1.15625q-0.3125 -0.515625 -0.90625 -0.703125q-0.59375 -0.1875 -2.03125 -0.1875l-2.65625 0l0 4.03125zm0 6.171875l3.3125 0q0.859375 0 1.203125 -0.0625q0.609375 -0.109375 1.015625 -0.359375q0.421875 -0.265625 0.6875 -0.75q0.265625 -0.484375 0.265625 -1.125q0 -0.75 -0.390625 -1.296875q-0.375 -0.546875 -1.0625 -0.765625q-0.671875 -0.234375 -1.953125 -0.234375l-3.078125 0l0 4.59375zm10.490448 1.578125l0 -13.359375l1.640625 0l0 13.359375l-1.640625 0zm3.582306 -4.84375q0 -2.6875 1.484375 -3.96875q1.25 -1.078125 3.046875 -1.078125q2.0 0 3.265625 1.3125q1.265625 1.296875 1.265625 3.609375q0 1.859375 -0.5625 2.9375q-0.5625 1.0625 -1.640625 1.65625q-1.0625 0.59375 -2.328125 0.59375q-2.03125 0 -3.28125 -1.296875q-1.25 -1.3125 -1.25 -3.765625zm1.6875 0q0 1.859375 0.796875 2.796875q0.8125 0.921875 2.046875 0.921875q1.21875 0 2.03125 -0.921875q0.8125 -0.9375 0.8125 -2.84375q0 -1.796875 -0.8125 -2.71875q-0.8125 -0.921875 -2.03125 -0.921875q-1.234375 0 -2.046875 0.921875q-0.796875 0.90625 -0.796875 2.765625zm15.610107 1.296875l1.609375 0.21875q-0.265625 1.65625 -1.359375 2.609375q-1.078125 0.9375 -2.671875 0.9375q-1.984375 0 -3.1875 -1.296875q-1.203125 -1.296875 -1.203125 -3.71875q0 -1.578125 0.515625 -2.75q0.515625 -1.171875 1.578125 -1.75q1.0625 -0.59375 2.3125 -0.59375q1.578125 0 2.578125 0.796875q1.0 0.796875 1.28125 2.265625l-1.59375 0.234375q-0.234375 -0.96875 -0.8125 -1.453125q-0.578125 -0.5 -1.390625 -0.5q-1.234375 0 -2.015625 0.890625q-0.78125 0.890625 -0.78125 2.8125q0 1.953125 0.75 2.84375q0.75 0.875 1.953125 0.875q0.96875 0 1.609375 -0.59375q0.65625 -0.59375 0.828125 -1.828125zm3.015625 3.546875l0 -13.359375l1.640625 0l0 7.625l3.890625 -3.9375l2.109375 0l-3.6875 3.59375l4.0625 6.078125l-2.015625 0l-3.203125 -4.953125l-1.15625 1.125l0 3.828125l-1.640625 0z" fill-rule="nonzero"/><path fill="#000000" fill-opacity="0.0" d="m304.5727 56.88399l83.811035 -33.669292" fill-rule="evenodd"/><path stroke="#000000" stroke-width="1.0" stroke-linejoin="round" stroke-linecap="butt" d="m304.57272 56.88399l78.24347 -31.432653" fill-rule="evenodd"/><path fill="#000000" stroke="#000000" stroke-width="1.0" stroke-linecap="butt" d="m383.43192 26.984018l3.5952759 -3.2243595l-4.826721 0.1590004z" fill-rule="evenodd"/><path fill="#000000" fill-opacity="0.0" d="m304.5727 96.88399l83.811035 -38.330704" fill-rule="evenodd"/><path stroke="#000000" stroke-width="1.0" stroke-linejoin="round" stroke-linecap="butt" d="m304.57272 96.883995l78.354614 -35.83523" fill-rule="evenodd"/><path fill="#000000" stroke="#000000" stroke-width="1.0" stroke-linecap="butt" d="m383.6143 62.550854l3.439972 -3.3895454l-4.8139343 0.38536072z" fill-rule="evenodd"/><path fill="#000000" fill-opacity="0.0" d="m304.5727 96.88399l83.811035 -2.9606247" fill-rule="evenodd"/><path stroke="#000000" stroke-width="1.0" stroke-linejoin="round" stroke-linecap="butt" d="m304.57272 96.883995l77.81476 -2.7488174" fill-rule="evenodd"/><path fill="#000000" stroke="#000000" stroke-width="1.0" stroke-linecap="butt" d="m382.4458 95.78588l4.4769287 -1.8109131l-4.593567 -1.4904938z" fill-rule="evenodd"/><path fill="#000000" fill-opacity="0.0" d="m304.5727 96.88399l83.811035 32.37796" fill-rule="evenodd"/><path stroke="#000000" stroke-width="1.0" stroke-linejoin="round" stroke-linecap="butt" d="m304.57272 96.883995l78.21414 30.21576" fill-rule="evenodd"/><path fill="#000000" stroke="#000000" stroke-width="1.0" stroke-linecap="butt" d="m382.19165 128.64052l4.8283997 0.09460449l-3.63797 -3.1761246z" fill-rule="evenodd"/><path fill="#000000" fill-opacity="0.0" d="m68.29186 181.02573l423.937 0l0 42.015747l-423.937 0z" fill-rule="evenodd"/><path fill="#000000" d="m78.29186 203.57072q0 -1.171875 0.3125 -2.078125q0.3125 -0.90625 0.90625 -1.53125q0.59375 -0.625 1.40625 -0.9375q0.828125 -0.328125 1.84375 -0.328125q0.4375 0 0.859375 0.0625q0.421875 0.046875 0.828125 0.15625l0 -3.84375l1.59375 0l0 12.875l-1.421875 0l-0.046875 -1.734375q-0.671875 0.96875 -1.453125 1.4375q-0.765625 0.453125 -1.671875 0.453125q-0.78125 0 -1.375 -0.3125q-0.59375 -0.328125 -1.0 -0.921875q-0.390625 -0.609375 -0.59375 -1.4375q-0.1875 -0.84375 -0.1875 -1.859375zm1.609375 -0.109375q0 1.65625 0.484375 2.484375q0.5 0.8125 1.390625 0.8125q0.59375 0 1.265625 -0.53125q0.671875 -0.546875 1.40625 -1.609375l0 -4.234375q-0.390625 -0.1875 -0.859375 -0.28125q-0.46875 -0.09375 -0.9375 -0.09375q-1.296875 0 -2.03125 0.84375q-0.71875 0.828125 -0.71875 2.609375zm16.351044 1.984375q0 0.484375 -0.171875 0.875q-0.15625 0.375 -0.4375 0.671875q-0.28125 0.296875 -0.65625 0.515625q-0.375 0.203125 -0.796875 0.34375q-0.421875 0.125 -0.875 0.1875q-0.453125 0.0625 -0.875 0.0625q-0.921875 0 -1.703125 -0.078125q-0.78125 -0.078125 -1.53125 -0.265625l0 -1.453125q0.796875 0.234375 1.59375 0.359375q0.796875 0.109375 1.578125 0.109375q1.140625 0 1.6875 -0.3125q0.546875 -0.3125 0.546875 -0.890625q0 -0.234375 -0.09375 -0.421875q-0.078125 -0.203125 -0.3125 -0.375q-0.21875 -0.1875 -0.703125 -0.375q-0.484375 -0.203125 -1.3125 -0.4375q-0.609375 -0.1875 -1.140625 -0.421875q-0.515625 -0.234375 -0.90625 -0.546875q-0.375 -0.328125 -0.59375 -0.75q-0.21875 -0.421875 -0.21875 -1.015625q0 -0.375 0.171875 -0.828125q0.171875 -0.453125 0.59375 -0.84375q0.4375 -0.40625 1.171875 -0.65625q0.734375 -0.265625 1.8125 -0.265625q0.546875 0 1.203125 0.0625q0.65625 0.0625 1.359375 0.203125l0 1.40625q-0.75 -0.171875 -1.421875 -0.25q-0.65625 -0.09375 -1.15625 -0.09375q-0.59375 0 -1.0 0.09375q-0.390625 0.078125 -0.65625 0.25q-0.25 0.15625 -0.359375 0.375q-0.109375 0.203125 -0.109375 0.453125q0 0.25 0.09375 0.453125q0.109375 0.1875 0.359375 0.375q0.265625 0.1875 0.71875 0.375q0.46875 0.1875 1.21875 0.40625q0.8125 0.234375 1.359375 0.5q0.5625 0.25 0.90625 0.578125q0.359375 0.3125 0.5 0.71875q0.15625 0.40625 0.15625 0.90625zm6.6166687 -0.375q0.296875 0 0.578125 0.125q0.28125 0.125 0.484375 0.328125q0.203125 0.203125 0.3125 0.484375q0.125 0.28125 0.125 0.59375q0 0.3125 -0.125 0.59375q-0.109375 0.265625 -0.3125 0.46875q-0.203125 0.203125 -0.484375 0.3125q-0.28125 0.125 -0.578125 0.125q-0.328125 0 -0.609375 -0.125q-0.265625 -0.109375 -0.46875 -0.3125q-0.203125 -0.203125 -0.328125 -0.46875q-0.109375 -0.28125 -0.109375 -0.59375q0 -0.3125 0.109375 -0.59375q0.125 -0.28125 0.328125 -0.484375q0.203125 -0.203125 0.46875 -0.328125q0.28125 -0.125 0.609375 -0.125zm13.179169 2.875l0 -6.5625q0 -0.4375 -0.03125 -0.703125q-0.03125 -0.28125 -0.109375 -0.4375q-0.0625 -0.15625 -0.171875 -0.21875q-0.109375 -0.0625 -0.25 -0.0625q-0.1875 0 -0.34375 0.109375q-0.15625 0.109375 -0.34375 0.359375q-0.171875 0.234375 -0.390625 0.640625q-0.203125 0.40625 -0.5 1.0l0 5.875l-1.4375 0l0 -6.390625q0 -0.5 -0.03125 -0.8125q-0.03125 -0.3125 -0.109375 -0.484375q-0.0625 -0.171875 -0.171875 -0.234375q-0.109375 -0.0625 -0.265625 -0.0625q-0.171875 0 -0.3125 0.09375q-0.140625 0.078125 -0.328125 0.328125q-0.171875 0.234375 -0.390625 0.640625q-0.21875 0.40625 -0.515625 1.046875l0 5.875l-1.46875 0l0 -9.140625l1.21875 0l0.078125 1.734375q0.234375 -0.515625 0.453125 -0.875q0.21875 -0.375 0.453125 -0.59375q0.25 -0.21875 0.515625 -0.328125q0.265625 -0.109375 0.59375 -0.109375q0.734375 0 1.109375 0.484375q0.390625 0.484375 0.390625 1.5q0.21875 -0.484375 0.421875 -0.84375q0.21875 -0.375 0.453125 -0.625q0.25 -0.25 0.53125 -0.375q0.296875 -0.140625 0.6875 -0.140625q1.71875 0 1.71875 2.65625l0 6.65625l-1.453125 0zm9.601044 0l-0.03125 -1.234375q-0.75 0.75 -1.515625 1.078125q-0.765625 0.3125 -1.625 0.3125q-0.78125 0 -1.34375 -0.1875q-0.546875 -0.203125 -0.90625 -0.546875q-0.359375 -0.359375 -0.53125 -0.828125q-0.15625 -0.484375 -0.15625 -1.03125q0 -1.375 1.015625 -2.15625q1.03125 -0.78125 3.03125 -0.78125l1.890625 0l0 -0.796875q0 -0.8125 -0.515625 -1.296875q-0.515625 -0.5 -1.578125 -0.5q-0.78125 0 -1.53125 0.1875q-0.75 0.171875 -1.546875 0.484375l0 -1.4375q0.296875 -0.109375 0.65625 -0.203125q0.375 -0.109375 0.78125 -0.1875q0.40625 -0.078125 0.859375 -0.125q0.453125 -0.0625 0.90625 -0.0625q0.828125 0 1.484375 0.1875q0.671875 0.171875 1.125 0.546875q0.46875 0.375 0.703125 0.953125q0.25 0.5625 0.25 1.328125l0 6.296875l-1.421875 0zm-0.171875 -4.15625l-2.015625 0q-0.578125 0 -1.015625 0.125q-0.421875 0.109375 -0.703125 0.328125q-0.265625 0.21875 -0.40625 0.53125q-0.125 0.296875 -0.125 0.671875q0 0.265625 0.078125 0.515625q0.078125 0.234375 0.265625 0.421875q0.1875 0.1875 0.46875 0.296875q0.296875 0.109375 0.71875 0.109375q0.546875 0 1.25 -0.328125q0.703125 -0.34375 1.484375 -1.0625l0 -1.609375zm12.382286 -0.578125q0 1.21875 -0.34375 2.140625q-0.34375 0.90625 -0.953125 1.515625q-0.59375 0.59375 -1.421875 0.890625q-0.8125 0.296875 -1.765625 0.296875q-0.4375 0 -0.875 -0.046875q-0.4375 -0.046875 -0.875 -0.15625l0 3.828125l-1.59375 0l0 -12.875l1.421875 0l0.09375 1.53125q0.6875 -0.9375 1.453125 -1.3125q0.78125 -0.390625 1.6875 -0.390625q0.78125 0 1.375 0.328125q0.59375 0.328125 0.984375 0.9375q0.40625 0.59375 0.609375 1.4375q0.203125 0.828125 0.203125 1.875zm-1.625 0.0625q0 -0.71875 -0.109375 -1.3125q-0.109375 -0.609375 -0.34375 -1.03125q-0.21875 -0.421875 -0.578125 -0.65625q-0.34375 -0.25 -0.84375 -0.25q-0.296875 0 -0.609375 0.09375q-0.3125 0.09375 -0.640625 0.328125q-0.328125 0.21875 -0.703125 0.59375q-0.359375 0.359375 -0.78125 0.90625l0 4.4375q0.4375 0.171875 0.921875 0.28125q0.484375 0.109375 0.9375 0.109375q1.28125 0 2.015625 -0.875q0.734375 -0.875 0.734375 -2.625zm12.851044 8.40625l-10.25 0l0 -1.3125l10.25 0l0 1.3125zm9.288544 -8.46875q0 1.140625 -0.328125 2.046875q-0.3125 0.890625 -0.890625 1.515625q-0.578125 0.609375 -1.40625 0.953125q-0.828125 0.328125 -1.859375 0.328125q-0.8125 0 -1.671875 -0.15625q-0.84375 -0.15625 -1.671875 -0.484375l0 -12.34375l1.59375 0l0 3.546875l-0.078125 1.6875q0.6875 -0.90625 1.453125 -1.28125q0.78125 -0.390625 1.6875 -0.390625q0.78125 0 1.375 0.328125q0.59375 0.328125 0.984375 0.9375q0.40625 0.59375 0.609375 1.4375q0.203125 0.828125 0.203125 1.875zm-1.625 0.0625q0 -0.71875 -0.109375 -1.3125q-0.109375 -0.609375 -0.34375 -1.03125q-0.21875 -0.421875 -0.578125 -0.65625q-0.34375 -0.25 -0.84375 -0.25q-0.296875 0 -0.609375 0.09375q-0.3125 0.09375 -0.640625 0.328125q-0.328125 0.21875 -0.703125 0.59375q-0.359375 0.359375 -0.78125 0.90625l0 4.4375q0.453125 0.171875 0.9375 0.28125q0.484375 0.109375 0.921875 0.109375q0.546875 0 1.046875 -0.171875q0.5 -0.171875 0.875 -0.578125q0.375 -0.40625 0.59375 -1.078125q0.234375 -0.671875 0.234375 -1.671875zm9.929169 4.671875l-0.03125 -1.234375q-0.75 0.75 -1.515625 1.078125q-0.765625 0.3125 -1.625 0.3125q-0.78125 0 -1.34375 -0.1875q-0.546875 -0.203125 -0.90625 -0.546875q-0.359375 -0.359375 -0.53125 -0.828125q-0.15625 -0.484375 -0.15625 -1.03125q0 -1.375 1.015625 -2.15625q1.03125 -0.78125 3.03125 -0.78125l1.890625 0l0 -0.796875q0 -0.8125 -0.515625 -1.296875q-0.515625 -0.5 -1.578125 -0.5q-0.78125 0 -1.53125 0.1875q-0.75 0.171875 -1.546875 0.484375l0 -1.4375q0.296875 -0.109375 0.65625 -0.203125q0.375 -0.109375 0.78125 -0.1875q0.40625 -0.078125 0.859375 -0.125q0.453125 -0.0625 0.90625 -0.0625q0.828125 0 1.484375 0.1875q0.671875 0.171875 1.125 0.546875q0.46875 0.375 0.703125 0.953125q0.25 0.5625 0.25 1.328125l0 6.296875l-1.421875 0zm-0.171875 -4.15625l-2.015625 0q-0.578125 0 -1.015625 0.125q-0.421875 0.109375 -0.703125 0.328125q-0.265625 0.21875 -0.40625 0.53125q-0.125 0.296875 -0.125 0.671875q0 0.265625 0.078125 0.515625q0.078125 0.234375 0.265625 0.421875q0.1875 0.1875 0.46875 0.296875q0.296875 0.109375 0.71875 0.109375q0.546875 0 1.25 -0.328125q0.703125 -0.34375 1.484375 -1.0625l0 -1.609375zm11.929169 4.03125q-0.53125 0.140625 -1.109375 0.1875q-0.578125 0.0625 -1.171875 0.0625q-1.71875 0 -2.5625 -0.78125q-0.84375 -0.78125 -0.84375 -2.390625l0 -4.765625l-2.5625 0l0 -1.328125l2.5625 0l0 -2.515625l1.578125 -0.40625l0 2.921875l4.109375 0l0 1.328125l-4.109375 0l0 4.640625q0 0.984375 0.515625 1.46875q0.53125 0.484375 1.546875 0.484375q0.4375 0 0.953125 -0.0625q0.53125 -0.0625 1.09375 -0.21875l0 1.375zm9.991669 -0.21875q-0.625 0.25 -1.28125 0.359375q-0.640625 0.109375 -1.328125 0.109375q-2.171875 0 -3.34375 -1.171875q-1.171875 -1.171875 -1.171875 -3.4375q0 -1.078125 0.328125 -1.953125q0.34375 -0.890625 0.953125 -1.515625q0.609375 -0.640625 1.453125 -0.984375q0.859375 -0.34375 1.875 -0.34375q0.71875 0 1.328125 0.109375q0.625 0.09375 1.1875 0.328125l0 1.515625q-0.59375 -0.3125 -1.21875 -0.453125q-0.609375 -0.140625 -1.265625 -0.140625q-0.609375 0 -1.15625 0.234375q-0.53125 0.234375 -0.9375 0.671875q-0.40625 0.421875 -0.65625 1.0625q-0.234375 0.625 -0.234375 1.421875q0 1.65625 0.796875 2.484375q0.8125 0.8125 2.25 0.8125q0.640625 0 1.25 -0.140625q0.609375 -0.140625 1.171875 -0.4375l0 1.46875zm10.507294 0.34375l-1.59375 0l0 -5.84375q0 -1.046875 -0.390625 -1.5625q-0.390625 -0.53125 -1.140625 -0.53125q-0.3125 0 -0.59375 0.09375q-0.28125 0.078125 -0.578125 0.296875q-0.296875 0.203125 -0.65625 0.578125q-0.359375 0.359375 -0.8125 0.90625l0 6.0625l-1.59375 0l0 -12.875l1.59375 0l0 3.734375l-0.0625 1.4375q0.375 -0.453125 0.734375 -0.75q0.359375 -0.3125 0.71875 -0.5q0.359375 -0.1875 0.734375 -0.265625q0.375 -0.09375 0.78125 -0.09375q1.359375 0 2.109375 0.84375q0.75 0.828125 0.75 2.5l0 5.96875zm10.632294 -5.0625q0 0.34375 -0.015625 0.578125q0 0.21875 -0.03125 0.421875l-6.421875 0q0 1.40625 0.78125 2.15625q0.796875 0.75 2.265625 0.75q0.40625 0 0.796875 -0.03125q0.40625 -0.03125 0.78125 -0.078125q0.375 -0.0625 0.71875 -0.125q0.34375 -0.078125 0.625 -0.15625l0 1.296875q-0.640625 0.1875 -1.46875 0.296875q-0.8125 0.109375 -1.6875 0.109375q-1.171875 0 -2.015625 -0.3125q-0.84375 -0.3125 -1.390625 -0.921875q-0.546875 -0.609375 -0.8125 -1.484375q-0.25 -0.875 -0.25 -2.0q0 -0.953125 0.28125 -1.8125q0.28125 -0.859375 0.8125 -1.515625q0.53125 -0.65625 1.296875 -1.03125q0.78125 -0.390625 1.765625 -0.390625q0.953125 0 1.6875 0.3125q0.75 0.296875 1.25 0.84375q0.5 0.546875 0.765625 1.34375q0.265625 0.78125 0.265625 1.75zm-1.65625 -0.21875q0.03125 -0.609375 -0.125 -1.109375q-0.140625 -0.515625 -0.453125 -0.875q-0.296875 -0.375 -0.75 -0.578125q-0.453125 -0.203125 -1.0625 -0.203125q-0.515625 0 -0.953125 0.203125q-0.421875 0.203125 -0.734375 0.5625q-0.296875 0.359375 -0.5 0.875q-0.1875 0.515625 -0.234375 1.125l4.8125 0zm11.429169 2.78125q0 0.484375 -0.171875 0.875q-0.15625 0.375 -0.4375 0.671875q-0.28125 0.296875 -0.65625 0.515625q-0.375 0.203125 -0.796875 0.34375q-0.421875 0.125 -0.875 0.1875q-0.453125 0.0625 -0.875 0.0625q-0.921875 0 -1.703125 -0.078125q-0.78125 -0.078125 -1.53125 -0.265625l0 -1.453125q0.796875 0.234375 1.59375 0.359375q0.796875 0.109375 1.578125 0.109375q1.140625 0 1.6875 -0.3125q0.546875 -0.3125 0.546875 -0.890625q0 -0.234375 -0.09375 -0.421875q-0.078125 -0.203125 -0.3125 -0.375q-0.21875 -0.1875 -0.703125 -0.375q-0.484375 -0.203125 -1.3125 -0.4375q-0.609375 -0.1875 -1.140625 -0.421875q-0.515625 -0.234375 -0.90625 -0.546875q-0.375 -0.328125 -0.59375 -0.75q-0.21875 -0.421875 -0.21875 -1.015625q0 -0.375 0.171875 -0.828125q0.171875 -0.453125 0.59375 -0.84375q0.4375 -0.40625 1.171875 -0.65625q0.734375 -0.265625 1.8125 -0.265625q0.546875 0 1.203125 0.0625q0.65625 0.0625 1.359375 0.203125l0 1.40625q-0.75 -0.171875 -1.421875 -0.25q-0.65625 -0.09375 -1.15625 -0.09375q-0.59375 0 -1.0 0.09375q-0.390625 0.078125 -0.65625 0.25q-0.25 0.15625 -0.359375 0.375q-0.109375 0.203125 -0.109375 0.453125q0 0.25 0.09375 0.453125q0.109375 0.1875 0.359375 0.375q0.265625 0.1875 0.71875 0.375q0.46875 0.1875 1.21875 0.40625q0.8125 0.234375 1.359375 0.5q0.5625 0.25 0.90625 0.578125q0.359375 0.3125 0.5 0.71875q0.15625 0.40625 0.15625 0.90625zm8.491669 6.328125q-4.203125 -3.890625 -4.203125 -8.59375q0 -1.109375 0.21875 -2.203125q0.21875 -1.109375 0.71875 -2.203125q0.5 -1.109375 1.3125 -2.203125q0.8125 -1.109375 1.984375 -2.1875l0.921875 0.9375q-3.53125 3.484375 -3.53125 7.734375q0 2.109375 0.890625 4.0625q0.890625 1.953125 2.640625 3.671875l-0.953125 0.984375zm12.897919 -15.21875q-1.25 -0.265625 -2.15625 -0.265625q-2.140625 0 -2.140625 2.234375l0 1.609375l4.015625 0l0 1.3125l-4.015625 0l0 6.5l-1.609375 0l0 -6.5l-2.9375 0l0 -1.3125l2.9375 0l0 -1.515625q0 -3.65625 3.8125 -3.65625q0.9375 0 2.09375 0.21875l0 1.375zm-9.578125 2.25l0 0zm11.710419 0l1.421875 0l0.0625 1.46875q0.390625 -0.46875 0.765625 -0.78125q0.375 -0.3125 0.734375 -0.5q0.359375 -0.203125 0.734375 -0.28125q0.375 -0.078125 0.78125 -0.078125q1.40625 0 2.125 0.84375q0.734375 0.828125 0.734375 2.5l0 5.96875l-1.59375 0l0 -5.84375q0 -1.078125 -0.40625 -1.578125q-0.390625 -0.515625 -1.1875 -0.515625q-0.28125 0 -0.5625 0.09375q-0.28125 0.078125 -0.578125 0.296875q-0.296875 0.203125 -0.65625 0.578125q-0.34375 0.359375 -0.78125 0.90625l0 6.0625l-1.59375 0l0 -9.140625zm10.976044 11.015625q0.453125 0.015625 0.890625 -0.09375q0.4375 -0.09375 0.765625 -0.296875q0.34375 -0.1875 0.54689026 -0.484375q0.203125 -0.296875 0.203125 -0.65625q0 -0.390625 -0.140625 -0.625q-0.12501526 -0.234375 -0.29689026 -0.4375q-0.15625 -0.203125 -0.296875 -0.421875q-0.125 -0.234375 -0.125 -0.625q0 -0.1875 0.0625 -0.390625q0.078125 -0.21875 0.21875 -0.390625q0.15625 -0.171875 0.39064026 -0.28125q0.234375 -0.109375 0.5625 -0.109375q0.3125 0 0.609375 0.140625q0.296875 0.125 0.515625 0.40625q0.21875 0.265625 0.34375 0.6875q0.140625 0.40625 0.140625 0.953125q0 0.765625 -0.28125 1.453125q-0.265625 0.703125 -0.828125 1.234375q-0.546875 0.546875 -1.3750153 0.859375q-0.8125 0.3125 -1.90625 0.3125l0 -1.234375zm27.623978 -6.609375q0 1.140625 -0.328125 2.046875q-0.3125 0.890625 -0.890625 1.515625q-0.578125 0.609375 -1.40625 0.953125q-0.828125 0.328125 -1.859375 0.328125q-0.8125 0 -1.671875 -0.15625q-0.84375 -0.15625 -1.671875 -0.484375l0 -12.34375l1.59375 0l0 3.546875l-0.078125 1.6875q0.6875 -0.90625 1.453125 -1.28125q0.78125 -0.390625 1.6875 -0.390625q0.78125 0 1.375 0.328125q0.59375 0.328125 0.984375 0.9375q0.40625 0.59375 0.609375 1.4375q0.203125 0.828125 0.203125 1.875zm-1.625 0.0625q0 -0.71875 -0.109375 -1.3125q-0.109375 -0.609375 -0.34375 -1.03125q-0.21875 -0.421875 -0.578125 -0.65625q-0.34375 -0.25 -0.84375 -0.25q-0.296875 0 -0.609375 0.09375q-0.3125 0.09375 -0.640625 0.328125q-0.328125 0.21875 -0.703125 0.59375q-0.359375 0.359375 -0.78125 0.90625l0 4.4375q0.453125 0.171875 0.9375 0.28125q0.484375 0.109375 0.921875 0.109375q0.546875 0 1.046875 -0.171875q0.5 -0.171875 0.875 -0.578125q0.375 -0.40625 0.59375 -1.078125q0.234375 -0.671875 0.234375 -1.671875zm9.929169 4.671875l-0.03125 -1.234375q-0.75 0.75 -1.515625 1.078125q-0.765625 0.3125 -1.625 0.3125q-0.78125 0 -1.34375 -0.1875q-0.546875 -0.203125 -0.90625 -0.546875q-0.359375 -0.359375 -0.53125 -0.828125q-0.15625 -0.484375 -0.15625 -1.03125q0 -1.375 1.015625 -2.15625q1.03125 -0.78125 3.03125 -0.78125l1.890625 0l0 -0.796875q0 -0.8125 -0.515625 -1.296875q-0.515625 -0.5 -1.578125 -0.5q-0.78125 0 -1.53125 0.1875q-0.75 0.171875 -1.546875 0.484375l0 -1.4375q0.296875 -0.109375 0.65625 -0.203125q0.375 -0.109375 0.78125 -0.1875q0.40625 -0.078125 0.859375 -0.125q0.453125 -0.0625 0.90625 -0.0625q0.828125 0 1.484375 0.1875q0.671875 0.171875 1.125 0.546875q0.46875 0.375 0.703125 0.953125q0.25 0.5625 0.25 1.328125l0 6.296875l-1.421875 0zm-0.171875 -4.15625l-2.015625 0q-0.578125 0 -1.015625 0.125q-0.421875 0.109375 -0.703125 0.328125q-0.265625 0.21875 -0.40625 0.53125q-0.125 0.296875 -0.125 0.671875q0 0.265625 0.078125 0.515625q0.078125 0.234375 0.265625 0.421875q0.1875 0.1875 0.46875 0.296875q0.296875 0.109375 0.71875 0.109375q0.546875 0 1.25 -0.328125q0.703125 -0.34375 1.484375 -1.0625l0 -1.609375zm11.929169 4.03125q-0.53125 0.140625 -1.109375 0.1875q-0.578125 0.0625 -1.171875 0.0625q-1.71875 0 -2.5625 -0.78125q-0.84375 -0.78125 -0.84375 -2.390625l0 -4.765625l-2.5625 0l0 -1.328125l2.5625 0l0 -2.515625l1.578125 -0.40625l0 2.921875l4.109375 0l0 1.328125l-4.109375 0l0 4.640625q0 0.984375 0.515625 1.46875q0.53125 0.484375 1.546875 0.484375q0.4375 0 0.953125 -0.0625q0.53125 -0.0625 1.09375 -0.21875l0 1.375zm9.991669 -0.21875q-0.625 0.25 -1.28125 0.359375q-0.640625 0.109375 -1.328125 0.109375q-2.171875 0 -3.34375 -1.171875q-1.171875 -1.171875 -1.171875 -3.4375q0 -1.078125 0.328125 -1.953125q0.34375 -0.890625 0.953125 -1.515625q0.609375 -0.640625 1.453125 -0.984375q0.859375 -0.34375 1.875 -0.34375q0.71875 0 1.328125 0.109375q0.625 0.09375 1.1875 0.328125l0 1.515625q-0.59375 -0.3125 -1.21875 -0.453125q-0.609375 -0.140625 -1.265625 -0.140625q-0.609375 0 -1.15625 0.234375q-0.53125 0.234375 -0.9375 0.671875q-0.40625 0.421875 -0.65625 1.0625q-0.234375 0.625 -0.234375 1.421875q0 1.65625 0.796875 2.484375q0.8125 0.8125 2.25 0.8125q0.640625 0 1.25 -0.140625q0.609375 -0.140625 1.171875 -0.4375l0 1.46875zm10.507294 0.34375l-1.59375 0l0 -5.84375q0 -1.046875 -0.390625 -1.5625q-0.390625 -0.53125 -1.140625 -0.53125q-0.3125 0 -0.59375 0.09375q-0.28125 0.078125 -0.578125 0.296875q-0.296875 0.203125 -0.65625 0.578125q-0.359375 0.359375 -0.8125 0.90625l0 6.0625l-1.59375 0l0 -12.875l1.59375 0l0 3.734375l-0.0625 1.4375q0.375 -0.453125 0.734375 -0.75q0.359375 -0.3125 0.71875 -0.5q0.359375 -0.1875 0.734375 -0.265625q0.375 -0.09375 0.78125 -0.09375q1.359375 0 2.109375 0.84375q0.75 0.828125 0.75 2.5l0 5.96875zm11.694794 3.734375l-10.25 0l0 -1.3125l10.25 0l0 1.3125zm8.710419 -6.234375q0 0.484375 -0.171875 0.875q-0.15625 0.375 -0.4375 0.671875q-0.28125 0.296875 -0.65625 0.515625q-0.375 0.203125 -0.796875 0.34375q-0.421875 0.125 -0.875 0.1875q-0.453125 0.0625 -0.875 0.0625q-0.921875 0 -1.703125 -0.078125q-0.78125 -0.078125 -1.53125 -0.265625l0 -1.453125q0.796875 0.234375 1.59375 0.359375q0.796875 0.109375 1.578125 0.109375q1.140625 0 1.6875 -0.3125q0.546875 -0.3125 0.546875 -0.890625q0 -0.234375 -0.09375 -0.421875q-0.078125 -0.203125 -0.3125 -0.375q-0.21875 -0.1875 -0.703125 -0.375q-0.484375 -0.203125 -1.3125 -0.4375q-0.609375 -0.1875 -1.140625 -0.421875q-0.515625 -0.234375 -0.90625 -0.546875q-0.375 -0.328125 -0.59375 -0.75q-0.21875 -0.421875 -0.21875 -1.015625q0 -0.375 0.171875 -0.828125q0.171875 -0.453125 0.59375 -0.84375q0.4375 -0.40625 1.171875 -0.65625q0.734375 -0.265625 1.8125 -0.265625q0.546875 0 1.203125 0.0625q0.65625 0.0625 1.359375 0.203125l0 1.40625q-0.75 -0.171875 -1.421875 -0.25q-0.65625 -0.09375 -1.15625 -0.09375q-0.59375 0 -1.0 0.09375q-0.390625 0.078125 -0.65625 0.25q-0.25 0.15625 -0.359375 0.375q-0.109375 0.203125 -0.109375 0.453125q0 0.25 0.09375 0.453125q0.109375 0.1875 0.359375 0.375q0.265625 0.1875 0.71875 0.375q0.46875 0.1875 1.21875 0.40625q0.8125 0.234375 1.359375 0.5q0.5625 0.25 0.90625 0.578125q0.359375 0.3125 0.5 0.71875q0.15625 0.40625 0.15625 0.90625zm6.1322937 -5.328125l-2.703125 0l0 -1.3125l4.296875 0l0 7.8125l2.734375 0l0 1.328125l-7.34375 0l0 -1.328125l3.015625 0l0 -6.5zm0.546875 -5.15625q0.265625 0 0.484375 0.09375q0.234375 0.09375 0.40625 0.28125q0.171875 0.171875 0.265625 0.390625q0.09375 0.21875 0.09375 0.484375q0 0.25 -0.09375 0.484375q-0.09375 0.234375 -0.265625 0.40625q-0.171875 0.171875 -0.40625 0.265625q-0.21875 0.09375 -0.484375 0.09375q-0.265625 0 -0.5 -0.09375q-0.21875 -0.09375 -0.390625 -0.265625q-0.15625 -0.171875 -0.265625 -0.40625q-0.09375 -0.234375 -0.09375 -0.484375q0 -0.265625 0.09375 -0.484375q0.109375 -0.21875 0.265625 -0.390625q0.171875 -0.1875 0.390625 -0.28125q0.234375 -0.09375 0.5 -0.09375zm13.991669 12.984375l-7.359375 0l0 -1.140625l5.15625 -6.671875l-5.03125 0l0 -1.328125l6.9375 0l0 1.234375l-5.078125 6.5625l5.375 0l0 1.34375zm10.585419 -5.0625q0 0.34375 -0.015625 0.578125q0 0.21875 -0.03125 0.421875l-6.421875 0q0 1.40625 0.78125 2.15625q0.796875 0.75 2.265625 0.75q0.40625 0 0.796875 -0.03125q0.40625 -0.03125 0.78125 -0.078125q0.375 -0.0625 0.71875 -0.125q0.34375 -0.078125 0.625 -0.15625l0 1.296875q-0.640625 0.1875 -1.46875 0.296875q-0.8125 0.109375 -1.6875 0.109375q-1.171875 0 -2.015625 -0.3125q-0.84375 -0.3125 -1.390625 -0.921875q-0.546875 -0.609375 -0.8125 -1.484375q-0.25 -0.875 -0.25 -2.0q0 -0.953125 0.28125 -1.8125q0.28125 -0.859375 0.8125 -1.515625q0.53125 -0.65625 1.296875 -1.03125q0.78125 -0.390625 1.765625 -0.390625q0.953125 0 1.6875 0.3125q0.75 0.296875 1.25 0.84375q0.5 0.546875 0.765625 1.34375q0.265625 0.78125 0.265625 1.75zm-1.65625 -0.21875q0.03125 -0.609375 -0.125 -1.109375q-0.140625 -0.515625 -0.453125 -0.875q-0.296875 -0.375 -0.75 -0.578125q-0.453125 -0.203125 -1.0625 -0.203125q-0.515625 0 -0.953125 0.203125q-0.421875 0.203125 -0.734375 0.5625q-0.296875 0.359375 -0.5 0.875q-0.1875 0.515625 -0.234375 1.125l4.8125 0zm11.772919 -0.609375l-7.828125 0l0 -1.328125l7.828125 0l0 1.328125zm0 3.171875l-7.828125 0l0 -1.328125l7.828125 0l0 1.328125zm10.991669 0.09375l-2.03125 0l0 2.625l-1.625 0l0 -2.625l-5.734375 0l0 -1.40625l5.078125 -7.875l2.28125 0l0 7.875l2.03125 0l0 1.40625zm-3.65625 -7.75l-4.140625 6.34375l4.140625 0l0 -6.34375zm13.585419 4.421875q0 1.375 -0.28125 2.5q-0.265625 1.125 -0.828125 1.9375q-0.546875 0.796875 -1.375 1.234375q-0.8125 0.4375 -1.9375 0.4375q-0.953125 0 -1.734375 -0.359375q-0.78125 -0.359375 -1.34375 -1.09375q-0.546875 -0.75 -0.859375 -1.90625q-0.296875 -1.15625 -0.296875 -2.75q0 -1.359375 0.28125 -2.484375q0.28125 -1.140625 0.828125 -1.9375q0.546875 -0.8125 1.375 -1.25q0.84375 -0.4375 1.9375 -0.4375q0.953125 0 1.734375 0.359375q0.796875 0.359375 1.34375 1.109375q0.5625 0.75 0.859375 1.90625q0.296875 1.15625 0.296875 2.734375zm-1.59375 0.0625q0 -0.3125 -0.03125 -0.609375q-0.015625 -0.3125 -0.046875 -0.609375l-5.046875 3.75q0.140625 0.46875 0.34375 0.875q0.21875 0.390625 0.515625 0.6875q0.296875 0.28125 0.671875 0.453125q0.375 0.15625 0.859375 0.15625q0.625 0 1.125 -0.296875q0.515625 -0.3125 0.859375 -0.90625q0.359375 -0.59375 0.546875 -1.46875q0.203125 -0.875 0.203125 -2.03125zm-5.453125 -0.109375q0 0.28125 0 0.5625q0 0.28125 0.03125 0.546875l5.046875 -3.734375q-0.140625 -0.453125 -0.359375 -0.828125q-0.203125 -0.390625 -0.5 -0.671875q-0.28125 -0.28125 -0.65625 -0.4375q-0.375 -0.15625 -0.84375 -0.15625q-0.609375 0 -1.125 0.3125q-0.5 0.296875 -0.859375 0.890625q-0.359375 0.59375 -0.546875 1.484375q-0.1875 0.875 -0.1875 2.03125zm16.976044 -0.625q0 1.75 -0.421875 3.0q-0.421875 1.25 -1.25 2.0625q-0.8125 0.796875 -2.03125 1.1875q-1.203125 0.375 -2.796875 0.375l-0.984375 0l0 -1.390625l1.09375 0q1.1875 0 2.03125 -0.234375q0.859375 -0.234375 1.421875 -0.6875q0.578125 -0.46875 0.875 -1.125q0.3125 -0.65625 0.375 -1.515625l0.046875 -0.359375q-0.578125 0.328125 -1.328125 0.53125q-0.75 0.203125 -1.625 0.203125q-0.890625 0 -1.578125 -0.25q-0.6875 -0.265625 -1.140625 -0.734375q-0.453125 -0.484375 -0.6875 -1.125q-0.21875 -0.65625 -0.21875 -1.421875q0 -0.84375 0.296875 -1.5625q0.3125 -0.71875 0.84375 -1.25q0.546875 -0.53125 1.296875 -0.828125q0.765625 -0.3125 1.671875 -0.3125q0.890625 0 1.640625 0.296875q0.75 0.28125 1.296875 0.9375q0.546875 0.640625 0.859375 1.6875q0.3125 1.03125 0.3125 2.515625zm-4.171875 -4.140625q-0.515625 0 -0.953125 0.171875q-0.421875 0.15625 -0.75 0.484375q-0.3125 0.328125 -0.5 0.796875q-0.171875 0.46875 -0.171875 1.09375q0 0.546875 0.125 0.984375q0.140625 0.4375 0.40625 0.75q0.28125 0.296875 0.71875 0.46875q0.4375 0.15625 1.046875 0.15625q0.328125 0 0.6875 -0.0625q0.375 -0.0625 0.703125 -0.171875q0.34375 -0.109375 0.65625 -0.25q0.3125 -0.15625 0.5625 -0.3125q0 -1.171875 -0.1875 -1.953125q-0.171875 -0.796875 -0.5 -1.265625q-0.3125 -0.484375 -0.796875 -0.6875q-0.46875 -0.203125 -1.046875 -0.203125zm14.632294 7.0q0 0.8125 -0.296875 1.53125q-0.296875 0.71875 -0.84375 1.25q-0.546875 0.53125 -1.3125 0.84375q-0.765625 0.296875 -1.703125 0.296875q-0.984375 0 -1.75 -0.3125q-0.75 -0.3125 -1.265625 -0.953125q-0.5 -0.65625 -0.765625 -1.640625q-0.265625 -1.0 -0.265625 -2.359375q0 -0.90625 0.109375 -1.765625q0.125 -0.859375 0.390625 -1.609375q0.28125 -0.765625 0.734375 -1.390625q0.453125 -0.625 1.125 -1.078125q0.6875 -0.453125 1.609375 -0.703125q0.921875 -0.25 2.125 -0.25l1.1875 0l0 1.390625l-1.28125 0q-1.0625 0 -1.859375 0.25q-0.78125 0.25 -1.3125 0.71875q-0.515625 0.46875 -0.796875 1.125q-0.28125 0.65625 -0.359375 1.46875l-0.03125 0.359375q0.5625 -0.328125 1.3125 -0.53125q0.765625 -0.203125 1.640625 -0.203125q0.890625 0 1.5625 0.265625q0.6875 0.25 1.140625 0.734375q0.453125 0.46875 0.671875 1.125q0.234375 0.640625 0.234375 1.4375zm-1.65625 0.09375q0 -0.546875 -0.140625 -0.984375q-0.125 -0.4375 -0.40625 -0.75q-0.28125 -0.3125 -0.71875 -0.46875q-0.4375 -0.171875 -1.03125 -0.171875q-0.34375 0 -0.703125 0.0625q-0.359375 0.0625 -0.703125 0.1875q-0.328125 0.109375 -0.640625 0.25q-0.3125 0.140625 -0.5625 0.3125q0 1.171875 0.15625 1.96875q0.171875 0.78125 0.484375 1.25q0.328125 0.46875 0.796875 0.671875q0.484375 0.203125 1.09375 0.203125q0.53125 0 0.953125 -0.15625q0.4375 -0.171875 0.75 -0.5q0.3125 -0.328125 0.484375 -0.796875q0.1875 -0.46875 0.1875 -1.078125zm5.9135437 -9.890625q4.203125 3.890625 4.203125 8.65625q0 0.984375 -0.203125 2.046875q-0.203125 1.046875 -0.6875 2.15625q-0.484375 1.109375 -1.296875 2.234375q-0.8125 1.140625 -2.0625 2.296875l-0.90625 -0.9375q1.765625 -1.765625 2.640625 -3.671875q0.875 -1.921875 0.875 -4.015625q0 -4.328125 -3.515625 -7.796875l0.953125 -0.96875z" fill-rule="nonzero"/><path fill="#3d85c6" d="m33.360104 42.64868l81.98425 0l0 28.629921l-81.98425 0z" fill-rule="evenodd"/><path fill="#ffffff" d="m43.71948 63.88364l0 -13.359375l5.015625 0q1.53125 0 2.453125 0.40625q0.921875 0.40625 1.4375 1.25q0.53125 0.84375 0.53125 1.765625q0 0.859375 -0.46875 1.625q-0.453125 0.75 -1.390625 1.203125q1.203125 0.359375 1.859375 1.21875q0.65625 0.859375 0.65625 2.015625q0 0.9375 -0.40625 1.75q-0.390625 0.796875 -0.984375 1.234375q-0.578125 0.4375 -1.453125 0.671875q-0.875 0.21875 -2.15625 0.21875l-5.09375 0zm1.78125 -7.75l2.875 0q1.1875 0 1.6875 -0.140625q0.671875 -0.203125 1.015625 -0.671875q0.34375 -0.46875 0.34375 -1.171875q0 -0.65625 -0.328125 -1.15625q-0.3125 -0.515625 -0.90625 -0.703125q-0.59375 -0.1875 -2.03125 -0.1875l-2.65625 0l0 4.03125zm0 6.171875l3.3125 0q0.859375 0 1.203125 -0.0625q0.609375 -0.109375 1.015625 -0.359375q0.421875 -0.265625 0.6875 -0.75q0.265625 -0.484375 0.265625 -1.125q0 -0.75 -0.390625 -1.296875q-0.375 -0.546875 -1.0625 -0.765625q-0.671875 -0.234375 -1.953125 -0.234375l-3.078125 0l0 4.59375zm10.490448 1.578125l0 -13.359375l1.640625 0l0 13.359375l-1.640625 0zm3.5823212 -4.84375q0 -2.6875 1.484375 -3.96875q1.25 -1.078125 3.0468712 -1.078125q2.0 0 3.265625 1.3125q1.265625 1.296875 1.265625 3.609375q0 1.859375 -0.5625 2.9375q-0.5625 1.0625 -1.640625 1.65625q-1.0625 0.5937462 -2.328125 0.5937462q-2.0312462 0 -3.2812462 -1.2968712q-1.25 -1.3125 -1.25 -3.765625zm1.6875 0q0 1.859375 0.796875 2.796875q0.8125 0.921875 2.0468712 0.921875q1.21875 0 2.03125 -0.921875q0.8125 -0.9375 0.8125 -2.84375q0 -1.796875 -0.8125 -2.71875q-0.8125 -0.921875 -2.03125 -0.921875q-1.2343712 0 -2.0468712 0.921875q-0.796875 0.90625 -0.796875 2.765625zm15.610088 1.296875l1.609375 0.21875q-0.265625 1.65625 -1.359375 2.609375q-1.078125 0.9374962 -2.671875 0.9374962q-1.984375 0 -3.1875 -1.2968712q-1.203125 -1.296875 -1.203125 -3.71875q0 -1.578125 0.515625 -2.75q0.515625 -1.171875 1.578125 -1.75q1.0625 -0.59375 2.3125 -0.59375q1.578125 0 2.578125 0.796875q1.0 0.796875 1.28125 2.265625l-1.59375 0.234375q-0.234375 -0.96875 -0.8125 -1.453125q-0.578125 -0.5 -1.390625 -0.5q-1.234375 0 -2.015625 0.890625q-0.78125 0.890625 -0.78125 2.8125q0 1.953125 0.75 2.84375q0.75 0.875 1.953125 0.875q0.96875 0 1.609375 -0.59375q0.65625 -0.59375 0.828125 -1.828125zm3.015625 3.546875l0 -13.359375l1.640625 0l0 7.625l3.890625 -3.9375l2.109375 0l-3.6875 3.59375l4.0625 6.078125l-2.015625 0l-3.203125 -4.953125l-1.15625 1.125l0 3.828125l-1.640625 0z" fill-rule="nonzero"/><path fill="#3d85c6" d="m33.360104 82.609314l66.17323 0l0 28.629921l-66.17323 0z" fill-rule="evenodd"/><path fill="#ffffff" d="m43.71948 103.84427l0 -13.359375l5.015625 0q1.53125 0 2.453125 0.40625q0.921875 0.40625 1.4375 1.25q0.53125 0.84375 0.53125 1.765625q0 0.859375 -0.46875 1.625q-0.453125 0.75 -1.390625 1.203125q1.203125 0.359375 1.859375 1.21875q0.65625 0.859375 0.65625 2.015625q0 0.9375 -0.40625 1.75q-0.390625 0.796875 -0.984375 1.234375q-0.578125 0.4375 -1.453125 0.671875q-0.875 0.21875 -2.15625 0.21875l-5.09375 0zm1.78125 -7.75l2.875 0q1.1875 0 1.6875 -0.140625q0.671875 -0.203125 1.015625 -0.671875q0.34375 -0.46875 0.34375 -1.171875q0 -0.65625 -0.328125 -1.15625q-0.3125 -0.515625 -0.90625 -0.703125q-0.59375 -0.1875 -2.03125 -0.1875l-2.65625 0l0 4.03125zm0 6.171875l3.3125 0q0.859375 0 1.203125 -0.0625q0.609375 -0.109375 1.015625 -0.359375q0.421875 -0.265625 0.6875 -0.75q0.265625 -0.484375 0.265625 -1.125q0 -0.75 -0.390625 -1.296875q-0.375 -0.546875 -1.0625 -0.765625q-0.671875 -0.234375 -1.953125 -0.234375l-3.078125 0l0 4.59375zm10.490448 1.578125l0 -13.359375l1.640625 0l0 13.359375l-1.640625 0zm3.5823212 -4.84375q0 -2.6875 1.484375 -3.96875q1.25 -1.078125 3.0468712 -1.078125q2.0 0 3.265625 1.3125q1.265625 1.296875 1.265625 3.609375q0 1.859375 -0.5625 2.9375q-0.5625 1.0625 -1.640625 1.65625q-1.0625 0.59375 -2.328125 0.59375q-2.0312462 0 -3.2812462 -1.296875q-1.25 -1.3125 -1.25 -3.765625zm1.6875 0q0 1.859375 0.796875 2.796875q0.8125 0.921875 2.0468712 0.921875q1.21875 0 2.03125 -0.921875q0.8125 -0.9375 0.8125 -2.84375q0 -1.796875 -0.8125 -2.71875q-0.8125 -0.921875 -2.03125 -0.921875q-1.2343712 0 -2.0468712 0.921875q-0.796875 0.90625 -0.796875 2.765625zm15.610088 1.296875l1.609375 0.21875q-0.265625 1.65625 -1.359375 2.609375q-1.078125 0.9375 -2.671875 0.9375q-1.984375 0 -3.1875 -1.296875q-1.203125 -1.296875 -1.203125 -3.71875q0 -1.578125 0.515625 -2.75q0.515625 -1.171875 1.578125 -1.75q1.0625 -0.59375 2.3125 -0.59375q1.578125 0 2.578125 0.796875q1.0 0.796875 1.28125 2.265625l-1.59375 0.234375q-0.234375 -0.96875 -0.8125 -1.453125q-0.578125 -0.5 -1.390625 -0.5q-1.234375 0 -2.015625 0.890625q-0.78125 0.890625 -0.78125 2.8125q0 1.953125 0.75 2.84375q0.75 0.875 1.953125 0.875q0.96875 0 1.609375 -0.59375q0.65625 -0.59375 0.828125 -1.828125zm3.015625 3.546875l0 -13.359375l1.640625 0l0 7.625l3.890625 -3.9375l2.109375 0l-3.6875 3.59375l4.0625 6.078125l-2.015625 0l-3.203125 -4.953125l-1.15625 1.125l0 3.828125l-1.640625 0z" fill-rule="nonzero"/><path fill="#3d85c6" d="m33.360104 122.56994l76.25197 0l0 28.629921l-76.25197 0z" fill-rule="evenodd"/><path fill="#ffffff" d="m43.71948 143.8049l0 -13.359375l5.015625 0q1.53125 0 2.453125 0.40625q0.921875 0.40625 1.4375 1.25q0.53125 0.84375 0.53125 1.765625q0 0.859375 -0.46875 1.625q-0.453125 0.75 -1.390625 1.203125q1.203125 0.359375 1.859375 1.21875q0.65625 0.859375 0.65625 2.015625q0 0.9375 -0.40625 1.75q-0.390625 0.796875 -0.984375 1.234375q-0.578125 0.4375 -1.453125 0.671875q-0.875 0.21875 -2.15625 0.21875l-5.09375 0zm1.78125 -7.75l2.875 0q1.1875 0 1.6875 -0.140625q0.671875 -0.203125 1.015625 -0.671875q0.34375 -0.46875 0.34375 -1.171875q0 -0.65625 -0.328125 -1.15625q-0.3125 -0.515625 -0.90625 -0.703125q-0.59375 -0.1875 -2.03125 -0.1875l-2.65625 0l0 4.03125zm0 6.171875l3.3125 0q0.859375 0 1.203125 -0.0625q0.609375 -0.109375 1.015625 -0.359375q0.421875 -0.265625 0.6875 -0.75q0.265625 -0.484375 0.265625 -1.125q0 -0.75 -0.390625 -1.296875q-0.375 -0.546875 -1.0625 -0.765625q-0.671875 -0.234375 -1.953125 -0.234375l-3.078125 0l0 4.59375zm10.490448 1.578125l0 -13.359375l1.640625 0l0 13.359375l-1.640625 0zm3.5823212 -4.84375q0 -2.6875 1.484375 -3.96875q1.25 -1.078125 3.0468712 -1.078125q2.0 0 3.265625 1.3125q1.265625 1.296875 1.265625 3.609375q0 1.859375 -0.5625 2.9375q-0.5625 1.0625 -1.640625 1.65625q-1.0625 0.59375 -2.328125 0.59375q-2.0312462 0 -3.2812462 -1.296875q-1.25 -1.3125 -1.25 -3.765625zm1.6875 0q0 1.859375 0.796875 2.796875q0.8125 0.921875 2.0468712 0.921875q1.21875 0 2.03125 -0.921875q0.8125 -0.9375 0.8125 -2.84375q0 -1.796875 -0.8125 -2.71875q-0.8125 -0.921875 -2.03125 -0.921875q-1.2343712 0 -2.0468712 0.921875q-0.796875 0.90625 -0.796875 2.765625zm15.610088 1.296875l1.609375 0.21875q-0.265625 1.65625 -1.359375 2.609375q-1.078125 0.9375 -2.671875 0.9375q-1.984375 0 -3.1875 -1.296875q-1.203125 -1.296875 -1.203125 -3.71875q0 -1.578125 0.515625 -2.75q0.515625 -1.171875 1.578125 -1.75q1.0625 -0.59375 2.3125 -0.59375q1.578125 0 2.578125 0.796875q1.0 0.796875 1.28125 2.265625l-1.59375 0.234375q-0.234375 -0.96875 -0.8125 -1.453125q-0.578125 -0.5 -1.390625 -0.5q-1.234375 0 -2.015625 0.890625q-0.78125 0.890625 -0.78125 2.8125q0 1.953125 0.75 2.84375q0.75 0.875 1.953125 0.875q0.96875 0 1.609375 -0.59375q0.65625 -0.59375 0.828125 -1.828125zm3.015625 3.546875l0 -13.359375l1.640625 0l0 7.625l3.890625 -3.9375l2.109375 0l-3.6875 3.59375l4.0625 6.078125l-2.015625 0l-3.203125 -4.953125l-1.15625 1.125l0 3.828125l-1.640625 0z" fill-rule="nonzero"/><path fill="#000000" fill-opacity="0.0" d="m115.34435 56.963642l61.826775 -0.09448624" fill-rule="evenodd"/><path stroke="#000000" stroke-width="1.0" stroke-linejoin="round" stroke-linecap="butt" d="m115.34435 56.963646l55.82679 -0.08531952" fill-rule="evenodd"/><path fill="#000000" stroke="#000000" stroke-width="1.0" stroke-linecap="butt" d="m171.17368 58.530056l4.535568 -1.6586647l-4.540619 -1.6447945z" fill-rule="evenodd"/><path fill="#000000" fill-opacity="0.0" d="m99.53333 96.92427l77.637794 -0.03149414" fill-rule="evenodd"/><path stroke="#000000" stroke-width="1.0" stroke-linejoin="round" stroke-linecap="butt" d="m99.53333 96.92427l71.63781 -0.029060364" fill-rule="evenodd"/><path fill="#000000" stroke="#000000" stroke-width="1.0" stroke-linecap="butt" d="m171.17181 98.54694l4.5374146 -1.6535721l-4.5387573 -1.6498947z" fill-rule="evenodd"/><path fill="#000000" fill-opacity="0.0" d="m109.61207 136.8849l67.55906 0" fill-rule="evenodd"/><path stroke="#000000" stroke-width="1.0" stroke-linejoin="round" stroke-linecap="butt" d="m109.61207 136.8849l61.559074 0" fill-rule="evenodd"/><path fill="#000000" stroke="#000000" stroke-width="1.0" stroke-linecap="butt" d="m171.17114 138.53664l4.538086 -1.6517334l-4.538086 -1.6517334z" fill-rule="evenodd"/><path fill="#000000" fill-opacity="0.0" d="m304.5727 136.88399l83.811035 27.748032" fill-rule="evenodd"/><path stroke="#000000" stroke-width="1.0" stroke-linejoin="round" stroke-linecap="butt" d="m304.57272 136.88399l78.11505 25.862228" fill-rule="evenodd"/><path fill="#000000" stroke="#000000" stroke-width="1.0" stroke-linecap="butt" d="m382.16864 164.31425l4.8272705 -0.14170837l-3.788971 -2.9943542z" fill-rule="evenodd"/></g></svg>