<svg version="1.1" viewBox="0.0 0.0 293.26771653543307 111.90813648293964" fill="none" stroke="none" stroke-linecap="square" stroke-miterlimit="10" xmlns:xlink="http://www.w3.org/1999/xlink" xmlns="http://www.w3.org/2000/svg"><clipPath id="p.0"><path d="m0 0l293.26773 0l0 111.908134l-293.26773 0l0 -111.908134z" clip-rule="nonzero"/></clipPath><g clip-path="url(#p.0)"><path fill="#000000" fill-opacity="0.0" d="m0 0l293.26773 0l0 111.908134l-293.26773 0z" fill-rule="evenodd"/><g filter="url(#shadowFilter-p.1)"><use xlink:href="#p.1" transform="matrix(1.0 0.0 0.0 1.0 0.0 2.0)"/></g><defs><filter id="shadowFilter-p.1" filterUnits="userSpaceOnUse"><feGaussianBlur in="SourceAlpha" stdDeviation="20.0" result="blur"/><feComponentTransfer in="blur" color-interpolation-filters="sRGB"><feFuncR type="linear" slope="0" intercept="0.0"/><feFuncG type="linear" slope="0" intercept="0.0"/><feFuncB type="linear" slope="0" intercept="0.0"/><feFuncA type="linear" slope="0.15" intercept="0"/></feComponentTransfer></filter></defs><g id="p.1"><path fill="#7a8ea3" d="m11.126101 54.19447l0 0c0 -1.1002579 0.8919363 -1.9921951 1.9921961 -1.9921951l26.566788 0c0.5283623 0 1.0350876 0.20989227 1.4086952 0.5834999c0.37360764 0.37361145 0.5834999 0.88033295 0.5834999 1.4086952l0 22.409306c0 1.1002655 -0.89193726 1.9922028 -1.9921951 1.9922028l-26.566788 0l0 0c-1.1002598 0 -1.9921961 -0.89193726 -1.9921961 -1.9922028z" fill-rule="evenodd"/><path stroke="#00375c" stroke-width="1.0" stroke-linejoin="round" stroke-linecap="butt" d="m11.126101 54.19447l0 0c0 -1.1002579 0.8919363 -1.9921951 1.9921961 -1.9921951l26.566788 0c0.5283623 0 1.0350876 0.20989227 1.4086952 0.5834999c0.37360764 0.37361145 0.5834999 0.88033295 0.5834999 1.4086952l0 22.409306c0 1.1002655 -0.89193726 1.9922028 -1.9921951 1.9922028l-26.566788 0l0 0c-1.1002598 0 -1.9921961 -0.89193726 -1.9921961 -1.9922028z" fill-rule="evenodd"/></g><g filter="url(#shadowFilter-p.2)"><use xlink:href="#p.2" transform="matrix(1.0 0.0 0.0 1.0 0.0 2.0)"/></g><defs><filter id="shadowFilter-p.2" filterUnits="userSpaceOnUse"><feGaussianBlur in="SourceAlpha" stdDeviation="20.0" result="blur"/><feComponentTransfer in="blur" color-interpolation-filters="sRGB"><feFuncR type="linear" slope="0" intercept="0.0"/><feFuncG type="linear" slope="0" intercept="0.0"/><feFuncB type="linear" slope="0" intercept="0.0"/><feFuncA type="linear" slope="0.15" intercept="0"/></feComponentTransfer></filter></defs><g id="p.2"><path fill="#7a8ea3" d="m41.682922 54.19447l0 0c0 -1.1002579 0.89193726 -1.9921951 1.9921951 -1.9921951l26.566788 0c0.5283661 0 1.0350876 0.20989227 1.408699 0.5834999c0.37360382 0.37361145 0.5834961 0.88033295 0.5834961 1.4086952l0 22.409306c0 1.1002655 -0.89193726 1.9922028 -1.9921951 1.9922028l-26.566788 0l0 0c-1.1002579 0 -1.9921951 -0.89193726 -1.9921951 -1.9922028z" fill-rule="evenodd"/><path stroke="#00375c" stroke-width="1.0" stroke-linejoin="round" stroke-linecap="butt" d="m41.682922 54.19447l0 0c0 -1.1002579 0.89193726 -1.9921951 1.9921951 -1.9921951l26.566788 0c0.5283661 0 1.0350876 0.20989227 1.408699 0.5834999c0.37360382 0.37361145 0.5834961 0.88033295 0.5834961 1.4086952l0 22.409306c0 1.1002655 -0.89193726 1.9922028 -1.9921951 1.9922028l-26.566788 0l0 0c-1.1002579 0 -1.9921951 -0.89193726 -1.9921951 -1.9922028z" fill-rule="evenodd"/></g><g filter="url(#shadowFilter-p.3)"><use xlink:href="#p.3" transform="matrix(1.0 0.0 0.0 1.0 0.0 2.0)"/></g><defs><filter id="shadowFilter-p.3" filterUnits="userSpaceOnUse"><feGaussianBlur in="SourceAlpha" stdDeviation="20.0" result="blur"/><feComponentTransfer in="blur" color-interpolation-filters="sRGB"><feFuncR type="linear" slope="0" intercept="0.0"/><feFuncG type="linear" slope="0" intercept="0.0"/><feFuncB type="linear" slope="0" intercept="0.0"/><feFuncA type="linear" slope="0.15" intercept="0"/></feComponentTransfer></filter></defs><g id="p.3"><path fill="#7a8ea3" d="m41.682922 80.59456l0 0c0 -1.1002579 0.89193726 -1.9921951 1.9921951 -1.9921951l26.566788 0c0.5283661 0 1.0350876 0.20989227 1.408699 0.5835037c0.37360382 0.37361145 0.5834961 0.88033295 0.5834961 1.4086914l0 22.40931c0 1.1002579 -0.89193726 1.9921951 -1.9921951 1.9921951l-26.566788 0l0 0c-1.1002579 0 -1.9921951 -0.89193726 -1.9921951 -1.9921951z" fill-rule="evenodd"/><path stroke="#00375c" stroke-width="1.0" stroke-linejoin="round" stroke-linecap="butt" d="m41.682922 80.59456l0 0c0 -1.1002579 0.89193726 -1.9921951 1.9921951 -1.9921951l26.566788 0c0.5283661 0 1.0350876 0.20989227 1.408699 0.5835037c0.37360382 0.37361145 0.5834961 0.88033295 0.5834961 1.4086914l0 22.40931c0 1.1002579 -0.89193726 1.9921951 -1.9921951 1.9921951l-26.566788 0l0 0c-1.1002579 0 -1.9921951 -0.89193726 -1.9921951 -1.9921951z" fill-rule="evenodd"/></g><g filter="url(#shadowFilter-p.4)"><use xlink:href="#p.4" transform="matrix(1.0 0.0 0.0 1.0 0.0 2.0)"/></g><defs><filter id="shadowFilter-p.4" filterUnits="userSpaceOnUse"><feGaussianBlur in="SourceAlpha" stdDeviation="20.0" result="blur"/><feComponentTransfer in="blur" color-interpolation-filters="sRGB"><feFuncR type="linear" slope="0" intercept="0.0"/><feFuncG type="linear" slope="0" intercept="0.0"/><feFuncB type="linear" slope="0" intercept="0.0"/><feFuncA type="linear" slope="0.15" intercept="0"/></feComponentTransfer></filter></defs><g id="p.4"><path fill="#7a8ea3" d="m11.126101 80.59456l0 0c0 -1.1002579 0.8919363 -1.9921951 1.9921961 -1.9921951l26.566788 0c0.5283623 0 1.0350876 0.20989227 1.4086952 0.5835037c0.37360764 0.37361145 0.5834999 0.88033295 0.5834999 1.4086914l0 22.40931c0 1.1002579 -0.89193726 1.9921951 -1.9921951 1.9921951l-26.566788 0l0 0c-1.1002598 0 -1.9921961 -0.89193726 -1.9921961 -1.9921951z" fill-rule="evenodd"/><path stroke="#00375c" stroke-width="1.0" stroke-linejoin="round" stroke-linecap="butt" d="m11.126101 80.59456l0 0c0 -1.1002579 0.8919363 -1.9921951 1.9921961 -1.9921951l26.566788 0c0.5283623 0 1.0350876 0.20989227 1.4086952 0.5835037c0.37360764 0.37361145 0.5834999 0.88033295 0.5834999 1.4086914l0 22.40931c0 1.1002579 -0.89193726 1.9921951 -1.9921951 1.9921951l-26.566788 0l0 0c-1.1002598 0 -1.9921961 -0.89193726 -1.9921961 -1.9921951z" fill-rule="evenodd"/></g><path fill="#ffffff" d="m6.7322755 28.727034l0 0c0 -5.670702 4.597013 -10.267715 10.267717 -10.267715l52.503937 0c2.7231674 0 5.3348007 1.0817738 7.2603683 3.0073433c1.9255753 1.9255714 3.007347 4.5372047 3.007347 7.260372l0 0l0 0c0 5.670702 -4.5970154 10.267717 -10.267715 10.267717l-52.503937 0c-5.670704 0 -10.267717 -4.5970154 -10.267717 -10.267717z" fill-rule="evenodd"/><path stroke="#00375c" stroke-width="1.0" stroke-linejoin="round" stroke-linecap="butt" d="m6.7322755 28.727034l0 0c0 -5.670702 4.597013 -10.267715 10.267717 -10.267715l52.503937 0c2.7231674 0 5.3348007 1.0817738 7.2603683 3.0073433c1.9255753 1.9255714 3.007347 4.5372047 3.007347 7.260372l0 0l0 0c0 5.670702 -4.5970154 10.267717 -10.267715 10.267717l-52.503937 0c-5.670704 0 -10.267717 -4.5970154 -10.267717 -10.267717z" fill-rule="evenodd"/><path fill="#00375c" d="m21.482988 32.467033l0 -7.453125l1.78125 0q1.8125 0 2.6875 1.0q0.875 0.984375 0.875 2.71875q0 1.734375 -0.875 2.734375q-0.875 1.0 -2.6875 1.0l-1.78125 0zm1.125 -1.046875l0.625 0q1.296875 0 1.875 -0.71875q0.578125 -0.734375 0.578125 -1.96875q0 -1.21875 -0.578125 -1.953125q-0.578125 -0.734375 -1.875 -0.734375l-0.625 0l0 5.375zm7.378189 1.171875q-0.625 0 -1.0625 -0.21875q-0.421875 -0.21875 -0.640625 -0.578125q-0.203125 -0.375 -0.203125 -0.8125q0 -0.78125 0.5625 -1.21875q0.578125 -0.4375 1.625 -0.4375l1.359375 0l0 -0.109375q0 -1.1875 -1.109375 -1.1875q-0.453125 0 -0.78125 0.203125q-0.3125 0.1875 -0.40625 0.625l-1.140625 0q0.09375 -0.828125 0.71875 -1.3125q0.640625 -0.484375 1.609375 -0.484375q1.171875 0 1.7031231 0.578125q0.53125 0.5625 0.53125 1.578125l0 3.25l-0.9531231 0l-0.09375 -0.78125l-0.078125 0q-0.234375 0.375 -0.59375 0.640625q-0.34375 0.265625 -1.046875 0.265625zm0.21875 -0.953125q0.6875 0 1.03125 -0.40625q0.34375 -0.421875 0.375 -1.078125l-1.234375 0q-0.609375 0 -0.859375 0.203125q-0.25 0.1875 -0.25 0.546875q0 0.34375 0.25 0.546875q0.25 0.1875 0.6875 0.1875zm7.221937 0.828125q-0.765625 0 -1.234375 -0.375q-0.453125 -0.375 -0.453125 -1.34375l0 -2.609375l-1.328125 0l0 -0.953125l0.78125 0q0.546875 0 0.640625 -0.53125l0.15625 -0.859375l0.875 0l0 1.390625l2.09375 0l0 0.953125l-2.09375 0l0 2.578125q0 0.421875 0.1875 0.59375q0.1875 0.15625 0.640625 0.15625l1.25 0l0 1.0l-1.515625 0zm5.346939 0.125q-0.625 0 -1.0625 -0.21875q-0.421875 -0.21875 -0.640625 -0.578125q-0.203125 -0.375 -0.203125 -0.8125q0 -0.78125 0.5625 -1.21875q0.578125 -0.4375 1.625 -0.4375l1.359375 0l0 -0.109375q0 -1.1875 -1.109375 -1.1875q-0.453125 0 -0.78125 0.203125q-0.3125 0.1875 -0.40625 0.625l-1.140625 0q0.09375 -0.828125 0.71875 -1.3125q0.640625 -0.484375 1.609375 -0.484375q1.171875 0 1.703125 0.578125q0.53125 0.5625 0.53125 1.578125l0 3.25l-0.953125 0l-0.09375 -0.78125l-0.078125 0q-0.234375 0.375 -0.59375 0.640625q-0.34375 0.265625 -1.046875 0.265625zm0.21875 -0.953125q0.6875 0 1.03125 -0.40625q0.34375 -0.421875 0.375 -1.078125l-1.234375 0q-0.609375 0 -0.859375 0.203125q-0.25 0.1875 -0.25 0.546875q0 0.34375 0.25 0.546875q0.25 0.1875 0.6875 0.1875zm6.690689 0.953125q-1.046875 0 -1.671875 -0.484375q-0.609375 -0.5 -0.6875 -1.296875l1.15625 0q0.0625 0.359375 0.375 0.59375q0.328125 0.234375 0.84375 0.234375q0.5 0 0.765625 -0.203125q0.28125 -0.203125 0.28125 -0.484375q0 -0.40625 -0.328125 -0.546875q-0.328125 -0.15625 -0.953125 -0.234375q-0.546875 -0.0625 -0.984375 -0.25q-0.4375 -0.1875 -0.703125 -0.5q-0.25 -0.328125 -0.25 -0.828125q0 -0.6875 0.53125 -1.109375q0.546875 -0.421875 1.53125 -0.421875q0.96875 0 1.5 0.4375q0.53125 0.421875 0.609375 1.1875l-1.078125 0q-0.046875 -0.328125 -0.34375 -0.5q-0.28125 -0.1875 -0.703125 -0.1875q-0.4375 0 -0.703125 0.171875q-0.25 0.15625 -0.25 0.421875q0 0.578125 1.234375 0.703125q0.59375 0.0625 1.046875 0.21875q0.453125 0.15625 0.71875 0.484375q0.28125 0.3125 0.28125 0.90625q0 0.46875 -0.28125 0.859375q-0.28125 0.390625 -0.78125 0.609375q-0.484375 0.21875 -1.15625 0.21875zm6.425064 0q-0.765625 0 -1.359375 -0.34375q-0.578125 -0.34375 -0.921875 -0.953125q-0.328125 -0.625 -0.328125 -1.453125q0 -0.828125 0.328125 -1.453125q0.328125 -0.625 0.921875 -0.96875q0.59375 -0.359375 1.359375 -0.359375q0.765625 0 1.3125 0.34375q0.5625 0.34375 0.859375 0.921875q0.3125 0.578125 0.3125 1.265625q0 0.109375 0 0.234375q0 0.109375 0 0.265625l-3.984375 0q0.0625 0.734375 0.484375 1.109375q0.421875 0.375 1.0 0.375q0.5 0 0.796875 -0.203125q0.296875 -0.203125 0.421875 -0.5625l1.140625 0q-0.1875 0.75 -0.796875 1.265625q-0.609375 0.515625 -1.546875 0.515625zm0 -4.5625q-0.53125 0 -0.9375 0.328125q-0.40625 0.3125 -0.515625 0.875l2.8125 0q-0.046875 -0.53125 -0.421875 -0.859375q-0.359375 -0.34375 -0.9375 -0.34375zm6.893814 4.4375q-0.765625 0 -1.234375 -0.375q-0.453125 -0.375 -0.453125 -1.34375l0 -2.609375l-1.328125 0l0 -0.953125l0.78125 0q0.546875 0 0.640625 -0.53125l0.15625 -0.859375l0.875 0l0 1.390625l2.09375 0l0 0.953125l-2.09375 0l0 2.578125q0 0.421875 0.1875 0.59375q0.1875 0.15625 0.640625 0.15625l1.25 0l0 1.0l-1.515625 0z" fill-rule="nonzero"/><path fill="#ffffff" d="m98.40682 28.727121l0 0c0 -10.689102 8.66523 -19.354332 19.354332 -19.354332l58.4252 0l0 0c5.133087 0 10.055939 2.0391111 13.685577 5.6687517c3.6296387 3.6296406 5.668747 8.55249 5.668747 13.685579l0 0l0 0c0 10.6891 -8.665222 19.35433 -19.354324 19.35433l-58.4252 0c-10.689102 0 -19.354332 -8.66523 -19.354332 -19.35433z" fill-rule="evenodd"/><path stroke="#25b48d" stroke-width="1.0" stroke-linejoin="round" stroke-linecap="butt" d="m98.40682 28.727121l0 0c0 -10.689102 8.66523 -19.354332 19.354332 -19.354332l58.4252 0l0 0c5.133087 0 10.055939 2.0391111 13.685577 5.6687517c3.6296387 3.6296406 5.668747 8.55249 5.668747 13.685579l0 0l0 0c0 10.6891 -8.665222 19.35433 -19.354324 19.35433l-58.4252 0c-10.689102 0 -19.354332 -8.66523 -19.354332 -19.35433z" fill-rule="evenodd"/><path fill="#00375c" d="m106.16396 32.46712l0 -7.453127l2.53125 0q0.859375 0 1.40625 0.296875q0.5625 0.28125 0.828125 0.796875q0.265625 0.515625 0.265625 1.171875q0 0.65625 -0.265625 1.171875q-0.265625 0.515625 -0.828125 0.8125q-0.546875 0.28125 -1.40625 0.28125l-1.390625 0l0 2.921877l-1.140625 0zm1.140625 -3.937502l1.34375 0q0.71875 0 1.046875 -0.328125q0.34375 -0.34375 0.34375 -0.921875q0 -0.5625 -0.34375 -0.90625q-0.328125 -0.359375 -1.046875 -0.359375l-1.34375 0l0 2.515625zm5.331314 3.937502l0 -0.9843769l1.28125 0l0 -2.96875q0 -0.359375 -0.34375 -0.359375l-0.84375 0l0 -0.96875l1.265625 0q0.4375 0 0.71875 0.25q0.28125 0.25 0.28125 0.6875l0 0.140625l0.046875 0q0.125 -0.609375 0.515625 -0.90625q0.390625 -0.296875 1.125 -0.296875l0.828125 0l0 1.1875l-1.15625 0q-0.625 0 -0.96875 0.4375q-0.34375 0.4375 -0.34375 1.046875l0 1.75l1.640625 0l0 0.9843769l-4.046875 0zm8.831314 0.125q-0.765625 0 -1.359375 -0.34375q-0.578125 -0.3437519 -0.921875 -0.9531269q-0.328125 -0.625 -0.328125 -1.453125q0 -0.828125 0.328125 -1.453125q0.328125 -0.625 0.921875 -0.96875q0.59375 -0.359375 1.359375 -0.359375q0.765625 0 1.3125 0.34375q0.5625 0.34375 0.859375 0.921875q0.3125 0.578125 0.3125 1.265625q0 0.109375 0 0.234375q0 0.109375 0 0.265625l-3.984375 0q0.0625 0.734375 0.484375 1.109375q0.421875 0.375 1.0 0.375q0.5 0 0.796875 -0.203125q0.296875 -0.203125 0.421875 -0.5625l1.140625 0q-0.1875 0.75 -0.796875 1.2656269q-0.609375 0.515625 -1.546875 0.515625zm0 -4.562502q-0.53125 0 -0.9375 0.328125q-0.40625 0.3125 -0.515625 0.875l2.8125 0q-0.046875 -0.53125 -0.421875 -0.859375q-0.359375 -0.34375 -0.9375 -0.34375zm3.862564 6.781252l0 -7.625002l0.984375 0l0.078125 0.8125l0.0625 0q0.21875 -0.40625 0.640625 -0.671875q0.4375 -0.265625 1.0312424 -0.265625q0.625 0 1.125 0.3125q0.515625 0.3125 0.8125 0.921875q0.3125 0.609375 0.3125 1.53125q0 0.90625 -0.3125 1.53125q-0.3125 0.609375 -0.84375 0.9218769q-0.53125 0.3125 -1.1875 0.3125q-0.5937424 0 -0.9843674 -0.234375q-0.390625 -0.234375 -0.59375 -0.5312519l0 2.984377l-1.125 0zm2.5 -3.296877q0.6093674 0 0.9999924 -0.421875q0.40625 -0.421875 0.40625 -1.28125q0 -0.84375 -0.40625 -1.265625q-0.390625 -0.421875 -0.9999924 -0.421875q-0.609375 0 -1.015625 0.421875q-0.390625 0.421875 -0.390625 1.28125q0 0.84375 0.390625 1.265625q0.40625 0.421875 1.015625 0.421875zm3.9875565 0.9531269l0 -0.9843769l1.28125 0l0 -2.96875q0 -0.359375 -0.34375 -0.359375l-0.84375 0l0 -0.96875l1.265625 0q0.4375 0 0.71875 0.25q0.28125 0.25 0.28125 0.6875l0 0.140625l0.046875 0q0.125 -0.609375 0.515625 -0.90625q0.390625 -0.296875 1.125 -0.296875l0.828125 0l0 1.1875l-1.15625 0q-0.625 0 -0.96875 0.4375q-0.34375 0.4375 -0.34375 1.046875l0 1.75l1.640625 0l0 0.9843769l-4.046875 0zm8.768814 0.125q-0.765625 0 -1.359375 -0.328125q-0.59375 -0.3437519 -0.9375 -0.9687519q-0.34375 -0.625 -0.34375 -1.46875q0 -0.84375 0.34375 -1.46875q0.34375 -0.625 0.9375 -0.953125q0.59375 -0.34375 1.359375 -0.34375q0.765625 0 1.359375 0.34375q0.59375 0.328125 0.921875 0.953125q0.34375 0.625 0.34375 1.46875q0 0.84375 -0.34375 1.46875q-0.34375 0.625 -0.9375 0.9687519q-0.578125 0.328125 -1.34375 0.328125zm0 -1.0781269q0.40625 0 0.734375 -0.171875q0.34375 -0.1875 0.546875 -0.5625q0.21875 -0.375 0.21875 -0.953125q0 -0.59375 -0.21875 -0.953125q-0.203125 -0.375 -0.546875 -0.5625q-0.328125 -0.1875 -0.734375 -0.1875q-0.40625 0 -0.75 0.1875q-0.328125 0.1875 -0.546875 0.5625q-0.203125 0.359375 -0.203125 0.953125q0 0.875 0.4375 1.28125q0.453125 0.40625 1.0625 0.40625zm6.456314 1.0781269q-0.734375 0 -1.3125 -0.328125q-0.578125 -0.3437519 -0.90625 -0.9687519q-0.328125 -0.625 -0.328125 -1.46875q0 -0.84375 0.328125 -1.453125q0.34375 -0.625 0.90625 -0.96875q0.578125 -0.34375 1.3125 -0.34375q1.015625 0 1.640625 0.5q0.625 0.5 0.796875 1.390625l-1.1875 0q-0.109375 -0.390625 -0.4375 -0.609375q-0.3125 -0.21875 -0.8125 -0.21875q-0.359375 0 -0.6875 0.1875q-0.328125 0.1875 -0.53125 0.578125q-0.1875 0.375 -0.1875 0.9375q0 0.546875 0.1875 0.9375q0.203125 0.375 0.53125 0.578125q0.328125 0.203125 0.6875 0.203125q0.5 0 0.8125 -0.21875q0.3125 -0.234375 0.4375 -0.625l1.1875 0q-0.21875 0.875 -0.84375 1.3906269q-0.609375 0.5 -1.59375 0.5zm6.393814 0q-0.765625 0 -1.359375 -0.34375q-0.578125 -0.3437519 -0.921875 -0.9531269q-0.328125 -0.625 -0.328125 -1.453125q0 -0.828125 0.328125 -1.453125q0.328125 -0.625 0.921875 -0.96875q0.59375 -0.359375 1.359375 -0.359375q0.765625 0 1.3125 0.34375q0.5625 0.34375 0.859375 0.921875q0.3125 0.578125 0.3125 1.265625q0 0.109375 0 0.234375q0 0.109375 0 0.265625l-3.984375 0q0.0625 0.734375 0.484375 1.109375q0.421875 0.375 1.0 0.375q0.5 0 0.796875 -0.203125q0.296875 -0.203125 0.421875 -0.5625l1.140625 0q-0.1875 0.75 -0.796875 1.2656269q-0.609375 0.515625 -1.546875 0.515625zm0 -4.562502q-0.53125 0 -0.9375 0.328125q-0.40625 0.3125 -0.515625 0.875l2.8125 0q-0.046875 -0.53125 -0.421875 -0.859375q-0.359375 -0.34375 -0.9375 -0.34375zm6.362564 4.562502q-1.046875 0 -1.671875 -0.484375q-0.609375 -0.5000019 -0.6875 -1.2968769l1.15625 0q0.0625 0.359375 0.375 0.59375q0.328125 0.234375 0.84375 0.234375q0.5 0 0.765625 -0.203125q0.28125 -0.203125 0.28125 -0.484375q0 -0.40625 -0.328125 -0.546875q-0.328125 -0.15625 -0.953125 -0.234375q-0.546875 -0.0625 -0.984375 -0.25q-0.4375 -0.1875 -0.703125 -0.5q-0.25 -0.328125 -0.25 -0.828125q0 -0.6875 0.53125 -1.109375q0.546875 -0.421875 1.53125 -0.421875q0.96875 0 1.5 0.4375q0.53125 0.421875 0.609375 1.1875l-1.078125 0q-0.046875 -0.328125 -0.34375 -0.5q-0.28125 -0.1875 -0.703125 -0.1875q-0.4375 0 -0.703125 0.171875q-0.25 0.15625 -0.25 0.421875q0 0.578125 1.234375 0.703125q0.59375 0.0625 1.046875 0.21875q0.453125 0.15625 0.71875 0.484375q0.28125 0.3125 0.28125 0.90625q0 0.46875 -0.28125 0.859375q-0.28125 0.3906269 -0.78125 0.6093769q-0.484375 0.21875 -1.15625 0.21875zm6.393814 0q-1.046875 0 -1.671875 -0.484375q-0.609375 -0.5000019 -0.6875 -1.2968769l1.15625 0q0.0625 0.359375 0.375 0.59375q0.328125 0.234375 0.84375 0.234375q0.5 0 0.765625 -0.203125q0.28125 -0.203125 0.28125 -0.484375q0 -0.40625 -0.328125 -0.546875q-0.328125 -0.15625 -0.953125 -0.234375q-0.546875 -0.0625 -0.984375 -0.25q-0.4375 -0.1875 -0.703125 -0.5q-0.25 -0.328125 -0.25 -0.828125q0 -0.6875 0.53125 -1.109375q0.546875 -0.421875 1.53125 -0.421875q0.96875 0 1.5 0.4375q0.53125 0.421875 0.609375 1.1875l-1.078125 0q-0.046875 -0.328125 -0.34375 -0.5q-0.28125 -0.1875 -0.703125 -0.1875q-0.4375 0 -0.703125 0.171875q-0.25 0.15625 -0.25 0.421875q0 0.578125 1.234375 0.703125q0.59375 0.0625 1.046875 0.21875q0.453125 0.15625 0.71875 0.484375q0.28125 0.3125 0.28125 0.90625q0 0.46875 -0.28125 0.859375q-0.28125 0.3906269 -0.78125 0.6093769q-0.484375 0.21875 -1.15625 0.21875zm6.362564 0q-0.765625 0 -1.359375 -0.328125q-0.59375 -0.3437519 -0.9375 -0.9687519q-0.34375 -0.625 -0.34375 -1.46875q0 -0.84375 0.34375 -1.46875q0.34375 -0.625 0.9375 -0.953125q0.59375 -0.34375 1.359375 -0.34375q0.765625 0 1.359375 0.34375q0.59375 0.328125 0.921875 0.953125q0.34375 0.625 0.34375 1.46875q0 0.84375 -0.34375 1.46875q-0.34375 0.625 -0.9375 0.9687519q-0.578125 0.328125 -1.34375 0.328125zm0 -1.0781269q0.40625 0 0.734375 -0.171875q0.34375 -0.1875 0.546875 -0.5625q0.21875 -0.375 0.21875 -0.953125q0 -0.59375 -0.21875 -0.953125q-0.203125 -0.375 -0.546875 -0.5625q-0.328125 -0.1875 -0.734375 -0.1875q-0.40625 0 -0.75 0.1875q-0.328125 0.1875 -0.546875 0.5625q-0.203125 0.359375 -0.203125 0.953125q0 0.875 0.4375 1.28125q0.453125 0.40625 1.0625 0.40625zm4.018814 0.9531269l0 -0.9843769l1.28125 0l0 -2.96875q0 -0.359375 -0.34375 -0.359375l-0.84375 0l0 -0.96875l1.265625 0q0.4375 0 0.71875 0.25q0.28125 0.25 0.28125 0.6875l0 0.140625l0.046875 0q0.125 -0.609375 0.515625 -0.90625q0.390625 -0.296875 1.125 -0.296875l0.828125 0l0 1.1875l-1.15625 0q-0.625 0 -0.96875 0.4375q-0.34375 0.4375 -0.34375 1.046875l0 1.75l1.640625 0l0 0.9843769l-4.046875 0zm8.800064 0.125q-1.046875 0 -1.671875 -0.484375q-0.609375 -0.5000019 -0.6875 -1.2968769l1.15625 0q0.0625 0.359375 0.375 0.59375q0.328125 0.234375 0.84375 0.234375q0.5 0 0.765625 -0.203125q0.28125 -0.203125 0.28125 -0.484375q0 -0.40625 -0.328125 -0.546875q-0.328125 -0.15625 -0.953125 -0.234375q-0.546875 -0.0625 -0.984375 -0.25q-0.4375 -0.1875 -0.703125 -0.5q-0.25 -0.328125 -0.25 -0.828125q0 -0.6875 0.53125 -1.109375q0.546875 -0.421875 1.53125 -0.421875q0.96875 0 1.5 0.4375q0.53125 0.421875 0.609375 1.1875l-1.078125 0q-0.046875 -0.328125 -0.34375 -0.5q-0.28125 -0.1875 -0.703125 -0.1875q-0.4375 0 -0.703125 0.171875q-0.25 0.15625 -0.25 0.421875q0 0.578125 1.234375 0.703125q0.59375 0.0625 1.046875 0.21875q0.453125 0.15625 0.71875 0.484375q0.28125 0.3125 0.28125 0.90625q0 0.46875 -0.28125 0.859375q-0.28125 0.3906269 -0.78125 0.6093769q-0.484375 0.21875 -1.15625 0.21875z" fill-rule="nonzero"/><path fill="#b6d7a8" d="m107.755905 77.637794l0 0c0 -7.9581146 6.451332 -14.409447 14.409447 -14.409447l0 0c3.8216248 0 7.4867325 1.5181351 10.189018 4.2204285c2.702301 2.7022934 4.2204285 6.3673935 4.2204285 10.189018l0 0c0 7.9581223 -6.4513245 14.409447 -14.409447 14.409447l0 0c-7.9581146 0 -14.409447 -6.4513245 -14.409447 -14.409447z" fill-rule="evenodd"/><path stroke="#00375c" stroke-width="1.0" stroke-linejoin="round" stroke-linecap="butt" d="m107.755905 77.637794l0 0c0 -7.9581146 6.451332 -14.409447 14.409447 -14.409447l0 0c3.8216248 0 7.4867325 1.5181351 10.189018 4.2204285c2.702301 2.7022934 4.2204285 6.3673935 4.2204285 10.189018l0 0c0 7.9581223 -6.4513245 14.409447 -14.409447 14.409447l0 0c-7.9581146 0 -14.409447 -6.4513245 -14.409447 -14.409447z" fill-rule="evenodd"/><path fill="#6aa84f" d="m131.04724 77.40157l0 0c0 -7.9581146 6.4513397 -14.409447 14.409454 -14.409447l0 0c3.8216248 0 7.486725 1.5181351 10.189011 4.2204285c2.702301 2.7022934 4.2204285 6.3673935 4.2204285 10.189018l0 0c0 7.9581223 -6.4513245 14.409447 -14.409439 14.409447l0 0c-7.9581146 0 -14.409454 -6.4513245 -14.409454 -14.409447z" fill-rule="evenodd"/><path stroke="#00375c" stroke-width="1.0" stroke-linejoin="round" stroke-linecap="butt" d="m131.04724 77.40157l0 0c0 -7.9581146 6.4513397 -14.409447 14.409454 -14.409447l0 0c3.8216248 0 7.486725 1.5181351 10.189011 4.2204285c2.702301 2.7022934 4.2204285 6.3673935 4.2204285 10.189018l0 0c0 7.9581223 -6.4513245 14.409447 -14.409439 14.409447l0 0c-7.9581146 0 -14.409454 -6.4513245 -14.409454 -14.409447z" fill-rule="evenodd"/><g filter="url(#shadowFilter-p.5)"><use xlink:href="#p.5" transform="matrix(1.0 0.0 0.0 1.0 0.0 2.0)"/></g><defs><filter id="shadowFilter-p.5" filterUnits="userSpaceOnUse"><feGaussianBlur in="SourceAlpha" stdDeviation="20.0" result="blur"/><feComponentTransfer in="blur" color-interpolation-filters="sRGB"><feFuncR type="linear" slope="0" intercept="0.0"/><feFuncG type="linear" slope="0" intercept="0.0"/><feFuncB type="linear" slope="0" intercept="0.0"/><feFuncA type="linear" slope="0.15" intercept="0"/></feComponentTransfer></filter></defs><g id="p.5"><path fill="#4b34b3" d="m219.14447 54.19447l0 0c0 -1.1002579 0.89193726 -1.9921951 1.9922028 -1.9921951l26.566788 0c0.5283661 0 1.03508 0.20989227 1.4086914 0.5834999c0.37361145 0.37361145 0.5834961 0.88033295 0.5834961 1.4086952l0 22.409306c0 1.1002655 -0.89193726 1.9922028 -1.9921875 1.9922028l-26.566788 0l0 0c-1.1002655 0 -1.9922028 -0.89193726 -1.9922028 -1.9922028z" fill-rule="evenodd"/><path stroke="#00375c" stroke-width="1.0" stroke-linejoin="round" stroke-linecap="butt" d="m219.14447 54.19447l0 0c0 -1.1002579 0.89193726 -1.9921951 1.9922028 -1.9921951l26.566788 0c0.5283661 0 1.03508 0.20989227 1.4086914 0.5834999c0.37361145 0.37361145 0.5834961 0.88033295 0.5834961 1.4086952l0 22.409306c0 1.1002655 -0.89193726 1.9922028 -1.9921875 1.9922028l-26.566788 0l0 0c-1.1002655 0 -1.9922028 -0.89193726 -1.9922028 -1.9922028z" fill-rule="evenodd"/></g><g filter="url(#shadowFilter-p.6)"><use xlink:href="#p.6" transform="matrix(1.0 0.0 0.0 1.0 0.0 2.0)"/></g><defs><filter id="shadowFilter-p.6" filterUnits="userSpaceOnUse"><feGaussianBlur in="SourceAlpha" stdDeviation="20.0" result="blur"/><feComponentTransfer in="blur" color-interpolation-filters="sRGB"><feFuncR type="linear" slope="0" intercept="0.0"/><feFuncG type="linear" slope="0" intercept="0.0"/><feFuncB type="linear" slope="0" intercept="0.0"/><feFuncA type="linear" slope="0.15" intercept="0"/></feComponentTransfer></filter></defs><g id="p.6"><path fill="#25b48d" d="m249.7013 54.19447l0 0c0 -1.1002579 0.89193726 -1.9921951 1.9922028 -1.9921951l26.566788 0c0.52835083 0 1.0350952 0.20989227 1.4086914 0.5834999c0.3735962 0.37361145 0.5834961 0.88033295 0.5834961 1.4086952l0 22.409306c0 1.1002655 -0.89193726 1.9922028 -1.9921875 1.9922028l-26.566788 0l0 0c-1.1002655 0 -1.9922028 -0.89193726 -1.9922028 -1.9922028z" fill-rule="evenodd"/><path stroke="#00375c" stroke-width="1.0" stroke-linejoin="round" stroke-linecap="butt" d="m249.7013 54.19447l0 0c0 -1.1002579 0.89193726 -1.9921951 1.9922028 -1.9921951l26.566788 0c0.52835083 0 1.0350952 0.20989227 1.4086914 0.5834999c0.3735962 0.37361145 0.5834961 0.88033295 0.5834961 1.4086952l0 22.409306c0 1.1002655 -0.89193726 1.9922028 -1.9921875 1.9922028l-26.566788 0l0 0c-1.1002655 0 -1.9922028 -0.89193726 -1.9922028 -1.9922028z" fill-rule="evenodd"/></g><g filter="url(#shadowFilter-p.7)"><use xlink:href="#p.7" transform="matrix(1.0 0.0 0.0 1.0 0.0 2.0)"/></g><defs><filter id="shadowFilter-p.7" filterUnits="userSpaceOnUse"><feGaussianBlur in="SourceAlpha" stdDeviation="20.0" result="blur"/><feComponentTransfer in="blur" color-interpolation-filters="sRGB"><feFuncR type="linear" slope="0" intercept="0.0"/><feFuncG type="linear" slope="0" intercept="0.0"/><feFuncB type="linear" slope="0" intercept="0.0"/><feFuncA type="linear" slope="0.15" intercept="0"/></feComponentTransfer></filter></defs><g id="p.7"><path fill="#5cbcfe" d="m249.7013 80.59456l0 0c0 -1.1002579 0.89193726 -1.9921951 1.9922028 -1.9921951l26.566788 0c0.52835083 0 1.0350952 0.20989227 1.4086914 0.5835037c0.3735962 0.37361145 0.5834961 0.88033295 0.5834961 1.4086914l0 22.40931c0 1.1002579 -0.89193726 1.9921951 -1.9921875 1.9921951l-26.566788 0l0 0c-1.1002655 0 -1.9922028 -0.89193726 -1.9922028 -1.9921951z" fill-rule="evenodd"/><path stroke="#00375c" stroke-width="1.0" stroke-linejoin="round" stroke-linecap="butt" d="m249.7013 80.59456l0 0c0 -1.1002579 0.89193726 -1.9921951 1.9922028 -1.9921951l26.566788 0c0.52835083 0 1.0350952 0.20989227 1.4086914 0.5835037c0.3735962 0.37361145 0.5834961 0.88033295 0.5834961 1.4086914l0 22.40931c0 1.1002579 -0.89193726 1.9921951 -1.9921875 1.9921951l-26.566788 0l0 0c-1.1002655 0 -1.9922028 -0.89193726 -1.9922028 -1.9921951z" fill-rule="evenodd"/></g><g filter="url(#shadowFilter-p.8)"><use xlink:href="#p.8" transform="matrix(1.0 0.0 0.0 1.0 0.0 2.0)"/></g><defs><filter id="shadowFilter-p.8" filterUnits="userSpaceOnUse"><feGaussianBlur in="SourceAlpha" stdDeviation="20.0" result="blur"/><feComponentTransfer in="blur" color-interpolation-filters="sRGB"><feFuncR type="linear" slope="0" intercept="0.0"/><feFuncG type="linear" slope="0" intercept="0.0"/><feFuncB type="linear" slope="0" intercept="0.0"/><feFuncA type="linear" slope="0.15" intercept="0"/></feComponentTransfer></filter></defs><g id="p.8"><path fill="#7a8ea3" d="m219.14447 80.59456l0 0c0 -1.1002579 0.89193726 -1.9921951 1.9922028 -1.9921951l26.566788 0c0.5283661 0 1.03508 0.20989227 1.4086914 0.5835037c0.37361145 0.37361145 0.5834961 0.88033295 0.5834961 1.4086914l0 22.40931c0 1.1002579 -0.89193726 1.9921951 -1.9921875 1.9921951l-26.566788 0l0 0c-1.1002655 0 -1.9922028 -0.89193726 -1.9922028 -1.9921951z" fill-rule="evenodd"/><path stroke="#00375c" stroke-width="1.0" stroke-linejoin="round" stroke-linecap="butt" d="m219.14447 80.59456l0 0c0 -1.1002579 0.89193726 -1.9921951 1.9922028 -1.9921951l26.566788 0c0.5283661 0 1.03508 0.20989227 1.4086914 0.5835037c0.37361145 0.37361145 0.5834961 0.88033295 0.5834961 1.4086914l0 22.40931c0 1.1002579 -0.89193726 1.9921951 -1.9921875 1.9921951l-26.566788 0l0 0c-1.1002655 0 -1.9922028 -0.89193726 -1.9922028 -1.9921951z" fill-rule="evenodd"/></g><path fill="#ffffff" d="m214.17584 28.727034l0 0c0 -5.670702 4.5970154 -10.267715 10.267715 -10.267715l49.952774 0c2.7231445 0 5.334778 1.0817738 7.2603455 3.0073433c1.9255676 1.9255714 3.0073547 4.5372047 3.0073547 7.260372l0 0l0 0c0 5.670702 -4.5970154 10.267717 -10.2677 10.267717l-49.952774 0c-5.6707 0 -10.267715 -4.5970154 -10.267715 -10.267717z" fill-rule="evenodd"/><path stroke="#00375c" stroke-width="1.0" stroke-linejoin="round" stroke-linecap="butt" d="m214.17584 28.727034l0 0c0 -5.670702 4.5970154 -10.267715 10.267715 -10.267715l49.952774 0c2.7231445 0 5.334778 1.0817738 7.2603455 3.0073433c1.9255676 1.9255714 3.0073547 4.5372047 3.0073547 7.260372l0 0l0 0c0 5.670702 -4.5970154 10.267717 -10.2677 10.267717l-49.952774 0c-5.6707 0 -10.267715 -4.5970154 -10.267715 -10.267717z" fill-rule="evenodd"/><path fill="#00375c" d="m227.65097 32.467033l0 -7.453125l1.78125 0q1.8125 0 2.6875 1.0q0.875 0.984375 0.875 2.71875q0 1.734375 -0.875 2.734375q-0.875 1.0 -2.6875 1.0l-1.78125 0zm1.125 -1.046875l0.625 0q1.296875 0 1.875 -0.71875q0.578125 -0.734375 0.578125 -1.96875q0 -1.21875 -0.578125 -1.953125q-0.578125 -0.734375 -1.875 -0.734375l-0.625 0l0 5.375zm7.378189 1.171875q-0.625 0 -1.0625 -0.21875q-0.421875 -0.21875 -0.640625 -0.578125q-0.203125 -0.375 -0.203125 -0.8125q0 -0.78125 0.5625 -1.21875q0.578125 -0.4375 1.625 -0.4375l1.359375 0l0 -0.109375q0 -1.1875 -1.109375 -1.1875q-0.453125 0 -0.78125 0.203125q-0.3125 0.1875 -0.40625 0.625l-1.140625 0q0.09375 -0.828125 0.71875 -1.3125q0.640625 -0.484375 1.609375 -0.484375q1.171875 0 1.703125 0.578125q0.53125 0.5625 0.53125 1.578125l0 3.25l-0.953125 0l-0.09375 -0.78125l-0.078125 0q-0.234375 0.375 -0.59375 0.640625q-0.34375 0.265625 -1.046875 0.265625zm0.21875 -0.953125q0.6875 0 1.03125 -0.40625q0.34375 -0.421875 0.375 -1.078125l-1.234375 0q-0.609375 0 -0.859375 0.203125q-0.25 0.1875 -0.25 0.546875q0 0.34375 0.25 0.546875q0.25 0.1875 0.6875 0.1875zm7.221939 0.828125q-0.765625 0 -1.234375 -0.375q-0.453125 -0.375 -0.453125 -1.34375l0 -2.609375l-1.328125 0l0 -0.953125l0.78125 0q0.546875 0 0.640625 -0.53125l0.15625 -0.859375l0.875 0l0 1.390625l2.09375 0l0 0.953125l-2.09375 0l0 2.578125q0 0.421875 0.1875 0.59375q0.1875 0.15625 0.640625 0.15625l1.25 0l0 1.0l-1.515625 0zm5.346939 0.125q-0.625 0 -1.0625 -0.21875q-0.421875 -0.21875 -0.640625 -0.578125q-0.203125 -0.375 -0.203125 -0.8125q0 -0.78125 0.5625 -1.21875q0.578125 -0.4375 1.625 -0.4375l1.359375 0l0 -0.109375q0 -1.1875 -1.109375 -1.1875q-0.453125 0 -0.78125 0.203125q-0.3125 0.1875 -0.40625 0.625l-1.140625 0q0.09375 -0.828125 0.71875 -1.3125q0.640625 -0.484375 1.609375 -0.484375q1.171875 0 1.703125 0.578125q0.53125 0.5625 0.53125 1.578125l0 3.25l-0.953125 0l-0.09375 -0.78125l-0.078125 0q-0.234375 0.375 -0.59375 0.640625q-0.34375 0.265625 -1.046875 0.265625zm0.21875 -0.953125q0.6875 0 1.03125 -0.40625q0.34375 -0.421875 0.375 -1.078125l-1.234375 0q-0.609375 0 -0.859375 0.203125q-0.25 0.1875 -0.25 0.546875q0 0.34375 0.25 0.546875q0.25 0.1875 0.6875 0.1875zm6.690689 0.953125q-1.046875 0 -1.671875 -0.484375q-0.609375 -0.5 -0.6875 -1.296875l1.15625 0q0.0625 0.359375 0.375 0.59375q0.328125 0.234375 0.84375 0.234375q0.5 0 0.765625 -0.203125q0.28125 -0.203125 0.28125 -0.484375q0 -0.40625 -0.328125 -0.546875q-0.328125 -0.15625 -0.953125 -0.234375q-0.546875 -0.0625 -0.984375 -0.25q-0.4375 -0.1875 -0.703125 -0.5q-0.25 -0.328125 -0.25 -0.828125q0 -0.6875 0.53125 -1.109375q0.546875 -0.421875 1.53125 -0.421875q0.96875 0 1.5 0.4375q0.53125 0.421875 0.609375 1.1875l-1.078125 0q-0.046875 -0.328125 -0.34375 -0.5q-0.28125 -0.1875 -0.703125 -0.1875q-0.4375 0 -0.703125 0.171875q-0.25 0.15625 -0.25 0.421875q0 0.578125 1.234375 0.703125q0.59375 0.0625 1.046875 0.21875q0.453125 0.15625 0.71875 0.484375q0.28125 0.3125 0.28125 0.90625q0 0.46875 -0.28125 0.859375q-0.28125 0.390625 -0.78125 0.609375q-0.484375 0.21875 -1.15625 0.21875zm6.425049 0q-0.765625 0 -1.359375 -0.34375q-0.578125 -0.34375 -0.921875 -0.953125q-0.328125 -0.625 -0.328125 -1.453125q0 -0.828125 0.328125 -1.453125q0.328125 -0.625 0.921875 -0.96875q0.59375 -0.359375 1.359375 -0.359375q0.765625 0 1.3125 0.34375q0.5625 0.34375 0.859375 0.921875q0.3125 0.578125 0.3125 1.265625q0 0.109375 0 0.234375q0 0.109375 0 0.265625l-3.984375 0q0.0625 0.734375 0.484375 1.109375q0.421875 0.375 1.0 0.375q0.5 0 0.796875 -0.203125q0.296875 -0.203125 0.421875 -0.5625l1.140625 0q-0.1875 0.75 -0.796875 1.265625q-0.609375 0.515625 -1.546875 0.515625zm0 -4.5625q-0.53125 0 -0.9375 0.328125q-0.40625 0.3125 -0.515625 0.875l2.8125 0q-0.046875 -0.53125 -0.421875 -0.859375q-0.359375 -0.34375 -0.9375 -0.34375zm6.8938293 4.4375q-0.765625 0 -1.234375 -0.375q-0.453125 -0.375 -0.453125 -1.34375l0 -2.609375l-1.328125 0l0 -0.953125l0.78125 0q0.546875 0 0.640625 -0.53125l0.15625 -0.859375l0.875 0l0 1.390625l2.09375 0l0 0.953125l-2.09375 0l0 2.578125q0 0.421875 0.1875 0.59375q0.1875 0.15625 0.640625 0.15625l1.25 0l0 1.0l-1.515625 0z" fill-rule="nonzero"/><path fill="#000000" fill-opacity="0.0" d="m72.88976 77.79527l34.866142 -0.15747833" fill-rule="evenodd"/><path stroke="#00375c" stroke-width="2.0" stroke-linejoin="round" stroke-linecap="butt" d="m80.46969 77.76104l15.286339 -0.06904602" fill-rule="evenodd"/><path fill="#00375c" stroke="#00375c" stroke-width="2.0" stroke-linecap="butt" d="m80.48454 81.051l-6.579933 0.029724121l-0.029716492 -6.579933l6.579933 -0.029724121l0.029716492 6.579933z" fill-rule="nonzero"/><path fill="#00375c" stroke="#00375c" stroke-width="2.0" stroke-linecap="butt" d="m95.77095 80.99543l9.06118 -3.344429l-9.091026 -3.262436z" fill-rule="evenodd"/><path fill="#000000" fill-opacity="0.0" d="m182.85564 77.40157l37.133865 -0.22047424" fill-rule="evenodd"/><path stroke="#00375c" stroke-width="2.0" stroke-linejoin="round" stroke-linecap="butt" d="m190.43552 77.35657l17.554184 -0.10421753" fill-rule="evenodd"/><path fill="#00375c" stroke="#00375c" stroke-width="2.0" stroke-linecap="butt" d="m190.45505 80.646515l-6.579895 0.0390625l-0.0390625 -6.5798798l6.5798798 -0.03907013l0.03907776 6.5798874z" fill-rule="nonzero"/><path fill="#00375c" stroke="#00375c" stroke-width="2.0" stroke-linecap="butt" d="m208.00932 80.555756l9.056427 -3.3572922l-9.095657 -3.2495193z" fill-rule="evenodd"/><path fill="#38761d" d="m154.03674 77.40157l0 0c0 -7.9581146 6.4513397 -14.409447 14.409454 -14.409447l0 0c3.8216248 0 7.486725 1.5181351 10.189011 4.2204285c2.702301 2.7022934 4.2204285 6.3673935 4.2204285 10.189018l0 0c0 7.9581223 -6.4513245 14.409447 -14.409439 14.409447l0 0c-7.9581146 0 -14.409454 -6.4513245 -14.409454 -14.409447z" fill-rule="evenodd"/><path stroke="#00375c" stroke-width="1.0" stroke-linejoin="round" stroke-linecap="butt" d="m154.03674 77.40157l0 0c0 -7.9581146 6.4513397 -14.409447 14.409454 -14.409447l0 0c3.8216248 0 7.486725 1.5181351 10.189011 4.2204285c2.702301 2.7022934 4.2204285 6.3673935 4.2204285 10.189018l0 0c0 7.9581223 -6.4513245 14.409447 -14.409439 14.409447l0 0c-7.9581146 0 -14.409454 -6.4513245 -14.409454 -14.409447z" fill-rule="evenodd"/></g></svg>