<svg version="1.1" viewBox="0.0 0.0 565.2178477690288 286.0866141732283" fill="none" stroke="none" stroke-linecap="square" stroke-miterlimit="10" xmlns:xlink="http://www.w3.org/1999/xlink" xmlns="http://www.w3.org/2000/svg"><clipPath id="p.0"><path d="m0 0l565.21783 0l0 286.0866l-565.21783 0l0 -286.0866z" clip-rule="nonzero"/></clipPath><g clip-path="url(#p.0)"><path fill="#000000" fill-opacity="0.0" d="m0 0l565.21783 0l0 286.0866l-565.21783 0z" fill-rule="evenodd"/><path fill="#cfe2f3" d="m16.8084 18.461395l0 0c0 -2.9919653 2.4254665 -5.417432 5.417431 -5.417432l127.59033 0c1.4367981 0 2.814743 0.5707636 3.8307037 1.586729c1.0159607 1.0159655 1.586731 2.3939104 1.586731 3.8307028l0 21.669075c0 2.9919624 -2.4254608 5.417431 -5.4174347 5.417431l-127.59033 0c-2.9919643 0 -5.417431 -2.4254684 -5.417431 -5.417431z" fill-rule="evenodd"/><path stroke="#000000" stroke-width="1.0" stroke-linejoin="round" stroke-linecap="butt" d="m16.8084 18.461395l0 0c0 -2.9919653 2.4254665 -5.417432 5.417431 -5.417432l127.59033 0c1.4367981 0 2.814743 0.5707636 3.8307037 1.586729c1.0159607 1.0159655 1.586731 2.3939104 1.586731 3.8307028l0 21.669075c0 2.9919624 -2.4254608 5.417431 -5.4174347 5.417431l-127.59033 0c-2.9919643 0 -5.417431 -2.4254684 -5.417431 -5.417431z" fill-rule="evenodd"/><path fill="#000000" d="m65.1897 36.21593l0 -13.359377l5.921875 0q1.78125 0 2.703125 0.359375q0.9375 0.359375 1.484375 1.28125q0.5625 0.90625 0.5625 2.015625q0 1.40625 -0.921875 2.390625q-0.921875 0.96875 -2.84375 1.234375q0.703125 0.34375 1.078125 0.671875q0.765625 0.703125 1.453125 1.7656269l2.328125 3.640625l-2.21875 0l-1.765625 -2.78125q-0.78125 -1.203125 -1.28125 -1.8281269q-0.5 -0.640625 -0.90625 -0.890625q-0.390625 -0.265625 -0.796875 -0.359375q-0.296875 -0.078125 -0.984375 -0.078125l-2.046875 0l0 5.937502l-1.765625 0zm1.765625 -7.453127l3.796875 0q1.21875 0 1.890625 -0.25q0.6875 -0.265625 1.046875 -0.8125q0.359375 -0.546875 0.359375 -1.1875q0 -0.953125 -0.6875 -1.5625q-0.6875 -0.609375 -2.1875 -0.609375l-4.21875 0l0 4.421875zm18.097946 4.343752l1.6875 0.203125q-0.40625 1.484375 -1.484375 2.3125q-1.078125 0.8125 -2.765625 0.8125q-2.125 0 -3.375 -1.296875q-1.234375 -1.3125 -1.234375 -3.671877q0 -2.453125 1.25 -3.796875q1.265625 -1.34375 3.265625 -1.34375q1.9375 0 3.15625 1.328125q1.234375 1.3125 1.234375 3.703125q0 0.15625 0 0.4375l-7.21875 0q0.09375 1.5937519 0.90625 2.453127q0.8125 0.84375 2.015625 0.84375q0.90625 0 1.546875 -0.46875q0.640625 -0.484375 1.015625 -1.515625zm-5.390625 -2.656252l5.40625 0q-0.109375 -1.21875 -0.625 -1.828125q-0.78125 -0.953125 -2.03125 -0.953125q-1.125 0 -1.90625 0.765625q-0.765625 0.75 -0.84375 2.015625zm15.453842 4.578127q-0.921875 0.765625 -1.765625 1.09375q-0.828125 0.3125 -1.796875 0.3125q-1.59375 0 -2.453125 -0.78125q-0.859375 -0.78125 -0.859375 -1.984375q0 -0.71875 0.328125 -1.296875q0.328125 -0.5937519 0.84375 -0.9375019q0.53125 -0.359375 1.1875 -0.546875q0.46875 -0.125 1.453125 -0.25q1.984375 -0.234375 2.921875 -0.5625q0.015625 -0.34375 0.015625 -0.421875q0 -1.0 -0.46875 -1.421875q-0.625 -0.546875 -1.875 -0.546875q-1.15625 0 -1.703125 0.40625q-0.546875 0.40625 -0.8125 1.421875l-1.609375 -0.21875q0.21875 -1.015625 0.71875 -1.640625q0.5 -0.640625 1.453125 -0.984375q0.953125 -0.34375 2.1875 -0.34375q1.25 0 2.015625 0.296875q0.78125 0.28125 1.140625 0.734375q0.375 0.4375 0.515625 1.109375q0.078125 0.421875 0.078125 1.515625l0 2.187502q0 2.28125 0.109375 2.890625q0.109375 0.59375 0.40625 1.15625l-1.703125 0q-0.265625 -0.515625 -0.328125 -1.1875zm-0.140625 -3.671877q-0.890625 0.375 -2.671875 0.625q-1.015625 0.1406269 -1.4375 0.3281269q-0.421875 0.1875 -0.65625 0.53125q-0.21875 0.34375 -0.21875 0.78125q0 0.65625 0.5 1.09375q0.5 0.4375 1.453125 0.4375q0.9375 0 1.671875 -0.40625q0.75 -0.421875 1.09375 -1.140625q0.265625 -0.5625 0.265625 -1.6406269l0 -0.609375zm10.469467 4.859377l0 -1.21875q-0.90625 1.4375 -2.703125 1.4375q-1.15625 0 -2.125 -0.640625q-0.96875 -0.640625 -1.5 -1.78125q-0.53125 -1.140625 -0.53125 -2.625002q0 -1.453125 0.484375 -2.625q0.484375 -1.1875 1.4375 -1.8125q0.96875 -0.625 2.171875 -0.625q0.875 0 1.546875 0.375q0.6875 0.359375 1.109375 0.953125l0 -4.796875l1.640625 0l0 13.359377l-1.53125 0zm-5.171875 -4.828127q0 1.8593769 0.78125 2.781252q0.78125 0.921875 1.84375 0.921875q1.078125 0 1.828125 -0.875q0.75 -0.890625 0.75 -2.687502q0 -1.984375 -0.765625 -2.90625q-0.765625 -0.9375 -1.890625 -0.9375q-1.078125 0 -1.8125 0.890625q-0.734375 0.890625 -0.734375 2.8125z" fill-rule="nonzero"/><path fill="#cfe2f3" d="m112.96588 69.723206l0 0c0 -2.9919662 2.4254608 -5.4174347 5.417427 -5.4174347l127.59034 0c1.4367828 0 2.8147278 0.57077026 3.8307037 1.586731c1.0159607 1.0159683 1.586731 2.3939133 1.586731 3.8307037l0 21.669075c0 2.9919662 -2.425476 5.417427 -5.4174347 5.417427l-127.59034 0c-2.9919662 0 -5.417427 -2.4254608 -5.417427 -5.417427z" fill-rule="evenodd"/><path stroke="#000000" stroke-width="1.0" stroke-linejoin="round" stroke-linecap="butt" d="m112.96588 69.723206l0 0c0 -2.9919662 2.4254608 -5.4174347 5.417427 -5.4174347l127.59034 0c1.4367828 0 2.8147278 0.57077026 3.8307037 1.586731c1.0159607 1.0159683 1.586731 2.3939133 1.586731 3.8307037l0 21.669075c0 2.9919662 -2.425476 5.417427 -5.4174347 5.417427l-127.59034 0c-2.9919662 0 -5.417427 -2.4254608 -5.417427 -5.417427z" fill-rule="evenodd"/><path fill="#000000" d="m165.42299 87.47774l0 -13.359375l2.65625 0l3.15625 9.453125q0.4375 1.328125 0.640625 1.984375q0.234375 -0.734375 0.703125 -2.140625l3.203125 -9.296875l2.375 0l0 13.359375l-1.703125 0l0 -11.171875l-3.875 11.171875l-1.59375 0l-3.859375 -11.375l0 11.375l-1.703125 0zm21.697052 -1.1875q-0.921875 0.765625 -1.765625 1.09375q-0.828125 0.3125 -1.796875 0.3125q-1.59375 0 -2.453125 -0.78125q-0.859375 -0.78125 -0.859375 -1.984375q0 -0.71875 0.328125 -1.296875q0.328125 -0.59375 0.84375 -0.9375q0.53125 -0.359375 1.1875 -0.546875q0.46875 -0.125 1.453125 -0.25q1.984375 -0.234375 2.921875 -0.5625q0.015625 -0.34375 0.015625 -0.421875q0 -1.0 -0.46875 -1.421875q-0.625 -0.546875 -1.875 -0.546875q-1.15625 0 -1.703125 0.40625q-0.546875 0.40625 -0.8125 1.421875l-1.609375 -0.21875q0.21875 -1.015625 0.71875 -1.640625q0.5 -0.640625 1.453125 -0.984375q0.953125 -0.34375 2.1875 -0.34375q1.25 0 2.015625 0.296875q0.78125 0.28125 1.140625 0.734375q0.375 0.4375 0.515625 1.109375q0.078125 0.421875 0.078125 1.515625l0 2.1875q0 2.28125 0.109375 2.890625q0.109375 0.59375 0.40625 1.15625l-1.703125 0q-0.265625 -0.515625 -0.328125 -1.1875zm-0.140625 -3.671875q-0.890625 0.375 -2.671875 0.625q-1.015625 0.140625 -1.4375 0.328125q-0.421875 0.1875 -0.65625 0.53125q-0.21875 0.34375 -0.21875 0.78125q0 0.65625 0.5 1.09375q0.5 0.4375 1.453125 0.4375q0.9375 0 1.671875 -0.40625q0.75 -0.421875 1.09375 -1.140625q0.265625 -0.5625 0.265625 -1.640625l0 -0.609375zm4.203842 8.5625l0 -13.375l1.484375 0l0 1.25q0.53125 -0.734375 1.1875 -1.09375q0.671875 -0.375 1.625 -0.375q1.234375 0 2.171875 0.640625q0.953125 0.625 1.4375 1.796875q0.484375 1.15625 0.484375 2.546875q0 1.484375 -0.53125 2.671875q-0.53125 1.1875 -1.546875 1.828125q-1.015625 0.625 -2.140625 0.625q-0.8125 0 -1.46875 -0.34375q-0.65625 -0.34375 -1.0625 -0.875l0 4.703125l-1.640625 0zm1.484375 -8.484375q0 1.859375 0.75 2.765625q0.765625 0.890625 1.828125 0.890625q1.09375 0 1.875 -0.921875q0.78125 -0.9375 0.78125 -2.875q0 -1.84375 -0.765625 -2.765625q-0.75 -0.921875 -1.8125 -0.921875q-1.046875 0 -1.859375 0.984375q-0.796875 0.96875 -0.796875 2.84375z" fill-rule="nonzero"/><path fill="#cfe2f3" d="m206.55643 121.85706l0 0c0 -2.9919662 2.425476 -5.417427 5.4174347 -5.417427l127.59035 0c1.4367676 0 2.8147278 0.57076263 3.8306885 1.5867233c1.0159607 1.0159683 1.586731 2.3939133 1.586731 3.8307037l0 21.669075c0 2.9919586 -2.425476 5.4174347 -5.4174194 5.4174347l-127.59035 0c-2.9919586 0 -5.4174347 -2.425476 -5.4174347 -5.4174347z" fill-rule="evenodd"/><path stroke="#000000" stroke-width="1.0" stroke-linejoin="round" stroke-linecap="butt" d="m206.55643 121.85706l0 0c0 -2.9919662 2.425476 -5.417427 5.4174347 -5.417427l127.59035 0c1.4367676 0 2.8147278 0.57076263 3.8306885 1.5867233c1.0159607 1.0159683 1.586731 2.3939133 1.586731 3.8307037l0 21.669075c0 2.9919586 -2.425476 5.4174347 -5.4174194 5.4174347l-127.59035 0c-2.9919586 0 -5.4174347 -2.425476 -5.4174347 -5.4174347z" fill-rule="evenodd"/><path fill="#000000" d="m259.01355 139.6116l0 -13.359383l2.65625 0l3.15625 9.453133q0.4375 1.328125 0.640625 1.984375q0.234375 -0.734375 0.703125 -2.140625l3.203125 -9.296883l2.375 0l0 13.359383l-1.703125 0l0 -11.171875l-3.875 11.171875l-1.59375 0l-3.859375 -11.375l0 11.375l-1.703125 0zm21.697021 -1.1875q-0.921875 0.765625 -1.765625 1.09375q-0.828125 0.3125 -1.796875 0.3125q-1.59375 0 -2.453125 -0.78125q-0.859375 -0.78125 -0.859375 -1.984375q0 -0.71875 0.328125 -1.296875q0.328125 -0.59375 0.84375 -0.9375q0.53125 -0.359375 1.1875 -0.546875q0.46875 -0.125 1.453125 -0.25q1.984375 -0.234375 2.921875 -0.5625q0.015625 -0.34375 0.015625 -0.421875q0 -1.0 -0.46875 -1.421875q-0.625 -0.546875 -1.875 -0.546875q-1.15625 0 -1.703125 0.40625q-0.546875 0.40625 -0.8125 1.421875l-1.609375 -0.21875q0.21875 -1.015625 0.71875 -1.640625q0.5 -0.640625 1.453125 -0.984375q0.953125 -0.34375 2.1875 -0.34375q1.25 0 2.015625 0.296875q0.78125 0.28125 1.140625 0.734375q0.375 0.4375 0.515625 1.109375q0.078125 0.421875 0.078125 1.515625l0 2.1875q0 2.28125 0.109375 2.890625q0.109375 0.59375 0.40625 1.15625l-1.703125 0q-0.265625 -0.515625 -0.328125 -1.1875zm-0.140625 -3.671875q-0.890625 0.375 -2.671875 0.625q-1.015625 0.140625 -1.4375 0.328125q-0.421875 0.1875 -0.65625 0.53125q-0.21875 0.34375 -0.21875 0.78125q0 0.65625 0.5 1.09375q0.5 0.4375 1.453125 0.4375q0.9375 0 1.671875 -0.40625q0.75 -0.421875 1.09375 -1.140625q0.265625 -0.5625 0.265625 -1.640625l0 -0.609375zm4.2038574 8.5625l0 -13.375l1.484375 0l0 1.25q0.53125 -0.734375 1.1875 -1.09375q0.671875 -0.375 1.625 -0.375q1.234375 0 2.171875 0.640625q0.953125 0.625 1.4375 1.796875q0.484375 1.15625 0.484375 2.546875q0 1.484375 -0.53125 2.671875q-0.53125 1.1875 -1.546875 1.828125q-1.015625 0.625 -2.140625 0.625q-0.8125 0 -1.46875 -0.34375q-0.65625 -0.34375 -1.0625 -0.875l0 4.703125l-1.640625 0zm1.484375 -8.484375q0 1.859375 0.75 2.765625q0.765625 0.890625 1.828125 0.890625q1.09375 0 1.875 -0.921875q0.78125 -0.9375 0.78125 -2.875q0 -1.84375 -0.765625 -2.765625q-0.75 -0.921875 -1.8125 -0.921875q-1.046875 0 -1.859375 0.984375q-0.796875 0.96875 -0.796875 2.84375z" fill-rule="nonzero"/><path fill="#ffe599" d="m119.456696 54.926838l12.681107 -6.3405533l12.681091 6.3405533l-12.681091 6.3405495z" fill-rule="evenodd"/><path stroke="#000000" stroke-width="1.0" stroke-linejoin="round" stroke-linecap="butt" d="m119.456696 54.926838l12.681107 -6.3405533l12.681091 6.3405533l-12.681091 6.3405495z" fill-rule="evenodd"/><path fill="#000000" fill-opacity="0.0" d="m86.020996 45.5479c0 4.692913 16.724411 9.385826 33.448822 9.385826" fill-rule="evenodd"/><path stroke="#000000" stroke-width="1.0" stroke-linejoin="round" stroke-linecap="butt" d="m86.020996 45.5479c0 2.3464546 4.1811066 4.692913 10.452759 6.452755c3.135826 0.87992096 6.7942886 1.6131897 10.714073 2.1264763c1.9598923 0.2566452 3.985115 0.4582939 6.0429993 0.5957794l0.24217987 0.015201569" fill-rule="evenodd"/><path fill="#000000" stroke="#000000" stroke-width="1.0" stroke-linecap="butt" d="m113.41916 56.38897l4.589531 -1.502903l-4.4818344 -1.7988052z" fill-rule="evenodd"/><path fill="#000000" fill-opacity="0.0" d="m144.8189 54.926838c18.67717 0 37.35434 4.692913 37.35434 9.38583" fill-rule="evenodd"/><path stroke="#000000" stroke-width="1.0" stroke-linejoin="round" stroke-linecap="butt" d="m144.8189 54.926838c9.338593 0 18.67717 1.1732292 25.681107 2.9330711c1.7509918 0.43996048 3.3560486 0.916584 4.7787323 1.4207039c0.7113495 0.25206375 1.3770599 0.5109978 1.9926605 0.7756653c0.15388489 0.06616211 0.30464172 0.13268661 0.4521942 0.19955063l0.020324707 0.009464264" fill-rule="evenodd"/><path fill="#000000" stroke="#000000" stroke-width="1.0" stroke-linecap="butt" d="m176.62973 61.48463l4.4642944 1.8418884l-2.2359161 -4.280567z" fill-rule="evenodd"/><path fill="#ffe599" d="m215.62204 107.06069l12.681107 -6.3405457l12.681107 6.3405457l-12.681107 6.3405533z" fill-rule="evenodd"/><path stroke="#000000" stroke-width="1.0" stroke-linejoin="round" stroke-linecap="butt" d="m215.62204 107.06069l12.681107 -6.3405457l12.681107 6.3405457l-12.681107 6.3405533z" fill-rule="evenodd"/><path fill="#000000" fill-opacity="0.0" d="m182.17848 96.80971c0 5.1181107 16.724411 10.236221 33.448822 10.236221" fill-rule="evenodd"/><path stroke="#000000" stroke-width="1.0" stroke-linejoin="round" stroke-linecap="butt" d="m182.17848 96.80971c0 2.5590591 4.1810913 5.1181107 10.452759 7.037407c3.1358185 0.9596405 6.794281 1.759346 10.714066 2.3191452c1.9598999 0.27989197 3.9851227 0.49980927 6.0429993 0.6497574l0.2427826 0.016616821" fill-rule="evenodd"/><path fill="#000000" stroke="#000000" stroke-width="1.0" stroke-linecap="butt" d="m209.57237 108.48332l4.5939484 -1.489357l-4.4765167 -1.8120193z" fill-rule="evenodd"/><path fill="#000000" fill-opacity="0.0" d="m240.98425 107.06069c17.385834 0 34.771667 4.692917 34.771667 9.385834" fill-rule="evenodd"/><path stroke="#000000" stroke-width="1.0" stroke-linejoin="round" stroke-linecap="butt" d="m240.98425 107.06069c8.692917 0 17.385834 1.173233 23.905518 2.933075c1.6299133 0.43995667 3.1240234 0.9165878 4.4483337 1.4207077c0.6621399 0.25205994 1.2818604 0.5109863 1.8548584 0.77565765l0.22799683 0.10808563" fill-rule="evenodd"/><path fill="#000000" stroke="#000000" stroke-width="1.0" stroke-linecap="butt" d="m270.279 113.49158l4.4207153 1.9442062l-2.1367493 -4.3309174z" fill-rule="evenodd"/><path fill="#cfe2f3" d="m302.7139 173.11691l0 0c0 -2.9919739 2.425476 -5.4174347 5.41745 -5.4174347l127.59033 0c1.4367981 0 2.8147278 0.570755 3.8306885 1.586731c1.0159912 1.0159607 1.586731 2.3939056 1.586731 3.8307037l0 21.669067c0 2.9919586 -2.4254456 5.4174347 -5.4174194 5.4174347l-127.59033 0c-2.9919739 0 -5.41745 -2.425476 -5.41745 -5.4174347z" fill-rule="evenodd"/><path stroke="#000000" stroke-width="1.0" stroke-linejoin="round" stroke-linecap="butt" d="m302.7139 173.11691l0 0c0 -2.9919739 2.425476 -5.4174347 5.41745 -5.4174347l127.59033 0c1.4367981 0 2.8147278 0.570755 3.8306885 1.586731c1.0159912 1.0159607 1.586731 2.3939056 1.586731 3.8307037l0 21.669067c0 2.9919586 -2.4254456 5.4174347 -5.4174194 5.4174347l-127.59033 0c-2.9919739 0 -5.41745 -2.425476 -5.41745 -5.4174347z" fill-rule="evenodd"/><path fill="#000000" d="m355.17102 190.87144l0 -13.359375l2.65625 0l3.15625 9.453125q0.4375 1.328125 0.640625 1.984375q0.234375 -0.734375 0.703125 -2.140625l3.203125 -9.296875l2.375 0l0 13.359375l-1.703125 0l0 -11.171875l-3.875 11.171875l-1.59375 0l-3.859375 -11.375l0 11.375l-1.703125 0zm21.697052 -1.1875q-0.921875 0.765625 -1.765625 1.09375q-0.828125 0.3125 -1.796875 0.3125q-1.59375 0 -2.453125 -0.78125q-0.859375 -0.78125 -0.859375 -1.984375q0 -0.71875 0.328125 -1.296875q0.328125 -0.59375 0.84375 -0.9375q0.53125 -0.359375 1.1875 -0.546875q0.46875 -0.125 1.453125 -0.25q1.984375 -0.234375 2.921875 -0.5625q0.015625 -0.34375 0.015625 -0.421875q0 -1.0 -0.46875 -1.421875q-0.625 -0.546875 -1.875 -0.546875q-1.15625 0 -1.703125 0.40625q-0.546875 0.40625 -0.8125 1.421875l-1.609375 -0.21875q0.21875 -1.015625 0.71875 -1.640625q0.5 -0.640625 1.453125 -0.984375q0.953125 -0.34375 2.1875 -0.34375q1.25 0 2.015625 0.296875q0.78125 0.28125 1.140625 0.734375q0.375 0.4375 0.515625 1.109375q0.078125 0.421875 0.078125 1.515625l0 2.1875q0 2.28125 0.109375 2.890625q0.109375 0.59375 0.40625 1.15625l-1.703125 0q-0.265625 -0.515625 -0.328125 -1.1875zm-0.140625 -3.671875q-0.890625 0.375 -2.671875 0.625q-1.015625 0.140625 -1.4375 0.328125q-0.421875 0.1875 -0.65625 0.53125q-0.21875 0.34375 -0.21875 0.78125q0 0.65625 0.5 1.09375q0.5 0.4375 1.453125 0.4375q0.9375 0 1.671875 -0.40625q0.75 -0.421875 1.09375 -1.140625q0.265625 -0.5625 0.265625 -1.640625l0 -0.609375zm4.203827 8.5625l0 -13.375l1.484375 0l0 1.25q0.53125 -0.734375 1.1875 -1.09375q0.671875 -0.375 1.625 -0.375q1.234375 0 2.171875 0.640625q0.953125 0.625 1.4375 1.796875q0.484375 1.15625 0.484375 2.546875q0 1.484375 -0.53125 2.671875q-0.53125 1.1875 -1.546875 1.828125q-1.015625 0.625 -2.140625 0.625q-0.8125 0 -1.46875 -0.34375q-0.65625 -0.34375 -1.0625 -0.875l0 4.703125l-1.640625 0zm1.484375 -8.484375q0 1.859375 0.75 2.765625q0.765625 0.890625 1.828125 0.890625q1.09375 0 1.875 -0.921875q0.78125 -0.9375 0.78125 -2.875q0 -1.84375 -0.765625 -2.765625q-0.75 -0.921875 -1.8125 -0.921875q-1.046875 0 -1.859375 0.984375q-0.796875 0.96875 -0.796875 2.84375z" fill-rule="nonzero"/><path fill="#cfe2f3" d="m396.30447 225.25076l0 0c0 -2.9919586 2.4254456 -5.4174347 5.4174194 -5.4174347l127.59036 0c1.4367676 0 2.8146973 0.57077026 3.8306885 1.586731c1.0159302 1.015976 1.586731 2.3939056 1.586731 3.8307037l0 21.669083c0 2.9919586 -2.425476 5.4174194 -5.4174194 5.4174194l-127.59036 0c-2.9919739 0 -5.4174194 -2.4254608 -5.4174194 -5.4174194z" fill-rule="evenodd"/><path stroke="#000000" stroke-width="1.0" stroke-linejoin="round" stroke-linecap="butt" d="m396.30447 225.25076l0 0c0 -2.9919586 2.4254456 -5.4174347 5.4174194 -5.4174347l127.59036 0c1.4367676 0 2.8146973 0.57077026 3.8306885 1.586731c1.0159302 1.015976 1.586731 2.3939056 1.586731 3.8307037l0 21.669083c0 2.9919586 -2.425476 5.4174194 -5.4174194 5.4174194l-127.59036 0c-2.9919739 0 -5.4174194 -2.4254608 -5.4174194 -5.4174194z" fill-rule="evenodd"/><path fill="#000000" d="m446.31964 243.0053l0 -13.359375l9.015625 0l0 1.578125l-7.25 0l0 4.140625l6.265625 0l0 1.578125l-6.265625 0l0 6.0625l-1.765625 0zm11.099121 -11.46875l0 -1.890625l1.640625 0l0 1.890625l-1.640625 0zm0 11.46875l0 -9.671875l1.640625 0l0 9.671875l-1.640625 0zm4.097931 0l0 -13.359375l1.640625 0l0 13.359375l-1.640625 0zm7.7698364 -1.46875l0.234375 1.453125q-0.6875 0.140625 -1.234375 0.140625q-0.890625 0 -1.390625 -0.28125q-0.484375 -0.28125 -0.6875 -0.734375q-0.203125 -0.46875 -0.203125 -1.9375l0 -5.578125l-1.203125 0l0 -1.265625l1.203125 0l0 -2.390625l1.625 -0.984375l0 3.375l1.65625 0l0 1.265625l-1.65625 0l0 5.671875q0 0.6875 0.078125 0.890625q0.09375 0.203125 0.28125 0.328125q0.203125 0.109375 0.578125 0.109375q0.265625 0 0.71875 -0.0625zm8.230164 -1.640625l1.6875 0.203125q-0.40625 1.484375 -1.484375 2.3125q-1.078125 0.8125 -2.765625 0.8125q-2.125 0 -3.375 -1.296875q-1.234375 -1.3125 -1.234375 -3.671875q0 -2.453125 1.25 -3.796875q1.265625 -1.34375 3.265625 -1.34375q1.9375 0 3.15625 1.328125q1.234375 1.3125 1.234375 3.703125q0 0.15625 0 0.4375l-7.21875 0q0.09375 1.59375 0.90625 2.453125q0.8125 0.84375 2.015625 0.84375q0.90625 0 1.546875 -0.46875q0.640625 -0.484375 1.015625 -1.515625zm-5.390625 -2.65625l5.40625 0q-0.109375 -1.21875 -0.625 -1.828125q-0.78125 -0.953125 -2.03125 -0.953125q-1.125 0 -1.90625 0.765625q-0.765625 0.75 -0.84375 2.015625zm9.125732 5.765625l0 -9.671875l1.46875 0l0 1.46875q0.5625 -1.03125 1.03125 -1.359375q0.484375 -0.328125 1.0625 -0.328125q0.828125 0 1.6875 0.53125l-0.5625 1.515625q-0.609375 -0.359375 -1.203125 -0.359375q-0.546875 0 -0.96875 0.328125q-0.421875 0.328125 -0.609375 0.890625q-0.28125 0.875 -0.28125 1.921875l0 5.0625l-1.625 0z" fill-rule="nonzero"/><path fill="#ffe599" d="m309.2047 158.32054l12.681122 -6.340561l12.681091 6.340561l-12.681091 6.3405457z" fill-rule="evenodd"/><path stroke="#000000" stroke-width="1.0" stroke-linejoin="round" stroke-linecap="butt" d="m309.2047 158.32054l12.681122 -6.340561l12.681091 6.340561l-12.681091 6.3405457z" fill-rule="evenodd"/><path fill="#000000" fill-opacity="0.0" d="m275.76904 148.94357c0 4.692917 16.724396 9.3858185 33.44879 9.3858185" fill-rule="evenodd"/><path stroke="#000000" stroke-width="1.0" stroke-linejoin="round" stroke-linecap="butt" d="m275.76904 148.94357c0 2.3464508 4.1810913 4.692917 10.452728 6.452759c3.1358337 0.87991333 6.7943115 1.6131897 10.714081 2.1264648c1.9598999 0.25665283 3.9851074 0.45829773 6.0429993 0.5957794l0.2421875 0.015213013" fill-rule="evenodd"/><path fill="#000000" stroke="#000000" stroke-width="1.0" stroke-linecap="butt" d="m303.16718 159.78464l4.5895386 -1.5028992l-4.4818115 -1.7988129z" fill-rule="evenodd"/><path fill="#000000" fill-opacity="0.0" d="m334.56693 158.32054c18.677155 0 37.35434 4.692917 37.35434 9.3858185" fill-rule="evenodd"/><path stroke="#000000" stroke-width="1.0" stroke-linejoin="round" stroke-linecap="butt" d="m334.56693 158.32054c9.338593 0 18.677155 1.1732178 25.681091 2.933075c1.7510071 0.43995667 3.356079 0.9165802 4.778717 1.4207001c0.71136475 0.25205994 1.3771057 0.5109863 1.9926758 0.7756653c0.15390015 0.06616211 0.30465698 0.13269043 0.45220947 0.19953918l0.020355225 0.009475708" fill-rule="evenodd"/><path fill="#000000" stroke="#000000" stroke-width="1.0" stroke-linecap="butt" d="m366.37775 164.87833l4.464325 1.8418884l-2.2359314 -4.2805634z" fill-rule="evenodd"/><path fill="#ffe599" d="m405.3701 210.45439l12.681091 -6.3405457l12.681091 6.3405457l-12.681091 6.340561z" fill-rule="evenodd"/><path stroke="#000000" stroke-width="1.0" stroke-linejoin="round" stroke-linecap="butt" d="m405.3701 210.45439l12.681091 -6.3405457l12.681091 6.3405457l-12.681091 6.340561z" fill-rule="evenodd"/><path fill="#000000" fill-opacity="0.0" d="m371.9265 200.20341c0 5.118103 16.724396 10.236221 33.448822 10.236221" fill-rule="evenodd"/><path stroke="#000000" stroke-width="1.0" stroke-linejoin="round" stroke-linecap="butt" d="m371.9265 200.20341c0 2.5590515 4.1810913 5.118103 10.452759 7.0373993c3.1358337 0.9596405 6.794281 1.7593536 10.714081 2.3191376c1.9598694 0.27990723 3.9851074 0.4998169 6.0429688 0.6497803l0.24276733 0.016601562" fill-rule="evenodd"/><path fill="#000000" stroke="#000000" stroke-width="1.0" stroke-linecap="butt" d="m399.3204 211.87703l4.593933 -1.4893646l-4.4765015 -1.8120117z" fill-rule="evenodd"/><path fill="#000000" fill-opacity="0.0" d="m430.73227 210.45439c17.385834 0 34.771667 4.692917 34.771667 9.385834" fill-rule="evenodd"/><path stroke="#000000" stroke-width="1.0" stroke-linejoin="round" stroke-linecap="butt" d="m430.73227 210.45439c8.692932 0 17.385834 1.173233 23.905518 2.933075c1.6299438 0.43995667 3.1240234 0.9165802 4.4483337 1.4207001c0.6621704 0.2520752 1.2818604 0.5110016 1.8549194 0.7756653l0.22796631 0.10809326" fill-rule="evenodd"/><path fill="#000000" stroke="#000000" stroke-width="1.0" stroke-linecap="butt" d="m460.02704 216.88528l4.420685 1.9441986l-2.1367188 -4.3309174z" fill-rule="evenodd"/></g></svg>