<svg version="1.1" xmlns="http://www.w3.org/2000/svg" viewBox="0 0 694.2973035207929 188.4102896967281" width="1388.5946070415857" height="376.8205793934562">
  <!-- svg-source:excalidraw -->
  
  <defs>
    <style class="style-fonts">
      @font-face {
        font-family: "Virgil";
        src: url("https://excalidraw.com/Virgil.woff2");
      }
      @font-face {
        font-family: "Cascadia";
        src: url("https://excalidraw.com/Cascadia.woff2");
      }
    </style>
  </defs>
  <rect x="0" y="0" width="694.2973035207929" height="188.4102896967281" fill="#ffffff"></rect><g stroke-linecap="round" transform="translate(38.82934989766835 10) rotate(0 107 34)"><path d="M-0.15 -3.32 L215.14 0.78 L215.38 69.89 L1.98 66.54" stroke="none" stroke-width="0" fill="white"></path><path d="M0.58 2.48 C86.93 -0.89, 168.6 1.25, 215.57 2.2 M-0.61 1.5 C82.65 -1.6, 163.67 -0.26, 213.77 -0.38 M213.4 -3.08 C215.1 26.86, 214.46 53.58, 215 69.04 M214.56 1.36 C213.96 14.91, 213.78 30.01, 213.44 66.27 M211.19 65.51 C134.38 68.24, 58.8 72.26, -2.65 68.2 M214.84 66.91 C168.1 62.99, 120.73 63.51, -0.48 69.62 M-3.62 64.28 C-1.91 49.82, 2.14 27.41, 2.1 1.44 M-0.11 67.99 C1.84 51.89, 2.25 35.24, -0.99 -0.16" stroke="#000000" stroke-width="1" fill="none"></path></g><g transform="translate(73.9694255812621 31.5) rotate(0 71.85992431640625 12.5)"><text x="71.85992431640625" y="0" font-family="Virgil, Segoe UI Emoji" font-size="20px" fill="#000000" text-anchor="middle" style="white-space: pre;" direction="ltr" dominant-baseline="text-before-edge">AlgorithmConfig</text></g><g stroke-linecap="round" transform="translate(314.2973035207929 14.348028903556724) rotate(0 185 59)"><path d="M-1.8 0.84 L366.66 -2.29 L369.56 115.44 L-3.91 120.66" stroke="none" stroke-width="0" fill="white"></path><path d="M1.55 -0.44 C98.4 1.06, 202.13 0.19, 371.98 -2.25 M0.55 1.19 C140.58 -0.04, 280.44 1.27, 370.62 -0.73 M367.08 0.16 C374.08 28.95, 369.45 59.46, 366.83 119.63 M371.75 1.91 C369.88 40.38, 372.37 80.66, 368.6 116.2 M370.8 119.38 C285.74 116.34, 195.15 117.32, 0.02 116.96 M370.61 118.07 C250.99 121.96, 133.12 122.38, 0.93 117.49 M3.82 115.39 C2.87 90.22, 2.79 51.39, 0.15 2.11 M1.23 116.01 C1.2 82.4, 0.91 44.49, 0.78 -0.46" stroke="#000000" stroke-width="1" fill="none"></path></g><g transform="translate(378.94741185819527 19.348028903556724) rotate(0 120.34989166259766 12.5)"><text x="120.34989166259766" y="0" font-family="Virgil, Segoe UI Emoji" font-size="20px" fill="#000000" text-anchor="middle" style="white-space: pre;" direction="ltr" dominant-baseline="text-before-edge">SingleAgentRLModuleSpec</text></g><g stroke-linecap="round" transform="translate(10 110.41028969672811) rotate(0 137.49999999999997 34)"><path d="M1.38 0.7 L276.55 -2.8 L271.16 67 L1.32 65.41" stroke="none" stroke-width="0" fill="white"></path><path d="M-2.37 2.52 C75.76 1.28, 153.38 0.19, 274.35 -3.02 M0.55 0.47 C71.32 2.71, 140.85 1.7, 273.9 0.67 M278.62 -3.64 C275.35 25.87, 277.68 55.35, 273.92 68.53 M275.31 1.5 C274.37 16.01, 275.45 30.55, 276.36 69.96 M276.01 70.63 C191.4 69.08, 108.56 65.95, -0.49 67.46 M275.28 67.54 C166.4 67.4, 59.56 67.24, -1.38 67.99 M-2.66 66.74 C2.8 40.54, -3.18 18.4, -0.27 0.43 M-1.42 69.32 C-1.46 40.73, 0.33 17.16, -0.79 0.9" stroke="#000000" stroke-width="1" fill="none"></path></g><g transform="translate(29.390106201171875 131.9102896967281) rotate(0 118.1098937988281 12.5)"><text x="118.10989379882812" y="0" font-family="Virgil, Segoe UI Emoji" font-size="20px" fill="#000000" text-anchor="middle" style="white-space: pre;" direction="ltr" dominant-baseline="text-before-edge">MultiAgentRLModuleSpec</text></g><g stroke-linecap="round"><g transform="translate(254.4396610757455 47.672518371531055) rotate(0 27.123340260240525 0.2382209257168313)"><path d="M3.11 -2.86 C24.31 -1.89, 45.43 -1.49, 52.21 3.33 M0.7 1.8 C13.86 0.33, 27.06 2.58, 53.54 2.23" stroke="#000000" stroke-width="1" fill="none"></path></g><g transform="translate(254.4396610757455 47.672518371531055) rotate(0 27.123340260240525 0.2382209257168313)"><path d="M31.03 8.39 C40.93 5.63, 50.68 1.85, 51.47 4.05 M28.63 13.05 C34.61 8.5, 40.6 8.1, 52.8 2.94" stroke="#000000" stroke-width="1" fill="none"></path></g><g transform="translate(254.4396610757455 47.672518371531055) rotate(0 27.123340260240525 0.2382209257168313)"><path d="M31.23 -10.18 C40.94 -5.58, 50.61 -1.99, 51.47 4.05 M28.83 -5.52 C34.71 -5.41, 40.65 -1.14, 52.8 2.94" stroke="#000000" stroke-width="1" fill="none"></path></g></g><mask></mask><g stroke-linecap="round"><g transform="translate(140.42697825537647 81.42999777468094) rotate(0 21.341485640257048 15.884756446963564)"><path d="M3.16 2.86 C4.4 3.07, 16.59 13.69, 42.21 27.69 M0.47 0.73 C7.38 7.22, 14.88 12.53, 36.79 31.04" stroke="#000000" stroke-width="1" fill="none"></path></g><g transform="translate(140.42697825537647 81.42999777468094) rotate(0 21.341485640257048 15.884756446963564)"><path d="M17.11 25.69 C14.84 21.57, 23.89 27.88, 40.51 29.13 M14.42 23.56 C18.19 25.55, 22.33 26.28, 35.09 32.49" stroke="#000000" stroke-width="1" fill="none"></path></g><g transform="translate(140.42697825537647 81.42999777468094) rotate(0 21.341485640257048 15.884756446963564)"><path d="M27.73 12.93 C23.54 11.35, 30.45 20.23, 40.51 29.13 M25.04 10.79 C26.41 15.59, 28.27 19.06, 35.09 32.49" stroke="#000000" stroke-width="1" fill="none"></path></g></g><mask></mask><g stroke-linecap="round"><g transform="translate(291.1061731352167 160.45313950099165) rotate(0 24.972405606766245 -13.766207549647504)"><path d="M3.37 -3.59 C12.92 -4.98, 26.45 -12.18, 51.5 -23.35 M-1.55 -1.56 C10.96 -5.07, 20.42 -10.18, 48.65 -25.97" stroke="#000000" stroke-width="1" fill="none"></path></g><g transform="translate(291.1061731352167 160.45313950099165) rotate(0 24.972405606766245 -13.766207549647504)"><path d="M33.63 -8.44 C35.92 -8.52, 42.18 -14.86, 49.96 -24.44 M28.71 -6.41 C34.54 -8.58, 37.31 -12.9, 47.12 -27.06" stroke="#000000" stroke-width="1" fill="none"></path></g><g transform="translate(291.1061731352167 160.45313950099165) rotate(0 24.972405606766245 -13.766207549647504)"><path d="M24.36 -25.21 C28.79 -21.59, 37.18 -24.1, 49.96 -24.44 M19.43 -23.18 C27.26 -21.97, 31.99 -22.77, 47.12 -27.06" stroke="#000000" stroke-width="1" fill="none"></path></g></g><mask></mask><g stroke-linecap="round" transform="translate(368.42380411700475 61.539975868682575) rotate(0 130.5 26.5)"><path d="M1.15 -2.27 L257.92 -3.41 L258.58 51.51 L-2.47 56.91" stroke="none" stroke-width="0" fill="white"></path><path d="M-0.5 -2.95 C96.13 -1.22, 190.69 -0.13, 263.84 2.27 M0.57 1.04 C103.85 -2.09, 209.51 0.46, 260.74 1.07 M263.38 -2.64 C261.34 16.67, 263.71 29.35, 257.93 53.82 M262.42 0.54 C263.5 12.9, 260.82 20.61, 260.36 51.07 M260.3 51.1 C177.52 51.75, 87.66 48.33, -1.66 50.83 M259.98 52.18 C187.74 56.47, 115.64 57.65, -1.51 51.67 M2.7 56.52 C0.29 44.66, 0.03 30.92, 0.28 0.48 M1.54 53.32 C1.72 43.66, 0.96 32.18, -1.75 1.19" stroke="#000000" stroke-width="1" fill="none"></path></g><g transform="translate(428.7138584382938 75.53997586868257) rotate(0 70.20994567871094 12.5)"><text x="70.20994567871094" y="0" font-family="Virgil, Segoe UI Emoji" font-size="20px" fill="#000000" text-anchor="middle" style="white-space: pre;" direction="ltr" dominant-baseline="text-before-edge">Catalog Class</text></g></svg>