<svg version="1.1" xmlns="http://www.w3.org/2000/svg" viewBox="0 0 671.9245921692116 187" width="1343.8491843384231" height="374">
  <!-- svg-source:excalidraw -->
  
  <defs>
    <style class="style-fonts">
      @font-face {
        font-family: "Virgil";
        src: url("https://excalidraw.com/Virgil.woff2");
      }
      @font-face {
        font-family: "Cascadia";
        src: url("https://excalidraw.com/Cascadia.woff2");
      }
    </style>
  </defs>
  <rect x="0" y="0" width="671.9245921692116" height="187" fill="#ffffff"></rect><g stroke-linecap="round" transform="translate(10 35.68947399151665) rotate(0 76.00000000000003 30)"><path d="M-1.57 -3.53 L154.12 2.56 L149.86 63.25 L-3.53 58.42" stroke="none" stroke-width="0" fill="white"></path><path d="M0.18 1.28 C57.61 0.27, 115.81 -5.81, 154.72 0.35 M1.57 -0.75 C59.28 -1.59, 120.78 -1.25, 151.73 -1.85 M151.47 1.86 C154.66 20.11, 149.13 35.75, 149.15 57.61 M151.58 0.61 C152.03 17.35, 150.28 36.66, 150.09 58.05 M150.08 60.94 C100.27 60.11, 42.92 58.45, 1.76 59.05 M152.56 61.92 C99.59 61.29, 43.93 60.85, 1.47 58.75 M3.07 63.77 C-2.87 46.11, -0.97 36.2, -3.07 0.38 M-0.28 58.09 C0.73 48.14, -2.09 34.12, 1.89 -0.04" stroke="#000000" stroke-width="1" fill="none"></path></g><g transform="translate(25.580062866210938 40.68947399151665) rotate(0 60.41993713378909 25)"><text x="60.41993713378906" y="0" font-family="Virgil, Segoe UI Emoji" font-size="20px" fill="#000000" text-anchor="middle" style="white-space: pre;" direction="ltr" dominant-baseline="text-before-edge">view </text><text x="60.41993713378906" y="25" font-family="Virgil, Segoe UI Emoji" font-size="20px" fill="#000000" text-anchor="middle" style="white-space: pre;" direction="ltr" dominant-baseline="text-before-edge">requirements</text></g><g stroke-linecap="round" transform="translate(264.2142286891096 51.52293276554775) rotate(0 76.5 45)"><path d="M1.31 2.33 C53.16 -4.53, 112.98 -1.18, 153.76 -2.94 M-0.56 -1.78 C34 0.44, 67.97 0, 152.85 1.74 M149.94 2.02 C155.51 27.97, 150.81 57.21, 152.48 88.31 M154.83 -1.35 C155.23 22.39, 154.16 43.96, 152.05 90.53 M154.1 88.88 C110.73 91.42, 77.05 93.02, 1.78 92.87 M153.57 90.27 C100.73 91.7, 49.38 94.14, 1.85 90.35 M0.1 90.11 C2.25 69.54, -3.31 44.23, -2.83 0.57 M-0.71 89.5 C-0.12 60.16, 0.47 28.63, -1.27 1.33" stroke="#000000" stroke-width="1" fill="none"></path></g><g transform="translate(302.10425859633614 84.02293276554775) rotate(0 38.60997009277344 12.5)"><text x="38.60997009277344" y="0" font-family="Virgil, Segoe UI Emoji" font-size="20px" fill="#000000" text-anchor="middle" style="white-space: pre;" direction="ltr" dominant-baseline="text-before-edge">Catalog</text></g><g stroke-linecap="round" transform="translate(439.9245921692115 10) rotate(0 111.00000000000006 83.5)"><path d="M-1.39 -0.66 C60.94 0.94, 129.46 0.75, 222.06 2.73 M-1.31 0.06 C43.74 -1.86, 89.31 -0.45, 223.61 0.91 M219.11 3.63 C225.01 43.42, 222.74 81.8, 222.74 164.78 M223.5 0.68 C221.01 58.87, 221.1 118.32, 222.47 168.96 M219.49 165.73 C153.02 165.74, 79.11 166.76, 3.19 167.47 M222.99 167.69 C144.45 167.85, 63.16 168.2, -1.46 166.16 M2.89 163 C-0.58 100.69, 0.2 39.86, 0.2 1.95 M-1.37 167.36 C1.75 104.76, -0.58 46.24, 1.28 1.41" stroke="#000000" stroke-width="1" fill="none"></path></g><g transform="translate(505.4846278747779 15) rotate(0 45.439964294433594 12.5)"><text x="45.439964294433594" y="0" font-family="Virgil, Segoe UI Emoji" font-size="20px" fill="#000000" text-anchor="middle" style="white-space: pre;" direction="ltr" dominant-baseline="text-before-edge">RLModule</text></g><g stroke-linecap="round" transform="translate(470.44196336778015 50.35773905854262) rotate(0 80.5 17.5)"><path d="M-3.29 2.57 C64.97 -2.54, 129.73 -1.96, 159.75 -0.95 M-1.52 -0.82 C51.62 -1.16, 102.55 -2.75, 161.31 -0.83 M160.54 -3.15 C161.23 6.8, 158.65 21.68, 157.59 35.96 M160.57 0.92 C161.83 14.39, 161.91 28.22, 162.59 35.27 M162.87 38.73 C106 40.2, 58.41 36.36, -2.28 33.83 M161.61 33.56 C112.41 35.37, 68.44 34.39, -1.23 35.29 M3.77 31.25 C2.76 19.04, -4.28 9.1, 1.95 3.13 M1.79 33.8 C-1.61 21.55, 0.64 9.74, -1.76 1.7" stroke="#000000" stroke-width="1" fill="none"></path></g><g transform="translate(525.2819902232488 55.35773905854262) rotate(0 25.65997314453125 12.5)"><text x="25.65997314453125" y="0" font-family="Virgil, Segoe UI Emoji" font-size="20px" fill="#000000" text-anchor="middle" style="white-space: pre;" direction="ltr" dominant-baseline="text-before-edge">model</text></g><g stroke-linecap="round"><g transform="translate(225.4210163897347 110.73762979655345) rotate(0 16.952213237229103 1.9456045261497081)"><path d="M-3.99 -2.02 C7.27 5.99, 18.95 7.31, 37.89 4.6 M1.26 -1.87 C11.09 1.74, 18.8 1.62, 34.1 5.91" stroke="#000000" stroke-width="1" fill="none"></path></g><g transform="translate(225.4210163897347 110.73762979655345) rotate(0 16.952213237229103 1.9456045261497081)"><path d="M12.72 6.11 C19.23 11.21, 25.99 10.53, 36.33 5.04 M17.42 6.24 C22.5 7.4, 25.73 5.44, 32.93 6.21" stroke="#000000" stroke-width="1" fill="none"></path></g><g transform="translate(225.4210163897347 110.73762979655345) rotate(0 16.952213237229103 1.9456045261497081)"><path d="M15.6 -5.81 C21.13 2.42, 27.13 4.9, 36.33 5.04 M20.3 -5.68 C24.7 -1.41, 27.17 -0.22, 32.93 6.21" stroke="#000000" stroke-width="1" fill="none"></path></g></g><mask></mask><g stroke-linecap="round"><g transform="translate(206.40193792443125 120.73428762958332) rotate(0 24.53217824601444 -0.9399663216400711)"><path d="M-0.62 -0.4 C13.87 -2.65, 33.19 -1.51, 44.16 -1.26 M0.02 -0.81 C13.13 -2.17, 27.84 0.25, 49.68 -0.16" stroke="#000000" stroke-width="1" fill="none"></path></g><g transform="translate(206.40193792443125 120.73428762958332) rotate(0 24.53217824601444 -0.9399663216400711)"><path d="M26.41 7.37 C33.1 2.35, 44.47 0.66, 45.84 -2.5 M27.04 6.96 C32.68 3.29, 40.06 3.1, 51.36 -1.4" stroke="#000000" stroke-width="1" fill="none"></path></g><g transform="translate(206.40193792443125 120.73428762958332) rotate(0 24.53217824601444 -0.9399663216400711)"><path d="M26.61 -9.05 C32.98 -8.93, 44.29 -5.47, 45.84 -2.5 M27.25 -9.46 C33.07 -8.38, 40.4 -3.82, 51.36 -1.4" stroke="#000000" stroke-width="1" fill="none"></path></g></g><mask></mask><g stroke-linecap="round" transform="translate(459.61441395371804 104.52653246954617) rotate(0 94.5 30)"><path d="M2.98 0.86 C62.18 -1.62, 122.35 -5.36, 190.79 3.8 M-0.36 1.78 C45.19 1.2, 93.06 1.33, 187.76 1.4 M186.31 -0.85 C191.89 13.31, 187.77 22.47, 190.04 58.41 M190.79 0.55 C190.77 15.85, 188.89 26.36, 189.62 58.14 M189.01 63.62 C120.27 58.17, 49.95 58.61, 0.95 59.7 M188.62 61.59 C151.25 58.84, 111.88 61.84, 0.66 59.33 M-1.82 62.42 C-1.06 34.16, 0.36 11.24, -3.73 -0.57 M1.34 59.02 C1.68 46.61, -0.92 29.44, -1.69 -1.25" stroke="#000000" stroke-width="1" fill="none"></path></g><g transform="translate(465.1145055064524 109.52653246954617) rotate(0 88.99990844726562 25)"><text x="88.99990844726562" y="0" font-family="Virgil, Segoe UI Emoji" font-size="20px" fill="#000000" text-anchor="middle" style="white-space: pre;" direction="ltr" dominant-baseline="text-before-edge">action distribution</text><text x="88.99990844726562" y="25" font-family="Virgil, Segoe UI Emoji" font-size="20px" fill="#000000" text-anchor="middle" style="white-space: pre;" direction="ltr" dominant-baseline="text-before-edge">class</text></g><g stroke-linecap="round" transform="translate(28.739377520058042 61.005317474968365) rotate(0 76.00000000000003 30)"><path d="M2.71 -2.91 L154.07 1.35 L154.47 59.89 L1.02 60.46" stroke="none" stroke-width="0" fill="white"></path><path d="M0.54 -2 C57.85 2.24, 111.98 3.81, 154.56 2.2 M0.38 -1.08 C42.01 2.23, 83.59 3.52, 152.43 0.07 M151.67 -2.77 C153.09 22.31, 149.73 40.33, 152.97 57.76 M153.48 0.54 C153.93 13.1, 152.78 27.51, 153.17 61.14 M148.98 61.04 C108.54 59.13, 66.32 59.74, -2.53 57.44 M153.37 58.07 C101.42 58.99, 52 60.58, 0.83 58.33 M-2.89 61.69 C1.23 44, -2.5 34.39, 0.56 -3.17 M-0.59 58.62 C-1.56 40.38, -1.63 18.76, 1.89 0.58" stroke="#000000" stroke-width="1" fill="none"></path></g><g transform="translate(41.78943397757757 66.00531747496836) rotate(0 62.9499435424805 25)"><text x="62.94994354248047" y="0" font-family="Virgil, Segoe UI Emoji" font-size="20px" fill="#000000" text-anchor="middle" style="white-space: pre;" direction="ltr" dominant-baseline="text-before-edge">model config </text><text x="62.94994354248047" y="25" font-family="Virgil, Segoe UI Emoji" font-size="20px" fill="#000000" text-anchor="middle" style="white-space: pre;" direction="ltr" dominant-baseline="text-before-edge">dict</text></g><g stroke-linecap="round"><g transform="translate(208.19438328900384 95.29792328501179) rotate(0 22.26294470551511 10.887748972588042)"><path d="M2.51 -0.78 C12.62 4.84, 24.1 10.96, 44.79 22.55 M-0.26 0.28 C15.82 8.44, 30.63 15.1, 42.9 20.28" stroke="#000000" stroke-width="1" fill="none"></path></g><g transform="translate(208.19438328900384 95.29792328501179) rotate(0 22.26294470551511 10.887748972588042)"><path d="M22.43 18.14 C28.05 18.18, 34.75 19.06, 46.74 21.76 M19.66 19.19 C28.92 20.31, 37.29 19.91, 44.86 19.49" stroke="#000000" stroke-width="1" fill="none"></path></g><g transform="translate(208.19438328900384 95.29792328501179) rotate(0 22.26294470551511 10.887748972588042)"><path d="M28.68 3.69 C32.43 7.45, 37.46 12.18, 46.74 21.76 M25.91 4.74 C33.22 11.03, 39.35 15.81, 44.86 19.49" stroke="#000000" stroke-width="1" fill="none"></path></g></g><mask></mask><g stroke-linecap="round" transform="translate(50.30002217194749 80.81780810879229) rotate(0 75.99999999999997 24.5)"><path d="M-3.76 0.56 L155.48 -0.92 L155.4 46.09 L1.38 47.69" stroke="none" stroke-width="0" fill="white"></path><path d="M-3.49 -3.89 C38.51 4.34, 68.45 -0.04, 150.89 1.82 M-0.86 0.09 C41.91 2.29, 86.41 -0.71, 150.46 -0.7 M149.65 3.09 C152.42 12.86, 152.16 21.69, 151.36 50.89 M151.56 1.61 C153.91 19.01, 153.56 38.04, 151.04 47.32 M148.41 50.42 C95.73 49.39, 50.66 54.04, -1.96 51.99 M150.3 49.72 C107.61 50.7, 65.45 48.83, 0.76 49.13 M-3.77 52.72 C3.45 33.56, -0.68 20.36, 1.19 2.72 M-0.99 49.01 C1.49 35.43, -1.37 23.32, 1.32 -1.11" stroke="#000000" stroke-width="1" fill="none"></path></g><g transform="translate(77.73006825349046 92.81780810879229) rotate(0 48.569953918457 12.5)"><text x="48.56995391845703" y="0" font-family="Virgil, Segoe UI Emoji" font-size="20px" fill="#000000" text-anchor="middle" style="white-space: pre;" direction="ltr" dominant-baseline="text-before-edge">obs space</text></g><g stroke-linecap="round" transform="translate(68.65386832129246 106.87565569688769) rotate(0 76 24.5)"><path d="M-1.03 -2.74 L154 0.58 L149.31 49.82 L1.96 50.83" stroke="none" stroke-width="0" fill="white"></path><path d="M-3.74 2.94 C33.51 1.43, 62.61 0.44, 150.7 2.66 M0.99 0.73 C41.02 -2.68, 84.67 -2.81, 150.5 -1.17 M154.28 0.48 C153.45 6.89, 149.69 20.32, 154.49 45.28 M152.07 -0.03 C154.22 14.58, 152.43 26.63, 150.47 48.22 M155.23 48.74 C95.52 54.81, 34.67 52.82, -2.28 47.85 M153.61 47.67 C115.27 49.84, 77.78 48.15, 0.93 49.72 M-3.17 48.72 C1.49 41.74, -4.57 25.68, -1.89 2.58 M1.9 47.61 C1.32 32.9, 1.79 21.57, -1.75 0.98" stroke="#000000" stroke-width="1" fill="none"></path></g><g transform="translate(82.39391959082371 118.87565569688769) rotate(0 62.25994873046875 12.5)"><text x="62.25994873046875" y="0" font-family="Virgil, Segoe UI Emoji" font-size="20px" fill="#000000" text-anchor="middle" style="white-space: pre;" direction="ltr" dominant-baseline="text-before-edge">action space</text></g><g stroke-linecap="round"><g transform="translate(417.332682235975 95.46718823537225) rotate(0 26.628315384750522 -13.52221587663854)"><path d="M0.79 1.74 C11.47 -8.37, 26.35 -14.13, 52.47 -28.78 M1.02 1.43 C17.91 -6.81, 30.7 -18.13, 50.49 -26.72" stroke="#000000" stroke-width="1" fill="none"></path></g><g transform="translate(417.332682235975 95.46718823537225) rotate(0 26.628315384750522 -13.52221587663854)"><path d="M32.2 -4.43 C33.66 -13.11, 39.3 -17.01, 53.63 -28.83 M32.44 -4.74 C39.54 -11.43, 42.57 -20.77, 51.66 -26.77" stroke="#000000" stroke-width="1" fill="none"></path></g><g transform="translate(417.332682235975 95.46718823537225) rotate(0 26.628315384750522 -13.52221587663854)"><path d="M23.46 -21.51 C27.61 -24.84, 35.92 -23.53, 53.63 -28.83 M23.7 -21.81 C33.53 -22.87, 39.39 -26.71, 51.66 -26.77" stroke="#000000" stroke-width="1" fill="none"></path></g></g><mask></mask><g stroke-linecap="round"><g transform="translate(421.176351348579 103.76568086343349) rotate(0 15.7647479662038 17.069991350326745)"><path d="M-0.88 0.01 C10.37 11.63, 22.45 19.36, 32.41 34.13 M-0.8 1.62 C5.8 6.17, 14.55 14.19, 31.74 32.33" stroke="#000000" stroke-width="1" fill="none"></path></g><g transform="translate(421.176351348579 103.76568086343349) rotate(0 15.7647479662038 17.069991350326745)"><path d="M9.9 22.18 C16.43 25.97, 24.07 25.7, 30.79 33.94 M9.98 23.79 C13.89 23, 19.61 25.54, 30.12 32.14" stroke="#000000" stroke-width="1" fill="none"></path></g><g transform="translate(421.176351348579 103.76568086343349) rotate(0 15.7647479662038 17.069991350326745)"><path d="M21.34 11.08 C23.92 19.01, 27.46 22.71, 30.79 33.94 M21.41 12.69 C22.36 14.74, 25.28 19.99, 30.12 32.14" stroke="#000000" stroke-width="1" fill="none"></path></g></g><mask></mask></svg>