<svg viewBox="0 0 600 100" fill="none" xmlns="http://www.w3.org/2000/svg">
<rect x="1" y="1" width="598" height="98" fill="white" stroke="#018CEF" stroke-width="2"/>
<g clip-path="url(#clip0_113_87)">
<path d="M202 8H9V91H202V8Z" fill="#0282E6"/>
<path d="M169.694 16.0404C168.477 16.0404 167.387 16.4836 166.554 17.3699C165.464 18.4462 165.015 19.9024 165.336 21.4218C165.656 23.1945 167.066 24.5873 168.861 24.9039C170.4 25.1571 171.874 24.714 172.899 23.701C173.989 22.6247 174.438 21.1686 174.117 19.6491C173.797 17.8764 172.387 16.4836 170.592 16.167C170.271 16.0404 170.015 16.0404 169.694 16.0404ZM40.2159 32.058H34.4471V42.061H40.2159C44.19 42.061 46.3694 40.3516 46.3694 36.9962C46.3694 33.704 44.1259 32.058 40.2159 32.058ZM62.458 32.5011L57.5866 43.3905H67.3295L62.458 32.5011ZM149.696 35.4134C149.375 35.4134 149.119 35.4134 148.798 35.4767C147.004 35.7933 145.594 37.1861 145.273 38.9588C145.017 40.4783 145.465 41.9344 146.491 43.0107C147.581 44.087 149.055 44.5301 150.529 44.2136C152.324 43.897 153.734 42.5042 154.055 40.7315C154.375 39.2121 153.926 37.7559 152.837 36.6796C152.003 35.9199 150.914 35.4134 149.696 35.4134ZM189.693 35.4134C189.373 35.4134 189.116 35.4134 188.796 35.4767C187.001 35.7933 185.591 37.1861 185.27 38.9588C185.014 40.4783 185.463 41.9344 186.488 43.0107C187.578 44.087 189.052 44.5301 190.526 44.2136C192.321 43.897 193.731 42.5042 194.052 40.7315C194.372 39.2121 193.924 37.7559 192.834 36.6796C192.001 35.9199 190.911 35.4134 189.693 35.4134ZM169.694 35.4134C168.477 35.4134 167.387 35.8566 166.554 36.7429C165.464 37.8192 165.015 39.2754 165.336 40.7948C165.656 42.5675 167.066 43.9603 168.861 44.2769C170.4 44.5934 171.874 44.087 172.899 43.074C173.989 41.9977 174.438 40.5416 174.117 39.0221C173.797 37.2494 172.387 35.8566 170.592 35.54C170.271 35.4767 170.015 35.4134 169.694 35.4134ZM63.8682 29.6522L73.6111 51.1777H70.919L68.4833 45.733H56.561L54.1252 51.1777H51.4972L61.2402 29.6522H63.8682ZM75.2777 29.6522L82.3285 40.8581L89.3152 29.6522H91.8791L83.6105 43.7704V51.1144H81.1747V43.897L72.7138 29.6522H75.2777ZM40.2159 29.7155C45.6643 29.7155 48.8051 32.3112 48.8051 36.9329C48.8051 40.4783 47.0744 42.8841 43.9336 43.897L49.0615 51.241H46.1771L41.6902 44.4035C41.2415 44.4035 40.7287 44.4668 40.2159 44.4668H34.4471V51.241H31.9472V29.7155H40.2159ZM169.694 54.8497C168.477 54.8497 167.387 55.2929 166.554 56.1793C165.464 57.2555 165.015 58.7117 165.336 60.2311C165.656 62.0038 167.066 63.3966 168.861 63.7132C170.4 63.9664 171.874 63.5233 172.899 62.5103C173.989 61.434 174.438 59.9779 174.117 58.4584C173.797 56.6857 172.387 55.2929 170.592 54.9764C170.271 54.8497 170.015 54.8497 169.694 54.8497ZM162.836 21.2319H22.2684V78.4012H188.796V46.6827C187.77 46.5561 186.809 46.1762 185.911 45.6064L185.847 45.5431L175.656 55.6728C176.104 56.3692 176.425 57.1289 176.617 57.9519C177.066 60.2311 176.361 62.5103 174.694 64.1564C173.412 65.4859 171.617 66.1823 169.759 66.1823C169.31 66.1823 168.861 66.119 168.413 66.0557C165.656 65.5492 163.477 63.3966 162.964 60.6743C162.515 58.3951 163.221 56.1159 164.887 54.4699C166.49 52.8871 168.861 52.1274 171.169 52.5706C172.194 52.7605 173.156 53.2037 173.989 53.8368L174.053 53.9001L184.181 43.897C183.604 43.074 183.219 42.1876 183.027 41.238V41.1747H176.681C176.425 42.5675 175.784 43.8337 174.758 44.8467C173.476 46.1762 171.682 46.8726 169.823 46.8726C169.374 46.8726 168.925 46.8093 168.477 46.746C165.72 46.2395 163.541 44.087 163.028 41.3646V41.3013V41.238H156.683C156.683 41.3013 156.683 41.3013 156.683 41.3646C156.17 44.087 153.99 46.2395 151.234 46.746C150.785 46.8093 150.337 46.8726 149.888 46.8726C148.029 46.8726 146.299 46.1762 144.953 44.8467C143.35 43.2639 142.645 40.9214 143.03 38.6423C143.542 35.9199 145.722 33.7674 148.478 33.2609C150.785 32.8177 153.093 33.5141 154.76 35.1602C155.721 36.1732 156.426 37.376 156.683 38.7056V38.7689H163.028C163.285 37.376 163.926 36.1098 164.951 35.1602C166.554 33.5774 168.925 32.8177 171.233 33.2609C173.989 33.7674 176.168 35.9832 176.681 38.6423V38.7056V38.7689H183.027C183.027 38.7056 183.027 38.7056 183.027 38.6423C183.219 37.6926 183.604 36.8063 184.117 36.0465L184.181 35.9832L174.117 25.9802C172.899 26.9298 171.425 27.4363 169.823 27.4363C169.374 27.4363 168.925 27.373 168.477 27.3097C165.72 26.8032 163.541 24.6506 163.028 21.9283C162.836 21.6117 162.836 21.4218 162.836 21.2319ZM171.041 13.7612C173.797 14.2677 175.976 16.4836 176.489 19.1426C176.809 20.852 176.489 22.5614 175.592 24.0175L175.527 24.0809L185.719 34.2105C186.488 33.704 187.322 33.3242 188.283 33.1342C190.591 32.6911 192.898 33.3875 194.565 35.0336C196.167 36.6163 196.872 38.9588 196.488 41.238C195.975 43.897 193.86 45.9863 191.232 46.5561H191.167V80.7437H19.7686V18.8261L163.028 18.7628C163.349 17.5599 163.926 16.4836 164.823 15.5973C166.425 14.0145 168.797 13.3181 171.041 13.7612ZM107.968 71.3104H110.339V55.5461H107.968V71.3104ZM126.364 55.5461V57.6987H121.236V71.3104H118.8V57.6987H113.673V55.5461H126.364ZM101.622 55.5461H102.776V71.3104H100.34V60.8642L94.5072 68.6514H93.8662L93.8021 68.5881L88.0332 60.8642V71.3104H85.6616V55.5461H86.8154L86.8795 55.6095L94.3149 65.4859L101.622 55.5461ZM79.2518 55.5461H80.4056V71.3104H77.9698V60.8642L72.1369 68.6514H71.4959L71.4318 68.5881L65.6629 60.8642V71.3104H63.2913V55.5461H64.4451L64.5092 55.6095L71.8164 65.4859L79.2518 55.5461ZM41.8184 67.0053C41.8184 69.6644 39.4467 71.5637 36.1136 71.5637C33.5497 71.5637 31.2422 70.2975 30.2166 68.2715L30.1525 68.1449L32.0754 66.8787L32.1395 67.0053C32.9728 68.5881 34.383 69.4744 36.1136 69.4744C38.293 69.4744 39.2544 68.2715 39.2544 67.1953C39.2544 66.3722 38.6776 65.6758 37.5238 65.0427C37.011 64.7895 36.4341 64.5362 35.9213 64.3463C35.2162 64.0297 34.4471 63.7132 33.8061 63.3966C32.0113 62.3837 31.1781 61.1175 31.1781 59.598C31.1781 57.1289 33.3574 55.3562 36.37 55.3562C37.8443 55.3562 39.8954 55.7361 41.4338 57.6987L41.4979 57.8253L39.7672 59.0915L39.7031 58.9649C38.5494 57.5088 37.1392 57.3188 36.37 57.3188C34.8317 57.3188 33.6779 58.2052 33.6779 59.3448C33.6779 60.1045 34.1266 60.8009 35.0881 61.3074C35.5367 61.5606 36.2418 61.8772 37.011 62.1937L37.652 62.447C38.2289 62.7002 38.8058 62.9535 39.3185 63.27C40.9851 64.283 41.8184 65.4859 41.8184 67.0053ZM55.7918 55.5461H58.2275V65.9924C58.2275 69.3478 55.7918 71.5637 51.9459 71.5637C48.1 71.5637 45.6643 69.4111 45.6643 65.9924V55.5461H48.0359V65.6125C48.0359 68.0816 49.4461 69.4111 51.9459 69.4111C54.3816 69.4111 55.7918 68.0183 55.7918 65.6125V55.5461Z" fill="white"/>
<path d="M169.694 16.0404C168.477 16.0404 167.387 16.4836 166.554 17.37C165.464 18.4462 165.015 19.9024 165.336 21.4218C165.656 23.1945 167.066 24.5873 168.861 24.9039C170.399 25.1571 171.874 24.714 172.899 23.701C173.989 22.6247 174.438 21.1686 174.117 19.6491C173.797 17.8764 172.387 16.4836 170.592 16.1671C170.271 16.0404 170.015 16.0404 169.694 16.0404Z" fill="#FF4C1E"/>
<path d="M189.693 35.4135C189.373 35.4135 189.116 35.4135 188.796 35.4768C187.001 35.7933 185.591 37.1861 185.27 38.9588C185.014 40.4783 185.463 41.9344 186.488 43.0107C187.578 44.087 189.052 44.5302 190.526 44.2136C192.321 43.8971 193.731 42.5042 194.052 40.7315C194.372 39.2121 193.924 37.7559 192.834 36.6797C192.001 35.9199 190.911 35.4135 189.693 35.4135Z" fill="#28B58C"/>
<path d="M149.696 35.4135C149.375 35.4135 149.119 35.4135 148.798 35.4768C147.004 35.7933 145.593 37.1861 145.273 38.9588C145.017 40.4783 145.465 41.9344 146.491 43.0107C147.581 44.087 149.055 44.5302 150.529 44.2136C152.324 43.8971 153.734 42.5042 154.054 40.7315C154.375 39.2121 153.926 37.7559 152.837 36.6797C152.003 35.9199 150.914 35.4135 149.696 35.4135Z" fill="#FF9600"/>
<path d="M169.694 54.8497C168.477 54.8497 167.387 55.2929 166.554 56.1792C165.464 57.2555 165.015 58.7117 165.336 60.2311C165.656 62.0038 167.066 63.3966 168.861 63.7132C170.399 63.9664 171.874 63.5233 172.899 62.5103C173.989 61.434 174.438 59.9779 174.117 58.4584C173.797 56.6857 172.387 55.2929 170.592 54.9764C170.271 54.8497 170.015 54.8497 169.694 54.8497Z" fill="#6D59C6"/>
<path d="M136.748 69.0946H142.966V71.3104H131.684L137.517 64.7261C138.094 64.093 138.543 63.5232 138.927 63.0168C139.312 62.5103 139.632 62.1304 139.825 61.8139C140.209 61.1808 140.466 60.611 140.466 60.1045C140.466 59.3448 140.209 58.775 139.632 58.2685C139.056 57.762 138.415 57.5088 137.581 57.5088C135.915 57.5088 134.889 58.4584 134.697 60.3577H132.197C132.582 57.0656 134.376 55.3562 137.581 55.3562C139.12 55.3562 140.402 55.7994 141.427 56.749C142.453 57.6354 142.966 58.775 142.966 60.1045C142.966 60.9908 142.709 61.8139 142.26 62.6369C142.004 63.0801 141.684 63.5866 141.171 64.1563C140.722 64.7261 140.081 65.4226 139.376 66.2456L136.748 69.0946Z" fill="white"/>
<path d="M149.504 64.0297V62.0038C150.593 62.0038 151.298 61.8772 151.683 61.6872C152.324 61.3074 152.644 60.6743 152.644 59.7879C152.644 59.0915 152.388 58.585 151.939 58.1418C151.491 57.6987 150.85 57.5087 150.08 57.5087C149.375 57.5087 148.863 57.6987 148.478 58.0152C148.093 58.3318 147.837 58.9016 147.645 59.6613H145.145C145.401 58.2052 145.914 57.0656 146.747 56.4325C147.581 55.7994 148.67 55.4195 150.145 55.4195C151.619 55.4195 152.837 55.7994 153.734 56.6224C154.631 57.4454 155.144 58.4584 155.144 59.7246C155.144 61.1807 154.567 62.257 153.349 63.0801C154.76 63.8398 155.465 65.106 155.465 66.8154C155.465 68.2082 154.952 69.4111 153.926 70.2975C152.901 71.1838 151.619 71.627 150.016 71.627C147.965 71.627 146.491 70.9306 145.529 69.5377C145.145 68.9679 144.888 68.1449 144.76 67.1319H147.196C147.324 67.8917 147.645 68.4614 148.157 68.9046C148.67 69.2845 149.311 69.5377 150.145 69.5377C150.978 69.5377 151.619 69.2845 152.196 68.778C152.708 68.2715 153.029 67.5751 153.029 66.8154C153.029 65.7391 152.644 64.9794 151.811 64.5362C151.234 64.1563 150.529 64.0297 149.504 64.0297Z" fill="white"/>
</g>
<path d="M221.533 18.9925V17.0909H230.492V18.9925H227.152V28H224.873V18.9925H221.533ZM231.968 28V17.0909H234.274V21.592H238.956V17.0909H241.257V28H238.956V23.4936H234.274V28H231.968ZM243.159 28V17.0909H250.51V18.9925H245.466V21.592H250.132V23.4936H245.466V26.0984H250.531V28H243.159ZM255.815 28V17.0909H258.122V26.0984H262.799V28H255.815ZM264.326 28V17.0909H266.633V26.0984H271.309V28H264.326ZM272.837 17.0909H275.681L278.686 24.4205H278.813L281.818 17.0909H284.662V28H282.425V20.8995H282.334L279.511 27.9467H277.988L275.165 20.8729H275.074V28H272.837V17.0909ZM291.914 28H289.443L293.209 17.0909H296.181L299.942 28H297.47L294.738 19.5838H294.652L291.914 28ZM291.76 23.712H297.598V25.5124H291.76V23.712ZM310.379 17.0909V28H308.387L303.641 21.1339H303.561V28H301.255V17.0909H303.279L307.988 23.9517H308.084V17.0909H310.379ZM316.152 28H312.285V17.0909H316.184C317.282 17.0909 318.226 17.3093 319.018 17.7461C319.81 18.1793 320.419 18.8026 320.845 19.6158C321.275 20.429 321.49 21.402 321.49 22.5348C321.49 23.6712 321.275 24.6477 320.845 25.4645C320.419 26.2812 319.806 26.908 319.007 27.3448C318.212 27.7816 317.26 28 316.152 28ZM314.592 26.0238H316.056C316.738 26.0238 317.312 25.9031 317.777 25.6616C318.246 25.4165 318.597 25.0384 318.832 24.527C319.07 24.0121 319.188 23.348 319.188 22.5348C319.188 21.7287 319.07 21.07 318.832 20.5586C318.597 20.0472 318.247 19.6708 317.782 19.4293C317.317 19.1879 316.744 19.0671 316.062 19.0671H314.592V26.0238ZM333.903 20.6172C333.829 20.358 333.724 20.1289 333.589 19.93C333.454 19.7276 333.289 19.5572 333.094 19.4187C332.902 19.2766 332.682 19.1683 332.433 19.0938C332.188 19.0192 331.917 18.9819 331.618 18.9819C331.061 18.9819 330.571 19.1204 330.148 19.3974C329.729 19.6744 329.402 20.0774 329.168 20.6065C328.934 21.1321 328.816 21.7749 328.816 22.5348C328.816 23.2947 328.932 23.9411 329.163 24.4737C329.394 25.0064 329.72 25.413 330.143 25.6935C330.565 25.9705 331.064 26.109 331.64 26.109C332.162 26.109 332.607 26.0167 332.977 25.832C333.35 25.6438 333.634 25.3793 333.829 25.0384C334.028 24.6974 334.127 24.2944 334.127 23.8292L334.596 23.8984H331.783V22.1619H336.348V23.5362C336.348 24.495 336.146 25.3189 335.741 26.0078C335.336 26.6932 334.779 27.2223 334.069 27.5952C333.358 27.9645 332.545 28.1491 331.629 28.1491C330.606 28.1491 329.708 27.9237 328.934 27.4727C328.16 27.0181 327.556 26.3736 327.123 25.5391C326.693 24.701 326.478 23.7067 326.478 22.5561C326.478 21.6719 326.606 20.8835 326.862 20.1911C327.121 19.495 327.483 18.9055 327.948 18.4226C328.413 17.9396 328.955 17.5721 329.573 17.32C330.191 17.0678 330.86 16.9418 331.581 16.9418C332.199 16.9418 332.774 17.0323 333.307 17.2134C333.84 17.391 334.312 17.6431 334.724 17.9698C335.139 18.2965 335.478 18.6854 335.741 19.1364C336.004 19.5838 336.173 20.0774 336.247 20.6172H333.903ZM338.081 28V17.0909H345.432V18.9925H340.387V21.592H345.054V23.4936H340.387V26.0984H345.453V28H338.081ZM356.39 17.0909V28H354.398L349.652 21.1339H349.572V28H347.266V17.0909H349.29L353.998 23.9517H354.094V17.0909H356.39ZM358.296 28V17.0909H365.647V18.9925H360.602V21.592H365.268V23.4936H360.602V26.0984H365.668V28H358.296ZM367.48 28V17.0909H371.784C372.608 17.0909 373.311 17.2383 373.894 17.533C374.48 17.8242 374.925 18.2379 375.231 18.7741C375.54 19.3068 375.694 19.9336 375.694 20.6545C375.694 21.3789 375.538 22.0021 375.225 22.5241C374.913 23.0426 374.46 23.4403 373.867 23.7173C373.278 23.9943 372.564 24.1328 371.726 24.1328H368.844V22.2791H371.353C371.793 22.2791 372.159 22.2187 372.45 22.098C372.741 21.9773 372.958 21.7962 373.1 21.5547C373.246 21.3132 373.318 21.0131 373.318 20.6545C373.318 20.2923 373.246 19.9869 373.1 19.7383C372.958 19.4897 372.74 19.3015 372.445 19.1737C372.154 19.0423 371.786 18.9766 371.342 18.9766H369.787V28H367.48ZM373.372 23.0355L376.083 28H373.537L370.884 23.0355H373.372ZM379.204 28H376.733L380.499 17.0909H383.471L387.232 28H384.76L382.028 19.5838H381.942L379.204 28ZM379.05 23.712H384.888V25.5124H379.05V23.712ZM386.796 18.9925V17.0909H395.756V18.9925H392.416V28H390.136V18.9925H386.796ZM399.538 17.0909V28H397.231V17.0909H399.538ZM403.406 17.0909L406.043 25.3793H406.144L408.786 17.0909H411.343L407.582 28H404.61L400.844 17.0909H403.406ZM412.656 28V17.0909H420.007V18.9925H414.963V21.592H419.629V23.4936H414.963V26.0984H420.028V28H412.656ZM427.193 28H424.721L428.487 17.0909H431.459L435.22 28H432.748L430.016 19.5838H429.931L427.193 28ZM427.038 23.712H432.876V25.5124H427.038V23.712ZM438.84 17.0909V28H436.533V17.0909H438.84ZM231.574 38.9102H229.24C229.198 38.6083 229.111 38.3402 228.979 38.1058C228.848 37.8679 228.679 37.6655 228.473 37.4986C228.267 37.3317 228.029 37.2038 227.76 37.1151C227.493 37.0263 227.204 36.9819 226.891 36.9819C226.327 36.9819 225.835 37.1222 225.416 37.4027C224.997 37.6797 224.672 38.0845 224.441 38.6172C224.21 39.1463 224.095 39.7891 224.095 40.5455C224.095 41.3232 224.21 41.9766 224.441 42.5057C224.675 43.0348 225.002 43.4343 225.421 43.7042C225.84 43.9741 226.325 44.109 226.875 44.109C227.184 44.109 227.47 44.0682 227.733 43.9865C227.999 43.9048 228.235 43.7859 228.441 43.6296C228.647 43.4698 228.818 43.2763 228.953 43.049C229.091 42.8217 229.187 42.5625 229.24 42.2713L231.574 42.282C231.513 42.7827 231.362 43.2656 231.121 43.7308C230.883 44.1925 230.561 44.6062 230.157 44.9719C229.755 45.3342 229.276 45.6218 228.718 45.8349C228.164 46.0444 227.538 46.1491 226.838 46.1491C225.865 46.1491 224.995 45.929 224.228 45.4886C223.464 45.0483 222.861 44.4109 222.417 43.5763C221.977 42.7418 221.756 41.7315 221.756 40.5455C221.756 39.3558 221.98 38.3438 222.428 37.5092C222.875 36.6747 223.482 36.0391 224.249 35.6023C225.016 35.1619 225.879 34.9418 226.838 34.9418C227.47 34.9418 228.056 35.0305 228.596 35.2081C229.139 35.3857 229.62 35.6449 230.039 35.9858C230.458 36.3232 230.799 36.7369 231.062 37.2269C231.328 37.717 231.499 38.2781 231.574 38.9102ZM243.252 40.5455C243.252 41.7351 243.027 42.7472 242.576 43.5817C242.128 44.4162 241.518 45.0536 240.743 45.494C239.973 45.9308 239.106 46.1491 238.144 46.1491C237.175 46.1491 236.305 45.929 235.534 45.4886C234.763 45.0483 234.154 44.4109 233.707 43.5763C233.259 42.7418 233.036 41.7315 233.036 40.5455C233.036 39.3558 233.259 38.3438 233.707 37.5092C234.154 36.6747 234.763 36.0391 235.534 35.6023C236.305 35.1619 237.175 34.9418 238.144 34.9418C239.106 34.9418 239.973 35.1619 240.743 35.6023C241.518 36.0391 242.128 36.6747 242.576 37.5092C243.027 38.3438 243.252 39.3558 243.252 40.5455ZM240.914 40.5455C240.914 39.7749 240.798 39.125 240.568 38.5959C240.34 38.0668 240.019 37.6655 239.604 37.392C239.188 37.1186 238.702 36.9819 238.144 36.9819C237.586 36.9819 237.1 37.1186 236.684 37.392C236.269 37.6655 235.946 38.0668 235.715 38.5959C235.488 39.125 235.374 39.7749 235.374 40.5455C235.374 41.3161 235.488 41.9659 235.715 42.495C235.946 43.0241 236.269 43.4254 236.684 43.6989C237.1 43.9723 237.586 44.109 238.144 44.109C238.702 44.109 239.188 43.9723 239.604 43.6989C240.019 43.4254 240.34 43.0241 240.568 42.495C240.798 41.9659 240.914 41.3161 240.914 40.5455ZM254.085 35.0909V46H252.093L247.347 39.1339H247.267V46H244.961V35.0909H246.985L251.694 41.9517H251.79V35.0909H254.085ZM255.991 46V35.0909H263.214V36.9925H258.298V39.592H262.735V41.4936H258.298V46H255.991ZM264.766 46V35.0909H272.116V36.9925H267.072V39.592H271.738V41.4936H267.072V44.0984H272.138V46H264.766ZM273.95 46V35.0909H278.254C279.078 35.0909 279.781 35.2383 280.363 35.533C280.949 35.8242 281.395 36.2379 281.7 36.7741C282.009 37.3068 282.164 37.9336 282.164 38.6545C282.164 39.3789 282.008 40.0021 281.695 40.5241C281.383 41.0426 280.93 41.4403 280.337 41.7173C279.747 41.9943 279.034 42.1328 278.195 42.1328H275.314V40.2791H277.823C278.263 40.2791 278.629 40.2187 278.92 40.098C279.211 39.9773 279.428 39.7962 279.57 39.5547C279.715 39.3132 279.788 39.0131 279.788 38.6545C279.788 38.2923 279.715 37.9869 279.57 37.7383C279.428 37.4897 279.209 37.3015 278.915 37.1737C278.623 37.0423 278.256 36.9766 277.812 36.9766H276.257V46H273.95ZM279.841 41.0355L282.553 46H280.007L277.354 41.0355H279.841ZM283.794 46V35.0909H291.145V36.9925H286.1V39.592H290.767V41.4936H286.1V44.0984H291.166V46H283.794ZM302.103 35.0909V46H300.111L295.365 39.1339H295.285V46H292.978V35.0909H295.003L299.711 41.9517H299.807V35.0909H302.103ZM313.634 38.9102H311.301C311.258 38.6083 311.171 38.3402 311.04 38.1058C310.909 37.8679 310.74 37.6655 310.534 37.4986C310.328 37.3317 310.09 37.2038 309.82 37.1151C309.554 37.0263 309.264 36.9819 308.952 36.9819C308.387 36.9819 307.895 37.1222 307.476 37.4027C307.057 37.6797 306.732 38.0845 306.502 38.6172C306.271 39.1463 306.155 39.7891 306.155 40.5455C306.155 41.3232 306.271 41.9766 306.502 42.5057C306.736 43.0348 307.063 43.4343 307.482 43.7042C307.901 43.9741 308.385 44.109 308.936 44.109C309.245 44.109 309.531 44.0682 309.794 43.9865C310.06 43.9048 310.296 43.7859 310.502 43.6296C310.708 43.4698 310.878 43.2763 311.013 43.049C311.152 42.8217 311.248 42.5625 311.301 42.2713L313.634 42.282C313.574 42.7827 313.423 43.2656 313.181 43.7308C312.943 44.1925 312.622 44.6062 312.217 44.9719C311.816 45.3342 311.336 45.6218 310.779 45.8349C310.225 46.0444 309.598 46.1491 308.899 46.1491C307.926 46.1491 307.056 45.929 306.289 45.4886C305.525 45.0483 304.921 44.4109 304.477 43.5763C304.037 42.7418 303.817 41.7315 303.817 40.5455C303.817 39.3558 304.041 38.3438 304.488 37.5092C304.936 36.6747 305.543 36.0391 306.31 35.6023C307.077 35.1619 307.94 34.9418 308.899 34.9418C309.531 34.9418 310.117 35.0305 310.656 35.2081C311.2 35.3857 311.681 35.6449 312.1 35.9858C312.519 36.3232 312.86 36.7369 313.123 37.2269C313.389 37.717 313.559 38.2781 313.634 38.9102ZM315.288 46V35.0909H322.639V36.9925H317.594V39.592H322.261V41.4936H317.594V44.0984H322.66V46H315.288ZM327.944 46V35.0909H335.167V36.9925H330.251V39.592H334.688V41.4936H330.251V46H327.944ZM346.744 40.5455C346.744 41.7351 346.518 42.7472 346.067 43.5817C345.62 44.4162 345.009 45.0536 344.235 45.494C343.464 45.9308 342.598 46.1491 341.635 46.1491C340.666 46.1491 339.796 45.929 339.025 45.4886C338.255 45.0483 337.646 44.4109 337.198 43.5763C336.751 42.7418 336.527 41.7315 336.527 40.5455C336.527 39.3558 336.751 38.3438 337.198 37.5092C337.646 36.6747 338.255 36.0391 339.025 35.6023C339.796 35.1619 340.666 34.9418 341.635 34.9418C342.598 34.9418 343.464 35.1619 344.235 35.6023C345.009 36.0391 345.62 36.6747 346.067 37.5092C346.518 38.3438 346.744 39.3558 346.744 40.5455ZM344.405 40.5455C344.405 39.7749 344.29 39.125 344.059 38.5959C343.832 38.0668 343.51 37.6655 343.095 37.392C342.679 37.1186 342.193 36.9819 341.635 36.9819C341.078 36.9819 340.591 37.1186 340.176 37.392C339.76 37.6655 339.437 38.0668 339.206 38.5959C338.979 39.125 338.865 39.7749 338.865 40.5455C338.865 41.3161 338.979 41.9659 339.206 42.495C339.437 43.0241 339.76 43.4254 340.176 43.6989C340.591 43.9723 341.078 44.109 341.635 44.109C342.193 44.109 342.679 43.9723 343.095 43.6989C343.51 43.4254 343.832 43.0241 344.059 42.495C344.29 41.9659 344.405 41.3161 344.405 40.5455ZM348.452 46V35.0909H352.756C353.58 35.0909 354.283 35.2383 354.865 35.533C355.451 35.8242 355.897 36.2379 356.202 36.7741C356.511 37.3068 356.666 37.9336 356.666 38.6545C356.666 39.3789 356.51 40.0021 356.197 40.5241C355.885 41.0426 355.432 41.4403 354.839 41.7173C354.249 41.9943 353.536 42.1328 352.697 42.1328H349.816V40.2791H352.325C352.765 40.2791 353.131 40.2187 353.422 40.098C353.713 39.9773 353.93 39.7962 354.072 39.5547C354.217 39.3132 354.29 39.0131 354.29 38.6545C354.29 38.2923 354.217 37.9869 354.072 37.7383C353.93 37.4897 353.711 37.3015 353.417 37.1737C353.125 37.0423 352.758 36.9766 352.314 36.9766H350.759V46H348.452ZM354.343 41.0355L357.055 46H354.509L351.856 41.0355H354.343ZM365.635 46H361.767V35.0909H365.667C366.764 35.0909 367.709 35.3093 368.5 35.7461C369.292 36.1793 369.901 36.8026 370.328 37.6158C370.757 38.429 370.972 39.402 370.972 40.5348C370.972 41.6712 370.757 42.6477 370.328 43.4645C369.901 44.2812 369.289 44.908 368.49 45.3448C367.694 45.7816 366.743 46 365.635 46ZM364.074 44.0238H365.539C366.221 44.0238 366.794 43.9031 367.259 43.6616C367.728 43.4165 368.08 43.0384 368.314 42.527C368.552 42.0121 368.671 41.348 368.671 40.5348C368.671 39.7287 368.552 39.07 368.314 38.5586C368.08 38.0472 367.73 37.6708 367.265 37.4293C366.799 37.1879 366.226 37.0671 365.544 37.0671H364.074V44.0238ZM372.681 46V35.0909H380.031V36.9925H374.987V39.592H379.653V41.4936H374.987V44.0984H380.053V46H372.681ZM383.836 35.0909L386.473 43.3793H386.574L389.216 35.0909H391.773L388.012 46H385.04L381.274 35.0909H383.836ZM393.086 46V35.0909H400.437V36.9925H395.392V39.592H400.059V41.4936H395.392V44.0984H400.458V46H393.086ZM402.27 46V35.0909H404.577V44.0984H409.254V46H402.27ZM420.381 40.5455C420.381 41.7351 420.156 42.7472 419.705 43.5817C419.257 44.4162 418.646 45.0536 417.872 45.494C417.102 45.9308 416.235 46.1491 415.273 46.1491C414.303 46.1491 413.433 45.929 412.663 45.4886C411.892 45.0483 411.283 44.4109 410.836 43.5763C410.388 42.7418 410.165 41.7315 410.165 40.5455C410.165 39.3558 410.388 38.3438 410.836 37.5092C411.283 36.6747 411.892 36.0391 412.663 35.6023C413.433 35.1619 414.303 34.9418 415.273 34.9418C416.235 34.9418 417.102 35.1619 417.872 35.6023C418.646 36.0391 419.257 36.6747 419.705 37.5092C420.156 38.3438 420.381 39.3558 420.381 40.5455ZM418.043 40.5455C418.043 39.7749 417.927 39.125 417.697 38.5959C417.469 38.0668 417.148 37.6655 416.732 37.392C416.317 37.1186 415.83 36.9819 415.273 36.9819C414.715 36.9819 414.229 37.1186 413.813 37.392C413.398 37.6655 413.075 38.0668 412.844 38.5959C412.617 39.125 412.503 39.7749 412.503 40.5455C412.503 41.3161 412.617 41.9659 412.844 42.495C413.075 43.0241 413.398 43.4254 413.813 43.6989C414.229 43.9723 414.715 44.109 415.273 44.109C415.83 44.109 416.317 43.9723 416.732 43.6989C417.148 43.4254 417.469 43.0241 417.697 42.495C417.927 41.9659 418.043 41.3161 418.043 40.5455ZM422.09 46V35.0909H426.394C427.221 35.0909 427.926 35.2489 428.508 35.565C429.091 35.8775 429.535 36.3125 429.84 36.87C430.149 37.424 430.304 38.0632 430.304 38.7876C430.304 39.5121 430.147 40.1513 429.835 40.7053C429.522 41.2592 429.07 41.6907 428.476 41.9996C427.887 42.3086 427.173 42.4631 426.335 42.4631H423.592V40.6147H425.962C426.406 40.6147 426.772 40.5384 427.06 40.3857C427.351 40.2294 427.567 40.0146 427.709 39.7411C427.855 39.4641 427.928 39.1463 427.928 38.7876C427.928 38.4254 427.855 38.1094 427.709 37.8395C427.567 37.5661 427.351 37.3548 427.06 37.2056C426.768 37.0529 426.399 36.9766 425.952 36.9766H424.396V46H422.09ZM431.802 46V35.0909H439.153V36.9925H434.108V39.592H438.774V41.4936H434.108V44.0984H439.174V46H431.802ZM440.986 46V35.0909H445.29C446.114 35.0909 446.817 35.2383 447.4 35.533C447.986 35.8242 448.431 36.2379 448.737 36.7741C449.046 37.3068 449.2 37.9336 449.2 38.6545C449.2 39.3789 449.044 40.0021 448.731 40.5241C448.419 41.0426 447.966 41.4403 447.373 41.7173C446.783 41.9943 446.07 42.1328 445.232 42.1328H442.35V40.2791H444.859C445.299 40.2791 445.665 40.2187 445.956 40.098C446.247 39.9773 446.464 39.7962 446.606 39.5547C446.752 39.3132 446.824 39.0131 446.824 38.6545C446.824 38.2923 446.752 37.9869 446.606 37.7383C446.464 37.4897 446.245 37.3015 445.951 37.1737C445.66 37.0423 445.292 36.9766 444.848 36.9766H443.293V46H440.986ZM446.878 41.0355L449.589 46H447.043L444.39 41.0355H446.878ZM456.748 38.2283C456.705 37.7987 456.522 37.4648 456.199 37.2269C455.876 36.989 455.438 36.87 454.884 36.87C454.507 36.87 454.189 36.9233 453.93 37.0298C453.671 37.1328 453.472 37.2766 453.334 37.4613C453.199 37.646 453.131 37.8555 453.131 38.0898C453.124 38.2852 453.165 38.4556 453.254 38.6012C453.346 38.7468 453.472 38.8729 453.632 38.9794C453.792 39.0824 453.976 39.1729 454.186 39.2511C454.395 39.3256 454.619 39.3896 454.857 39.4428L455.837 39.6772C456.313 39.7837 456.75 39.9258 457.147 40.1033C457.545 40.2809 457.89 40.4993 458.181 40.7585C458.472 41.0178 458.698 41.3232 458.857 41.6747C459.021 42.0263 459.104 42.4293 459.108 42.8839C459.104 43.5515 458.934 44.1303 458.596 44.6204C458.263 45.1069 457.78 45.4851 457.147 45.755C456.519 46.0213 455.761 46.1545 454.873 46.1545C453.992 46.1545 453.225 46.0195 452.572 45.7496C451.922 45.4798 451.414 45.0803 451.048 44.5511C450.686 44.0185 450.496 43.3597 450.478 42.5749H452.71C452.735 42.9407 452.84 43.2461 453.025 43.4911C453.213 43.7326 453.463 43.9155 453.776 44.0398C454.092 44.1605 454.449 44.2209 454.846 44.2209C455.237 44.2209 455.576 44.1641 455.864 44.0504C456.155 43.9368 456.38 43.7788 456.54 43.5763C456.7 43.3739 456.78 43.1413 456.78 42.8786C456.78 42.6335 456.707 42.4276 456.562 42.2607C456.419 42.0937 456.21 41.9517 455.933 41.8345C455.66 41.7173 455.324 41.6108 454.926 41.5149L453.738 41.2166C452.819 40.9929 452.092 40.6431 451.56 40.1673C451.027 39.6914 450.763 39.0504 450.766 38.2443C450.763 37.5838 450.938 37.0067 451.293 36.5131C451.652 36.0195 452.144 35.6342 452.769 35.3572C453.394 35.0803 454.104 34.9418 454.9 34.9418C455.709 34.9418 456.416 35.0803 457.02 35.3572C457.627 35.6342 458.099 36.0195 458.437 36.5131C458.774 37.0067 458.948 37.5785 458.959 38.2283H456.748Z" fill="#153667"/>
<path d="M223.695 60H225.781L227.984 65.375H228.078L230.281 60H232.367V68H230.727V62.793H230.66L228.59 67.9609H227.473L225.402 62.7734H225.336V68H223.695V60ZM235.14 68H233.327L236.089 60H238.269L241.026 68H239.214L237.21 61.8281H237.147L235.14 68ZM235.026 64.8555H239.308V66.1758H235.026V64.8555ZM241.989 68V60H245.146C245.75 60 246.265 60.1081 246.692 60.3242C247.122 60.5378 247.449 60.8411 247.673 61.2344C247.899 61.625 248.013 62.0846 248.013 62.6133C248.013 63.1445 247.898 63.6016 247.669 63.9844C247.44 64.3646 247.108 64.6562 246.673 64.8594C246.241 65.0625 245.717 65.1641 245.103 65.1641H242.989V63.8047H244.829C245.152 63.8047 245.42 63.7604 245.634 63.6719C245.847 63.5833 246.006 63.4505 246.11 63.2734C246.217 63.0964 246.271 62.8763 246.271 62.6133C246.271 62.3477 246.217 62.1237 246.11 61.9414C246.006 61.7591 245.846 61.6211 245.63 61.5273C245.416 61.431 245.147 61.3828 244.821 61.3828H243.681V68H241.989ZM246.31 64.3594L248.298 68H246.431L244.485 64.3594H246.31ZM249.208 68V60H252.364C252.968 60 253.484 60.1081 253.911 60.3242C254.341 60.5378 254.668 60.8411 254.892 61.2344C255.118 61.625 255.231 62.0846 255.231 62.6133C255.231 63.1445 255.117 63.6016 254.888 63.9844C254.659 64.3646 254.326 64.6562 253.892 64.8594C253.459 65.0625 252.936 65.1641 252.321 65.1641H250.208V63.8047H252.048C252.371 63.8047 252.639 63.7604 252.853 63.6719C253.066 63.5833 253.225 63.4505 253.329 63.2734C253.436 63.0964 253.489 62.8763 253.489 62.6133C253.489 62.3477 253.436 62.1237 253.329 61.9414C253.225 61.7591 253.065 61.6211 252.849 61.5273C252.635 61.431 252.366 61.3828 252.04 61.3828H250.899V68H249.208ZM253.528 64.3594L255.517 68H253.649L251.704 64.3594H253.528ZM258.118 60V68H256.427V60H258.118ZM266.861 64C266.861 64.8724 266.696 65.6146 266.365 66.2266C266.037 66.8385 265.589 67.306 265.021 67.6289C264.456 67.9492 263.821 68.1094 263.115 68.1094C262.404 68.1094 261.766 67.9479 261.201 67.625C260.636 67.3021 260.189 66.8346 259.861 66.2227C259.533 65.6107 259.369 64.8698 259.369 64C259.369 63.1276 259.533 62.3854 259.861 61.7734C260.189 61.1615 260.636 60.6953 261.201 60.375C261.766 60.0521 262.404 59.8906 263.115 59.8906C263.821 59.8906 264.456 60.0521 265.021 60.375C265.589 60.6953 266.037 61.1615 266.365 61.7734C266.696 62.3854 266.861 63.1276 266.861 64ZM265.146 64C265.146 63.4349 265.062 62.9583 264.893 62.5703C264.726 62.1823 264.49 61.888 264.186 61.6875C263.881 61.487 263.524 61.3867 263.115 61.3867C262.706 61.3867 262.35 61.487 262.045 61.6875C261.74 61.888 261.503 62.1823 261.334 62.5703C261.167 62.9583 261.084 63.4349 261.084 64C261.084 64.5651 261.167 65.0417 261.334 65.4297C261.503 65.8177 261.74 66.112 262.045 66.3125C262.35 66.513 262.706 66.6133 263.115 66.6133C263.524 66.6133 263.881 66.513 264.186 66.3125C264.49 66.112 264.726 65.8177 264.893 65.4297C265.062 65.0417 265.146 64.5651 265.146 64ZM267.444 61.3945V60H274.015V61.3945H271.565V68H269.894V61.3945H267.444ZM274.792 61.3945V60H281.362V61.3945H278.913V68H277.241V61.3945H274.792ZM284.99 60H287.076L289.279 65.375H289.373L291.576 60H293.662V68H292.021V62.793H291.955L289.885 67.9609H288.768L286.697 62.7734H286.631V68H284.99V60ZM296.435 68H294.622L297.384 60H299.563L302.321 68H300.509L298.505 61.8281H298.442L296.435 68ZM296.321 64.8555H300.603V66.1758H296.321V64.8555ZM303.284 68V60H306.44C307.045 60 307.56 60.1081 307.987 60.3242C308.417 60.5378 308.744 60.8411 308.968 61.2344C309.194 61.625 309.308 62.0846 309.308 62.6133C309.308 63.1445 309.193 63.6016 308.964 63.9844C308.735 64.3646 308.403 64.6562 307.968 64.8594C307.535 65.0625 307.012 65.1641 306.397 65.1641H304.284V63.8047H306.124C306.447 63.8047 306.715 63.7604 306.929 63.6719C307.142 63.5833 307.301 63.4505 307.405 63.2734C307.512 63.0964 307.565 62.8763 307.565 62.6133C307.565 62.3477 307.512 62.1237 307.405 61.9414C307.301 61.7591 307.141 61.6211 306.925 61.5273C306.711 61.431 306.442 61.3828 306.116 61.3828H304.976V68H303.284ZM307.604 64.3594L309.593 68H307.726L305.78 64.3594H307.604ZM313.522 65.2188H314.96L315.683 66.1484L316.394 66.9766L317.733 68.6563H316.155L315.233 67.5234L314.761 66.8516L313.522 65.2188ZM317.854 64C317.854 64.8724 317.689 65.6146 317.358 66.2266C317.03 66.8385 316.582 67.306 316.015 67.6289C315.45 67.9492 314.814 68.1094 314.108 68.1094C313.397 68.1094 312.759 67.9479 312.194 67.625C311.629 67.3021 311.183 66.8346 310.854 66.2227C310.526 65.6107 310.362 64.8698 310.362 64C310.362 63.1276 310.526 62.3854 310.854 61.7734C311.183 61.1615 311.629 60.6953 312.194 60.375C312.759 60.0521 313.397 59.8906 314.108 59.8906C314.814 59.8906 315.45 60.0521 316.015 60.375C316.582 60.6953 317.03 61.1615 317.358 61.7734C317.689 62.3854 317.854 63.1276 317.854 64ZM316.14 64C316.14 63.4349 316.055 62.9583 315.886 62.5703C315.719 62.1823 315.483 61.888 315.179 61.6875C314.874 61.487 314.517 61.3867 314.108 61.3867C313.7 61.3867 313.343 61.487 313.038 61.6875C312.733 61.888 312.496 62.1823 312.327 62.5703C312.16 62.9583 312.077 63.4349 312.077 64C312.077 64.5651 312.16 65.0417 312.327 65.4297C312.496 65.8177 312.733 66.112 313.038 66.3125C313.343 66.513 313.7 66.6133 314.108 66.6133C314.517 66.6133 314.874 66.513 315.179 66.3125C315.483 66.112 315.719 65.8177 315.886 65.4297C316.055 65.0417 316.14 64.5651 316.14 64ZM324.049 60H325.74V65.1953C325.74 65.7786 325.601 66.2891 325.322 66.7266C325.046 67.1641 324.66 67.5052 324.162 67.75C323.665 67.9922 323.085 68.1133 322.424 68.1133C321.76 68.1133 321.179 67.9922 320.682 67.75C320.184 67.5052 319.798 67.1641 319.521 66.7266C319.245 66.2891 319.107 65.7786 319.107 65.1953V60H320.799V65.0508C320.799 65.3555 320.865 65.6263 320.998 65.8633C321.133 66.1003 321.324 66.2865 321.568 66.4219C321.813 66.5573 322.098 66.625 322.424 66.625C322.752 66.625 323.037 66.5573 323.279 66.4219C323.524 66.2865 323.713 66.1003 323.846 65.8633C323.981 65.6263 324.049 65.3555 324.049 65.0508V60ZM328.823 60V68H327.132V60H328.823ZM334.555 62.3008C334.523 61.9857 334.389 61.7409 334.152 61.5664C333.915 61.3919 333.594 61.3047 333.188 61.3047C332.911 61.3047 332.678 61.3437 332.488 61.4219C332.298 61.4974 332.152 61.6029 332.051 61.7383C331.952 61.8737 331.902 62.0273 331.902 62.1992C331.897 62.3424 331.927 62.4674 331.992 62.5742C332.06 62.681 332.152 62.7734 332.27 62.8516C332.387 62.9271 332.522 62.9935 332.676 63.0508C332.829 63.1055 332.993 63.1523 333.168 63.1914L333.887 63.3633C334.236 63.4414 334.556 63.5456 334.848 63.6758C335.139 63.806 335.392 63.9661 335.605 64.1562C335.819 64.3464 335.984 64.5703 336.102 64.8281C336.221 65.0859 336.283 65.3815 336.285 65.7148C336.283 66.2044 336.158 66.6289 335.91 66.9883C335.665 67.3451 335.311 67.6224 334.848 67.8203C334.387 68.0156 333.831 68.1133 333.18 68.1133C332.534 68.1133 331.971 68.0143 331.492 67.8164C331.016 67.6185 330.643 67.3255 330.375 66.9375C330.109 66.5469 329.97 66.0638 329.957 65.4883H331.594C331.612 65.7565 331.689 65.9805 331.824 66.1602C331.962 66.3372 332.146 66.4714 332.375 66.5625C332.607 66.651 332.868 66.6953 333.16 66.6953C333.447 66.6953 333.695 66.6536 333.906 66.5703C334.12 66.487 334.285 66.3711 334.402 66.2227C334.52 66.0742 334.578 65.9036 334.578 65.7109C334.578 65.5312 334.525 65.3802 334.418 65.2578C334.314 65.1354 334.16 65.0312 333.957 64.9453C333.757 64.8594 333.51 64.7812 333.219 64.7109L332.348 64.4922C331.673 64.3281 331.141 64.0716 330.75 63.7227C330.359 63.3737 330.165 62.9036 330.168 62.3125C330.165 61.8281 330.294 61.4049 330.555 61.043C330.818 60.681 331.178 60.3984 331.637 60.1953C332.095 59.9922 332.616 59.8906 333.199 59.8906C333.793 59.8906 334.311 59.9922 334.754 60.1953C335.199 60.3984 335.546 60.681 335.793 61.043C336.04 61.4049 336.168 61.8242 336.176 62.3008H334.555ZM341.824 65.7187C341.509 65.7187 341.221 65.6419 340.961 65.4883C340.701 65.332 340.492 65.1237 340.336 64.8633C340.182 64.6029 340.105 64.3151 340.105 64C340.105 63.6823 340.182 63.3945 340.336 63.1367C340.492 62.8763 340.701 62.6693 340.961 62.5156C341.221 62.3594 341.509 62.2812 341.824 62.2812C342.142 62.2812 342.43 62.3594 342.687 62.5156C342.948 62.6693 343.155 62.8763 343.309 63.1367C343.465 63.3945 343.543 63.6823 343.543 64C343.543 64.3151 343.465 64.6029 343.309 64.8633C343.155 65.1237 342.948 65.332 342.687 65.4883C342.43 65.6419 342.142 65.7187 341.824 65.7187ZM351.957 62.3008C351.926 61.9857 351.792 61.7409 351.555 61.5664C351.318 61.3919 350.996 61.3047 350.59 61.3047C350.314 61.3047 350.081 61.3437 349.891 61.4219C349.701 61.4974 349.555 61.6029 349.453 61.7383C349.354 61.8737 349.305 62.0273 349.305 62.1992C349.299 62.3424 349.329 62.4674 349.395 62.5742C349.462 62.681 349.555 62.7734 349.672 62.8516C349.789 62.9271 349.924 62.9935 350.078 63.0508C350.232 63.1055 350.396 63.1523 350.57 63.1914L351.289 63.3633C351.638 63.4414 351.958 63.5456 352.25 63.6758C352.542 63.806 352.794 63.9661 353.008 64.1562C353.221 64.3464 353.387 64.5703 353.504 64.8281C353.624 65.0859 353.685 65.3815 353.687 65.7148C353.685 66.2044 353.56 66.6289 353.313 66.9883C353.068 67.3451 352.714 67.6224 352.25 67.8203C351.789 68.0156 351.233 68.1133 350.582 68.1133C349.936 68.1133 349.374 68.0143 348.895 67.8164C348.418 67.6185 348.046 67.3255 347.777 66.9375C347.512 66.5469 347.372 66.0638 347.359 65.4883H348.996C349.014 65.7565 349.091 65.9805 349.227 66.1602C349.365 66.3372 349.548 66.4714 349.777 66.5625C350.009 66.651 350.271 66.6953 350.562 66.6953C350.849 66.6953 351.098 66.6536 351.309 66.5703C351.522 66.487 351.688 66.3711 351.805 66.2227C351.922 66.0742 351.98 65.9036 351.98 65.7109C351.98 65.5312 351.927 65.3802 351.82 65.2578C351.716 65.1354 351.563 65.0312 351.359 64.9453C351.159 64.8594 350.913 64.7812 350.621 64.7109L349.75 64.4922C349.076 64.3281 348.543 64.0716 348.152 63.7227C347.762 63.3737 347.568 62.9036 347.57 62.3125C347.568 61.8281 347.697 61.4049 347.957 61.043C348.22 60.681 348.581 60.3984 349.039 60.1953C349.497 59.9922 350.018 59.8906 350.602 59.8906C351.195 59.8906 351.714 59.9922 352.156 60.1953C352.602 60.3984 352.948 60.681 353.195 61.043C353.443 61.4049 353.57 61.8242 353.578 62.3008H351.957ZM356.021 68H354.209L356.971 60H359.15L361.908 68H360.096L358.092 61.8281H358.029L356.021 68ZM355.908 64.8555H360.189V66.1758H355.908V64.8555ZM369.563 60V68H368.102L364.621 62.9648H364.563V68H362.871V60H364.355L367.809 65.0312H367.879V60H369.563ZM373.506 68V60H378.803V61.3945H375.197V63.3008H378.451V64.6953H375.197V68H373.506ZM379.94 68V60H383.097C383.701 60 384.216 60.1081 384.644 60.3242C385.073 60.5378 385.4 60.8411 385.624 61.2344C385.851 61.625 385.964 62.0846 385.964 62.6133C385.964 63.1445 385.849 63.6016 385.62 63.9844C385.391 64.3646 385.059 64.6562 384.624 64.8594C384.192 65.0625 383.668 65.1641 383.054 65.1641H380.94V63.8047H382.78C383.103 63.8047 383.371 63.7604 383.585 63.6719C383.799 63.5833 383.957 63.4505 384.062 63.2734C384.168 63.0964 384.222 62.8763 384.222 62.6133C384.222 62.3477 384.168 62.1237 384.062 61.9414C383.957 61.7591 383.797 61.6211 383.581 61.5273C383.368 61.431 383.098 61.3828 382.772 61.3828H381.632V68H379.94ZM384.261 64.3594L386.249 68H384.382L382.437 64.3594H384.261ZM388.538 68H386.726L389.487 60H391.667L394.425 68H392.612L390.608 61.8281H390.546L388.538 68ZM388.425 64.8555H392.706V66.1758H388.425V64.8555ZM402.079 60V68H400.618L397.138 62.9648H397.079V68H395.388V60H396.872L400.325 65.0312H400.396V60H402.079ZM410.535 62.8008H408.824C408.793 62.5794 408.729 62.3828 408.633 62.2109C408.536 62.0365 408.413 61.888 408.262 61.7656C408.111 61.6432 407.936 61.5495 407.738 61.4844C407.543 61.4193 407.331 61.3867 407.102 61.3867C406.688 61.3867 406.327 61.4896 406.02 61.6953C405.712 61.8984 405.474 62.1953 405.305 62.5859C405.135 62.974 405.051 63.4453 405.051 64C405.051 64.5703 405.135 65.0495 405.305 65.4375C405.477 65.8255 405.716 66.1185 406.023 66.3164C406.331 66.5143 406.686 66.6133 407.09 66.6133C407.316 66.6133 407.526 66.5833 407.719 66.5234C407.914 66.4635 408.087 66.3763 408.238 66.2617C408.389 66.1445 408.514 66.0026 408.613 65.8359C408.715 65.6693 408.785 65.4792 408.824 65.2656L410.535 65.2734C410.491 65.6406 410.38 65.9948 410.203 66.3359C410.029 66.6745 409.793 66.9779 409.496 67.2461C409.202 67.5117 408.85 67.7227 408.441 67.8789C408.035 68.0326 407.576 68.1094 407.063 68.1094C406.349 68.1094 405.711 67.9479 405.148 67.625C404.589 67.3021 404.146 66.8346 403.82 66.2227C403.497 65.6107 403.336 64.8698 403.336 64C403.336 63.1276 403.5 62.3854 403.828 61.7734C404.156 61.1615 404.602 60.6953 405.164 60.375C405.727 60.0521 406.359 59.8906 407.063 59.8906C407.526 59.8906 407.956 59.9557 408.352 60.0859C408.75 60.2161 409.103 60.4062 409.41 60.6562C409.717 60.9036 409.967 61.207 410.16 61.5664C410.355 61.9258 410.48 62.3372 410.535 62.8008ZM413.439 60V68H411.748V60H413.439ZM419.171 62.3008C419.14 61.9857 419.006 61.7409 418.769 61.5664C418.532 61.3919 418.21 61.3047 417.804 61.3047C417.528 61.3047 417.295 61.3437 417.104 61.4219C416.914 61.4974 416.769 61.6029 416.667 61.7383C416.568 61.8737 416.519 62.0273 416.519 62.1992C416.513 62.3424 416.543 62.4674 416.608 62.5742C416.676 62.681 416.769 62.7734 416.886 62.8516C417.003 62.9271 417.138 62.9935 417.292 63.0508C417.446 63.1055 417.61 63.1523 417.784 63.1914L418.503 63.3633C418.852 63.4414 419.172 63.5456 419.464 63.6758C419.756 63.806 420.008 63.9661 420.222 64.1562C420.435 64.3464 420.601 64.5703 420.718 64.8281C420.838 65.0859 420.899 65.3815 420.901 65.7148C420.899 66.2044 420.774 66.6289 420.526 66.9883C420.282 67.3451 419.927 67.6224 419.464 67.8203C419.003 68.0156 418.447 68.1133 417.796 68.1133C417.15 68.1133 416.588 68.0143 416.108 67.8164C415.632 67.6185 415.259 67.3255 414.991 66.9375C414.726 66.5469 414.586 66.0638 414.573 65.4883H416.21C416.228 65.7565 416.305 65.9805 416.44 66.1602C416.578 66.3372 416.762 66.4714 416.991 66.5625C417.223 66.651 417.485 66.6953 417.776 66.6953C418.063 66.6953 418.312 66.6536 418.522 66.5703C418.736 66.487 418.901 66.3711 419.019 66.2227C419.136 66.0742 419.194 65.9036 419.194 65.7109C419.194 65.5312 419.141 65.3802 419.034 65.2578C418.93 65.1354 418.776 65.0312 418.573 64.9453C418.373 64.8594 418.127 64.7812 417.835 64.7109L416.964 64.4922C416.289 64.3281 415.757 64.0716 415.366 63.7227C414.976 63.3737 414.782 62.9036 414.784 62.3125C414.782 61.8281 414.91 61.4049 415.171 61.043C415.434 60.681 415.795 60.3984 416.253 60.1953C416.711 59.9922 417.232 59.8906 417.815 59.8906C418.409 59.8906 418.927 59.9922 419.37 60.1953C419.815 60.3984 420.162 60.681 420.409 61.043C420.657 61.4049 420.784 61.8242 420.792 62.3008H419.171ZM429.098 62.8008H427.387C427.355 62.5794 427.292 62.3828 427.195 62.2109C427.099 62.0365 426.975 61.888 426.824 61.7656C426.673 61.6432 426.499 61.5495 426.301 61.4844C426.105 61.4193 425.893 61.3867 425.664 61.3867C425.25 61.3867 424.889 61.4896 424.582 61.6953C424.275 61.8984 424.036 62.1953 423.867 62.5859C423.698 62.974 423.613 63.4453 423.613 64C423.613 64.5703 423.698 65.0495 423.867 65.4375C424.039 65.8255 424.279 66.1185 424.586 66.3164C424.893 66.5143 425.249 66.6133 425.652 66.6133C425.879 66.6133 426.089 66.5833 426.281 66.5234C426.477 66.4635 426.65 66.3763 426.801 66.2617C426.952 66.1445 427.077 66.0026 427.176 65.8359C427.277 65.6693 427.348 65.4792 427.387 65.2656L429.098 65.2734C429.053 65.6406 428.943 65.9948 428.766 66.3359C428.591 66.6745 428.355 66.9779 428.059 67.2461C427.764 67.5117 427.413 67.7227 427.004 67.8789C426.598 68.0326 426.138 68.1094 425.625 68.1094C424.911 68.1094 424.273 67.9479 423.711 67.625C423.151 67.3021 422.708 66.8346 422.383 66.2227C422.06 65.6107 421.898 64.8698 421.898 64C421.898 63.1276 422.063 62.3854 422.391 61.7734C422.719 61.1615 423.164 60.6953 423.727 60.375C424.289 60.0521 424.922 59.8906 425.625 59.8906C426.089 59.8906 426.518 59.9557 426.914 60.0859C427.313 60.2161 427.665 60.4062 427.973 60.6562C428.28 60.9036 428.53 61.207 428.723 61.5664C428.918 61.9258 429.043 62.3372 429.098 62.8008ZM437.662 64C437.662 64.8724 437.497 65.6146 437.166 66.2266C436.838 66.8385 436.39 67.306 435.822 67.6289C435.257 67.9492 434.622 68.1094 433.916 68.1094C433.205 68.1094 432.567 67.9479 432.002 67.625C431.437 67.3021 430.99 66.8346 430.662 66.2227C430.334 65.6107 430.17 64.8698 430.17 64C430.17 63.1276 430.334 62.3854 430.662 61.7734C430.99 61.1615 431.437 60.6953 432.002 60.375C432.567 60.0521 433.205 59.8906 433.916 59.8906C434.622 59.8906 435.257 60.0521 435.822 60.375C436.39 60.6953 436.838 61.1615 437.166 61.7734C437.497 62.3854 437.662 63.1276 437.662 64ZM435.947 64C435.947 63.4349 435.863 62.9583 435.693 62.5703C435.527 62.1823 435.291 61.888 434.986 61.6875C434.682 61.487 434.325 61.3867 433.916 61.3867C433.507 61.3867 433.15 61.487 432.846 61.6875C432.541 61.888 432.304 62.1823 432.135 62.5703C431.968 62.9583 431.885 63.4349 431.885 64C431.885 64.5651 431.968 65.0417 432.135 65.4297C432.304 65.8177 432.541 66.112 432.846 66.3125C433.15 66.513 433.507 66.6133 433.916 66.6133C434.325 66.6133 434.682 66.513 434.986 66.3125C435.291 66.112 435.527 65.8177 435.693 65.4297C435.863 65.0417 435.947 64.5651 435.947 64ZM228.035 76.3008C228.004 75.9857 227.87 75.7409 227.633 75.5664C227.396 75.3919 227.074 75.3047 226.668 75.3047C226.392 75.3047 226.159 75.3437 225.969 75.4219C225.779 75.4974 225.633 75.6029 225.531 75.7383C225.432 75.8737 225.383 76.0273 225.383 76.1992C225.378 76.3424 225.408 76.4674 225.473 76.5742C225.54 76.681 225.633 76.7734 225.75 76.8516C225.867 76.9271 226.003 76.9935 226.156 77.0508C226.31 77.1055 226.474 77.1523 226.648 77.1914L227.367 77.3633C227.716 77.4414 228.036 77.5456 228.328 77.6758C228.62 77.806 228.872 77.9661 229.086 78.1562C229.299 78.3464 229.465 78.5703 229.582 78.8281C229.702 79.0859 229.763 79.3815 229.766 79.7148C229.763 80.2044 229.638 80.6289 229.391 80.9883C229.146 81.3451 228.792 81.6224 228.328 81.8203C227.867 82.0156 227.311 82.1133 226.66 82.1133C226.014 82.1133 225.452 82.0143 224.973 81.8164C224.496 81.6185 224.124 81.3255 223.855 80.9375C223.59 80.5469 223.451 80.0638 223.437 79.4883H225.074C225.092 79.7565 225.169 79.9805 225.305 80.1602C225.443 80.3372 225.626 80.4714 225.855 80.5625C226.087 80.651 226.349 80.6953 226.641 80.6953C226.927 80.6953 227.176 80.6536 227.387 80.5703C227.6 80.487 227.766 80.3711 227.883 80.2227C228 80.0742 228.059 79.9036 228.059 79.7109C228.059 79.5312 228.005 79.3802 227.898 79.2578C227.794 79.1354 227.641 79.0312 227.438 78.9453C227.237 78.8594 226.991 78.7812 226.699 78.7109L225.828 78.4922C225.154 78.3281 224.621 78.0716 224.23 77.7227C223.84 77.3737 223.646 76.9036 223.648 76.3125C223.646 75.8281 223.775 75.4049 224.035 75.043C224.298 74.681 224.659 74.3984 225.117 74.1953C225.576 73.9922 226.096 73.8906 226.68 73.8906C227.273 73.8906 227.792 73.9922 228.234 74.1953C228.68 74.3984 229.026 74.681 229.273 75.043C229.521 75.4049 229.648 75.8242 229.656 76.3008H228.035ZM230.903 82V74H236.294V75.3945H232.595V77.3008H236.017V78.6953H232.595V80.6055H236.31V82H230.903ZM237.639 82V74H240.795C241.402 74 241.919 74.1159 242.346 74.3477C242.773 74.5768 243.098 74.8958 243.322 75.3047C243.549 75.7109 243.662 76.1797 243.662 76.7109C243.662 77.2422 243.548 77.7109 243.318 78.1172C243.089 78.5234 242.757 78.8398 242.322 79.0664C241.89 79.293 241.367 79.4062 240.752 79.4062H238.74V78.0508H240.479C240.804 78.0508 241.072 77.9948 241.283 77.8828C241.497 77.7682 241.656 77.6107 241.76 77.4102C241.867 77.207 241.92 76.974 241.92 76.7109C241.92 76.4453 241.867 76.2135 241.76 76.0156C241.656 75.8151 241.497 75.6602 241.283 75.5508C241.07 75.4388 240.799 75.3828 240.471 75.3828H239.33V82H237.639ZM244.456 75.3945V74H251.026V75.3945H248.577V82H246.905V75.3945H244.456ZM252.108 82V74H257.499V75.3945H253.8V77.3008H257.222V78.6953H253.8V80.6055H257.515V82H252.108ZM258.844 74H260.93L263.133 79.375H263.227L265.43 74H267.516V82H265.875V76.793H265.809L263.738 81.9609H262.621L260.551 76.7734H260.484V82H258.844V74ZM268.909 82V74H272.112C272.701 74 273.192 74.0872 273.585 74.2617C273.978 74.4362 274.274 74.6784 274.472 74.9883C274.67 75.2956 274.769 75.6497 274.769 76.0508C274.769 76.3633 274.706 76.638 274.581 76.875C274.456 77.1094 274.284 77.3021 274.065 77.4531C273.849 77.6016 273.602 77.707 273.323 77.7695V77.8477C273.628 77.8607 273.913 77.9466 274.179 78.1055C274.447 78.2643 274.664 78.487 274.831 78.7734C274.998 79.0573 275.081 79.3958 275.081 79.7891C275.081 80.2135 274.976 80.5924 274.765 80.9258C274.556 81.2565 274.248 81.5182 273.839 81.7109C273.43 81.9036 272.926 82 272.327 82H268.909ZM270.601 80.6172H271.979C272.451 80.6172 272.795 80.5273 273.011 80.3477C273.227 80.1654 273.335 79.9232 273.335 79.6211C273.335 79.3997 273.282 79.2044 273.175 79.0352C273.068 78.8659 272.916 78.7331 272.718 78.6367C272.522 78.5404 272.289 78.4922 272.019 78.4922H270.601V80.6172ZM270.601 77.3477H271.854C272.086 77.3477 272.292 77.3073 272.472 77.2266C272.654 77.1432 272.797 77.026 272.901 76.875C273.008 76.724 273.062 76.543 273.062 76.332C273.062 76.043 272.959 75.8099 272.753 75.6328C272.55 75.4557 272.261 75.3672 271.886 75.3672H270.601V77.3477ZM276.182 82V74H281.572V75.3945H277.873V77.3008H281.295V78.6953H277.873V80.6055H281.588V82H276.182ZM282.917 82V74H286.073C286.677 74 287.193 74.1081 287.62 74.3242C288.05 74.5378 288.377 74.8411 288.601 75.2344C288.827 75.625 288.94 76.0846 288.94 76.6133C288.94 77.1445 288.826 77.6016 288.597 77.9844C288.368 78.3646 288.035 78.6562 287.601 78.8594C287.168 79.0625 286.645 79.1641 286.03 79.1641H283.917V77.8047H285.757C286.08 77.8047 286.348 77.7604 286.562 77.6719C286.775 77.5833 286.934 77.4505 287.038 77.2734C287.145 77.0964 287.198 76.8763 287.198 76.6133C287.198 76.3477 287.145 76.1237 287.038 75.9414C286.934 75.7591 286.774 75.6211 286.558 75.5273C286.344 75.431 286.075 75.3828 285.749 75.3828H284.608V82H282.917ZM287.237 78.3594L289.226 82H287.358L285.413 78.3594H287.237ZM296.115 74V82H294.424V75.6055H294.377L292.545 76.7539V75.2539L294.525 74H296.115ZM301.001 82.1094C300.399 82.1094 299.864 82.0117 299.396 81.8164C298.929 81.6185 298.563 81.349 298.298 81.0078C298.032 80.6667 297.899 80.2799 297.899 79.8477C297.899 79.5143 297.975 79.2083 298.126 78.9297C298.28 78.6484 298.488 78.4154 298.751 78.2305C299.014 78.043 299.308 77.9232 299.634 77.8711V77.8164C299.207 77.7305 298.86 77.5234 298.595 77.1953C298.329 76.8646 298.196 76.4805 298.196 76.043C298.196 75.6289 298.317 75.2604 298.56 74.9375C298.802 74.612 299.134 74.3568 299.556 74.1719C299.98 73.9844 300.462 73.8906 301.001 73.8906C301.54 73.8906 302.021 73.9844 302.442 74.1719C302.867 74.3594 303.2 74.6159 303.442 74.9414C303.685 75.2643 303.807 75.6315 303.81 76.043C303.807 76.4831 303.672 76.8672 303.403 77.1953C303.135 77.5234 302.791 77.7305 302.372 77.8164V77.8711C302.692 77.9232 302.983 78.043 303.243 78.2305C303.506 78.4154 303.715 78.6484 303.868 78.9297C304.024 79.2083 304.104 79.5143 304.106 79.8477C304.104 80.2799 303.97 80.6667 303.704 81.0078C303.438 81.349 303.071 81.6185 302.603 81.8164C302.136 82.0117 301.603 82.1094 301.001 82.1094ZM301.001 80.8672C301.269 80.8672 301.504 80.819 301.704 80.7227C301.905 80.6237 302.061 80.4883 302.173 80.3164C302.287 80.1419 302.345 79.9414 302.345 79.7148C302.345 79.4831 302.286 79.2786 302.169 79.1016C302.052 78.9219 301.893 78.7813 301.692 78.6797C301.492 78.5755 301.261 78.5234 301.001 78.5234C300.743 78.5234 300.513 78.5755 300.31 78.6797C300.106 78.7813 299.946 78.9219 299.829 79.1016C299.715 79.2786 299.657 79.4831 299.657 79.7148C299.657 79.9414 299.713 80.1419 299.825 80.3164C299.937 80.4883 300.095 80.6237 300.298 80.7227C300.501 80.819 300.735 80.8672 301.001 80.8672ZM301.001 77.293C301.225 77.293 301.424 77.2474 301.599 77.1562C301.773 77.0651 301.91 76.9388 302.009 76.7773C302.108 76.6159 302.157 76.4297 302.157 76.2187C302.157 76.0104 302.108 75.8281 302.009 75.6719C301.91 75.513 301.774 75.3893 301.603 75.3008C301.431 75.2096 301.23 75.1641 301.001 75.1641C300.774 75.1641 300.574 75.2096 300.399 75.3008C300.225 75.3893 300.088 75.513 299.989 75.6719C299.893 75.8281 299.845 76.0104 299.845 76.2187C299.845 76.4297 299.894 76.6159 299.993 76.7773C300.092 76.9388 300.229 77.0651 300.403 77.1562C300.578 77.2474 300.777 77.293 301.001 77.293ZM309.043 77.3398V78.6602H305.395V77.3398H309.043ZM310.22 82V80.7812L313.067 78.1445C313.31 77.9102 313.513 77.6992 313.677 77.5117C313.843 77.3242 313.97 77.1406 314.056 76.9609C314.142 76.7786 314.185 76.582 314.185 76.3711C314.185 76.1367 314.131 75.9349 314.024 75.7656C313.918 75.5937 313.772 75.4622 313.587 75.3711C313.402 75.2773 313.192 75.2305 312.958 75.2305C312.713 75.2305 312.5 75.2799 312.317 75.3789C312.135 75.4779 311.994 75.6198 311.896 75.8047C311.797 75.9896 311.747 76.2096 311.747 76.4648H310.142C310.142 75.9414 310.26 75.487 310.497 75.1016C310.734 74.7161 311.066 74.418 311.493 74.207C311.92 73.9961 312.412 73.8906 312.97 73.8906C313.543 73.8906 314.041 73.9922 314.466 74.1953C314.893 74.3958 315.225 74.6745 315.462 75.0312C315.699 75.388 315.817 75.7969 315.817 76.2578C315.817 76.5599 315.757 76.8581 315.638 77.1523C315.521 77.4466 315.311 77.7734 315.009 78.1328C314.707 78.4896 314.281 78.918 313.731 79.418L312.563 80.5625V80.6172H315.923V82H310.22ZM320.285 82.1758C319.613 82.1732 319.035 82.0078 318.551 81.6797C318.069 81.3516 317.698 80.8763 317.438 80.2539C317.18 79.6315 317.052 78.8828 317.055 78.0078C317.055 77.1354 317.184 76.3919 317.441 75.7773C317.702 75.1628 318.073 74.6953 318.555 74.375C319.039 74.0521 319.616 73.8906 320.285 73.8906C320.954 73.8906 321.53 74.0521 322.012 74.375C322.496 74.6979 322.868 75.1667 323.129 75.7812C323.389 76.3932 323.518 77.1354 323.516 78.0078C323.516 78.8854 323.385 79.6354 323.125 80.2578C322.867 80.8802 322.497 81.3555 322.016 81.6836C321.534 82.0117 320.957 82.1758 320.285 82.1758ZM320.285 80.7734C320.743 80.7734 321.109 80.543 321.383 80.082C321.656 79.6211 321.792 78.9297 321.789 78.0078C321.789 77.401 321.727 76.8958 321.602 76.4922C321.479 76.0885 321.305 75.7852 321.078 75.582C320.854 75.3789 320.59 75.2773 320.285 75.2773C319.829 75.2773 319.465 75.5052 319.191 75.9609C318.918 76.4167 318.78 77.099 318.777 78.0078C318.777 78.6224 318.839 79.1354 318.961 79.5469C319.086 79.9557 319.262 80.263 319.488 80.4687C319.715 80.6719 319.98 80.7734 320.285 80.7734Z" fill="#7A92A8"/>
<path d="M475 57C515.615 57 568.6 57 579 57V64.8158V79H475V57Z" fill="#FF9600"/>
<path d="M489.685 72V64.7273H492.412C492.971 64.7273 493.44 64.8243 493.819 65.0185C494.2 65.2126 494.487 65.4848 494.682 65.8352C494.878 66.1832 494.976 66.5893 494.976 67.0533C494.976 67.5196 494.877 67.9245 494.678 68.2678C494.482 68.6087 494.191 68.8726 493.808 69.0597C493.424 69.2443 492.953 69.3366 492.395 69.3366H490.452V68.2429H492.217C492.544 68.2429 492.811 68.1979 493.02 68.108C493.228 68.0156 493.382 67.8819 493.481 67.7067C493.583 67.5291 493.634 67.3113 493.634 67.0533C493.634 66.7952 493.583 66.575 493.481 66.3928C493.379 66.2081 493.224 66.0684 493.016 65.9737C492.808 65.8767 492.539 65.8281 492.21 65.8281H491.003V72H489.685ZM493.442 68.7045L495.243 72H493.772L492.004 68.7045H493.442ZM496.189 72V64.7273H500.919V65.8317H497.506V67.8061H500.674V68.9105H497.506V70.8956H500.948V72H496.189ZM507.135 67.0497C507.076 66.858 506.995 66.6863 506.89 66.5348C506.789 66.3809 506.665 66.2495 506.521 66.1406C506.379 66.0317 506.216 65.95 506.031 65.8956C505.846 65.8388 505.645 65.8104 505.427 65.8104C505.037 65.8104 504.689 65.9086 504.383 66.1051C504.078 66.3016 503.838 66.5904 503.662 66.9716C503.49 67.3504 503.403 67.812 503.403 68.3565C503.403 68.9058 503.49 69.371 503.662 69.7521C503.835 70.1333 504.075 70.4233 504.383 70.6222C504.691 70.8187 505.049 70.9169 505.456 70.9169C505.825 70.9169 506.145 70.8459 506.415 70.7038C506.687 70.5618 506.896 70.3606 507.043 70.1001C507.19 69.8374 507.263 69.5296 507.263 69.1768L507.562 69.223H505.587V68.1932H508.538V69.0668C508.538 69.6894 508.406 70.228 508.14 70.6825C507.875 71.1371 507.511 71.4875 507.047 71.7337C506.583 71.9775 506.05 72.0994 505.449 72.0994C504.779 72.0994 504.19 71.9491 503.684 71.6484C503.179 71.3454 502.785 70.9157 502.501 70.3594C502.219 69.8007 502.079 69.1378 502.079 68.3707C502.079 67.7836 502.161 67.2592 502.327 66.7976C502.495 66.3359 502.73 65.9441 503.03 65.6222C503.331 65.2978 503.684 65.0516 504.089 64.8835C504.493 64.7131 504.934 64.6278 505.41 64.6278C505.812 64.6278 506.187 64.687 506.535 64.8054C506.883 64.9214 507.192 65.0871 507.462 65.3026C507.734 65.518 507.958 65.7737 508.133 66.0696C508.308 66.3655 508.423 66.6922 508.478 67.0497H507.135ZM511.13 64.7273V72H509.812V64.7273H511.13ZM516.509 66.7266C516.475 66.4164 516.336 66.175 516.09 66.0021C515.846 65.8293 515.528 65.7429 515.138 65.7429C514.863 65.7429 514.628 65.7843 514.431 65.8672C514.235 65.95 514.084 66.0625 513.98 66.2045C513.876 66.3466 513.823 66.5088 513.82 66.6911C513.82 66.8426 513.855 66.974 513.923 67.0852C513.994 67.1965 514.09 67.2912 514.211 67.3693C514.332 67.4451 514.466 67.509 514.612 67.5611C514.759 67.6132 514.907 67.657 515.056 67.6925L515.738 67.8629C516.013 67.9268 516.277 68.0133 516.53 68.1222C516.786 68.2311 517.014 68.3684 517.215 68.5341C517.419 68.6998 517.58 68.8999 517.698 69.1342C517.817 69.3686 517.876 69.6432 517.876 69.9581C517.876 70.3842 517.767 70.7595 517.549 71.0838C517.331 71.4058 517.016 71.6579 516.604 71.8402C516.195 72.0201 515.699 72.1101 515.117 72.1101C514.551 72.1101 514.06 72.0225 513.643 71.8473C513.229 71.6721 512.904 71.4164 512.67 71.0803C512.438 70.7441 512.312 70.3345 512.293 69.8516H513.59C513.609 70.1049 513.687 70.3156 513.824 70.4837C513.961 70.6518 514.14 70.7772 514.36 70.8601C514.583 70.9429 514.831 70.9844 515.106 70.9844C515.392 70.9844 515.643 70.9418 515.859 70.8565C516.077 70.7689 516.247 70.6482 516.37 70.4943C516.493 70.3381 516.556 70.1558 516.558 69.9474C516.556 69.758 516.5 69.6018 516.391 69.4787C516.283 69.3532 516.13 69.2491 515.933 69.1662C515.739 69.081 515.512 69.0052 515.252 68.9389L514.424 68.7259C513.825 68.572 513.352 68.3388 513.004 68.0263C512.658 67.7114 512.485 67.2936 512.485 66.7727C512.485 66.3442 512.601 65.969 512.833 65.647C513.068 65.325 513.386 65.0753 513.788 64.8977C514.191 64.7178 514.647 64.6278 515.156 64.6278C515.672 64.6278 516.124 64.7178 516.512 64.8977C516.903 65.0753 517.209 65.3227 517.432 65.6399C517.654 65.9548 517.769 66.317 517.776 66.7266H516.509ZM518.731 65.8317V64.7273H524.533V65.8317H522.285V72H520.979V65.8317H518.731ZM525.652 72V64.7273H530.382V65.8317H526.969V67.8061H530.137V68.9105H526.969V70.8956H530.41V72H525.652ZM531.726 72V64.7273H534.453C535.012 64.7273 535.481 64.8243 535.86 65.0185C536.241 65.2126 536.528 65.4848 536.723 65.8352C536.919 66.1832 537.017 66.5893 537.017 67.0533C537.017 67.5196 536.918 67.9245 536.719 68.2678C536.523 68.6087 536.233 68.8726 535.849 69.0597C535.465 69.2443 534.994 69.3366 534.436 69.3366H532.493V68.2429H534.258C534.585 68.2429 534.852 68.1979 535.061 68.108C535.269 68.0156 535.423 67.8819 535.522 67.7067C535.624 67.5291 535.675 67.3113 535.675 67.0533C535.675 66.7952 535.624 66.575 535.522 66.3928C535.42 66.2081 535.265 66.0684 535.057 65.9737C534.849 65.8767 534.58 65.8281 534.251 65.8281H533.044V72H531.726ZM535.483 68.7045L537.284 72H535.813L534.045 68.7045H535.483ZM546.687 64.7273V72H545.515L542.088 67.0462H542.028V72H540.71V64.7273H541.889L545.313 69.6847H545.377V64.7273H546.687ZM554.621 68.3636C554.621 69.1473 554.474 69.8184 554.181 70.3771C553.89 70.9335 553.492 71.3596 552.988 71.6555C552.486 71.9515 551.916 72.0994 551.28 72.0994C550.643 72.0994 550.072 71.9515 549.568 71.6555C549.066 71.3572 548.668 70.9299 548.375 70.3736C548.084 69.8149 547.938 69.1449 547.938 68.3636C547.938 67.58 548.084 66.91 548.375 66.3537C548.668 65.795 549.066 65.3677 549.568 65.0717C550.072 64.7758 550.643 64.6278 551.28 64.6278C551.916 64.6278 552.486 64.7758 552.988 65.0717C553.492 65.3677 553.89 65.795 554.181 66.3537C554.474 66.91 554.621 67.58 554.621 68.3636ZM553.297 68.3636C553.297 67.812 553.21 67.3468 553.037 66.968C552.867 66.5869 552.63 66.2992 552.327 66.1051C552.024 65.9086 551.675 65.8104 551.28 65.8104C550.884 65.8104 550.535 65.9086 550.232 66.1051C549.929 66.2992 549.691 66.5869 549.518 66.968C549.348 67.3468 549.263 67.812 549.263 68.3636C549.263 68.9152 549.348 69.3816 549.518 69.7628C549.691 70.1416 549.929 70.4292 550.232 70.6257C550.535 70.8198 550.884 70.9169 551.28 70.9169C551.675 70.9169 552.024 70.8198 552.327 70.6257C552.63 70.4292 552.867 70.1416 553.037 69.7628C553.21 69.3816 553.297 68.9152 553.297 68.3636ZM557.212 72L555.159 64.7273H556.576L557.886 70.0717H557.954L559.353 64.7273H560.642L562.045 70.0753H562.109L563.419 64.7273H564.836L562.783 72H561.484L560.028 66.897H559.971L558.511 72H557.212Z" fill="white"/>
<defs>
<clipPath id="clip0_113_87">
<rect width="193" height="83" fill="white" transform="translate(9 8)"/>
</clipPath>
</defs>
</svg>
