<svg version="1.1" viewBox="0.0 0.0 308.0839895013123 150.25459317585302" fill="none" stroke="none" stroke-linecap="square" stroke-miterlimit="10" xmlns:xlink="http://www.w3.org/1999/xlink" xmlns="http://www.w3.org/2000/svg"><clipPath id="p.0"><path d="m0 0l308.08398 0l0 150.2546l-308.08398 0l0 -150.2546z" clip-rule="nonzero"/></clipPath><g clip-path="url(#p.0)"><path fill="#000000" fill-opacity="0.0" d="m0 0l308.08398 0l0 150.2546l-308.08398 0z" fill-rule="evenodd"/><path fill="#cfe2f3" d="m1.0674982 18.144358l52.653545 0l0 49.25197l-52.653545 0z" fill-rule="evenodd"/><path fill="#a5b4c2" d="m53.721043 18.144358l16.417324 -16.417324l0 49.25197l-16.417324 16.41732z" fill-rule="evenodd"/><path fill="#d8e7f5" d="m1.0674982 18.144358l16.417324 -16.417324l52.653545 0l-16.417324 16.417324z" fill-rule="evenodd"/><path fill="#000000" fill-opacity="0.0" d="m1.0674982 18.144358l16.417324 -16.417324l52.653545 0l0 49.25197l-16.417324 16.41732l-52.653545 0zm0 0l52.653545 0l16.417324 -16.417324m-16.417324 16.417324l0 49.25197" fill-rule="evenodd"/><path stroke="#000000" stroke-width="1.0" stroke-linejoin="round" stroke-linecap="butt" d="m1.0674982 18.144358l16.417324 -16.417324l52.653545 0l0 49.25197l-16.417324 16.41732l-52.653545 0zm0 0l52.653545 0l16.417324 -16.417324m-16.417324 16.417324l0 49.25197" fill-rule="evenodd"/><path fill="#cfe2f3" d="m79.25648 18.144358l52.65354 0l0 49.25197l-52.65354 0z" fill-rule="evenodd"/><path fill="#a5b4c2" d="m131.91002 18.144358l16.417328 -16.417324l0 49.25197l-16.417328 16.41732z" fill-rule="evenodd"/><path fill="#d8e7f5" d="m79.25648 18.144358l16.41732 -16.417324l52.65355 0l-16.417328 16.417324z" fill-rule="evenodd"/><path fill="#000000" fill-opacity="0.0" d="m79.25648 18.144358l16.41732 -16.417324l52.65355 0l0 49.25197l-16.417328 16.41732l-52.65354 0zm0 0l52.65354 0l16.417328 -16.417324m-16.417328 16.417324l0 49.25197" fill-rule="evenodd"/><path stroke="#000000" stroke-width="1.0" stroke-linejoin="round" stroke-linecap="butt" d="m79.25648 18.144358l16.41732 -16.417324l52.65355 0l0 49.25197l-16.417328 16.41732l-52.65354 0zm0 0l52.65354 0l16.417328 -16.417324m-16.417328 16.417324l0 49.25197" fill-rule="evenodd"/><path fill="#cfe2f3" d="m157.44545 18.144358l52.65355 0l0 49.25197l-52.65355 0z" fill-rule="evenodd"/><path fill="#a5b4c2" d="m210.099 18.144358l16.417313 -16.417324l0 49.25197l-16.417313 16.41732z" fill-rule="evenodd"/><path fill="#d8e7f5" d="m157.44545 18.144358l16.417328 -16.417324l52.653534 0l-16.417313 16.417324z" fill-rule="evenodd"/><path fill="#000000" fill-opacity="0.0" d="m157.44545 18.144358l16.417328 -16.417324l52.653534 0l0 49.25197l-16.417313 16.41732l-52.65355 0zm0 0l52.65355 0l16.417313 -16.417324m-16.417313 16.417324l0 49.25197" fill-rule="evenodd"/><path stroke="#000000" stroke-width="1.0" stroke-linejoin="round" stroke-linecap="butt" d="m157.44545 18.144358l16.417328 -16.417324l52.653534 0l0 49.25197l-16.417313 16.41732l-52.65355 0zm0 0l52.65355 0l16.417313 -16.417324m-16.417313 16.417324l0 49.25197" fill-rule="evenodd"/><path fill="#cfe2f3" d="m235.63443 18.144358l52.653534 0l0 49.25197l-52.653534 0z" fill-rule="evenodd"/><path fill="#a5b4c2" d="m288.28796 18.144358l16.417328 -16.417324l0 49.25197l-16.417328 16.41732z" fill-rule="evenodd"/><path fill="#d8e7f5" d="m235.63443 18.144358l16.417313 -16.417324l52.65355 0l-16.417328 16.417324z" fill-rule="evenodd"/><path fill="#000000" fill-opacity="0.0" d="m235.63443 18.144358l16.417313 -16.417324l52.65355 0l0 49.25197l-16.417328 16.41732l-52.653534 0zm0 0l52.653534 0l16.417328 -16.417324m-16.417328 16.417324l0 49.25197" fill-rule="evenodd"/><path stroke="#000000" stroke-width="1.0" stroke-linejoin="round" stroke-linecap="butt" d="m235.63443 18.144358l16.417313 -16.417324l52.65355 0l0 49.25197l-16.417328 16.41732l-52.653534 0zm0 0l52.653534 0l16.417328 -16.417324m-16.417328 16.417324l0 49.25197" fill-rule="evenodd"/><path fill="#00ff00" d="m104.2381 97.54068l52.65355 0l0 49.25197l-52.65355 0z" fill-rule="evenodd"/><path fill="#00cb00" d="m156.89165 97.54068l16.417328 -16.41732l0 49.251976l-16.417328 16.417313z" fill-rule="evenodd"/><path fill="#33ff33" d="m104.2381 97.54068l16.417328 -16.41732l52.65355 0l-16.417328 16.41732z" fill-rule="evenodd"/><path fill="#000000" fill-opacity="0.0" d="m104.2381 97.54068l16.417328 -16.41732l52.65355 0l0 49.251976l-16.417328 16.417313l-52.65355 0zm0 0l52.65355 0l16.417328 -16.41732m-16.417328 16.41732l0 49.25197" fill-rule="evenodd"/><path stroke="#000000" stroke-width="1.0" stroke-linejoin="round" stroke-linecap="butt" d="m104.2381 97.54068l16.417328 -16.41732l52.65355 0l0 49.251976l-16.417328 16.417313l-52.65355 0zm0 0l52.65355 0l16.417328 -16.41732m-16.417328 16.41732l0 49.25197" fill-rule="evenodd"/><path fill="#000000" fill-opacity="0.0" d="m27.39427 67.396324l109.41733 22.551186" fill-rule="evenodd"/><path stroke="#000000" stroke-width="1.0" stroke-linejoin="round" stroke-linecap="butt" d="m27.39427 67.396324l103.54083 21.34002" fill-rule="evenodd"/><path fill="#000000" stroke="#000000" stroke-width="1.0" stroke-linecap="butt" d="m130.6017 90.35408l4.7780914 -0.7016754l-4.111267 -2.5337906z" fill-rule="evenodd"/><path fill="#000000" fill-opacity="0.0" d="m105.583244 67.396324l31.338585 21.51181" fill-rule="evenodd"/><path stroke="#000000" stroke-width="1.0" stroke-linejoin="round" stroke-linecap="butt" d="m105.58325 67.396324l26.391861 18.116226" fill-rule="evenodd"/><path fill="#000000" stroke="#000000" stroke-width="1.0" stroke-linecap="butt" d="m131.04034 86.87433l4.6762238 1.2064743l-2.8066864 -3.9300232z" fill-rule="evenodd"/><path fill="#000000" fill-opacity="0.0" d="m183.77222 67.396324l-44.59842 20.377953" fill-rule="evenodd"/><path stroke="#000000" stroke-width="1.0" stroke-linejoin="round" stroke-linecap="butt" d="m183.77223 67.396324l-39.14113 17.8844" fill-rule="evenodd"/><path fill="#000000" stroke="#000000" stroke-width="1.0" stroke-linecap="butt" d="m143.94466 83.77839l-3.4411774 3.3883362l4.8140717 -0.383667z" fill-rule="evenodd"/><path fill="#000000" fill-opacity="0.0" d="m261.9612 67.396324l-125.03938 21.51181" fill-rule="evenodd"/><path stroke="#000000" stroke-width="1.0" stroke-linejoin="round" stroke-linecap="butt" d="m261.9612 67.396324l-119.12625 20.494514" fill-rule="evenodd"/><path fill="#000000" stroke="#000000" stroke-width="1.0" stroke-linecap="butt" d="m142.55492 86.26302l-4.1923523 2.3972473l4.7524567 0.8583908z" fill-rule="evenodd"/></g></svg>