<svg version="1.1" viewBox="0.0 0.0 192.0 192.0" fill="none" stroke="none" stroke-linecap="square" stroke-miterlimit="10" xmlns:xlink="http://www.w3.org/1999/xlink" xmlns="http://www.w3.org/2000/svg"><clipPath id="p.0"><path d="m0 0l192.0 0l0 192.0l-192.0 0l0 -192.0z" clip-rule="nonzero"/></clipPath><g clip-path="url(#p.0)"><path fill="#000000" fill-opacity="0.0" d="m0 0l192.0 0l0 192.0l-192.0 0z" fill-rule="evenodd"/><path fill="#000000" fill-opacity="0.0" d="m3.1469817 3.7217848l185.85826 0l0 184.06299l-185.85826 0z" fill-rule="evenodd"/><path stroke="#3daae6" stroke-width="4.0" stroke-linejoin="round" stroke-linecap="butt" d="m3.1469817 3.7217848l185.85826 0l0 184.06299l-185.85826 0z" fill-rule="evenodd"/><path fill="#000000" fill-opacity="0.0" d="m134.9376 67.55609l0 0c0 -6.9328766 5.946884 -12.553085 13.28273 -12.553085l0 0c3.5227966 0 6.901306 1.3225517 9.392303 3.676712c2.4909973 2.3541603 3.8904266 5.5470886 3.8904266 8.876373l0 0c0 6.9328766 -5.946884 12.553085 -13.28273 12.553085l0 0c-7.335846 0 -13.28273 -5.6202087 -13.28273 -12.553085z" fill-rule="evenodd"/><path stroke="#3daae6" stroke-width="8.0" stroke-linejoin="round" stroke-linecap="butt" d="m134.9376 67.55609l0 0c0 -6.9328766 5.946884 -12.553085 13.28273 -12.553085l0 0c3.5227966 0 6.901306 1.3225517 9.392303 3.676712c2.4909973 2.3541603 3.8904266 5.5470886 3.8904266 8.876373l0 0c0 6.9328766 -5.946884 12.553085 -13.28273 12.553085l0 0c-7.335846 0 -13.28273 -5.6202087 -13.28273 -12.553085z" fill-rule="evenodd"/><path fill="#000000" fill-opacity="0.0" d="m117.01579 117.083084l0 0c0 -1.8286514 1.4824142 -3.3110733 3.3110733 -3.3110733l56.425194 0c0.8781433 0 1.7203369 0.34884644 2.341278 0.9697952c0.62094116 0.6209488 0.9697876 1.4631271 0.9697876 2.341278l0 13.2438965c0 1.828659 -1.4824219 3.311081 -3.3110657 3.311081l-56.425194 0c-1.828659 0 -3.3110733 -1.4824219 -3.3110733 -3.311081z" fill-rule="evenodd"/><path stroke="#3daae6" stroke-width="8.0" stroke-linejoin="round" stroke-linecap="butt" d="m117.01579 117.083084l0 0c0 -1.8286514 1.4824142 -3.3110733 3.3110733 -3.3110733l56.425194 0c0.8781433 0 1.7203369 0.34884644 2.341278 0.9697952c0.62094116 0.6209488 0.9697876 1.4631271 0.9697876 2.341278l0 13.2438965c0 1.828659 -1.4824219 3.311081 -3.3110657 3.311081l-56.425194 0c-1.828659 0 -3.3110733 -1.4824219 -3.3110733 -3.311081z" fill-rule="evenodd"/><path fill="#000000" fill-opacity="0.0" d="m148.53946 113.77201l-0.33164978 -33.662834" fill-rule="evenodd"/><path stroke="#3daae6" stroke-width="8.0" stroke-linejoin="round" stroke-linecap="butt" d="m148.53946 113.77201l-0.33164978 -33.662834" fill-rule="evenodd"/><path fill="#000000" fill-opacity="0.0" d="m85.01575 96.0l40.0 0" fill-rule="evenodd"/><path stroke="#3daae6" stroke-width="4.0" stroke-linejoin="round" stroke-linecap="butt" d="m85.01575 96.0l22.0 0" fill-rule="evenodd"/><path fill="#3daae6" stroke="#3daae6" stroke-width="4.0" stroke-linecap="butt" d="m107.01575 100.42311l12.15239 -4.423111l-12.15239 -4.423111z" fill-rule="evenodd"/><path fill="#ffffff" d="m13.0078745 54.501312l53.007874 0l0 57.653366l-8.83482 8.834824l-44.173054 0z" fill-rule="evenodd"/><path fill="#cbcbcb" d="m57.180927 120.9895l1.766964 -7.067856l7.067856 -1.7669678z" fill-rule="evenodd"/><path fill="#000000" fill-opacity="0.0" d="m57.180927 120.9895l1.766964 -7.067856l7.067856 -1.7669678l-8.83482 8.834824l-44.173054 0l0 -66.48819l53.007874 0l0 57.653366" fill-rule="evenodd"/><path stroke="#3daae6" stroke-width="4.0" stroke-linejoin="round" stroke-linecap="butt" d="m57.180927 120.9895l1.766964 -7.067856l7.067856 -1.7669678l-8.83482 8.834824l-44.173054 0l0 -66.48819l53.007874 0l0 57.653366" fill-rule="evenodd"/><path fill="#000000" fill-opacity="0.0" d="m40.0 86.9895l18.519684 0" fill-rule="evenodd"/><path stroke="#3daae6" stroke-width="4.0" stroke-linejoin="round" stroke-linecap="butt" d="m40.0 86.9895l18.519684 0" fill-rule="evenodd"/><path fill="#000000" fill-opacity="0.0" d="m24.007874 73.50131l30.519684 0.62992096" fill-rule="evenodd"/><path stroke="#3daae6" stroke-width="4.0" stroke-linejoin="round" stroke-linecap="butt" d="m24.007874 73.50131l30.519684 0.62992096" fill-rule="evenodd"/><path fill="#000000" fill-opacity="0.0" d="m19.507874 94.99869l15.496063 1.5118103" fill-rule="evenodd"/><path stroke="#3daae6" stroke-width="4.0" stroke-linejoin="round" stroke-linecap="butt" d="m19.507874 94.99869l15.496063 1.5118103" fill-rule="evenodd"/><path fill="#000000" fill-opacity="0.0" d="m39.50656 95.50131l18.48819 1.5118103" fill-rule="evenodd"/><path stroke="#3daae6" stroke-width="4.0" stroke-linejoin="round" stroke-linecap="butt" d="m39.50656 95.50131l18.48819 1.5118103" fill-rule="evenodd"/><path fill="#000000" fill-opacity="0.0" d="m20.506561 86.0l15.496063 -0.50393677" fill-rule="evenodd"/><path stroke="#3daae6" stroke-width="4.0" stroke-linejoin="round" stroke-linecap="butt" d="m20.506561 86.0l15.496063 -0.50393677" fill-rule="evenodd"/><path fill="#000000" fill-opacity="0.0" d="m21.606298 103.97113l35.401573 0.03149414" fill-rule="evenodd"/><path stroke="#3daae6" stroke-width="4.0" stroke-linejoin="round" stroke-linecap="butt" d="m21.606298 103.97113l35.401573 0.03149414" fill-rule="evenodd"/><path fill="#000000" fill-opacity="0.0" d="m19.507874 62.998688l15.496063 1.5118103" fill-rule="evenodd"/><path stroke="#3daae6" stroke-width="4.0" stroke-linejoin="round" stroke-linecap="butt" d="m19.507874 62.998688l15.496063 1.5118103" fill-rule="evenodd"/><path fill="#000000" fill-opacity="0.0" d="m41.007874 66.0l18.015747 0.50393677" fill-rule="evenodd"/><path stroke="#3daae6" stroke-width="4.0" stroke-linejoin="round" stroke-linecap="butt" d="m41.007874 66.0l18.015747 0.50393677" fill-rule="evenodd"/><path fill="#000000" fill-opacity="0.0" d="m21.666666 112.973755l11.181105 -0.03149414" fill-rule="evenodd"/><path stroke="#3daae6" stroke-width="4.0" stroke-linejoin="round" stroke-linecap="butt" d="m21.666666 112.973755l11.181105 -0.03149414" fill-rule="evenodd"/><path fill="#ffffff" d="m24.007874 67.50131l53.007874 0l0 57.653366l-8.834824 8.834824l-44.17305 0z" fill-rule="evenodd"/><path fill="#cbcbcb" d="m68.18092 133.9895l1.7669678 -7.067856l7.067856 -1.7669678z" fill-rule="evenodd"/><path fill="#000000" fill-opacity="0.0" d="m68.18092 133.9895l1.7669678 -7.067856l7.067856 -1.7669678l-8.834824 8.834824l-44.17305 0l0 -66.48819l53.007874 0l0 57.653366" fill-rule="evenodd"/><path stroke="#3daae6" stroke-width="4.0" stroke-linejoin="round" stroke-linecap="butt" d="m68.18092 133.9895l1.7669678 -7.067856l7.067856 -1.7669678l-8.834824 8.834824l-44.17305 0l0 -66.48819l53.007874 0l0 57.653366" fill-rule="evenodd"/><path fill="#000000" fill-opacity="0.0" d="m51.0 99.9895l18.519684 0" fill-rule="evenodd"/><path stroke="#3daae6" stroke-width="4.0" stroke-linejoin="round" stroke-linecap="butt" d="m51.0 99.9895l18.519684 0" fill-rule="evenodd"/><path fill="#000000" fill-opacity="0.0" d="m35.007874 86.50131l30.519684 0.62992096" fill-rule="evenodd"/><path stroke="#3daae6" stroke-width="4.0" stroke-linejoin="round" stroke-linecap="butt" d="m35.007874 86.50131l30.519684 0.62992096" fill-rule="evenodd"/><path fill="#000000" fill-opacity="0.0" d="m30.507874 107.99869l15.496063 1.5118103" fill-rule="evenodd"/><path stroke="#3daae6" stroke-width="4.0" stroke-linejoin="round" stroke-linecap="butt" d="m30.507874 107.99869l15.496063 1.5118103" fill-rule="evenodd"/><path fill="#000000" fill-opacity="0.0" d="m50.50656 108.50131l18.48819 1.5118103" fill-rule="evenodd"/><path stroke="#3daae6" stroke-width="4.0" stroke-linejoin="round" stroke-linecap="butt" d="m50.50656 108.50131l18.48819 1.5118103" fill-rule="evenodd"/><path fill="#000000" fill-opacity="0.0" d="m31.506561 99.0l15.496063 -0.50393677" fill-rule="evenodd"/><path stroke="#3daae6" stroke-width="4.0" stroke-linejoin="round" stroke-linecap="butt" d="m31.506561 99.0l15.496063 -0.50393677" fill-rule="evenodd"/><path fill="#000000" fill-opacity="0.0" d="m32.6063 116.97113l35.401573 0.03149414" fill-rule="evenodd"/><path stroke="#3daae6" stroke-width="4.0" stroke-linejoin="round" stroke-linecap="butt" d="m32.6063 116.97113l35.401573 0.03149414" fill-rule="evenodd"/><path fill="#000000" fill-opacity="0.0" d="m30.507874 75.99869l15.496063 1.5118103" fill-rule="evenodd"/><path stroke="#3daae6" stroke-width="4.0" stroke-linejoin="round" stroke-linecap="butt" d="m30.507874 75.99869l15.496063 1.5118103" fill-rule="evenodd"/><path fill="#000000" fill-opacity="0.0" d="m52.007874 79.0l18.015747 0.50393677" fill-rule="evenodd"/><path stroke="#3daae6" stroke-width="4.0" stroke-linejoin="round" stroke-linecap="butt" d="m52.007874 79.0l18.015747 0.50393677" fill-rule="evenodd"/><path fill="#000000" fill-opacity="0.0" d="m32.666668 125.973755l11.181103 -0.03149414" fill-rule="evenodd"/><path stroke="#3daae6" stroke-width="4.0" stroke-linejoin="round" stroke-linecap="butt" d="m32.666668 125.973755l11.181103 -0.03149414" fill-rule="evenodd"/></g></svg>