<svg version="1.1" viewBox="0.0 0.0 922.0787401574803 179.8713910761155" fill="none" stroke="none" stroke-linecap="square" stroke-miterlimit="10" xmlns:xlink="http://www.w3.org/1999/xlink" xmlns="http://www.w3.org/2000/svg"><clipPath id="p.0"><path d="m0 0l922.07874 0l0 179.87138l-922.07874 0l0 -179.87138z" clip-rule="nonzero"/></clipPath><g clip-path="url(#p.0)"><path fill="#000000" fill-opacity="0.0" d="m0 0l922.07874 0l0 179.87138l-922.07874 0z" fill-rule="evenodd"/><path fill="#ffffff" d="m0.4566929 0l0 9.392173E-19c0 -0.0042356327 0.0034336746 -0.0076692915 0.0076693 -0.0076692915l920.3073 0.0076692915c0.0020141602 0 0.003967285 8.080123E-4 0.005432129 0.0022462835c0.0014038086 0.001438271 0.0021972656 0.0033889855 0.0021972656 0.005423008l-0.0076293945 179.3624c0 0.0042419434 -0.0034179688 0.007675171 -0.0076904297 0.007675171l-920.3073 -0.007675171l0 0c-0.0042356253 0 -0.00766927 -0.0034332275 -0.00766927 -0.007659912z" fill-rule="evenodd"/><path stroke="#434343" stroke-width="1.0" stroke-linejoin="round" stroke-linecap="butt" d="m0.4566929 0l0 9.392173E-19c0 -0.0042356327 0.0034336746 -0.0076692915 0.0076693 -0.0076692915l920.3073 0.0076692915c0.0020141602 0 0.003967285 8.080123E-4 0.005432129 0.0022462835c0.0014038086 0.001438271 0.0021972656 0.0033889855 0.0021972656 0.005423008l-0.0076293945 179.3624c0 0.0042419434 -0.0034179688 0.007675171 -0.0076904297 0.007675171l-920.3073 -0.007675171l0 0c-0.0042356253 0 -0.00766927 -0.0034332275 -0.00766927 -0.007659912z" fill-rule="evenodd"/><path fill="#434343" d="m423.13412 29.48l0 -15.140625l3.078125 0l0 12.5625l7.65625 0l0 2.578125l-10.734375 0zm19.324951 -3.515625l2.90625 0.484375q-0.546875 1.609375 -1.765625 2.453125q-1.21875 0.828125 -3.03125 0.828125q-2.890625 0 -4.28125 -1.890625q-1.09375 -1.5 -1.09375 -3.8125q0 -2.75 1.4375 -4.296875q1.4375 -1.5625 3.640625 -1.5625q2.46875 0 3.890625 1.640625q1.421875 1.625 1.359375 4.984375l-7.328125 0q0.03125 1.296875 0.703125 2.03125q0.6875 0.71875 1.703125 0.71875q0.6875 0 1.15625 -0.375q0.46875 -0.375 0.703125 -1.203125zm0.171875 -2.96875q-0.03125 -1.265625 -0.65625 -1.921875q-0.625 -0.671875 -1.53125 -0.671875q-0.953125 0 -1.578125 0.703125q-0.625 0.703125 -0.609375 1.890625l4.375 0zm7.4710693 -1.203125l-2.65625 -0.484375q0.453125 -1.59375 1.546875 -2.359375q1.09375 -0.78125 3.25 -0.78125q1.953125 0 2.90625 0.46875q0.96875 0.453125 1.359375 1.171875q0.390625 0.71875 0.390625 2.625l-0.03125 3.40625q0 1.46875 0.125 2.15625q0.140625 0.6875 0.53125 1.484375l-2.890625 0q-0.109375 -0.296875 -0.28125 -0.859375q-0.078125 -0.265625 -0.109375 -0.34375q-0.75 0.71875 -1.609375 1.09375q-0.84375 0.359375 -1.8125 0.359375q-1.703125 0 -2.6875 -0.921875q-0.984375 -0.9375 -0.984375 -2.34375q0 -0.9375 0.4375 -1.671875q0.453125 -0.734375 1.25 -1.125q0.8125 -0.390625 2.34375 -0.6875q2.046875 -0.390625 2.84375 -0.71875l0 -0.296875q0 -0.84375 -0.421875 -1.203125q-0.421875 -0.359375 -1.578125 -0.359375q-0.78125 0 -1.21875 0.3125q-0.4375 0.3125 -0.703125 1.078125zm3.921875 2.375q-0.5625 0.1875 -1.78125 0.453125q-1.21875 0.25 -1.59375 0.5q-0.578125 0.40625 -0.578125 1.03125q0 0.625 0.453125 1.078125q0.46875 0.4375 1.171875 0.4375q0.796875 0 1.515625 -0.515625q0.53125 -0.40625 0.6875 -0.96875q0.125 -0.375 0.125 -1.4375l0 -0.578125zm8.549194 5.3125l-2.921875 0l0 -11.0625l2.71875 0l0 1.578125q0.703125 -1.125 1.25 -1.46875q0.5625 -0.359375 1.265625 -0.359375q1.0 0 1.9375 0.5625l-0.90625 2.546875q-0.75 -0.484375 -1.375 -0.484375q-0.625 0 -1.046875 0.34375q-0.421875 0.328125 -0.671875 1.21875q-0.25 0.890625 -0.25 3.703125l0 3.421875zm15.565674 0l-2.921875 0l0 -5.640625q0 -1.796875 -0.1875 -2.3125q-0.1875 -0.53125 -0.609375 -0.828125q-0.421875 -0.296875 -1.015625 -0.296875q-0.765625 0 -1.375 0.421875q-0.59375 0.421875 -0.828125 1.109375q-0.21875 0.6875 -0.21875 2.53125l0 5.015625l-2.921875 0l0 -11.0625l2.71875 0l0 1.625q1.4375 -1.875 3.640625 -1.875q0.96875 0 1.765625 0.359375q0.8125 0.34375 1.21875 0.890625q0.40625 0.53125 0.5625 1.21875q0.171875 0.6875 0.171875 1.96875l0 6.875zm9.371826 -3.515625l2.90625 0.484375q-0.546875 1.609375 -1.765625 2.453125q-1.21875 0.828125 -3.03125 0.828125q-2.890625 0 -4.28125 -1.890625q-1.09375 -1.5 -1.09375 -3.8125q0 -2.75 1.4375 -4.296875q1.4375 -1.5625 3.640625 -1.5625q2.46875 0 3.890625 1.640625q1.421875 1.625 1.359375 4.984375l-7.328125 0q0.03125 1.296875 0.703125 2.03125q0.6875 0.71875 1.703125 0.71875q0.6875 0 1.15625 -0.375q0.46875 -0.375 0.703125 -1.203125zm0.171875 -2.96875q-0.03125 -1.265625 -0.65625 -1.921875q-0.625 -0.671875 -1.53125 -0.671875q-0.953125 0 -1.578125 0.703125q-0.625 0.703125 -0.609375 1.890625l4.375 0zm8.080444 6.484375l-2.921875 0l0 -11.0625l2.71875 0l0 1.578125q0.703125 -1.125 1.25 -1.46875q0.5625 -0.359375 1.265625 -0.359375q1.0 0 1.9375 0.5625l-0.90625 2.546875q-0.75 -0.484375 -1.375 -0.484375q-0.625 0 -1.046875 0.34375q-0.421875 0.328125 -0.671875 1.21875q-0.25 0.890625 -0.25 3.703125l0 3.421875z" fill-rule="nonzero"/><path fill="#ffffff" d="m12.4124 65.48383l0 0c0 -4.2056084 3.4093199 -7.614929 7.6149282 -7.614929l151.68896 0c2.0196075 0 3.9564972 0.80228424 5.3845673 2.230362c1.4280701 1.4280739 2.230362 3.3649635 2.230362 5.3845673l0 63.24221c0 4.205597 -3.409317 7.614929 -7.614929 7.614929l-151.68896 0l0 0c-4.2056084 0 -7.6149282 -3.4093323 -7.6149282 -7.614929z" fill-rule="evenodd"/><path stroke="#000000" stroke-width="1.0" stroke-linejoin="round" stroke-linecap="butt" d="m12.4124 65.48383l0 0c0 -4.2056084 3.4093199 -7.614929 7.6149282 -7.614929l151.68896 0c2.0196075 0 3.9564972 0.80228424 5.3845673 2.230362c1.4280701 1.4280739 2.230362 3.3649635 2.230362 5.3845673l0 63.24221c0 4.205597 -3.409317 7.614929 -7.614929 7.614929l-151.68896 0l0 0c-4.2056084 0 -7.6149282 -3.4093323 -7.6149282 -7.614929z" fill-rule="evenodd"/><path fill="#000000" d="m41.988995 76.77924l0 -11.359375l2.3125 0l0 9.421875l5.75 0l0 1.9375l-8.0625 0zm9.6953125 -9.421875l0 -2.03125l2.1875 0l0 2.03125l-2.1875 0zm0 9.421875l0 -8.296875l2.1875 0l0 8.296875l-2.1875 0zm3.6640625 -2.375l2.203125 -0.328125q0.140625 0.640625 0.5625 0.96875q0.4375 0.328125 1.21875 0.328125q0.84375 0 1.28125 -0.3125q0.28125 -0.21875 0.28125 -0.578125q0 -0.25 -0.15625 -0.421875q-0.15625 -0.15625 -0.734375 -0.28125q-2.65625 -0.59375 -3.359375 -1.078125q-0.984375 -0.671875 -0.984375 -1.859375q0 -1.078125 0.84375 -1.8125q0.859375 -0.734375 2.640625 -0.734375q1.703125 0 2.53125 0.5625q0.828125 0.546875 1.140625 1.625l-2.0625 0.390625q-0.140625 -0.484375 -0.515625 -0.734375q-0.359375 -0.265625 -1.046875 -0.265625q-0.875 0 -1.25 0.234375q-0.25 0.171875 -0.25 0.453125q0 0.234375 0.21875 0.390625q0.296875 0.21875 2.046875 0.625q1.765625 0.390625 2.453125 0.96875q0.6875 0.59375 0.6875 1.640625q0 1.140625 -0.953125 1.96875q-0.953125 0.8125 -2.8125 0.8125q-1.703125 0 -2.6875 -0.6875q-0.984375 -0.6875 -1.296875 -1.875zm13.476566 -5.921875l0 1.75l-1.5 0l0 3.34375q0 1.015625 0.046875 1.1875q0.046875 0.15625 0.1875 0.265625q0.15625 0.109375 0.375 0.109375q0.3125 0 0.890625 -0.203125l0.1875 1.703125q-0.765625 0.328125 -1.734375 0.328125q-0.59375 0 -1.078125 -0.203125q-0.46875 -0.203125 -0.703125 -0.515625q-0.21875 -0.3125 -0.296875 -0.859375q-0.078125 -0.375 -0.078125 -1.546875l0 -3.609375l-1.0 0l0 -1.75l1.0 0l0 -1.65625l2.203125 -1.28125l0 2.9375l1.5 0zm1.515625 11.53125l0 -14.6875l3.890625 0l0 1.71875l-1.796875 0l0 11.234375l1.796875 0l0 1.734375l-3.890625 0zm5.359375 -3.234375l0 -11.453125l8.484375 0l0 1.9375l-6.171875 0l0 2.53125l5.75 0l0 1.9375l-5.75 0l0 3.109375l6.390625 0l0 1.9375l-8.703125 0zm10.59375 -8.296875l2.046875 0l0 1.21875q0.390625 -0.625 1.0625 -1.015625q0.6875 -0.390625 1.515625 -0.390625q1.453125 0 2.453125 1.140625q1.015625 1.125 1.015625 3.140625q0 2.078125 -1.015625 3.234375q-1.015625 1.15625 -2.46875 1.15625q-0.6875 0 -1.25 -0.265625q-0.546875 -0.28125 -1.171875 -0.953125l0 4.1875l-2.1875 0l0 -11.453125zm2.171875 4.0q0 1.40625 0.546875 2.078125q0.5625 0.65625 1.359375 0.65625q0.765625 0 1.265625 -0.609375q0.515625 -0.609375 0.515625 -2.015625q0 -1.296875 -0.53125 -1.921875q-0.515625 -0.640625 -1.296875 -0.640625q-0.796875 0 -1.328125 0.625q-0.53125 0.609375 -0.53125 1.828125zm7.6640625 -5.125l0 -2.03125l2.1875 0l0 2.03125l-2.1875 0zm0 9.421875l0 -8.296875l2.1875 0l0 8.296875l-2.1875 0zm3.6640625 -2.375l2.203125 -0.328125q0.140625 0.640625 0.5625 0.96875q0.4375 0.328125 1.21875 0.328125q0.84375 0 1.28125 -0.3125q0.28125 -0.21875 0.28125 -0.578125q0 -0.25 -0.15625 -0.421875q-0.15625 -0.15625 -0.734375 -0.28125q-2.65625 -0.59375 -3.359375 -1.078125q-0.984375 -0.671875 -0.984375 -1.859375q0 -1.078125 0.84375 -1.8125q0.859375 -0.734375 2.640625 -0.734375q1.703125 0 2.53125 0.5625q0.828125 0.546875 1.140625 1.625l-2.0625 0.390625q-0.140625 -0.484375 -0.515625 -0.734375q-0.359375 -0.265625 -1.046875 -0.265625q-0.875 0 -1.25 0.234375q-0.25 0.171875 -0.25 0.453125q0 0.234375 0.21875 0.390625q0.296875 0.21875 2.046875 0.625q1.765625 0.390625 2.453125 0.96875q0.6875 0.59375 0.6875 1.640625q0 1.140625 -0.953125 1.96875q-0.953125 0.8125 -2.8125 0.8125q-1.703125 0 -2.6875 -0.6875q-0.984375 -0.6875 -1.296875 -1.875zm9.1640625 -1.890625q0 -1.09375 0.53125 -2.109375q0.546875 -1.03125 1.53125 -1.5625q1.0 -0.546875 2.21875 -0.546875q1.875 0 3.078125 1.21875q1.203125 1.21875 1.203125 3.09375q0 1.875 -1.21875 3.125q-1.203125 1.234375 -3.046875 1.234375q-1.140625 0 -2.1875 -0.515625q-1.03125 -0.515625 -1.578125 -1.515625q-0.53125 -1.0 -0.53125 -2.421875zm2.25 0.109375q0 1.234375 0.578125 1.890625q0.59375 0.65625 1.453125 0.65625q0.859375 0 1.4375 -0.65625q0.59375 -0.65625 0.59375 -1.90625q0 -1.21875 -0.59375 -1.875q-0.578125 -0.65625 -1.4375 -0.65625q-0.859375 0 -1.453125 0.65625q-0.578125 0.65625 -0.578125 1.890625zm15.6484375 4.15625l-2.046875 0l0 -1.21875q-0.5 0.703125 -1.203125 1.0625q-0.6875 0.34375 -1.390625 0.34375q-1.421875 0 -2.453125 -1.15625q-1.015625 -1.15625 -1.015625 -3.21875q0 -2.109375 0.984375 -3.203125q1.0 -1.09375 2.515625 -1.09375q1.390625 0 2.40625 1.15625l0 -4.125l2.203125 0l0 11.453125zm-5.859375 -4.328125q0 1.328125 0.359375 1.921875q0.53125 0.859375 1.484375 0.859375q0.765625 0 1.296875 -0.640625q0.53125 -0.65625 0.53125 -1.9375q0 -1.421875 -0.515625 -2.046875q-0.515625 -0.640625 -1.328125 -0.640625q-0.78125 0 -1.3125 0.625q-0.515625 0.625 -0.515625 1.859375zm12.8203125 1.6875l2.1875 0.359375q-0.421875 1.203125 -1.328125 1.84375q-0.90625 0.625 -2.28125 0.625q-2.15625 0 -3.203125 -1.421875q-0.8125 -1.125 -0.8125 -2.859375q0 -2.0625 1.078125 -3.21875q1.078125 -1.171875 2.71875 -1.171875q1.859375 0 2.921875 1.21875q1.078125 1.21875 1.03125 3.75l-5.5 0q0.015625 0.96875 0.515625 1.515625q0.515625 0.546875 1.28125 0.546875q0.515625 0 0.859375 -0.28125q0.359375 -0.28125 0.53125 -0.90625zm0.125 -2.21875q-0.015625 -0.953125 -0.484375 -1.453125q-0.46875 -0.5 -1.140625 -0.5q-0.71875 0 -1.1875 0.53125q-0.46875 0.515625 -0.46875 1.421875l3.28125 0zm3.1953125 2.484375l2.203125 -0.328125q0.140625 0.640625 0.5625 0.96875q0.4375 0.328125 1.21875 0.328125q0.84375 0 1.28125 -0.3125q0.28123474 -0.21875 0.28123474 -0.578125q0 -0.25 -0.15623474 -0.421875q-0.15625 -0.15625 -0.734375 -0.28125q-2.65625 -0.59375 -3.359375 -1.078125q-0.984375 -0.671875 -0.984375 -1.859375q0 -1.078125 0.84375 -1.8125q0.859375 -0.734375 2.640625 -0.734375q1.703125 0 2.5312347 0.5625q0.828125 0.546875 1.140625 1.625l-2.0624847 0.390625q-0.140625 -0.484375 -0.515625 -0.734375q-0.359375 -0.265625 -1.046875 -0.265625q-0.875 0 -1.25 0.234375q-0.25 0.171875 -0.25 0.453125q0 0.234375 0.21875 0.390625q0.296875 0.21875 2.046875 0.625q1.7656097 0.390625 2.4531097 0.96875q0.6875 0.59375 0.6875 1.640625q0 1.140625 -0.953125 1.96875q-0.953125 0.8125 -2.8124847 0.8125q-1.703125 0 -2.6875 -0.6875q-0.984375 -0.6875 -1.296875 -1.875zm12.710922 -9.078125l0 14.6875l-3.890625 0l0 -1.734375l1.8125 0l0 -11.25l-1.8125 0l0 -1.703125l3.890625 0z" fill-rule="nonzero"/><path fill="#999999" d="m17.178888 86.210724l0 0c0 -1.2998047 1.0536976 -2.3535004 2.3535004 -2.3535004l105.01329 0c0.6241913 0 1.2228088 0.24795532 1.664177 0.6893234c0.4413681 0.4413681 0.6893234 1.0399933 0.6893234 1.664177l0 9.413719c0 1.2998047 -1.0536957 2.3535004 -2.3535004 2.3535004l-105.01329 0c-1.2998028 0 -2.3535004 -1.0536957 -2.3535004 -2.3535004z" fill-rule="evenodd"/><path stroke="#000000" stroke-width="1.0" stroke-linejoin="round" stroke-linecap="butt" d="m17.178888 86.210724l0 0c0 -1.2998047 1.0536976 -2.3535004 2.3535004 -2.3535004l105.01329 0c0.6241913 0 1.2228088 0.24795532 1.664177 0.6893234c0.4413681 0.4413681 0.6893234 1.0399933 0.6893234 1.664177l0 9.413719c0 1.2998047 -1.0536957 2.3535004 -2.3535004 2.3535004l-105.01329 0c-1.2998028 0 -2.3535004 -1.0536957 -2.3535004 -2.3535004z" fill-rule="evenodd"/><path fill="#999999" d="m17.178831 102.41553l0 0c0 -1.2998047 1.0536976 -2.3535004 2.3535004 -2.3535004l133.33667 0c0.6241913 0 1.2228088 0.24795532 1.6641846 0.6893234c0.44136047 0.4413681 0.6893158 1.0399857 0.6893158 1.664177l0 9.413712c0 1.2998047 -1.0536957 2.3535004 -2.3535004 2.3535004l-133.33667 0l0 0c-1.2998028 0 -2.3535004 -1.0536957 -2.3535004 -2.3535004z" fill-rule="evenodd"/><path stroke="#000000" stroke-width="1.0" stroke-linejoin="round" stroke-linecap="butt" d="m17.178831 102.41553l0 0c0 -1.2998047 1.0536976 -2.3535004 2.3535004 -2.3535004l133.33667 0c0.6241913 0 1.2228088 0.24795532 1.6641846 0.6893234c0.44136047 0.4413681 0.6893158 1.0399857 0.6893158 1.664177l0 9.413712c0 1.2998047 -1.0536957 2.3535004 -2.3535004 2.3535004l-133.33667 0l0 0c-1.2998028 0 -2.3535004 -1.0536957 -2.3535004 -2.3535004z" fill-rule="evenodd"/><path fill="#999999" d="m17.178942 118.62032l0 0c0 -1.2998047 1.0536976 -2.3535004 2.3535004 -2.3535004l87.67244 0c0.6241913 0 1.2228088 0.24795532 1.664177 0.6893234c0.4413681 0.4413681 0.6893234 1.0399933 0.6893234 1.664177l0 9.413719c0 1.2998047 -1.0536957 2.3535004 -2.3535004 2.3535004l-87.67244 0c-1.2998028 0 -2.3535004 -1.0536957 -2.3535004 -2.3535004z" fill-rule="evenodd"/><path stroke="#000000" stroke-width="1.0" stroke-linejoin="round" stroke-linecap="butt" d="m17.178942 118.62032l0 0c0 -1.2998047 1.0536976 -2.3535004 2.3535004 -2.3535004l87.67244 0c0.6241913 0 1.2228088 0.24795532 1.664177 0.6893234c0.4413681 0.4413681 0.6893234 1.0399933 0.6893234 1.664177l0 9.413719c0 1.2998047 -1.0536957 2.3535004 -2.3535004 2.3535004l-87.67244 0c-1.2998028 0 -2.3535004 -1.0536957 -2.3535004 -2.3535004z" fill-rule="evenodd"/><path fill="#fce5cd" d="m303.66873 70.16086l0 0c0 -3.642685 2.953003 -6.595665 6.5956726 -6.595665l143.4071 0c1.7492676 0 3.4269104 0.6949005 4.663849 1.9318237c1.236908 1.2369308 1.9318237 2.9145584 1.9318237 4.6638412l0 54.777176c0 3.642685 -2.953003 6.5956573 -6.5956726 6.5956573l-143.4071 0c-3.6426697 0 -6.5956726 -2.9529724 -6.5956726 -6.5956573z" fill-rule="evenodd"/><path stroke="#b45f06" stroke-width="2.0" stroke-linejoin="round" stroke-linecap="butt" d="m303.66873 70.16086l0 0c0 -3.642685 2.953003 -6.595665 6.5956726 -6.595665l143.4071 0c1.7492676 0 3.4269104 0.6949005 4.663849 1.9318237c1.236908 1.2369308 1.9318237 2.9145584 1.9318237 4.6638412l0 54.777176c0 3.642685 -2.953003 6.5956573 -6.5956726 6.5956573l-143.4071 0c-3.6426697 0 -6.5956726 -2.9529724 -6.5956726 -6.5956573z" fill-rule="evenodd"/><path fill="#bf9000" d="m353.85468 84.40945l0 -11.359375l2.3125 0l0 9.421875l5.75 0l0 1.9375l-8.0625 0zm14.4921875 -2.640625l2.1875 0.359375q-0.421875 1.203125 -1.328125 1.84375q-0.90625 0.625 -2.28125 0.625q-2.15625 0 -3.203125 -1.421875q-0.8125 -1.125 -0.8125 -2.859375q0 -2.0625 1.078125 -3.21875q1.078125 -1.171875 2.71875 -1.171875q1.859375 0 2.921875 1.21875q1.078125 1.21875 1.03125 3.75l-5.5 0q0.015625 0.96875 0.515625 1.515625q0.515625 0.546875 1.28125 0.546875q0.515625 0 0.859375 -0.28125q0.359375 -0.28125 0.53125 -0.90625zm0.125 -2.21875q-0.015625 -0.953125 -0.484375 -1.453125q-0.46875 -0.5 -1.140625 -0.5q-0.71875 0 -1.1875 0.53125q-0.46875 0.515625 -0.46875 1.421875l3.28125 0zm5.6171875 -0.90625l-2.0 -0.359375q0.34375 -1.203125 1.15625 -1.78125q0.828125 -0.578125 2.4375 -0.578125q1.46875 0 2.1875 0.34375q0.71875 0.34375 1.015625 0.890625q0.296875 0.53125 0.296875 1.953125l-0.03125 2.5625q0 1.09375 0.109375 1.625q0.109375 0.515625 0.390625 1.109375l-2.171875 0q-0.078125 -0.21875 -0.203125 -0.65625q-0.0625 -0.1875 -0.078125 -0.25q-0.5625 0.546875 -1.203125 0.828125q-0.640625 0.265625 -1.375 0.265625q-1.28125 0 -2.015625 -0.6875q-0.734375 -0.703125 -0.734375 -1.765625q0 -0.703125 0.328125 -1.25q0.34375 -0.5625 0.9375 -0.84375q0.609375 -0.296875 1.75 -0.515625q1.546875 -0.296875 2.140625 -0.546875l0 -0.21875q0 -0.625 -0.3125 -0.890625q-0.3125 -0.28125 -1.1875 -0.28125q-0.578125 0 -0.90625 0.234375q-0.328125 0.234375 -0.53125 0.8125zm2.9375 1.78125q-0.421875 0.140625 -1.34375 0.34375q-0.90625 0.1875 -1.1875 0.375q-0.4375 0.296875 -0.4375 0.765625q0 0.46875 0.34375 0.8125q0.34375 0.328125 0.875 0.328125q0.59375 0 1.140625 -0.390625q0.390625 -0.296875 0.515625 -0.734375q0.09375 -0.28125 0.09375 -1.0625l0 -0.4375zm6.4140625 3.984375l-2.1875 0l0 -8.296875l2.03125 0l0 1.171875q0.53125 -0.828125 0.9375 -1.09375q0.421875 -0.265625 0.953125 -0.265625q0.75 0 1.453125 0.40625l-0.6875 1.921875q-0.546875 -0.359375 -1.03125 -0.359375q-0.453125 0 -0.78125 0.25q-0.3125 0.25 -0.5 0.921875q-0.1875 0.65625 -0.1875 2.78125l0 2.5625zm11.6796875 0l-2.203125 0l0 -4.234375q0 -1.34375 -0.140625 -1.734375q-0.140625 -0.40625 -0.453125 -0.625q-0.3125 -0.21875 -0.765625 -0.21875q-0.5625 0 -1.015625 0.3125q-0.453125 0.3125 -0.625 0.828125q-0.171875 0.515625 -0.171875 1.90625l0 3.765625l-2.1875 0l0 -8.296875l2.03125 0l0 1.21875q1.09375 -1.40625 2.734375 -1.40625q0.734375 0 1.328125 0.265625q0.609375 0.25 0.90625 0.65625q0.3125 0.40625 0.4375 0.921875q0.125 0.515625 0.125 1.484375l0 5.15625zm7.0234375 -2.640625l2.1875 0.359375q-0.421875 1.203125 -1.328125 1.84375q-0.90625 0.625 -2.28125 0.625q-2.15625 0 -3.203125 -1.421875q-0.8125 -1.125 -0.8125 -2.859375q0 -2.0625 1.078125 -3.21875q1.078125 -1.171875 2.71875 -1.171875q1.859375 0 2.921875 1.21875q1.078125 1.21875 1.03125 3.75l-5.5 0q0.015625 0.96875 0.515625 1.515625q0.515625 0.546875 1.28125 0.546875q0.515625 0 0.859375 -0.28125q0.359375 -0.28125 0.53125 -0.90625zm0.125 -2.21875q-0.015625 -0.953125 -0.484375 -1.453125q-0.46875 -0.5 -1.140625 -0.5q-0.71875 0 -1.1875 0.53125q-0.46875 0.515625 -0.46875 1.421875l3.28125 0zm6.0703125 4.859375l-2.1875 0l0 -8.296875l2.03125 0l0 1.171875q0.53125 -0.828125 0.9375 -1.09375q0.421875 -0.265625 0.953125 -0.265625q0.75 0 1.453125 0.40625l-0.6875 1.921875q-0.546875 -0.359375 -1.03125 -0.359375q-0.453125 0 -0.78125 0.25q-0.3125 0.25 -0.5 0.921875q-0.1875 0.65625 -0.1875 2.78125l0 2.5625z" fill-rule="nonzero"/><path fill="#bf9000" d="m351.6867 97.5657l-2.171875 0.390625q-0.109375 -0.65625 -0.5 -0.984375q-0.375 -0.328125 -1.0 -0.328125q-0.8125 0 -1.3125 0.578125q-0.484375 0.5625 -0.484375 1.890625q0 1.46875 0.5 2.078125q0.5 0.609375 1.328125 0.609375q0.625 0 1.015625 -0.34375q0.40625 -0.359375 0.578125 -1.234375l2.15625 0.375q-0.34375 1.484375 -1.296875 2.25q-0.953125 0.75 -2.546875 0.75q-1.828125 0 -2.90625 -1.140625q-1.078125 -1.15625 -1.078125 -3.1875q0 -2.0625 1.078125 -3.203125q1.09375 -1.140625 2.9375 -1.140625q1.515625 0 2.40625 0.65625q0.90625 0.640625 1.296875 1.984375zm1.1484375 1.578125q0 -1.09375 0.53125 -2.109375q0.546875 -1.03125 1.53125 -1.5625q1.0 -0.546875 2.21875 -0.546875q1.875 0 3.078125 1.21875q1.203125 1.21875 1.203125 3.09375q0 1.875 -1.21875 3.125q-1.203125 1.234375 -3.046875 1.234375q-1.140625 0 -2.1875 -0.515625q-1.03125 -0.515625 -1.578125 -1.515625q-0.53125 -1.0 -0.53125 -2.421875zm2.25 0.109375q0 1.234375 0.578125 1.890625q0.59375 0.65625 1.453125 0.65625q0.859375 0 1.4375 -0.65625q0.59375 -0.65625 0.59375 -1.90625q0 -1.21875 -0.59375 -1.875q-0.578125 -0.65625 -1.4375 -0.65625q-0.859375 0 -1.453125 0.65625q-0.578125 0.65625 -0.578125 1.890625zm15.5859375 4.15625l-2.203125 0l0 -4.234375q0 -1.34375 -0.140625 -1.734375q-0.140625 -0.40625 -0.453125 -0.625q-0.3125 -0.21875 -0.765625 -0.21875q-0.5625 0 -1.015625 0.3125q-0.453125 0.3125 -0.625 0.828125q-0.171875 0.515625 -0.171875 1.90625l0 3.765625l-2.1875 0l0 -8.296875l2.03125 0l0 1.21875q1.09375 -1.40625 2.734375 -1.40625q0.734375 0 1.328125 0.265625q0.609375 0.25 0.90625 0.65625q0.3125 0.40625 0.4375 0.921875q0.125 0.515625 0.125 1.484375l0 5.15625zm9.7734375 0l-2.203125 0l0 -4.234375q0 -1.34375 -0.140625 -1.734375q-0.140625 -0.40625 -0.453125 -0.625q-0.3125 -0.21875 -0.765625 -0.21875q-0.5625 0 -1.015625 0.3125q-0.453125 0.3125 -0.625 0.828125q-0.171875 0.515625 -0.171875 1.90625l0 3.765625l-2.1875 0l0 -8.296875l2.03125 0l0 1.21875q1.09375 -1.40625 2.734375 -1.40625q0.734375 0 1.328125 0.265625q0.609375 0.25 0.90625 0.65625q0.3125 0.40625 0.4375 0.921875q0.125 0.515625 0.125 1.484375l0 5.15625zm7.0234375 -2.640625l2.1875 0.359375q-0.421875 1.203125 -1.328125 1.84375q-0.90625 0.625 -2.28125 0.625q-2.15625 0 -3.203125 -1.421875q-0.8125 -1.125 -0.8125 -2.859375q0 -2.0625 1.078125 -3.21875q1.078125 -1.171875 2.71875 -1.171875q1.859375 0 2.921875 1.21875q1.078125 1.21875 1.03125 3.75l-5.5 0q0.015625 0.96875 0.515625 1.515625q0.515625 0.546875 1.28125 0.546875q0.515625 0 0.859375 -0.28125q0.359375 -0.28125 0.53125 -0.90625zm0.125 -2.21875q-0.015625 -0.953125 -0.484375 -1.453125q-0.46875 -0.5 -1.140625 -0.5q-0.71875 0 -1.1875 0.53125q-0.46875 0.515625 -0.46875 1.421875l3.28125 0zm11.2109375 -0.984375l-2.171875 0.390625q-0.109375 -0.65625 -0.5 -0.984375q-0.375 -0.328125 -1.0 -0.328125q-0.8125 0 -1.3125 0.578125q-0.484375 0.5625 -0.484375 1.890625q0 1.46875 0.5 2.078125q0.5 0.609375 1.328125 0.609375q0.625 0 1.015625 -0.34375q0.40625 -0.359375 0.578125 -1.234375l2.15625 0.375q-0.34375 1.484375 -1.296875 2.25q-0.953125 0.75 -2.546875 0.75q-1.828125 0 -2.90625 -1.140625q-1.078125 -1.15625 -1.078125 -3.1875q0 -2.0625 1.078125 -3.203125q1.09375 -1.140625 2.9375 -1.140625q1.515625 0 2.40625 0.65625q0.90625 0.640625 1.296875 1.984375zm5.4609375 -2.453125l0 1.75l-1.5 0l0 3.34375q0 1.015625 0.046875 1.1875q0.046875 0.15625 0.1875 0.265625q0.15625 0.109375 0.375 0.109375q0.3125 0 0.890625 -0.203125l0.1875 1.703125q-0.765625 0.328125 -1.734375 0.328125q-0.59375 0 -1.078125 -0.203125q-0.46875 -0.203125 -0.703125 -0.515625q-0.21875 -0.3125 -0.296875 -0.859375q-0.078125 -0.375 -0.078125 -1.546875l0 -3.609375l-1.0 0l0 -1.75l1.0 0l0 -1.65625l2.203125 -1.28125l0 2.9375l1.5 0zm1.015625 4.03125q0 -1.09375 0.53125 -2.109375q0.546875 -1.03125 1.53125 -1.5625q1.0 -0.546875 2.21875 -0.546875q1.875 0 3.078125 1.21875q1.203125 1.21875 1.203125 3.09375q0 1.875 -1.21875 3.125q-1.203125 1.234375 -3.046875 1.234375q-1.140625 0 -2.1875 -0.515625q-1.03125 -0.515625 -1.578125 -1.515625q-0.53125 -1.0 -0.53125 -2.421875zm2.25 0.109375q0 1.234375 0.578125 1.890625q0.59375 0.65625 1.453125 0.65625q0.859375 0 1.4375 -0.65625q0.59375 -0.65625 0.59375 -1.90625q0 -1.21875 -0.59375 -1.875q-0.578125 -0.65625 -1.4375 -0.65625q-0.859375 0 -1.453125 0.65625q-0.578125 0.65625 -0.578125 1.890625zm10.1328125 4.15625l-2.1875 0l0 -8.296875l2.03125 0l0 1.171875q0.53125 -0.828125 0.9375 -1.09375q0.421875 -0.265625 0.953125 -0.265625q0.75 0 1.453125 0.40625l-0.6875 1.921875q-0.546875 -0.359375 -1.03125 -0.359375q-0.453125 0 -0.78125 0.25q-0.3125 0.25 -0.5 0.921875q-0.1875 0.65625 -0.1875 2.78125l0 2.5625z" fill-rule="nonzero"/><path fill="#bf9000" d="m352.83514 114.11257l2.046875 0l0 1.21875q0.390625 -0.625 1.0625 -1.015625q0.6875 -0.390625 1.515625 -0.390625q1.453125 0 2.453125 1.140625q1.015625 1.125 1.015625 3.140625q0 2.078125 -1.015625 3.234375q-1.015625 1.15625 -2.46875 1.15625q-0.6875 0 -1.25 -0.265625q-0.546875 -0.28125 -1.171875 -0.953125l0 4.1875l-2.1875 0l0 -11.453125zm2.171875 4.0q0 1.40625 0.546875 2.078125q0.5625 0.65625 1.359375 0.65625q0.765625 0 1.265625 -0.609375q0.515625 -0.609375 0.515625 -2.015625q0 -1.296875 -0.53125 -1.921875q-0.515625 -0.640625 -1.296875 -0.640625q-0.796875 0 -1.328125 0.625q-0.53125 0.609375 -0.53125 1.828125zm7.6640625 -5.125l0 -2.03125l2.1875 0l0 2.03125l-2.1875 0zm0 9.421875l0 -8.296875l2.1875 0l0 8.296875l-2.1875 0zm4.3828125 -8.296875l2.046875 0l0 1.21875q0.390625 -0.625 1.0625 -1.015625q0.6875 -0.390625 1.515625 -0.390625q1.453125 0 2.453125 1.140625q1.015625 1.125 1.015625 3.140625q0 2.078125 -1.015625 3.234375q-1.015625 1.15625 -2.46875 1.15625q-0.6875 0 -1.25 -0.265625q-0.546875 -0.28125 -1.171875 -0.953125l0 4.1875l-2.1875 0l0 -11.453125zm2.171875 4.0q0 1.40625 0.546875 2.078125q0.5625 0.65625 1.359375 0.65625q0.765625 0 1.265625 -0.609375q0.515625 -0.609375 0.515625 -2.015625q0 -1.296875 -0.53125 -1.921875q-0.515625 -0.640625 -1.296875 -0.640625q-0.796875 0 -1.328125 0.625q-0.53125 0.609375 -0.53125 1.828125zm12.4609375 1.65625l2.1875 0.359375q-0.421875 1.203125 -1.328125 1.84375q-0.90625 0.625 -2.28125 0.625q-2.15625 0 -3.203125 -1.421875q-0.8125 -1.125 -0.8125 -2.859375q0 -2.0625 1.078125 -3.21875q1.078125 -1.171875 2.71875 -1.171875q1.859375 0 2.921875 1.21875q1.078125 1.21875 1.03125 3.75l-5.5 0q0.015625 0.96875 0.515625 1.515625q0.515625 0.546875 1.28125 0.546875q0.515625 0 0.859375 -0.28125q0.359375 -0.28125 0.53125 -0.90625zm0.125 -2.21875q-0.015625 -0.953125 -0.484375 -1.453125q-0.46875 -0.5 -1.140625 -0.5q-0.71875 0 -1.1875 0.53125q-0.46875 0.515625 -0.46875 1.421875l3.28125 0zm3.9765625 4.859375l0 -11.453125l2.1875 0l0 11.453125l-2.1875 0zm4.4453125 -9.421875l0 -2.03125l2.1875 0l0 2.03125l-2.1875 0zm0 9.421875l0 -8.296875l2.1875 0l0 8.296875l-2.1875 0zm11.9921875 0l-2.203125 0l0 -4.234375q0 -1.34375 -0.140625 -1.734375q-0.140625 -0.40625 -0.453125 -0.625q-0.3125 -0.21875 -0.765625 -0.21875q-0.5625 0 -1.015625 0.3125q-0.453125 0.3125 -0.625 0.828125q-0.171875 0.515625 -0.171875 1.90625l0 3.765625l-2.1875 0l0 -8.296875l2.03125 0l0 1.21875q1.09375 -1.40625 2.734375 -1.40625q0.734375 0 1.328125 0.265625q0.609375 0.25 0.90625 0.65625q0.3125 0.40625 0.4375 0.921875q0.125 0.515625 0.125 1.484375l0 5.15625zm7.0234375 -2.640625l2.1875 0.359375q-0.421875 1.203125 -1.328125 1.84375q-0.90625 0.625 -2.28125 0.625q-2.15625 0 -3.203125 -1.421875q-0.8125 -1.125 -0.8125 -2.859375q0 -2.0625 1.078125 -3.21875q1.078125 -1.171875 2.71875 -1.171875q1.859375 0 2.921875 1.21875q1.078125 1.21875 1.03125 3.75l-5.5 0q0.015625 0.96875 0.515625 1.515625q0.515625 0.546875 1.28125 0.546875q0.515625 0 0.859375 -0.28125q0.359375 -0.28125 0.53125 -0.90625zm0.125 -2.21875q-0.015625 -0.953125 -0.484375 -1.453125q-0.46875 -0.5 -1.140625 -0.5q-0.71875 0 -1.1875 0.53125q-0.46875 0.515625 -0.46875 1.421875l3.28125 0z" fill-rule="nonzero"/><path fill="#000000" fill-opacity="0.0" d="m172.4389 77.70398l39.401566 0l0 42.015747l-39.401566 0z" fill-rule="evenodd"/><path fill="#000000" d="m191.36409 102.46773l0 -3.671875l-3.640625 0l0 -1.515625l3.640625 0l0 -3.640625l1.546875 0l0 3.640625l3.640625 0l0 1.515625l-3.640625 0l0 3.671875l-1.546875 0z" fill-rule="nonzero"/><path fill="#000000" fill-opacity="0.0" d="m535.27203 126.64042c-2.5482178 0 -4.6139526 -2.0657501 -4.6139526 -4.613991l0 -18.457062c0 -2.548233 -2.065796 -4.613983 -4.6140137 -4.613983c2.5482178 0 4.6140137 -2.0657578 4.6140137 -4.613991l0 -18.457062l0 0c0 -2.548233 2.0657349 -4.613991 4.6139526 -4.613991l175.6228 0c1.2236938 0 2.3972778 0.4861145 3.2625732 1.3514099c0.8652954 0.8652878 1.3514404 2.0388718 1.3514404 3.2625809l0 18.457062c0 2.548233 2.0657349 4.613991 4.6139526 4.613991c-2.5482178 0 -4.6139526 2.0657501 -4.6139526 4.613983l0 18.457062c0 2.5482407 -2.065796 4.613991 -4.6140137 4.613991z" fill-rule="evenodd"/><path fill="#000000" fill-opacity="0.0" d="m535.27203 126.64042c-2.5482178 0 -4.6139526 -2.0657501 -4.6139526 -4.613991l0 -18.457062c0 -2.548233 -2.065796 -4.613983 -4.6140137 -4.613983c2.5482178 0 4.6140137 -2.0657578 4.6140137 -4.613991l0 -18.457062l0 0c0 -2.548233 2.0657349 -4.613991 4.6139526 -4.613991m175.6228 0c1.2236938 0 2.3972778 0.4861145 3.2625732 1.3514099c0.8652954 0.8652878 1.3514404 2.0388718 1.3514404 3.2625809l0 18.457062c0 2.548233 2.0657349 4.613991 4.6139526 4.613991c-2.5482178 0 -4.6139526 2.0657501 -4.6139526 4.613983l0 18.457062c0 2.5482407 -2.065796 4.613991 -4.6140137 4.613991" fill-rule="evenodd"/><path stroke="#000000" stroke-width="2.0" stroke-linejoin="round" stroke-linecap="butt" d="m535.27203 126.64042c-2.5482178 0 -4.6139526 -2.0657501 -4.6139526 -4.613991l0 -18.457062c0 -2.548233 -2.065796 -4.613983 -4.6140137 -4.613983c2.5482178 0 4.6140137 -2.0657578 4.6140137 -4.613991l0 -18.457062l0 0c0 -2.548233 2.0657349 -4.613991 4.6139526 -4.613991m175.6228 0c1.2236938 0 2.3972778 0.4861145 3.2625732 1.3514099c0.8652954 0.8652878 1.3514404 2.0388718 1.3514404 3.2625809l0 18.457062c0 2.548233 2.0657349 4.613991 4.6139526 4.613991c-2.5482178 0 -4.6139526 2.0657501 -4.6139526 4.613983l0 18.457062c0 2.5482407 -2.065796 4.613991 -4.6140137 4.613991" fill-rule="evenodd"/><path fill="#000000" d="m543.57196 78.841125l0 1.28125l1.609375 0l0 -1.296875q0 -0.71875 0.1875 -1.296875q0.1875 -0.578125 0.515625 -1.109375l-0.90625 -0.59375q-0.328125 0.28125 -0.578125 0.640625q-0.25 0.359375 -0.4375 0.75q-0.1875 0.40625 -0.296875 0.828125q-0.09375 0.421875 -0.09375 0.796875zm2.609375 0l0 1.28125l1.609375 0l0 -1.296875q0 -0.71875 0.1875 -1.296875q0.1875 -0.578125 0.515625 -1.109375l-0.90625 -0.59375q-0.328125 0.28125 -0.578125 0.640625q-0.25 0.359375 -0.4375 0.75q-0.1875 0.40625 -0.296875 0.828125q-0.09375 0.421875 -0.09375 0.796875zm5.3046875 4.96875l0 0.171875q0 0.921875 0.265625 1.703125q0.265625 0.78125 0.765625 1.359375q0.5 0.578125 1.234375 0.921875q0.734375 0.328125 1.671875 0.328125q0.921875 0 1.640625 -0.328125q0.734375 -0.34375 1.234375 -0.921875q0.5 -0.578125 0.765625 -1.359375q0.265625 -0.78125 0.265625 -1.703125l0 -0.171875q0 -0.921875 -0.265625 -1.703125q-0.265625 -0.78125 -0.765625 -1.359375q-0.5 -0.578125 -1.234375 -0.90625q-0.734375 -0.328125 -1.65625 -0.328125q-0.9375 0 -1.671875 0.328125q-0.71875 0.328125 -1.21875 0.90625q-0.5 0.578125 -0.765625 1.359375q-0.265625 0.78125 -0.265625 1.703125zm1.859375 0.171875l0 -0.171875q0 -0.546875 0.125 -1.046875q0.125 -0.515625 0.375 -0.90625q0.25 -0.375 0.640625 -0.59375q0.390625 -0.234375 0.921875 -0.234375q0.53125 0 0.921875 0.234375q0.390625 0.21875 0.640625 0.59375q0.25 0.390625 0.375 0.90625q0.125 0.5 0.125 1.046875l0 0.171875q0 0.5625 -0.125 1.078125q-0.125 0.5 -0.375 0.890625q-0.25 0.375 -0.640625 0.609375q-0.390625 0.21875 -0.90625 0.21875q-0.546875 0 -0.9375 -0.21875q-0.390625 -0.234375 -0.640625 -0.609375q-0.25 -0.390625 -0.375 -0.890625q-0.125 -0.515625 -0.125 -1.078125zm15.5078125 0l0 -0.171875q0 -0.71875 -0.125 -1.359375q-0.125 -0.640625 -0.375 -1.15625q-0.1875 -0.375 -0.4375 -0.6875q-0.25 -0.328125 -0.5625 -0.546875q-0.359375 -0.265625 -0.828125 -0.40625q-0.453125 -0.140625 -1.0 -0.140625q-0.40625 0 -0.765625 0.078125q-0.359375 0.078125 -0.65625 0.25q-0.21875 0.125 -0.421875 0.296875q-0.1875 0.15625 -0.359375 0.359375l0 -4.375l-1.859375 0l0 12.0l1.6875 0l0.078125 -0.921875q0.140625 0.171875 0.296875 0.3125q0.15625 0.140625 0.328125 0.265625q0.328125 0.25 0.75 0.375q0.421875 0.125 0.9375 0.125q0.515625 0 0.9375 -0.140625q0.4375 -0.125 0.796875 -0.359375q0.4375 -0.28125 0.75 -0.71875q0.3125 -0.4375 0.5 -0.984375q0.15625 -0.453125 0.234375 -0.984375q0.09375 -0.53125 0.09375 -1.109375zm-1.859375 -0.171875l0 0.171875q0 0.34375 -0.046875 0.671875q-0.03125 0.328125 -0.109375 0.609375q-0.09375 0.375 -0.28125 0.6875q-0.171875 0.296875 -0.4375 0.484375q-0.203125 0.140625 -0.46875 0.234375q-0.25 0.078125 -0.578125 0.078125q-0.34375 0 -0.640625 -0.09375q-0.28125 -0.09375 -0.5 -0.25q-0.1875 -0.140625 -0.34375 -0.328125q-0.15625 -0.203125 -0.265625 -0.4375l0 -3.5q0.09375 -0.203125 0.21875 -0.375q0.140625 -0.171875 0.296875 -0.3125q0.234375 -0.1875 0.53125 -0.296875q0.3125 -0.109375 0.6875 -0.109375q0.3125 0 0.5625 0.078125q0.25 0.0625 0.453125 0.203125q0.296875 0.203125 0.46875 0.5q0.171875 0.296875 0.28125 0.65625q0.078125 0.296875 0.125 0.640625q0.046875 0.328125 0.046875 0.6875zm9.5546875 2.015625q0 0.203125 -0.09375 0.375q-0.078125 0.171875 -0.265625 0.3125q-0.21875 0.171875 -0.578125 0.28125q-0.359375 0.09375 -0.84375 0.09375q-0.359375 0 -0.71875 -0.078125q-0.34375 -0.078125 -0.625 -0.25q-0.28125 -0.15625 -0.46875 -0.421875q-0.171875 -0.28125 -0.203125 -0.671875l-1.8125 0q0 0.53125 0.25 1.046875q0.25 0.5 0.734375 0.890625q0.484375 0.390625 1.1875 0.640625q0.703125 0.25 1.625 0.25q0.8125 0 1.484375 -0.1875q0.671875 -0.203125 1.15625 -0.53125q0.484375 -0.34375 0.734375 -0.8125q0.265625 -0.46875 0.265625 -1.03125q0 -0.578125 -0.25 -1.0q-0.25 -0.421875 -0.703125 -0.734375q-0.453125 -0.296875 -1.09375 -0.5q-0.640625 -0.203125 -1.40625 -0.34375q-0.5625 -0.09375 -0.921875 -0.203125q-0.359375 -0.125 -0.5625 -0.265625q-0.21875 -0.125 -0.3125 -0.296875q-0.078125 -0.1875 -0.078125 -0.40625q0 -0.203125 0.09375 -0.390625q0.109375 -0.203125 0.3125 -0.34375q0.203125 -0.15625 0.515625 -0.234375q0.3125 -0.09375 0.734375 -0.09375q0.46875 0 0.8125 0.125q0.34375 0.109375 0.5625 0.3125q0.1875 0.171875 0.28125 0.390625q0.09375 0.21875 0.09375 0.453125l1.875 0q0 -0.578125 -0.25 -1.0625q-0.25 -0.5 -0.71875 -0.859375q-0.46875 -0.359375 -1.140625 -0.5625q-0.671875 -0.203125 -1.515625 -0.203125q-0.78125 0 -1.4375 0.203125q-0.640625 0.203125 -1.09375 0.546875q-0.453125 0.359375 -0.703125 0.828125q-0.25 0.453125 -0.25 0.96875q0 0.546875 0.234375 0.953125q0.25 0.40625 0.6875 0.703125q0.4375 0.3125 1.03125 0.53125q0.609375 0.21875 1.34375 0.359375q0.59375 0.109375 0.984375 0.234375q0.390625 0.125 0.625 0.265625q0.234375 0.15625 0.328125 0.328125q0.09375 0.171875 0.09375 0.390625zm7.5234375 -8.625l0 -1.265625l-1.609375 0l0 1.28125q0 0.71875 -0.1875 1.3125q-0.1875 0.578125 -0.515625 1.09375l0.90625 0.59375q0.3125 -0.265625 0.5625 -0.625q0.265625 -0.375 0.453125 -0.765625q0.1875 -0.40625 0.28125 -0.8125q0.109375 -0.421875 0.109375 -0.8125zm2.71875 0l0 -1.265625l-1.609375 0l0 1.28125q0 0.71875 -0.1875 1.3125q-0.1875 0.578125 -0.515625 1.09375l0.90625 0.59375q0.3125 -0.265625 0.5625 -0.625q0.265625 -0.375 0.453125 -0.765625q0.1875 -0.40625 0.28125 -0.8125q0.109375 -0.421875 0.109375 -0.8125zm6.0078125 9.796875q0 0.53125 0.34375 0.90625q0.359375 0.375 1.0 0.375q0.640625 0 1.0 -0.359375q0.359375 -0.375 0.359375 -0.921875q0 -0.546875 -0.359375 -0.921875q-0.359375 -0.390625 -1.0 -0.390625q-0.65625 0 -1.0 0.390625q-0.34375 0.375 -0.34375 0.921875zm0 -6.625q0 0.53125 0.34375 0.90625q0.359375 0.375 1.0 0.375q0.640625 0 1.0 -0.359375q0.359375 -0.375 0.359375 -0.921875q0 -0.546875 -0.359375 -0.921875q-0.359375 -0.390625 -1.0 -0.390625q-0.65625 0 -1.0 0.390625q-0.34375 0.375 -0.34375 0.921875zm21.96875 -3.90625l0 -1.46875l-3.328125 0l0 15.671875l3.328125 0l0 -1.46875l-1.5 0l0 -12.734375l1.5 0zm6.6015625 10.53125q0 0.53125 0.34375 0.90625q0.359375 0.375 1.0 0.375q0.640625 0 1.0 -0.359375q0.359375 -0.375 0.359375 -0.921875q0 -0.546875 -0.359375 -0.921875q-0.359375 -0.390625 -1.0 -0.390625q-0.65625 0 -1.0 0.390625q-0.34375 0.375 -0.34375 0.921875zm9.6015625 0q0 0.53125 0.34375 0.90625q0.359375 0.375 1.0 0.375q0.640625 0 1.0 -0.359375q0.359375 -0.375 0.359375 -0.921875q0 -0.546875 -0.359375 -0.921875q-0.359375 -0.390625 -1.0 -0.390625q-0.65625 0 -1.0 0.390625q-0.34375 0.375 -0.34375 0.921875zm9.1953125 -12.0l0 1.46875l1.515625 0l0 12.734375l-1.515625 0l0 1.46875l3.34375 0l0 -15.671875l-3.34375 0zm11.7890625 12.875l0 -1.578125l-1.828125 0l0 1.65625q0 0.78125 -0.1875 1.390625q-0.1875 0.625 -0.515625 1.171875l1.046875 0.5625q0.671875 -0.609375 1.078125 -1.484375q0.40625 -0.859375 0.40625 -1.71875z" fill-rule="nonzero"/><path fill="#000000" d="m543.57196 97.841125l0 1.28125l1.609375 0l0 -1.296875q0 -0.71875 0.1875 -1.296875q0.1875 -0.578125 0.515625 -1.109375l-0.90625 -0.59375q-0.328125 0.28125 -0.578125 0.640625q-0.25 0.359375 -0.4375 0.75q-0.1875 0.40625 -0.296875 0.828125q-0.09375 0.421875 -0.09375 0.796875zm2.609375 0l0 1.28125l1.609375 0l0 -1.296875q0 -0.71875 0.1875 -1.296875q0.1875 -0.578125 0.515625 -1.109375l-0.90625 -0.59375q-0.328125 0.28125 -0.578125 0.640625q-0.25 0.359375 -0.4375 0.75q-0.1875 0.40625 -0.296875 0.828125q-0.09375 0.421875 -0.09375 0.796875zm11.4921875 0.671875q-0.875 0 -1.609375 0.40625q-0.71875 0.40625 -1.234375 1.109375l0 -0.1875l-0.078125 -1.171875l-1.75 0l0 8.453125l1.859375 0l0 -5.21875q0.15625 -0.375 0.375 -0.65625q0.21875 -0.296875 0.53125 -0.484375q0.28125 -0.203125 0.65625 -0.296875q0.375 -0.09375 0.84375 -0.09375q0.421875 0 0.828125 0.046875q0.421875 0.046875 0.859375 0.140625l0.265625 -1.84375q-0.25 -0.078125 -0.671875 -0.140625q-0.421875 -0.0625 -0.875 -0.0625zm7.6953125 8.765625q1.234375 0 2.109375 -0.484375q0.875 -0.484375 1.296875 -1.09375l-1.0 -0.96875q-0.390625 0.5 -1.0 0.765625q-0.59375 0.265625 -1.296875 0.265625q-0.5 0 -0.9375 -0.171875q-0.421875 -0.171875 -0.734375 -0.484375q-0.3125 -0.296875 -0.5 -0.671875q-0.171875 -0.375 -0.25 -0.921875l0 -0.046875l5.859375 0l0 -0.796875q0 -0.90625 -0.25 -1.671875q-0.234375 -0.765625 -0.71875 -1.328125q-0.46875 -0.546875 -1.171875 -0.84375q-0.703125 -0.3125 -1.625 -0.3125q-0.8125 0 -1.546875 0.3125q-0.71875 0.296875 -1.265625 0.875q-0.546875 0.5625 -0.859375 1.375q-0.3125 0.796875 -0.3125 1.796875l0 0.3125q0 0.875 0.296875 1.625q0.3125 0.734375 0.859375 1.28125q0.5625 0.5625 1.328125 0.875q0.78125 0.3125 1.71875 0.3125zm-0.21875 -7.25q0.46875 0 0.8125 0.15625q0.359375 0.15625 0.59375 0.421875q0.25 0.28125 0.375 0.640625q0.140625 0.359375 0.140625 0.734375l0 0.125l-3.984375 0q0.09375 -0.484375 0.265625 -0.859375q0.1875 -0.390625 0.453125 -0.671875q0.265625 -0.265625 0.59375 -0.40625q0.34375 -0.140625 0.75 -0.140625zm6.5859375 7.09375l1.578125 0l1.078125 -4.796875l0.1875 -1.046875l0.1875 1.046875l1.09375 4.796875l1.59375 0l1.625 -8.453125l-1.6875 0l-0.765625 5.15625l-0.140625 1.03125l-0.1875 -1.03125l-1.09375 -5.15625l-1.234375 0l-1.09375 5.171875l-0.171875 0.984375l-0.140625 -0.984375l-0.78125 -5.171875l-1.6875 0l1.640625 8.453125zm14.2890625 0l1.90625 0l0 -0.140625q-0.15625 -0.328125 -0.234375 -0.78125q-0.078125 -0.453125 -0.078125 -1.03125l0 -3.75q0 -0.71875 -0.265625 -1.265625q-0.265625 -0.5625 -0.734375 -0.921875q-0.46875 -0.359375 -1.125 -0.53125q-0.640625 -0.1875 -1.375 -0.1875q-0.828125 0 -1.484375 0.21875q-0.640625 0.203125 -1.078125 0.578125q-0.453125 0.359375 -0.6875 0.828125q-0.234375 0.46875 -0.234375 0.96875l1.875 0q0 -0.234375 0.078125 -0.453125q0.09375 -0.21875 0.28125 -0.359375q0.1875 -0.171875 0.46875 -0.265625q0.296875 -0.09375 0.671875 -0.09375q0.421875 0 0.75 0.109375q0.328125 0.109375 0.546875 0.296875q0.21875 0.203125 0.328125 0.46875q0.109375 0.265625 0.109375 0.59375l0 0.5625l-1.359375 0q-0.90625 0 -1.640625 0.171875q-0.71875 0.171875 -1.203125 0.5q-0.53125 0.359375 -0.8125 0.890625q-0.28125 0.53125 -0.28125 1.234375q0 0.53125 0.21875 1.0q0.21875 0.46875 0.609375 0.796875q0.375 0.328125 0.921875 0.53125q0.546875 0.1875 1.203125 0.1875q0.40625 0 0.75 -0.078125q0.359375 -0.078125 0.65625 -0.21875q0.3125 -0.140625 0.546875 -0.3125q0.25 -0.1875 0.453125 -0.390625q0.03125 0.234375 0.078125 0.46875q0.0625 0.21875 0.140625 0.375zm-2.265625 -1.34375q-0.359375 0 -0.625 -0.09375q-0.265625 -0.09375 -0.453125 -0.25q-0.171875 -0.15625 -0.265625 -0.375q-0.09375 -0.21875 -0.09375 -0.484375q0 -0.3125 0.109375 -0.5625q0.109375 -0.25 0.34375 -0.421875q0.265625 -0.21875 0.703125 -0.328125q0.453125 -0.109375 1.0625 -0.109375l1.203125 0l0 1.5625q-0.09375 0.203125 -0.28125 0.390625q-0.1875 0.1875 -0.453125 0.328125q-0.25 0.15625 -0.578125 0.25q-0.3125 0.09375 -0.671875 0.09375zm12.3203125 -7.265625q-0.875 0 -1.609375 0.40625q-0.71875 0.40625 -1.234375 1.109375l0 -0.1875l-0.078125 -1.171875l-1.75 0l0 8.453125l1.859375 0l0 -5.21875q0.15625 -0.375 0.375 -0.65625q0.21875 -0.296875 0.53125 -0.484375q0.28125 -0.203125 0.65625 -0.296875q0.375 -0.09375 0.84375 -0.09375q0.421875 0 0.828125 0.046875q0.421875 0.046875 0.859375 0.140625l0.265625 -1.84375q-0.25 -0.078125 -0.671875 -0.140625q-0.421875 -0.0625 -0.875 -0.0625zm3.5078125 4.3125l0 0.171875q0 0.90625 0.234375 1.703125q0.234375 0.78125 0.65625 1.34375q0.4375 0.578125 1.046875 0.90625q0.625 0.328125 1.390625 0.328125q0.734375 0 1.296875 -0.265625q0.5625 -0.28125 0.96875 -0.78125l0.09375 0.890625l1.6875 0l0 -12.0l-1.859375 0l0 4.328125q-0.40625 -0.453125 -0.9375 -0.6875q-0.53125 -0.25 -1.234375 -0.25q-0.78125 0 -1.40625 0.3125q-0.609375 0.3125 -1.046875 0.890625q-0.4375 0.5625 -0.671875 1.359375q-0.21875 0.796875 -0.21875 1.75zm1.859375 0.171875l0 -0.171875q0 -0.5625 0.109375 -1.0625q0.109375 -0.515625 0.359375 -0.890625q0.21875 -0.390625 0.59375 -0.609375q0.375 -0.21875 0.890625 -0.21875q0.625 0 1.03125 0.28125q0.421875 0.28125 0.671875 0.75l0 3.625q-0.25 0.484375 -0.671875 0.765625q-0.40625 0.265625 -1.046875 0.265625q-0.515625 0 -0.890625 -0.203125q-0.359375 -0.21875 -0.59375 -0.609375q-0.234375 -0.359375 -0.34375 -0.859375q-0.109375 -0.5 -0.109375 -1.0625zm13.5078125 1.828125q0 0.203125 -0.09375 0.375q-0.078125 0.171875 -0.265625 0.3125q-0.21875 0.171875 -0.578125 0.28125q-0.359375 0.09375 -0.84375 0.09375q-0.359375 0 -0.71875 -0.078125q-0.34375 -0.078125 -0.625 -0.25q-0.28125 -0.15625 -0.46875 -0.421875q-0.171875 -0.28125 -0.203125 -0.671875l-1.8125 0q0 0.53125 0.25 1.046875q0.25 0.5 0.734375 0.890625q0.484375 0.390625 1.1875 0.640625q0.703125 0.25 1.625 0.25q0.8125 0 1.484375 -0.1875q0.671875 -0.203125 1.15625 -0.53125q0.484375 -0.34375 0.734375 -0.8125q0.265625 -0.46875 0.265625 -1.03125q0 -0.578125 -0.25 -1.0q-0.25 -0.421875 -0.703125 -0.734375q-0.453125 -0.296875 -1.09375 -0.5q-0.640625 -0.203125 -1.40625 -0.34375q-0.5625 -0.09375 -0.921875 -0.203125q-0.359375 -0.125 -0.5625 -0.265625q-0.21875 -0.125 -0.3125 -0.296875q-0.078125 -0.1875 -0.078125 -0.40625q0 -0.203125 0.09375 -0.390625q0.109375 -0.203125 0.3125 -0.34375q0.203125 -0.15625 0.515625 -0.234375q0.3125 -0.09375 0.734375 -0.09375q0.46875 0 0.8125 0.125q0.34375 0.109375 0.5625 0.3125q0.1875 0.171875 0.28125 0.390625q0.09375 0.21875 0.09375 0.453125l1.875 0q0 -0.578125 -0.25 -1.0625q-0.25 -0.5 -0.71875 -0.859375q-0.46875 -0.359375 -1.140625 -0.5625q-0.671875 -0.203125 -1.515625 -0.203125q-0.78125 0 -1.4375 0.203125q-0.640625 0.203125 -1.09375 0.546875q-0.453125 0.359375 -0.703125 0.828125q-0.25 0.453125 -0.25 0.96875q0 0.546875 0.234375 0.953125q0.25 0.40625 0.6875 0.703125q0.4375 0.3125 1.03125 0.53125q0.609375 0.21875 1.34375 0.359375q0.59375 0.109375 0.984375 0.234375q0.390625 0.125 0.625 0.265625q0.234375 0.15625 0.328125 0.328125q0.09375 0.171875 0.09375 0.390625zm7.5234375 -8.625l0 -1.265625l-1.609375 0l0 1.28125q0 0.71875 -0.1875 1.3125q-0.1875 0.578125 -0.515625 1.09375l0.90625 0.59375q0.3125 -0.265625 0.5625 -0.625q0.265625 -0.375 0.453125 -0.765625q0.1875 -0.40625 0.28125 -0.8125q0.109375 -0.421875 0.109375 -0.8125zm2.71875 0l0 -1.265625l-1.609375 0l0 1.28125q0 0.71875 -0.1875 1.3125q-0.1875 0.578125 -0.515625 1.09375l0.90625 0.59375q0.3125 -0.265625 0.5625 -0.625q0.265625 -0.375 0.453125 -0.765625q0.1875 -0.40625 0.28125 -0.8125q0.109375 -0.421875 0.109375 -0.8125zm6.0078125 9.796875q0 0.53125 0.34375 0.90625q0.359375 0.375 1.0 0.375q0.640625 0 1.0 -0.359375q0.359375 -0.375 0.359375 -0.921875q0 -0.546875 -0.359375 -0.921875q-0.359375 -0.390625 -1.0 -0.390625q-0.65625 0 -1.0 0.390625q-0.34375 0.375 -0.34375 0.921875zm0 -6.625q0 0.53125 0.34375 0.90625q0.359375 0.375 1.0 0.375q0.640625 0 1.0 -0.359375q0.359375 -0.375 0.359375 -0.921875q0 -0.546875 -0.359375 -0.921875q-0.359375 -0.390625 -1.0 -0.390625q-0.65625 0 -1.0 0.390625q-0.34375 0.375 -0.34375 0.921875zm21.96875 -3.90625l0 -1.46875l-3.328125 0l0 15.671875l3.328125 0l0 -1.46875l-1.5 0l0 -12.734375l1.5 0zm6.6015625 10.53125q0 0.53125 0.34375 0.90625q0.359375 0.375 1.0 0.375q0.640625 0 1.0 -0.359375q0.359375 -0.375 0.359375 -0.921875q0 -0.546875 -0.359375 -0.921875q-0.359375 -0.390625 -1.0 -0.390625q-0.65625 0 -1.0 0.390625q-0.34375 0.375 -0.34375 0.921875zm9.6015625 0q0 0.53125 0.34375 0.90625q0.359375 0.375 1.0 0.375q0.640625 0 1.0 -0.359375q0.359375 -0.375 0.359375 -0.921875q0 -0.546875 -0.359375 -0.921875q-0.359375 -0.390625 -1.0 -0.390625q-0.65625 0 -1.0 0.390625q-0.34375 0.375 -0.34375 0.921875zm9.1953125 -12.0l0 1.46875l1.515625 0l0 12.734375l-1.515625 0l0 1.46875l3.34375 0l0 -15.671875l-3.34375 0zm11.7890625 12.875l0 -1.578125l-1.828125 0l0 1.65625q0 0.78125 -0.1875 1.390625q-0.1875 0.625 -0.515625 1.171875l1.046875 0.5625q0.671875 -0.609375 1.078125 -1.484375q0.40625 -0.859375 0.40625 -1.71875z" fill-rule="nonzero"/><path fill="#000000" d="m543.57196 116.841125l0 1.28125l1.609375 0l0 -1.296875q0 -0.71875 0.1875 -1.296875q0.1875 -0.578125 0.515625 -1.109375l-0.90625 -0.59375q-0.328125 0.28125 -0.578125 0.640625q-0.25 0.359375 -0.4375 0.75q-0.1875 0.40625 -0.296875 0.828125q-0.09375 0.421875 -0.09375 0.796875zm2.609375 0l0 1.28125l1.609375 0l0 -1.296875q0 -0.71875 0.1875 -1.296875q0.1875 -0.578125 0.515625 -1.109375l-0.90625 -0.59375q-0.328125 0.28125 -0.578125 0.640625q-0.25 0.359375 -0.4375 0.75q-0.1875 0.40625 -0.296875 0.828125q-0.09375 0.421875 -0.09375 0.796875zm11.0390625 9.28125l1.90625 0l0 -0.140625q-0.15625 -0.328125 -0.234375 -0.78125q-0.078125 -0.453125 -0.078125 -1.03125l0 -3.75q0 -0.71875 -0.265625 -1.265625q-0.265625 -0.5625 -0.734375 -0.921875q-0.46875 -0.359375 -1.125 -0.53125q-0.640625 -0.1875 -1.375 -0.1875q-0.828125 0 -1.484375 0.21875q-0.640625 0.203125 -1.078125 0.578125q-0.453125 0.359375 -0.6875 0.828125q-0.234375 0.46875 -0.234375 0.96875l1.875 0q0 -0.234375 0.078125 -0.453125q0.09375 -0.21875 0.28125 -0.359375q0.1875 -0.171875 0.46875 -0.265625q0.296875 -0.09375 0.671875 -0.09375q0.421875 0 0.75 0.109375q0.328125 0.109375 0.546875 0.296875q0.21875 0.203125 0.328125 0.46875q0.109375 0.265625 0.109375 0.59375l0 0.5625l-1.359375 0q-0.90625 0 -1.640625 0.171875q-0.71875 0.171875 -1.203125 0.5q-0.53125 0.359375 -0.8125 0.890625q-0.28125 0.53125 -0.28125 1.234375q0 0.53125 0.21875 1.0q0.21875 0.46875 0.609375 0.796875q0.375 0.328125 0.921875 0.53125q0.546875 0.1875 1.203125 0.1875q0.40625 0 0.75 -0.078125q0.359375 -0.078125 0.65625 -0.21875q0.3125 -0.140625 0.546875 -0.3125q0.25 -0.1875 0.453125 -0.390625q0.03125 0.234375 0.078125 0.46875q0.0625 0.21875 0.140625 0.375zm-2.265625 -1.34375q-0.359375 0 -0.625 -0.09375q-0.265625 -0.09375 -0.453125 -0.25q-0.171875 -0.15625 -0.265625 -0.375q-0.09375 -0.21875 -0.09375 -0.484375q0 -0.3125 0.109375 -0.5625q0.109375 -0.25 0.34375 -0.421875q0.265625 -0.21875 0.703125 -0.328125q0.453125 -0.109375 1.0625 -0.109375l1.203125 0l0 1.5625q-0.09375 0.203125 -0.28125 0.390625q-0.1875 0.1875 -0.453125 0.328125q-0.25 0.15625 -0.578125 0.25q-0.3125 0.09375 -0.671875 0.09375zm10.1484375 0q-0.578125 0 -0.96875 -0.234375q-0.390625 -0.234375 -0.625 -0.625q-0.234375 -0.375 -0.328125 -0.875q-0.09375 -0.5 -0.09375 -1.015625l0 -0.265625q0 -0.515625 0.09375 -1.0q0.09375 -0.5 0.34375 -0.875q0.21875 -0.390625 0.609375 -0.625q0.390625 -0.234375 0.96875 -0.234375q0.390625 0 0.71875 0.140625q0.328125 0.125 0.578125 0.34375q0.234375 0.234375 0.359375 0.546875q0.125 0.296875 0.125 0.640625l1.765625 0q0 -0.703125 -0.265625 -1.28125q-0.25 -0.59375 -0.71875 -1.015625q-0.46875 -0.421875 -1.125 -0.65625q-0.65625 -0.234375 -1.421875 -0.234375q-0.96875 0 -1.703125 0.34375q-0.71875 0.328125 -1.21875 0.90625q-0.484375 0.578125 -0.734375 1.359375q-0.25 0.765625 -0.25 1.640625l0 0.265625q0 0.875 0.25 1.65625q0.25 0.765625 0.75 1.34375q0.484375 0.578125 1.203125 0.921875q0.734375 0.34375 1.71875 0.34375q0.703125 0 1.328125 -0.234375q0.640625 -0.234375 1.140625 -0.640625q0.484375 -0.390625 0.765625 -0.9375q0.28125 -0.546875 0.28125 -1.15625l-1.765625 0q0 0.3125 -0.140625 0.578125q-0.140625 0.265625 -0.390625 0.46875q-0.25 0.1875 -0.578125 0.296875q-0.3125 0.109375 -0.671875 0.109375zm9.6796875 -9.171875l-1.875 0l0 2.0625l-2.046875 0l0 1.390625l2.046875 0l0 4.15625q0 0.8125 0.203125 1.390625q0.21875 0.578125 0.609375 0.953125q0.375 0.375 0.90625 0.5625q0.546875 0.171875 1.1875 0.171875q0.34375 0 0.703125 -0.046875q0.359375 -0.03125 0.6875 -0.09375q0.328125 -0.0625 0.609375 -0.15625q0.28125 -0.09375 0.484375 -0.21875l-0.203125 -1.28125q-0.140625 0.03125 -0.34375 0.078125q-0.203125 0.03125 -0.4375 0.0625q-0.25 0.046875 -0.515625 0.078125q-0.25 0.015625 -0.484375 0.015625q-0.34375 0 -0.625 -0.078125q-0.28125 -0.078125 -0.484375 -0.265625q-0.203125 -0.1875 -0.3125 -0.5q-0.109375 -0.3125 -0.109375 -0.78125l0 -4.046875l3.171875 0l0 -1.390625l-3.171875 0l0 -2.0625zm6.2734375 2.0625l0 1.546875l2.609375 0l0 5.359375l-2.609375 0l0 1.546875l6.96875 0l0 -1.546875l-2.484375 0l0 -6.90625l-4.484375 0zm2.4375 -2.1875q0 0.296875 0.140625 0.515625q0.140625 0.21875 0.421875 0.3125q0.28125 0.078125 0.5 0.03125q0.234375 -0.046875 0.390625 -0.1875q0.328125 -0.09375 0.5 -0.34375q0.171875 -0.25 0.125 -0.59375q-0.046875 -0.34375 -0.3125 -0.546875q-0.25 -0.21875 -0.671875 -0.21875q-0.25 0 -0.453125 0.078125q-0.203125 0.0625 -0.34375 0.203125q-0.140625 0.140625 -0.21875 0.328125q-0.078125 0.1875 -0.078125 0.421875zm6.3984375 6.328125l0 0.171875q0 0.921875 0.265625 1.703125q0.265625 0.78125 0.765625 1.359375q0.5 0.578125 1.234375 0.921875q0.734375 0.328125 1.671875 0.328125q0.921875 0 1.640625 -0.328125q0.734375 -0.34375 1.234375 -0.921875q0.5 -0.578125 0.765625 -1.359375q0.265625 -0.78125 0.265625 -1.703125l0 -0.171875q0 -0.921875 -0.265625 -1.703125q-0.265625 -0.78125 -0.765625 -1.359375q-0.5 -0.578125 -1.234375 -0.90625q-0.734375 -0.328125 -1.65625 -0.328125q-0.9375 0 -1.671875 0.328125q-0.71875 0.328125 -1.21875 0.90625q-0.5 0.578125 -0.765625 1.359375q-0.265625 0.78125 -0.265625 1.703125zm1.859375 0.171875l0 -0.171875q0 -0.546875 0.125 -1.046875q0.125 -0.515625 0.375 -0.90625q0.25 -0.375 0.640625 -0.59375q0.390625 -0.234375 0.921875 -0.234375q0.53125 0 0.921875 0.234375q0.390625 0.21875 0.640625 0.59375q0.25 0.390625 0.375 0.90625q0.125 0.5 0.125 1.046875l0 0.171875q0 0.5625 -0.125 1.078125q-0.125 0.5 -0.375 0.890625q-0.25 0.375 -0.640625 0.609375q-0.390625 0.21875 -0.90625 0.21875q-0.546875 0 -0.9375 -0.21875q-0.390625 -0.234375 -0.640625 -0.609375q-0.25 -0.390625 -0.375 -0.890625q-0.125 -0.515625 -0.125 -1.078125zm8.0859375 4.140625l1.859375 0l0 -6.03125q0.125 -0.21875 0.28125 -0.390625q0.171875 -0.1875 0.359375 -0.3125q0.25 -0.15625 0.546875 -0.25q0.296875 -0.09375 0.640625 -0.09375q0.40625 0 0.71875 0.09375q0.328125 0.09375 0.5625 0.296875q0.21875 0.21875 0.328125 0.578125q0.125 0.34375 0.125 0.859375l0 5.25l1.875 0l0 -5.28125q0 -0.890625 -0.21875 -1.515625q-0.203125 -0.625 -0.59375 -1.03125q-0.375 -0.40625 -0.921875 -0.59375q-0.53125 -0.1875 -1.1875 -0.1875q-0.484375 0 -0.9375 0.140625q-0.4375 0.140625 -0.8125 0.390625q-0.234375 0.171875 -0.453125 0.375q-0.203125 0.203125 -0.375 0.453125l-0.109375 -1.203125l-1.6875 0l0 8.453125zm15.1171875 -2.296875q0 0.203125 -0.09375 0.375q-0.078125 0.171875 -0.265625 0.3125q-0.21875 0.171875 -0.578125 0.28125q-0.359375 0.09375 -0.84375 0.09375q-0.359375 0 -0.71875 -0.078125q-0.34375 -0.078125 -0.625 -0.25q-0.28125 -0.15625 -0.46875 -0.421875q-0.171875 -0.28125 -0.203125 -0.671875l-1.8125 0q0 0.53125 0.25 1.046875q0.25 0.5 0.734375 0.890625q0.484375 0.390625 1.1875 0.640625q0.703125 0.25 1.625 0.25q0.8125 0 1.484375 -0.1875q0.671875 -0.203125 1.15625 -0.53125q0.484375 -0.34375 0.734375 -0.8125q0.265625 -0.46875 0.265625 -1.03125q0 -0.578125 -0.25 -1.0q-0.25 -0.421875 -0.703125 -0.734375q-0.453125 -0.296875 -1.09375 -0.5q-0.640625 -0.203125 -1.40625 -0.34375q-0.5625 -0.09375 -0.921875 -0.203125q-0.359375 -0.125 -0.5625 -0.265625q-0.21875 -0.125 -0.3125 -0.296875q-0.078125 -0.1875 -0.078125 -0.40625q0 -0.203125 0.09375 -0.390625q0.109375 -0.203125 0.3125 -0.34375q0.203125 -0.15625 0.515625 -0.234375q0.3125 -0.09375 0.734375 -0.09375q0.46875 0 0.8125 0.125q0.34375 0.109375 0.5625 0.3125q0.1875 0.171875 0.28125 0.390625q0.09375 0.21875 0.09375 0.453125l1.875 0q0 -0.578125 -0.25 -1.0625q-0.25 -0.5 -0.71875 -0.859375q-0.46875 -0.359375 -1.140625 -0.5625q-0.671875 -0.203125 -1.515625 -0.203125q-0.78125 0 -1.4375 0.203125q-0.640625 0.203125 -1.09375 0.546875q-0.453125 0.359375 -0.703125 0.828125q-0.25 0.453125 -0.25 0.96875q0 0.546875 0.234375 0.953125q0.25 0.40625 0.6875 0.703125q0.4375 0.3125 1.03125 0.53125q0.609375 0.21875 1.34375 0.359375q0.59375 0.109375 0.984375 0.234375q0.390625 0.125 0.625 0.265625q0.234375 0.15625 0.328125 0.328125q0.09375 0.171875 0.09375 0.390625zm7.5234375 -8.625l0 -1.265625l-1.609375 0l0 1.28125q0 0.71875 -0.1875 1.3125q-0.1875 0.578125 -0.515625 1.09375l0.90625 0.59375q0.3125 -0.265625 0.5625 -0.625q0.265625 -0.375 0.453125 -0.765625q0.1875 -0.40625 0.28125 -0.8125q0.109375 -0.421875 0.109375 -0.8125zm2.71875 0l0 -1.265625l-1.609375 0l0 1.28125q0 0.71875 -0.1875 1.3125q-0.1875 0.578125 -0.515625 1.09375l0.90625 0.59375q0.3125 -0.265625 0.5625 -0.625q0.265625 -0.375 0.453125 -0.765625q0.1875 -0.40625 0.28125 -0.8125q0.109375 -0.421875 0.109375 -0.8125zm6.0078125 9.796875q0 0.53125 0.34375 0.90625q0.359375 0.375 1.0 0.375q0.640625 0 1.0 -0.359375q0.359375 -0.375 0.359375 -0.921875q0 -0.546875 -0.359375 -0.921875q-0.359375 -0.390625 -1.0 -0.390625q-0.65625 0 -1.0 0.390625q-0.34375 0.375 -0.34375 0.921875zm0 -6.625q0 0.53125 0.34375 0.90625q0.359375 0.375 1.0 0.375q0.640625 0 1.0 -0.359375q0.359375 -0.375 0.359375 -0.921875q0 -0.546875 -0.359375 -0.921875q-0.359375 -0.390625 -1.0 -0.390625q-0.65625 0 -1.0 0.390625q-0.34375 0.375 -0.34375 0.921875zm21.96875 -3.90625l0 -1.46875l-3.328125 0l0 15.671875l3.328125 0l0 -1.46875l-1.5 0l0 -12.734375l1.5 0zm6.6015625 10.53125q0 0.53125 0.34375 0.90625q0.359375 0.375 1.0 0.375q0.640625 0 1.0 -0.359375q0.359375 -0.375 0.359375 -0.921875q0 -0.546875 -0.359375 -0.921875q-0.359375 -0.390625 -1.0 -0.390625q-0.65625 0 -1.0 0.390625q-0.34375 0.375 -0.34375 0.921875zm9.6015625 0q0 0.53125 0.34375 0.90625q0.359375 0.375 1.0 0.375q0.640625 0 1.0 -0.359375q0.359375 -0.375 0.359375 -0.921875q0 -0.546875 -0.359375 -0.921875q-0.359375 -0.390625 -1.0 -0.390625q-0.65625 0 -1.0 0.390625q-0.34375 0.375 -0.34375 0.921875zm9.1953125 -12.0l0 1.46875l1.515625 0l0 12.734375l-1.515625 0l0 1.46875l3.34375 0l0 -15.671875l-3.34375 0zm11.7890625 12.875l0 -1.578125l-1.828125 0l0 1.65625q0 0.78125 -0.1875 1.390625q-0.1875 0.625 -0.515625 1.171875l1.046875 0.5625q0.671875 -0.609375 1.078125 -1.484375q0.40625 -0.859375 0.40625 -1.71875z" fill-rule="nonzero"/><path fill="#000000" fill-opacity="0.0" d="m211.14697 114.120155c-1.4089203 0 -2.5510712 -1.1421585 -2.5510712 -2.5510788l0 -10.204926c0 -1.4089279 -1.1421661 -2.5510788 -2.5510864 -2.5510788c1.4089203 0 2.5510864 -1.1421585 2.5510864 -2.5510788l0 -10.204933l0 0c0 -1.4089203 1.1421509 -2.5510788 2.5510712 -2.5510788l20.945297 0c0.67658997 0 1.3254547 0.26877594 1.8038788 0.7471924c0.47842407 0.47842407 0.7471924 1.1272964 0.7471924 1.8038864l0 10.204933c0 1.4089203 1.1421661 2.5510788 2.5510864 2.5510788c-1.4089203 0 -2.5510864 1.1421509 -2.5510864 2.5510788l0 10.204926c0 1.4089203 -1.1421509 2.5510788 -2.5510712 2.5510788z" fill-rule="evenodd"/><path fill="#000000" fill-opacity="0.0" d="m211.14697 114.120155c-1.4089203 0 -2.5510712 -1.1421585 -2.5510712 -2.5510788l0 -10.204926c0 -1.4089279 -1.1421661 -2.5510788 -2.5510864 -2.5510788c1.4089203 0 2.5510864 -1.1421585 2.5510864 -2.5510788l0 -10.204933l0 0c0 -1.4089203 1.1421509 -2.5510788 2.5510712 -2.5510788m20.945297 0c0.67658997 0 1.3254547 0.26877594 1.8038788 0.7471924c0.47842407 0.47842407 0.7471924 1.1272964 0.7471924 1.8038864l0 10.204933c0 1.4089203 1.1421661 2.5510788 2.5510864 2.5510788c-1.4089203 0 -2.5510864 1.1421509 -2.5510864 2.5510788l0 10.204926c0 1.4089203 -1.1421509 2.5510788 -2.5510712 2.5510788" fill-rule="evenodd"/><path stroke="#000000" stroke-width="2.0" stroke-linejoin="round" stroke-linecap="butt" d="m211.14697 114.120155c-1.4089203 0 -2.5510712 -1.1421585 -2.5510712 -2.5510788l0 -10.204926c0 -1.4089279 -1.1421661 -2.5510788 -2.5510864 -2.5510788c1.4089203 0 2.5510864 -1.1421585 2.5510864 -2.5510788l0 -10.204933l0 0c0 -1.4089203 1.1421509 -2.5510788 2.5510712 -2.5510788m20.945297 0c0.67658997 0 1.3254547 0.26877594 1.8038788 0.7471924c0.47842407 0.47842407 0.7471924 1.1272964 0.7471924 1.8038864l0 10.204933c0 1.4089203 1.1421661 2.5510788 2.5510864 2.5510788c-1.4089203 0 -2.5510864 1.1421509 -2.5510864 2.5510788l0 10.204926c0 1.4089203 -1.1421509 2.5510788 -2.5510712 2.5510788" fill-rule="evenodd"/><path fill="#000000" fill-opacity="0.0" d="m674.5934 138.12006l235.27557 0l0 38.771652l-235.27557 0z" fill-rule="evenodd"/><path fill="#000000" d="m686.7965 162.48006l2.1875 0l0 -6.859375l3.046875 0l0 -1.59375l-3.046875 0l0 -0.46875q0 -0.375 0.09375 -0.671875q0.09375 -0.296875 0.296875 -0.5q0.234375 -0.234375 0.609375 -0.359375q0.390625 -0.125 0.9375 -0.125q0.5 0 0.875 0.046875q0.375 0.046875 0.671875 0.109375l0.140625 -1.703125q-0.265625 -0.046875 -0.515625 -0.078125q-0.234375 -0.046875 -0.484375 -0.078125q-0.234375 -0.03125 -0.5 -0.046875q-0.25 -0.03125 -0.515625 -0.03125q-0.875 0 -1.578125 0.234375q-0.703125 0.21875 -1.1875 0.65625q-0.5 0.4375 -0.765625 1.078125q-0.265625 0.640625 -0.265625 1.46875l0 0.46875l-2.21875 0l0 1.59375l2.21875 0l0 6.859375zm7.2109375 -4.3125l0 0.171875q0 0.921875 0.265625 1.71875q0.265625 0.78125 0.78125 1.359375q0.5 0.578125 1.25 0.90625q0.75 0.328125 1.703125 0.328125q0.9375 0 1.671875 -0.328125q0.75 -0.328125 1.265625 -0.90625q0.5 -0.578125 0.765625 -1.359375q0.265625 -0.796875 0.265625 -1.71875l0 -0.171875q0 -0.921875 -0.265625 -1.703125q-0.265625 -0.78125 -0.765625 -1.359375q-0.515625 -0.578125 -1.265625 -0.90625q-0.734375 -0.328125 -1.6875 -0.328125q-0.953125 0 -1.703125 0.328125q-0.734375 0.328125 -1.234375 0.90625q-0.515625 0.578125 -0.78125 1.359375q-0.265625 0.78125 -0.265625 1.703125zm2.171875 0.171875l0 -0.171875q0 -0.515625 0.09375 -0.96875q0.109375 -0.46875 0.328125 -0.8125q0.21875 -0.359375 0.5625 -0.5625q0.34375 -0.203125 0.828125 -0.203125q0.484375 0 0.828125 0.203125q0.34375 0.203125 0.5625 0.5625q0.21875 0.34375 0.3125 0.8125q0.109375 0.453125 0.109375 0.96875l0 0.171875q0 0.53125 -0.109375 1.0q-0.09375 0.453125 -0.3125 0.796875q-0.21875 0.359375 -0.5625 0.5625q-0.34375 0.203125 -0.8125 0.203125q-0.5 0 -0.84375 -0.203125q-0.34375 -0.203125 -0.5625 -0.5625q-0.21875 -0.34375 -0.328125 -0.796875q-0.09375 -0.46875 -0.09375 -1.0zm13.7890625 -4.46875q-0.84375 0 -1.5625 0.40625q-0.71875 0.40625 -1.234375 1.125l-0.015625 -0.1875l-0.09375 -1.1875l-2.015625 0l0 8.453125l2.171875 0l0 -5.078125q0.140625 -0.359375 0.359375 -0.625q0.234375 -0.265625 0.5625 -0.4375q0.265625 -0.15625 0.59375 -0.21875q0.34375 -0.078125 0.765625 -0.078125q0.40625 0 0.859375 0.046875q0.453125 0.046875 0.875 0.15625l0.328125 -2.171875q-0.265625 -0.078125 -0.6875 -0.140625q-0.40625 -0.0625 -0.90625 -0.0625zm4.1640625 8.609375l1.90625 0l0.890625 -4.515625l0.171875 -0.859375l0.1875 0.859375l0.921875 4.515625l1.90625 0l1.515625 -8.453125l-1.984375 0l-0.625 4.984375l-0.109375 0.8125l-0.15625 -0.796875l-0.90625 -5.0l-1.453125 0l-0.921875 5.015625l-0.140625 0.8125l-0.109375 -0.8125l-0.625 -5.015625l-1.984375 0l1.515625 8.453125zm14.2578125 0l2.203125 0l0 -0.140625q-0.171875 -0.3125 -0.265625 -0.75q-0.078125 -0.453125 -0.078125 -1.140625l0 -3.625q0 -0.734375 -0.28125 -1.28125q-0.265625 -0.5625 -0.75 -0.9375q-0.484375 -0.359375 -1.140625 -0.546875q-0.65625 -0.1875 -1.421875 -0.1875q-0.859375 0 -1.515625 0.21875q-0.65625 0.203125 -1.109375 0.578125q-0.46875 0.359375 -0.703125 0.84375q-0.234375 0.484375 -0.234375 1.03125l2.171875 0q0 -0.234375 0.0625 -0.421875q0.0625 -0.1875 0.203125 -0.3125q0.15625 -0.15625 0.40625 -0.234375q0.25 -0.078125 0.59375 -0.078125q0.390625 0 0.6875 0.09375q0.296875 0.09375 0.484375 0.28125q0.1875 0.171875 0.28125 0.40625q0.09375 0.234375 0.09375 0.53125l0 0.5l-1.203125 0q-0.9375 0 -1.671875 0.171875q-0.71875 0.171875 -1.203125 0.484375q-0.546875 0.359375 -0.828125 0.90625q-0.265625 0.53125 -0.265625 1.234375q0 0.546875 0.21875 1.015625q0.21875 0.46875 0.609375 0.796875q0.390625 0.34375 0.921875 0.53125q0.546875 0.1875 1.203125 0.1875q0.390625 0 0.734375 -0.078125q0.34375 -0.0625 0.640625 -0.203125q0.28125 -0.125 0.515625 -0.296875q0.234375 -0.171875 0.40625 -0.375q0.046875 0.234375 0.09375 0.4375q0.0625 0.203125 0.140625 0.359375zm-2.078125 -1.53125q-0.296875 0 -0.53125 -0.0625q-0.234375 -0.078125 -0.390625 -0.203125q-0.15625 -0.140625 -0.234375 -0.328125q-0.078125 -0.1875 -0.078125 -0.421875q0 -0.28125 0.109375 -0.53125q0.109375 -0.25 0.328125 -0.421875q0.234375 -0.171875 0.59375 -0.265625q0.359375 -0.109375 0.859375 -0.109375l1.109375 0l0 1.453125q-0.09375 0.171875 -0.265625 0.328125q-0.15625 0.15625 -0.375 0.28125q-0.234375 0.125 -0.515625 0.203125q-0.28125 0.078125 -0.609375 0.078125zm12.4609375 -7.078125q-0.84375 0 -1.5625 0.40625q-0.71875 0.40625 -1.234375 1.125l-0.015625 -0.1875l-0.09375 -1.1875l-2.015625 0l0 8.453125l2.171875 0l0 -5.078125q0.140625 -0.359375 0.359375 -0.625q0.234375 -0.265625 0.5625 -0.4375q0.265625 -0.15625 0.59375 -0.21875q0.34375 -0.078125 0.765625 -0.078125q0.40625 0 0.859375 0.046875q0.453125 0.046875 0.875 0.15625l0.328125 -2.171875q-0.265625 -0.078125 -0.6875 -0.140625q-0.40625 -0.0625 -0.90625 -0.0625zm3.3046875 4.3125l0 0.171875q0 0.921875 0.21875 1.703125q0.234375 0.78125 0.671875 1.359375q0.421875 0.5625 1.03125 0.890625q0.609375 0.328125 1.390625 0.328125q0.703125 0 1.234375 -0.265625q0.546875 -0.28125 0.953125 -0.78125l0.109375 0.890625l1.953125 0l0 -12.0l-2.171875 0l0 4.296875q-0.390625 -0.4375 -0.90625 -0.671875q-0.5 -0.234375 -1.15625 -0.234375q-0.796875 0 -1.40625 0.3125q-0.609375 0.3125 -1.046875 0.875q-0.421875 0.578125 -0.65625 1.375q-0.21875 0.796875 -0.21875 1.75zm2.171875 0.171875l0 -0.171875q0 -0.53125 0.09375 -0.984375q0.09375 -0.46875 0.296875 -0.828125q0.203125 -0.34375 0.53125 -0.53125q0.328125 -0.203125 0.78125 -0.203125q0.5625 0 0.921875 0.234375q0.375 0.234375 0.59375 0.671875l0 3.421875q-0.21875 0.421875 -0.59375 0.671875q-0.375 0.234375 -0.9375 0.234375q-0.453125 0 -0.78125 -0.1875q-0.3125 -0.203125 -0.515625 -0.546875q-0.203125 -0.34375 -0.296875 -0.796875q-0.09375 -0.453125 -0.09375 -0.984375zm14.8359375 5.828125l0 -1.703125l-7.125 0l0 1.703125l7.125 0zm6.4140625 -12.234375l-2.171875 0l0 2.078125l-1.9375 0l0 1.59375l1.9375 0l0 3.84375q0 0.84375 0.21875 1.4375q0.21875 0.59375 0.625 0.984375q0.390625 0.390625 0.953125 0.578125q0.578125 0.1875 1.265625 0.1875q0.359375 0 0.734375 -0.046875q0.375 -0.03125 0.71875 -0.09375q0.34375 -0.0625 0.640625 -0.15625q0.3125 -0.109375 0.53125 -0.234375l-0.203125 -1.5q-0.15625 0.046875 -0.359375 0.09375q-0.203125 0.03125 -0.4375 0.0625q-0.25 0.03125 -0.515625 0.0625q-0.25 0.015625 -0.5 0.015625q-0.34375 0 -0.625 -0.078125q-0.28125 -0.078125 -0.46875 -0.265625q-0.203125 -0.171875 -0.3125 -0.484375q-0.09375 -0.3125 -0.09375 -0.765625l0 -3.640625l3.15625 0l0 -1.59375l-3.15625 0l0 -2.078125zm11.6796875 1.921875q-0.84375 0 -1.5625 0.40625q-0.71875 0.40625 -1.234375 1.125l-0.015625 -0.1875l-0.09375 -1.1875l-2.015625 0l0 8.453125l2.171875 0l0 -5.078125q0.140625 -0.359375 0.359375 -0.625q0.234375 -0.265625 0.5625 -0.4375q0.265625 -0.15625 0.59375 -0.21875q0.34375 -0.078125 0.765625 -0.078125q0.40625 0 0.859375 0.046875q0.453125 0.046875 0.875 0.15625l0.328125 -2.171875q-0.265625 -0.078125 -0.6875 -0.140625q-0.40625 -0.0625 -0.90625 -0.0625zm8.8203125 8.609375l2.203125 0l0 -0.140625q-0.171875 -0.3125 -0.265625 -0.75q-0.078125 -0.453125 -0.078125 -1.140625l0 -3.625q0 -0.734375 -0.28125 -1.28125q-0.265625 -0.5625 -0.75 -0.9375q-0.484375 -0.359375 -1.140625 -0.546875q-0.65625 -0.1875 -1.421875 -0.1875q-0.859375 0 -1.515625 0.21875q-0.65625 0.203125 -1.109375 0.578125q-0.46875 0.359375 -0.703125 0.84375q-0.234375 0.484375 -0.234375 1.03125l2.171875 0q0 -0.234375 0.0625 -0.421875q0.0625 -0.1875 0.203125 -0.3125q0.15625 -0.15625 0.40625 -0.234375q0.25 -0.078125 0.59375 -0.078125q0.390625 0 0.6875 0.09375q0.296875 0.09375 0.484375 0.28125q0.1875 0.171875 0.28125 0.40625q0.09375 0.234375 0.09375 0.53125l0 0.5l-1.203125 0q-0.9375 0 -1.671875 0.171875q-0.71875 0.171875 -1.203125 0.484375q-0.546875 0.359375 -0.828125 0.90625q-0.265625 0.53125 -0.265625 1.234375q0 0.546875 0.21875 1.015625q0.21875 0.46875 0.609375 0.796875q0.390625 0.34375 0.921875 0.53125q0.546875 0.1875 1.203125 0.1875q0.390625 0 0.734375 -0.078125q0.34375 -0.0625 0.640625 -0.203125q0.28125 -0.125 0.515625 -0.296875q0.234375 -0.171875 0.40625 -0.375q0.046875 0.234375 0.09375 0.4375q0.0625 0.203125 0.140625 0.359375zm-2.078125 -1.53125q-0.296875 0 -0.53125 -0.0625q-0.234375 -0.078125 -0.390625 -0.203125q-0.15625 -0.140625 -0.234375 -0.328125q-0.078125 -0.1875 -0.078125 -0.421875q0 -0.28125 0.109375 -0.53125q0.109375 -0.25 0.328125 -0.421875q0.234375 -0.171875 0.59375 -0.265625q0.359375 -0.109375 0.859375 -0.109375l1.109375 0l0 1.453125q-0.09375 0.171875 -0.265625 0.328125q-0.15625 0.15625 -0.375 0.28125q-0.234375 0.125 -0.515625 0.203125q-0.28125 0.078125 -0.609375 0.078125zm6.9765625 -6.921875l0 1.765625l2.40625 0l0 4.921875l-2.40625 0l0 1.765625l6.890625 0l0 -1.765625l-2.296875 0l0 -6.6875l-4.59375 0zm2.25 -2.171875q0 0.25 0.078125 0.46875q0.09375 0.21875 0.265625 0.359375q0.15625 0.15625 0.390625 0.25q0.234375 0.078125 0.515625 0.078125q0.578125 0 0.90625 -0.3125q0.34375 -0.328125 0.34375 -0.84375q0 -0.5 -0.34375 -0.828125q-0.328125 -0.328125 -0.90625 -0.328125q-0.28125 0 -0.515625 0.09375q-0.234375 0.078125 -0.390625 0.234375q-0.171875 0.15625 -0.265625 0.375q-0.078125 0.203125 -0.078125 0.453125zm6.7734375 10.625l2.171875 0l0 -6.015625q0.109375 -0.171875 0.234375 -0.3125q0.140625 -0.140625 0.3125 -0.234375q0.203125 -0.140625 0.453125 -0.203125q0.265625 -0.078125 0.578125 -0.078125q0.375 0 0.671875 0.078125q0.296875 0.0625 0.515625 0.25q0.203125 0.1875 0.3125 0.515625q0.125 0.328125 0.125 0.828125l0 5.171875l2.171875 0l0 -5.203125q0 -0.921875 -0.21875 -1.5625q-0.21875 -0.65625 -0.59375 -1.0625q-0.390625 -0.40625 -0.921875 -0.59375q-0.53125 -0.1875 -1.171875 -0.1875q-0.5 0 -0.953125 0.140625q-0.4375 0.140625 -0.8125 0.40625q-0.21875 0.15625 -0.421875 0.359375q-0.1875 0.1875 -0.359375 0.421875l-0.125 -1.171875l-1.96875 0l0 8.453125zm11.1953125 -4.625l0 0.171875q0 1.109375 0.15625 2.078125q0.171875 0.96875 0.46875 1.78125q0.28125 0.84375 0.671875 1.515625q0.390625 0.6875 0.8125 1.203125q0.4375 0.515625 0.890625 0.875q0.453125 0.375 0.890625 0.578125l0.421875 -1.171875q-0.3125 -0.234375 -0.625 -0.59375q-0.3125 -0.34375 -0.59375 -0.828125q-0.265625 -0.4375 -0.5 -1.015625q-0.21875 -0.59375 -0.390625 -1.28125q-0.125 -0.5 -0.234375 -1.328125q-0.109375 -0.828125 -0.109375 -1.796875l0 -0.203125q0 -1.0 0.109375 -1.84375q0.109375 -0.84375 0.296875 -1.53125q0.203125 -0.71875 0.46875 -1.328125q0.265625 -0.609375 0.578125 -1.0625q0.25 -0.34375 0.5 -0.609375q0.25 -0.265625 0.5 -0.453125l-0.421875 -1.1875q-0.4375 0.203125 -0.890625 0.5625q-0.453125 0.359375 -0.890625 0.890625q-0.421875 0.515625 -0.8125 1.203125q-0.390625 0.671875 -0.671875 1.5q-0.296875 0.828125 -0.46875 1.796875q-0.15625 0.96875 -0.15625 2.078125zm13.7890625 0.171875l0 -0.171875q0 -1.078125 -0.171875 -2.03125q-0.171875 -0.953125 -0.46875 -1.78125q-0.296875 -0.828125 -0.703125 -1.515625q-0.390625 -0.6875 -0.828125 -1.21875q-0.453125 -0.53125 -0.921875 -0.90625q-0.46875 -0.375 -0.90625 -0.578125l-0.421875 1.171875q0.234375 0.171875 0.46875 0.4375q0.25 0.25 0.46875 0.5625q0.34375 0.484375 0.640625 1.15625q0.296875 0.65625 0.515625 1.5q0.15625 0.671875 0.25 1.46875q0.109375 0.796875 0.109375 1.71875l0 0.203125q0 0.9375 -0.109375 1.75q-0.09375 0.8125 -0.25 1.484375q-0.203125 0.734375 -0.453125 1.328125q-0.25 0.609375 -0.5625 1.078125q-0.25 0.390625 -0.53125 0.6875q-0.265625 0.3125 -0.546875 0.515625l0.421875 1.171875q0.4375 -0.203125 0.90625 -0.578125q0.46875 -0.375 0.921875 -0.90625q0.4375 -0.53125 0.828125 -1.21875q0.40625 -0.6875 0.703125 -1.515625q0.296875 -0.828125 0.46875 -1.78125q0.171875 -0.96875 0.171875 -2.03125z" fill-rule="nonzero"/><path fill="#000000" fill-opacity="0.0" d="m250.54236 98.67081c11.551178 0 17.326752 -0.023620605 23.102356 -0.04724121c5.7756042 -0.023620605 11.551178 -0.04724884 23.102356 -0.04724884" fill-rule="evenodd"/><path stroke="#000000" stroke-width="1.0" stroke-linejoin="round" stroke-linecap="butt" d="m250.54234 98.67081c11.551193 0 17.326767 -0.023620605 23.102371 -0.04724121c2.8877869 -0.011810303 5.7755737 -0.023620605 9.385315 -0.032478333c1.8048706 -0.004432678 3.7902527 -0.008125305 6.0463257 -0.0107040405l1.6707153 -8.8500977E-4" fill-rule="evenodd"/><path fill="#000000" stroke="#000000" stroke-width="1.0" stroke-linecap="butt" d="m290.74796 100.23123l4.537201 -1.6541367l-4.538971 -1.6493301z" fill-rule="evenodd"/><path fill="#000000" fill-opacity="0.0" d="m580.4194 40.29659l103.52759 0l0 35.559055l-103.52759 0z" fill-rule="evenodd"/><path fill="#666666" d="m592.8569 61.049713l0.171875 1.03125q-0.5 0.109375 -0.890625 0.109375q-0.640625 0 -1.0 -0.203125q-0.34375 -0.203125 -0.484375 -0.53125q-0.140625 -0.328125 -0.140625 -1.390625l0 -3.96875l-0.859375 0l0 -0.90625l0.859375 0l0 -1.71875l1.171875 -0.703125l0 2.421875l1.171875 0l0 0.90625l-1.171875 0l0 4.046875q0 0.5 0.046875 0.640625q0.0625 0.140625 0.203125 0.234375q0.140625 0.078125 0.40625 0.078125q0.203125 0 0.515625 -0.046875zm1.1248779 1.046875l0 -6.90625l1.0625 0l0 1.046875q0.40625 -0.734375 0.734375 -0.96875q0.34375 -0.234375 0.765625 -0.234375q0.59375 0 1.203125 0.375l-0.40625 1.078125q-0.4375 -0.25 -0.859375 -0.25q-0.390625 0 -0.703125 0.234375q-0.296875 0.234375 -0.421875 0.640625q-0.203125 0.625 -0.203125 1.359375l0 3.625l-1.171875 0zm8.9696045 -0.859375q-0.65625 0.5625 -1.265625 0.796875q-0.59375 0.21875 -1.28125 0.21875q-1.140625 0 -1.75 -0.546875q-0.609375 -0.5625 -0.609375 -1.4375q0 -0.5 0.21875 -0.921875q0.234375 -0.421875 0.609375 -0.671875q0.375 -0.25 0.84375 -0.390625q0.34375 -0.078125 1.046875 -0.171875q1.421875 -0.171875 2.09375 -0.40625q0 -0.234375 0 -0.296875q0 -0.71875 -0.328125 -1.015625q-0.453125 -0.390625 -1.34375 -0.390625q-0.8125 0 -1.21875 0.296875q-0.390625 0.28125 -0.578125 1.015625l-1.140625 -0.15625q0.15625 -0.734375 0.515625 -1.1875q0.359375 -0.453125 1.03125 -0.6875q0.671875 -0.25 1.5625 -0.25q0.890625 0 1.4375 0.203125q0.5625 0.203125 0.8125 0.53125q0.265625 0.3125 0.375 0.796875q0.046875 0.296875 0.046875 1.078125l0 1.5625q0 1.625 0.078125 2.0625q0.078125 0.4375 0.296875 0.828125l-1.21875 0q-0.1875 -0.359375 -0.234375 -0.859375zm-0.09375 -2.609375q-0.640625 0.265625 -1.921875 0.4375q-0.71875 0.109375 -1.015625 0.25q-0.296875 0.125 -0.46875 0.375q-0.15625 0.25 -0.15625 0.546875q0 0.46875 0.34375 0.78125q0.359375 0.3125 1.046875 0.3125q0.671875 0 1.203125 -0.296875q0.53125 -0.296875 0.78125 -0.8125q0.1875 -0.390625 0.1875 -1.171875l0 -0.421875zm3.0062256 -4.71875l0 -1.359375l1.171875 0l0 1.359375l-1.171875 0zm0 8.1875l0 -6.90625l1.171875 0l0 6.90625l-1.171875 0zm2.9454956 0l0 -6.90625l1.0625 0l0 0.984375q0.75 -1.140625 2.1875 -1.140625q0.625 0 1.15625 0.21875q0.53125 0.21875 0.78125 0.59375q0.265625 0.359375 0.375 0.859375q0.0625 0.328125 0.0625 1.140625l0 4.25l-1.171875 0l0 -4.203125q0 -0.71875 -0.140625 -1.0625q-0.140625 -0.359375 -0.484375 -0.5625q-0.34375 -0.21875 -0.8125 -0.21875q-0.75 0 -1.296875 0.46875q-0.546875 0.46875 -0.546875 1.796875l0 3.78125l-1.171875 0zm12.1936035 0l-1.078125 0l0 -9.546875l1.171875 0l0 3.40625q0.734375 -0.921875 1.890625 -0.921875q0.640625 0 1.203125 0.265625q0.578125 0.25 0.9375 0.71875q0.375 0.453125 0.578125 1.109375q0.203125 0.65625 0.203125 1.40625q0 1.78125 -0.875 2.75q-0.875 0.96875 -2.109375 0.96875q-1.21875 0 -1.921875 -1.015625l0 0.859375zm0 -3.5q0 1.234375 0.328125 1.78125q0.5625 0.90625 1.5 0.90625q0.765625 0 1.328125 -0.65625q0.5625 -0.671875 0.5625 -2.0q0 -1.34375 -0.546875 -1.984375q-0.53125 -0.65625 -1.296875 -0.65625q-0.765625 0 -1.328125 0.671875q-0.546875 0.671875 -0.546875 1.9375zm10.849976 2.640625q-0.65625 0.5625 -1.265625 0.796875q-0.59375 0.21875 -1.28125 0.21875q-1.140625 0 -1.75 -0.546875q-0.609375 -0.5625 -0.609375 -1.4375q0 -0.5 0.21875 -0.921875q0.234375 -0.421875 0.609375 -0.671875q0.375 -0.25 0.84375 -0.390625q0.34375 -0.078125 1.046875 -0.171875q1.421875 -0.171875 2.09375 -0.40625q0 -0.234375 0 -0.296875q0 -0.71875 -0.328125 -1.015625q-0.453125 -0.390625 -1.34375 -0.390625q-0.8125 0 -1.21875 0.296875q-0.390625 0.28125 -0.578125 1.015625l-1.140625 -0.15625q0.15625 -0.734375 0.515625 -1.1875q0.359375 -0.453125 1.03125 -0.6875q0.671875 -0.25 1.5625 -0.25q0.890625 0 1.4375 0.203125q0.5625 0.203125 0.8125 0.53125q0.265625 0.3125 0.375 0.796875q0.046875 0.296875 0.046875 1.078125l0 1.5625q0 1.625 0.078125 2.0625q0.078125 0.4375 0.296875 0.828125l-1.21875 0q-0.1875 -0.359375 -0.234375 -0.859375zm-0.09375 -2.609375q-0.640625 0.265625 -1.921875 0.4375q-0.71875 0.109375 -1.015625 0.25q-0.296875 0.125 -0.46875 0.375q-0.15625 0.25 -0.15625 0.546875q0 0.46875 0.34375 0.78125q0.359375 0.3125 1.046875 0.3125q0.671875 0 1.203125 -0.296875q0.53125 -0.296875 0.78125 -0.8125q0.1875 -0.390625 0.1875 -1.171875l0 -0.421875zm5.5531006 2.421875l0.171875 1.03125q-0.5 0.109375 -0.890625 0.109375q-0.640625 0 -1.0 -0.203125q-0.34375 -0.203125 -0.484375 -0.53125q-0.140625 -0.328125 -0.140625 -1.390625l0 -3.96875l-0.859375 0l0 -0.90625l0.859375 0l0 -1.71875l1.171875 -0.703125l0 2.421875l1.171875 0l0 0.90625l-1.171875 0l0 4.046875q0 0.5 0.046875 0.640625q0.0625 0.140625 0.203125 0.234375q0.140625 0.078125 0.40625 0.078125q0.203125 0 0.515625 -0.046875zm5.656067 -1.484375l1.15625 0.15625q-0.1875 1.1875 -0.96875 1.859375q-0.78125 0.671875 -1.921875 0.671875q-1.40625 0 -2.28125 -0.921875q-0.859375 -0.9375 -0.859375 -2.65625q0 -1.125 0.375 -1.96875q0.375 -0.84375 1.125 -1.25q0.765625 -0.421875 1.65625 -0.421875q1.125 0 1.84375 0.578125q0.71875 0.5625 0.921875 1.609375l-1.140625 0.171875q-0.171875 -0.703125 -0.59375 -1.046875q-0.40625 -0.359375 -0.984375 -0.359375q-0.890625 0 -1.453125 0.640625q-0.546875 0.640625 -0.546875 2.0q0 1.40625 0.53125 2.03125q0.546875 0.625 1.40625 0.625q0.6875 0 1.140625 -0.421875q0.46875 -0.421875 0.59375 -1.296875zm2.1484375 2.53125l0 -9.546875l1.171875 0l0 3.421875q0.828125 -0.9375 2.078125 -0.9375q0.765625 0 1.328125 0.296875q0.5625 0.296875 0.8125 0.84375q0.25 0.53125 0.25 1.546875l0 4.375l-1.171875 0l0 -4.375q0 -0.890625 -0.390625 -1.28125q-0.375 -0.40625 -1.078125 -0.40625q-0.515625 0 -0.984375 0.28125q-0.453125 0.265625 -0.65625 0.734375q-0.1875 0.453125 -0.1875 1.265625l0 3.78125l-1.171875 0z" fill-rule="nonzero"/><path fill="#000000" fill-opacity="0.0" d="m179.05177 19.846048l87.30708 0l0 67.874016l-87.30708 0z" fill-rule="evenodd"/><path fill="#666666" d="m208.40979 33.458546l0 -1.359375l1.171875 0l0 1.359375l-1.171875 0zm0 8.1875l0 -6.90625l1.171875 0l0 6.90625l-1.171875 0zm2.945465 0l0 -6.90625l1.0625 0l0 0.984375q0.75 -1.140625 2.1875 -1.140625q0.625 0 1.15625 0.21875q0.53125 0.21875 0.78125 0.59375q0.265625 0.359375 0.375 0.859375q0.0625 0.328125 0.0625 1.140625l0 4.25l-1.171875 0l0 -4.203125q0 -0.71875 -0.140625 -1.0625q-0.140625 -0.359375 -0.484375 -0.5625q-0.34375 -0.21875 -0.8125 -0.21875q-0.75 0 -1.296875 0.46875q-0.546875 0.46875 -0.546875 1.796875l0 3.78125l-1.171875 0zm7.4281006 -8.1875l0 -1.359375l1.171875 0l0 1.359375l-1.171875 0zm0 8.1875l0 -6.90625l1.171875 0l0 6.90625l-1.171875 0zm5.507965 -1.046875l0.171875 1.03125q-0.5 0.109375 -0.890625 0.109375q-0.640625 0 -1.0 -0.203125q-0.34375 -0.203125 -0.484375 -0.53125q-0.140625 -0.328125 -0.140625 -1.390625l0 -3.96875l-0.859375 0l0 -0.90625l0.859375 0l0 -1.71875l1.171875 -0.703125l0 2.421875l1.171875 0l0 0.90625l-1.171875 0l0 4.046875q0 0.5 0.046875 0.640625q0.0625 0.140625 0.203125 0.234375q0.140625 0.078125 0.40625 0.078125q0.203125 0 0.515625 -0.046875zm1.1561127 -7.140625l0 -1.359375l1.171875 0l0 1.359375l-1.171875 0zm0 8.1875l0 -6.90625l1.171875 0l0 6.90625l-1.171875 0zm7.46109 -0.859375q-0.65625 0.5625 -1.265625 0.796875q-0.59375 0.21875 -1.28125 0.21875q-1.140625 0 -1.75 -0.546875q-0.609375 -0.5625 -0.609375 -1.4375q0 -0.5 0.21875 -0.921875q0.234375 -0.421875 0.609375 -0.671875q0.375 -0.25 0.84375 -0.390625q0.34375 -0.078125 1.046875 -0.171875q1.421875 -0.171875 2.09375 -0.40625q0 -0.234375 0 -0.296875q0 -0.71875 -0.328125 -1.015625q-0.453125 -0.390625 -1.34375 -0.390625q-0.8125 0 -1.21875 0.296875q-0.390625 0.28125 -0.578125 1.015625l-1.140625 -0.15625q0.15625 -0.734375 0.515625 -1.1875q0.359375 -0.453125 1.03125 -0.6875q0.671875 -0.25 1.5625 -0.25q0.890625 0 1.4375 0.203125q0.5625 0.203125 0.8125 0.53125q0.265625 0.3125 0.375 0.796875q0.046875 0.296875 0.046875 1.078125l0 1.5625q0 1.625 0.078125 2.0625q0.078125 0.4375 0.296875 0.828125l-1.21875 0q-0.1875 -0.359375 -0.234375 -0.859375zm-0.09375 -2.609375q-0.640625 0.265625 -1.921875 0.4375q-0.71875 0.109375 -1.015625 0.25q-0.296875 0.125 -0.46875 0.375q-0.15625 0.25 -0.15625 0.546875q0 0.46875 0.34375 0.78125q0.359375 0.3125 1.046875 0.3125q0.671875 0 1.203125 -0.296875q0.53125 -0.296875 0.78125 -0.8125q0.1875 -0.390625 0.1875 -1.171875l0 -0.421875zm2.9749756 3.46875l0 -9.546875l1.171875 0l0 9.546875l-1.171875 0z" fill-rule="nonzero"/><path fill="#666666" d="m203.24474 60.458546q-0.984375 -1.234375 -1.65625 -2.875q-0.65625 -1.640625 -0.65625 -3.390625q0 -1.546875 0.5 -2.96875q0.578125 -1.640625 1.8125 -3.28125l0.828125 0q-0.78125 1.359375 -1.03125 1.9375q-0.40625 0.890625 -0.625 1.875q-0.28125 1.21875 -0.28125 2.4375q0 3.140625 1.9375 6.265625l-0.828125 0zm6.9227448 -5.03125l1.203125 0.140625q-0.28125 1.0625 -1.0625 1.65625q-0.765625 0.578125 -1.96875 0.578125q-1.515625 0 -2.40625 -0.9375q-0.890625 -0.9375 -0.890625 -2.609375q0 -1.75 0.890625 -2.703125q0.90625 -0.96875 2.34375 -0.96875q1.390625 0 2.265625 0.9375q0.875 0.9375 0.875 2.65625q0 0.109375 0 0.3125l-5.15625 0q0.0625 1.140625 0.640625 1.75q0.578125 0.59375 1.4375 0.59375q0.65625 0 1.109375 -0.328125q0.453125 -0.34375 0.71875 -1.078125zm-3.84375 -1.90625l3.859375 0q-0.078125 -0.859375 -0.4375 -1.296875q-0.5625 -0.6875 -1.453125 -0.6875q-0.8125 0 -1.359375 0.546875q-0.546875 0.53125 -0.609375 1.4375zm6.5218506 4.125l0 -6.90625l1.046875 0l0 0.96875q0.328125 -0.515625 0.859375 -0.8125q0.546875 -0.3125 1.234375 -0.3125q0.78125 0 1.265625 0.3125q0.484375 0.3125 0.6875 0.890625q0.828125 -1.203125 2.140625 -1.203125q1.03125 0 1.578125 0.578125q0.5625 0.5625 0.5625 1.734375l0 4.75l-1.171875 0l0 -4.359375q0 -0.703125 -0.125 -1.0q-0.109375 -0.3125 -0.40625 -0.5q-0.296875 -0.1875 -0.703125 -0.1875q-0.71875 0 -1.203125 0.484375q-0.484375 0.484375 -0.484375 1.546875l0 4.015625l-1.171875 0l0 -4.484375q0 -0.78125 -0.296875 -1.171875q-0.28125 -0.390625 -0.921875 -0.390625q-0.5 0 -0.921875 0.265625q-0.421875 0.25 -0.609375 0.75q-0.1875 0.5 -0.1875 1.453125l0 3.578125l-1.171875 0zm11.102432 2.65625l0 -9.5625l1.078125 0l0 0.890625q0.375 -0.53125 0.84375 -0.78125q0.484375 -0.265625 1.15625 -0.265625q0.875 0 1.546875 0.453125q0.6875 0.453125 1.03125 1.28125q0.34375 0.828125 0.34375 1.828125q0 1.046875 -0.375 1.90625q-0.375 0.84375 -1.109375 1.296875q-0.71875 0.453125 -1.53125 0.453125q-0.578125 0 -1.046875 -0.25q-0.46875 -0.25 -0.765625 -0.625l0 3.375l-1.171875 0zm1.0625 -6.078125q0 1.34375 0.53125 1.984375q0.546875 0.625 1.3125 0.625q0.78125 0 1.34375 -0.65625q0.5625 -0.65625 0.5625 -2.046875q0 -1.3125 -0.546875 -1.96875q-0.546875 -0.671875 -1.296875 -0.671875q-0.75 0 -1.328125 0.703125q-0.578125 0.703125 -0.578125 2.03125zm8.912476 2.375l0.171875 1.03125q-0.5 0.109375 -0.890625 0.109375q-0.640625 0 -1.0 -0.203125q-0.34375 -0.203125 -0.484375 -0.53125q-0.140625 -0.328125 -0.140625 -1.390625l0 -3.96875l-0.859375 0l0 -0.90625l0.859375 0l0 -1.71875l1.171875 -0.703125l0 2.421875l1.171875 0l0 0.90625l-1.171875 0l0 4.046875q0 0.5 0.046875 0.640625q0.0625 0.140625 0.203125 0.234375q0.140625 0.078125 0.40625 0.078125q0.203125 0 0.515625 -0.046875zm1.0936127 3.703125l-0.125 -1.09375q0.375 0.109375 0.65625 0.109375q0.390625 0 0.625 -0.140625q0.234375 -0.125 0.390625 -0.359375q0.109375 -0.171875 0.359375 -0.875q0.03125 -0.09375 0.109375 -0.28125l-2.625 -6.921875l1.265625 0l1.4375 4.0q0.28125 0.765625 0.5 1.59375q0.203125 -0.796875 0.46875 -1.578125l1.484375 -4.015625l1.171875 0l-2.625 7.015625q-0.421875 1.140625 -0.65625 1.578125q-0.3125 0.578125 -0.71875 0.84375q-0.40625 0.28125 -0.96875 0.28125q-0.328125 0 -0.75 -0.15625zm7.4765625 0.15625l-0.828125 0q1.9375 -3.125 1.9375 -6.265625q0 -1.21875 -0.28125 -2.421875q-0.21875 -0.984375 -0.609375 -1.875q-0.265625 -0.59375 -1.046875 -1.953125l0.828125 0q1.234375 1.640625 1.8125 3.28125q0.5 1.421875 0.5 2.96875q0 1.75 -0.671875 3.390625q-0.671875 1.640625 -1.640625 2.875z" fill-rule="nonzero"/><path fill="#666666" d="m208.3562 73.64605l-1.078125 0l0 -9.546875l1.171875 0l0 3.40625q0.734375 -0.921875 1.890625 -0.921875q0.640625 0 1.203125 0.265625q0.578125 0.25 0.9375 0.71875q0.375 0.453125 0.578125 1.109375q0.203125 0.65625 0.203125 1.40625q0 1.78125 -0.875 2.75q-0.875 0.96875 -2.109375 0.96875q-1.21875 0 -1.921875 -1.015625l0 0.859375zm0 -3.5q0 1.234375 0.328125 1.78125q0.5625 0.90625 1.5 0.90625q0.765625 0 1.328125 -0.65625q0.5625 -0.671875 0.5625 -2.0q0 -1.34375 -0.546875 -1.984375q-0.53125 -0.65625 -1.296875 -0.65625q-0.765625 0 -1.328125 0.671875q-0.546875 0.671875 -0.546875 1.9375zm10.849976 2.640625q-0.65625 0.5625 -1.265625 0.796875q-0.59375 0.21875 -1.28125 0.21875q-1.140625 0 -1.75 -0.546875q-0.609375 -0.5625 -0.609375 -1.4375q0 -0.5 0.21875 -0.921875q0.234375 -0.421875 0.609375 -0.671875q0.375 -0.25 0.84375 -0.390625q0.34375 -0.078125 1.046875 -0.171875q1.421875 -0.171875 2.09375 -0.40625q0 -0.234375 0 -0.296875q0 -0.71875 -0.328125 -1.015625q-0.453125 -0.390625 -1.34375 -0.390625q-0.8125 0 -1.21875 0.296875q-0.390625 0.28125 -0.578125 1.015625l-1.140625 -0.15625q0.15625 -0.734375 0.515625 -1.1875q0.359375 -0.453125 1.03125 -0.6875q0.671875 -0.25 1.5625 -0.25q0.890625 0 1.4375 0.203125q0.5625 0.203125 0.8125 0.53125q0.265625 0.3125 0.375 0.796875q0.046875 0.296875 0.046875 1.078125l0 1.5625q0 1.625 0.078125 2.0625q0.078125 0.4375 0.296875 0.828125l-1.21875 0q-0.1875 -0.359375 -0.234375 -0.859375zm-0.09375 -2.609375q-0.640625 0.265625 -1.921875 0.4375q-0.71875 0.109375 -1.015625 0.25q-0.296875 0.125 -0.46875 0.375q-0.15625 0.25 -0.15625 0.546875q0 0.46875 0.34375 0.78125q0.359375 0.3125 1.046875 0.3125q0.671875 0 1.203125 -0.296875q0.53125 -0.296875 0.78125 -0.8125q0.1875 -0.390625 0.1875 -1.171875l0 -0.421875zm5.5531006 2.421875l0.171875 1.03125q-0.5 0.109375 -0.890625 0.109375q-0.640625 0 -1.0 -0.203125q-0.34375 -0.203125 -0.484375 -0.53125q-0.140625 -0.328125 -0.140625 -1.390625l0 -3.96875l-0.859375 0l0 -0.90625l0.859375 0l0 -1.71875l1.171875 -0.703125l0 2.421875l1.171875 0l0 0.90625l-1.171875 0l0 4.046875q0 0.5 0.046875 0.640625q0.0625 0.140625 0.203125 0.234375q0.140625 0.078125 0.40625 0.078125q0.203125 0 0.515625 -0.046875zm5.6561127 -1.484375l1.15625 0.15625q-0.1875 1.1875 -0.96875 1.859375q-0.78125 0.671875 -1.921875 0.671875q-1.40625 0 -2.28125 -0.921875q-0.859375 -0.9375 -0.859375 -2.65625q0 -1.125 0.375 -1.96875q0.375 -0.84375 1.125 -1.25q0.765625 -0.421875 1.65625 -0.421875q1.125 0 1.84375 0.578125q0.71875 0.5625 0.921875 1.609375l-1.140625 0.171875q-0.171875 -0.703125 -0.59375 -1.046875q-0.40625 -0.359375 -0.984375 -0.359375q-0.890625 0 -1.453125 0.640625q-0.546875 0.640625 -0.546875 2.0q0 1.40625 0.53125 2.03125q0.546875 0.625 1.40625 0.625q0.6875 0 1.140625 -0.421875q0.46875 -0.421875 0.59375 -1.296875zm2.1484375 2.53125l0 -9.546875l1.171875 0l0 3.421875q0.828125 -0.9375 2.078125 -0.9375q0.765625 0 1.328125 0.296875q0.5625 0.296875 0.8125 0.84375q0.25 0.53125 0.25 1.546875l0 4.375l-1.171875 0l0 -4.375q0 -0.890625 -0.390625 -1.28125q-0.375 -0.40625 -1.078125 -0.40625q-0.515625 0 -0.984375 0.28125q-0.453125 0.265625 -0.65625 0.734375q-0.1875 0.453125 -0.1875 1.265625l0 3.78125l-1.171875 0z" fill-rule="nonzero"/><path fill="#ffffff" d="m787.4204 75.768524l0 0c0 -2.9674911 2.4056396 -5.3731155 5.373108 -5.3731155l109.94672 0c1.4250488 0 2.791687 0.56609344 3.7993774 1.5737534c1.0076294 1.0076523 1.5737305 2.374321 1.5737305 3.7993622l0 44.623856c0 2.9674835 -2.4056396 5.373108 -5.373108 5.373108l-109.94672 0c-2.9674683 0 -5.373108 -2.4056244 -5.373108 -5.373108z" fill-rule="evenodd"/><path stroke="#434343" stroke-width="1.0" stroke-linejoin="round" stroke-linecap="butt" d="m787.4204 75.768524l0 0c0 -2.9674911 2.4056396 -5.3731155 5.373108 -5.3731155l109.94672 0c1.4250488 0 2.791687 0.56609344 3.7993774 1.5737534c1.0076294 1.0076523 1.5737305 2.374321 1.5737305 3.7993622l0 44.623856c0 2.9674835 -2.4056396 5.373108 -5.373108 5.373108l-109.94672 0c-2.9674683 0 -5.373108 -2.4056244 -5.373108 -5.373108z" fill-rule="evenodd"/><path fill="#434343" d="m804.0479 105.00045l0 -13.359375l5.6875 0q2.140625 0 3.109375 0.359375q0.96875 0.359375 1.546875 1.28125q0.578125 0.921875 0.578125 2.109375q0 1.5 -0.890625 2.484375q-0.875 0.96875 -2.625 1.234375q0.875 0.5 1.4375 1.125q0.578125 0.609375 1.53125 2.15625l1.640625 2.609375l-3.234375 0l-1.9375 -2.90625q-1.046875 -1.5625 -1.4375 -1.96875q-0.375 -0.40625 -0.8125 -0.546875q-0.421875 -0.15625 -1.34375 -0.15625l-0.546875 0l0 5.578125l-2.703125 0zm2.703125 -7.703125l2.0 0q1.9375 0 2.421875 -0.15625q0.484375 -0.171875 0.75 -0.578125q0.28125 -0.40625 0.28125 -1.0q0 -0.671875 -0.359375 -1.078125q-0.359375 -0.421875 -1.015625 -0.53125q-0.328125 -0.046875 -1.96875 -0.046875l-2.109375 0l0 3.390625zm10.847961 7.703125l0 -13.25l2.6875 0l0 11.0l6.703125 0l0 2.25l-9.390625 0zm11.28656 0l0 -13.359375l4.03125 0l2.421875 9.109375l2.390625 -9.109375l4.046875 0l0 13.359375l-2.5 0l0 -10.515625l-2.65625 10.515625l-2.59375 0l-2.640625 -10.515625l0 10.515625l-2.5 0zm14.9627075 -4.96875q0 -1.28125 0.625 -2.46875q0.625 -1.203125 1.78125 -1.828125q1.15625 -0.625 2.578125 -0.625q2.1875 0 3.59375 1.421875q1.40625 1.421875 1.40625 3.609375q0 2.1875 -1.421875 3.640625q-1.421875 1.4375 -3.5625 1.4375q-1.328125 0 -2.546875 -0.59375q-1.203125 -0.609375 -1.828125 -1.765625q-0.625 -1.171875 -0.625 -2.828125zm2.625 0.125q0 1.453125 0.671875 2.21875q0.6875 0.75 1.6875 0.75q1.0 0 1.671875 -0.75q0.6875 -0.765625 0.6875 -2.234375q0 -1.421875 -0.6875 -2.1875q-0.671875 -0.765625 -1.671875 -0.765625q-1.0 0 -1.6875 0.765625q-0.671875 0.765625 -0.671875 2.203125zm18.239746 4.84375l-2.390625 0l0 -1.421875q-0.59375 0.828125 -1.40625 1.234375q-0.796875 0.40625 -1.609375 0.40625q-1.671875 0 -2.859375 -1.34375q-1.1875 -1.34375 -1.1875 -3.75q0 -2.453125 1.15625 -3.734375q1.15625 -1.28125 2.921875 -1.28125q1.625 0 2.8125 1.34375l0 -4.8125l2.5625 0l0 13.359375zm-6.84375 -5.046875q0 1.546875 0.4375 2.234375q0.609375 1.015625 1.71875 1.015625q0.890625 0 1.5 -0.75q0.625 -0.765625 0.625 -2.25q0 -1.671875 -0.609375 -2.40625q-0.59375 -0.734375 -1.53125 -0.734375q-0.90625 0 -1.53125 0.734375q-0.609375 0.71875 -0.609375 2.15625zm15.72406 5.046875l0 -1.453125q-0.53125 0.78125 -1.390625 1.234375q-0.859375 0.4375 -1.8125 0.4375q-0.96875 0 -1.75 -0.421875q-0.765625 -0.4375 -1.125 -1.203125q-0.34375 -0.78125 -0.34375 -2.140625l0 -6.125l2.5625 0l0 4.4375q0 2.046875 0.140625 2.515625q0.140625 0.453125 0.515625 0.71875q0.375 0.265625 0.953125 0.265625q0.65625 0 1.171875 -0.359375q0.515625 -0.359375 0.703125 -0.890625q0.203125 -0.53125 0.203125 -2.609375l0 -4.078125l2.546875 0l0 9.671875l-2.375 0zm5.036621 0l0 -13.359375l2.5625 0l0 13.359375l-2.5625 0zm10.777039 -3.078125l2.546875 0.421875q-0.484375 1.40625 -1.546875 2.140625q-1.0625 0.734375 -2.65625 0.734375q-2.515625 0 -3.734375 -1.65625q-0.953125 -1.3125 -0.953125 -3.328125q0 -2.40625 1.25 -3.765625q1.265625 -1.359375 3.1875 -1.359375q2.15625 0 3.40625 1.421875q1.25 1.421875 1.1875 4.375l-6.40625 0q0.03125 1.140625 0.609375 1.78125q0.59375 0.625 1.484375 0.625q0.59375 0 1.0 -0.328125q0.421875 -0.328125 0.625 -1.0625zm0.15625 -2.59375q-0.03125 -1.109375 -0.578125 -1.6875q-0.546875 -0.578125 -1.328125 -0.578125q-0.84375 0 -1.390625 0.609375q-0.546875 0.609375 -0.53125 1.65625l3.828125 0z" fill-rule="nonzero"/><path fill="#000000" fill-opacity="0.0" d="m471.2956 98.67081c11.551178 0 17.326782 -0.023620605 23.102356 -0.04724121c5.7756042 -0.023620605 11.551178 -0.04724884 23.102356 -0.04724884" fill-rule="evenodd"/><path stroke="#000000" stroke-width="1.0" stroke-linejoin="round" stroke-linecap="butt" d="m471.2956 98.67081c11.551178 0 17.326782 -0.023620605 23.102386 -0.04724121c2.8877869 -0.011810303 5.7755737 -0.023620605 9.385315 -0.032478333c1.8048706 -0.004432678 3.7902222 -0.008125305 6.046356 -0.0107040405l1.6706848 -8.8500977E-4" fill-rule="evenodd"/><path fill="#000000" stroke="#000000" stroke-width="1.0" stroke-linecap="butt" d="m511.5012 100.23123l4.537262 -1.6541367l-4.5390015 -1.6493301z" fill-rule="evenodd"/><path fill="#000000" fill-opacity="0.0" d="m730.7501 98.67081c11.5512085 0 17.326782 -0.023620605 23.102356 -0.04724121c5.775635 -0.023620605 11.5512085 -0.04724884 23.102417 -0.04724884" fill-rule="evenodd"/><path stroke="#000000" stroke-width="1.0" stroke-linejoin="round" stroke-linecap="butt" d="m730.7502 98.67081c11.551147 0 17.326782 -0.023620605 23.102356 -0.04724121c2.8877563 -0.011810303 5.7755737 -0.023620605 9.385315 -0.032478333c1.8048706 -0.004432678 3.7902222 -0.008125305 6.0463257 -0.0107040405l1.6707153 -8.8500977E-4" fill-rule="evenodd"/><path fill="#000000" stroke="#000000" stroke-width="1.0" stroke-linecap="butt" d="m770.95575 100.23123l4.5372314 -1.6541367l-4.5389404 -1.6493301z" fill-rule="evenodd"/></g></svg>