<svg version="1.1" viewBox="0.0 0.0 251.33333333333334 104.33333333333333" fill="none" stroke="none" stroke-linecap="square" stroke-miterlimit="10" xmlns:xlink="http://www.w3.org/1999/xlink" xmlns="http://www.w3.org/2000/svg"><clipPath id="p.0"><path d="m0 0l251.33333 0l0 104.333336l-251.33333 0l0 -104.333336z" clip-rule="nonzero"/></clipPath><g clip-path="url(#p.0)"><path fill="#000000" fill-opacity="0.0" d="m0 0l251.33333 0l0 104.333336l-251.33333 0z" fill-rule="evenodd"/><path fill="#ffffff" d="m0.9265092 10.999674l0 0c0 -5.499474 4.4582047 -9.957679 9.95768 -9.957679l229.81693 0c2.6409454 0 5.1737213 1.0491095 7.0411377 2.9165368c1.8674316 1.8674271 2.9165497 4.400202 2.9165497 7.0411425l0 82.698814c0 5.4994736 -4.458206 9.95768 -9.957687 9.95768l-229.81693 0c-5.4994745 0 -9.95768 -4.458206 -9.95768 -9.95768z" fill-rule="evenodd"/><path stroke="#3d85c6" stroke-width="1.0" stroke-linejoin="round" stroke-linecap="butt" d="m0.9265092 10.999674l0 0c0 -5.499474 4.4582047 -9.957679 9.95768 -9.957679l229.81693 0c2.6409454 0 5.1737213 1.0491095 7.0411377 2.9165368c1.8674316 1.8674271 2.9165497 4.400202 2.9165497 7.0411425l0 82.698814c0 5.4994736 -4.458206 9.95768 -9.957687 9.95768l-229.81693 0c-5.4994745 0 -9.95768 -4.458206 -9.95768 -9.95768z" fill-rule="evenodd"/><path fill="#cfe2f3" d="m112.333336 46.24672l29.023613 0l0 -7.9133873l15.826782 15.826775l-15.826782 15.826771l0 -7.9133873l-29.023613 0z" fill-rule="evenodd"/><path stroke="#000000" stroke-width="1.0" stroke-linejoin="round" stroke-linecap="butt" d="m112.333336 46.24672l29.023613 0l0 -7.9133873l15.826782 15.826775l-15.826782 15.826771l0 -7.9133873l-29.023613 0z" fill-rule="evenodd"/><path fill="#93c47d" d="m162.68202 36.07049l0 0c0 -3.3061523 2.6801605 -5.986313 5.986313 -5.986313l0 0c1.5876617 0 3.1103058 0.63069725 4.232956 1.7533493c1.1226501 1.1226501 1.7533569 2.6452942 1.7533569 4.2329636l0 0c0 3.3061485 -2.6801758 5.986309 -5.986313 5.986309l0 0c-3.3061523 0 -5.986313 -2.6801605 -5.986313 -5.986309z" fill-rule="evenodd"/><path stroke="#000000" stroke-width="1.0" stroke-linejoin="round" stroke-linecap="butt" d="m162.68202 36.07049l0 0c0 -3.3061523 2.6801605 -5.986313 5.986313 -5.986313l0 0c1.5876617 0 3.1103058 0.63069725 4.232956 1.7533493c1.1226501 1.1226501 1.7533569 2.6452942 1.7533569 4.2329636l0 0c0 3.3061485 -2.6801758 5.986309 -5.986313 5.986309l0 0c-3.3061523 0 -5.986313 -2.6801605 -5.986313 -5.986309z" fill-rule="evenodd"/><path fill="#93c47d" d="m162.68202 51.70569l0 0c0 -3.3061485 2.6801605 -5.986309 5.986313 -5.986309l0 0c1.5876617 0 3.1103058 0.63069916 4.232956 1.7533493c1.1226501 1.1226501 1.7533569 2.6452942 1.7533569 4.2329597l0 0c0 3.3061485 -2.6801758 5.986313 -5.986313 5.986313l0 0c-3.3061523 0 -5.986313 -2.6801643 -5.986313 -5.986313z" fill-rule="evenodd"/><path stroke="#000000" stroke-width="1.0" stroke-linejoin="round" stroke-linecap="butt" d="m162.68202 51.70569l0 0c0 -3.3061485 2.6801605 -5.986309 5.986313 -5.986309l0 0c1.5876617 0 3.1103058 0.63069916 4.232956 1.7533493c1.1226501 1.1226501 1.7533569 2.6452942 1.7533569 4.2329597l0 0c0 3.3061485 -2.6801758 5.986313 -5.986313 5.986313l0 0c-3.3061523 0 -5.986313 -2.6801643 -5.986313 -5.986313z" fill-rule="evenodd"/><path fill="#93c47d" d="m162.68202 67.34089l0 0c0 -3.3061447 2.6801605 -5.986309 5.986313 -5.986309l0 0c1.5876617 0 3.1103058 0.63069534 4.232956 1.7533493c1.1226501 1.122654 1.7533569 2.6452904 1.7533569 4.2329597l0 0c0 3.3061523 -2.6801758 5.986313 -5.986313 5.986313l0 0c-3.3061523 0 -5.986313 -2.6801605 -5.986313 -5.986313z" fill-rule="evenodd"/><path stroke="#000000" stroke-width="1.0" stroke-linejoin="round" stroke-linecap="butt" d="m162.68202 67.34089l0 0c0 -3.3061447 2.6801605 -5.986309 5.986313 -5.986309l0 0c1.5876617 0 3.1103058 0.63069534 4.232956 1.7533493c1.1226501 1.122654 1.7533569 2.6452904 1.7533569 4.2329597l0 0c0 3.3061523 -2.6801758 5.986313 -5.986313 5.986313l0 0c-3.3061523 0 -5.986313 -2.6801605 -5.986313 -5.986313z" fill-rule="evenodd"/><path fill="#d9ead3" d="m186.13481 13.649943l0 0c0 -3.3061485 2.6801758 -5.9863114 5.986313 -5.9863114l0 0c1.587677 0 3.110321 0.6306987 4.232971 1.7533498c1.1226501 1.1226511 1.7533417 2.6452932 1.7533417 4.2329617l0 0c0 3.3061495 -2.6801605 5.986312 -5.986313 5.986312l0 0c-3.306137 0 -5.986313 -2.6801624 -5.986313 -5.986312z" fill-rule="evenodd"/><path stroke="#000000" stroke-width="1.0" stroke-linejoin="round" stroke-linecap="butt" d="m186.13481 13.649943l0 0c0 -3.3061485 2.6801758 -5.9863114 5.986313 -5.9863114l0 0c1.587677 0 3.110321 0.6306987 4.232971 1.7533498c1.1226501 1.1226511 1.7533417 2.6452932 1.7533417 4.2329617l0 0c0 3.3061495 -2.6801605 5.986312 -5.986313 5.986312l0 0c-3.306137 0 -5.986313 -2.6801624 -5.986313 -5.986312z" fill-rule="evenodd"/><path fill="#d9ead3" d="m186.13481 29.285143l0 0c0 -3.3061485 2.6801758 -5.986311 5.986313 -5.986311l0 0c1.587677 0 3.110321 0.63069916 4.232971 1.7533493c1.1226501 1.122652 1.7533417 2.6452942 1.7533417 4.2329617l0 0c0 3.3061504 -2.6801605 5.986311 -5.986313 5.986311l0 0c-3.306137 0 -5.986313 -2.6801605 -5.986313 -5.986311z" fill-rule="evenodd"/><path stroke="#000000" stroke-width="1.0" stroke-linejoin="round" stroke-linecap="butt" d="m186.13481 29.285143l0 0c0 -3.3061485 2.6801758 -5.986311 5.986313 -5.986311l0 0c1.587677 0 3.110321 0.63069916 4.232971 1.7533493c1.1226501 1.122652 1.7533417 2.6452942 1.7533417 4.2329617l0 0c0 3.3061504 -2.6801605 5.986311 -5.986313 5.986311l0 0c-3.306137 0 -5.986313 -2.6801605 -5.986313 -5.986311z" fill-rule="evenodd"/><path fill="#d9ead3" d="m186.13481 44.920345l0 0c0 -3.3061523 2.6801758 -5.986313 5.986313 -5.986313l0 0c1.587677 0 3.110321 0.63069916 4.232971 1.7533493c1.1226501 1.1226501 1.7533417 2.6452942 1.7533417 4.2329636l0 0c0 3.3061485 -2.6801605 5.986309 -5.986313 5.986309l0 0c-3.306137 0 -5.986313 -2.6801605 -5.986313 -5.986309z" fill-rule="evenodd"/><path stroke="#000000" stroke-width="1.0" stroke-linejoin="round" stroke-linecap="butt" d="m186.13481 44.920345l0 0c0 -3.3061523 2.6801758 -5.986313 5.986313 -5.986313l0 0c1.587677 0 3.110321 0.63069916 4.232971 1.7533493c1.1226501 1.1226501 1.7533417 2.6452942 1.7533417 4.2329636l0 0c0 3.3061485 -2.6801605 5.986309 -5.986313 5.986309l0 0c-3.306137 0 -5.986313 -2.6801605 -5.986313 -5.986309z" fill-rule="evenodd"/><path fill="#d9ead3" d="m186.13481 60.555542l0 0c0 -3.3061485 2.6801758 -5.986309 5.986313 -5.986309l0 0c1.587677 0 3.110321 0.63069916 4.232971 1.7533493c1.1226501 1.1226501 1.7533417 2.6452942 1.7533417 4.2329597l0 0c0 3.3061485 -2.6801605 5.986313 -5.986313 5.986313l0 0c-3.306137 0 -5.986313 -2.6801643 -5.986313 -5.986313z" fill-rule="evenodd"/><path stroke="#000000" stroke-width="1.0" stroke-linejoin="round" stroke-linecap="butt" d="m186.13481 60.555542l0 0c0 -3.3061485 2.6801758 -5.986309 5.986313 -5.986309l0 0c1.587677 0 3.110321 0.63069916 4.232971 1.7533493c1.1226501 1.1226501 1.7533417 2.6452942 1.7533417 4.2329597l0 0c0 3.3061485 -2.6801605 5.986313 -5.986313 5.986313l0 0c-3.306137 0 -5.986313 -2.6801643 -5.986313 -5.986313z" fill-rule="evenodd"/><path fill="#d9ead3" d="m186.13481 76.19074l0 0c0 -3.3061447 2.6801758 -5.986313 5.986313 -5.986313l0 0c1.587677 0 3.110321 0.63069916 4.232971 1.7533493c1.1226501 1.1226578 1.7533417 2.6452942 1.7533417 4.2329636l0 0c0 3.3061523 -2.6801605 5.986313 -5.986313 5.986313l0 0c-3.306137 0 -5.986313 -2.6801605 -5.986313 -5.986313z" fill-rule="evenodd"/><path stroke="#000000" stroke-width="1.0" stroke-linejoin="round" stroke-linecap="butt" d="m186.13481 76.19074l0 0c0 -3.3061447 2.6801758 -5.986313 5.986313 -5.986313l0 0c1.587677 0 3.110321 0.63069916 4.232971 1.7533493c1.1226501 1.1226578 1.7533417 2.6452942 1.7533417 4.2329636l0 0c0 3.3061523 -2.6801605 5.986313 -5.986313 5.986313l0 0c-3.306137 0 -5.986313 -2.6801605 -5.986313 -5.986313z" fill-rule="evenodd"/><path fill="#d9ead3" d="m186.13481 91.82594l0 0c0 -3.3061447 2.6801758 -5.986313 5.986313 -5.986313l0 0c1.587677 0 3.110321 0.63069916 4.232971 1.7533493c1.1226501 1.1226501 1.7533417 2.6452942 1.7533417 4.2329636l0 0c0 3.3061523 -2.6801605 5.986313 -5.986313 5.986313l0 0c-3.306137 0 -5.986313 -2.6801605 -5.986313 -5.986313z" fill-rule="evenodd"/><path stroke="#000000" stroke-width="1.0" stroke-linejoin="round" stroke-linecap="butt" d="m186.13481 91.82594l0 0c0 -3.3061447 2.6801758 -5.986313 5.986313 -5.986313l0 0c1.587677 0 3.110321 0.63069916 4.232971 1.7533493c1.1226501 1.1226501 1.7533417 2.6452942 1.7533417 4.2329636l0 0c0 3.3061523 -2.6801605 5.986313 -5.986313 5.986313l0 0c-3.306137 0 -5.986313 -2.6801605 -5.986313 -5.986313z" fill-rule="evenodd"/><path fill="#d9ead3" d="m209.58762 13.649943l0 0c0 -3.3061485 2.6801605 -5.9863114 5.986313 -5.9863114l0 0c1.587677 0 3.1103058 0.6306987 4.232956 1.7533498c1.1226654 1.1226511 1.7533569 2.6452932 1.7533569 4.2329617l0 0c0 3.3061495 -2.6801605 5.986312 -5.986313 5.986312l0 0c-3.3061523 0 -5.986313 -2.6801624 -5.986313 -5.986312z" fill-rule="evenodd"/><path stroke="#000000" stroke-width="1.0" stroke-linejoin="round" stroke-linecap="butt" d="m209.58762 13.649943l0 0c0 -3.3061485 2.6801605 -5.9863114 5.986313 -5.9863114l0 0c1.587677 0 3.1103058 0.6306987 4.232956 1.7533498c1.1226654 1.1226511 1.7533569 2.6452932 1.7533569 4.2329617l0 0c0 3.3061495 -2.6801605 5.986312 -5.986313 5.986312l0 0c-3.3061523 0 -5.986313 -2.6801624 -5.986313 -5.986312z" fill-rule="evenodd"/><path fill="#d9ead3" d="m209.58762 29.285143l0 0c0 -3.3061485 2.6801605 -5.986311 5.986313 -5.986311l0 0c1.587677 0 3.1103058 0.63069916 4.232956 1.7533493c1.1226654 1.122652 1.7533569 2.6452942 1.7533569 4.2329617l0 0c0 3.3061504 -2.6801605 5.986311 -5.986313 5.986311l0 0c-3.3061523 0 -5.986313 -2.6801605 -5.986313 -5.986311z" fill-rule="evenodd"/><path stroke="#000000" stroke-width="1.0" stroke-linejoin="round" stroke-linecap="butt" d="m209.58762 29.285143l0 0c0 -3.3061485 2.6801605 -5.986311 5.986313 -5.986311l0 0c1.587677 0 3.1103058 0.63069916 4.232956 1.7533493c1.1226654 1.122652 1.7533569 2.6452942 1.7533569 4.2329617l0 0c0 3.3061504 -2.6801605 5.986311 -5.986313 5.986311l0 0c-3.3061523 0 -5.986313 -2.6801605 -5.986313 -5.986311z" fill-rule="evenodd"/><path fill="#d9ead3" d="m209.58762 44.920345l0 0c0 -3.3061523 2.6801605 -5.986313 5.986313 -5.986313l0 0c1.587677 0 3.1103058 0.63069916 4.232956 1.7533493c1.1226654 1.1226501 1.7533569 2.6452942 1.7533569 4.2329636l0 0c0 3.3061485 -2.6801605 5.986309 -5.986313 5.986309l0 0c-3.3061523 0 -5.986313 -2.6801605 -5.986313 -5.986309z" fill-rule="evenodd"/><path stroke="#000000" stroke-width="1.0" stroke-linejoin="round" stroke-linecap="butt" d="m209.58762 44.920345l0 0c0 -3.3061523 2.6801605 -5.986313 5.986313 -5.986313l0 0c1.587677 0 3.1103058 0.63069916 4.232956 1.7533493c1.1226654 1.1226501 1.7533569 2.6452942 1.7533569 4.2329636l0 0c0 3.3061485 -2.6801605 5.986309 -5.986313 5.986309l0 0c-3.3061523 0 -5.986313 -2.6801605 -5.986313 -5.986309z" fill-rule="evenodd"/><path fill="#d9ead3" d="m209.58762 60.555542l0 0c0 -3.3061485 2.6801605 -5.986309 5.986313 -5.986309l0 0c1.587677 0 3.1103058 0.63069916 4.232956 1.7533493c1.1226654 1.1226501 1.7533569 2.6452942 1.7533569 4.2329597l0 0c0 3.3061485 -2.6801605 5.986313 -5.986313 5.986313l0 0c-3.3061523 0 -5.986313 -2.6801643 -5.986313 -5.986313z" fill-rule="evenodd"/><path stroke="#000000" stroke-width="1.0" stroke-linejoin="round" stroke-linecap="butt" d="m209.58762 60.555542l0 0c0 -3.3061485 2.6801605 -5.986309 5.986313 -5.986309l0 0c1.587677 0 3.1103058 0.63069916 4.232956 1.7533493c1.1226654 1.1226501 1.7533569 2.6452942 1.7533569 4.2329597l0 0c0 3.3061485 -2.6801605 5.986313 -5.986313 5.986313l0 0c-3.3061523 0 -5.986313 -2.6801643 -5.986313 -5.986313z" fill-rule="evenodd"/><path fill="#d9ead3" d="m209.58762 76.19074l0 0c0 -3.3061447 2.6801605 -5.986313 5.986313 -5.986313l0 0c1.587677 0 3.1103058 0.63069916 4.232956 1.7533493c1.1226654 1.1226578 1.7533569 2.6452942 1.7533569 4.2329636l0 0c0 3.3061523 -2.6801605 5.986313 -5.986313 5.986313l0 0c-3.3061523 0 -5.986313 -2.6801605 -5.986313 -5.986313z" fill-rule="evenodd"/><path stroke="#000000" stroke-width="1.0" stroke-linejoin="round" stroke-linecap="butt" d="m209.58762 76.19074l0 0c0 -3.3061447 2.6801605 -5.986313 5.986313 -5.986313l0 0c1.587677 0 3.1103058 0.63069916 4.232956 1.7533493c1.1226654 1.1226578 1.7533569 2.6452942 1.7533569 4.2329636l0 0c0 3.3061523 -2.6801605 5.986313 -5.986313 5.986313l0 0c-3.3061523 0 -5.986313 -2.6801605 -5.986313 -5.986313z" fill-rule="evenodd"/><path fill="#d9ead3" d="m209.58762 91.82594l0 0c0 -3.3061447 2.6801605 -5.986313 5.986313 -5.986313l0 0c1.587677 0 3.1103058 0.63069916 4.232956 1.7533493c1.1226654 1.1226501 1.7533569 2.6452942 1.7533569 4.2329636l0 0c0 3.3061523 -2.6801605 5.986313 -5.986313 5.986313l0 0c-3.3061523 0 -5.986313 -2.6801605 -5.986313 -5.986313z" fill-rule="evenodd"/><path stroke="#000000" stroke-width="1.0" stroke-linejoin="round" stroke-linecap="butt" d="m209.58762 91.82594l0 0c0 -3.3061447 2.6801605 -5.986313 5.986313 -5.986313l0 0c1.587677 0 3.1103058 0.63069916 4.232956 1.7533493c1.1226654 1.1226501 1.7533569 2.6452942 1.7533569 4.2329636l0 0c0 3.3061523 -2.6801605 5.986313 -5.986313 5.986313l0 0c-3.3061523 0 -5.986313 -2.6801605 -5.986313 -5.986313z" fill-rule="evenodd"/><path fill="#ffd966" d="m233.04042 45.264427l0 0c0 -3.3061485 2.6801605 -5.986309 5.986313 -5.986309l0 0c1.5876617 0 3.1103058 0.63069534 4.232956 1.7533493c1.1226501 1.1226501 1.7533569 2.6452904 1.7533569 4.2329597l0 0c0 3.3061485 -2.6801605 5.986313 -5.986313 5.986313l0 0c-3.3061523 0 -5.986313 -2.6801643 -5.986313 -5.986313z" fill-rule="evenodd"/><path stroke="#000000" stroke-width="1.0" stroke-linejoin="round" stroke-linecap="butt" d="m233.04042 45.264427l0 0c0 -3.3061485 2.6801605 -5.986309 5.986313 -5.986309l0 0c1.5876617 0 3.1103058 0.63069534 4.232956 1.7533493c1.1226501 1.1226501 1.7533569 2.6452904 1.7533569 4.2329597l0 0c0 3.3061485 -2.6801605 5.986313 -5.986313 5.986313l0 0c-3.3061523 0 -5.986313 -2.6801643 -5.986313 -5.986313z" fill-rule="evenodd"/><path fill="#ffd966" d="m233.04042 60.899628l0 0c0 -3.3061485 2.6801605 -5.986313 5.986313 -5.986313l0 0c1.5876617 0 3.1103058 0.63069916 4.232956 1.7533531c1.1226501 1.1226501 1.7533569 2.6452904 1.7533569 4.2329597l0 0c0 3.3061523 -2.6801605 5.986313 -5.986313 5.986313l0 0c-3.3061523 0 -5.986313 -2.6801605 -5.986313 -5.986313z" fill-rule="evenodd"/><path stroke="#000000" stroke-width="1.0" stroke-linejoin="round" stroke-linecap="butt" d="m233.04042 60.899628l0 0c0 -3.3061485 2.6801605 -5.986313 5.986313 -5.986313l0 0c1.5876617 0 3.1103058 0.63069916 4.232956 1.7533531c1.1226501 1.1226501 1.7533569 2.6452904 1.7533569 4.2329597l0 0c0 3.3061523 -2.6801605 5.986313 -5.986313 5.986313l0 0c-3.3061523 0 -5.986313 -2.6801605 -5.986313 -5.986313z" fill-rule="evenodd"/><path fill="#000000" fill-opacity="0.0" d="m174.65465 36.07049l11.480164 -22.421741" fill-rule="evenodd"/><path stroke="#000000" stroke-width="1.0" stroke-linejoin="round" stroke-linecap="butt" d="m174.65465 36.07049l11.480164 -22.421741" fill-rule="evenodd"/><path fill="#000000" fill-opacity="0.0" d="m174.65465 36.07049l11.480164 -6.786541" fill-rule="evenodd"/><path stroke="#000000" stroke-width="1.0" stroke-linejoin="round" stroke-linecap="butt" d="m174.65465 36.07049l11.480164 -6.786541" fill-rule="evenodd"/><path fill="#000000" fill-opacity="0.0" d="m174.65465 36.07049l11.480164 8.8486595" fill-rule="evenodd"/><path stroke="#000000" stroke-width="1.0" stroke-linejoin="round" stroke-linecap="butt" d="m174.65465 36.07049l11.480164 8.8486595" fill-rule="evenodd"/><path fill="#000000" fill-opacity="0.0" d="m174.65465 36.07049l11.480164 24.48386" fill-rule="evenodd"/><path stroke="#000000" stroke-width="1.0" stroke-linejoin="round" stroke-linecap="butt" d="m174.65465 36.07049l11.480164 24.48386" fill-rule="evenodd"/><path fill="#000000" fill-opacity="0.0" d="m174.65465 36.07049l11.480164 40.11906" fill-rule="evenodd"/><path stroke="#000000" stroke-width="1.0" stroke-linejoin="round" stroke-linecap="butt" d="m174.65465 36.07049l11.480164 40.11906" fill-rule="evenodd"/><path fill="#000000" fill-opacity="0.0" d="m174.65465 36.07049l11.480164 55.75426" fill-rule="evenodd"/><path stroke="#000000" stroke-width="1.0" stroke-linejoin="round" stroke-linecap="butt" d="m174.65465 36.07049l11.480164 55.75426" fill-rule="evenodd"/><path fill="#000000" fill-opacity="0.0" d="m174.65465 51.70569l11.480164 -38.05694" fill-rule="evenodd"/><path stroke="#000000" stroke-width="1.0" stroke-linejoin="round" stroke-linecap="butt" d="m174.65465 51.70569l11.480164 -38.05694" fill-rule="evenodd"/><path fill="#000000" fill-opacity="0.0" d="m174.65465 51.70569l11.480164 -22.421738" fill-rule="evenodd"/><path stroke="#000000" stroke-width="1.0" stroke-linejoin="round" stroke-linecap="butt" d="m174.65465 51.70569l11.480164 -22.421738" fill-rule="evenodd"/><path fill="#000000" fill-opacity="0.0" d="m174.65465 51.70569l11.480164 -6.786537" fill-rule="evenodd"/><path stroke="#000000" stroke-width="1.0" stroke-linejoin="round" stroke-linecap="butt" d="m174.65465 51.70569l11.480164 -6.786537" fill-rule="evenodd"/><path fill="#000000" fill-opacity="0.0" d="m174.65465 51.70569l11.480164 8.848663" fill-rule="evenodd"/><path stroke="#000000" stroke-width="1.0" stroke-linejoin="round" stroke-linecap="butt" d="m174.65465 51.70569l11.480164 8.848663" fill-rule="evenodd"/><path fill="#000000" fill-opacity="0.0" d="m174.65465 51.70569l11.480164 24.483864" fill-rule="evenodd"/><path stroke="#000000" stroke-width="1.0" stroke-linejoin="round" stroke-linecap="butt" d="m174.65465 51.70569l11.480164 24.483864" fill-rule="evenodd"/><path fill="#000000" fill-opacity="0.0" d="m174.65465 51.70569l11.480164 40.119064" fill-rule="evenodd"/><path stroke="#000000" stroke-width="1.0" stroke-linejoin="round" stroke-linecap="butt" d="m174.65465 51.70569l11.480164 40.119064" fill-rule="evenodd"/><path fill="#000000" fill-opacity="0.0" d="m174.65465 67.34089l11.480164 -53.69214" fill-rule="evenodd"/><path stroke="#000000" stroke-width="1.0" stroke-linejoin="round" stroke-linecap="butt" d="m174.65465 67.34089l11.480164 -53.69214" fill-rule="evenodd"/><path fill="#000000" fill-opacity="0.0" d="m174.65465 67.34089l11.480164 -38.05694" fill-rule="evenodd"/><path stroke="#000000" stroke-width="1.0" stroke-linejoin="round" stroke-linecap="butt" d="m174.65465 67.34089l11.480164 -38.05694" fill-rule="evenodd"/><path fill="#000000" fill-opacity="0.0" d="m174.65465 67.34089l11.480164 -22.421738" fill-rule="evenodd"/><path stroke="#000000" stroke-width="1.0" stroke-linejoin="round" stroke-linecap="butt" d="m174.65465 67.34089l11.480164 -22.421738" fill-rule="evenodd"/><path fill="#000000" fill-opacity="0.0" d="m174.65465 67.34089l11.480164 -6.786537" fill-rule="evenodd"/><path stroke="#000000" stroke-width="1.0" stroke-linejoin="round" stroke-linecap="butt" d="m174.65465 67.34089l11.480164 -6.786537" fill-rule="evenodd"/><path fill="#000000" fill-opacity="0.0" d="m174.65465 67.34089l11.480164 8.848663" fill-rule="evenodd"/><path stroke="#000000" stroke-width="1.0" stroke-linejoin="round" stroke-linecap="butt" d="m174.65465 67.34089l11.480164 8.848663" fill-rule="evenodd"/><path fill="#000000" fill-opacity="0.0" d="m174.65465 67.34089l11.480164 24.483864" fill-rule="evenodd"/><path stroke="#000000" stroke-width="1.0" stroke-linejoin="round" stroke-linecap="butt" d="m174.65465 67.34089l11.480164 24.483864" fill-rule="evenodd"/><path fill="#000000" fill-opacity="0.0" d="m198.10744 13.649943l11.480179 0" fill-rule="evenodd"/><path stroke="#000000" stroke-width="1.0" stroke-linejoin="round" stroke-linecap="butt" d="m198.10744 13.649943l11.480179 0" fill-rule="evenodd"/><path fill="#000000" fill-opacity="0.0" d="m198.10744 13.649943l11.480179 15.6352" fill-rule="evenodd"/><path stroke="#000000" stroke-width="1.0" stroke-linejoin="round" stroke-linecap="butt" d="m198.10744 13.649943l11.480179 15.6352" fill-rule="evenodd"/><path fill="#000000" fill-opacity="0.0" d="m198.10744 13.649943l11.480179 31.270401" fill-rule="evenodd"/><path stroke="#000000" stroke-width="1.0" stroke-linejoin="round" stroke-linecap="butt" d="m198.10744 13.649943l11.480179 31.270401" fill-rule="evenodd"/><path fill="#000000" fill-opacity="0.0" d="m198.10744 13.649943l11.480179 46.905598" fill-rule="evenodd"/><path stroke="#000000" stroke-width="1.0" stroke-linejoin="round" stroke-linecap="butt" d="m198.10744 13.649943l11.480179 46.905598" fill-rule="evenodd"/><path fill="#000000" fill-opacity="0.0" d="m198.10744 13.649943l11.480179 62.5408" fill-rule="evenodd"/><path stroke="#000000" stroke-width="1.0" stroke-linejoin="round" stroke-linecap="butt" d="m198.10744 13.649943l11.480179 62.5408" fill-rule="evenodd"/><path fill="#000000" fill-opacity="0.0" d="m198.10744 13.649943l11.480179 78.176" fill-rule="evenodd"/><path stroke="#000000" stroke-width="1.0" stroke-linejoin="round" stroke-linecap="butt" d="m198.10744 13.649943l11.480179 78.176" fill-rule="evenodd"/><path fill="#000000" fill-opacity="0.0" d="m198.10744 29.285143l11.480179 -15.6352" fill-rule="evenodd"/><path stroke="#000000" stroke-width="1.0" stroke-linejoin="round" stroke-linecap="butt" d="m198.10744 29.285143l11.480179 -15.6352" fill-rule="evenodd"/><path fill="#000000" fill-opacity="0.0" d="m198.10744 29.285143l11.480179 0" fill-rule="evenodd"/><path stroke="#000000" stroke-width="1.0" stroke-linejoin="round" stroke-linecap="butt" d="m198.10744 29.285143l11.480179 0" fill-rule="evenodd"/><path fill="#000000" fill-opacity="0.0" d="m198.10744 29.285143l11.480179 15.635202" fill-rule="evenodd"/><path stroke="#000000" stroke-width="1.0" stroke-linejoin="round" stroke-linecap="butt" d="m198.10744 29.285143l11.480179 15.635202" fill-rule="evenodd"/><path fill="#000000" fill-opacity="0.0" d="m198.10744 29.285143l11.480179 31.2704" fill-rule="evenodd"/><path stroke="#000000" stroke-width="1.0" stroke-linejoin="round" stroke-linecap="butt" d="m198.10744 29.285143l11.480179 31.2704" fill-rule="evenodd"/><path fill="#000000" fill-opacity="0.0" d="m198.10744 29.285143l11.480179 46.9056" fill-rule="evenodd"/><path stroke="#000000" stroke-width="1.0" stroke-linejoin="round" stroke-linecap="butt" d="m198.10744 29.285143l11.480179 46.9056" fill-rule="evenodd"/><path fill="#000000" fill-opacity="0.0" d="m198.10744 29.285143l11.480179 62.540802" fill-rule="evenodd"/><path stroke="#000000" stroke-width="1.0" stroke-linejoin="round" stroke-linecap="butt" d="m198.10744 29.285143l11.480179 62.540802" fill-rule="evenodd"/><path fill="#000000" fill-opacity="0.0" d="m198.10744 44.920345l11.480179 -31.270401" fill-rule="evenodd"/><path stroke="#000000" stroke-width="1.0" stroke-linejoin="round" stroke-linecap="butt" d="m198.10744 44.920345l11.480179 -31.270401" fill-rule="evenodd"/><path fill="#000000" fill-opacity="0.0" d="m198.10744 44.920345l11.480179 -15.635202" fill-rule="evenodd"/><path stroke="#000000" stroke-width="1.0" stroke-linejoin="round" stroke-linecap="butt" d="m198.10744 44.920345l11.480179 -15.635202" fill-rule="evenodd"/><path fill="#000000" fill-opacity="0.0" d="m198.10744 44.920345l11.480179 0" fill-rule="evenodd"/><path stroke="#000000" stroke-width="1.0" stroke-linejoin="round" stroke-linecap="butt" d="m198.10744 44.920345l11.480179 0" fill-rule="evenodd"/><path fill="#000000" fill-opacity="0.0" d="m198.10744 44.920345l11.480179 15.635197" fill-rule="evenodd"/><path stroke="#000000" stroke-width="1.0" stroke-linejoin="round" stroke-linecap="butt" d="m198.10744 44.920345l11.480179 15.635197" fill-rule="evenodd"/><path fill="#000000" fill-opacity="0.0" d="m198.10744 44.920345l11.480179 31.270397" fill-rule="evenodd"/><path stroke="#000000" stroke-width="1.0" stroke-linejoin="round" stroke-linecap="butt" d="m198.10744 44.920345l11.480179 31.270397" fill-rule="evenodd"/><path fill="#000000" fill-opacity="0.0" d="m198.10744 44.920345l11.480179 46.905598" fill-rule="evenodd"/><path stroke="#000000" stroke-width="1.0" stroke-linejoin="round" stroke-linecap="butt" d="m198.10744 44.920345l11.480179 46.905598" fill-rule="evenodd"/><path fill="#000000" fill-opacity="0.0" d="m198.10744 60.555542l11.480179 31.270401" fill-rule="evenodd"/><path stroke="#000000" stroke-width="1.0" stroke-linejoin="round" stroke-linecap="butt" d="m198.10744 60.555542l11.480179 31.270401" fill-rule="evenodd"/><path fill="#000000" fill-opacity="0.0" d="m198.10744 60.555542l11.480179 15.6352005" fill-rule="evenodd"/><path stroke="#000000" stroke-width="1.0" stroke-linejoin="round" stroke-linecap="butt" d="m198.10744 60.555542l11.480179 15.6352005" fill-rule="evenodd"/><path fill="#000000" fill-opacity="0.0" d="m198.10744 60.555542l11.480179 0" fill-rule="evenodd"/><path stroke="#000000" stroke-width="1.0" stroke-linejoin="round" stroke-linecap="butt" d="m198.10744 60.555542l11.480179 0" fill-rule="evenodd"/><path fill="#000000" fill-opacity="0.0" d="m198.10744 60.555542l11.480179 -15.635197" fill-rule="evenodd"/><path stroke="#000000" stroke-width="1.0" stroke-linejoin="round" stroke-linecap="butt" d="m198.10744 60.555542l11.480179 -15.635197" fill-rule="evenodd"/><path fill="#000000" fill-opacity="0.0" d="m198.10744 60.555542l11.480179 -31.2704" fill-rule="evenodd"/><path stroke="#000000" stroke-width="1.0" stroke-linejoin="round" stroke-linecap="butt" d="m198.10744 60.555542l11.480179 -31.2704" fill-rule="evenodd"/><path fill="#000000" fill-opacity="0.0" d="m198.10744 60.555542l11.480179 -46.905598" fill-rule="evenodd"/><path stroke="#000000" stroke-width="1.0" stroke-linejoin="round" stroke-linecap="butt" d="m198.10744 60.555542l11.480179 -46.905598" fill-rule="evenodd"/><path fill="#000000" fill-opacity="0.0" d="m198.10744 76.19074l11.480179 15.6352005" fill-rule="evenodd"/><path stroke="#000000" stroke-width="1.0" stroke-linejoin="round" stroke-linecap="butt" d="m198.10744 76.19074l11.480179 15.6352005" fill-rule="evenodd"/><path fill="#000000" fill-opacity="0.0" d="m198.10744 76.19074l11.480179 0" fill-rule="evenodd"/><path stroke="#000000" stroke-width="1.0" stroke-linejoin="round" stroke-linecap="butt" d="m198.10744 76.19074l11.480179 0" fill-rule="evenodd"/><path fill="#000000" fill-opacity="0.0" d="m198.10744 76.19074l11.480179 -15.6352005" fill-rule="evenodd"/><path stroke="#000000" stroke-width="1.0" stroke-linejoin="round" stroke-linecap="butt" d="m198.10744 76.19074l11.480179 -15.6352005" fill-rule="evenodd"/><path fill="#000000" fill-opacity="0.0" d="m198.10744 76.19074l11.480179 -31.270397" fill-rule="evenodd"/><path stroke="#000000" stroke-width="1.0" stroke-linejoin="round" stroke-linecap="butt" d="m198.10744 76.19074l11.480179 -31.270397" fill-rule="evenodd"/><path fill="#000000" fill-opacity="0.0" d="m198.10744 76.19074l11.480179 -46.9056" fill-rule="evenodd"/><path stroke="#000000" stroke-width="1.0" stroke-linejoin="round" stroke-linecap="butt" d="m198.10744 76.19074l11.480179 -46.9056" fill-rule="evenodd"/><path fill="#000000" fill-opacity="0.0" d="m198.10744 76.19074l11.480179 -62.5408" fill-rule="evenodd"/><path stroke="#000000" stroke-width="1.0" stroke-linejoin="round" stroke-linecap="butt" d="m198.10744 76.19074l11.480179 -62.5408" fill-rule="evenodd"/><path fill="#000000" fill-opacity="0.0" d="m198.10744 91.82594l11.480179 0" fill-rule="evenodd"/><path stroke="#000000" stroke-width="1.0" stroke-linejoin="round" stroke-linecap="butt" d="m198.10744 91.82594l11.480179 0" fill-rule="evenodd"/><path fill="#000000" fill-opacity="0.0" d="m198.10744 91.82594l11.480179 -15.6352005" fill-rule="evenodd"/><path stroke="#000000" stroke-width="1.0" stroke-linejoin="round" stroke-linecap="butt" d="m198.10744 91.82594l11.480179 -15.6352005" fill-rule="evenodd"/><path fill="#000000" fill-opacity="0.0" d="m198.10744 91.82594l11.480179 -31.270401" fill-rule="evenodd"/><path stroke="#000000" stroke-width="1.0" stroke-linejoin="round" stroke-linecap="butt" d="m198.10744 91.82594l11.480179 -31.270401" fill-rule="evenodd"/><path fill="#000000" fill-opacity="0.0" d="m198.10744 91.82594l11.480179 -46.905598" fill-rule="evenodd"/><path stroke="#000000" stroke-width="1.0" stroke-linejoin="round" stroke-linecap="butt" d="m198.10744 91.82594l11.480179 -46.905598" fill-rule="evenodd"/><path fill="#000000" fill-opacity="0.0" d="m198.10744 91.82594l11.480179 -62.540802" fill-rule="evenodd"/><path stroke="#000000" stroke-width="1.0" stroke-linejoin="round" stroke-linecap="butt" d="m198.10744 91.82594l11.480179 -62.540802" fill-rule="evenodd"/><path fill="#000000" fill-opacity="0.0" d="m198.10744 91.82594l11.480179 -78.176" fill-rule="evenodd"/><path stroke="#000000" stroke-width="1.0" stroke-linejoin="round" stroke-linecap="butt" d="m198.10744 91.82594l11.480179 -78.176" fill-rule="evenodd"/><path fill="#000000" fill-opacity="0.0" d="m221.56024 13.649943l11.480179 31.608955" fill-rule="evenodd"/><path stroke="#000000" stroke-width="1.0" stroke-linejoin="round" stroke-linecap="butt" d="m221.56024 13.649943l11.480179 31.608955" fill-rule="evenodd"/><path fill="#000000" fill-opacity="0.0" d="m221.56024 29.285143l11.480179 15.973757" fill-rule="evenodd"/><path stroke="#000000" stroke-width="1.0" stroke-linejoin="round" stroke-linecap="butt" d="m221.56024 29.285143l11.480179 15.973757" fill-rule="evenodd"/><path fill="#000000" fill-opacity="0.0" d="m221.56024 44.920345l11.480179 0.33855438" fill-rule="evenodd"/><path stroke="#000000" stroke-width="1.0" stroke-linejoin="round" stroke-linecap="butt" d="m221.56024 44.920345l11.480179 0.33855438" fill-rule="evenodd"/><path fill="#000000" fill-opacity="0.0" d="m221.56024 60.555542l11.480179 -15.296642" fill-rule="evenodd"/><path stroke="#000000" stroke-width="1.0" stroke-linejoin="round" stroke-linecap="butt" d="m221.56024 60.555542l11.480179 -15.296642" fill-rule="evenodd"/><path fill="#000000" fill-opacity="0.0" d="m221.56024 76.19074l11.480179 -30.931843" fill-rule="evenodd"/><path stroke="#000000" stroke-width="1.0" stroke-linejoin="round" stroke-linecap="butt" d="m221.56024 76.19074l11.480179 -30.931843" fill-rule="evenodd"/><path fill="#000000" fill-opacity="0.0" d="m221.56024 91.82594l11.480179 -46.567043" fill-rule="evenodd"/><path stroke="#000000" stroke-width="1.0" stroke-linejoin="round" stroke-linecap="butt" d="m221.56024 91.82594l11.480179 -46.567043" fill-rule="evenodd"/><path fill="#000000" fill-opacity="0.0" d="m221.56024 13.649943l11.480179 47.244156" fill-rule="evenodd"/><path stroke="#000000" stroke-width="1.0" stroke-linejoin="round" stroke-linecap="butt" d="m221.56024 13.649943l11.480179 47.244156" fill-rule="evenodd"/><path fill="#000000" fill-opacity="0.0" d="m221.56024 29.285143l11.480179 31.608957" fill-rule="evenodd"/><path stroke="#000000" stroke-width="1.0" stroke-linejoin="round" stroke-linecap="butt" d="m221.56024 29.285143l11.480179 31.608957" fill-rule="evenodd"/><path fill="#000000" fill-opacity="0.0" d="m221.56024 44.920345l11.480179 15.973755" fill-rule="evenodd"/><path stroke="#000000" stroke-width="1.0" stroke-linejoin="round" stroke-linecap="butt" d="m221.56024 44.920345l11.480179 15.973755" fill-rule="evenodd"/><path fill="#000000" fill-opacity="0.0" d="m221.56024 60.555542l11.480179 0.3385582" fill-rule="evenodd"/><path stroke="#000000" stroke-width="1.0" stroke-linejoin="round" stroke-linecap="butt" d="m221.56024 60.555542l11.480179 0.3385582" fill-rule="evenodd"/><path fill="#000000" fill-opacity="0.0" d="m221.56024 76.19074l11.480179 -15.296642" fill-rule="evenodd"/><path stroke="#000000" stroke-width="1.0" stroke-linejoin="round" stroke-linecap="butt" d="m221.56024 76.19074l11.480179 -15.296642" fill-rule="evenodd"/><path fill="#000000" fill-opacity="0.0" d="m221.56024 91.82594l11.480179 -30.931843" fill-rule="evenodd"/><path stroke="#000000" stroke-width="1.0" stroke-linejoin="round" stroke-linecap="butt" d="m221.56024 91.82594l11.480179 -30.931843" fill-rule="evenodd"/><path fill="#000000" fill-opacity="0.0" d="m21.6899 82.38858c-2.6902885 0 -4.8711967 -2.1809082 -4.8711967 -4.871193l0 -19.485958c0 -2.6902847 -2.1809092 -4.871193 -4.871196 -4.871193c2.6902866 0 4.871196 -2.180912 4.871196 -4.8711967l0 -19.485954l0 0c0 -2.6902885 2.1809082 -4.8711967 4.8711967 -4.8711967l73.33411 0c1.2919235 0 2.5309296 0.5132141 3.444458 1.4267406c0.91352844 0.91352654 1.4267426 2.1525345 1.4267426 3.444456l0 19.485954c0 2.6902847 2.1809082 4.8711967 4.871193 4.8711967c-2.6902847 0 -4.871193 2.1809082 -4.871193 4.871193l0 19.485958c0 2.6902847 -2.1809082 4.871193 -4.8712006 4.871193z" fill-rule="evenodd"/><path fill="#000000" fill-opacity="0.0" d="m21.6899 82.38858c-2.6902885 0 -4.8711967 -2.1809082 -4.8711967 -4.871193l0 -19.485958c0 -2.6902847 -2.1809092 -4.871193 -4.871196 -4.871193c2.6902866 0 4.871196 -2.180912 4.871196 -4.8711967l0 -19.485954l0 0c0 -2.6902885 2.1809082 -4.8711967 4.8711967 -4.8711967m73.33411 0c1.2919235 0 2.5309296 0.5132141 3.444458 1.4267406c0.91352844 0.91352654 1.4267426 2.1525345 1.4267426 3.444456l0 19.485954c0 2.6902847 2.1809082 4.8711967 4.871193 4.8711967c-2.6902847 0 -4.871193 2.1809082 -4.871193 4.871193l0 19.485958c0 2.6902847 -2.1809082 4.871193 -4.8712006 4.871193" fill-rule="evenodd"/><path stroke="#000000" stroke-width="2.0" stroke-linejoin="round" stroke-linecap="butt" d="m21.6899 82.38858c-2.6902885 0 -4.8711967 -2.1809082 -4.8711967 -4.871193l0 -19.485958c0 -2.6902847 -2.1809092 -4.871193 -4.871196 -4.871193c2.6902866 0 4.871196 -2.180912 4.871196 -4.8711967l0 -19.485954l0 0c0 -2.6902885 2.1809082 -4.8711967 4.8711967 -4.8711967m73.33411 0c1.2919235 0 2.5309296 0.5132141 3.444458 1.4267406c0.91352844 0.91352654 1.4267426 2.1525345 1.4267426 3.444456l0 19.485954c0 2.6902847 2.1809082 4.8711967 4.871193 4.8711967c-2.6902847 0 -4.871193 2.1809082 -4.871193 4.871193l0 19.485958c0 2.6902847 -2.1809082 4.871193 -4.8712006 4.871193" fill-rule="evenodd"/><path fill="#000000" d="m29.401678 32.924583l0 1.625l-1.5 0l0 -1.28125q0 -1.046875 0.25 -1.515625q0.328125 -0.625 1.03125 -0.953125l0.34375 0.546875q-0.421875 0.1875 -0.625 0.546875q-0.203125 0.34375 -0.234375 1.03125l0.734375 0zm2.421875 0l0 1.625l-1.5 0l0 -1.28125q0 -1.046875 0.25 -1.515625q0.328125 -0.625 1.03125 -0.953125l0.34375 0.546875q-0.421875 0.1875 -0.625 0.546875q-0.203125 0.34375 -0.234375 1.03125l0.734375 0zm7.218748 8.5q-0.78125 0.671875 -1.5 0.953125q-0.71875 0.265625 -1.546875 0.265625q-1.375 0 -2.109375 -0.671875q-0.734375 -0.671875 -0.734375 -1.703125q0 -0.609375 0.28125 -1.109375q0.28125 -0.515625 0.71875 -0.8125q0.453125 -0.3125 1.015625 -0.46875q0.421875 -0.109375 1.25 -0.203125q1.703125 -0.203125 2.515625 -0.484375q0 -0.296875 0 -0.375q0 -0.859375 -0.390625 -1.203125q-0.546875 -0.484375 -1.609375 -0.484375q-0.984375 0 -1.46875 0.359375q-0.46875 0.34375 -0.6875 1.21875l-1.375 -0.1875q0.1875 -0.875 0.609375 -1.421875q0.4375 -0.546875 1.25 -0.828125q0.8125 -0.296875 1.875 -0.296875q1.0625 0 1.71875 0.25q0.671875 0.25 0.984375 0.625q0.3125 0.375 0.4375 0.953125q0.078125 0.359375 0.078125 1.296875l0 1.875q0 1.96875 0.078125 2.484375q0.09375 0.515625 0.359375 1.0l-1.46875 0q-0.21875 -0.4375 -0.28125 -1.03125zm-0.109375 -3.140625q-0.765625 0.3125 -2.296875 0.53125q-0.875 0.125 -1.234375 0.28125q-0.359375 0.15625 -0.5625 0.46875q-0.1875 0.296875 -0.1875 0.65625q0 0.5625 0.421875 0.9375q0.4375 0.375 1.25 0.375q0.8125 0 1.4375 -0.34375q0.640625 -0.359375 0.9375 -0.984375q0.234375 -0.46875 0.234375 -1.40625l0 -0.515625zm3.2265625 -5.765625l0 -1.640625l1.5 0l0 1.296875q0 1.046875 -0.234375 1.5q-0.34375 0.640625 -1.046875 0.953125l-0.34375 -0.546875q0.421875 -0.171875 0.625 -0.546875q0.203125 -0.375 0.234375 -1.015625l-0.734375 0zm2.421875 0l0 -1.640625l1.5 0l0 1.296875q0 1.046875 -0.234375 1.5q-0.34375 0.640625 -1.046875 0.953125l-0.34375 -0.546875q0.421875 -0.171875 0.625 -0.546875q0.203125 -0.375 0.234375 -1.015625l-0.734375 0zm3.671875 3.234375l0 -1.59375l1.59375 0l0 1.59375l-1.59375 0zm0 6.703125l0 -1.609375l1.59375 0l0 1.609375l-1.59375 0zm8.53125 3.1875l0 -14.640625l3.09375 0l0 1.15625l-1.6875 0l0 12.3125l1.6875 0l0 1.171875l-3.09375 0zm4.8046875 -3.1875l0 -1.609375l1.609375 0l0 1.609375l-1.609375 0zm4.4453163 0l0 -1.609375l1.609375 0l0 1.609375l-1.609375 0zm4.4453125 0l0 -1.609375l1.609375 0l0 1.609375l-1.609375 0zm6.3984375 3.1875l-3.09375 0l0 -1.171875l1.6875 0l0 -12.3125l-1.6875 0l0 -1.15625l3.09375 0l0 14.640625zm2.4609375 -3.1875l0 -1.609375l1.609375 0l0 1.609375q0 0.890625 -0.3125 1.421875q-0.3125 0.546875 -1.0 0.84375l-0.390625 -0.59375q0.453125 -0.203125 0.65625 -0.578125q0.21875 -0.375 0.234375 -1.09375l-0.796875 0z" fill-rule="nonzero"/><path fill="#000000" d="m29.401678 51.924583l0 1.625l-1.5 0l0 -1.28125q0 -1.046875 0.25 -1.515625q0.328125 -0.625 1.03125 -0.953125l0.34375 0.546875q-0.421875 0.1875 -0.625 0.546875q-0.203125 0.34375 -0.234375 1.03125l0.734375 0zm2.421875 0l0 1.625l-1.5 0l0 -1.28125q0 -1.046875 0.25 -1.515625q0.328125 -0.625 1.03125 -0.953125l0.34375 0.546875q-0.421875 0.1875 -0.625 0.546875q-0.203125 0.34375 -0.234375 1.03125l0.734375 0zm3.109373 9.53125l-1.3125 0l0 -11.453125l1.40625 0l0 4.078125q0.890625 -1.109375 2.28125 -1.109375q0.765625 0 1.4375 0.3125q0.6875 0.296875 1.125 0.859375q0.453125 0.5625 0.703125 1.359375q0.25 0.78125 0.25 1.671875q0 2.140625 -1.0625 3.3125q-1.046875 1.15625 -2.53125 1.15625q-1.46875 0 -2.296875 -1.234375l0 1.046875zm-0.015625 -4.21875q0 1.5 0.40625 2.15625q0.65625 1.09375 1.796875 1.09375q0.921875 0 1.59375 -0.796875q0.671875 -0.8125 0.671875 -2.390625q0 -1.625 -0.65625 -2.390625q-0.640625 -0.78125 -1.546875 -0.78125q-0.921875 0 -1.59375 0.796875q-0.671875 0.796875 -0.671875 2.3125zm7.2421875 -5.71875l0 -1.640625l1.5 0l0 1.296875q0 1.046875 -0.234375 1.5q-0.34375 0.640625 -1.046875 0.953125l-0.34375 -0.546875q0.421875 -0.171875 0.625 -0.546875q0.203125 -0.375 0.234375 -1.015625l-0.734375 0zm2.421875 0l0 -1.640625l1.5 0l0 1.296875q0 1.046875 -0.234375 1.5q-0.34375 0.640625 -1.046875 0.953125l-0.34375 -0.546875q0.421875 -0.171875 0.625 -0.546875q0.203125 -0.375 0.234375 -1.015625l-0.734375 0zm3.671875 3.234375l0 -1.59375l1.59375 0l0 1.59375l-1.59375 0zm0 6.703125l0 -1.609375l1.59375 0l0 1.609375l-1.59375 0zm8.53125 3.1875l0 -14.640625l3.09375 0l0 1.15625l-1.6875 0l0 12.3125l1.6875 0l0 1.171875l-3.09375 0zm4.8046875 -3.1875l0 -1.609375l1.609375 0l0 1.609375l-1.609375 0zm4.4453163 0l0 -1.609375l1.609375 0l0 1.609375l-1.609375 0zm4.4453125 0l0 -1.609375l1.609375 0l0 1.609375l-1.609375 0zm6.3984375 3.1875l-3.09375 0l0 -1.171875l1.6875 0l0 -12.3125l-1.6875 0l0 -1.15625l3.09375 0l0 14.640625zm2.4609375 -3.1875l0 -1.609375l1.609375 0l0 1.609375q0 0.890625 -0.3125 1.421875q-0.3125 0.546875 -1.0 0.84375l-0.390625 -0.59375q0.453125 -0.203125 0.65625 -0.578125q0.21875 -0.375 0.234375 -1.09375l-0.796875 0z" fill-rule="nonzero"/><path fill="#000000" d="m29.401678 70.92458l0 1.625l-1.5 0l0 -1.28125q0 -1.046875 0.25 -1.515625q0.328125 -0.625 1.03125 -0.953125l0.34375 0.546875q-0.421875 0.1875 -0.625 0.546875q-0.203125 0.34375 -0.234375 1.03125l0.734375 0zm2.421875 0l0 1.625l-1.5 0l0 -1.28125q0 -1.046875 0.25 -1.515625q0.328125 -0.625 1.03125 -0.953125l0.34375 0.546875q-0.421875 0.1875 -0.625 0.546875q-0.203125 0.34375 -0.234375 1.03125l0.734375 0zm7.218748 6.484375l1.390625 0.1875q-0.234375 1.421875 -1.171875 2.234375q-0.921875 0.8125 -2.28125 0.8125q-1.703125 0 -2.75 -1.109375q-1.03125 -1.125 -1.03125 -3.203125q0 -1.34375 0.4375 -2.34375q0.453125 -1.015625 1.359375 -1.515625q0.921875 -0.5 1.984375 -0.5q1.359375 0 2.21875 0.6875q0.859375 0.671875 1.09375 1.9375l-1.359375 0.203125q-0.203125 -0.828125 -0.703125 -1.25q-0.484375 -0.421875 -1.1875 -0.421875q-1.0625 0 -1.734375 0.765625q-0.65625 0.75 -0.65625 2.40625q0 1.671875 0.640625 2.4375q0.640625 0.75 1.671875 0.75q0.828125 0 1.375 -0.5q0.5625 -0.515625 0.703125 -1.578125zm2.21875 -6.890625l0 -1.640625l1.5 0l0 1.296875q0 1.046875 -0.234375 1.5q-0.34375 0.640625 -1.046875 0.953125l-0.34375 -0.546875q0.421875 -0.171875 0.625 -0.546875q0.203125 -0.375 0.234375 -1.015625l-0.734375 0zm2.421875 0l0 -1.640625l1.5 0l0 1.296875q0 1.046875 -0.234375 1.5q-0.34375 0.640625 -1.046875 0.953125l-0.34375 -0.546875q0.421875 -0.171875 0.625 -0.546875q0.203125 -0.375 0.234375 -1.015625l-0.734375 0zm3.671875 3.234375l0 -1.59375l1.59375 0l0 1.59375l-1.59375 0zm0 6.703125l0 -1.609375l1.59375 0l0 1.609375l-1.59375 0zm8.53125 3.1875l0 -14.640625l3.09375 0l0 1.15625l-1.6875 0l0 12.3125l1.6875 0l0 1.171875l-3.09375 0zm4.8046875 -3.1875l0 -1.609375l1.609375 0l0 1.609375l-1.609375 0zm4.4453163 0l0 -1.609375l1.609375 0l0 1.609375l-1.609375 0zm4.4453125 0l0 -1.609375l1.609375 0l0 1.609375l-1.609375 0zm6.3984375 3.1875l-3.09375 0l0 -1.171875l1.6875 0l0 -12.3125l-1.6875 0l0 -1.15625l3.09375 0l0 14.640625zm2.4609375 -3.1875l0 -1.609375l1.609375 0l0 1.609375q0 0.890625 -0.3125 1.421875q-0.3125 0.546875 -1.0 0.84375l-0.390625 -0.59375q0.453125 -0.203125 0.65625 -0.578125q0.21875 -0.375 0.234375 -1.09375l-0.796875 0z" fill-rule="nonzero"/></g></svg>