<?xml version="1.0" encoding="UTF-8" standalone="no"?>
<svg
   xmlns:dc="http://purl.org/dc/elements/1.1/"
   xmlns:cc="http://creativecommons.org/ns#"
   xmlns:rdf="http://www.w3.org/1999/02/22-rdf-syntax-ns#"
   xmlns:svg="http://www.w3.org/2000/svg"
   xmlns="http://www.w3.org/2000/svg"
   xmlns:sodipodi="http://sodipodi.sourceforge.net/DTD/sodipodi-0.dtd"
   xmlns:inkscape="http://www.inkscape.org/namespaces/inkscape"
   inkscape:version="1.0 (4035a4f, 2020-05-01)"
   height="253.03412"
   width="782.32806"
   sodipodi:docname="too-many-results.svg"
   id="svg910"
   stroke-miterlimit="10"
   stroke-linecap="square"
   stroke="none"
   fill="none"
   viewBox="0 0 782.32806 253.03412"
   version="1.1">
  <metadata
     id="metadata916">
    <rdf:RDF>
      <cc:Work
         rdf:about="">
        <dc:format>image/svg+xml</dc:format>
        <dc:type
           rdf:resource="http://purl.org/dc/dcmitype/StillImage" />
      </cc:Work>
    </rdf:RDF>
  </metadata>
  <defs
     id="defs914" />
  <sodipodi:namedview
     inkscape:current-layer="g908"
     inkscape:window-maximized="1"
     inkscape:window-y="23"
     inkscape:window-x="0"
     inkscape:cy="72.48425"
     inkscape:cx="349.02493"
     inkscape:zoom="0.61805556"
     showgrid="false"
     id="namedview912"
     inkscape:window-height="995"
     inkscape:window-width="1792"
     inkscape:pageshadow="2"
     inkscape:pageopacity="0"
     guidetolerance="10"
     gridtolerance="10"
     objecttolerance="10"
     borderopacity="1"
     bordercolor="#666666"
     pagecolor="#ffffff" />
  <clipPath
     id="p.0">
    <path
       id="path833"
       clip-rule="nonzero"
       d="M 0,0 H 1152 V 864 H 0 Z" />
  </clipPath>
  <g
     transform="translate(-226.97507,-359.51575)"
     id="g908"
     clip-path="url(#p.0)">
    <path
       id="path836"
       fill-rule="evenodd"
       d="M 0,0 H 1152 V 864 H 0 Z"
       fill-opacity="0"
       fill="#000000" />
    <path
       id="path838"
       fill-rule="evenodd"
       d="M 227.47507,420.27036 H 488.60892 V 612.04987 H 227.47507 Z"
       fill="#cfe2f3" />
    <path
       id="path840"
       fill-rule="evenodd"
       d="M 227.47507,420.27036 H 488.60892 V 612.04987 H 227.47507 Z"
       stroke-linecap="butt"
       stroke-linejoin="round"
       stroke-width="1"
       stroke="#000000" />
    <path
       id="path842"
       fill-rule="evenodd"
       d="m 725.9685,360.01575 h 282.8347 V 551.79529 H 725.9685 Z"
       fill="#cfe2f3" />
    <path
       id="path844"
       fill-rule="evenodd"
       d="m 725.9685,360.01575 h 282.8347 V 551.79529 H 725.9685 Z"
       stroke-linecap="butt"
       stroke-linejoin="round"
       stroke-width="1"
       stroke="#000000" />
    <path
       id="path846"
       fill-rule="evenodd"
       d="M 706.2677,381.11285 H 997.95276 V 572.89239 H 706.2677 Z"
       fill="#cfe2f3" />
    <path
       id="path848"
       fill-rule="evenodd"
       d="M 706.2677,381.11285 H 997.95276 V 572.89239 H 706.2677 Z"
       stroke-linecap="butt"
       stroke-linejoin="round"
       stroke-width="1"
       stroke="#000000" />
    <path
       id="path850"
       fill-rule="evenodd"
       d="m 688.6037,403.2362 h 291.685 v 191.77954 h -291.685 z"
       fill="#cfe2f3" />
    <path
       id="path852"
       fill-rule="evenodd"
       d="m 688.6037,403.2362 h 291.685 v 191.77954 h -291.685 z"
       stroke-linecap="butt"
       stroke-linejoin="round"
       stroke-width="1"
       stroke="#000000" />
    <path
       id="path854"
       fill-rule="evenodd"
       d="M 671.96063,420.25723 H 954.79529 V 612.03674 H 671.96063 Z"
       fill="#cfe2f3" />
    <path
       id="path856"
       fill-rule="evenodd"
       d="M 671.96063,420.25723 H 954.79529 V 612.03674 H 671.96063 Z"
       stroke-linecap="butt"
       stroke-linejoin="round"
       stroke-width="1"
       stroke="#000000" />
    <path
       id="path858"
       fill-rule="evenodd"
       d="m 283.58005,510.37833 v 0 c 0,-10.3298 8.37396,-18.7038 18.7038,-18.7038 h 157.42706 c 4.96057,0 9.71792,1.97058 13.22558,5.47821 3.50763,3.50766 5.47821,8.26505 5.47821,13.22559 v 74.8129 c 0,10.32983 -8.37396,18.7038 -18.70379,18.7038 H 302.28385 c -10.32984,0 -18.7038,-8.37397 -18.7038,-18.7038 z"
       fill="#f4cccc" />
    <path
       id="path860"
       fill-rule="evenodd"
       d="m 283.58005,510.37833 v 0 c 0,-10.3298 8.37396,-18.7038 18.7038,-18.7038 h 157.42706 c 4.96057,0 9.71792,1.97058 13.22558,5.47821 3.50763,3.50766 5.47821,8.26505 5.47821,13.22559 v 74.8129 c 0,10.32983 -8.37396,18.7038 -18.70379,18.7038 H 302.28385 c -10.32984,0 -18.7038,-8.37397 -18.7038,-18.7038 z"
       stroke-linecap="butt"
       stroke-linejoin="round"
       stroke-width="1"
       stroke="#000000" />
    <path
       id="path862"
       fill-rule="nonzero"
       d="m 330.05692,548.2048 q 0,-3.32813 1.78125,-5.20313 1.78125,-1.89062 4.60937,-1.89062 1.84375,0 3.32813,0.89062 1.48437,0.875 2.26562,2.46875 0.78125,1.57813 0.78125,3.57813 0,2.03125 -0.82812,3.64062 -0.8125,1.59375 -2.3125,2.42188 -1.5,0.82812 -3.25,0.82812 -1.875,0 -3.35938,-0.90625 -1.48437,-0.92187 -2.25,-2.5 -0.76562,-1.57812 -0.76562,-3.32812 z m 1.8125,0.0156 q 0,2.42188 1.29687,3.8125 1.29688,1.39063 3.26563,1.39063 2,0 3.28125,-1.40625 1.28125,-1.40625 1.28125,-3.98438 0,-1.625 -0.54688,-2.84375 -0.54687,-1.21875 -1.60937,-1.875 -1.0625,-0.67187 -2.375,-0.67187 -1.89063,0 -3.25,1.29687 -1.34375,1.28125 -1.34375,4.28125 z m 14.52707,6.48438 h -1.51563 V 541.3454 h 1.64063 v 4.76563 q 1.04687,-1.29688 2.65625,-1.29688 0.89062,0 1.6875,0.35938 0.79687,0.35937 1.3125,1.01562 0.51562,0.64063 0.79687,1.5625 0.29688,0.92188 0.29688,1.96875 0,2.48438 -1.23438,3.84375 -1.21875,1.35938 -2.95312,1.35938 -1.70313,0 -2.6875,-1.4375 z m -0.0156,-4.90625 q 0,1.73437 0.48438,2.51562 0.76562,1.26563 2.09375,1.26563 1.07812,0 1.85937,-0.9375 0.78125,-0.9375 0.78125,-2.78125 0,-1.89063 -0.75,-2.79688 -0.75,-0.90625 -1.82812,-0.90625 -1.0625,0 -1.85938,0.9375 -0.78125,0.9375 -0.78125,2.70313 z m 8.87571,-6.54688 v -1.90625 h 1.64062 v 1.90625 z m -2.07813,15.20313 0.3125,-1.39063 q 0.5,0.125 0.78125,0.125 0.5,0 0.73438,-0.32812 0.25,-0.32813 0.25,-1.67188 V 545.0329 h 1.64062 v 10.20313 q 0,1.78125 -0.46875,2.48437 -0.59375,0.90625 -1.96875,0.90625 -0.65625,0 -1.28125,-0.17187 z m 12.86359,-6.85938 1.6875,0.20313 q -0.40625,1.48437 -1.48438,2.3125 -1.07812,0.8125 -2.76562,0.8125 -2.125,0 -3.375,-1.29688 -1.23438,-1.3125 -1.23438,-3.67187 0,-2.45313 1.25,-3.79688 1.26563,-1.34375 3.26563,-1.34375 1.9375,0 3.15625,1.32813 1.23437,1.3125 1.23437,3.70312 0,0.15625 0,0.4375 h -7.21875 q 0.0937,1.59375 0.90625,2.45313 0.8125,0.84375 2.01563,0.84375 0.90625,0 1.54687,-0.46875 0.64063,-0.48438 1.01563,-1.51563 z m -5.39063,-2.65625 h 5.40625 q -0.10937,-1.21875 -0.625,-1.82812 -0.78125,-0.95313 -2.03125,-0.95313 -1.125,0 -1.90625,0.76563 -0.76562,0.75 -0.84375,2.01562 z m 15.45383,2.21875 1.60937,0.21875 q -0.26562,1.65625 -1.35937,2.60938 -1.07813,0.9375 -2.67188,0.9375 -1.98437,0 -3.1875,-1.29688 -1.20312,-1.29687 -1.20312,-3.71875 0,-1.57812 0.51562,-2.75 0.51563,-1.17187 1.57813,-1.75 1.0625,-0.59375 2.3125,-0.59375 1.57812,0 2.57812,0.79688 1,0.79687 1.28125,2.26562 l -1.59375,0.23438 q -0.23437,-0.96875 -0.8125,-1.45313 -0.57812,-0.5 -1.39062,-0.5 -1.23438,0 -2.01563,0.89063 -0.78125,0.89062 -0.78125,2.8125 0,1.95312 0.75,2.84375 0.75,0.875 1.95313,0.875 0.96875,0 1.60937,-0.59375 0.65625,-0.59375 0.82813,-1.82813 z m 6.59375,2.07813 0.23437,1.45312 q -0.6875,0.14063 -1.23437,0.14063 -0.89063,0 -1.39063,-0.28125 -0.48437,-0.28125 -0.6875,-0.73438 -0.20312,-0.46875 -0.20312,-1.9375 v -5.57812 h -1.20313 v -1.26563 h 1.20313 v -2.39062 l 1.625,-0.98438 v 3.375 h 1.65625 v 1.26563 h -1.65625 v 5.67187 q 0,0.6875 0.0781,0.89063 0.0937,0.20312 0.28125,0.32812 0.20313,0.10938 0.57813,0.10938 0.26562,0 0.71875,-0.0625 z m 6.39786,-2.82813 1.65625,-0.14062 q 0.125,1 0.54687,1.64062 0.4375,0.64063 1.34375,1.04688 0.92188,0.39062 2.0625,0.39062 1,0 1.78125,-0.29687 0.78125,-0.29688 1.15625,-0.8125 0.375,-0.53125 0.375,-1.15625 0,-0.625 -0.375,-1.09375 -0.35937,-0.46875 -1.1875,-0.79688 -0.54687,-0.20312 -2.39062,-0.64062 -1.82813,-0.45313 -2.5625,-0.84375 -0.96875,-0.5 -1.4375,-1.23438 -0.46875,-0.75 -0.46875,-1.67187 0,-1 0.57812,-1.875 0.57813,-0.89063 1.67188,-1.34375 1.10937,-0.45313 2.45312,-0.45313 1.48438,0 2.60938,0.48438 1.14062,0.46875 1.75,1.40625 0.60937,0.92187 0.65625,2.09375 l -1.6875,0.125 q -0.14063,-1.26563 -0.9375,-1.90625 -0.78125,-0.65625 -2.3125,-0.65625 -1.60938,0 -2.34375,0.59375 -0.73438,0.59375 -0.73438,1.42187 0,0.71875 0.53125,1.17188 0.5,0.46875 2.65625,0.96875 2.15625,0.48437 2.95313,0.84375 1.17187,0.53125 1.71875,1.35937 0.5625,0.82813 0.5625,1.90625 0,1.0625 -0.60938,2.01563 -0.60937,0.9375 -1.75,1.46875 -1.14062,0.51562 -2.57812,0.51562 -1.8125,0 -3.04688,-0.53125 -1.21875,-0.53125 -1.92187,-1.59375 -0.6875,-1.0625 -0.71875,-2.40625 z m 16.41232,2.82813 0.23437,1.45312 q -0.6875,0.14063 -1.23437,0.14063 -0.89063,0 -1.39063,-0.28125 -0.48437,-0.28125 -0.6875,-0.73438 -0.20312,-0.46875 -0.20312,-1.9375 v -5.57812 h -1.20313 v -1.26563 h 1.20313 v -2.39062 l 1.625,-0.98438 v 3.375 h 1.65625 v 1.26563 h -1.65625 v 5.67187 q 0,0.6875 0.0781,0.89063 0.0937,0.20312 0.28125,0.32812 0.20313,0.10938 0.57813,0.10938 0.26562,0 0.71875,-0.0625 z m 0.99582,-3.375 q 0,-2.6875 1.48437,-3.96875 1.25,-1.07813 3.04688,-1.07813 2,0 3.26562,1.3125 1.26563,1.29688 1.26563,3.60938 0,1.85937 -0.5625,2.9375 -0.5625,1.0625 -1.64063,1.65625 -1.0625,0.59375 -2.32812,0.59375 -2.03125,0 -3.28125,-1.29688 -1.25,-1.3125 -1.25,-3.76562 z m 1.6875,0 q 0,1.85937 0.79687,2.79687 0.8125,0.92188 2.04688,0.92188 1.21875,0 2.03125,-0.92188 0.8125,-0.9375 0.8125,-2.84375 0,-1.79687 -0.8125,-2.71875 -0.8125,-0.92187 -2.03125,-0.92187 -1.23438,0 -2.04688,0.92187 -0.79687,0.90625 -0.79687,2.76563 z m 9.28195,4.84375 v -9.67188 h 1.46875 v 1.46875 q 0.5625,-1.03125 1.03125,-1.35937 0.48438,-0.32813 1.0625,-0.32813 0.82813,0 1.6875,0.53125 l -0.5625,1.51563 q -0.60937,-0.35938 -1.20312,-0.35938 -0.54688,0 -0.96875,0.32813 -0.42188,0.32812 -0.60938,0.89062 -0.28125,0.875 -0.28125,1.92188 v 5.0625 z m 12.8533,-3.10938 1.6875,0.20313 q -0.40625,1.48437 -1.48437,2.3125 -1.07813,0.8125 -2.76563,0.8125 -2.125,0 -3.375,-1.29688 -1.23437,-1.3125 -1.23437,-3.67187 0,-2.45313 1.25,-3.79688 1.26562,-1.34375 3.26562,-1.34375 1.9375,0 3.15625,1.32813 1.23438,1.3125 1.23438,3.70312 0,0.15625 0,0.4375 h -7.21875 q 0.0937,1.59375 0.90625,2.45313 0.8125,0.84375 2.01562,0.84375 0.90625,0 1.54688,-0.46875 0.64062,-0.48438 1.01562,-1.51563 z m -5.39062,-2.65625 h 5.40625 q -0.10938,-1.21875 -0.625,-1.82812 -0.78125,-0.95313 -2.03125,-0.95313 -1.125,0 -1.90625,0.76563 -0.76563,0.75 -0.84375,2.01562 z"
       fill="#000000" />
    <path
       id="path864"
       fill-rule="evenodd"
       d="m 688.6037,510.37833 v 0 c 0,-10.3298 8.37396,-18.7038 18.70374,-18.7038 h 157.42711 c 4.96052,0 9.7179,1.97058 13.22553,5.47821 3.50769,3.50766 5.47821,8.26505 5.47821,13.22559 v 74.8129 c 0,10.32983 -8.37396,18.7038 -18.70373,18.7038 H 707.30744 c -10.32978,0 -18.70374,-8.37397 -18.70374,-18.7038 z"
       fill="#f4cccc" />
    <path
       id="path866"
       fill-rule="evenodd"
       d="m 688.6037,510.37833 v 0 c 0,-10.3298 8.37396,-18.7038 18.70374,-18.7038 h 157.42711 c 4.96052,0 9.7179,1.97058 13.22553,5.47821 3.50769,3.50766 5.47821,8.26505 5.47821,13.22559 v 74.8129 c 0,10.32983 -8.37396,18.7038 -18.70373,18.7038 H 707.30744 c -10.32978,0 -18.70374,-8.37397 -18.70374,-18.7038 z"
       stroke-linecap="butt"
       stroke-linejoin="round"
       stroke-width="1"
       stroke="#000000" />
    <path
       id="path868"
       fill-rule="nonzero"
       d="m 735.08057,548.2048 q 0,-3.32813 1.78125,-5.20313 1.78125,-1.89062 4.60937,-1.89062 1.84375,0 3.32813,0.89062 1.48437,0.875 2.26562,2.46875 0.78125,1.57813 0.78125,3.57813 0,2.03125 -0.82812,3.64062 -0.8125,1.59375 -2.3125,2.42188 -1.5,0.82812 -3.25,0.82812 -1.875,0 -3.35938,-0.90625 -1.48437,-0.92187 -2.25,-2.5 -0.76562,-1.57812 -0.76562,-3.32812 z m 1.8125,0.0156 q 0,2.42188 1.29687,3.8125 1.29688,1.39063 3.26563,1.39063 2,0 3.28125,-1.40625 1.28125,-1.40625 1.28125,-3.98438 0,-1.625 -0.54688,-2.84375 -0.54687,-1.21875 -1.60937,-1.875 -1.0625,-0.67187 -2.375,-0.67187 -1.89063,0 -3.25,1.29687 -1.34375,1.28125 -1.34375,4.28125 z m 14.52704,6.48438 h -1.51563 V 541.3454 h 1.64063 v 4.76563 q 1.04687,-1.29688 2.65625,-1.29688 0.89062,0 1.6875,0.35938 0.79687,0.35937 1.3125,1.01562 0.51562,0.64063 0.79687,1.5625 0.29688,0.92188 0.29688,1.96875 0,2.48438 -1.23438,3.84375 -1.21875,1.35938 -2.95312,1.35938 -1.70313,0 -2.6875,-1.4375 z m -0.0156,-4.90625 q 0,1.73437 0.48438,2.51562 0.76562,1.26563 2.09375,1.26563 1.07812,0 1.85937,-0.9375 0.78125,-0.9375 0.78125,-2.78125 0,-1.89063 -0.75,-2.79688 -0.75,-0.90625 -1.82812,-0.90625 -1.0625,0 -1.85938,0.9375 -0.78125,0.9375 -0.78125,2.70313 z m 8.87574,-6.54688 v -1.90625 h 1.64062 v 1.90625 z m -2.07813,15.20313 0.3125,-1.39063 q 0.5,0.125 0.78125,0.125 0.5,0 0.73438,-0.32812 0.25,-0.32813 0.25,-1.67188 V 545.0329 h 1.64062 v 10.20313 q 0,1.78125 -0.46875,2.48437 -0.59375,0.90625 -1.96875,0.90625 -0.65625,0 -1.28125,-0.17187 z m 12.86353,-6.85938 1.6875,0.20313 q -0.40625,1.48437 -1.48438,2.3125 -1.07812,0.8125 -2.76562,0.8125 -2.125,0 -3.375,-1.29688 -1.23438,-1.3125 -1.23438,-3.67187 0,-2.45313 1.25,-3.79688 1.26563,-1.34375 3.26563,-1.34375 1.9375,0 3.15625,1.32813 1.23437,1.3125 1.23437,3.70312 0,0.15625 0,0.4375 h -7.21875 q 0.0937,1.59375 0.90625,2.45313 0.8125,0.84375 2.01563,0.84375 0.90625,0 1.54687,-0.46875 0.64063,-0.48438 1.01563,-1.51563 z m -5.39063,-2.65625 h 5.40625 q -0.10937,-1.21875 -0.625,-1.82812 -0.78125,-0.95313 -2.03125,-0.95313 -1.125,0 -1.90625,0.76563 -0.76562,0.75 -0.84375,2.01562 z m 15.45386,2.21875 1.60937,0.21875 q -0.26562,1.65625 -1.35937,2.60938 -1.07813,0.9375 -2.67188,0.9375 -1.98437,0 -3.1875,-1.29688 -1.20312,-1.29687 -1.20312,-3.71875 0,-1.57812 0.51562,-2.75 0.51563,-1.17187 1.57813,-1.75 1.0625,-0.59375 2.3125,-0.59375 1.57812,0 2.57812,0.79688 1,0.79687 1.28125,2.26562 l -1.59375,0.23438 q -0.23437,-0.96875 -0.8125,-1.45313 -0.57812,-0.5 -1.39062,-0.5 -1.23438,0 -2.01563,0.89063 -0.78125,0.89062 -0.78125,2.8125 0,1.95312 0.75,2.84375 0.75,0.875 1.95313,0.875 0.96875,0 1.60937,-0.59375 0.65625,-0.59375 0.82813,-1.82813 z m 6.59375,2.07813 0.23437,1.45312 q -0.6875,0.14063 -1.23437,0.14063 -0.89063,0 -1.39063,-0.28125 -0.48437,-0.28125 -0.6875,-0.73438 -0.20312,-0.46875 -0.20312,-1.9375 v -5.57812 h -1.20313 v -1.26563 h 1.20313 v -2.39062 l 1.625,-0.98438 v 3.375 h 1.65625 v 1.26563 h -1.65625 v 5.67187 q 0,0.6875 0.0781,0.89063 0.0937,0.20312 0.28125,0.32812 0.20313,0.10938 0.57813,0.10938 0.26562,0 0.71875,-0.0625 z m 6.39789,-2.82813 1.65625,-0.14062 q 0.125,1 0.54687,1.64062 0.4375,0.64063 1.34375,1.04688 0.92188,0.39062 2.0625,0.39062 1,0 1.78125,-0.29687 0.78125,-0.29688 1.15625,-0.8125 0.375,-0.53125 0.375,-1.15625 0,-0.625 -0.375,-1.09375 -0.35937,-0.46875 -1.1875,-0.79688 -0.54687,-0.20312 -2.39062,-0.64062 -1.82813,-0.45313 -2.5625,-0.84375 -0.96875,-0.5 -1.4375,-1.23438 -0.46875,-0.75 -0.46875,-1.67187 0,-1 0.57812,-1.875 0.57813,-0.89063 1.67188,-1.34375 1.10937,-0.45313 2.45312,-0.45313 1.48438,0 2.60938,0.48438 1.14062,0.46875 1.75,1.40625 0.60937,0.92187 0.65625,2.09375 l -1.6875,0.125 q -0.14063,-1.26563 -0.9375,-1.90625 -0.78125,-0.65625 -2.3125,-0.65625 -1.60938,0 -2.34375,0.59375 -0.73438,0.59375 -0.73438,1.42187 0,0.71875 0.53125,1.17188 0.5,0.46875 2.65625,0.96875 2.15625,0.48437 2.95313,0.84375 1.17187,0.53125 1.71875,1.35937 0.5625,0.82813 0.5625,1.90625 0,1.0625 -0.60938,2.01563 -0.60937,0.9375 -1.75,1.46875 -1.14062,0.51562 -2.57812,0.51562 -1.8125,0 -3.04688,-0.53125 -1.21875,-0.53125 -1.92187,-1.59375 -0.6875,-1.0625 -0.71875,-2.40625 z m 16.41229,2.82813 0.23437,1.45312 q -0.6875,0.14063 -1.23437,0.14063 -0.89063,0 -1.39063,-0.28125 -0.48437,-0.28125 -0.6875,-0.73438 -0.20312,-0.46875 -0.20312,-1.9375 v -5.57812 h -1.20313 v -1.26563 h 1.20313 v -2.39062 l 1.625,-0.98438 v 3.375 h 1.65625 v 1.26563 h -1.65625 v 5.67187 q 0,0.6875 0.0781,0.89063 0.0937,0.20312 0.28125,0.32812 0.20313,0.10938 0.57813,0.10938 0.26562,0 0.71875,-0.0625 z m 0.99579,-3.375 q 0,-2.6875 1.48437,-3.96875 1.25,-1.07813 3.04688,-1.07813 2,0 3.26562,1.3125 1.26563,1.29688 1.26563,3.60938 0,1.85937 -0.5625,2.9375 -0.5625,1.0625 -1.64063,1.65625 -1.0625,0.59375 -2.32812,0.59375 -2.03125,0 -3.28125,-1.29688 -1.25,-1.3125 -1.25,-3.76562 z m 1.6875,0 q 0,1.85937 0.79687,2.79687 0.8125,0.92188 2.04688,0.92188 1.21875,0 2.03125,-0.92188 0.8125,-0.9375 0.8125,-2.84375 0,-1.79687 -0.8125,-2.71875 -0.8125,-0.92187 -2.03125,-0.92187 -1.23438,0 -2.04688,0.92187 -0.79687,0.90625 -0.79687,2.76563 z m 9.28198,4.84375 v -9.67188 h 1.46875 v 1.46875 q 0.5625,-1.03125 1.03125,-1.35937 0.48437,-0.32813 1.0625,-0.32813 0.82812,0 1.6875,0.53125 l -0.5625,1.51563 q -0.60938,-0.35938 -1.20313,-0.35938 -0.54687,0 -0.96875,0.32813 -0.42187,0.32812 -0.60937,0.89062 -0.28125,0.875 -0.28125,1.92188 v 5.0625 z m 12.85333,-3.10938 1.6875,0.20313 q -0.40625,1.48437 -1.48437,2.3125 -1.07813,0.8125 -2.76563,0.8125 -2.125,0 -3.375,-1.29688 -1.23437,-1.3125 -1.23437,-3.67187 0,-2.45313 1.25,-3.79688 1.26562,-1.34375 3.26562,-1.34375 1.9375,0 3.15625,1.32813 1.23438,1.3125 1.23438,3.70312 0,0.15625 0,0.4375 h -7.21875 q 0.0937,1.59375 0.90625,2.45313 0.8125,0.84375 2.01562,0.84375 0.90625,0 1.54688,-0.46875 0.64062,-0.48438 1.01562,-1.51563 z m -5.39062,-2.65625 h 5.40625 q -0.10938,-1.21875 -0.625,-1.82812 -0.78125,-0.95313 -2.03125,-0.95313 -1.125,0 -1.90625,0.76563 -0.76563,0.75 -0.84375,2.01562 z"
       fill="#000000" />
    <path
       id="path870"
       fill-rule="evenodd"
       d="M 666.105,552.8793 H 496.78219"
       fill-opacity="0"
       fill="#000000" />
    <path
       id="path872"
       fill-rule="evenodd"
       d="M 666.105,552.8793 H 502.78219"
       stroke-linecap="butt"
       stroke-linejoin="round"
       stroke-width="1"
       stroke="#000000" />
    <path
       id="path874"
       fill-rule="evenodd"
       d="m 502.78217,551.22754 -4.53812,1.65173 4.53812,1.65174 z"
       stroke-linecap="butt"
       stroke-width="1"
       stroke="#000000"
       fill="#000000" />
    <path
       id="path876"
       fill-rule="evenodd"
       d="M 670.18634,471.27298 498.81628,546.73755"
       fill-opacity="0"
       fill="#000000" />
    <path
       id="path878"
       fill-rule="evenodd"
       d="M 670.18634,471.27298 504.3074,544.31946"
       stroke-linecap="butt"
       stroke-linejoin="round"
       stroke-width="1"
       stroke="#000000" />
    <path
       id="path880"
       fill-rule="evenodd"
       d="m 503.64175,542.8078 -3.48755,3.34058 4.81891,-0.31726 z"
       stroke-linecap="butt"
       stroke-width="1"
       stroke="#000000"
       fill="#000000" />
    <path
       id="path882"
       fill-rule="evenodd"
       d="M 706.90814,392.72702 500.8609,539.62469"
       fill-opacity="0"
       fill="#000000" />
    <path
       id="path884"
       fill-rule="evenodd"
       d="M 706.90814,392.72702 505.74643,536.1416"
       stroke-linecap="butt"
       stroke-linejoin="round"
       stroke-width="1"
       stroke="#000000" />
    <path
       id="path886"
       fill-rule="evenodd"
       d="m 504.78757,534.7967 -2.73633,3.97931 4.65402,-1.28943 z"
       stroke-linecap="butt"
       stroke-width="1"
       stroke="#000000"
       fill="#000000" />
    <path
       id="path888"
       fill-rule="evenodd"
       d="M 725.2703,369.2651 501.86875,534.4934"
       fill-opacity="0"
       fill="#000000" />
    <path
       id="path890"
       fill-rule="evenodd"
       d="M 725.2703,369.2651 506.69272,530.92559"
       stroke-linecap="butt"
       stroke-linejoin="round"
       stroke-width="1"
       stroke="#000000" />
    <path
       id="path892"
       fill-rule="evenodd"
       d="m 505.71054,529.59766 -2.66641,4.02649 4.6308,-1.37055 z"
       stroke-linecap="butt"
       stroke-width="1"
       stroke="#000000"
       fill="#000000" />
    <path
       id="path894"
       fill-rule="evenodd"
       d="m 519.96063,402.83203 h 587.55897 v 68.53543 H 519.96063 Z"
       fill-opacity="0"
       fill="#000000" />
    <path
       id="path896"
       fill-rule="nonzero"
       d="m 536.1794,424.09576 q 0.0156,-0.51563 -0.0469,-0.875 -0.0625,-0.375 -0.21875,-0.60938 -0.14062,-0.23437 -0.35937,-0.34375 -0.21875,-0.10937 -0.51563,-0.10937 -0.48437,0 -1.01562,0.40625 -0.51563,0.40625 -1.14063,1.32812 v 5.85938 h -2.28125 v -9.25 h 2.01563 l 0.0781,1.34375 q 0.23438,-0.35938 0.51563,-0.64063 0.28125,-0.28125 0.625,-0.48437 0.35937,-0.20313 0.78125,-0.3125 0.4375,-0.10938 0.95312,-0.10938 0.70313,0 1.23438,0.25 0.54687,0.23438 0.90625,0.70313 0.375,0.46875 0.54687,1.1875 0.1875,0.71875 0.15625,1.65625 z m 10.10101,5.65625 -0.0469,-1.21875 q -0.29688,0.3125 -0.625,0.57812 -0.3125,0.26563 -0.70313,0.45313 -0.375,0.1875 -0.82812,0.28125 -0.4375,0.10937 -0.98438,0.10937 -0.70312,0 -1.25,-0.20312 -0.53125,-0.20313 -0.90625,-0.57813 -0.35937,-0.375 -0.54687,-0.90625 -0.17188,-0.53125 -0.17188,-1.17187 0,-0.65625 0.26563,-1.20313 0.28125,-0.5625 0.84375,-0.95312 0.57812,-0.40625 1.42187,-0.625 0.85938,-0.23438 2,-0.23438 h 1.21875 v -0.5625 q 0,-0.35937 -0.10937,-0.64062 -0.0937,-0.28125 -0.3125,-0.48438 -0.21875,-0.20312 -0.57813,-0.3125 -0.35937,-0.10937 -0.875,-0.10937 -0.82812,0 -1.625,0.1875 -0.79687,0.1875 -1.53125,0.53125 v -1.78125 q 0.65625,-0.26563 1.53125,-0.4375 0.875,-0.17188 1.8125,-0.17188 1.01563,0 1.75,0.20313 0.75,0.1875 1.21875,0.57812 0.48438,0.39063 0.70313,0.98438 0.23437,0.57812 0.23437,1.35937 v 6.32813 z m -0.3125,-4.09375 h -1.35937 q -0.5625,0 -0.95313,0.10937 -0.39062,0.10938 -0.64062,0.3125 -0.25,0.1875 -0.35938,0.4375 -0.10937,0.25 -0.10937,0.53125 0,0.5625 0.35937,0.85938 0.35938,0.29687 1,0.29687 0.45313,0 0.95313,-0.32812 0.51562,-0.34375 1.10937,-0.96875 z m 10.33545,3.07812 q -0.48437,1.20313 -1.01562,2.10938 -0.51563,0.90625 -1.14063,1.51562 -0.625,0.60938 -1.40625,0.90625 -0.76562,0.3125 -1.71875,0.3125 -0.21875,0 -0.5,-0.0312 -0.26562,-0.0156 -0.54687,-0.0625 v -1.89062 q 0.10937,0.0312 0.25,0.0469 0.14062,0.0156 0.29687,0.0312 0.15625,0.0156 0.3125,0.0156 0.15625,0.0156 0.29688,0.0156 0.39062,0 0.71875,-0.14062 0.32812,-0.14063 0.59375,-0.40625 0.28125,-0.26563 0.5,-0.625 0.23437,-0.35938 0.40625,-0.78125 l -3.67188,-9.25 h 2.48438 l 1.92187,5.23437 0.57813,1.70313 0.5625,-1.625 1.9375,-5.3125 h 2.39062 z m 8.50726,-2.34375 q 0.375,0 0.70313,0.14063 0.32812,0.14062 0.5625,0.39062 0.25,0.23438 0.39062,0.5625 0.14063,0.32813 0.14063,0.70313 0,0.35937 -0.14063,0.6875 -0.14062,0.3125 -0.39062,0.5625 -0.23438,0.23437 -0.5625,0.375 -0.32813,0.14062 -0.70313,0.14062 -0.375,0 -0.6875,-0.14062 -0.3125,-0.14063 -0.5625,-0.375 -0.23437,-0.25 -0.375,-0.5625 -0.125,-0.32813 -0.125,-0.6875 0,-0.375 0.125,-0.70313 0.14063,-0.32812 0.375,-0.5625 0.25,-0.25 0.5625,-0.39062 0.3125,-0.14063 0.6875,-0.14063 z m 13.38233,-4.28125 q 0.26562,0.32813 0.35937,0.6875 0.10938,0.34375 0.10938,0.70313 0,0.78125 -0.26563,1.375 -0.26562,0.57812 -0.76562,0.98437 -0.48438,0.40625 -1.17188,0.60938 -0.67187,0.20312 -1.48437,0.20312 -0.48438,0 -0.89063,-0.0937 -0.40625,-0.0937 -0.625,-0.21875 -0.15625,0.14063 -0.26562,0.32813 -0.10938,0.1875 -0.10938,0.4375 0,0.14062 0.0781,0.28125 0.0781,0.14062 0.21875,0.26562 0.14062,0.10938 0.32812,0.1875 0.20313,0.0625 0.4375,0.0781 l 2.20313,0.0781 q 0.73437,0.0156 1.32812,0.1875 0.60938,0.17188 1.03125,0.48438 0.42188,0.3125 0.65625,0.75 0.23438,0.4375 0.23438,1 0,0.65625 -0.29688,1.21875 -0.28125,0.57812 -0.875,1 -0.57812,0.42187 -1.45312,0.67187 -0.875,0.25 -2.03125,0.25 -1.125,0 -1.9375,-0.1875 -0.79688,-0.17187 -1.3125,-0.5 -0.51563,-0.3125 -0.76563,-0.75 -0.25,-0.4375 -0.25,-0.96875 0,-0.3125 0.0781,-0.59375 0.0937,-0.26562 0.25,-0.53125 0.17187,-0.25 0.40625,-0.48437 0.25,-0.23438 0.59375,-0.46875 -0.45313,-0.25 -0.6875,-0.65625 -0.21875,-0.40625 -0.21875,-0.85938 0,-0.3125 0.0781,-0.57812 0.0781,-0.26563 0.20313,-0.5 0.14062,-0.25 0.3125,-0.48438 0.17187,-0.23437 0.35937,-0.45312 -0.32812,-0.32813 -0.5625,-0.79688 -0.21875,-0.48437 -0.21875,-1.20312 0,-0.78125 0.28125,-1.39063 0.28125,-0.60937 0.76563,-1.01562 0.5,-0.42188 1.17187,-0.625 0.6875,-0.21875 1.48438,-0.21875 0.40625,0 0.78125,0.0469 0.39062,0.0312 0.6875,0.14063 h 3.21875 v 1.60937 z m -5.23438,8.875 q 0,0.53125 0.53125,0.78125 0.54688,0.26563 1.53125,0.26563 0.64063,0 1.0625,-0.125 0.4375,-0.10938 0.70313,-0.3125 0.28125,-0.1875 0.39062,-0.45313 0.125,-0.25 0.125,-0.51562 0,-0.25 -0.10937,-0.42188 -0.10938,-0.15625 -0.32813,-0.28125 -0.20312,-0.10937 -0.48437,-0.17187 -0.26563,-0.0469 -0.60938,-0.0781 l -1.95312,-0.0312 q -0.26563,0.1875 -0.4375,0.34375 -0.17188,0.17188 -0.26563,0.32813 -0.0937,0.15625 -0.125,0.3125 -0.0312,0.17187 -0.0312,0.35937 z m 0.375,-7.42187 q 0,0.73437 0.42188,1.17187 0.4375,0.42188 1.21875,0.42188 0.40625,0 0.70312,-0.125 0.3125,-0.14063 0.51563,-0.35938 0.20312,-0.23437 0.29687,-0.53125 0.10938,-0.3125 0.10938,-0.64062 0,-0.76563 -0.4375,-1.20313 -0.4375,-0.4375 -1.20313,-0.4375 -0.40625,0 -0.71875,0.14063 -0.3125,0.14062 -0.51562,0.375 -0.1875,0.21875 -0.29688,0.53125 -0.0937,0.3125 -0.0937,0.65625 z m 16.24164,0.84375 q 0,0.23437 -0.0156,0.60937 -0.0156,0.35938 -0.0312,0.67188 h -6.09375 q 0,0.60937 0.1875,1.07812 0.1875,0.46875 0.53125,0.78125 0.34375,0.3125 0.8125,0.48438 0.48437,0.15625 1.0625,0.15625 0.67187,0 1.4375,-0.10938 0.78125,-0.10937 1.60937,-0.34375 v 1.76563 q -0.35937,0.10937 -0.78125,0.1875 -0.40625,0.0781 -0.84375,0.14062 -0.4375,0.0625 -0.89062,0.0937 -0.45313,0.0312 -0.85938,0.0312 -1.0625,0 -1.90625,-0.29687 -0.82812,-0.29688 -1.42187,-0.875 -0.57813,-0.59375 -0.89063,-1.45313 -0.3125,-0.875 -0.3125,-2.01562 0,-1.125 0.3125,-2.04688 0.3125,-0.9375 0.875,-1.59375 0.5625,-0.65625 1.375,-1.01562 0.8125,-0.35938 1.79688,-0.35938 0.98437,0 1.73437,0.3125 0.76563,0.29688 1.26563,0.84375 0.51562,0.54688 0.78125,1.3125 0.26562,0.75 0.26562,1.64063 z m -2.26562,-0.3125 q 0.0156,-0.54688 -0.14063,-0.95313 -0.14062,-0.40625 -0.39062,-0.67187 -0.25,-0.26563 -0.57813,-0.39063 -0.32812,-0.125 -0.71875,-0.125 -0.82812,0 -1.375,0.5625 -0.53125,0.5625 -0.64062,1.57813 z m 12.10107,5.5625 q -0.60937,0.14062 -1.21875,0.21875 -0.60937,0.0781 -1.15625,0.0781 -0.90625,0 -1.57812,-0.1875 -0.65625,-0.1875 -1.09375,-0.57812 -0.42188,-0.39063 -0.625,-1 -0.20313,-0.60938 -0.20313,-1.4375 v -4.53125 h -2.5 v -1.71875 h 2.5 v -2.375 l 2.26563,-0.59375 v 2.96875 h 3.60937 v 1.71875 h -3.60937 v 4.35937 q 0,0.79688 0.35937,1.20313 0.375,0.40625 1.23438,0.40625 0.54687,0 1.0625,-0.0937 0.51562,-0.0937 0.95312,-0.21875 z"
       fill="#000000" />
    <path
       id="path898"
       fill-rule="nonzero"
       d="m 536.7575,451.752 v -6.29688 q 0,-0.35937 -0.0156,-0.60937 -0.0156,-0.26563 -0.0781,-0.4375 -0.0469,-0.17188 -0.15625,-0.25 -0.10937,-0.0937 -0.28125,-0.0937 -0.28125,0 -0.5625,0.39062 -0.26562,0.375 -0.625,1.29688 v 6 h -1.89062 v -6.29688 q 0,-0.35937 -0.0312,-0.60937 -0.0156,-0.26563 -0.0781,-0.4375 -0.0469,-0.17188 -0.15625,-0.25 -0.10937,-0.0937 -0.28125,-0.0937 -0.25,0 -0.54687,0.39062 -0.28125,0.375 -0.64063,1.29688 v 6 h -1.92187 v -9.25 h 1.65625 l 0.0312,1.34375 q 0.20312,-0.40625 0.40625,-0.70313 0.20312,-0.29687 0.42187,-0.48437 0.23438,-0.1875 0.48438,-0.26563 0.26562,-0.0781 0.59375,-0.0781 0.78125,0 1.1875,0.40625 0.40625,0.40625 0.45312,1.125 0.21875,-0.40625 0.42188,-0.70313 0.21875,-0.29687 0.45312,-0.48437 0.23438,-0.1875 0.5,-0.26563 0.28125,-0.0781 0.60938,-0.0781 1,0 1.48437,0.70312 0.48438,0.70313 0.48438,2.09375 v 6.64063 z m 9.17914,-11.78125 q 0,0.29687 -0.10938,0.5625 -0.10937,0.26562 -0.3125,0.46875 -0.1875,0.1875 -0.45312,0.29687 -0.26563,0.10938 -0.57813,0.10938 -0.3125,0 -0.57812,-0.10938 -0.26563,-0.10937 -0.46875,-0.29687 -0.1875,-0.20313 -0.29688,-0.46875 -0.10937,-0.26563 -0.10937,-0.5625 0,-0.3125 0.10937,-0.5625 0.10938,-0.26563 0.29688,-0.46875 0.20312,-0.20313 0.46875,-0.3125 0.26562,-0.125 0.57812,-0.125 0.3125,0 0.57813,0.125 0.26562,0.10937 0.45312,0.3125 0.20313,0.20312 0.3125,0.46875 0.10938,0.25 0.10938,0.5625 z m -2.46875,4.25 h -2.60938 V 442.502 h 4.89063 v 7.51562 h 2.67187 v 1.73438 h -7.875 v -1.73438 h 2.92188 z m 10.25732,-3.60938 h -2.60937 V 438.877 h 4.89062 v 11.14062 h 2.67188 v 1.73438 h -7.875 v -1.73438 h 2.92187 z m 10.25727,0 H 561.3731 V 438.877 h 4.89063 v 11.14062 h 2.67187 v 1.73438 h -7.875 v -1.73438 h 2.92188 z m 12.72607,-0.64062 q 0,0.29687 -0.10938,0.5625 -0.10937,0.26562 -0.3125,0.46875 -0.1875,0.1875 -0.45312,0.29687 -0.26563,0.10938 -0.57813,0.10938 -0.3125,0 -0.57812,-0.10938 -0.26563,-0.10937 -0.46875,-0.29687 -0.1875,-0.20313 -0.29688,-0.46875 -0.10937,-0.26563 -0.10937,-0.5625 0,-0.3125 0.10937,-0.5625 0.10938,-0.26563 0.29688,-0.46875 0.20312,-0.20313 0.46875,-0.3125 0.26562,-0.125 0.57812,-0.125 0.3125,0 0.57813,0.125 0.26562,0.10937 0.45312,0.3125 0.20313,0.20312 0.3125,0.46875 0.10938,0.25 0.10938,0.5625 z m -2.46875,4.25 h -2.60938 V 442.502 h 4.89063 v 7.51562 h 2.67187 v 1.73438 h -7.875 v -1.73438 h 2.92188 z m 15.60101,2.82812 q 0,1.09375 -0.3125,2 -0.29687,0.90625 -0.89062,1.5625 -0.57813,0.64063 -1.42188,1 -0.84375,0.34375 -1.9375,0.34375 -1.01562,0 -1.82812,-0.29687 -0.8125,-0.29688 -1.39063,-0.89063 -0.5625,-0.59375 -0.85937,-1.48437 -0.29688,-0.90625 -0.29688,-2.10938 0,-1.09375 0.3125,-2 0.3125,-0.90625 0.89063,-1.53125 0.59375,-0.64062 1.4375,-0.98437 0.85937,-0.35938 1.92187,-0.35938 1.04688,0 1.84375,0.3125 0.8125,0.29688 1.375,0.90625 0.57813,0.59375 0.85938,1.48438 0.29687,0.89062 0.29687,2.04687 z m -2.3125,0.0625 q 0,-1.4375 -0.54687,-2.15625 -0.53125,-0.73437 -1.59375,-0.73437 -0.57813,0 -0.98438,0.23437 -0.40625,0.21875 -0.67187,0.625 -0.26563,0.39063 -0.39063,0.92188 -0.125,0.51562 -0.125,1.125 0,1.45312 0.57813,2.1875 0.59375,0.71875 1.59375,0.71875 0.5625,0 0.96875,-0.21875 0.40625,-0.21875 0.65625,-0.60938 0.26562,-0.40625 0.39062,-0.9375 0.125,-0.54687 0.125,-1.15625 z m 9.75733,4.64063 v -6.03125 q 0,-1.51563 -1.125,-1.51563 -0.5625,0 -1.07813,0.45313 -0.51562,0.45312 -1.09375,1.23437 v 5.85938 h -2.21875 v -9.25 h 1.92188 l 0.0625,1.35937 q 0.28125,-0.35937 0.57812,-0.64062 0.3125,-0.29688 0.65625,-0.5 0.35938,-0.20313 0.76563,-0.3125 0.42187,-0.10938 0.92187,-0.10938 0.71875,0 1.23438,0.23438 0.53125,0.23437 0.89062,0.65625 0.35938,0.42187 0.53125,1.01562 0.1875,0.59375 0.1875,1.32813 v 6.21875 z m 12.38226,-2.71875 q 0,0.78125 -0.35938,1.34375 -0.34375,0.5625 -0.92187,0.92187 -0.57813,0.34375 -1.3125,0.5 -0.73438,0.15625 -1.5,0.15625 -1.01563,0 -1.84375,-0.0937 -0.8125,-0.0937 -1.54688,-0.26562 v -2.01563 q 0.85938,0.35938 1.70313,0.51563 0.85937,0.15625 1.60937,0.15625 0.875,0 1.3125,-0.26563 0.4375,-0.28125 0.4375,-0.73437 0,-0.20313 -0.0937,-0.375 -0.0937,-0.17188 -0.34375,-0.32813 -0.25,-0.17187 -0.71875,-0.32812 -0.45312,-0.17188 -1.1875,-0.39063 -0.67187,-0.1875 -1.1875,-0.42187 -0.51562,-0.25 -0.85937,-0.57813 -0.32813,-0.32812 -0.5,-0.75 -0.17188,-0.4375 -0.17188,-1.03125 0,-0.5625 0.25,-1.0625 0.26563,-0.5 0.76563,-0.875 0.5,-0.375 1.25,-0.59375 0.76562,-0.21875 1.78125,-0.21875 0.875,0 1.54687,0.0937 0.67188,0.0781 1.1875,0.1875 v 1.82813 q -0.78125,-0.26563 -1.48437,-0.35938 -0.70313,-0.10937 -1.375,-0.10937 -0.6875,0 -1.10938,0.25 -0.40625,0.23437 -0.40625,0.67187 0,0.21875 0.0781,0.39063 0.0781,0.15625 0.3125,0.3125 0.25,0.14062 0.6875,0.3125 0.4375,0.17187 1.14062,0.375 0.79688,0.21875 1.34375,0.48437 0.54688,0.26563 0.875,0.59375 0.34375,0.32813 0.48438,0.75 0.15625,0.40625 0.15625,0.95313 z"
       fill="#000000" />
    <path
       id="path900"
       fill-rule="nonzero"
       d="m 537.8669,473.65826 q -0.60938,0.14062 -1.21875,0.21875 -0.60938,0.0781 -1.15625,0.0781 -0.90625,0 -1.57813,-0.1875 -0.65625,-0.1875 -1.09375,-0.57812 -0.42187,-0.39063 -0.625,-1 -0.20312,-0.60938 -0.20312,-1.4375 v -4.53125 h -2.5 v -1.71875 h 2.5 v -2.375 l 2.26562,-0.59375 v 2.96875 h 3.60938 v 1.71875 h -3.60938 v 4.35937 q 0,0.79688 0.35938,1.20313 0.375,0.40625 1.23437,0.40625 0.54688,0 1.0625,-0.0937 0.51563,-0.0937 0.95313,-0.21875 z m 8.41351,0.0937 -0.0469,-1.21875 q -0.29688,0.3125 -0.625,0.57812 -0.3125,0.26563 -0.70313,0.45313 -0.375,0.1875 -0.82812,0.28125 -0.4375,0.10937 -0.98438,0.10937 -0.70312,0 -1.25,-0.20312 -0.53125,-0.20313 -0.90625,-0.57813 -0.35937,-0.375 -0.54687,-0.90625 -0.17188,-0.53125 -0.17188,-1.17187 0,-0.65625 0.26563,-1.20313 0.28125,-0.5625 0.84375,-0.95312 0.57812,-0.40625 1.42187,-0.625 0.85938,-0.23438 2,-0.23438 h 1.21875 v -0.5625 q 0,-0.35937 -0.10937,-0.64062 -0.0937,-0.28125 -0.3125,-0.48438 -0.21875,-0.20312 -0.57813,-0.3125 -0.35937,-0.10937 -0.875,-0.10937 -0.82812,0 -1.625,0.1875 -0.79687,0.1875 -1.53125,0.53125 v -1.78125 q 0.65625,-0.26563 1.53125,-0.4375 0.875,-0.17188 1.8125,-0.17188 1.01563,0 1.75,0.20313 0.75,0.1875 1.21875,0.57812 0.48438,0.39063 0.70313,0.98438 0.23437,0.57812 0.23437,1.35937 v 6.32813 z m -0.3125,-4.09375 h -1.35937 q -0.5625,0 -0.95313,0.10937 -0.39062,0.10938 -0.64062,0.3125 -0.25,0.1875 -0.35938,0.4375 -0.10937,0.25 -0.10937,0.53125 0,0.5625 0.35937,0.85938 0.35938,0.29687 1,0.29687 0.45313,0 0.95313,-0.32812 0.51562,-0.34375 1.10937,-0.96875 z m 12.41358,1.375 q 0,0.78125 -0.35938,1.34375 -0.34375,0.5625 -0.92187,0.92187 -0.57813,0.34375 -1.3125,0.5 -0.73438,0.15625 -1.5,0.15625 -1.01563,0 -1.84375,-0.0937 -0.8125,-0.0937 -1.54688,-0.26562 v -2.01563 q 0.85938,0.35938 1.70313,0.51563 0.85937,0.15625 1.60937,0.15625 0.875,0 1.3125,-0.26563 0.4375,-0.28125 0.4375,-0.73437 0,-0.20313 -0.0937,-0.375 -0.0937,-0.17188 -0.34375,-0.32813 -0.25,-0.17187 -0.71875,-0.32812 -0.45312,-0.17188 -1.1875,-0.39063 -0.67187,-0.1875 -1.1875,-0.42187 -0.51562,-0.25 -0.85937,-0.57813 -0.32813,-0.32812 -0.5,-0.75 -0.17188,-0.4375 -0.17188,-1.03125 0,-0.5625 0.25,-1.0625 0.26563,-0.5 0.76563,-0.875 0.5,-0.375 1.25,-0.59375 0.76562,-0.21875 1.78125,-0.21875 0.875,0 1.54687,0.0937 0.67188,0.0781 1.1875,0.1875 v 1.82813 q -0.78125,-0.26563 -1.48437,-0.35938 -0.70313,-0.10937 -1.375,-0.10937 -0.6875,0 -1.10938,0.25 -0.40625,0.23437 -0.40625,0.67187 0,0.21875 0.0781,0.39063 0.0781,0.15625 0.3125,0.3125 0.25,0.14062 0.6875,0.3125 0.4375,0.17187 1.14062,0.375 0.79688,0.21875 1.34375,0.48437 0.54688,0.26563 0.875,0.59375 0.34375,0.32813 0.48438,0.75 0.15625,0.40625 0.15625,0.95313 z m 8.35101,2.71875 -3.42188,-4.625 v 4.625 h -2.21875 v -12.875 h 2.21875 v 7.53125 l 3.23438,-3.90625 h 2.78125 l -3.75,4.21875 4.0625,5.03125 z m 12.16357,-2.71875 q 0,0.78125 -0.35937,1.34375 -0.34375,0.5625 -0.92188,0.92187 -0.57812,0.34375 -1.3125,0.5 -0.73437,0.15625 -1.5,0.15625 -1.01562,0 -1.84375,-0.0937 -0.8125,-0.0937 -1.54687,-0.26562 v -2.01563 q 0.85937,0.35938 1.70312,0.51563 0.85938,0.15625 1.60938,0.15625 0.875,0 1.3125,-0.26563 0.4375,-0.28125 0.4375,-0.73437 0,-0.20313 -0.0937,-0.375 -0.0937,-0.17188 -0.34375,-0.32813 -0.25,-0.17187 -0.71875,-0.32812 -0.45313,-0.17188 -1.1875,-0.39063 -0.67188,-0.1875 -1.1875,-0.42187 -0.51563,-0.25 -0.85938,-0.57813 -0.32812,-0.32812 -0.5,-0.75 -0.17187,-0.4375 -0.17187,-1.03125 0,-0.5625 0.25,-1.0625 0.26562,-0.5 0.76562,-0.875 0.5,-0.375 1.25,-0.59375 0.76563,-0.21875 1.78125,-0.21875 0.875,0 1.54688,0.0937 0.67187,0.0781 1.1875,0.1875 v 1.82813 q -0.78125,-0.26563 -1.48438,-0.35938 -0.70312,-0.10937 -1.375,-0.10937 -0.6875,0 -1.10937,0.25 -0.40625,0.23437 -0.40625,0.67187 0,0.21875 0.0781,0.39063 0.0781,0.15625 0.3125,0.3125 0.25,0.14062 0.6875,0.3125 0.4375,0.17187 1.14063,0.375 0.79687,0.21875 1.34375,0.48437 0.54687,0.26563 0.875,0.59375 0.34375,0.32813 0.48437,0.75 0.15625,0.40625 0.15625,0.95313 z"
       fill="#000000" />
    <path
       id="path902"
       fill-rule="evenodd"
       d="m 389.18216,393.29745 24.14591,-33.21347 -1.92267,44.19028 25.26324,-19.92655 -11.8045,25.70178 37.87307,0.86438 -33.48358,21.08924 9.32319,14.44195 -13.71268,7.80234 18.11667,25.41113 -30.74103,-9.80645 2.19113,23.10101 -20.03937,-10.97681 -4.12106,22.23664 -12.62436,-11.25983 -8.50329,17.91476 -8.51059,-12.13952 -18.93653,26.58148 -0.81262,-25.70178 -25.53894,-3.1745 14.83728,-18.77912 -24.16043,-19.06982 28.54993,-9.82941 -20.04663,-25.41113 30.47259,-3.46515 -6.31216,-32.06604 29.36978,21.08923 8.50329,-34.38379 z"
       fill="#ffff00" />
    <path
       id="path904"
       fill-rule="evenodd"
       d="m 389.18216,393.29745 24.14591,-33.21347 -1.92267,44.19028 25.26324,-19.92655 -11.8045,25.70178 37.87307,0.86438 -33.48358,21.08924 9.32319,14.44195 -13.71268,7.80234 18.11667,25.41113 -30.74103,-9.80645 2.19113,23.10101 -20.03937,-10.97681 -4.12106,22.23664 -12.62436,-11.25983 -8.50329,17.91476 -8.51059,-12.13952 -18.93653,26.58148 -0.81262,-25.70178 -25.53894,-3.1745 14.83728,-18.77912 -24.16043,-19.06982 28.54993,-9.82941 -20.04663,-25.41113 30.47259,-3.46515 -6.31216,-32.06604 29.36978,21.08923 8.50329,-34.38379 z"
       stroke-linecap="butt"
       stroke-linejoin="round"
       stroke-width="1"
       stroke="#000000" />
    <path
       id="path906"
       fill-rule="nonzero"
       d="m 354.90314,445.8592 q 0,-3.32813 1.78125,-5.20313 1.78125,-1.89062 4.60937,-1.89062 1.84375,0 3.32813,0.89062 1.48437,0.875 2.26562,2.46875 0.78125,1.57813 0.78125,3.57813 0,2.03125 -0.82812,3.64062 -0.8125,1.59375 -2.3125,2.42188 -1.5,0.82812 -3.25,0.82812 -1.875,0 -3.35938,-0.90625 -1.48437,-0.92187 -2.25,-2.5 -0.76562,-1.57812 -0.76562,-3.32812 z m 1.8125,0.0156 q 0,2.42188 1.29687,3.8125 1.29688,1.39063 3.26563,1.39063 2,0 3.28125,-1.40625 1.28125,-1.40625 1.28125,-3.98438 0,-1.625 -0.54688,-2.84375 -0.54687,-1.21875 -1.60937,-1.875 -1.0625,-0.67187 -2.375,-0.67187 -1.89063,0 -3.25,1.29687 -1.34375,1.28125 -1.34375,4.28125 z m 12.69894,-0.0156 q 0,-3.32813 1.78125,-5.20313 1.78125,-1.89062 4.60938,-1.89062 1.84375,0 3.32812,0.89062 1.48438,0.875 2.26563,2.46875 0.78125,1.57813 0.78125,3.57813 0,2.03125 -0.82813,3.64062 -0.8125,1.59375 -2.3125,2.42188 -1.5,0.82812 -3.25,0.82812 -1.875,0 -3.35937,-0.90625 -1.48438,-0.92187 -2.25,-2.5 -0.76563,-1.57812 -0.76563,-3.32812 z m 1.8125,0.0156 q 0,2.42188 1.29688,3.8125 1.29687,1.39063 3.26562,1.39063 2,0 3.28125,-1.40625 1.28125,-1.40625 1.28125,-3.98438 0,-1.625 -0.54687,-2.84375 -0.54688,-1.21875 -1.60938,-1.875 -1.0625,-0.67187 -2.375,-0.67187 -1.89062,0 -3.25,1.29687 -1.34375,1.28125 -1.34375,4.28125 z m 13.18329,6.48438 V 438.9998 h 2.65625 l 3.15625,9.45313 q 0.4375,1.32812 0.64063,1.98437 0.23437,-0.73437 0.70312,-2.14062 l 3.20313,-9.29688 h 2.375 v 13.35938 h -1.70313 V 441.1873 l -3.875,11.17188 h -1.59375 l -3.85937,-11.375 v 11.375 z"
       fill="#000000" />
  </g>
</svg>
