<?xml version="1.0" encoding="UTF-8" standalone="no"?>
<svg
   xmlns:dc="http://purl.org/dc/elements/1.1/"
   xmlns:cc="http://creativecommons.org/ns#"
   xmlns:rdf="http://www.w3.org/1999/02/22-rdf-syntax-ns#"
   xmlns:svg="http://www.w3.org/2000/svg"
   xmlns="http://www.w3.org/2000/svg"
   xmlns:sodipodi="http://sodipodi.sourceforge.net/DTD/sodipodi-0.dtd"
   xmlns:inkscape="http://www.inkscape.org/namespaces/inkscape"
   inkscape:version="1.0 (4035a4f, 2020-05-01)"
   height="556.06683"
   width="715.12573"
   sodipodi:docname="unnecessary-ray-get-anti.svg"
   id="svg1031"
   stroke-miterlimit="10"
   stroke-linecap="square"
   stroke="none"
   fill="none"
   viewBox="0 0 715.12573 556.06683"
   version="1.1">
  <metadata
     id="metadata1037">
    <rdf:RDF>
      <cc:Work
         rdf:about="">
        <dc:format>image/svg+xml</dc:format>
        <dc:type
           rdf:resource="http://purl.org/dc/dcmitype/StillImage" />
      </cc:Work>
    </rdf:RDF>
  </metadata>
  <defs
     id="defs1035" />
  <sodipodi:namedview
     inkscape:current-layer="g1029"
     inkscape:window-maximized="1"
     inkscape:window-y="23"
     inkscape:window-x="0"
     inkscape:cy="360.48819"
     inkscape:cx="404.87927"
     inkscape:zoom="0.81979167"
     showgrid="false"
     id="namedview1033"
     inkscape:window-height="995"
     inkscape:window-width="1792"
     inkscape:pageshadow="2"
     inkscape:pageopacity="0"
     guidetolerance="10"
     gridtolerance="10"
     objecttolerance="10"
     borderopacity="1"
     bordercolor="#666666"
     pagecolor="#ffffff" />
  <clipPath
     id="p.0">
    <path
       id="path926"
       clip-rule="nonzero"
       d="M 0,0 H 1280 V 960 H 0 Z" />
  </clipPath>
  <g
     transform="translate(-235.12073,-119.51181)"
     id="g1029"
     clip-path="url(#p.0)">
    <path
       id="path929"
       fill-rule="evenodd"
       d="M 0,0 H 1280 V 960 H 0 Z"
       fill-opacity="0"
       fill="#000000" />
    <path
       id="path931"
       fill-rule="evenodd"
       d="M 304.2546,200.96063 H 557.23095 V 327.98425 H 304.2546 Z"
       fill="#ffffff" />
    <path
       id="path933"
       fill-rule="evenodd"
       d="M 304.2546,200.96063 H 557.23095 V 327.98425 H 304.2546 Z"
       stroke-linecap="butt"
       stroke-linejoin="round"
       stroke-width="1"
       stroke="#000000" />
    <path
       id="path935"
       fill-rule="nonzero"
       d="m 326.2108,276.39807 2.51562,0.35938 q 0.15625,1.17187 0.875,1.70312 0.95313,0.70313 2.60938,0.70313 1.79687,0 2.76562,-0.71875 0.98438,-0.70313 1.32813,-2 0.20312,-0.78125 0.1875,-3.29688 -1.70313,1.98438 -4.21875,1.98438 -3.14063,0 -4.85938,-2.26563 -1.71875,-2.26562 -1.71875,-5.42187 0,-2.17188 0.78125,-4.01563 0.79688,-1.84375 2.29688,-2.84375 1.5,-1 3.51562,-1 2.6875,0 4.4375,2.17188 v -1.82813 h 2.375 v 13.14063 q 0,3.54687 -0.71875,5.03125 -0.71875,1.48437 -2.29687,2.34375 -1.5625,0.85937 -3.85938,0.85937 -2.71875,0 -4.39062,-1.23437 -1.67188,-1.21875 -1.625,-3.67188 z m 2.14062,-9.14062 q 0,2.98437 1.1875,4.35937 1.1875,1.375 2.98438,1.375 1.76562,0 2.96875,-1.35937 1.20312,-1.375 1.20312,-4.29688 0,-2.78125 -1.23437,-4.20312 -1.23438,-1.42188 -2.98438,-1.42188 -1.71875,0 -2.92187,1.40625 -1.20313,1.39063 -1.20313,4.14063 z m 25.06092,2.98437 2.65625,0.32813 q -0.625,2.32812 -2.32813,3.625 -1.70312,1.28125 -4.35937,1.28125 -3.32813,0 -5.28125,-2.04688 -1.95313,-2.0625 -1.95313,-5.76562 0,-3.84375 1.96875,-5.95313 1.98438,-2.125 5.125,-2.125 3.0625,0 4.98438,2.07813 1.9375,2.0625 1.9375,5.84375 0,0.21875 -0.0156,0.67187 h -11.34375 q 0.14063,2.51563 1.42188,3.84375 1.28125,1.32813 3.17187,1.32813 1.42188,0 2.42188,-0.73438 1,-0.75 1.59375,-2.375 z m -8.46875,-4.17187 h 8.5 q -0.17188,-1.92188 -0.96875,-2.875 -1.23438,-1.5 -3.20313,-1.5 -1.76562,0 -2.98437,1.1875 -1.20313,1.1875 -1.34375,3.1875 z m 14.37341,9.0625 v -15.20313 h 2.3125 v 2.15625 q 1.67188,-2.5 4.84375,-2.5 1.375,0 2.53125,0.5 1.15625,0.48438 1.71875,1.29688 0.57813,0.79687 0.8125,1.89062 0.14063,0.71875 0.14063,2.51563 v 9.34375 h -2.57813 v -9.25 q 0,-1.57813 -0.3125,-2.35938 -0.29687,-0.78125 -1.0625,-1.23437 -0.76562,-0.46875 -1.79687,-0.46875 -1.64063,0 -2.84375,1.04687 -1.1875,1.03125 -1.1875,3.95313 v 8.3125 z m 26.71716,-4.89063 2.65625,0.32813 q -0.625,2.32812 -2.32812,3.625 -1.70313,1.28125 -4.35938,1.28125 -3.32812,0 -5.28125,-2.04688 -1.95312,-2.0625 -1.95312,-5.76562 0,-3.84375 1.96875,-5.95313 1.98437,-2.125 5.125,-2.125 3.0625,0 4.98437,2.07813 1.9375,2.0625 1.9375,5.84375 0,0.21875 -0.0156,0.67187 h -11.34375 q 0.14062,2.51563 1.42187,3.84375 1.28125,1.32813 3.17188,1.32813 1.42187,0 2.42187,-0.73438 1,-0.75 1.59375,-2.375 z m -8.46875,-4.17187 h 8.5 q -0.17187,-1.92188 -0.96875,-2.875 -1.23437,-1.5 -3.20312,-1.5 -1.76563,0 -2.98438,1.1875 -1.20312,1.1875 -1.34375,3.1875 z m 14.34217,9.0625 v -15.20313 h 2.3125 v 2.29688 q 0.89062,-1.60938 1.64062,-2.125 0.75,-0.51563 1.65625,-0.51563 1.3125,0 2.65625,0.82813 l -0.89062,2.39062 q -0.95313,-0.5625 -1.89063,-0.5625 -0.84375,0 -1.51562,0.51563 -0.67188,0.5 -0.96875,1.40625 -0.42188,1.375 -0.42188,3 v 7.96875 z m 19.7196,-1.875 q -1.4375,1.21875 -2.76562,1.71875 -1.3125,0.5 -2.82813,0.5 -2.51562,0 -3.85937,-1.21875 -1.34375,-1.23438 -1.34375,-3.14063 0,-1.10937 0.5,-2.03125 0.51562,-0.92187 1.32812,-1.48437 0.82813,-0.5625 1.85938,-0.84375 0.76562,-0.20313 2.29687,-0.39063 3.125,-0.375 4.59375,-0.89062 0.0156,-0.53125 0.0156,-0.67188 0,-1.57812 -0.73438,-2.21875 -0.98437,-0.875 -2.9375,-0.875 -1.8125,0 -2.6875,0.64063 -0.85937,0.64062 -1.26562,2.25 l -2.53125,-0.34375 q 0.34375,-1.60938 1.125,-2.60938 0.79687,-1 2.28125,-1.53125 1.5,-0.53125 3.45312,-0.53125 1.95313,0 3.17188,0.45313 1.21875,0.45312 1.78125,1.15625 0.57812,0.6875 0.8125,1.75 0.125,0.65625 0.125,2.375 v 3.4375 q 0,3.59375 0.15625,4.54687 0.17187,0.95313 0.65625,1.82813 h -2.6875 q -0.40625,-0.79688 -0.51563,-1.875 z m -0.21875,-5.75 q -1.40625,0.5625 -4.20312,0.96875 -1.59375,0.21875 -2.25,0.51562 -0.65625,0.28125 -1.01563,0.84375 -0.35937,0.54688 -0.35937,1.21875 0,1.03125 0.78125,1.71875 0.78125,0.6875 2.28125,0.6875 1.48437,0 2.64062,-0.65625 1.17188,-0.65625 1.71875,-1.78125 0.40625,-0.875 0.40625,-2.57812 z m 12.23279,5.3125 0.375,2.28125 q -1.09375,0.23437 -1.95313,0.23437 -1.40625,0 -2.1875,-0.4375 -0.76562,-0.45312 -1.07812,-1.17187 -0.3125,-0.73438 -0.3125,-3.04688 v -8.75 h -1.89063 v -2 h 1.89063 v -3.76562 l 2.5625,-1.54688 v 5.3125 h 2.59375 v 2 h -2.59375 v 8.89063 q 0,1.10937 0.125,1.42187 0.14062,0.3125 0.45312,0.5 0.3125,0.1875 0.89063,0.1875 0.42187,0 1.125,-0.10937 z m 12.92956,-2.57813 2.65625,0.32813 q -0.625,2.32812 -2.32812,3.625 -1.70313,1.28125 -4.35938,1.28125 -3.32812,0 -5.28125,-2.04688 -1.95312,-2.0625 -1.95312,-5.76562 0,-3.84375 1.96875,-5.95313 1.98437,-2.125 5.125,-2.125 3.0625,0 4.98437,2.07813 1.9375,2.0625 1.9375,5.84375 0,0.21875 -0.0156,0.67187 h -11.34375 q 0.14062,2.51563 1.42187,3.84375 1.28125,1.32813 3.17188,1.32813 1.42187,0 2.42187,-0.73438 1,-0.75 1.59375,-2.375 z m -8.46875,-4.17187 h 8.5 q -0.17187,-1.92188 -0.96875,-2.875 -1.23437,-1.5 -3.20312,-1.5 -1.76563,0 -2.98438,1.1875 -1.20312,1.1875 -1.34375,3.1875 z m 11.99842,14.89062 v -1.85937 h 17.07812 v 1.85937 z m 18.65466,-5.82812 v -15.20313 h 2.3125 v 2.29688 q 0.89063,-1.60938 1.64063,-2.125 0.75,-0.51563 1.65625,-0.51563 1.3125,0 2.65625,0.82813 l -0.89063,2.39062 q -0.95312,-0.5625 -1.89062,-0.5625 -0.84375,0 -1.51563,0.51563 -0.67187,0.5 -0.96875,1.40625 -0.42187,1.375 -0.42187,3 v 7.96875 z m 8.82898,-7.60938 q 0,-4.21875 2.35937,-6.25 1.95313,-1.6875 4.78125,-1.6875 3.125,0 5.10938,2.0625 2,2.04688 2,5.67188 0,2.92187 -0.875,4.60937 -0.875,1.6875 -2.5625,2.625 -1.6875,0.92188 -3.67188,0.92188 -3.20312,0 -5.17187,-2.04688 -1.96875,-2.04687 -1.96875,-5.90625 z m 2.65625,0 q 0,2.92188 1.26562,4.375 1.28125,1.45313 3.21875,1.45313 1.92188,0 3.1875,-1.45313 1.28125,-1.46875 1.28125,-4.45312 0,-2.82813 -1.28125,-4.28125 -1.28125,-1.45313 -3.1875,-1.45313 -1.9375,0 -3.21875,1.45313 -1.26562,1.4375 -1.26562,4.35937 z m 14.56091,7.60938 v -21 h 2.57813 v 21 z m 6.51578,0 v -21 h 2.57813 v 21 z m 5.60953,-7.60938 q 0,-4.21875 2.35937,-6.25 1.95313,-1.6875 4.78125,-1.6875 3.125,0 5.10938,2.0625 2,2.04688 2,5.67188 0,2.92187 -0.875,4.60937 -0.875,1.6875 -2.5625,2.625 -1.6875,0.92188 -3.67188,0.92188 -3.20312,0 -5.17187,-2.04688 -1.96875,-2.04687 -1.96875,-5.90625 z m 2.65625,0 q 0,2.92188 1.26562,4.375 1.28125,1.45313 3.21875,1.45313 1.92188,0 3.1875,-1.45313 1.28125,-1.46875 1.28125,-4.45312 0,-2.82813 -1.28125,-4.28125 -1.28125,-1.45313 -3.1875,-1.45313 -1.9375,0 -3.21875,1.45313 -1.26562,1.4375 -1.26562,4.35937 z m 24.59219,7.60938 v -2.23438 q -1.78125,2.57813 -4.82812,2.57813 -1.34375,0 -2.51563,-0.51563 -1.17187,-0.51562 -1.73437,-1.29687 -0.5625,-0.78125 -0.79688,-1.90625 -0.15625,-0.76563 -0.15625,-2.40625 v -9.42188 h 2.57813 v 8.42188 q 0,2.03125 0.15625,2.73437 0.25,1.01563 1.03125,1.59375 0.79687,0.57813 1.95312,0.57813 1.15625,0 2.17188,-0.59375 1.01562,-0.59375 1.4375,-1.60938 0.42187,-1.03125 0.42187,-2.98437 v -8.14063 h 2.57813 v 15.20313 z m 11.96716,-2.3125 0.375,2.28125 q -1.09375,0.23437 -1.95312,0.23437 -1.40625,0 -2.1875,-0.4375 -0.76563,-0.45312 -1.07813,-1.17187 -0.3125,-0.73438 -0.3125,-3.04688 v -8.75 h -1.89062 v -2 h 1.89062 v -3.76562 l 2.5625,-1.54688 v 5.3125 h 2.59375 v 2 h -2.59375 v 8.89063 q 0,1.10937 0.125,1.42187 0.14063,0.3125 0.45313,0.5 0.3125,0.1875 0.89062,0.1875 0.42188,0 1.125,-0.10937 z"
       fill="#000000" />
    <path
       id="path937"
       fill-rule="evenodd"
       d="M 304.2546,305.40945 H 557.23095 V 413.31497 H 304.2546 Z"
       fill="#fff2cc" />
    <path
       id="path939"
       fill-rule="evenodd"
       d="M 304.2546,305.40945 H 557.23095 V 413.31497 H 304.2546 Z"
       stroke-linecap="butt"
       stroke-linejoin="round"
       stroke-width="1"
       stroke="#000000" />
    <path
       id="path941"
       fill-rule="evenodd"
       d="M 625.3754,200.96063 H 878.35178 V 327.98425 H 625.3754 Z"
       fill="#ffffff" />
    <path
       id="path943"
       fill-rule="evenodd"
       d="M 625.3754,200.96063 H 878.35178 V 327.98425 H 625.3754 Z"
       stroke-linecap="butt"
       stroke-linejoin="round"
       stroke-width="1"
       stroke="#000000" />
    <path
       id="path945"
       fill-rule="nonzero"
       d="m 708.93274,275.13245 v -15.20313 h 2.3125 v 2.29688 q 0.89062,-1.60938 1.64062,-2.125 0.75,-0.51563 1.65625,-0.51563 1.3125,0 2.65625,0.82813 l -0.89062,2.39062 q -0.95313,-0.5625 -1.89063,-0.5625 -0.84375,0 -1.51562,0.51563 -0.67188,0.5 -0.96875,1.40625 -0.42188,1.375 -0.42188,3 v 7.96875 z m 20.20404,-4.89063 2.65625,0.32813 q -0.625,2.32812 -2.32813,3.625 -1.70312,1.28125 -4.35937,1.28125 -3.32813,0 -5.28125,-2.04688 -1.95313,-2.0625 -1.95313,-5.76562 0,-3.84375 1.96875,-5.95313 1.98438,-2.125 5.125,-2.125 3.0625,0 4.98438,2.07813 1.9375,2.0625 1.9375,5.84375 0,0.21875 -0.0156,0.67187 H 720.5274 q 0.14063,2.51563 1.42188,3.84375 1.28125,1.32813 3.17187,1.32813 1.42188,0 2.42188,-0.73438 1,-0.75 1.59375,-2.375 z m -8.46875,-4.17187 h 8.5 q -0.17188,-1.92188 -0.96875,-2.875 -1.23438,-1.5 -3.20313,-1.5 -1.76562,0 -2.98437,1.1875 -1.20313,1.1875 -1.34375,3.1875 z m 24.23279,9.0625 v -1.92188 q -1.4375,2.26563 -4.25,2.26563 -1.8125,0 -3.34375,-1 -1.53125,-1 -2.375,-2.79688 -0.82813,-1.79687 -0.82813,-4.14062 0,-2.26563 0.75,-4.125 0.76563,-1.85938 2.28125,-2.84375 1.53125,-0.98438 3.40625,-0.98438 1.375,0 2.4375,0.57813 1.07813,0.57812 1.75,1.5 v -7.53125 h 2.5625 v 21 z m -8.14063,-7.59375 q 0,2.92187 1.21875,4.375 1.23438,1.4375 2.92188,1.4375 1.6875,0 2.85937,-1.375 1.1875,-1.39063 1.1875,-4.21875 0,-3.125 -1.20312,-4.57813 -1.20313,-1.46875 -2.96875,-1.46875 -1.71875,0 -2.875,1.40625 -1.14063,1.40625 -1.14063,4.42188 z m 24.56085,7.59375 v -2.23438 q -1.78125,2.57813 -4.82812,2.57813 -1.34375,0 -2.51563,-0.51563 -1.17181,-0.51562 -1.73431,-1.29687 -0.5625,-0.78125 -0.79687,-1.90625 -0.15625,-0.76563 -0.15625,-2.40625 v -9.42188 h 2.57806 v 8.42188 q 0,2.03125 0.15625,2.73437 0.25,1.01563 1.03125,1.59375 0.79687,0.57813 1.95312,0.57813 1.15625,0 2.17188,-0.59375 1.01562,-0.59375 1.4375,-1.60938 0.42187,-1.03125 0.42187,-2.98437 v -8.14063 h 2.57813 v 15.20313 z m 16.26404,-5.57813 2.53125,0.34375 q -0.40625,2.60938 -2.125,4.09375 -1.71875,1.48438 -4.20312,1.48438 -3.125,0 -5.03125,-2.03125 -1.89063,-2.04688 -1.89063,-5.85938 0,-2.46875 0.8125,-4.3125 0.82813,-1.84375 2.48438,-2.76562 1.67187,-0.92188 3.64062,-0.92188 2.46875,0 4.04688,1.25 1.57812,1.25 2.03125,3.5625 l -2.51563,0.375 q -0.35937,-1.53125 -1.26562,-2.29687 -0.90625,-0.78125 -2.20313,-0.78125 -1.9375,0 -3.15625,1.40625 -1.21875,1.39062 -1.21875,4.40625 0,3.07812 1.17188,4.46875 1.17187,1.375 3.0625,1.375 1.51562,0 2.53125,-0.92188 1.01562,-0.9375 1.29687,-2.875 z m 15.14844,0.6875 2.65625,0.32813 q -0.625,2.32812 -2.32812,3.625 -1.70313,1.28125 -4.35938,1.28125 -3.32812,0 -5.28125,-2.04688 -1.95312,-2.0625 -1.95312,-5.76562 0,-3.84375 1.96875,-5.95313 1.98437,-2.125 5.125,-2.125 3.0625,0 4.98437,2.07813 1.9375,2.0625 1.9375,5.84375 0,0.21875 -0.0156,0.67187 h -11.34375 q 0.14062,2.51563 1.42187,3.84375 1.28125,1.32813 3.17188,1.32813 1.42187,0 2.42187,-0.73438 1,-0.75 1.59375,-2.375 z m -8.46875,-4.17187 h 8.5 q -0.17187,-1.92188 -0.96875,-2.875 -1.23437,-1.5 -3.20312,-1.5 -1.76563,0 -2.98438,1.1875 -1.20312,1.1875 -1.34375,3.1875 z"
       fill="#000000" />
    <path
       id="path947"
       fill-rule="evenodd"
       d="M 625.3758,305.40945 H 878.35218 V 413.31497 H 625.3758 Z"
       fill="#fff2cc" />
    <path
       id="path949"
       fill-rule="evenodd"
       d="M 625.3758,305.40945 H 878.35218 V 413.31497 H 625.3758 Z"
       stroke-linecap="butt"
       stroke-linejoin="round"
       stroke-width="1"
       stroke="#000000" />
    <path
       id="path951"
       fill-rule="evenodd"
       d="M 460.31424,548.055 H 713.29065 V 675.07862 H 460.31424 Z"
       fill="#ffffff" />
    <path
       id="path953"
       fill-rule="evenodd"
       d="M 460.31424,548.055 H 713.29065 V 675.07862 H 460.31424 Z"
       stroke-linecap="butt"
       stroke-linejoin="round"
       stroke-width="1"
       stroke="#000000" />
    <path
       id="path955"
       fill-rule="nonzero"
       d="m 549.96625,622.2268 v -21 h 7.23437 q 2.4375,0 3.73438,0.3125 1.79687,0.40625 3.07812,1.5 1.65625,1.40625 2.48438,3.59375 0.82812,2.17188 0.82812,4.98438 0,2.39062 -0.5625,4.23437 -0.5625,1.84375 -1.4375,3.0625 -0.875,1.20313 -1.92187,1.90625 -1.03125,0.6875 -2.5,1.04688 -1.45313,0.35937 -3.35938,0.35937 z m 2.78125,-2.48437 h 4.46875 q 2.07812,0 3.26562,-0.375 1.1875,-0.39063 1.89063,-1.09375 0.98437,-0.98438 1.53125,-2.65625 0.54687,-1.67188 0.54687,-4.04688 0,-3.29687 -1.07812,-5.0625 -1.07813,-1.76562 -2.625,-2.375 -1.125,-0.42187 -3.59375,-0.42187 h -4.40625 z m 18.03925,2.48437 v -15.20312 h 2.3125 v 2.29687 q 0.89062,-1.60937 1.64062,-2.125 0.75,-0.51562 1.65625,-0.51562 1.3125,0 2.65625,0.82812 l -0.89062,2.39063 q -0.95313,-0.5625 -1.89063,-0.5625 -0.84375,0 -1.51562,0.51562 -0.67188,0.5 -0.96875,1.40625 -0.42188,1.375 -0.42188,3 v 7.96875 z m 9.81335,-18.03125 v -2.96875 h 2.57813 v 2.96875 z m 0,18.03125 v -15.20312 h 2.57813 v 15.20312 z m 10.71893,0 -5.78125,-15.20312 h 2.71875 l 3.26563,9.10937 q 0.53125,1.46875 0.96875,3.0625 0.34375,-1.20312 0.96875,-2.89062 l 3.375,-9.28125 h 2.65625 l -5.76563,15.20312 z m 20.85157,-4.89062 2.65625,0.32812 q -0.625,2.32813 -2.32813,3.625 -1.70312,1.28125 -4.35937,1.28125 -3.32813,0 -5.28125,-2.04687 -1.95313,-2.0625 -1.95313,-5.76563 0,-3.84375 1.96875,-5.95312 1.98438,-2.125 5.125,-2.125 3.0625,0 4.98438,2.07812 1.9375,2.0625 1.9375,5.84375 0,0.21875 -0.0156,0.67188 h -11.34375 q 0.14063,2.51562 1.42188,3.84375 1.28125,1.32812 3.17187,1.32812 1.42188,0 2.42188,-0.73437 1,-0.75 1.59375,-2.375 z m -8.46875,-4.17188 h 8.5 q -0.17188,-1.92187 -0.96875,-2.875 -1.23438,-1.5 -3.20313,-1.5 -1.76562,0 -2.98437,1.1875 -1.20313,1.1875 -1.34375,3.1875 z m 14.34216,9.0625 v -15.20312 h 2.3125 v 2.29687 q 0.89062,-1.60937 1.64062,-2.125 0.75,-0.51562 1.65625,-0.51562 1.3125,0 2.65625,0.82812 l -0.89062,2.39063 q -0.95313,-0.5625 -1.89063,-0.5625 -0.84375,0 -1.51562,0.51562 -0.67188,0.5 -0.96875,1.40625 -0.42188,1.375 -0.42188,3 v 7.96875 z"
       fill="#000000" />
    <path
       id="path957"
       fill-rule="evenodd"
       d="M 460.31445,454.08398 H 713.29083 V 561.9895 H 460.31445 Z"
       fill="#fff2cc" />
    <path
       id="path959"
       fill-rule="evenodd"
       d="M 460.31445,454.08398 H 713.29083 V 561.9895 H 460.31445 Z"
       stroke-linecap="butt"
       stroke-linejoin="round"
       stroke-width="1"
       stroke="#000000" />
    <path
       id="path961"
       fill-rule="evenodd"
       d="m 362.6168,337.47528 v 0 c 0,-5.90274 4.78513,-10.68787 10.6879,-10.68787 h 131.31714 c 2.83459,0 5.5531,1.12604 7.55749,3.13041 2.00434,2.00436 3.13037,4.72287 3.13037,7.55746 v 42.75021 c 0,5.90278 -4.78509,10.6879 -10.68786,10.6879 H 373.3047 c -5.90277,0 -10.6879,-4.78512 -10.6879,-10.6879 z"
       fill="#f6b26b" />
    <path
       id="path963"
       fill-rule="evenodd"
       d="m 362.6168,337.47528 v 0 c 0,-5.90274 4.78513,-10.68787 10.6879,-10.68787 h 131.31714 c 2.83459,0 5.5531,1.12604 7.55749,3.13041 2.00434,2.00436 3.13037,4.72287 3.13037,7.55746 v 42.75021 c 0,5.90278 -4.78509,10.6879 -10.68786,10.6879 H 373.3047 c -5.90277,0 -10.6879,-4.78512 -10.6879,-10.6879 z"
       stroke-linecap="butt"
       stroke-linejoin="round"
       stroke-width="1"
       stroke="#000000" />
    <path
       id="path965"
       fill-rule="nonzero"
       d="m 403.27966,353.33038 v -15.14063 h 3.07812 v 12.5625 h 7.65625 v 2.57813 z m 26.69995,0 h -3.34375 l -1.32812,-3.46875 h -6.10938 l -1.26562,3.46875 h -3.26563 l 5.95313,-15.26563 h 3.25 z m -5.67187,-6.04688 -2.09375,-5.65625 -2.0625,5.65625 z m 7.32437,6.04688 v -15.26563 h 6.48437 q 2.45313,0 3.5625,0.42188 1.10938,0.40625 1.76563,1.45312 0.67187,1.04688 0.67187,2.40625 0,1.71875 -1.01562,2.84375 -1,1.10938 -3.01563,1.40625 1,0.57813 1.64063,1.28125 0.65625,0.6875 1.76562,2.46875 l 1.85938,2.98438 h -3.6875 l -2.21875,-3.32813 q -1.1875,-1.78125 -1.625,-2.23437 -0.4375,-0.46875 -0.9375,-0.64063 -0.48438,-0.17187 -1.54688,-0.17187 h -0.625 v 6.375 z m 3.07812,-8.8125 h 2.28125 q 2.21875,0 2.76563,-0.1875 0.5625,-0.1875 0.875,-0.64063 0.3125,-0.46875 0.3125,-1.14062 0,-0.78125 -0.42188,-1.25 -0.40625,-0.46875 -1.15625,-0.59375 -0.375,-0.0625 -2.25,-0.0625 h -2.40625 z m 19.41812,3.20312 v -2.57812 h 6.64063 v 6.07812 q -0.96875,0.9375 -2.8125,1.65625 -1.82813,0.71875 -3.71875,0.71875 -2.39063,0 -4.17188,-1 -1.78125,-1.01562 -2.6875,-2.875 -0.89062,-1.875 -0.89062,-4.07812 0,-2.39063 1,-4.23438 1,-1.85937 2.9375,-2.84375 1.46875,-0.76562 3.65625,-0.76562 2.82812,0 4.42187,1.20312 1.60938,1.1875 2.0625,3.29688 l -3.0625,0.5625 q -0.3125,-1.125 -1.20312,-1.76563 -0.89063,-0.65625 -2.21875,-0.65625 -2.03125,0 -3.21875,1.28125 -1.1875,1.28125 -1.1875,3.79688 0,2.71875 1.20312,4.07812 1.20313,1.35938 3.17188,1.35938 0.96875,0 1.9375,-0.375 0.96875,-0.39063 1.67187,-0.92188 v -1.9375 z m 9.48032,5.60938 v -15.26563 h 11.32812 v 2.57813 h -8.23437 v 3.39062 h 7.65625 v 2.5625 h -7.65625 v 4.15625 h 8.51562 v 2.57813 z"
       fill="#000000" />
    <path
       id="path967"
       fill-rule="nonzero"
       d="m 396.63007,371.7835 q 0,-2.32813 0.70312,-3.90625 0.51563,-1.17188 1.42188,-2.09375 0.90625,-0.92188 1.96875,-1.375 1.4375,-0.60938 3.29687,-0.60938 3.375,0 5.39063,2.09375 2.03125,2.09375 2.03125,5.82813 0,3.6875 -2.01563,5.78125 -2,2.09375 -5.35937,2.09375 -3.40625,0 -5.42188,-2.07813 -2.01562,-2.07812 -2.01562,-5.73437 z m 3.1875,-0.0937 q 0,2.59375 1.1875,3.9375 1.20312,1.32812 3.04687,1.32812 1.84375,0 3.01563,-1.32812 1.1875,-1.32813 1.1875,-3.98438 0,-2.625 -1.15625,-3.90625 -1.14063,-1.29687 -3.04688,-1.29687 -1.90625,0 -3.07812,1.3125 -1.15625,1.29687 -1.15625,3.9375 z m 14.04282,-7.625 h 6.10937 q 1.8125,0 2.6875,0.15625 0.89063,0.14062 1.59375,0.625 0.70313,0.48437 1.17188,1.28125 0.46875,0.79687 0.46875,1.78125 0,1.0625 -0.57813,1.96875 -0.57812,0.89062 -1.5625,1.34375 1.39063,0.40625 2.14063,1.39062 0.75,0.96875 0.75,2.29688 0,1.03125 -0.48438,2.01562 -0.48437,0.98438 -1.32812,1.57813 -0.82813,0.59375 -2.04688,0.71875 -0.78125,0.0937 -3.71875,0.10937 h -5.20312 z m 3.07812,2.54687 v 3.51563 h 2.03125 q 1.79688,0 2.23438,-0.0469 0.79687,-0.0937 1.25,-0.54687 0.45312,-0.45313 0.45312,-1.1875 0,-0.70313 -0.39062,-1.14063 -0.39063,-0.45312 -1.17188,-0.54687 -0.45312,-0.0469 -2.625,-0.0469 z m 0,6.0625 v 4.07813 h 2.85938 q 1.67187,0 2.10937,-0.0937 0.6875,-0.125 1.10938,-0.60938 0.4375,-0.48437 0.4375,-1.29687 0,-0.6875 -0.32813,-1.15625 -0.32812,-0.48438 -0.96875,-0.70313 -0.625,-0.21875 -2.71875,-0.21875 z m 17.82437,-8.60937 h 3.07813 v 9.65625 q 0,1.90625 -0.34375,2.92187 -0.4375,1.32813 -1.625,2.14063 -1.17188,0.8125 -3.09375,0.8125 -2.26563,0 -3.48438,-1.26563 -1.21875,-1.26562 -1.23437,-3.71875 l 2.90625,-0.32812 q 0.0625,1.3125 0.39062,1.84375 0.5,0.82812 1.51563,0.82812 1.03125,0 1.45312,-0.57812 0.4375,-0.59375 0.4375,-2.45313 z m 6.34607,15.26562 V 364.0648 h 11.32813 v 2.57812 h -8.23438 v 3.39063 h 7.65625 v 2.5625 h -7.65625 v 4.15625 h 8.51563 v 2.57812 z m 23.99133,-5.60937 3,0.9375 q -0.6875,2.5 -2.29687,3.71875 -1.59375,1.21875 -4.04688,1.21875 -3.04687,0 -5,-2.07813 -1.95312,-2.07812 -1.95312,-5.6875 0,-3.8125 1.96875,-5.92187 1.96875,-2.10938 5.17187,-2.10938 2.79688,0 4.54688,1.65625 1.04687,0.98438 1.5625,2.8125 l -3.04688,0.73438 q -0.28125,-1.1875 -1.14062,-1.875 -0.84375,-0.6875 -2.07813,-0.6875 -1.70312,0 -2.76562,1.21875 -1.04688,1.21875 -1.04688,3.9375 0,2.90625 1.03125,4.14062 1.04688,1.21875 2.71875,1.21875 1.23438,0 2.10938,-0.78125 0.89062,-0.78125 1.26562,-2.45312 z m 9.07438,5.60937 v -12.6875 h -4.53125 v -2.57812 h 12.14062 v 2.57812 h -4.51562 v 12.6875 z"
       fill="#000000" />
    <path
       id="path969"
       fill-rule="evenodd"
       d="M 428.44095,382.77692 510.4567,508.03675"
       fill-opacity="0"
       fill="#000000" />
    <path
       id="path971"
       fill-rule="evenodd"
       d="m 428.44095,382.77692 68.86883,105.181"
       stroke-linecap="butt"
       stroke-linejoin="round"
       stroke-width="4"
       stroke="#000000" />
    <path
       id="path973"
       fill-rule="evenodd"
       d="m 491.78232,491.57712 15.47113,11.56741 -4.4162,-18.80578 z"
       stroke-linecap="butt"
       stroke-width="4"
       stroke="#000000"
       fill="#000000" />
    <path
       id="path975"
       fill-rule="evenodd"
       d="m 663.1496,508.03674 88.72443,-94.70865"
       fill-opacity="0"
       fill="#000000" />
    <path
       id="path977"
       fill-rule="evenodd"
       d="m 663.1496,508.03674 72.31622,-77.19379"
       stroke-linecap="butt"
       stroke-linejoin="round"
       stroke-width="4"
       stroke="#000000" />
    <path
       id="path979"
       fill-rule="evenodd"
       d="m 740.2875,435.35995 7.58868,-17.76437 -17.23199,8.7304 z"
       stroke-linecap="butt"
       stroke-width="4"
       stroke="#000000"
       fill="#000000" />
    <path
       id="path981"
       fill-rule="evenodd"
       d="m 471.31497,119.51181 h 378.70865 v 81.44882 H 471.31497 Z"
       fill-opacity="0"
       fill="#000000" />
    <path
       id="path983"
       fill-rule="nonzero"
       d="m 480.25247,166.9118 11,-28.64063 h 4.07813 l 11.71875,28.64063 h -4.3125 l -3.34375,-8.67188 h -11.96875 l -3.14063,8.67188 z m 8.26563,-11.76563 h 9.70312 l -2.98437,-7.92187 q -1.35938,-3.60938 -2.03125,-5.9375 -0.54688,2.75 -1.54688,5.46875 z m 21.11718,11.76563 v -20.75 h 3.15622 v 2.95312 q 2.29688,-3.42187 6.60938,-3.42187 1.875,0 3.4375,0.6875 1.57812,0.67187 2.35937,1.76562 0.78125,1.09375 1.09375,2.59375 0.20313,0.96875 0.20313,3.42188 v 12.75 H 522.979 v -12.625 q 0,-2.14063 -0.42187,-3.20313 -0.40625,-1.0625 -1.45313,-1.70312 -1.04687,-0.64063 -2.45312,-0.64063 -2.23438,0 -3.875,1.4375 -1.625,1.42188 -1.625,5.40625 v 11.32813 z m 29.91794,-3.14063 0.51563,3.09375 q -1.48438,0.32813 -2.65625,0.32813 -1.92188,0 -2.98438,-0.60938 -1.04687,-0.60937 -1.48437,-1.59375 -0.42188,-0.98437 -0.42188,-4.15625 v -11.9375 h -2.57812 v -2.73437 h 2.57812 v -5.125 l 3.5,-2.10938 v 7.23438 h 3.53125 v 2.73437 h -3.53125 v 12.14063 q 0,1.5 0.1875,1.9375 0.1875,0.42187 0.59375,0.67187 0.42188,0.25 1.20313,0.25 0.59375,0 1.54687,-0.125 z m 3.45703,-21.45312 v -4.04688 h 3.51563 v 4.04688 z m 0,24.59375 v -20.75 h 3.51563 v 20.75 z m 7.4961,-8.59375 v -3.53125 h 10.8125 v 3.53125 z m 14.69531,16.54687 V 146.1618 h 3.20312 v 2.70312 q 1.125,-1.57812 2.54688,-2.375 1.4375,-0.79687 3.46875,-0.79687 2.65625,0 4.6875,1.375 2.03125,1.35937 3.0625,3.85937 1.03125,2.48438 1.03125,5.45313 0,3.1875 -1.14063,5.73437 -1.14062,2.54688 -3.32812,3.90625 -2.17188,1.35938 -4.5625,1.35938 -1.76563,0 -3.17188,-0.73438 -1.39062,-0.75 -2.28125,-1.89062 v 10.10937 z m 3.1875,-18.20312 q 0,4 1.60937,5.92187 1.625,1.90625 3.9375,1.90625 2.34375,0 4,-1.98437 1.67188,-1.98438 1.67188,-6.14063 0,-3.96875 -1.625,-5.9375 -1.625,-1.96875 -3.89063,-1.96875 -2.25,0 -3.98437,2.09375 -1.71875,2.09375 -1.71875,6.10938 z m 32.58984,7.6875 q -1.95312,1.65625 -3.76562,2.34375 -1.79688,0.6875 -3.875,0.6875 -3.40625,0 -5.25,-1.67188 -1.82813,-1.67187 -1.82813,-4.26562 0,-1.53125 0.6875,-2.78125 0.6875,-1.26563 1.8125,-2.01563 1.125,-0.76562 2.53125,-1.15625 1.03125,-0.28125 3.125,-0.53125 4.26563,-0.51562 6.26563,-1.21875 0.0312,-0.71875 0.0312,-0.90625 0,-2.15625 -1,-3.03125 -1.34375,-1.1875 -4,-1.1875 -2.48438,0 -3.67188,0.875 -1.17187,0.85938 -1.75,3.0625 l -3.4375,-0.46875 q 0.46875,-2.20312 1.54688,-3.5625 1.07812,-1.35937 3.10937,-2.09375 2.03125,-0.73437 4.70313,-0.73437 2.65625,0 4.3125,0.625 1.67187,0.625 2.45312,1.57812 0.78125,0.95313 1.09375,2.39063 0.17188,0.90625 0.17188,3.25 v 4.6875 q 0,4.89062 0.21875,6.20312 0.23437,1.29688 0.89062,2.48438 h -3.67187 q -0.54688,-1.09375 -0.70313,-2.5625 z m -0.29687,-7.84375 q -1.90625,0.78125 -5.73438,1.32812 -2.17187,0.3125 -3.07812,0.70313 -0.89063,0.39062 -1.375,1.14062 -0.48438,0.75 -0.48438,1.67188 0,1.40625 1.0625,2.34375 1.0625,0.9375 3.10938,0.9375 2.03125,0 3.60937,-0.89063 1.59375,-0.89062 2.32813,-2.4375 0.5625,-1.1875 0.5625,-3.51562 z m 16.68359,7.26562 0.51563,3.09375 q -1.48438,0.32813 -2.65625,0.32813 -1.92188,0 -2.98438,-0.60938 -1.04687,-0.60937 -1.48437,-1.59375 -0.42188,-0.98437 -0.42188,-4.15625 v -11.9375 h -2.57812 v -2.73437 h 2.57812 v -5.125 l 3.5,-2.10938 v 7.23438 h 3.53125 v 2.73437 h -3.53125 v 12.14063 q 0,1.5 0.1875,1.9375 0.1875,0.42187 0.59375,0.67187 0.42188,0.25 1.20313,0.25 0.59375,0 1.54687,-0.125 z m 11.11328,0 0.51563,3.09375 q -1.48438,0.32813 -2.65625,0.32813 -1.92188,0 -2.98438,-0.60938 -1.04687,-0.60937 -1.48437,-1.59375 -0.42188,-0.98437 -0.42188,-4.15625 v -11.9375 h -2.57812 v -2.73437 h 2.57812 v -5.125 l 3.5,-2.10938 v 7.23438 h 3.53125 v 2.73437 h -3.53125 v 12.14063 q 0,1.5 0.1875,1.9375 0.1875,0.42187 0.59375,0.67187 0.42188,0.25 1.20313,0.25 0.59375,0 1.54687,-0.125 z m 17.64453,-3.54687 3.625,0.45312 q -0.85937,3.1875 -3.1875,4.95313 -2.3125,1.75 -5.9375,1.75 -4.54687,0 -7.21875,-2.79688 -2.65625,-2.8125 -2.65625,-7.875 0,-5.23437 2.6875,-8.125 2.70313,-2.89062 7,-2.89062 4.15625,0 6.79688,2.84375 2.64062,2.82812 2.64062,7.96875 0,0.3125 -0.0312,0.9375 h -15.46875 q 0.20313,3.40625 1.9375,5.23437 1.73438,1.8125 4.34375,1.8125 1.92188,0 3.28125,-1.01562 1.375,-1.01563 2.1875,-3.25 z m -11.54687,-5.67188 h 11.57812 q -0.23437,-2.625 -1.32812,-3.9375 -1.67188,-2.03125 -4.35938,-2.03125 -2.42187,0 -4.07812,1.625 -1.64063,1.625 -1.8125,4.34375 z m 19.54297,12.35938 v -20.75 h 3.17187 v 3.15625 q 1.20313,-2.21875 2.23438,-2.92188 1.03125,-0.70312 2.25,-0.70312 1.78125,0 3.625,1.14062 l -1.21875,3.26563 q -1.28125,-0.76563 -2.57813,-0.76563 -1.15625,0 -2.07812,0.70313 -0.90625,0.6875 -1.29688,1.90625 -0.59375,1.875 -0.59375,4.10937 v 10.85938 z m 13.36718,0 v -20.75 h 3.15625 v 2.95312 q 2.29688,-3.42187 6.60938,-3.42187 1.875,0 3.4375,0.6875 1.57812,0.67187 2.35937,1.76562 0.78125,1.09375 1.09375,2.59375 0.20313,0.96875 0.20313,3.42188 v 12.75 h -3.51563 v -12.625 q 0,-2.14063 -0.42187,-3.20313 -0.40625,-1.0625 -1.45313,-1.70312 -1.04687,-0.64063 -2.45312,-0.64063 -2.23438,0 -3.875,1.4375 -1.625,1.42188 -1.625,5.40625 v 11.32813 z"
       fill="#000000" />
    <path
       id="path985"
       fill-rule="evenodd"
       d="m 675.5171,347.15244 v 0 c 0,-5.90274 4.78509,-10.68787 10.68787,-10.68787 h 131.31714 c 2.83459,0 5.5531,1.12604 7.55749,3.13041 2.00433,2.00436 3.13037,4.72287 3.13037,7.55746 v 42.75024 c 0,5.90274 -4.78509,10.68787 -10.68786,10.68787 H 686.20497 c -5.90278,0 -10.68787,-4.78513 -10.68787,-10.68787 z"
       fill="#f6b26b" />
    <path
       id="path987"
       fill-rule="evenodd"
       d="m 675.5171,347.15244 v 0 c 0,-5.90274 4.78509,-10.68787 10.68787,-10.68787 h 131.31714 c 2.83459,0 5.5531,1.12604 7.55749,3.13041 2.00433,2.00436 3.13037,4.72287 3.13037,7.55746 v 42.75024 c 0,5.90274 -4.78509,10.68787 -10.68786,10.68787 H 686.20497 c -5.90278,0 -10.68787,-4.78513 -10.68787,-10.68787 z"
       stroke-linecap="butt"
       stroke-linejoin="round"
       stroke-width="1"
       stroke="#000000" />
    <path
       id="path989"
       fill-rule="nonzero"
       d="m 716.17993,363.00757 v -15.14063 h 3.07813 v 12.5625 h 7.65625 v 2.57813 z m 26.69995,0 h -3.34375 l -1.32812,-3.46875 h -6.10938 l -1.26562,3.46875 h -3.26563 l 5.95313,-15.26563 h 3.25 z m -5.67187,-6.04688 -2.09375,-5.65625 -2.0625,5.65625 z m 7.32434,6.04688 v -15.26563 h 6.48437 q 2.45313,0 3.5625,0.42188 1.10938,0.40625 1.76563,1.45312 0.67187,1.04688 0.67187,2.40625 0,1.71875 -1.01562,2.84375 -1,1.10938 -3.01563,1.40625 1,0.57813 1.64063,1.28125 0.65625,0.6875 1.76562,2.46875 l 1.85938,2.98438 h -3.6875 l -2.21875,-3.32813 q -1.1875,-1.78125 -1.625,-2.23437 -0.4375,-0.46875 -0.9375,-0.64063 -0.48438,-0.17187 -1.54688,-0.17187 h -0.625 v 6.375 z m 3.07812,-8.8125 h 2.28125 q 2.21875,0 2.76563,-0.1875 0.5625,-0.1875 0.875,-0.64063 0.3125,-0.46875 0.3125,-1.14062 0,-0.78125 -0.42188,-1.25 -0.40625,-0.46875 -1.15625,-0.59375 -0.375,-0.0625 -2.25,-0.0625 h -2.40625 z m 19.41815,3.20312 v -2.57812 h 6.64063 v 6.07812 q -0.96875,0.9375 -2.8125,1.65625 -1.82813,0.71875 -3.71875,0.71875 -2.39063,0 -4.17188,-1 -1.78125,-1.01562 -2.6875,-2.875 -0.89062,-1.875 -0.89062,-4.07812 0,-2.39063 1,-4.23438 1,-1.85937 2.9375,-2.84375 1.46875,-0.76562 3.65625,-0.76562 2.82812,0 4.42187,1.20312 1.60938,1.1875 2.0625,3.29688 l -3.0625,0.5625 q -0.3125,-1.125 -1.20312,-1.76563 -0.89063,-0.65625 -2.21875,-0.65625 -2.03125,0 -3.21875,1.28125 -1.1875,1.28125 -1.1875,3.79688 0,2.71875 1.20312,4.07812 1.20313,1.35938 3.17188,1.35938 0.96875,0 1.9375,-0.375 0.96875,-0.39063 1.67187,-0.92188 v -1.9375 z m 9.48029,5.60938 v -15.26563 h 11.32813 v 2.57813 h -8.23438 v 3.39062 h 7.65625 v 2.5625 h -7.65625 v 4.15625 h 8.51563 v 2.57813 z"
       fill="#000000" />
    <path
       id="path991"
       fill-rule="nonzero"
       d="m 709.53033,381.4607 q 0,-2.32813 0.70313,-3.90625 0.51562,-1.17188 1.42187,-2.09375 0.90625,-0.92188 1.96875,-1.375 1.4375,-0.60938 3.29688,-0.60938 3.375,0 5.39062,2.09375 2.03125,2.09375 2.03125,5.82813 0,3.6875 -2.01562,5.78125 -2,2.09375 -5.35938,2.09375 -3.40625,0 -5.42187,-2.07813 -2.01563,-2.07812 -2.01563,-5.73437 z m 3.1875,-0.0937 q 0,2.59375 1.1875,3.9375 1.20313,1.32812 3.04688,1.32812 1.84375,0 3.01562,-1.32812 1.1875,-1.32813 1.1875,-3.98438 0,-2.625 -1.15625,-3.90625 -1.14062,-1.29687 -3.04687,-1.29687 -1.90625,0 -3.07813,1.3125 -1.15625,1.29687 -1.15625,3.9375 z m 14.04279,-7.625 h 6.10937 q 1.8125,0 2.6875,0.15625 0.89063,0.14062 1.59375,0.625 0.70313,0.48437 1.17188,1.28125 0.46875,0.79687 0.46875,1.78125 0,1.0625 -0.57813,1.96875 -0.57812,0.89062 -1.5625,1.34375 1.39063,0.40625 2.14063,1.39062 0.75,0.96875 0.75,2.29688 0,1.03125 -0.48438,2.01562 -0.48437,0.98438 -1.32812,1.57813 -0.82813,0.59375 -2.04688,0.71875 -0.78125,0.0937 -3.71875,0.10937 h -5.20312 z m 3.07812,2.54687 v 3.51563 h 2.03125 q 1.79688,0 2.23438,-0.0469 0.79687,-0.0937 1.25,-0.54687 0.45312,-0.45313 0.45312,-1.1875 0,-0.70313 -0.39062,-1.14063 -0.39063,-0.45312 -1.17188,-0.54687 -0.45312,-0.0469 -2.625,-0.0469 z m 0,6.0625 v 4.07813 h 2.85938 q 1.67187,0 2.10937,-0.0937 0.6875,-0.125 1.10938,-0.60938 0.4375,-0.48437 0.4375,-1.29687 0,-0.6875 -0.32813,-1.15625 -0.32812,-0.48438 -0.96875,-0.70313 -0.625,-0.21875 -2.71875,-0.21875 z m 17.8244,-8.60937 h 3.07813 v 9.65625 q 0,1.90625 -0.34375,2.92187 -0.4375,1.32813 -1.625,2.14063 -1.17188,0.8125 -3.09375,0.8125 -2.26563,0 -3.48438,-1.26563 -1.21875,-1.26562 -1.23437,-3.71875 l 2.90625,-0.32812 q 0.0625,1.3125 0.39062,1.84375 0.5,0.82812 1.51563,0.82812 1.03125,0 1.45312,-0.57812 0.4375,-0.59375 0.4375,-2.45313 z m 6.34607,15.26562 V 373.742 h 11.32813 v 2.57812 h -8.23438 v 3.39063 h 7.65625 v 2.5625 h -7.65625 v 4.15625 h 8.51563 v 2.57812 z m 23.99134,-5.60937 3,0.9375 q -0.6875,2.5 -2.29688,3.71875 -1.59375,1.21875 -4.04687,1.21875 -3.04688,0 -5,-2.07813 -1.95313,-2.07812 -1.95313,-5.6875 0,-3.8125 1.96875,-5.92187 1.96875,-2.10938 5.17188,-2.10938 2.79687,0 4.54687,1.65625 1.04688,0.98438 1.5625,2.8125 l -3.04687,0.73438 q -0.28125,-1.1875 -1.14063,-1.875 -0.84375,-0.6875 -2.07812,-0.6875 -1.70313,0 -2.76563,1.21875 -1.04687,1.21875 -1.04687,3.9375 0,2.90625 1.03125,4.14062 1.04687,1.21875 2.71875,1.21875 1.23437,0 2.10937,-0.78125 0.89063,-0.78125 1.26563,-2.45312 z m 9.07434,5.60937 v -12.6875 h -4.53125 V 373.742 h 12.14062 v 2.57812 h -4.51562 v 12.6875 z"
       fill="#000000" />
    <path
       id="path993"
       fill-rule="evenodd"
       d="m 510.4567,486.66162 v 0 c 0,-5.90274 4.78513,-10.68787 10.6879,-10.68787 h 131.31714 c 2.83459,0 5.5531,1.12604 7.55749,3.13041 2.00434,2.00436 3.13037,4.72287 3.13037,7.55746 v 42.75024 c 0,5.90278 -4.78509,10.68787 -10.68786,10.68787 H 521.1446 c -5.90277,0 -10.6879,-4.78509 -10.6879,-10.68787 z"
       fill="#f6b26b" />
    <path
       id="path995"
       fill-rule="evenodd"
       d="m 510.4567,486.66162 v 0 c 0,-5.90274 4.78513,-10.68787 10.6879,-10.68787 h 131.31714 c 2.83459,0 5.5531,1.12604 7.55749,3.13041 2.00434,2.00436 3.13037,4.72287 3.13037,7.55746 v 42.75024 c 0,5.90278 -4.78509,10.68787 -10.68786,10.68787 H 521.1446 c -5.90277,0 -10.6879,-4.78509 -10.6879,-10.68787 z"
       stroke-linecap="butt"
       stroke-linejoin="round"
       stroke-width="1"
       stroke="#000000" />
    <path
       id="path997"
       fill-rule="nonzero"
       d="m 551.11957,502.51675 v -15.14063 h 3.07812 v 12.5625 h 7.65625 v 2.57813 z m 26.69995,0 h -3.34375 l -1.32812,-3.46875 h -6.10938 l -1.26562,3.46875 h -3.26563 l 5.95313,-15.26563 h 3.25 z m -5.67187,-6.04688 -2.09375,-5.65625 -2.0625,5.65625 z m 7.32434,6.04688 v -15.26563 h 6.48437 q 2.45313,0 3.5625,0.42188 1.10938,0.40625 1.76563,1.45312 0.67187,1.04688 0.67187,2.40625 0,1.71875 -1.01562,2.84375 -1,1.10938 -3.01563,1.40625 1,0.57813 1.64063,1.28125 0.65625,0.6875 1.76562,2.46875 l 1.85938,2.98438 h -3.6875 l -2.21875,-3.32813 q -1.1875,-1.78125 -1.625,-2.23437 -0.4375,-0.46875 -0.9375,-0.64063 -0.48438,-0.17187 -1.54688,-0.17187 h -0.625 v 6.375 z m 3.07812,-8.8125 h 2.28125 q 2.21875,0 2.76563,-0.1875 0.5625,-0.1875 0.875,-0.64063 0.3125,-0.46875 0.3125,-1.14062 0,-0.78125 -0.42188,-1.25 -0.40625,-0.46875 -1.15625,-0.59375 -0.375,-0.0625 -2.25,-0.0625 h -2.40625 z m 19.41815,3.20312 v -2.57812 h 6.64063 v 6.07812 q -0.96875,0.9375 -2.8125,1.65625 -1.82813,0.71875 -3.71875,0.71875 -2.39063,0 -4.17188,-1 -1.78125,-1.01562 -2.6875,-2.875 -0.89062,-1.875 -0.89062,-4.07812 0,-2.39063 1,-4.23438 1,-1.85937 2.9375,-2.84375 1.46875,-0.76562 3.65625,-0.76562 2.82812,0 4.42187,1.20312 1.60938,1.1875 2.0625,3.29688 l -3.0625,0.5625 q -0.3125,-1.125 -1.20312,-1.76563 -0.89063,-0.65625 -2.21875,-0.65625 -2.03125,0 -3.21875,1.28125 -1.1875,1.28125 -1.1875,3.79688 0,2.71875 1.20312,4.07812 1.20313,1.35938 3.17188,1.35938 0.96875,0 1.9375,-0.375 0.96875,-0.39063 1.67187,-0.92188 v -1.9375 z m 9.48029,5.60938 v -15.26563 h 11.32812 v 2.57813 h -8.23437 v 3.39062 h 7.65625 v 2.5625 h -7.65625 v 4.15625 h 8.51562 v 2.57813 z"
       fill="#000000" />
    <path
       id="path999"
       fill-rule="nonzero"
       d="m 544.47,520.96985 q 0,-2.32813 0.70313,-3.90625 0.51562,-1.17188 1.42187,-2.09375 0.90625,-0.92188 1.96875,-1.375 1.4375,-0.60938 3.29688,-0.60938 3.375,0 5.39062,2.09375 2.03125,2.09375 2.03125,5.82813 0,3.6875 -2.01562,5.78125 -2,2.09375 -5.35938,2.09375 -3.40625,0 -5.42187,-2.07813 Q 544.47,524.6261 544.47,520.96985 Z m 3.1875,-0.0937 q 0,2.59375 1.1875,3.9375 1.20313,1.32812 3.04688,1.32812 1.84375,0 3.01562,-1.32812 1.1875,-1.32813 1.1875,-3.98438 0,-2.625 -1.15625,-3.90625 -1.14062,-1.29687 -3.04687,-1.29687 -1.90625,0 -3.07813,1.3125 -1.15625,1.29687 -1.15625,3.9375 z m 14.04279,-7.625 h 6.10937 q 1.8125,0 2.6875,0.15625 0.89063,0.14062 1.59375,0.625 0.70313,0.48437 1.17188,1.28125 0.46875,0.79687 0.46875,1.78125 0,1.0625 -0.57813,1.96875 -0.57812,0.89062 -1.5625,1.34375 1.39063,0.40625 2.14063,1.39062 0.75,0.96875 0.75,2.29688 0,1.03125 -0.48438,2.01562 -0.48437,0.98438 -1.32812,1.57813 -0.82813,0.59375 -2.04688,0.71875 -0.78125,0.0937 -3.71875,0.10937 h -5.20312 z m 3.07812,2.54687 v 3.51563 h 2.03125 q 1.79688,0 2.23438,-0.0469 0.79687,-0.0937 1.25,-0.54687 0.45312,-0.45313 0.45312,-1.1875 0,-0.70313 -0.39062,-1.14063 -0.39063,-0.45312 -1.17188,-0.54687 -0.45312,-0.0469 -2.625,-0.0469 z m 0,6.0625 v 4.07813 h 2.85938 q 1.67187,0 2.10937,-0.0937 0.6875,-0.125 1.10938,-0.60938 0.4375,-0.48437 0.4375,-1.29687 0,-0.6875 -0.32813,-1.15625 -0.32812,-0.48438 -0.96875,-0.70313 -0.625,-0.21875 -2.71875,-0.21875 z m 17.8244,-8.60937 h 3.07813 v 9.65625 q 0,1.90625 -0.34375,2.92187 -0.4375,1.32813 -1.625,2.14063 -1.17188,0.8125 -3.09375,0.8125 -2.26563,0 -3.48438,-1.26563 -1.21875,-1.26562 -1.23437,-3.71875 l 2.90625,-0.32812 q 0.0625,1.3125 0.39062,1.84375 0.5,0.82812 1.51563,0.82812 1.03125,0 1.45312,-0.57812 0.4375,-0.59375 0.4375,-2.45313 z m 6.34607,15.26562 V 513.2511 h 11.32813 v 2.57812 h -8.23438 v 3.39063 h 7.65625 v 2.5625 h -7.65625 v 4.15625 h 8.51563 v 2.57812 z m 23.99134,-5.60937 3,0.9375 q -0.6875,2.5 -2.29688,3.71875 -1.59375,1.21875 -4.04687,1.21875 -3.04688,0 -5,-2.07813 -1.95313,-2.07812 -1.95313,-5.6875 0,-3.8125 1.96875,-5.92187 1.96875,-2.10938 5.17188,-2.10938 2.79687,0 4.54687,1.65625 1.04688,0.98438 1.5625,2.8125 l -3.04687,0.73438 q -0.28125,-1.1875 -1.14063,-1.875 -0.84375,-0.6875 -2.07812,-0.6875 -1.70313,0 -2.76563,1.21875 -1.04687,1.21875 -1.04687,3.9375 0,2.90625 1.03125,4.14062 1.04687,1.21875 2.71875,1.21875 1.23437,0 2.10937,-0.78125 0.89063,-0.78125 1.26563,-2.45312 z m 9.07434,5.60937 v -12.6875 h -4.53125 v -2.57812 h 12.14062 v 2.57812 h -4.51562 v 12.6875 z"
       fill="#000000" />
    <path
       id="path1001"
       fill-rule="evenodd"
       d="m 236.12073,486.66162 v 0 c 0,-5.90274 4.78513,-10.68787 10.68788,-10.68787 h 130.9392 c 2.83463,0 5.55313,1.12604 7.5575,3.13041 2.00436,2.00436 3.1304,4.72287 3.1304,7.55746 v 42.75024 c 0,5.90278 -4.78513,10.68787 -10.6879,10.68787 h -130.9392 c -5.90276,0 -10.68788,-4.78509 -10.68788,-10.68787 z"
       fill="#ffffff" />
    <path
       id="path1003"
       fill-rule="evenodd"
       d="m 236.12073,486.66162 v 0 c 0,-5.90274 4.78513,-10.68787 10.68788,-10.68787 h 130.9392 c 2.83463,0 5.55313,1.12604 7.5575,3.13041 2.00436,2.00436 3.1304,4.72287 3.1304,7.55746 v 42.75024 c 0,5.90278 -4.78513,10.68787 -10.6879,10.68787 h -130.9392 c -5.90276,0 -10.68788,-4.78509 -10.68788,-10.68787 z"
       stroke-linecap="butt"
       stroke-linejoin="round"
       stroke-width="2"
       stroke="#3d85c6" />
    <path
       id="path1005"
       fill-rule="nonzero"
       d="m 269.03262,508.36298 q 0,-2.04688 0.60937,-3.42188 0.45313,-1.03125 1.23438,-1.82812 0.79687,-0.8125 1.73437,-1.20313 1.25,-0.53125 2.875,-0.53125 2.95313,0 4.71875,1.82813 1.78125,1.82812 1.78125,5.09375 0,3.23437 -1.76562,5.0625 -1.75,1.82812 -4.6875,1.82812 -2.98438,0 -4.75,-1.8125 -1.75,-1.82812 -1.75,-5.01562 z m 2.78125,-0.0937 q 0,2.26562 1.04687,3.4375 1.04688,1.17187 2.65625,1.17187 1.60938,0 2.64063,-1.15625 1.04687,-1.17187 1.04687,-3.48437 0,-2.29688 -1.01562,-3.42188 -1,-1.14062 -2.67188,-1.14062 -1.67187,0 -2.6875,1.15625 -1.01562,1.14062 -1.01562,3.4375 z m 12.15207,6.6875 V 501.5974 h 2.5625 v 4.8125 q 1.17187,-1.34375 2.79687,-1.34375 1.76563,0 2.92188,1.28125 1.15625,1.28125 1.15625,3.67188 0,2.48437 -1.1875,3.82812 -1.17188,1.32813 -2.85938,1.32813 -0.82812,0 -1.64062,-0.40625 -0.79688,-0.42188 -1.375,-1.23438 v 1.42188 z m 2.53125,-5.04688 q 0,1.5 0.48437,2.21875 0.65625,1.03125 1.76563,1.03125 0.84375,0 1.4375,-0.71875 0.59375,-0.73437 0.59375,-2.29687 0,-1.65625 -0.60938,-2.39063 -0.59375,-0.73437 -1.53125,-0.73437 -0.92187,0 -1.53125,0.71875 -0.60937,0.71875 -0.60937,2.17187 z m 8.91159,-5.9375 v -2.375 h 2.5625 v 2.375 z m 2.5625,1.3125 v 9.375 q 0,1.84375 -0.25,2.59375 -0.23438,0.76563 -0.92188,1.1875 -0.6875,0.4375 -1.75,0.4375 -0.39062,0 -0.82812,-0.0625 -0.4375,-0.0625 -0.95313,-0.20312 l 0.45313,-2.1875 q 0.17187,0.0312 0.34375,0.0469 0.15625,0.0312 0.29687,0.0312 0.39063,0 0.64063,-0.17187 0.25,-0.15625 0.32812,-0.40625 0.0781,-0.23438 0.0781,-1.42188 v -9.21875 z m 8.27707,6.59375 2.54687,0.42188 q -0.48437,1.40625 -1.54687,2.14062 -1.0625,0.73438 -2.65625,0.73438 -2.51563,0 -3.73438,-1.65625 -0.95312,-1.3125 -0.95312,-3.32813 0,-2.40625 1.25,-3.76562 1.26562,-1.35938 3.1875,-1.35938 2.15625,0 3.40625,1.42188 1.25,1.42187 1.1875,4.375 h -6.40625 q 0.0312,1.14062 0.60937,1.78125 0.59375,0.625 1.48438,0.625 0.59375,0 1,-0.32813 0.42187,-0.32812 0.625,-1.0625 z m 0.15625,-2.59375 q -0.0312,-1.10937 -0.57813,-1.6875 -0.54687,-0.57812 -1.32812,-0.57812 -0.84375,0 -1.39063,0.60937 -0.54687,0.60938 -0.53125,1.65625 z m 13.0632,-1.14062 -2.53125,0.45312 q -0.125,-0.75 -0.57812,-1.125 -0.45313,-0.39062 -1.17188,-0.39062 -0.95312,0 -1.53125,0.65625 -0.5625,0.65625 -0.5625,2.20312 0,1.73438 0.57813,2.4375 0.57812,0.70313 1.54687,0.70313 0.73438,0 1.20313,-0.40625 0.46875,-0.42188 0.65625,-1.42188 l 2.51562,0.42188 q -0.39062,1.73437 -1.51562,2.625 -1.10938,0.875 -2.96875,0.875 -2.125,0 -3.39063,-1.32813 -1.25,-1.34375 -1.25,-3.71875 0,-2.39062 1.26563,-3.71875 1.26562,-1.34375 3.42187,-1.34375 1.76563,0 2.79688,0.76563 1.04687,0.75 1.51562,2.3125 z m 6.37573,-2.85938 v 2.03125 h -1.75 v 3.90625 q 0,1.1875 0.0469,1.39063 0.0469,0.1875 0.21875,0.3125 0.1875,0.125 0.4375,0.125 0.35937,0 1.03125,-0.25 l 0.21875,2 q -0.89063,0.375 -2.01563,0.375 -0.70312,0 -1.26562,-0.23438 -0.54688,-0.23437 -0.8125,-0.59375 -0.25,-0.375 -0.34375,-1 -0.0937,-0.45312 -0.0937,-1.8125 v -4.21875 h -1.17188 v -2.03125 h 1.17188 v -1.92187 l 2.57812,-1.5 v 3.42187 z m 1.79081,9.67188 V 501.5974 h 5.6875 q 2.14062,0 3.10937,0.35938 0.96875,0.35937 1.54688,1.28125 0.57812,0.92187 0.57812,2.10937 0,1.5 -0.89062,2.48438 -0.875,0.96875 -2.625,1.23437 0.875,0.5 1.4375,1.125 0.57812,0.60938 1.53125,2.15625 l 1.64062,2.60938 h -3.23437 l -1.9375,-2.90625 q -1.04688,-1.5625 -1.4375,-1.96875 -0.375,-0.40625 -0.8125,-0.54688 -0.42188,-0.15625 -1.34375,-0.15625 h -0.54688 v 5.57813 z m 2.70312,-7.70313 h 2 q 1.9375,0 2.42188,-0.15625 0.48437,-0.17187 0.75,-0.57812 0.28125,-0.40625 0.28125,-1 0,-0.67188 -0.35938,-1.07813 -0.35937,-0.42187 -1.01562,-0.53125 -0.32813,-0.0469 -1.96875,-0.0469 h -2.10938 z m 16.34793,4.625 2.54688,0.42188 q -0.48438,1.40625 -1.54688,2.14062 -1.0625,0.73438 -2.65625,0.73438 -2.51562,0 -3.73437,-1.65625 -0.95313,-1.3125 -0.95313,-3.32813 0,-2.40625 1.25,-3.76562 1.26563,-1.35938 3.1875,-1.35938 2.15625,0 3.40625,1.42188 1.25,1.42187 1.1875,4.375 h -6.40625 q 0.0312,1.14062 0.60938,1.78125 0.59375,0.625 1.48437,0.625 0.59375,0 1,-0.32813 0.42188,-0.32812 0.625,-1.0625 z m 0.15625,-2.59375 q -0.0312,-1.10937 -0.57812,-1.6875 -0.54688,-0.57812 -1.32813,-0.57812 -0.84375,0 -1.39062,0.60937 -0.54688,0.60938 -0.53125,1.65625 z m 3.50073,-4 h 1.42188 v -0.73437 q 0,-1.21875 0.25,-1.8125 0.26562,-0.60938 0.95312,-0.98438 0.70313,-0.375 1.78125,-0.375 1.09375,0 2.14063,0.32813 l -0.35938,1.78125 q -0.60937,-0.14063 -1.17187,-0.14063 -0.54688,0 -0.79688,0.26563 -0.23437,0.25 -0.23437,0.98437 v 0.6875 h 1.90625 v 2.01563 h -1.90625 v 7.65625 h -2.5625 v -7.65625 h -1.42188 z"
       fill="#000000" />
    <path
       id="path1007"
       fill-rule="evenodd"
       d="m 796.9315,486.66162 v 0 c 0,-5.90274 4.78516,-10.68787 10.68787,-10.68787 h 130.93921 c 2.83459,0 5.5531,1.12604 7.55749,3.13041 2.00433,2.00436 3.13037,4.72287 3.13037,7.55746 v 42.75024 c 0,5.90278 -4.78509,10.68787 -10.68786,10.68787 H 807.61937 c -5.90271,0 -10.68787,-4.78509 -10.68787,-10.68787 z"
       fill="#ffffff" />
    <path
       id="path1009"
       fill-rule="evenodd"
       d="m 796.9315,486.66162 v 0 c 0,-5.90274 4.78516,-10.68787 10.68787,-10.68787 h 130.93921 c 2.83459,0 5.5531,1.12604 7.55749,3.13041 2.00433,2.00436 3.13037,4.72287 3.13037,7.55746 v 42.75024 c 0,5.90278 -4.78509,10.68787 -10.68786,10.68787 H 807.61937 c -5.90271,0 -10.68787,-4.78509 -10.68787,-10.68787 z"
       stroke-linecap="butt"
       stroke-linejoin="round"
       stroke-width="2"
       stroke="#3d85c6" />
    <path
       id="path1011"
       fill-rule="nonzero"
       d="m 829.84344,508.36298 q 0,-2.04688 0.60937,-3.42188 0.45313,-1.03125 1.23438,-1.82812 0.79687,-0.8125 1.73437,-1.20313 1.25,-0.53125 2.875,-0.53125 2.95313,0 4.71875,1.82813 1.78125,1.82812 1.78125,5.09375 0,3.23437 -1.76562,5.0625 -1.75,1.82812 -4.6875,1.82812 -2.98438,0 -4.75,-1.8125 -1.75,-1.82812 -1.75,-5.01562 z m 2.78125,-0.0937 q 0,2.26562 1.04687,3.4375 1.04688,1.17187 2.65625,1.17187 1.60938,0 2.64063,-1.15625 1.04687,-1.17187 1.04687,-3.48437 0,-2.29688 -1.01562,-3.42188 -1,-1.14062 -2.67188,-1.14062 -1.67187,0 -2.6875,1.15625 -1.01562,1.14062 -1.01562,3.4375 z m 12.15204,6.6875 V 501.5974 h 2.5625 v 4.8125 q 1.17187,-1.34375 2.79687,-1.34375 1.76563,0 2.92188,1.28125 1.15625,1.28125 1.15625,3.67188 0,2.48437 -1.1875,3.82812 -1.17188,1.32813 -2.85938,1.32813 -0.82812,0 -1.64062,-0.40625 -0.79688,-0.42188 -1.375,-1.23438 v 1.42188 z m 2.53125,-5.04688 q 0,1.5 0.48437,2.21875 0.65625,1.03125 1.76563,1.03125 0.84375,0 1.4375,-0.71875 0.59375,-0.73437 0.59375,-2.29687 0,-1.65625 -0.60938,-2.39063 -0.59375,-0.73437 -1.53125,-0.73437 -0.92187,0 -1.53125,0.71875 -0.60937,0.71875 -0.60937,2.17187 z m 8.91162,-5.9375 v -2.375 h 2.5625 v 2.375 z m 2.5625,1.3125 v 9.375 q 0,1.84375 -0.25,2.59375 -0.23438,0.76563 -0.92188,1.1875 -0.6875,0.4375 -1.75,0.4375 -0.39062,0 -0.82812,-0.0625 -0.4375,-0.0625 -0.95313,-0.20312 l 0.45313,-2.1875 q 0.17187,0.0312 0.34375,0.0469 0.15625,0.0312 0.29687,0.0312 0.39063,0 0.64063,-0.17187 0.25,-0.15625 0.32812,-0.40625 0.0781,-0.23438 0.0781,-1.42188 v -9.21875 z m 8.27704,6.59375 2.54687,0.42188 q -0.48437,1.40625 -1.54687,2.14062 -1.0625,0.73438 -2.65625,0.73438 -2.51563,0 -3.73438,-1.65625 -0.95312,-1.3125 -0.95312,-3.32813 0,-2.40625 1.25,-3.76562 1.26562,-1.35938 3.1875,-1.35938 2.15625,0 3.40625,1.42188 1.25,1.42187 1.1875,4.375 h -6.40625 q 0.0312,1.14062 0.60937,1.78125 0.59375,0.625 1.48438,0.625 0.59375,0 1,-0.32813 0.42187,-0.32812 0.625,-1.0625 z m 0.15625,-2.59375 q -0.0312,-1.10937 -0.57813,-1.6875 -0.54687,-0.57812 -1.32812,-0.57812 -0.84375,0 -1.39063,0.60937 -0.54687,0.60938 -0.53125,1.65625 z m 13.06323,-1.14062 -2.53125,0.45312 q -0.125,-0.75 -0.57812,-1.125 -0.45313,-0.39062 -1.17188,-0.39062 -0.95312,0 -1.53125,0.65625 -0.5625,0.65625 -0.5625,2.20312 0,1.73438 0.57813,2.4375 0.57812,0.70313 1.54687,0.70313 0.73438,0 1.20313,-0.40625 0.46875,-0.42188 0.65625,-1.42188 l 2.51562,0.42188 q -0.39062,1.73437 -1.51562,2.625 -1.10938,0.875 -2.96875,0.875 -2.125,0 -3.39063,-1.32813 -1.25,-1.34375 -1.25,-3.71875 0,-2.39062 1.26563,-3.71875 1.26562,-1.34375 3.42187,-1.34375 1.76563,0 2.79688,0.76563 1.04687,0.75 1.51562,2.3125 z m 6.37567,-2.85938 v 2.03125 h -1.75 v 3.90625 q 0,1.1875 0.0469,1.39063 0.0469,0.1875 0.21875,0.3125 0.1875,0.125 0.4375,0.125 0.35937,0 1.03125,-0.25 l 0.21875,2 q -0.89063,0.375 -2.01563,0.375 -0.70312,0 -1.26562,-0.23438 -0.54688,-0.23437 -0.8125,-0.59375 -0.25,-0.375 -0.34375,-1 -0.0937,-0.45312 -0.0937,-1.8125 v -4.21875 h -1.17188 v -2.03125 h 1.17188 v -1.92187 l 2.57812,-1.5 v 3.42187 z m 1.79083,9.67188 V 501.5974 h 5.6875 q 2.14063,0 3.10938,0.35938 0.96875,0.35937 1.54687,1.28125 0.57813,0.92187 0.57813,2.10937 0,1.5 -0.89063,2.48438 -0.875,0.96875 -2.625,1.23437 0.875,0.5 1.4375,1.125 0.57813,0.60938 1.53125,2.15625 l 1.64063,2.60938 h -3.23438 l -1.9375,-2.90625 q -1.04687,-1.5625 -1.4375,-1.96875 -0.375,-0.40625 -0.8125,-0.54688 -0.42187,-0.15625 -1.34375,-0.15625 h -0.54687 v 5.57813 z m 2.70313,-7.70313 h 2 q 1.9375,0 2.42187,-0.15625 0.48438,-0.17187 0.75,-0.57812 0.28125,-0.40625 0.28125,-1 0,-0.67188 -0.35937,-1.07813 -0.35938,-0.42187 -1.01563,-0.53125 -0.32812,-0.0469 -1.96875,-0.0469 h -2.10937 z m 16.34796,4.625 2.54688,0.42188 q -0.48438,1.40625 -1.54688,2.14062 -1.0625,0.73438 -2.65625,0.73438 -2.51562,0 -3.73437,-1.65625 -0.95313,-1.3125 -0.95313,-3.32813 0,-2.40625 1.25,-3.76562 1.26563,-1.35938 3.1875,-1.35938 2.15625,0 3.40625,1.42188 1.25,1.42187 1.1875,4.375 h -6.40625 q 0.0312,1.14062 0.60938,1.78125 0.59375,0.625 1.48437,0.625 0.59375,0 1,-0.32813 0.42188,-0.32812 0.625,-1.0625 z m 0.15625,-2.59375 q -0.0312,-1.10937 -0.57812,-1.6875 -0.54688,-0.57812 -1.32813,-0.57812 -0.84375,0 -1.39062,0.60937 -0.54688,0.60938 -0.53125,1.65625 z m 3.50067,-4 h 1.42188 v -0.73437 q 0,-1.21875 0.25,-1.8125 0.26562,-0.60938 0.95312,-0.98438 0.70313,-0.375 1.78125,-0.375 1.09375,0 2.14063,0.32813 l -0.35938,1.78125 q -0.60937,-0.14063 -1.17187,-0.14063 -0.54688,0 -0.79688,0.26563 -0.23437,0.25 -0.23437,0.98437 v 0.6875 h 1.90625 v 2.01563 h -1.90625 v 7.65625 h -2.5625 v -7.65625 h -1.42188 z"
       fill="#000000" />
    <path
       id="path1013"
       fill-rule="evenodd"
       d="m 304.2546,264.47244 c -12.50003,0 -23.86881,39.13467 -25.00006,68.75314 -1.13123,29.61847 7.97507,49.72073 16.51578,68.75314 8.54068,19.03238 16.51577,36.99487 16.51577,73.98978"
       fill-opacity="0"
       fill="#000000" />
    <path
       id="path1015"
       fill-rule="evenodd"
       d="m 304.2546,264.47244 c -12.50003,0 -23.86881,39.13467 -25.00006,68.75314 -1.13123,29.61847 7.97507,49.72073 16.51578,68.75314 8.54068,19.03238 16.51577,36.99487 16.51577,73.98978"
       stroke-linecap="butt"
       stroke-linejoin="round"
       stroke-width="1"
       stroke="#000000" />
    <path
       id="path1017"
       fill-rule="evenodd"
       d="m 312.27823,540.09973 c 0,35.7323 74.01575,71.4646 148.0315,71.4646"
       fill-opacity="0"
       fill="#000000" />
    <path
       id="path1019"
       fill-rule="evenodd"
       d="m 312.27823,540.09973 c 0,35.7323 74.01575,71.4646 148.0315,71.4646"
       stroke-linecap="butt"
       stroke-linejoin="round"
       stroke-width="1"
       stroke="#000000" />
    <path
       id="path1021"
       fill-rule="evenodd"
       d="m 713.29065,611.56683 c 79.90552,0 159.81097,-35.7323 159.81097,-71.4646"
       fill-opacity="0"
       fill="#000000" />
    <path
       id="path1023"
       fill-rule="evenodd"
       d="m 713.29065,611.56683 c 79.90552,0 159.81097,-35.7323 159.81097,-71.4646"
       stroke-linecap="butt"
       stroke-linejoin="round"
       stroke-width="1"
       stroke="#000000" />
    <path
       id="path1025"
       fill-rule="evenodd"
       d="m 873.089,475.97375 c 0,-36.99701 7.23663,-54.96133 15.13141,-73.99402 7.89477,-19.03265 16.44763,-39.13367 15.13141,-68.75101 -1.31623,-29.61737 -12.50147,-68.75104 -25.00299,-68.75104"
       fill-opacity="0"
       fill="#000000" />
    <path
       id="path1027"
       fill-rule="evenodd"
       d="m 873.089,475.97375 c 0,-36.99701 7.23663,-54.96133 15.13141,-73.99402 7.89477,-19.03265 16.44763,-39.13367 15.13141,-68.75101 -1.31623,-29.61737 -12.50147,-68.75104 -25.00299,-68.75104"
       stroke-linecap="butt"
       stroke-linejoin="round"
       stroke-width="1"
       stroke="#000000" />
  </g>
</svg>
