<?xml version="1.0" encoding="UTF-8" standalone="no"?><!DOCTYPE svg PUBLIC "-//W3C//DTD SVG 1.1//EN" "http://www.w3.org/Graphics/SVG/1.1/DTD/svg11.dtd"><svg width="100%" height="100%" viewBox="0 0 1981 657" version="1.1" xmlns="http://www.w3.org/2000/svg" xmlns:xlink="http://www.w3.org/1999/xlink" xml:space="preserve" xmlns:serif="http://www.serif.com/" style="fill-rule:evenodd;clip-rule:evenodd;stroke-linejoin:round;stroke-miterlimit:2;"><g><path d="M808.773,279.734c-0,-27.87 -20.561,-37.07 -60.107,-37.07c-9.808,-0 -27.204,-0 -34.794,0.841l0,76.347c6.644,0 27.52,0.561 34.794,0.561c38.904,-0 60.107,-8.64 60.107,-38.729l-0,-1.95Zm33.848,149.076l-22.149,0c-3.795,0 -4.425,0 -6.959,-3.631l-56.616,-83.038l-8.231,0c-10.426,0 -26.889,-0.549 -34.794,-0.829l0,81.917c0,2.791 -2.218,5.581 -5.697,5.581l-17.082,0c-3.164,0 -5.698,-2.51 -5.698,-5.581l0,-195.043c0,-3.9 1.903,-5.581 7.589,-6.141c13.603,-1.39 37.339,-2.219 55.682,-2.219c49.984,0 88.572,14.77 88.572,59.908l0,1.95c0,31.209 -20.876,49.599 -49.668,56.289l58.215,85.536c0.619,0.841 0.934,1.67 0.934,2.511c-0,1.669 -1.25,2.79 -4.098,2.79Z" style="fill:#002559;fill-rule:nonzero;"/><path d="M958.269,297.003c-8.547,-1.39 -23.737,-2.779 -37.012,-2.779c-31.315,-0 -41.111,18.669 -41.111,48.197l0,19.499c0,29.259 9.796,48.209 41.111,48.209c13.275,-0 28.15,-1.39 37.012,-2.779l-0,-110.347Zm21.191,127.347c-16.766,3.619 -38.903,6.41 -58.203,6.41c-47.135,-0 -68.957,-27.041 -68.957,-68.84l-0,-19.499c-0,-41.787 21.507,-68.828 68.957,-68.828c18.984,-0 41.437,2.79 58.203,6.41c5.698,1.121 6.644,2.51 6.644,6.41l-0,131.515c-0,3.632 -0.946,5.301 -6.644,6.422Z" style="fill:#002559;fill-rule:nonzero;"/><path d="M1075.4,483.966c-23.422,0 -44.929,-3.059 -52.214,-4.728c-4.425,-1.11 -6.013,-2.511 -6.013,-5.85l-0,-7.811c-0,-2.779 2.545,-4.729 5.709,-4.729l0.946,0c9.492,1.121 33.206,3.34 51.572,3.34c28.453,-0 37.315,-6.118 37.315,-35.378l0,-1.401c-7.589,1.95 -24.986,3.351 -35.12,3.351c-36.359,-0 -70.849,-11.15 -70.849,-57.69l0,-91.946c0,-3.071 2.838,-5.581 6.329,-5.581l15.19,-0c3.467,-0 6.328,2.51 6.328,5.581l-0,91.946c-0,29.82 16.439,36.79 43.002,36.79c9.177,0 25.324,-1.681 34.478,-3.631l0,-125.105c0,-3.071 2.861,-5.581 6.328,-5.581l15.191,-0c3.491,-0 6.328,2.51 6.328,5.581l-0,147.686c-0,43.737 -21.519,55.156 -64.52,55.156Z" style="fill:#002559;fill-rule:nonzero;"/><path d="M1263.31,430.76c-22.149,-0 -38.588,-1.95 -52.506,-3.911c-5.382,-0.829 -6.001,-1.95 -6.001,-5.009l-0,-11.151c-0,-3.07 2.522,-4.46 5.371,-4.46l0.945,0c14.56,1.121 37.631,1.682 52.191,1.682c37.969,-0 48.092,-13.381 48.092,-32.891c0,-13.929 -9.177,-21.728 -37.958,-37.339l-30.695,-16.439c-29.096,-15.599 -43.644,-29.809 -43.644,-52.097c-0,-33.72 27.52,-49.319 75.589,-49.319c18.681,0 43.036,1.67 55.039,3.339c3.164,0.561 5.383,1.95 5.383,4.741l-0,11.979c-0,2.779 -2.219,4.46 -5.383,4.46l-0.63,0c-13.918,-0.84 -36.055,-1.681 -54.409,-1.681c-32.576,-0 -46.493,6.13 -46.493,26.481c-0,13.1 10.438,20.899 34.478,33.707l29.108,15.331c36.685,19.23 49.669,34.548 49.669,56.837c-0,26.749 -15.833,55.74 -78.146,55.74Z" style="fill:#002559;fill-rule:nonzero;"/><path d="M1467.62,339.923c0,-29.82 -13.613,-44.87 -41.448,-44.87c-27.205,-0 -42.395,16.159 -42.395,44.87l0,1.389l83.843,0l0,-1.389Zm22.138,20.047l-105.981,-0l0,3.351c0,32.05 17.093,46.808 46.201,46.808c18.342,-0 39.534,-1.95 54.094,-3.9l1.564,0c2.534,0 5.067,1.121 5.067,3.9l0,9.481c0,3.619 -1.261,5.569 -6.316,6.41c-18.039,3.059 -33.229,4.74 -54.409,4.74c-36.382,-0 -74.024,-15.342 -74.024,-68.84l-0,-19.499c-0,-39.569 24.986,-68.828 70.218,-68.828c46.177,-0 69.599,28.991 69.599,68.548l-0,11.711c-0,3.619 -2.23,6.118 -6.013,6.118Z" style="fill:#002559;fill-rule:nonzero;"/><path d="M1582.26,295.053c-21.519,-0 -31.945,0.56 -43.971,2.79l0,125.386c0,2.791 -2.207,5.581 -5.686,5.581l-16.451,0c-3.176,0 -5.698,-2.51 -5.698,-5.581l0,-135.415c0,-3.071 2.207,-5.021 5.698,-6.41c18.027,-6.97 39.849,-7.811 66.108,-7.811c4.11,-0 6.643,0.292 6.643,4.191l0,12.809c0,3.07 -0.63,4.46 -6.643,4.46Z" style="fill:#002559;fill-rule:nonzero;"/><path d="M1749.57,282.245l-40.491,126.494c-5.686,17.561 -18.028,22.021 -30.672,22.021c-12.342,-0 -24.998,-4.46 -30.696,-22.021l-40.48,-126.494c-0.327,-0.841 -0.327,-1.401 -0.327,-1.95c0,-2.802 1.904,-4.752 5.068,-4.752l17.396,-0c2.534,-0 5.068,1.681 6.013,5.301l35.436,120.925c1.88,6.97 4.425,8.652 7.59,8.652c2.837,-0 5.697,-1.682 7.589,-8.652l35.424,-120.925c0.946,-3.62 3.491,-5.301 6.001,-5.301l17.724,-0c3.164,-0 4.74,1.681 4.74,4.46c0,0.56 0,1.401 -0.315,2.242Z" style="fill:#002559;fill-rule:nonzero;"/><path d="M1861.87,339.923c0,-29.82 -13.602,-44.87 -41.449,-44.87c-27.204,-0 -42.394,16.159 -42.394,44.87l-0,1.389l83.843,0l0,-1.389Zm22.149,20.047l-105.992,-0l-0,3.351c-0,32.05 17.093,46.808 46.201,46.808c18.342,-0 39.534,-1.95 54.093,-3.9l1.576,0c2.534,0 5.068,1.121 5.068,3.9l-0,9.481c-0,3.619 -1.273,5.569 -6.317,6.41c-18.05,3.059 -33.241,4.74 -54.42,4.74c-36.382,-0 -74.013,-15.342 -74.013,-68.84l0,-19.499c0,-39.569 24.975,-68.828 70.206,-68.828c46.178,-0 69.599,28.991 69.599,68.548l0,11.711c0,3.619 -2.218,6.118 -6.001,6.118Z" style="fill:#002559;fill-rule:nonzero;"/><path d="M130.716,515.864c0,-18.541 15.074,-33.614 33.615,-33.614c18.529,-0 33.614,15.073 33.614,33.614c0,18.53 -15.085,33.603 -33.614,33.603c-18.541,0 -33.615,-15.073 -33.615,-33.603Zm297.521,-13.952l-204.115,-0c-1.553,-6.644 -4.203,-12.82 -7.706,-18.436l110.476,-110.651c9.411,5.861 20.421,9.399 32.307,9.399c29.119,-0 53.439,-20.374 59.803,-47.579l9.235,0c46.119,0 83.622,37.514 83.622,83.634c-0,46.107 -37.503,83.633 -83.622,83.633Zm125.841,-342.776c-18.541,-0 -33.614,-15.085 -33.614,-33.615c-0,-18.541 15.073,-33.614 33.614,-33.614c18.53,-0 33.615,15.073 33.615,33.614c-0,18.53 -15.085,33.615 -33.615,33.615Zm-262.342,-19.662l202.551,-0c1.553,6.632 4.203,12.82 7.706,18.447l-110.476,110.651c-9.411,-5.861 -20.432,-9.399 -32.318,-9.399c-29.096,0 -53.417,20.363 -59.78,47.556l-7.683,-0c-46.119,-0 -83.633,-37.514 -83.633,-83.622c-0,-46.119 37.514,-83.633 83.633,-83.633Zm101.077,181.231c0,18.529 -15.073,33.602 -33.614,33.602c-18.53,0 -33.603,-15.073 -33.603,-33.602c-0,-18.541 15.073,-33.615 33.603,-33.615c18.541,0 33.614,15.074 33.614,33.615Zm-290.013,195.159c-0,33.918 27.601,61.52 61.531,61.52c29.107,-0 53.428,-20.374 59.791,-47.567l204.115,-0c61.508,-0 111.55,-50.031 111.55,-111.538c0,-61.508 -50.042,-111.55 -111.55,-111.55l-9.247,-0c-1.553,-6.632 -4.192,-12.82 -7.706,-18.436l110.464,-110.651c9.411,5.861 20.444,9.399 32.33,9.399c33.93,-0 61.531,-27.59 61.531,-61.52c0,-33.929 -27.601,-61.531 -61.531,-61.531c-29.107,0 -53.428,20.374 -59.791,47.567l-202.551,0c-61.507,0 -111.55,50.042 -111.55,111.55c0,61.496 50.043,111.538 111.55,111.538l7.683,0c1.553,6.644 4.191,12.832 7.706,18.448l-110.464,110.651c-9.423,-5.873 -20.444,-9.422 -32.33,-9.422c-33.93,-0 -61.531,27.613 -61.531,61.542Z" style="fill:#04a1e9;fill-rule:nonzero;"/></g></svg>