<svg version="1.1" viewBox="0.0 0.0 960.0 720.0" fill="none" stroke="none" stroke-linecap="square" stroke-miterlimit="10" xmlns:xlink="http://www.w3.org/1999/xlink" xmlns="http://www.w3.org/2000/svg"><clipPath id="p.0"><path d="m0 0l960.0 0l0 720.0l-960.0 0l0 -720.0z" clip-rule="nonzero"/></clipPath><g clip-path="url(#p.0)"><path fill="#000000" fill-opacity="0.0" d="m0 0l960.0 0l0 720.0l-960.0 0z" fill-rule="evenodd"/><path fill="#000000" fill-opacity="0.0" d="m119.94226 266.25986l0 0c0 -32.606552 26.432816 -59.039383 59.039368 -59.039383l0 0c15.658218 0 30.67511 6.2201996 41.74713 17.292236c11.072037 11.0720215 17.292236 26.088913 17.292236 41.747147l0 0c0 32.606537 -26.43283 59.039368 -59.039368 59.039368l0 0c-32.606552 0 -59.039368 -26.43283 -59.039368 -59.039368z" fill-rule="evenodd"/><path stroke="#47a2e3" stroke-width="16.0" stroke-linejoin="round" stroke-linecap="butt" d="m119.94226 266.25986l0 0c0 -32.606552 26.432816 -59.039383 59.039368 -59.039383l0 0c15.658218 0 30.67511 6.2201996 41.74713 17.292236c11.072037 11.0720215 17.292236 26.088913 17.292236 41.747147l0 0c0 32.606537 -26.43283 59.039368 -59.039368 59.039368l0 0c-32.606552 0 -59.039368 -26.43283 -59.039368 -59.039368z" fill-rule="evenodd"/><path fill="#000000" fill-opacity="0.0" d="m119.94226 471.17847l0 0c0 -32.606537 26.432816 -59.039368 59.039368 -59.039368l0 0c15.658218 0 30.67511 6.220215 41.74713 17.292236c11.072037 11.0720215 17.292236 26.088928 17.292236 41.74713l0 0c0 32.606567 -26.43283 59.039368 -59.039368 59.039368l0 0c-32.606552 0 -59.039368 -26.4328 -59.039368 -59.039368z" fill-rule="evenodd"/><path stroke="#47a2e3" stroke-width="16.0" stroke-linejoin="round" stroke-linecap="butt" d="m119.94226 471.17847l0 0c0 -32.606537 26.432816 -59.039368 59.039368 -59.039368l0 0c15.658218 0 30.67511 6.220215 41.74713 17.292236c11.072037 11.0720215 17.292236 26.088928 17.292236 41.74713l0 0c0 32.606567 -26.43283 59.039368 -59.039368 59.039368l0 0c-32.606552 0 -59.039368 -26.4328 -59.039368 -59.039368z" fill-rule="evenodd"/><path fill="#000000" fill-opacity="0.0" d="m728.68243 163.80052l0 0c0 -32.606537 26.4328 -59.039368 59.039368 -59.039368l0 0c15.658203 0 30.67511 6.2201996 41.74713 17.292229c11.0720215 11.072029 17.292236 26.08892 17.292236 41.74714l0 0c0 32.606552 -26.432861 59.039368 -59.039368 59.039368l0 0c-32.606567 0 -59.039368 -26.432816 -59.039368 -59.039368z" fill-rule="evenodd"/><path stroke="#47a2e3" stroke-width="16.0" stroke-linejoin="round" stroke-linecap="butt" d="m728.68243 163.80052l0 0c0 -32.606537 26.4328 -59.039368 59.039368 -59.039368l0 0c15.658203 0 30.67511 6.2201996 41.74713 17.292229c11.0720215 11.072029 17.292236 26.08892 17.292236 41.74714l0 0c0 32.606552 -26.432861 59.039368 -59.039368 59.039368l0 0c-32.606567 0 -59.039368 -26.432816 -59.039368 -59.039368z" fill-rule="evenodd"/><path fill="#000000" fill-opacity="0.0" d="m728.68243 368.71783l0 0c0 -32.606537 26.4328 -59.039368 59.039368 -59.039368l0 0c15.658203 0 30.67511 6.220215 41.74713 17.292236c11.0720215 11.0720215 17.292236 26.088928 17.292236 41.74713l0 0c0 32.606567 -26.432861 59.0394 -59.039368 59.0394l0 0c-32.606567 0 -59.039368 -26.43283 -59.039368 -59.0394z" fill-rule="evenodd"/><path stroke="#47a2e3" stroke-width="16.0" stroke-linejoin="round" stroke-linecap="butt" d="m728.68243 368.71783l0 0c0 -32.606537 26.4328 -59.039368 59.039368 -59.039368l0 0c15.658203 0 30.67511 6.220215 41.74713 17.292236c11.0720215 11.0720215 17.292236 26.088928 17.292236 41.74713l0 0c0 32.606567 -26.432861 59.0394 -59.039368 59.0394l0 0c-32.606567 0 -59.039368 -26.43283 -59.039368 -59.0394z" fill-rule="evenodd"/><path fill="#000000" fill-opacity="0.0" d="m728.68243 573.6378l0 0c0 -32.606567 26.4328 -59.039368 59.039368 -59.039368l0 0c15.658203 0 30.67511 6.220154 41.74713 17.292236c11.0720215 11.0720215 17.292236 26.088867 17.292236 41.74713l0 0c0 32.606506 -26.432861 59.039368 -59.039368 59.039368l0 0c-32.606567 0 -59.039368 -26.432861 -59.039368 -59.039368z" fill-rule="evenodd"/><path stroke="#47a2e3" stroke-width="16.0" stroke-linejoin="round" stroke-linecap="butt" d="m728.68243 573.6378l0 0c0 -32.606567 26.4328 -59.039368 59.039368 -59.039368l0 0c15.658203 0 30.67511 6.220154 41.74713 17.292236c11.0720215 11.0720215 17.292236 26.088867 17.292236 41.74713l0 0c0 32.606506 -26.432861 59.039368 -59.039368 59.039368l0 0c-32.606567 0 -59.039368 -26.432861 -59.039368 -59.039368z" fill-rule="evenodd"/><path fill="#000000" fill-opacity="0.0" d="m311.66666 300.54135l0 0c0 -18.827332 15.262573 -34.089905 34.089935 -34.089905l275.19025 0c9.041199 0 17.712097 3.5916138 24.105225 9.984711c6.3930664 6.393097 9.98468 15.063995 9.98468 24.105194l0 136.35559c0 18.827362 -15.262573 34.089935 -34.089905 34.089935l-275.19025 0c-18.827362 0 -34.089935 -15.262573 -34.089935 -34.089935z" fill-rule="evenodd"/><path stroke="#47a2e3" stroke-width="16.0" stroke-linejoin="round" stroke-linecap="butt" d="m311.66666 300.54135l0 0c0 -18.827332 15.262573 -34.089905 34.089935 -34.089905l275.19025 0c9.041199 0 17.712097 3.5916138 24.105225 9.984711c6.3930664 6.393097 9.98468 15.063995 9.98468 24.105194l0 136.35559c0 18.827362 -15.262573 34.089935 -34.089905 34.089935l-275.19025 0c-18.827362 0 -34.089935 -15.262573 -34.089935 -34.089935z" fill-rule="evenodd"/><path fill="#47a2e3" d="m244.38438 266.4516l72.28346 33.66928l-6.362213 13.700806l-72.28346 -33.66931z" fill-rule="evenodd"/><path fill="#47a2e3" d="m231.22649 442.8142l75.622055 -25.322845l4.818878 14.330719l-75.62204 25.322815z" fill-rule="evenodd"/><path fill="#47a2e3" d="m648.04724 289.079l91.433105 -91.212616l9.637756 9.637802l-91.433044 91.2126z" fill-rule="evenodd"/><path fill="#47a2e3" d="m648.0472 361.82153l84.44092 0.09448242l0 13.637787l-84.44092 -0.09448242z" fill-rule="evenodd"/><path fill="#47a2e3" d="m658.958 444.96054l85.03937 97.0394l-11.275574 9.8897705l-85.03943 -97.0394z" fill-rule="evenodd"/><path fill="#000000" fill-opacity="0.0" d="m288.7848 266.45145l389.13385 0l0 169.00787l-389.13385 0z" fill-rule="evenodd"/><path fill="#000000" d="m413.70865 352.25143l0 -56.796875l24.328156 0q3.75 0 6.90625 1.5625q3.171875 1.546875 5.453125 4.15625q2.28125 2.59375 3.546875 5.84375q1.28125 3.234375 1.28125 6.59375q0 2.953125 -0.84375 5.71875q-0.828125 2.765625 -2.390625 5.0q-1.5625 2.234375 -3.765625 3.84375q-2.1875 1.59375 -4.90625 2.3125l13.75 21.765625l-8.15625 0l-12.953125 -20.40625l-15.046875 0l0 20.40625l-7.2031555 0zm7.2031555 -26.796875l17.203125 0q2.234375 0 4.03125 -0.953125q1.8125 -0.96875 3.078125 -2.609375q1.28125 -1.640625 2.0 -3.796875q0.734375 -2.15625 0.734375 -4.484375q0 -2.40625 -0.84375 -4.515625q-0.84375 -2.125 -2.25 -3.765625q-1.390625 -1.640625 -3.28125 -2.5625q-1.875 -0.921875 -3.953125 -0.921875l-16.71875 0l0 23.609375zm62.63806 -30.0l6.078125 0l23.203125 56.796875l-7.671875 0l-6.734375 -16.640625l-23.828125 0l-6.640625 16.640625l-7.6875 0l23.28125 -56.796875zm13.28125 34.5625l-10.234375 -26.25l-10.5625 26.25l20.796875 0zm19.513672 -34.5625l17.203125 29.59375l17.359375 -29.59375l7.84375 0l-21.59375 36.078125l0 20.71875l-7.203125 0l0 -20.875l-21.515594 -35.921875l7.9062195 0z" fill-rule="nonzero"/><path fill="#000000" d="m398.06808 403.37643q-0.953125 -1.125 -2.5625 -2.15625q-1.59375 -1.046875 -3.59375 -1.890625q-2.0 -0.84375 -4.359375 -1.359375q-2.359375 -0.515625 -4.921875 -0.515625q-6.640625 0 -9.71875 2.484375q-3.078125 2.46875 -3.078125 6.796875q0 2.3125 0.875 3.84375q0.890625 1.515625 2.765625 2.59375q1.875 1.078125 4.671875 1.875q2.8125 0.796875 6.640625 1.6875q4.40625 0.953125 7.96875 2.203125q3.5625 1.234375 6.078125 3.078125q2.515625 1.828125 3.828125 4.46875q1.328125 2.640625 1.328125 6.484375q0 4.078125 -1.609375 7.078125q-1.59375 3.0 -4.359375 4.96875q-2.75 1.953125 -6.515625 2.875q-3.75 0.921875 -8.15625 0.921875q-6.5625 0 -12.4375 -2.03125q-5.875 -2.046875 -10.6875 -5.96875l3.453125 -6.078125q1.28125 1.359375 3.3125 2.71875q2.046875 1.359375 4.640625 2.4375q2.59375 1.078125 5.59375 1.765625q3.0 0.671875 6.28125 0.671875q6.09375 0 9.453125 -2.15625q3.359375 -2.15625 3.359375 -6.484375q0 -2.390625 -1.09375 -4.03125q-1.078125 -1.640625 -3.15625 -2.84375q-2.078125 -1.203125 -5.15625 -2.125q-3.078125 -0.921875 -7.0 -1.875q-4.3125 -1.046875 -7.59375 -2.234375q-3.28125 -1.203125 -5.484375 -2.875q-2.203125 -1.6875 -3.328125 -4.09375q-1.109375 -2.40625 -1.109375 -5.765625q0 -4.078125 1.515625 -7.1875q1.515625 -3.125 4.234375 -5.28125q2.71875 -2.171875 6.484375 -3.25q3.765625 -1.078125 8.15625 -1.078125q5.765625 0 10.40625 1.765625q4.640625 1.75 8.234375 4.71875l-3.359375 5.84375zm53.923096 38.46875l0 6.40625l-38.56253 0l0 -56.796875l37.84378 0l0 6.390625l-30.640625 0l0 18.40625l26.640625 0l0 6.0l-26.640625 0l0 19.59375l31.359375 0zm9.837433 6.40625l0 -56.796875l24.328125 0q3.75 0 6.90625 1.5625q3.171875 1.546875 5.453125 4.15625q2.28125 2.59375 3.546875 5.84375q1.28125 3.234375 1.28125 6.59375q0 2.953125 -0.84375 5.71875q-0.828125 2.765625 -2.390625 5.0q-1.5625 2.234375 -3.765625 3.84375q-2.1875 1.59375 -4.90625 2.3125l13.75 21.765625l-8.15625 0l-12.953125 -20.40625l-15.046875 0l0 20.40625l-7.203125 0zm7.203125 -26.796875l17.203125 0q2.234375 0 4.03125 -0.953125q1.8125 -0.96875 3.078125 -2.609375q1.28125 -1.640625 2.0 -3.796875q0.734375 -2.15625 0.734375 -4.484375q0 -2.40625 -0.84375 -4.515625q-0.84375 -2.125 -2.25 -3.765625q-1.390625 -1.640625 -3.28125 -2.5625q-1.875 -0.921875 -3.953125 -0.921875l-16.71875 0l0 23.609375zm45.36621 -30.0l18.796875 47.75l18.71875 -47.75l7.59375 0l-23.203125 56.796875l-6.234375 0l-23.28125 -56.796875l7.609375 0zm91.35303 50.390625l0 6.40625l-38.5625 0l0 -56.796875l37.84375 0l0 6.390625l-30.640625 0l0 18.40625l26.640625 0l0 6.0l-26.640625 0l0 19.59375l31.359375 0z" fill-rule="nonzero"/></g></svg>