<svg width="197" height="55" viewBox="0 0 197 55" fill="none" xmlns="http://www.w3.org/2000/svg">
<path d="M83.3698 43.3318C81.1371 43.3318 79.1588 42.9361 77.4348 42.1448C75.7108 41.3534 74.3542 40.1947 73.365 38.6685C72.4041 37.1141 71.9237 35.2347 71.9237 33.0302V31.9704H76.4597V33.0302C76.4597 35.1216 77.0815 36.6902 78.325 37.7359C79.5968 38.7816 81.2784 39.3044 83.3698 39.3044C85.4895 39.3044 87.0863 38.8664 88.1603 37.9902C89.2342 37.0859 89.7712 35.9271 89.7712 34.514C89.7712 33.5814 89.5168 32.8183 89.0081 32.2248C88.4994 31.6313 87.7787 31.1649 86.8461 30.8258C85.9134 30.4584 84.7971 30.1192 83.497 29.8084L81.9285 29.4268C80.0349 28.9746 78.3816 28.4235 76.9685 27.7735C75.5836 27.0952 74.5097 26.2049 73.7466 25.1027C72.9835 24.0005 72.602 22.5874 72.602 20.8634C72.602 19.1112 73.0259 17.6133 73.8738 16.3697C74.7499 15.1262 75.951 14.1653 77.4772 13.487C79.0033 12.8087 80.798 12.4696 82.8611 12.4696C84.9242 12.4696 86.7613 12.8228 88.3722 13.5294C90.0114 14.2359 91.2973 15.2816 92.23 16.6665C93.1626 18.0513 93.629 19.7894 93.629 21.8808V23.407H89.0929V21.8808C89.0929 20.609 88.8244 19.5775 88.2874 18.7861C87.7787 17.9948 87.058 17.4154 86.1254 17.048C85.1927 16.6806 84.1046 16.4969 82.8611 16.4969C81.0523 16.4969 79.6392 16.8784 78.6218 17.6415C77.6326 18.3763 77.138 19.4079 77.138 20.7362C77.138 21.6406 77.35 22.3896 77.7739 22.9831C78.2261 23.5483 78.8761 24.0146 79.724 24.382C80.5719 24.7494 81.6317 25.0745 82.9035 25.3571L84.472 25.7386C86.3939 26.1626 88.0896 26.7137 89.5592 27.392C91.0289 28.042 92.1876 28.9322 93.0355 30.0627C93.8833 31.1932 94.3073 32.6487 94.3073 34.4292C94.3073 36.2097 93.8551 37.7641 92.9507 39.0925C92.0746 40.4208 90.8169 41.4665 89.1777 42.2296C87.5385 42.9644 85.6025 43.3318 83.3698 43.3318ZM99.1136 42.7383V13.0631H117.809V17.2176H103.692V25.7386H116.622V29.8932H103.692V38.5838H118.021V42.7383H99.1136ZM122.794 42.7383V13.0631H135.258C137.095 13.0631 138.706 13.3881 140.091 14.0381C141.504 14.6599 142.592 15.5643 143.355 16.7513C144.146 17.9383 144.542 19.3514 144.542 20.9906V21.4569C144.542 23.3222 144.09 24.8201 143.185 25.9506C142.309 27.0528 141.235 27.83 139.963 28.2822V28.9605C141.037 29.017 141.899 29.3844 142.549 30.0627C143.199 30.7128 143.524 31.6595 143.524 32.9031V42.7383H138.904V33.539C138.904 32.7759 138.706 32.1683 138.31 31.7161C137.914 31.2639 137.278 31.0378 136.402 31.0378H127.373V42.7383H122.794ZM127.373 26.8832H134.749C136.388 26.8832 137.66 26.4734 138.564 25.6538C139.469 24.806 139.921 23.6614 139.921 22.22V21.8808C139.921 20.4395 139.469 19.309 138.564 18.4894C137.688 17.6415 136.416 17.2176 134.749 17.2176H127.373V26.8832ZM155.145 42.7383L146.878 13.0631H151.626L158.833 39.8555H159.384L166.549 13.0631H171.297L163.073 42.7383H155.145ZM175.33 42.7383V13.0631H194.026V17.2176H179.909V25.7386H192.839V29.8932H179.909V38.5838H194.238V42.7383H175.33Z" fill="black"/>
<path fill-rule="evenodd" clip-rule="evenodd" d="M46.0006 28.6016L26.1007 48.5016L24.6436 47.0445L44.5435 27.1445L46.0006 28.6016Z" fill="#CF2802"/>
<path fill-rule="evenodd" clip-rule="evenodd" d="M45.2645 29.0528L5.52344 29.0528L5.52344 26.9922L45.2645 26.9922L45.2645 29.0528Z" fill="#CF2802"/>
<path fill-rule="evenodd" clip-rule="evenodd" d="M24.6439 8.70319L44.5439 28.6032L46.001 27.1461L26.101 7.24609L24.6439 8.70319Z" fill="#CF2802"/>
<rect x="0.49707" y="22.8984" width="9.95" height="9.95" fill="#CF2802"/>
<rect x="20.3975" y="22.8984" width="9.95" height="9.95" fill="#CF2802"/>
<rect x="20.3975" y="3" width="9.95" height="9.95" fill="#CF2802"/>
<rect x="20.3975" y="42.8008" width="9.95" height="9.95" fill="#CF2802"/>
<rect x="40.2969" y="22.8984" width="9.95" height="9.95" fill="#CF2802"/>
</svg>
