<svg id="svg" version="1.1" xmlns="http://www.w3.org/2000/svg" xmlns:xlink="http://www.w3.org/1999/xlink" width="400" height="200.13540961408262" viewBox="0, 0, 400,200.13540961408262"><g id="svgg"><path id="path0" d="M101.476 36.871 C 100.173 37.016,97.926 37.537,97.144 37.875 C 95.100 38.759,94.672 38.967,94.000 39.404 C 86.823 44.065,84.039 52.901,87.254 60.813 C 87.719 61.957,87.836 62.165,88.961 63.870 C 89.947 65.364,92.889 68.333,93.385 68.333 C 93.439 68.333,93.814 68.556,94.217 68.829 C 98.856 71.959,106.857 72.112,111.612 69.161 C 112.069 68.877,134.504 91.151,134.098 91.488 C 133.880 91.669,133.295 92.979,132.661 94.708 L 132.309 95.667 126.071 95.667 C 120.276 95.667,119.833 95.646,119.833 95.379 C 119.833 94.402,118.074 90.961,116.682 89.214 C 112.655 84.163,105.200 81.534,99.456 83.139 C 98.745 83.337,98.051 83.500,97.914 83.500 C 97.169 83.500,93.233 85.720,92.000 86.836 C 91.679 87.127,91.208 87.542,90.954 87.759 C 90.099 88.487,88.348 90.989,87.664 92.460 C 87.292 93.261,86.915 94.047,86.827 94.206 C 86.739 94.365,86.667 94.640,86.667 94.817 C 86.667 95.705,86.954 95.667,80.252 95.667 L 74.040 95.667 73.842 95.125 C 73.734 94.827,73.495 94.208,73.311 93.750 C 73.128 93.292,72.953 92.804,72.922 92.667 C 72.835 92.277,71.523 90.164,70.858 89.343 C 68.133 85.977,65.089 84.118,60.417 82.966 C 57.108 82.150,49.457 83.661,47.998 85.419 C 47.885 85.555,47.720 85.667,47.631 85.667 C 47.239 85.667,43.333 89.324,43.333 89.691 C 43.333 89.777,43.202 89.988,43.042 90.160 C 40.249 93.158,39.106 101.457,40.901 105.709 C 41.745 107.708,41.973 108.181,42.484 109.000 C 42.798 109.504,43.118 109.942,43.195 109.972 C 43.271 110.003,43.333 110.126,43.333 110.246 C 43.333 110.492,46.022 113.289,46.667 113.714 C 46.896 113.865,47.383 114.200,47.750 114.458 C 54.593 119.269,65.912 117.476,70.751 110.815 C 70.844 110.687,71.163 110.273,71.460 109.893 C 71.757 109.513,72.000 109.146,72.000 109.078 C 72.000 109.009,72.224 108.589,72.498 108.143 C 72.773 107.698,72.959 107.333,72.912 107.333 C 72.866 107.333,73.016 106.961,73.247 106.506 C 73.478 106.050,73.667 105.566,73.667 105.430 C 73.667 105.294,73.754 104.991,73.860 104.758 L 74.054 104.333 80.274 104.333 L 86.494 104.333 86.595 104.792 C 87.658 109.620,93.218 115.357,97.917 116.474 C 98.283 116.561,99.071 116.762,99.667 116.920 C 107.642 119.038,118.200 112.709,119.768 104.870 L 119.875 104.333 126.092 104.333 L 132.309 104.333 132.661 105.292 C 133.303 107.043,133.881 108.332,134.108 108.520 C 134.286 108.668,132.014 111.023,123.167 119.864 L 112.002 131.022 111.209 130.618 C 109.919 129.960,109.648 129.849,108.250 129.408 C 103.011 127.757,96.072 129.112,92.218 132.539 C 90.806 133.795,89.311 135.447,88.710 136.417 C 84.171 143.740,85.265 152.743,91.400 158.555 C 92.392 159.494,94.790 161.133,95.750 161.527 C 97.625 162.298,98.232 162.532,98.479 162.580 C 98.628 162.610,99.328 162.754,100.035 162.900 C 110.423 165.055,120.405 156.736,120.415 145.917 C 120.417 142.799,120.036 141.150,118.627 138.189 L 118.122 137.128 129.229 126.022 L 140.336 114.917 141.209 115.364 C 142.653 116.103,144.550 116.736,146.277 117.055 C 147.883 117.352,151.319 117.280,152.667 116.921 C 153.262 116.762,154.037 116.563,154.387 116.479 C 155.585 116.191,158.516 114.657,159.707 113.693 C 169.418 105.836,168.423 91.268,157.750 85.028 C 154.246 82.980,149.087 82.156,145.583 83.086 C 145.033 83.232,144.321 83.413,144.000 83.489 C 143.386 83.633,142.226 84.116,141.042 84.721 L 140.333 85.083 129.228 73.978 L 118.123 62.872 118.412 62.311 C 121.421 56.481,121.099 49.820,117.551 44.486 C 117.294 44.100,117.008 43.665,116.917 43.521 C 115.519 41.318,110.573 37.997,107.833 37.422 C 104.737 36.771,103.409 36.656,101.476 36.871 M105.571 45.783 C 111.672 47.495,113.887 55.304,109.564 59.861 C 103.536 66.216,93.359 61.186,94.706 52.516 C 95.265 48.919,97.874 46.469,102.250 45.432 C 102.796 45.302,104.499 45.482,105.571 45.783 M59.946 91.812 C 62.260 92.618,64.007 94.182,65.098 96.427 L 65.742 97.750 65.742 100.000 L 65.742 102.250 65.094 103.582 C 61.346 111.293,50.368 109.868,48.732 101.458 C 47.509 95.174,53.874 89.698,59.946 91.812 M105.000 91.512 C 112.468 93.207,114.270 103.061,107.870 107.206 C 100.545 111.952,91.686 104.124,95.436 96.220 C 95.996 95.041,97.909 92.833,98.371 92.833 C 98.473 92.833,98.683 92.720,98.836 92.581 C 99.879 91.637,103.095 91.079,105.000 91.512 M151.441 91.683 C 155.858 93.033,158.466 97.223,157.589 101.560 C 157.283 103.074,156.726 104.439,156.253 104.831 C 156.114 104.947,156.000 105.137,156.000 105.255 C 156.000 105.562,154.459 106.905,153.446 107.479 C 146.040 111.678,137.703 103.848,141.395 96.161 C 142.147 94.596,144.681 92.167,145.562 92.167 C 145.674 92.167,145.838 92.098,145.925 92.014 C 146.638 91.327,149.679 91.144,151.441 91.683 M106.667 138.041 C 115.099 142.203,112.473 154.597,103.167 154.564 C 100.595 154.555,96.000 152.103,96.000 150.740 C 96.000 150.630,95.894 150.453,95.764 150.345 C 94.699 149.461,94.247 145.113,95.010 143.083 C 96.806 138.302,102.344 135.907,106.667 138.041 " stroke="none" fill="#7c7c7c" fill-rule="evenodd"></path><path id="path1" d="M102.875 36.782 C 103.035 36.823,103.298 36.823,103.458 36.782 C 103.619 36.740,103.487 36.705,103.167 36.705 C 102.846 36.705,102.715 36.740,102.875 36.782 M192.833 99.988 L 192.833 130.333 196.417 130.333 L 200.000 130.333 200.000 120.846 L 200.000 111.359 209.958 111.300 C 220.780 111.236,220.014 111.179,220.622 112.104 C 220.735 112.276,221.016 112.701,221.247 113.049 C 221.478 113.397,221.667 113.742,221.667 113.815 C 221.667 113.888,221.817 114.084,222.000 114.250 C 222.183 114.416,222.333 114.608,222.333 114.677 C 222.333 114.746,222.699 115.353,223.147 116.026 C 224.072 117.419,225.834 120.114,226.083 120.519 C 226.175 120.668,226.395 121.005,226.572 121.270 C 227.920 123.283,228.833 124.686,228.833 124.744 C 228.833 124.782,229.171 125.305,229.583 125.908 C 229.996 126.510,230.338 127.059,230.344 127.127 C 230.350 127.194,230.611 127.587,230.924 128.000 C 231.237 128.412,231.616 128.975,231.767 129.250 C 232.389 130.388,232.145 130.333,236.613 130.333 L 240.675 130.333 240.421 129.875 C 240.282 129.623,239.744 128.817,239.225 128.083 C 238.224 126.667,238.031 126.389,233.917 120.417 C 232.465 118.308,231.233 116.546,231.180 116.500 C 231.127 116.454,231.008 116.287,230.917 116.128 C 230.591 115.565,228.075 111.902,227.376 110.974 C 226.407 109.687,226.351 109.812,228.208 109.136 C 228.934 108.873,231.184 107.690,231.513 107.399 C 231.658 107.271,231.832 107.167,231.901 107.167 C 232.188 107.167,234.560 105.072,235.416 104.062 C 239.102 99.717,240.636 93.556,239.768 86.578 C 239.326 83.019,238.387 80.622,236.213 77.500 C 235.722 76.794,232.978 74.167,232.732 74.167 C 232.604 74.167,232.500 74.105,232.500 74.031 C 232.500 73.956,232.181 73.718,231.792 73.501 C 231.402 73.285,231.046 73.062,231.000 73.005 C 230.923 72.909,229.988 72.459,228.468 71.787 C 227.430 71.328,225.295 70.646,224.417 70.494 C 223.958 70.414,223.058 70.221,222.417 70.065 C 221.377 69.812,219.706 69.773,207.042 69.712 L 192.833 69.642 192.833 99.988 M273.768 71.542 C 273.320 72.573,272.764 73.829,272.533 74.333 C 272.137 75.194,271.954 75.603,271.170 77.371 C 270.767 78.282,270.030 79.899,269.267 81.548 C 268.937 82.262,268.667 82.921,268.667 83.012 C 268.667 83.104,268.560 83.345,268.429 83.548 C 268.299 83.751,267.768 84.892,267.250 86.083 C 266.731 87.275,266.165 88.550,265.992 88.917 C 265.528 89.896,264.664 91.817,263.668 94.083 C 262.643 96.417,262.191 97.423,261.909 98.000 C 261.796 98.229,260.486 101.154,258.996 104.500 C 257.506 107.846,256.045 111.108,255.748 111.750 C 254.446 114.568,247.500 130.128,247.500 130.225 C 247.500 130.285,249.214 130.333,251.308 130.333 L 255.117 130.333 256.157 127.958 C 256.730 126.652,257.348 125.246,257.531 124.833 C 257.714 124.421,258.014 123.746,258.196 123.333 C 258.379 122.921,258.663 122.283,258.826 121.917 C 258.990 121.550,259.482 120.425,259.919 119.417 C 260.356 118.408,260.849 117.283,261.016 116.917 C 261.182 116.550,261.415 116.006,261.533 115.708 L 261.748 115.167 278.196 115.167 L 294.643 115.167 295.012 115.958 C 295.215 116.394,295.476 116.975,295.593 117.250 C 295.802 117.744,296.635 119.613,297.078 120.583 C 297.288 121.043,299.578 126.262,300.076 127.417 C 300.194 127.692,300.482 128.329,300.714 128.833 C 300.946 129.337,301.179 129.881,301.230 130.042 C 301.315 130.309,301.656 130.333,305.233 130.333 L 309.143 130.333 309.006 129.875 C 308.884 129.465,307.980 127.413,306.675 124.583 C 306.421 124.033,305.144 121.183,303.837 118.250 C 302.530 115.317,301.219 112.392,300.924 111.750 C 300.512 110.856,295.525 99.679,292.632 93.167 C 292.449 92.754,292.159 92.117,291.988 91.750 C 291.664 91.056,290.925 89.397,290.428 88.250 C 290.269 87.883,290.001 87.283,289.833 86.917 C 288.966 85.032,287.582 81.947,286.917 80.417 C 286.722 79.967,286.494 79.459,285.496 77.250 C 285.330 76.883,284.994 76.133,284.749 75.583 C 284.119 74.170,283.679 73.188,283.330 72.417 C 282.678 70.974,282.360 70.237,282.271 69.958 C 282.185 69.692,281.850 69.667,278.380 69.667 L 274.582 69.667 273.768 71.542 M306.500 69.745 C 306.500 69.841,306.950 70.639,307.632 71.750 C 307.913 72.208,308.382 73.033,308.674 73.583 C 308.967 74.133,309.299 74.696,309.412 74.833 C 309.526 74.971,310.061 75.862,310.601 76.815 C 311.141 77.767,311.748 78.817,311.949 79.148 C 312.150 79.479,312.618 80.275,312.989 80.917 C 313.361 81.558,313.863 82.421,314.106 82.833 C 314.558 83.602,314.905 84.204,315.514 85.279 C 315.704 85.616,316.100 86.272,316.392 86.737 C 316.685 87.203,317.017 87.771,317.130 88.000 C 317.243 88.229,317.523 88.717,317.752 89.083 C 317.981 89.450,318.487 90.301,318.876 90.974 C 319.265 91.647,319.733 92.451,319.917 92.761 C 320.100 93.071,320.692 94.095,321.233 95.037 C 321.774 95.979,322.299 96.854,322.400 96.981 C 322.501 97.108,322.846 97.685,323.167 98.263 C 323.487 98.842,324.115 99.938,324.560 100.699 C 325.006 101.461,325.523 102.346,325.709 102.667 C 325.895 102.987,326.185 103.475,326.353 103.750 C 326.521 104.025,326.850 104.587,327.083 105.000 C 327.317 105.412,327.646 105.975,327.814 106.250 C 327.982 106.525,328.270 107.013,328.454 107.333 C 328.637 107.654,329.061 108.379,329.394 108.945 L 330.000 109.973 330.000 120.153 L 330.000 130.333 333.583 130.333 L 337.167 130.333 337.167 119.783 C 337.167 113.709,337.231 109.166,337.318 109.075 C 337.401 108.988,337.638 108.617,337.846 108.250 C 338.715 106.715,338.955 106.296,339.727 104.973 C 340.825 103.091,341.110 102.600,341.500 101.917 C 341.683 101.596,341.973 101.090,342.144 100.792 C 342.315 100.494,342.731 99.763,343.070 99.167 C 343.408 98.571,343.753 97.971,343.835 97.833 C 344.263 97.119,345.094 95.709,345.259 95.417 C 345.445 95.088,345.871 94.347,346.479 93.292 C 346.651 92.994,347.113 92.188,347.506 91.500 C 347.899 90.813,348.321 90.132,348.444 89.987 C 348.566 89.842,348.667 89.598,348.667 89.445 C 348.667 89.292,348.728 89.167,348.804 89.167 C 348.879 89.167,349.106 88.848,349.307 88.458 C 349.509 88.069,349.858 87.450,350.082 87.083 C 350.307 86.717,350.633 86.154,350.806 85.833 C 351.436 84.666,353.040 81.906,353.326 81.497 C 353.487 81.267,353.873 80.608,354.184 80.035 C 354.496 79.461,354.916 78.712,355.119 78.371 C 355.322 78.029,355.680 77.412,355.915 77.000 C 356.149 76.587,356.500 75.987,356.694 75.667 C 357.019 75.129,357.628 74.057,358.068 73.250 C 358.168 73.067,358.335 72.804,358.439 72.667 C 358.542 72.529,358.864 71.967,359.154 71.417 C 359.444 70.867,359.801 70.246,359.947 70.038 L 360.212 69.660 356.411 69.705 L 352.610 69.750 352.310 70.250 C 352.145 70.525,351.855 71.012,351.666 71.333 C 351.477 71.654,351.101 72.254,350.831 72.667 C 350.561 73.079,350.262 73.567,350.167 73.750 C 350.071 73.933,349.772 74.421,349.502 74.833 C 349.232 75.246,348.857 75.846,348.668 76.167 C 348.479 76.487,348.178 76.975,348.000 77.250 C 347.822 77.525,347.521 78.012,347.331 78.333 C 347.141 78.654,346.619 79.517,346.172 80.250 C 345.724 80.983,345.086 82.033,344.755 82.583 C 344.423 83.133,343.931 83.921,343.662 84.333 C 343.392 84.746,343.120 85.196,343.057 85.333 C 342.993 85.471,342.630 86.071,342.250 86.667 C 341.870 87.263,341.416 87.975,341.241 88.250 C 341.066 88.525,340.839 88.900,340.738 89.083 C 340.636 89.267,340.042 90.242,339.417 91.250 C 338.792 92.258,338.101 93.383,337.881 93.750 C 337.662 94.117,337.297 94.717,337.071 95.083 C 336.845 95.450,336.610 95.860,336.548 95.994 C 336.487 96.128,336.128 96.690,335.751 97.244 C 335.373 97.797,335.014 98.362,334.952 98.500 C 334.891 98.638,334.652 99.050,334.421 99.417 C 334.191 99.783,333.914 100.254,333.806 100.463 C 333.514 101.026,332.874 100.433,332.226 99.000 C 332.163 98.862,331.956 98.527,331.765 98.253 C 331.375 97.697,331.261 97.515,330.667 96.500 C 330.108 95.546,329.974 95.329,329.583 94.746 C 329.400 94.472,329.161 94.099,329.052 93.916 C 328.943 93.733,328.357 92.796,327.750 91.833 C 327.143 90.871,326.557 89.936,326.448 89.756 C 325.914 88.872,324.755 87.033,324.478 86.632 C 324.307 86.383,324.167 86.137,324.167 86.083 C 324.167 86.030,324.026 85.783,323.855 85.535 C 323.210 84.600,322.000 82.674,322.000 82.582 C 322.000 82.529,321.861 82.283,321.691 82.035 C 320.930 80.925,320.028 79.495,319.881 79.167 C 319.820 79.029,319.446 78.443,319.051 77.864 C 318.656 77.286,318.333 76.776,318.333 76.731 C 318.333 76.687,318.033 76.199,317.667 75.647 C 317.300 75.095,317.000 74.611,317.000 74.571 C 317.000 74.532,316.644 73.943,316.208 73.263 C 315.773 72.582,315.088 71.495,314.686 70.846 L 313.955 69.667 310.228 69.667 C 308.177 69.667,306.500 69.702,306.500 69.745 M219.750 76.768 C 223.236 77.201,227.805 78.790,228.139 79.685 C 228.169 79.766,228.277 79.833,228.378 79.833 C 228.656 79.833,230.791 82.103,231.170 82.802 C 231.354 83.140,231.569 83.529,231.650 83.667 C 233.908 87.532,233.424 95.162,230.708 98.503 C 230.502 98.757,230.333 99.007,230.333 99.059 C 230.333 99.189,228.882 100.563,228.137 101.138 C 226.765 102.197,223.863 103.390,221.333 103.935 C 220.068 104.207,218.851 104.246,209.958 104.294 L 200.000 104.348 200.000 90.424 L 200.000 76.500 208.792 76.499 C 215.881 76.499,218.003 76.551,219.750 76.768 M278.495 78.747 C 278.498 78.837,278.730 79.400,279.011 79.997 C 279.292 80.595,279.673 81.421,279.857 81.833 C 280.042 82.246,280.337 82.883,280.513 83.250 C 280.690 83.617,280.834 83.969,280.834 84.033 C 280.833 84.134,281.271 85.108,282.654 88.083 C 282.824 88.450,283.843 90.737,284.917 93.167 C 285.992 95.596,287.097 98.071,287.373 98.667 C 287.649 99.263,288.133 100.350,288.448 101.083 C 289.029 102.432,289.240 102.909,289.926 104.417 C 290.135 104.875,290.468 105.625,290.666 106.083 C 290.864 106.542,291.164 107.198,291.332 107.542 L 291.639 108.167 278.319 108.167 C 269.795 108.167,265.000 108.108,265.000 108.004 C 265.000 107.915,265.164 107.484,265.365 107.046 C 265.987 105.690,266.697 104.108,266.937 103.542 C 267.063 103.244,267.274 102.756,267.406 102.458 C 267.537 102.160,268.220 100.604,268.923 99.000 C 269.627 97.396,270.334 95.783,270.496 95.417 C 270.657 95.050,270.902 94.487,271.040 94.167 C 271.177 93.846,271.834 92.346,272.499 90.833 C 274.114 87.161,274.280 86.784,274.653 85.958 C 274.828 85.569,275.327 84.425,275.761 83.417 C 276.698 81.240,277.446 79.584,277.767 78.974 C 277.895 78.731,278.000 78.398,278.000 78.234 C 278.000 77.901,278.484 78.402,278.495 78.747 " stroke="none" fill="#2c2c2c" fill-rule="evenodd"></path><path id="path2" d="M102.875 82.782 C 103.035 82.823,103.298 82.823,103.458 82.782 C 103.619 82.740,103.487 82.705,103.167 82.705 C 102.846 82.705,102.715 82.740,102.875 82.782 M148.875 82.782 C 149.035 82.823,149.298 82.823,149.458 82.782 C 149.619 82.740,149.487 82.705,149.167 82.705 C 148.846 82.705,148.715 82.740,148.875 82.782 M102.875 117.282 C 103.035 117.323,103.298 117.323,103.458 117.282 C 103.619 117.240,103.487 117.205,103.167 117.205 C 102.846 117.205,102.715 117.240,102.875 117.282 M148.875 117.282 C 149.035 117.323,149.298 117.323,149.458 117.282 C 149.619 117.240,149.487 117.205,149.167 117.205 C 148.846 117.205,148.715 117.240,148.875 117.282 M117.073 125.875 L 116.583 126.417 117.125 125.927 C 117.423 125.658,117.667 125.414,117.667 125.385 C 117.667 125.257,117.529 125.370,117.073 125.875 M115.740 127.208 L 115.250 127.750 115.792 127.260 C 116.090 126.991,116.333 126.748,116.333 126.719 C 116.333 126.590,116.196 126.703,115.740 127.208 " stroke="none" fill="#688054" fill-rule="evenodd"></path><path id="path3" d="M102.875 82.782 C 103.035 82.823,103.298 82.823,103.458 82.782 C 103.619 82.740,103.487 82.705,103.167 82.705 C 102.846 82.705,102.715 82.740,102.875 82.782 M148.875 82.782 C 149.035 82.823,149.298 82.823,149.458 82.782 C 149.619 82.740,149.487 82.705,149.167 82.705 C 148.846 82.705,148.715 82.740,148.875 82.782 M102.875 117.282 C 103.035 117.323,103.298 117.323,103.458 117.282 C 103.619 117.240,103.487 117.205,103.167 117.205 C 102.846 117.205,102.715 117.240,102.875 117.282 M148.875 117.282 C 149.035 117.323,149.298 117.323,149.458 117.282 C 149.619 117.240,149.487 117.205,149.167 117.205 C 148.846 117.205,148.715 117.240,148.875 117.282 M117.073 125.875 L 116.583 126.417 117.125 125.927 C 117.423 125.658,117.667 125.414,117.667 125.385 C 117.667 125.257,117.529 125.370,117.073 125.875 M115.740 127.208 L 115.250 127.750 115.792 127.260 C 116.090 126.991,116.333 126.748,116.333 126.719 C 116.333 126.590,116.196 126.703,115.740 127.208 " stroke="none" fill="#688054" fill-rule="evenodd"></path><path id="path4" d="M102.875 82.782 C 103.035 82.823,103.298 82.823,103.458 82.782 C 103.619 82.740,103.487 82.705,103.167 82.705 C 102.846 82.705,102.715 82.740,102.875 82.782 M148.875 82.782 C 149.035 82.823,149.298 82.823,149.458 82.782 C 149.619 82.740,149.487 82.705,149.167 82.705 C 148.846 82.705,148.715 82.740,148.875 82.782 M102.875 117.282 C 103.035 117.323,103.298 117.323,103.458 117.282 C 103.619 117.240,103.487 117.205,103.167 117.205 C 102.846 117.205,102.715 117.240,102.875 117.282 M148.875 117.282 C 149.035 117.323,149.298 117.323,149.458 117.282 C 149.619 117.240,149.487 117.205,149.167 117.205 C 148.846 117.205,148.715 117.240,148.875 117.282 M117.073 125.875 L 116.583 126.417 117.125 125.927 C 117.423 125.658,117.667 125.414,117.667 125.385 C 117.667 125.257,117.529 125.370,117.073 125.875 M115.740 127.208 L 115.250 127.750 115.792 127.260 C 116.090 126.991,116.333 126.748,116.333 126.719 C 116.333 126.590,116.196 126.703,115.740 127.208 " stroke="none" fill="#688054" fill-rule="evenodd"></path></g></svg>