<svg width="400" height="201" viewBox="0 0 400 201" fill="none" xmlns="http://www.w3.org/2000/svg">
<path d="M325.948 134.356V109.785L302.441 66.6406H314.243L330.495 97.3062H331.946L348.198 66.6406H360L336.493 109.785V134.356H325.948Z" fill="black"/>
<path d="M253.043 134.364L272.39 66.6484H290.77L310.021 134.364H299.283L294.833 118.403H268.327L263.877 134.364H253.043ZM270.939 108.729H292.221L282.354 73.1298H280.806L270.939 108.729Z" fill="black"/>
<path d="M198.887 134.364V66.6484H227.327C231.519 66.6484 235.195 67.3901 238.355 68.8734C241.58 70.2922 244.063 72.3559 245.804 75.0645C247.61 77.7732 248.513 80.9977 248.513 84.7382V85.8023C248.513 90.0587 247.481 93.4767 245.417 96.0564C243.418 98.5715 240.967 100.345 238.065 101.377V102.925C240.516 103.054 242.483 103.892 243.966 105.44C245.449 106.923 246.191 109.084 246.191 111.921V134.364H235.647V113.372C235.647 111.631 235.195 110.244 234.292 109.213C233.39 108.181 231.938 107.665 229.939 107.665H209.334V134.364H198.887ZM209.334 98.1846H226.166C229.907 98.1846 232.809 97.2495 234.873 95.3792C236.937 93.4445 237.968 90.8326 237.968 87.5436V86.7697C237.968 83.4806 236.937 80.901 234.873 79.0307C232.874 77.096 229.971 76.1286 226.166 76.1286H209.334V98.1846Z" fill="black"/>
<path fill-rule="evenodd" clip-rule="evenodd" d="M143.629 101.311L98.3087 146.631L94.9902 143.313L140.311 97.9922L143.629 101.311Z" fill="#02A0CF"/>
<path fill-rule="evenodd" clip-rule="evenodd" d="M141.953 102.334L51.4453 102.334L51.4453 97.6406L141.953 97.6406L141.953 102.334Z" fill="#02A0CF"/>
<path fill-rule="evenodd" clip-rule="evenodd" d="M94.9916 55.9864L140.312 101.307L143.631 97.9887L98.3101 52.668L94.9916 55.9864Z" fill="#02A0CF"/>
<rect x="40" y="88.3164" width="22.6604" height="22.6604" fill="#02A0CF"/>
<rect x="85.3203" y="88.3164" width="22.6604" height="22.6604" fill="#02A0CF"/>
<rect x="85.3203" y="43" width="22.6604" height="22.6604" fill="#02A0CF"/>
<rect x="85.3203" y="133.645" width="22.6604" height="22.6604" fill="#02A0CF"/>
<rect x="130.641" y="88.3164" width="22.6604" height="22.6604" fill="#02A0CF"/>
</svg>
