<svg id="svg" version="1.1" xmlns="http://www.w3.org/2000/svg" xmlns:xlink="http://www.w3.org/1999/xlink" width="400" height="406.56934306569343" viewBox="0, 0, 400,406.56934306569343"><g id="svgg"><path id="path0" d="M191.400 11.854 C 163.334 16.227,144.012 40.139,146.447 67.486 C 149.682 103.821,187.264 125.232,220.526 109.689 L 224.453 107.855 257.826 141.226 C 276.182 159.581,291.200 174.828,291.200 175.109 C 291.200 175.390,290.591 176.830,289.846 178.310 C 289.101 179.789,287.922 182.615,287.226 184.589 C 286.530 186.563,285.744 188.315,285.480 188.483 C 284.853 188.881,249.147 188.881,248.520 188.483 C 248.256 188.315,247.473 186.563,246.780 184.589 C 230.428 138.023,163.708 138.575,148.773 185.400 C 148.281 186.940,147.682 188.332,147.440 188.494 C 146.614 189.046,110.543 188.859,110.115 188.300 C 109.904 188.025,109.231 186.360,108.619 184.600 C 95.907 148.064,49.588 137.828,22.639 165.601 C -3.911 192.961,7.380 238.465,43.716 250.544 C 70.275 259.373,99.332 244.892,108.619 218.200 C 109.231 216.440,109.904 214.775,110.115 214.500 C 110.543 213.941,146.614 213.754,147.440 214.306 C 147.682 214.468,148.281 215.860,148.773 217.400 C 163.714 264.243,230.422 264.796,246.780 218.211 C 247.473 216.237,248.256 214.485,248.520 214.317 C 249.147 213.919,284.853 213.919,285.480 214.317 C 285.744 214.485,286.530 216.237,287.226 218.211 C 287.922 220.185,289.101 223.011,289.846 224.490 C 290.591 225.970,291.200 227.410,291.200 227.691 C 291.200 227.972,276.182 243.219,257.826 261.574 L 224.453 294.945 220.526 293.111 C 177.729 273.113,132.962 314.526,149.831 358.511 C 161.989 390.212,202.299 401.371,229.472 380.558 C 248.809 365.747,254.957 339.458,244.371 316.845 C 243.507 314.999,242.800 313.289,242.800 313.044 C 242.800 312.282,308.949 246.400,309.714 246.400 C 310.106 246.400,311.276 246.830,312.314 247.356 C 347.076 264.972,387.600 240.235,387.600 201.400 C 387.600 162.879,348.494 138.512,313.219 155.053 L 309.438 156.826 276.315 123.713 C 258.097 105.501,243.101 90.315,242.990 89.967 C 242.879 89.619,243.498 87.819,244.365 85.967 C 256.550 59.939,246.235 29.447,221.000 16.894 C 212.851 12.840,199.578 10.580,191.400 11.854 M205.506 38.054 C 230.220 45.615,230.146 80.770,205.400 88.383 C 189.284 93.342,172.761 81.668,171.737 64.600 C 170.657 46.607,188.252 32.775,205.506 38.054 M67.602 176.306 C 86.705 183.101,92.221 205.721,78.219 219.847 C 67.913 230.244,51.206 230.219,41.036 219.790 C 26.518 204.905,34.166 179.970,54.596 175.581 C 57.345 174.990,65.121 175.424,67.602 176.306 M203.774 175.802 C 223.660 180.014,230.969 205.431,216.466 219.934 C 203.869 232.531,182.083 229.015,174.465 213.156 C 164.789 193.013,181.925 171.173,203.774 175.802 M344.110 176.344 C 363.004 183.053,368.550 205.882,354.661 219.775 C 338.044 236.396,309.859 224.836,309.859 201.400 C 309.859 183.830,327.941 170.602,344.110 176.344 M205.400 314.411 C 224.638 320.371,230.501 344.070,216.233 358.202 C 201.404 372.889,176.527 365.324,172.159 344.800 C 168.098 325.718,186.777 308.641,205.400 314.411 " stroke="none" fill="#292029" fill-rule="evenodd"></path><path id="path1" d="M0.000 203.200 L 0.000 406.400 200.000 406.400 L 400.000 406.400 400.000 203.200 L 400.000 0.000 200.000 0.000 L 0.000 0.000 0.000 203.200 M209.204 12.733 C 242.072 20.605,258.725 55.292,244.365 85.967 C 243.498 87.819,242.879 89.619,242.990 89.967 C 243.101 90.315,258.097 105.501,276.315 123.713 L 309.438 156.826 313.219 155.053 C 348.494 138.512,387.600 162.879,387.600 201.400 C 387.600 240.235,347.076 264.972,312.314 247.356 C 311.276 246.830,310.106 246.400,309.714 246.400 C 308.949 246.400,242.800 312.282,242.800 313.044 C 242.800 313.289,243.507 314.999,244.371 316.845 C 254.957 339.458,248.809 365.747,229.472 380.558 C 202.299 401.371,161.989 390.212,149.831 358.511 C 132.962 314.526,177.729 273.113,220.526 293.111 L 224.453 294.945 257.826 261.574 C 276.182 243.219,291.200 227.972,291.200 227.691 C 291.200 227.410,290.591 225.970,289.846 224.490 C 289.101 223.011,287.922 220.185,287.226 218.211 C 286.530 216.237,285.744 214.485,285.480 214.317 C 284.853 213.919,249.147 213.919,248.520 214.317 C 248.256 214.485,247.473 216.237,246.780 218.211 C 230.422 264.796,163.714 264.243,148.773 217.400 C 148.281 215.860,147.682 214.468,147.440 214.306 C 146.614 213.754,110.543 213.941,110.115 214.500 C 109.904 214.775,109.231 216.440,108.619 218.200 C 99.332 244.892,70.275 259.373,43.716 250.544 C 7.380 238.465,-3.911 192.961,22.639 165.601 C 49.588 137.828,95.907 148.064,108.619 184.600 C 109.231 186.360,109.904 188.025,110.115 188.300 C 110.543 188.859,146.614 189.046,147.440 188.494 C 147.682 188.332,148.281 186.940,148.773 185.400 C 163.708 138.575,230.428 138.023,246.780 184.589 C 247.473 186.563,248.256 188.315,248.520 188.483 C 249.147 188.881,284.853 188.881,285.480 188.483 C 285.744 188.315,286.530 186.563,287.226 184.589 C 287.922 182.615,289.101 179.789,289.846 178.310 C 290.591 176.830,291.200 175.390,291.200 175.109 C 291.200 174.828,276.182 159.581,257.826 141.226 L 224.453 107.855 220.526 109.689 C 187.264 125.232,149.682 103.821,146.447 67.486 C 144.012 40.139,163.334 16.227,191.400 11.854 C 194.497 11.372,205.864 11.933,209.204 12.733 M194.600 37.061 C 168.591 41.195,163.094 75.394,186.600 86.832 C 200.957 93.817,217.948 86.444,222.972 71.049 C 228.747 53.350,212.743 34.177,194.600 37.061 M54.596 175.581 C 34.166 179.970,26.518 204.905,41.036 219.790 C 57.380 236.549,85.800 224.873,85.800 201.400 C 85.800 184.848,70.476 172.169,54.596 175.581 M192.521 175.619 C 178.678 178.354,169.364 192.627,172.226 206.717 C 176.356 227.039,201.769 234.631,216.466 219.934 C 234.745 201.655,217.960 170.593,192.521 175.619 M330.090 175.783 C 318.401 178.442,309.859 189.258,309.859 201.400 C 309.859 224.836,338.044 236.396,354.661 219.775 C 373.130 201.302,355.631 169.973,330.090 175.783 M192.617 313.801 C 175.912 317.278,166.906 335.613,174.345 351.000 C 184.669 372.355,215.581 370.097,222.972 347.449 C 229.058 328.799,211.905 309.786,192.617 313.801 " stroke="none" fill="#ffffff" fill-rule="evenodd"></path></g></svg>