<svg width="40" height="40" viewBox="0 0 40 40" fill="none" xmlns="http://www.w3.org/2000/svg">
<g clip-path="url(#clip0_17_74)">
<path d="M6.66659 30V23.8333C6.66659 23.1703 6.40319 22.5344 5.93435 22.0656C5.46551 21.5967 4.82963 21.3333 4.16659 21.3333H3.33325V18.6667H4.16659C4.49489 18.6667 4.81998 18.602 5.12329 18.4764C5.42661 18.3507 5.70221 18.1666 5.93435 17.9344C6.1665 17.7023 6.35065 17.4267 6.47628 17.1234C6.60192 16.8201 6.66659 16.495 6.66659 16.1667V10C6.66659 8.67392 7.19337 7.40215 8.13105 6.46447C9.06873 5.52678 10.3405 5 11.6666 5H13.3333V8.33333H11.6666C11.2246 8.33333 10.8006 8.50893 10.4881 8.82149C10.1755 9.13405 9.99992 9.55797 9.99992 10V16.8333C10.0001 17.535 9.77883 18.2189 9.36765 18.7875C8.95647 19.356 8.37635 19.7804 7.70992 20C8.37635 20.2196 8.95647 20.644 9.36765 21.2125C9.77883 21.7811 10.0001 22.465 9.99992 23.1667V30C9.99992 30.442 10.1755 30.866 10.4881 31.1785C10.8006 31.4911 11.2246 31.6667 11.6666 31.6667H13.3333V35H11.6666C10.3405 35 9.06873 34.4732 8.13105 33.5355C7.19337 32.5979 6.66659 31.3261 6.66659 30V30ZM33.3333 23.8333V30C33.3333 31.3261 32.8065 32.5979 31.8688 33.5355C30.9311 34.4732 29.6593 35 28.3333 35H26.6666V31.6667H28.3333C28.7753 31.6667 29.1992 31.4911 29.5118 31.1785C29.8243 30.866 29.9999 30.442 29.9999 30V23.1667C29.9997 22.465 30.221 21.7811 30.6322 21.2125C31.0434 20.644 31.6235 20.2196 32.2899 20C31.6235 19.7804 31.0434 19.356 30.6322 18.7875C30.221 18.2189 29.9997 17.535 29.9999 16.8333V10C29.9999 9.55797 29.8243 9.13405 29.5118 8.82149C29.1992 8.50893 28.7753 8.33333 28.3333 8.33333H26.6666V5H28.3333C29.6593 5 30.9311 5.52678 31.8688 6.46447C32.8065 7.40215 33.3333 8.67392 33.3333 10V16.1667C33.3333 16.8297 33.5966 17.4656 34.0655 17.9344C34.5343 18.4033 35.1702 18.6667 35.8333 18.6667H36.6666V21.3333H35.8333C35.1702 21.3333 34.5343 21.5967 34.0655 22.0656C33.5966 22.5344 33.3333 23.1703 33.3333 23.8333V23.8333Z" fill="black"/>
</g>
<defs>
<clipPath id="clip0_17_74">
<rect width="40" height="40" fill="white"/>
</clipPath>
</defs>
</svg>
