<?xml version="1.0" encoding="UTF-8"?>
<svg id="Layer_1" data-name="Layer 1" xmlns="http://www.w3.org/2000/svg" width="350" height="100" viewBox="0 0 867.35999 247.36">
  <defs>
    <style>.cls-1{fill:#036aea;}.cls-2{fill:#2c2c2c;}</style>
  </defs>
  <path class="cls-1" d="M110.16183,17.00937c.234.64911.89285.75636,1.38878,1.04463q8.65416,5.03016,17.32827,10.02611a4.902,4.902,0,0,1,1.39222.939,6.25329,6.25329,0,0,1-2.00979,1.34288Q84.06746,55.88562,39.83977,81.35049a3.5002,3.5002,0,0,0-2.0716,3.5423q.10251,39.40016.016,78.80068a3.00409,3.00409,0,0,0,1.724,3.08369c5.73342,3.19444,11.38854,6.52925,17.078,9.80283a3.87237,3.87237,0,0,0,1.65567.74254,4.76982,4.76982,0,0,0,.16835-1.97075q.00955-39.0721.00546-78.14418a10.84851,10.84851,0,0,0-.00873-1.31225,1.868,1.868,0,0,1,1.15285-2.078c2.35661-1.275,4.65619-2.65541,6.97762-3.99533q41.571-23.99492,83.12628-48.01711a2.65165,2.65165,0,0,1,3.07973.008q24.1989,14.044,48.46065,27.97945a2.25269,2.25269,0,0,1,1.37048,2.28946c-.08568,3.11684-.11285,6.2409.0103,9.35522a2.46169,2.46169,0,0,1-1.52132,2.53528q-23.40626,13.44752-46.77323,26.96342c-10.65984,6.15167-21.30613,12.32707-31.99592,18.42625a2.88237,2.88237,0,0,0-1.714,2.91539q.07714,45.31035.03865,90.6209a10.01334,10.01334,0,0,0,.00764,1.14828,1.33291,1.33291,0,0,1-.80487,1.44373q-4.63958,2.6299-9.23928,5.32968a1.43945,1.43945,0,0,1-1.65763-.04425c-2.734-1.60919-5.478-3.2023-8.24537-4.75317a1.4411,1.4411,0,0,1-.887-1.56446,8.60452,8.60452,0,0,0,.00566-.98425V120.376c0-.38307.018-.76708-.00318-1.14895a1.11659,1.11659,0,0,1,.66771-1.19286c.39321-.18914.75949-.43409,1.1385-.65293q34.24956-19.774,68.499-39.54835c.47206-.27256.93908-.55384,1.39332-.82209.007-.54509-.44507-.61675-.74218-.78888-6.20049-3.592-12.42608-7.14118-18.59627-10.78425-.93444-.55172-1.49672-.20794-2.2145.20668Q127.06326,78.8595,104.17915,92.06274c-7.81675,4.512-15.61837,9.05069-23.46491,13.51033a2.65214,2.65214,0,0,0-1.547,2.67872q.05772,51.54884.03049,103.09774v1.90088a1.98245,1.98245,0,0,1-1.48181-.51057q-29.71047-17.13391-59.426-34.2589a2.32331,2.32331,0,0,1-1.325-2.3298q.0438-51.95926-.009-103.91855a2.55549,2.55549,0,0,1,1.56854-2.52281q44.2934-25.51623,88.5487-51.0985a7.5738,7.5738,0,0,0,2.4319-1.60191Z"/>
  <path class="cls-2" d="M419.84534,124.31907q.00006-21.75045.00342-43.50088c.00089-1.99986-.23346-1.77545,1.7161-1.7759q32.51074-.00748,65.02142-.00316c.05472,0,.1095-.00024.16422.00005,1.59945.00851,1.53387-.17085,1.53418,1.47169q.001,5.335.00024,10.67c0,1.25852-.03537,2.51836.01254,3.775.02793.73161-.25342.98561-.95123.9186-.37958-.03646-.76563-.006-1.14874-.006h-43.3476c-.38312,0-.76944.032-1.14868-.00619-.77979-.07865-1.07776.23169-1.051,1.02469.046,1.36638.01208,2.73547.01208,4.10341-.00012,4.15858-.00839,8.31718.00323,12.47574.00651,2.31839-.25863,2.0417,1.96949,2.043q18.88248.011,37.765.00354c.27365,0,.54733-.003.821.00052,1.37426.01751,1.56585-.33007,1.556,1.47974-.01255,2.29807-.003,4.59626-.003,6.8944,0,2.24344.01123,4.487-.00458,6.7303-.0087,1.23577-.02915,1.25527-1.27826,1.25691q-8.70237.01143-17.40473.00341-10.75484,0-21.50961.00036c-.4378,0-.87588-.00268-1.31338.01a.54327.54327,0,0,0-.59467.61007c.00128.27353-.00613.54706-.00616.82061q-.0006,8.9464.00128,17.89281c.001,1.55574.01007,1.56339,1.65768,1.5636q22.82319.003,45.64636.00435c2.26792.00091,2.02424-.2668,2.0289,1.99322.00919,4.43215-.00445,8.86434.006,13.29648.00457,1.95037-.1742,1.56473-1.63434,1.56507q-33.41377.00787-66.82758.00352c-.3284,0-.6571-.01149-.98507-.00072-.4683.0154-.71314-.18356-.70667-.66848.0058-.43763-.00348-.87543-.00348-1.31316q-.0005-21.66825-.00033-43.33661Zm106.64533,45.31925c1.1358-2.56891,2.14282-4.86276,3.16278-7.15086q18.2211-40.87458,36.44543-81.74775a6.42959,6.42959,0,0,0,.32654-.75122,1.274,1.274,0,0,1,1.45484-.966c6.23907.02993,12.47863.049,18.71722-.0147,1.04981-.01071,1.26355.58652,1.57739,1.28905q6.88779,15.41556,13.7862,30.82638,12.68508,28.35664,25.36151,56.71717a3.36251,3.36251,0,0,1,.57324,1.67325,2.47764,2.47764,0,0,1-1.28332.1188q-9.52305.01257-19.046.00241c-1.6986-.00224-1.391.24-2.094-1.4456-2.31341-5.54684-4.6272-11.094-6.86493-16.67151a1.71468,1.71468,0,0,0-1.90173-1.27479c-13.08032.03439-26.16083.01936-39.24121.02676-1.67591.00095-1.35938-.17374-1.98517,1.33729q-3.449,8.32877-6.89716,16.6579c-.6427,1.54393-.39471,1.3707-1.98272,1.37171q-9.3588.006-18.71759.00166ZM562.847,134.137h28.52936c-4.754-11.47235-9.44275-22.78746-14.26794-34.4317ZM727.16,101.30848c-1.637-.806-3.27289-1.66366-4.95093-2.42854a47.75778,47.75778,0,0,0-19.33752-4.522,32.35857,32.35857,0,0,0-9.904,1.11834,13.05763,13.05763,0,0,0-5.13507,2.80669,8.32037,8.32037,0,0,0-2.82459,6.07891,7.00252,7.00252,0,0,0,3.77277,6.62115,31.90639,31.90639,0,0,0,6.37158,2.56944c5.00043,1.60757,10.17578,2.53423,15.23578,3.91174,3.9024,1.0624,7.78778,2.17437,11.57025,3.61655a28.95665,28.95665,0,0,1,8.27264,4.92864,19.50422,19.50422,0,0,1,7.12732,12.52991,25.568,25.568,0,0,1-4.42138,19.3113,27.22736,27.22736,0,0,1-8.68921,7.62631,41.34739,41.34739,0,0,1-15.96424,5.14524,73.9551,73.9551,0,0,1-33.62811-3.55857,45.30347,45.30347,0,0,1-11.27533-5.58955c-1.05841-.745-1.062-.76283-.52814-1.95271q3.05265-6.80409,6.12513-13.59925c.12982-.287.18652-.63759.49981-.813.4021-.115.60938.21091.86139.38036a52.27032,52.27032,0,0,0,23.35156,8.4826,43.17451,43.17451,0,0,0,13.71857-.38467,13.85459,13.85459,0,0,0,6.75879-3.13964,7.52605,7.52605,0,0,0,2.61432-5.29554,6.74312,6.74312,0,0,0-2.46246-5.80928,18.70374,18.70374,0,0,0-6.467-3.455c-4.10468-1.35353-8.32258-2.27839-12.51478-3.30206a144.53173,144.53173,0,0,1-14.62078-4.27867,28.78544,28.78544,0,0,1-8.01361-4.40112,20.46479,20.46479,0,0,1-8.334-14.33c-1.05249-9.6633,1.77722-17.81665,9.50928-24.00039a33.38808,33.38808,0,0,1,9.61786-5.2143,53.77267,53.77267,0,0,1,18.21588-2.88366A65.80218,65.80218,0,0,1,727.649,82.324a47.21321,47.21321,0,0,1,5.416,2.72406c.48321.27872.72479.55629.47027,1.17158-2.04541,4.94518-4.06164,9.90239-6.094,14.853-.03577.08724-.16052.13791-.28107.23586Z"/>
  <path class="cls-1" d="M202.36405,107.08141a5.75059,5.75059,0,0,1,.177,2.03461q.00735,33.40441.03057,66.8088a2.65323,2.65323,0,0,1-1.51465,2.69453q-28.95561,16.6287-57.85668,33.35236a4.34318,4.34318,0,0,1-1.7149.81538,2.35109,2.35109,0,0,1-.20956-1.49481c-.00983-6.89427.02276-13.78882-.03574-20.68258a2.28138,2.28138,0,0,1,1.3717-2.28679c12.5244-7.18526,25.00977-14.43863,37.54958-21.5967a2.86671,2.86671,0,0,0,1.658-2.95331c-.07751-6.29144-.03352-12.58438-.03352-18.87678v-1.93291c-1.864.8833-3.43649,1.91268-5.06557,2.82509-1.71779.96208-3.41214,1.966-5.11685,2.95142q-2.48582,1.437-4.97186,2.87368-2.55732,1.47767-5.115,2.95468-2.48616,1.43653-4.97218,2.87323-2.48767,1.43409-4.97823,2.86315-2.5593,1.474-5.11669,2.95138-2.46255,1.4203-4.92745,2.84133a2.42475,2.42475,0,0,1-.246-1.57167c-.01009-6.89427.02652-13.78887-.03824-20.68254a2.39472,2.39472,0,0,1,1.44386-2.40647q28.94586-16.64544,57.85091-33.36175c.55565-.32067,1.12781-.61267,1.83151-.99335Z"/>
  <path class="cls-2" d="M305.22236,124.31643q0-21.75031.00345-43.50063c.00085-1.99891-.23365-1.773,1.71844-1.77349q32.51056-.00756,65.021-.00319c.10943,0,.21893-.00115.3284.00022,1.3551.0168,1.364.01689,1.36642,1.4735q.00843,5.1708.00189,10.34165c0,1.368-.03439,2.73707.01282,4.10337.02533.73425-.25748.98339-.95343.91667-.37958-.03639-.76559-.006-1.14871-.006q-21.75573,0-43.51157.00328c-2.03088.00085-1.81283-.25159-1.81515,1.85809q-.01084,10.09543-.0025,20.19087c0,.383.01193.76624.00152,1.14891-.01251.45929.15769.72306.65769.71.4375-.01146.87561.00145,1.31344.00147q19.04659.00033,38.09314.00485c1.947.0014,1.8385-.33249,1.84052,1.84352q.00609,6.64821.00116,13.29642c-.0001,1.82985.12857,1.702-1.66376,1.70206q-19.1287,0-38.25733.004c-2.26547.00146-1.9801-.28376-1.98245,2.02537q-.01446,14.28132-.00406,28.56268,0,.41039-.00009.82077c-.00213,1.72192.1167,1.59765-1.59524,1.59759q-8.86647-.00027-17.733-.00207c-1.79386-.00162-1.69236.21539-1.69242-1.65509q-.00059-21.83242-.00015-43.66481ZM811.86445,79.03912h37.26306a9.24874,9.24874,0,0,0,.98425-.00559c.7381-.07944,1.0716.12822,1.06562.971q-.05292,7.54884.0025,15.09814c.00769.92817-.37848,1.05668-1.164,1.05349-5.85468-.0237-11.70966-.0128-17.56452-.01274-3.00952,0-6.019-.00775-9.0285.004-1.18433.00463-1.1872.02446-1.21741,1.13835-.01044.38266-.002.76582-.002,1.14875q-.00009,34.62795-.00311,69.25589c-.00049,2.20708.2387,1.94065-1.89508,1.9444q-8.61814.01523-17.23621.00015c-2.1261-.00358-1.88153.25408-1.882-1.95759q-.00741-34.71-.00836-69.42c-.001-2.4471.32916-2.10418-2.048-2.10837q-12.39367-.02183-24.78735-.00561c-.21887,0-.43774.00055-.65661-.0001-1.47-.00448-1.46662.1802-1.46088-1.38175.00384-1.03937.00073-2.07876.00073-3.11815q0-5.4978.00183-10.9956c.003-1.79542-.153-1.60515,1.552-1.60656q9.52094-.00789,19.04194-.0021Z"/>
</svg>
