<svg width="40" height="40" viewBox="0 0 40 40" fill="none" xmlns="http://www.w3.org/2000/svg">
<g clip-path="url(#clip0_17_98)">
<path d="M19.9999 36.6667C10.7949 36.6667 3.33325 29.205 3.33325 20C3.33325 10.795 10.7949 3.33333 19.9999 3.33333C29.2049 3.33333 36.6666 10.795 36.6666 20C36.6666 29.205 29.2049 36.6667 19.9999 36.6667ZM19.9999 33.3333C23.5361 33.3333 26.9275 31.9286 29.428 29.4281C31.9285 26.9276 33.3333 23.5362 33.3333 20C33.3333 16.4638 31.9285 13.0724 29.428 10.5719C26.9275 8.07142 23.5361 6.66666 19.9999 6.66666C16.4637 6.66666 13.0723 8.07142 10.5718 10.5719C8.07134 13.0724 6.66659 16.4638 6.66659 20C6.66659 23.5362 8.07134 26.9276 10.5718 29.4281C13.0723 31.9286 16.4637 33.3333 19.9999 33.3333V33.3333ZM17.7033 14.025L25.8349 19.445C25.9264 19.5059 26.0014 19.5884 26.0532 19.6852C26.1051 19.782 26.1322 19.8902 26.1322 20C26.1322 20.1098 26.1051 20.218 26.0532 20.3148C26.0014 20.4116 25.9264 20.4941 25.8349 20.555L17.7016 25.975C17.6013 26.0415 17.4849 26.0796 17.3647 26.0852C17.2445 26.0909 17.125 26.064 17.0189 26.0072C16.9128 25.9505 16.824 25.8661 16.762 25.763C16.7 25.6599 16.667 25.542 16.6666 25.4217V14.5783C16.6668 14.4577 16.6997 14.3395 16.7619 14.2361C16.824 14.1328 16.913 14.0482 17.0193 13.9914C17.1257 13.9347 17.2455 13.9078 17.3659 13.9137C17.4864 13.9196 17.6029 13.9581 17.7033 14.025V14.025Z" fill="black"/>
</g>
<defs>
<clipPath id="clip0_17_98">
<rect width="40" height="40" fill="white"/>
</clipPath>
</defs>
</svg>
