<svg width="40" height="40" viewBox="0 0 40 40" fill="none" xmlns="http://www.w3.org/2000/svg">
<g clip-path="url(#clip0_17_106)">
<path d="M21.6666 35V38.3333H18.3333V35H4.99992C4.55789 35 4.13397 34.8244 3.82141 34.5118C3.50885 34.1993 3.33325 33.7754 3.33325 33.3333V6.66667C3.33325 6.22464 3.50885 5.80072 3.82141 5.48816C4.13397 5.1756 4.55789 5 4.99992 5H14.9999C15.9459 4.99888 16.8812 5.1996 17.7435 5.58875C18.6057 5.9779 19.375 6.54653 19.9999 7.25667C20.6249 6.54653 21.3942 5.9779 22.2564 5.58875C23.1186 5.1996 24.0539 4.99888 24.9999 5H34.9999C35.4419 5 35.8659 5.1756 36.1784 5.48816C36.491 5.80072 36.6666 6.22464 36.6666 6.66667V33.3333C36.6666 33.7754 36.491 34.1993 36.1784 34.5118C35.8659 34.8244 35.4419 35 34.9999 35H21.6666ZM33.3333 31.6667V8.33334H24.9999C24.1159 8.33334 23.268 8.68453 22.6429 9.30965C22.0178 9.93477 21.6666 10.7826 21.6666 11.6667V31.6667H33.3333ZM18.3333 31.6667V11.6667C18.3333 10.7826 17.9821 9.93477 17.3569 9.30965C16.7318 8.68453 15.884 8.33334 14.9999 8.33334H6.66659V31.6667H18.3333Z" fill="black"/>
</g>
<defs>
<clipPath id="clip0_17_106">
<rect width="40" height="40" fill="white"/>
</clipPath>
</defs>
</svg>
