<svg version="1.1" viewBox="0.0 0.0 668.6587926509186 207.66929133858267" fill="none" stroke="none" stroke-linecap="square" stroke-miterlimit="10" xmlns:xlink="http://www.w3.org/1999/xlink" xmlns="http://www.w3.org/2000/svg"><clipPath id="p.0"><path d="m0 0l668.6588 0l0 207.6693l-668.6588 0l0 -207.6693z" clip-rule="nonzero"/></clipPath><g clip-path="url(#p.0)"><path fill="#000000" fill-opacity="0.0" d="m0 0l668.6588 0l0 207.6693l-668.6588 0z" fill-rule="evenodd"/><path fill="#cfe2f3" d="m298.34647 62.354332l160.0 0l0 112.15748l-160.0 0z" fill-rule="evenodd"/><path stroke="#000000" stroke-width="1.0" stroke-linejoin="round" stroke-linecap="butt" d="m298.34647 62.354332l160.0 0l0 112.15748l-160.0 0z" fill-rule="evenodd"/><path fill="#cfe2f3" d="m313.09088 77.21757l160.0 0l0 112.15748l-160.0 0z" fill-rule="evenodd"/><path stroke="#000000" stroke-width="1.0" stroke-linejoin="round" stroke-linecap="butt" d="m313.09088 77.21757l160.0 0l0 112.15748l-160.0 0z" fill-rule="evenodd"/><path fill="#cfe2f3" d="m327.83533 92.0808l160.0 0l0 112.15748l-160.0 0z" fill-rule="evenodd"/><path stroke="#000000" stroke-width="1.0" stroke-linejoin="round" stroke-linecap="butt" d="m327.83533 92.0808l160.0 0l0 112.15748l-160.0 0z" fill-rule="evenodd"/><path fill="#000000" d="m347.78772 197.57953l0 -13.359375l5.921875 0q1.78125 0 2.703125 0.359375q0.9375 0.359375 1.484375 1.28125q0.5625 0.90625 0.5625 2.015625q0 1.40625 -0.921875 2.390625q-0.921875 0.96875 -2.84375 1.234375q0.703125 0.34375 1.078125 0.671875q0.765625 0.703125 1.453125 1.765625l2.328125 3.640625l-2.21875 0l-1.765625 -2.78125q-0.78125 -1.203125 -1.28125 -1.828125q-0.5 -0.640625 -0.90625 -0.890625q-0.390625 -0.265625 -0.796875 -0.359375q-0.296875 -0.078125 -0.984375 -0.078125l-2.046875 0l0 5.9375l-1.765625 0zm1.765625 -7.453125l3.796875 0q1.21875 0 1.890625 -0.25q0.6875 -0.265625 1.046875 -0.8125q0.359375 -0.546875 0.359375 -1.1875q0 -0.953125 -0.6875 -1.5625q-0.6875 -0.609375 -2.1875 -0.609375l-4.21875 0l0 4.421875zm10.863586 2.609375q0 -2.6875 1.484375 -3.96875q1.25 -1.078125 3.046875 -1.078125q2.0 0 3.265625 1.3125q1.265625 1.296875 1.265625 3.609375q0 1.859375 -0.5625 2.9375q-0.5625 1.0625 -1.640625 1.65625q-1.0625 0.59375 -2.328125 0.59375q-2.03125 0 -3.28125 -1.296875q-1.25 -1.3125 -1.25 -3.765625zm1.6875 0q0 1.859375 0.796875 2.796875q0.8125 0.921875 2.046875 0.921875q1.21875 0 2.03125 -0.921875q0.8125 -0.9375 0.8125 -2.84375q0 -1.796875 -0.8125 -2.71875q-0.8125 -0.921875 -2.03125 -0.921875q-1.234375 0 -2.046875 0.921875q-0.796875 0.90625 -0.796875 2.765625zm9.250702 4.84375l0 -13.359375l1.640625 0l0 13.359375l-1.640625 0zm4.1448364 0l0 -13.359375l1.640625 0l0 13.359375l-1.640625 0zm3.582306 -4.84375q0 -2.6875 1.484375 -3.96875q1.25 -1.078125 3.046875 -1.078125q2.0 0 3.265625 1.3125q1.265625 1.296875 1.265625 3.609375q0 1.859375 -0.5625 2.9375q-0.5625 1.0625 -1.640625 1.65625q-1.0625 0.59375 -2.328125 0.59375q-2.03125 0 -3.28125 -1.296875q-1.25 -1.3125 -1.25 -3.765625zm1.6875 0q0 1.859375 0.796875 2.796875q0.8125 0.921875 2.046875 0.921875q1.21875 0 2.03125 -0.921875q0.8125 -0.9375 0.8125 -2.84375q0 -1.796875 -0.8125 -2.71875q-0.8125 -0.921875 -2.03125 -0.921875q-1.234375 0 -2.046875 0.921875q-0.796875 0.90625 -0.796875 2.765625zm15.625732 4.84375l0 -1.421875q-1.125 1.640625 -3.0625 1.640625q-0.859375 0 -1.609375 -0.328125q-0.734375 -0.328125 -1.09375 -0.828125q-0.359375 -0.5 -0.5 -1.21875q-0.109375 -0.46875 -0.109375 -1.53125l0 -5.984375l1.640625 0l0 5.359375q0 1.28125 0.109375 1.734375q0.15625 0.640625 0.65625 1.015625q0.5 0.375 1.234375 0.375q0.734375 0 1.375 -0.375q0.65625 -0.390625 0.921875 -1.03125q0.265625 -0.65625 0.265625 -1.890625l0 -5.1875l1.640625 0l0 9.671875l-1.46875 0zm7.625702 -1.46875l0.234375 1.453125q-0.6875 0.140625 -1.234375 0.140625q-0.890625 0 -1.390625 -0.28125q-0.484375 -0.28125 -0.6875 -0.734375q-0.203125 -0.46875 -0.203125 -1.9375l0 -5.578125l-1.203125 0l0 -1.265625l1.203125 0l0 -2.390625l1.625 -0.984375l0 3.375l1.65625 0l0 1.265625l-1.65625 0l0 5.671875q0 0.6875 0.078125 0.890625q0.09375 0.203125 0.28125 0.328125q0.203125 0.109375 0.578125 0.109375q0.265625 0 0.71875 -0.0625zm9.319733 1.46875l-3.53125 -13.359375l1.8125 0l2.03125 8.765625q0.328125 1.375 0.5625 2.71875q0.5 -2.140625 0.59375 -2.46875l2.546875 -9.015625l2.125 0l1.921875 6.765625q0.71875 2.515625 1.03125 4.71875q0.265625 -1.265625 0.671875 -2.890625l2.09375 -8.59375l1.78125 0l-3.671875 13.359375l-1.703125 0l-2.8125 -10.171875q-0.359375 -1.28125 -0.421875 -1.5625q-0.203125 0.90625 -0.390625 1.5625l-2.828125 10.171875l-1.8125 0zm14.130798 -4.84375q0 -2.6875 1.484375 -3.96875q1.25 -1.078125 3.046875 -1.078125q2.0 0 3.265625 1.3125q1.265625 1.296875 1.265625 3.609375q0 1.859375 -0.5625 2.9375q-0.5625 1.0625 -1.640625 1.65625q-1.0625 0.59375 -2.328125 0.59375q-2.03125 0 -3.28125 -1.296875q-1.25 -1.3125 -1.25 -3.765625zm1.6875 0q0 1.859375 0.796875 2.796875q0.8125 0.921875 2.046875 0.921875q1.21875 0 2.03125 -0.921875q0.8125 -0.9375 0.8125 -2.84375q0 -1.796875 -0.8125 -2.71875q-0.8125 -0.921875 -2.03125 -0.921875q-1.234375 0 -2.046875 0.921875q-0.796875 0.90625 -0.796875 2.765625zm9.281982 4.84375l0 -9.671875l1.46875 0l0 1.46875q0.5625 -1.03125 1.03125 -1.359375q0.484375 -0.328125 1.0625 -0.328125q0.828125 0 1.6875 0.53125l-0.5625 1.515625q-0.609375 -0.359375 -1.203125 -0.359375q-0.546875 0 -0.96875 0.328125q-0.421875 0.328125 -0.609375 0.890625q-0.28125 0.875 -0.28125 1.921875l0 5.0625l-1.625 0zm6.228302 0l0 -13.359375l1.640625 0l0 7.625l3.890625 -3.9375l2.109375 0l-3.6875 3.59375l4.0625 6.078125l-2.015625 0l-3.203125 -4.953125l-1.15625 1.125l0 3.828125l-1.640625 0zm15.953125 -3.109375l1.6875 0.203125q-0.40625 1.484375 -1.484375 2.3125q-1.078125 0.8125 -2.765625 0.8125q-2.125 0 -3.375 -1.296875q-1.234375 -1.3125 -1.234375 -3.671875q0 -2.453125 1.25 -3.796875q1.265625 -1.34375 3.265625 -1.34375q1.9375 0 3.15625 1.328125q1.234375 1.3125 1.234375 3.703125q0 0.15625 0 0.4375l-7.21875 0q0.09375 1.59375 0.90625 2.453125q0.8125 0.84375 2.015625 0.84375q0.90625 0 1.546875 -0.46875q0.640625 -0.484375 1.015625 -1.515625zm-5.390625 -2.65625l5.40625 0q-0.109375 -1.21875 -0.625 -1.828125q-0.78125 -0.953125 -2.03125 -0.953125q-1.125 0 -1.90625 0.765625q-0.765625 0.75 -0.84375 2.015625zm9.125702 5.765625l0 -9.671875l1.46875 0l0 1.46875q0.5625 -1.03125 1.03125 -1.359375q0.484375 -0.328125 1.0625 -0.328125q0.828125 0 1.6875 0.53125l-0.5625 1.515625q-0.609375 -0.359375 -1.203125 -0.359375q-0.546875 0 -0.96875 0.328125q-0.421875 0.328125 -0.609375 0.890625q-0.28125 0.875 -0.28125 1.921875l0 5.0625l-1.625 0z" fill-rule="nonzero"/><path fill="#efefef" d="m364.85303 103.2336l66.58267 0l0 46.29921l-66.58267 0z" fill-rule="evenodd"/><path stroke="#000000" stroke-width="1.0" stroke-linejoin="round" stroke-linecap="butt" d="m364.85303 103.2336l66.58267 0l0 46.29921l-66.58267 0z" fill-rule="evenodd"/><path fill="#efefef" d="m372.85303 111.2336l66.58267 0l0 46.29921l-66.58267 0z" fill-rule="evenodd"/><path stroke="#000000" stroke-width="1.0" stroke-linejoin="round" stroke-linecap="butt" d="m372.85303 111.2336l66.58267 0l0 46.29921l-66.58267 0z" fill-rule="evenodd"/><path fill="#efefef" d="m380.85303 119.2336l66.58267 0l0 46.29921l-66.58267 0z" fill-rule="evenodd"/><path stroke="#000000" stroke-width="1.0" stroke-linejoin="round" stroke-linecap="butt" d="m380.85303 119.2336l66.58267 0l0 46.29921l-66.58267 0z" fill-rule="evenodd"/><path fill="#000000" d="m399.5394 149.3032l0 -13.359375l9.65625 0l0 1.578125l-7.875 0l0 4.09375l7.375 0l0 1.5625l-7.375 0l0 4.546875l8.1875 0l0 1.578125l-9.96875 0zm12.209198 0l0 -9.671875l1.46875 0l0 1.375q1.0625 -1.59375 3.078125 -1.59375q0.875 0 1.609375 0.3125q0.734375 0.3125 1.09375 0.828125q0.375 0.5 0.515625 1.203125q0.09375 0.453125 0.09375 1.59375l0 5.953125l-1.640625 0l0 -5.890625q0 -1.0 -0.203125 -1.484375q-0.1875 -0.5 -0.671875 -0.796875q-0.484375 -0.296875 -1.140625 -0.296875q-1.046875 0 -1.8125 0.671875q-0.75 0.65625 -0.75 2.515625l0 5.28125l-1.640625 0zm13.063202 0l-3.6875 -9.671875l1.734375 0l2.078125 5.796875q0.328125 0.9375 0.625 1.9375q0.203125 -0.765625 0.609375 -1.828125l2.140625 -5.90625l1.6875 0l-3.65625 9.671875l-1.53125 0z" fill-rule="nonzero"/><path fill="#000000" fill-opacity="0.0" d="m493.51834 103.73753l0 0c9.001801 0 16.299194 1.2161865 16.299194 2.716423l0 24.126198c0 1.5002441 7.297394 2.7164307 16.299225 2.7164307l0 0c-9.001831 0 -16.299225 1.2161865 -16.299225 2.7164307l0 24.126205c0 1.5002289 -7.297394 2.7164154 -16.299194 2.7164154z" fill-rule="evenodd"/><path fill="#000000" fill-opacity="0.0" d="m493.51834 103.73753l0 0c9.001801 0 16.299194 1.2161865 16.299194 2.716423l0 24.126198c0 1.5002441 7.297394 2.7164307 16.299225 2.7164307l0 0c-9.001831 0 -16.299225 1.2161865 -16.299225 2.7164307l0 24.126205c0 1.5002289 -7.297394 2.7164154 -16.299194 2.7164154" fill-rule="evenodd"/><path stroke="#000000" stroke-width="1.0" stroke-linejoin="round" stroke-linecap="butt" d="m493.51834 103.73753l0 0c9.001801 0 16.299194 1.2161865 16.299194 2.716423l0 24.126198c0 1.5002441 7.297394 2.7164307 16.299225 2.7164307l0 0c-9.001831 0 -16.299225 1.2161865 -16.299225 2.7164307l0 24.126205c0 1.5002289 -7.297394 2.7164154 -16.299194 2.7164154" fill-rule="evenodd"/><path fill="#000000" fill-opacity="0.0" d="m520.5383 113.17428l222.07874 0l0 59.212593l-222.07874 0z" fill-rule="evenodd"/><path fill="#000000" d="m529.9758 134.97427l1.453125 -6.90625l1.0625 0l-0.25 1.203125q0.6875 -0.71875 1.296875 -1.03125q0.609375 -0.328125 1.234375 -0.328125q0.84375 0 1.3125 0.453125q0.484375 0.453125 0.484375 1.21875q0 0.375 -0.171875 1.203125l-0.875 4.1875l-1.171875 0l0.921875 -4.375q0.125 -0.640625 0.125 -0.953125q0 -0.34375 -0.234375 -0.546875q-0.234375 -0.21875 -0.6875 -0.21875q-0.90625 0 -1.609375 0.65625q-0.703125 0.640625 -1.03125 2.21875l-0.671875 3.21875l-1.1875 0zm12.131226 -1.25q-1.234375 1.40625 -2.546875 1.40625q-0.796875 0 -1.296875 -0.453125q-0.484375 -0.46875 -0.484375 -1.125q0 -0.4375 0.21875 -1.5l0.84375 -3.984375l1.171875 0l-0.921875 4.40625q-0.109375 0.5625 -0.109375 0.859375q0 0.390625 0.234375 0.609375q0.234375 0.21875 0.703125 0.21875q0.484375 0 0.953125 -0.234375q0.484375 -0.234375 0.8125 -0.640625q0.34375 -0.421875 0.5625 -0.984375q0.140625 -0.359375 0.328125 -1.25l0.625 -2.984375l1.1875 0l-1.453125 6.90625l-1.078125 0l0.25 -1.25zm2.6937256 1.25l1.4375 -6.90625l1.1875 0l-0.25 1.140625q0.65625 -0.75 1.171875 -1.015625q0.53125 -0.28125 1.125 -0.28125q0.65625 0 1.078125 0.34375q0.4375 0.328125 0.578125 0.953125q0.515625 -0.65625 1.09375 -0.96875q0.59375 -0.328125 1.234375 -0.328125q0.875 0 1.296875 0.40625q0.4375 0.40625 0.4375 1.15625q0 0.3125 -0.15625 1.046875l-0.921875 4.453125l-1.171875 0l0.9375 -4.5625q0.125 -0.5625 0.125 -0.8125q0 -0.328125 -0.21875 -0.515625q-0.203125 -0.203125 -0.59375 -0.203125q-0.53125 0 -1.078125 0.328125q-0.546875 0.3125 -0.859375 0.828125q-0.296875 0.515625 -0.515625 1.59375l-0.703125 3.34375l-1.1875 0l0.984375 -4.671875q0.109375 -0.46875 0.109375 -0.671875q0 -0.34375 -0.21875 -0.546875q-0.21875 -0.203125 -0.546875 -0.203125q-0.5 0 -1.0625 0.328125q-0.546875 0.3125 -0.890625 0.875q-0.34375 0.5625 -0.5625 1.625l-0.6875 3.265625l-1.171875 0zm9.821167 2.65625l0 -0.859375l7.765625 0l0 0.859375l-7.765625 0zm13.771851 -5.0l1.15625 0.109375q-0.25 0.859375 -1.140625 1.625q-0.890625 0.765625 -2.125 0.765625q-0.765625 0 -1.40625 -0.34375q-0.640625 -0.359375 -0.984375 -1.03125q-0.328125 -0.6875 -0.328125 -1.546875q0 -1.140625 0.515625 -2.203125q0.53125 -1.0625 1.359375 -1.578125q0.84375 -0.515625 1.8125 -0.515625q1.234375 0 1.96875 0.765625q0.75 0.765625 0.75 2.09375q0 0.5 -0.09375 1.046875l-5.09375 0q-0.03125 0.1875 -0.03125 0.359375q0 0.96875 0.4375 1.484375q0.453125 0.5 1.109375 0.5q0.59375 0 1.171875 -0.390625q0.59375 -0.390625 0.921875 -1.140625zm-3.421875 -1.71875l3.875 0q0.015625 -0.1875 0.015625 -0.265625q0 -0.875 -0.453125 -1.34375q-0.4375 -0.484375 -1.125 -0.484375q-0.765625 0 -1.390625 0.53125q-0.609375 0.515625 -0.921875 1.5625zm5.7562256 4.0625l1.453125 -6.90625l1.0625 0l-0.25 1.203125q0.6875 -0.71875 1.296875 -1.03125q0.609375 -0.328125 1.234375 -0.328125q0.84375 0 1.3125 0.453125q0.484375 0.453125 0.484375 1.21875q0 0.375 -0.171875 1.203125l-0.875 4.1875l-1.171875 0l0.921875 -4.375q0.125 -0.640625 0.125 -0.953125q0 -0.34375 -0.234375 -0.546875q-0.234375 -0.21875 -0.6875 -0.21875q-0.90625 0 -1.609375 0.65625q-0.703125 0.640625 -1.03125 2.21875l-0.671875 3.21875l-1.1875 0zm9.162476 0l-1.140625 -6.90625l1.15625 0l0.59375 3.796875q0.09375 0.625 0.234375 2.046875q0.34375 -0.734375 0.859375 -1.6875l2.3125 -4.15625l1.25 0l-3.953125 6.90625l-1.3125 0zm5.0234375 -2.359375l1.1875 -0.078125q0 0.515625 0.15625 0.875q0.15625 0.359375 0.578125 0.59375q0.421875 0.21875 0.96875 0.21875q0.78125 0 1.171875 -0.3125q0.390625 -0.3125 0.390625 -0.734375q0 -0.3125 -0.234375 -0.578125q-0.234375 -0.28125 -1.171875 -0.671875q-0.9375 -0.40625 -1.1875 -0.578125q-0.4375 -0.265625 -0.671875 -0.625q-0.21875 -0.359375 -0.21875 -0.828125q0 -0.8125 0.65625 -1.390625q0.65625 -0.59375 1.828125 -0.59375q1.296875 0 1.96875 0.609375q0.6875 0.59375 0.71875 1.578125l-1.15625 0.078125q-0.03125 -0.625 -0.453125 -0.984375q-0.40625 -0.375 -1.171875 -0.375q-0.609375 0 -0.953125 0.28125q-0.328125 0.28125 -0.328125 0.609375q0 0.3125 0.296875 0.5625q0.1875 0.171875 1.0 0.53125q1.359375 0.578125 1.703125 0.921875q0.5625 0.53125 0.5625 1.3125q0 0.515625 -0.3125 1.015625q-0.3125 0.484375 -0.96875 0.78125q-0.640625 0.296875 -1.515625 0.296875q-1.203125 0 -2.046875 -0.59375q-0.84375 -0.59375 -0.796875 -1.921875zm5.2734375 5.015625l0 -0.859375l7.765625 0l0 0.859375l-7.765625 0zm8.115601 0l2.0 -9.5625l1.09375 0l-0.203125 0.953125q0.59375 -0.625 1.078125 -0.859375q0.484375 -0.25 1.015625 -0.25q0.984375 0 1.625 0.71875q0.65625 0.71875 0.65625 2.0625q0 1.078125 -0.359375 1.96875q-0.34375 0.875 -0.875 1.421875q-0.515625 0.546875 -1.046875 0.796875q-0.53125 0.25 -1.09375 0.25q-1.25 0 -1.921875 -1.265625l-0.78125 3.765625l-1.1875 0zm2.328125 -5.484375q0 0.78125 0.109375 1.078125q0.171875 0.421875 0.53125 0.6875q0.375 0.25 0.875 0.25q1.015625 0 1.640625 -1.140625q0.625 -1.140625 0.625 -2.328125q0 -0.875 -0.421875 -1.359375q-0.421875 -0.484375 -1.046875 -0.484375q-0.453125 0 -0.84375 0.25q-0.375 0.234375 -0.703125 0.703125q-0.328125 0.46875 -0.546875 1.15625q-0.21875 0.6875 -0.21875 1.1875zm10.740601 0.484375l1.15625 0.109375q-0.25 0.859375 -1.140625 1.625q-0.890625 0.765625 -2.125 0.765625q-0.765625 0 -1.40625 -0.34375q-0.640625 -0.359375 -0.984375 -1.03125q-0.328125 -0.6875 -0.328125 -1.546875q0 -1.140625 0.515625 -2.203125q0.53125 -1.0625 1.359375 -1.578125q0.84375 -0.515625 1.8125 -0.515625q1.234375 0 1.96875 0.765625q0.75 0.765625 0.75 2.09375q0 0.5 -0.09375 1.046875l-5.09375 0q-0.03125 0.1875 -0.03125 0.359375q0 0.96875 0.4375 1.484375q0.453125 0.5 1.109375 0.5q0.59375 0 1.171875 -0.390625q0.59375 -0.390625 0.921875 -1.140625zm-3.421875 -1.71875l3.875 0q0.015625 -0.1875 0.015625 -0.265625q0 -0.875 -0.453125 -1.34375q-0.4375 -0.484375 -1.125 -0.484375q-0.765625 0 -1.390625 0.53125q-0.609375 0.515625 -0.921875 1.5625zm5.7562256 4.0625l1.453125 -6.90625l1.03125 0l-0.28125 1.40625q0.53125 -0.796875 1.03125 -1.171875q0.515625 -0.390625 1.046875 -0.390625q0.359375 0 0.875 0.25l-0.484375 1.09375q-0.3125 -0.21875 -0.671875 -0.21875q-0.625 0 -1.28125 0.6875q-0.640625 0.6875 -1.015625 2.484375l-0.578125 2.765625l-1.125 0zm3.1571045 2.65625l0 -0.859375l7.765625 0l0 0.859375l-7.765625 0zm10.006226 -2.65625l-0.71875 -6.90625l1.140625 0l0.3125 3.09375l0.125 1.75q0 0.1875 0.03125 0.78125q0.203125 -0.65625 0.328125 -1.015625q0.140625 -0.359375 0.4375 -1.015625l1.65625 -3.59375l1.28125 0l0.21875 3.453125q0.0625 0.78125 0.0625 2.09375q0.328125 -0.859375 1.0625 -2.421875l1.484375 -3.125l1.1875 0l-3.390625 6.90625l-1.21875 0l-0.25 -4.046875q-0.03125 -0.390625 -0.046875 -1.484375q-0.265625 0.703125 -0.625 1.515625l-1.828125 4.015625l-1.25 0zm8.531433 -2.625q0 -2.015625 1.1875 -3.34375q0.984375 -1.09375 2.578125 -1.09375q1.25 0 2.015625 0.78125q0.765625 0.78125 0.765625 2.109375q0 1.1875 -0.484375 2.21875q-0.484375 1.015625 -1.375 1.5625q-0.890625 0.546875 -1.875 0.546875q-0.796875 0 -1.46875 -0.34375q-0.65625 -0.34375 -1.0 -0.96875q-0.34375 -0.640625 -0.34375 -1.46875zm1.171875 -0.109375q0 0.96875 0.46875 1.484375q0.46875 0.5 1.1875 0.5q0.375 0 0.75 -0.15625q0.375 -0.15625 0.6875 -0.46875q0.328125 -0.3125 0.546875 -0.703125q0.21875 -0.40625 0.359375 -0.875q0.203125 -0.640625 0.203125 -1.234375q0 -0.9375 -0.46875 -1.453125q-0.46875 -0.515625 -1.1875 -0.515625q-0.5625 0 -1.015625 0.265625q-0.453125 0.265625 -0.828125 0.78125q-0.359375 0.5 -0.53125 1.171875q-0.171875 0.671875 -0.171875 1.203125zm6.0218506 2.734375l1.453125 -6.90625l1.03125 0l-0.28125 1.40625q0.53125 -0.796875 1.03125 -1.171875q0.515625 -0.390625 1.046875 -0.390625q0.359375 0 0.875 0.25l-0.484375 1.09375q-0.3125 -0.21875 -0.671875 -0.21875q-0.625 0 -1.28125 0.6875q-0.640625 0.6875 -1.015625 2.484375l-0.578125 2.765625l-1.125 0zm4.4539795 0l2.0 -9.546875l1.171875 0l-1.234375 5.921875l3.4375 -3.28125l1.546875 0l-2.9375 2.578125l1.78125 4.328125l-1.296875 0l-1.375 -3.546875l-1.4375 1.234375l-0.46875 2.3125l-1.1875 0zm11.7265625 -2.34375l1.15625 0.109375q-0.25 0.859375 -1.140625 1.625q-0.890625 0.765625 -2.125 0.765625q-0.765625 0 -1.40625 -0.34375q-0.640625 -0.359375 -0.984375 -1.03125q-0.328125 -0.6875 -0.328125 -1.546875q0 -1.140625 0.515625 -2.203125q0.53125 -1.0625 1.359375 -1.578125q0.84375 -0.515625 1.8125 -0.515625q1.234375 0 1.96875 0.765625q0.75 0.765625 0.75 2.09375q0 0.5 -0.09375 1.046875l-5.09375 0q-0.03125 0.1875 -0.03125 0.359375q0 0.96875 0.4375 1.484375q0.453125 0.5 1.109375 0.5q0.59375 0 1.171875 -0.390625q0.59375 -0.390625 0.921875 -1.140625zm-3.421875 -1.71875l3.875 0q0.015625 -0.1875 0.015625 -0.265625q0 -0.875 -0.453125 -1.34375q-0.4375 -0.484375 -1.125 -0.484375q-0.765625 0 -1.390625 0.53125q-0.609375 0.515625 -0.921875 1.5625zm5.7562256 4.0625l1.453125 -6.90625l1.03125 0l-0.28125 1.40625q0.53125 -0.796875 1.03125 -1.171875q0.515625 -0.390625 1.046875 -0.390625q0.359375 0 0.875 0.25l-0.484375 1.09375q-0.3125 -0.21875 -0.671875 -0.21875q-0.625 0 -1.28125 0.6875q-0.640625 0.6875 -1.015625 2.484375l-0.578125 2.765625l-1.125 0z" fill-rule="nonzero"/><path fill="#000000" fill-opacity="0.0" d="m297.02887 54.440693l0 0c0 -9.001808 1.2161865 -16.299213 2.7164307 -16.299213l90.63013 0c1.5002441 0 2.7164307 -7.2974052 2.7164307 -16.299212l0 0c0 9.001806 1.2161865 16.299212 2.7164307 16.299212l90.63013 0c1.5002441 0 2.7164307 7.2974052 2.7164307 16.299213z" fill-rule="evenodd"/><path fill="#000000" fill-opacity="0.0" d="m297.02887 54.440693l0 0c0 -9.001808 1.2161865 -16.299213 2.7164307 -16.299213l90.63013 0c1.5002441 0 2.7164307 -7.2974052 2.7164307 -16.299212l0 0c0 9.001806 1.2161865 16.299212 2.7164307 16.299212l90.63013 0c1.5002441 0 2.7164307 7.2974052 2.7164307 16.299213" fill-rule="evenodd"/><path stroke="#000000" stroke-width="1.0" stroke-linejoin="round" stroke-linecap="butt" d="m297.02887 54.440693l0 0c0 -9.001808 1.2161865 -16.299213 2.7164307 -16.299213l90.63013 0c1.5002441 0 2.7164307 -7.2974052 2.7164307 -16.299212l0 0c0 9.001806 1.2161865 16.299212 2.7164307 16.299212l90.63013 0c1.5002441 0 2.7164307 7.2974052 2.7164307 16.299213" fill-rule="evenodd"/><path fill="#000000" fill-opacity="0.0" d="m346.6378 -8.33621l222.07877 0l0 59.2126l-222.07877 0z" fill-rule="evenodd"/><path fill="#000000" d="m356.0753 13.463789l1.453125 -6.9062495l1.0625 0l-0.25 1.203125q0.6875 -0.71875 1.296875 -1.03125q0.609375 -0.328125 1.234375 -0.328125q0.84375 0 1.3125 0.453125q0.484375 0.453125 0.484375 1.2187495q0 0.375 -0.171875 1.203125l-0.875 4.1875l-1.171875 0l0.921875 -4.375q0.125 -0.640625 0.125 -0.953125q0 -0.34374952 -0.234375 -0.5468745q-0.234375 -0.21875 -0.6875 -0.21875q-0.90625 0 -1.609375 0.6562495q-0.703125 0.640625 -1.03125 2.21875l-0.671875 3.21875l-1.1875 0zm12.131226 -1.25q-1.234375 1.40625 -2.546875 1.40625q-0.796875 0 -1.296875 -0.453125q-0.484375 -0.46875 -0.484375 -1.125q0 -0.4375 0.21875 -1.5l0.84375 -3.9843745l1.171875 0l-0.921875 4.4062495q-0.109375 0.5625 -0.109375 0.859375q0 0.390625 0.234375 0.609375q0.234375 0.21875 0.703125 0.21875q0.484375 0 0.953125 -0.234375q0.484375 -0.234375 0.8125 -0.640625q0.34375 -0.421875 0.5625 -0.984375q0.140625 -0.359375 0.328125 -1.25l0.625 -2.9843745l1.1875 0l-1.453125 6.9062495l-1.078125 0l0.25 -1.25zm2.6937256 1.25l1.4375 -6.9062495l1.1875 0l-0.25 1.140625q0.65625 -0.75 1.171875 -1.015625q0.53125 -0.28125 1.125 -0.28125q0.65625 0 1.078125 0.34375q0.4375 0.328125 0.578125 0.953125q0.515625 -0.65625 1.09375 -0.96875q0.59375 -0.328125 1.234375 -0.328125q0.875 0 1.296875 0.40625q0.4375 0.40625 0.4375 1.15625q0 0.31249952 -0.15625 1.0468745l-0.921875 4.453125l-1.171875 0l0.9375 -4.5625q0.125 -0.5625 0.125 -0.8125q0 -0.32812452 -0.21875 -0.5156245q-0.203125 -0.203125 -0.59375 -0.203125q-0.53125 0 -1.078125 0.328125q-0.546875 0.31249952 -0.859375 0.8281245q-0.296875 0.515625 -0.515625 1.59375l-0.703125 3.34375l-1.1875 0l0.984375 -4.671875q0.109375 -0.46875 0.109375 -0.671875q0 -0.34374952 -0.21875 -0.5468745q-0.21875 -0.203125 -0.546875 -0.203125q-0.5 0 -1.0625 0.328125q-0.546875 0.31249952 -0.890625 0.8749995q-0.34375 0.5625 -0.5625 1.625l-0.6875 3.265625l-1.171875 0zm9.8211975 2.65625l0 -0.859375l7.765625 0l0 0.859375l-7.765625 0zm10.006226 -2.65625l-0.71875 -6.9062495l1.140625 0l0.3125 3.0937495l0.125 1.75q0 0.1875 0.03125 0.78125q0.203125 -0.65625 0.328125 -1.015625q0.140625 -0.359375 0.4375 -1.015625l1.65625 -3.5937495l1.28125 0l0.21875 3.4531245q0.0625 0.78125 0.0625 2.09375q0.328125 -0.859375 1.0625 -2.421875l1.484375 -3.1249995l1.1875 0l-3.390625 6.9062495l-1.21875 0l-0.25 -4.046875q-0.03125 -0.390625 -0.046875 -1.4843745q-0.265625 0.7031245 -0.625 1.5156245l-1.828125 4.015625l-1.25 0zm8.531403 -2.625q0 -2.015625 1.1875 -3.3437495q0.984375 -1.09375 2.578125 -1.09375q1.25 0 2.015625 0.78125q0.765625 0.78125 0.765625 2.1093745q0 1.1875 -0.484375 2.21875q-0.484375 1.015625 -1.375 1.5625q-0.890625 0.546875 -1.875 0.546875q-0.796875 0 -1.46875 -0.34375q-0.65625 -0.34375 -1.0 -0.96875q-0.34375 -0.640625 -0.34375 -1.46875zm1.171875 -0.109375q0 0.96875 0.46875 1.484375q0.46875 0.5 1.1875 0.5q0.375 0 0.75 -0.15625q0.375 -0.15625 0.6875 -0.46875q0.328125 -0.3125 0.546875 -0.703125q0.21875 -0.40625 0.359375 -0.875q0.203125 -0.640625 0.203125 -1.234375q0 -0.9375 -0.46875 -1.4531245q-0.46875 -0.515625 -1.1875 -0.515625q-0.5625 0 -1.015625 0.265625q-0.453125 0.265625 -0.828125 0.7812495q-0.359375 0.5 -0.53125 1.171875q-0.171875 0.671875 -0.171875 1.203125zm6.0218506 2.734375l1.453125 -6.9062495l1.03125 0l-0.28125 1.40625q0.53125 -0.796875 1.03125 -1.171875q0.515625 -0.390625 1.046875 -0.390625q0.359375 0 0.875 0.25l-0.484375 1.09375q-0.3125 -0.21875 -0.671875 -0.21875q-0.625 0 -1.28125 0.6874995q-0.640625 0.6875 -1.015625 2.484375l-0.578125 2.765625l-1.125 0zm4.4539795 0l2.0 -9.546875l1.171875 0l-1.234375 5.921875l3.4375 -3.2812495l1.546875 0l-2.9375 2.5781245l1.78125 4.328125l-1.296875 0l-1.375 -3.546875l-1.4375 1.234375l-0.46875 2.3125l-1.1875 0zm11.7265625 -2.34375l1.15625 0.109375q-0.25 0.859375 -1.140625 1.625q-0.890625 0.765625 -2.125 0.765625q-0.765625 0 -1.40625 -0.34375q-0.640625 -0.359375 -0.984375 -1.03125q-0.328125 -0.6875 -0.328125 -1.546875q0 -1.140625 0.515625 -2.203125q0.53125 -1.0624995 1.359375 -1.5781245q0.84375 -0.515625 1.8125 -0.515625q1.234375 0 1.96875 0.765625q0.75 0.765625 0.75 2.0937495q0 0.5 -0.09375 1.046875l-5.09375 0q-0.03125 0.1875 -0.03125 0.359375q0 0.96875 0.4375 1.484375q0.453125 0.5 1.109375 0.5q0.59375 0 1.171875 -0.390625q0.59375 -0.390625 0.921875 -1.140625zm-3.421875 -1.71875l3.875 0q0.015625 -0.1875 0.015625 -0.265625q0 -0.875 -0.453125 -1.3437495q-0.4375 -0.484375 -1.125 -0.484375q-0.765625 0 -1.390625 0.53125q-0.609375 0.5156245 -0.921875 1.5624995zm5.7562256 4.0625l1.453125 -6.9062495l1.03125 0l-0.28125 1.40625q0.53125 -0.796875 1.03125 -1.171875q0.515625 -0.390625 1.046875 -0.390625q0.359375 0 0.875 0.25l-0.484375 1.09375q-0.3125 -0.21875 -0.671875 -0.21875q-0.625 0 -1.28125 0.6874995q-0.640625 0.6875 -1.015625 2.484375l-0.578125 2.765625l-1.125 0zm4.54776 -2.359375l1.1875 -0.078125q0 0.515625 0.15625 0.875q0.15625 0.359375 0.578125 0.59375q0.421875 0.21875 0.96875 0.21875q0.78125 0 1.171875 -0.3125q0.390625 -0.3125 0.390625 -0.734375q0 -0.3125 -0.234375 -0.578125q-0.234375 -0.28125 -1.171875 -0.671875q-0.9375 -0.40625 -1.1875 -0.578125q-0.4375 -0.265625 -0.671875 -0.625q-0.21875 -0.359375 -0.21875 -0.828125q0 -0.8124995 0.65625 -1.3906245q0.65625 -0.59375 1.828125 -0.59375q1.296875 0 1.96875 0.609375q0.6875 0.59375 0.71875 1.5781245l-1.15625 0.078125q-0.03125 -0.625 -0.453125 -0.9843745q-0.40625 -0.375 -1.171875 -0.375q-0.609375 0 -0.953125 0.28125q-0.328125 0.28125 -0.328125 0.6093745q0 0.3125 0.296875 0.5625q0.1875 0.171875 1.0 0.53125q1.359375 0.578125 1.703125 0.921875q0.5625 0.53125 0.5625 1.3125q0 0.515625 -0.3125 1.015625q-0.3125 0.484375 -0.96875 0.78125q-0.640625 0.296875 -1.515625 0.296875q-1.203125 0 -2.046875 -0.59375q-0.84375 -0.59375 -0.796875 -1.921875z" fill-rule="nonzero"/><path fill="#cfe2f3" d="m6.766404E-4 86.3039l160.0 0l0 112.15748l-160.0 0z" fill-rule="evenodd"/><path stroke="#000000" stroke-width="1.0" stroke-linejoin="round" stroke-linecap="butt" d="m6.766404E-4 86.3039l160.0 0l0 112.15748l-160.0 0z" fill-rule="evenodd"/><path fill="#000000" d="m55.644123 191.80263l0 -11.78125l-4.40625 0l0 -1.578125l10.578125 0l0 1.578125l-4.40625 0l0 11.78125l-1.765625 0zm7.0782776 0l0 -9.671875l1.4687538 0l0 1.46875q0.5625 -1.03125 1.03125 -1.359375q0.484375 -0.328125 1.0625 -0.328125q0.828125 0 1.6875 0.53125l-0.5625 1.515625q-0.609375 -0.359375 -1.203125 -0.359375q-0.546875 0 -0.96875 0.328125q-0.421875 0.328125 -0.609375 0.890625q-0.28125 0.875 -0.28125 1.921875l0 5.0625l-1.6250038 0zm12.540806 -1.1875q-0.921875 0.765625 -1.765625 1.09375q-0.828125 0.3125 -1.796875 0.3125q-1.59375 0 -2.453125 -0.78125q-0.859375 -0.78125 -0.859375 -1.984375q0 -0.71875 0.328125 -1.296875q0.328125 -0.59375 0.84375 -0.9375q0.53125 -0.359375 1.1875 -0.546875q0.46875 -0.125 1.453125 -0.25q1.984375 -0.234375 2.921875 -0.5625q0.015625 -0.34375 0.015625 -0.421875q0 -1.0 -0.46875 -1.421875q-0.625 -0.546875 -1.875 -0.546875q-1.15625 0 -1.703125 0.40625q-0.546875 0.40625 -0.8125 1.421875l-1.609375 -0.21875q0.21875 -1.015625 0.71875 -1.640625q0.5 -0.640625 1.453125 -0.984375q0.953125 -0.34375 2.1875 -0.34375q1.25 0 2.015625 0.296875q0.78125 0.28125 1.140625 0.734375q0.375 0.4375 0.515625 1.109375q0.078125 0.421875 0.078125 1.515625l0 2.1875q0 2.28125 0.109375 2.890625q0.109375 0.59375 0.40625 1.15625l-1.703125 0q-0.265625 -0.515625 -0.328125 -1.1875zm-0.140625 -3.671875q-0.890625 0.375 -2.671875 0.625q-1.015625 0.140625 -1.4375 0.328125q-0.421875 0.1875 -0.65625 0.53125q-0.21875 0.34375 -0.21875 0.78125q0 0.65625 0.5 1.09375q0.5 0.4375 1.453125 0.4375q0.9375 0 1.671875 -0.40625q0.75 -0.421875 1.09375 -1.140625q0.265625 -0.5625 0.265625 -1.640625l0 -0.609375zm4.203842 -6.609375l0 -1.890625l1.640625 0l0 1.890625l-1.640625 0zm0 11.46875l0 -9.671875l1.640625 0l0 9.671875l-1.640625 0zm4.144821 0l0 -9.671875l1.46875 0l0 1.375q1.0625 -1.59375 3.078125 -1.59375q0.875 0 1.609375 0.3125q0.734375 0.3125 1.09375 0.828125q0.375 0.5 0.515625 1.203125q0.09375 0.453125 0.09375 1.59375l0 5.953125l-1.640625 0l0 -5.890625q0 -1.0 -0.203125 -1.484375q-0.1875 -0.5 -0.671875 -0.796875q-0.484375 -0.296875 -1.140625 -0.296875q-1.046875 0 -1.8125 0.671875q-0.75 0.65625 -0.75 2.515625l0 5.28125l-1.640625 0zm17.000717 -3.109375l1.6875 0.203125q-0.40625 1.484375 -1.484375 2.3125q-1.078125 0.8125 -2.765625 0.8125q-2.125 0 -3.375 -1.296875q-1.234375 -1.3125 -1.234375 -3.671875q0 -2.453125 1.25 -3.796875q1.265625 -1.34375 3.265625 -1.34375q1.9375 0 3.15625 1.328125q1.234375 1.3125 1.234375 3.703125q0 0.15625 0 0.4375l-7.21875 0q0.09375 1.59375 0.90625 2.453125q0.8125 0.84375 2.015625 0.84375q0.90625 0 1.546875 -0.46875q0.640625 -0.484375 1.015625 -1.515625zm-5.390625 -2.65625l5.40625 0q-0.109375 -1.21875 -0.625 -1.828125q-0.78125 -0.953125 -2.03125 -0.953125q-1.125 0 -1.90625 0.765625q-0.765625 0.75 -0.84375 2.015625zm9.125717 5.765625l0 -9.671875l1.46875 0l0 1.46875q0.5625 -1.03125 1.03125 -1.359375q0.484375 -0.328125 1.0625 -0.328125q0.828125 0 1.6875 0.53125l-0.5625 1.515625q-0.609375 -0.359375 -1.203125 -0.359375q-0.546875 0 -0.96875 0.328125q-0.421875 0.328125 -0.609375 0.890625q-0.28125 0.875 -0.28125 1.921875l0 5.0625l-1.625 0z" fill-rule="nonzero"/><path fill="#ead1dc" d="m15.133859 97.97638l129.73227 0l0 59.2126l-129.73227 0z" fill-rule="evenodd"/><path stroke="#000000" stroke-width="1.0" stroke-linejoin="round" stroke-linecap="butt" d="m15.133859 97.97638l129.73227 0l0 59.2126l-129.73227 0z" fill-rule="evenodd"/><path fill="#000000" d="m56.55491 123.50268l0 -13.359375l5.046875 0q1.328125 0 2.03125 0.125q0.96875 0.171875 1.640625 0.640625q0.671875 0.453125 1.078125 1.28125q0.40625 0.828125 0.40625 1.828125q0 1.703125 -1.09375 2.890625q-1.078125 1.171875 -3.921875 1.171875l-3.421875 0l0 5.421875l-1.765625 0zm1.765625 -7.0l3.453125 0q1.71875 0 2.4375 -0.640625q0.71875 -0.640625 0.71875 -1.796875q0 -0.84375 -0.421875 -1.4375q-0.421875 -0.59375 -1.125 -0.78125q-0.4375 -0.125 -1.640625 -0.125l-3.421875 0l0 4.78125zm9.865448 2.15625q0 -2.6875 1.484375 -3.96875q1.25 -1.078125 3.046875 -1.078125q2.0 0 3.265625 1.3125q1.265625 1.296875 1.265625 3.609375q0 1.859375 -0.5625 2.9375q-0.5625 1.0625 -1.640625 1.65625q-1.0625 0.59375 -2.328125 0.59375q-2.03125 0 -3.28125 -1.296875q-1.25 -1.3125 -1.25 -3.765625zm1.6875 0q0 1.859375 0.796875 2.796875q0.8125 0.921875 2.046875 0.921875q1.21875 0 2.03125 -0.921875q0.8125 -0.9375 0.8125 -2.84375q0 -1.796875 -0.8125 -2.71875q-0.8125 -0.921875 -2.03125 -0.921875q-1.234375 0 -2.046875 0.921875q-0.796875 0.90625 -0.796875 2.765625zm9.250717 4.84375l0 -13.359375l1.640625 0l0 13.359375l-1.640625 0zm4.191696 -11.46875l0 -1.890625l1.640625 0l0 1.890625l-1.640625 0zm0 11.46875l0 -9.671875l1.640625 0l0 9.671875l-1.640625 0zm10.457321 -3.546875l1.609375 0.21875q-0.265625 1.65625 -1.359375 2.609375q-1.078125 0.9375 -2.671875 0.9375q-1.984375 0 -3.1875 -1.296875q-1.203125 -1.296875 -1.203125 -3.71875q0 -1.578125 0.515625 -2.75q0.515625 -1.171875 1.578125 -1.75q1.0625 -0.59375 2.3125 -0.59375q1.578125 0 2.578125 0.796875q1.0 0.796875 1.28125 2.265625l-1.59375 0.234375q-0.234375 -0.96875 -0.8125 -1.453125q-0.578125 -0.5 -1.390625 -0.5q-1.234375 0 -2.015625 0.890625q-0.78125 0.890625 -0.78125 2.8125q0 1.953125 0.75 2.84375q0.75 0.875 1.953125 0.875q0.96875 0 1.609375 -0.59375q0.65625 -0.59375 0.828125 -1.828125zm2.9375 7.265625l-0.1875 -1.53125q0.546875 0.140625 0.9375 0.140625q0.546875 0 0.875 -0.1875q0.328125 -0.171875 0.546875 -0.5q0.15625 -0.25 0.5 -1.21875q0.046875 -0.140625 0.140625 -0.40625l-3.671875 -9.6875l1.765625 0l2.015625 5.59375q0.390625 1.078125 0.703125 2.25q0.28125 -1.125 0.671875 -2.203125l2.078125 -5.640625l1.640625 0l-3.6875 9.828125q-0.59375 1.609375 -0.921875 2.203125q-0.4375 0.8125 -1.0 1.1875q-0.5625 0.375 -1.34375 0.375q-0.484375 0 -1.0625 -0.203125z" fill-rule="nonzero"/><path fill="#000000" d="m40.997543 139.00267q0 -3.328125 1.78125 -5.203125q1.78125 -1.890625 4.609375 -1.890625q1.84375 0 3.328125 0.890625q1.484375 0.875 2.265625 2.46875q0.78125 1.578125 0.78125 3.578125q0 2.03125 -0.828125 3.640625q-0.8125 1.59375 -2.3125 2.421875q-1.5 0.828125 -3.25 0.828125q-1.875 0 -3.359375 -0.90625q-1.484375 -0.921875 -2.25 -2.5q-0.765625 -1.578125 -0.765625 -3.328125zm1.8125 0.015625q0 2.421875 1.296875 3.8125q1.296875 1.390625 3.265625 1.390625q2.0 0 3.28125 -1.40625q1.28125 -1.40625 1.28125 -3.984375q0 -1.625 -0.546875 -2.84375q-0.546875 -1.21875 -1.609375 -1.875q-1.0625 -0.671875 -2.375 -0.671875q-1.890625 0 -3.25 1.296875q-1.34375 1.28125 -1.34375 4.28125zm13.027054 10.1875l0 -13.375l1.484375 0l0 1.25q0.53125 -0.734375 1.1875 -1.09375q0.671875 -0.375 1.625 -0.375q1.234375 0 2.171875 0.640625q0.953125 0.625 1.4375 1.796875q0.484375 1.15625 0.484375 2.546875q0 1.484375 -0.53125 2.671875q-0.53125 1.1875 -1.546875 1.828125q-1.015625 0.625 -2.140625 0.625q-0.8125 0 -1.46875 -0.34375q-0.65625 -0.34375 -1.0625 -0.875l0 4.703125l-1.640625 0zm1.484375 -8.484375q0 1.859375 0.75 2.765625q0.765625 0.890625 1.828125 0.890625q1.09375 0 1.875 -0.921875q0.78125 -0.9375 0.78125 -2.875q0 -1.84375 -0.765625 -2.765625q-0.75 -0.921875 -1.8125 -0.921875q-1.046875 0 -1.859375 0.984375q-0.796875 0.96875 -0.796875 2.84375zm12.469467 3.3125l0.234375 1.453125q-0.6875 0.140625 -1.234375 0.140625q-0.890625 0 -1.390625 -0.28125q-0.484375 -0.28125 -0.6875 -0.734375q-0.203125 -0.46875 -0.203125 -1.9375l0 -5.578125l-1.203125 0l0 -1.265625l1.203125 0l0 -2.390625l1.625 -0.984375l0 3.375l1.65625 0l0 1.265625l-1.65625 0l0 5.671875q0 0.6875 0.078125 0.890625q0.09375 0.203125 0.28125 0.328125q0.203125 0.109375 0.578125 0.109375q0.265625 0 0.71875 -0.0625zm1.6051788 -10.0l0 -1.890625l1.640625 0l0 1.890625l-1.640625 0zm0 11.46875l0 -9.671875l1.640625 0l0 9.671875l-1.640625 0zm4.144821 0l0 -9.671875l1.46875 0l0 1.359375q0.453125 -0.71875 1.203125 -1.140625q0.765625 -0.4375 1.71875 -0.4375q1.078125 0 1.765625 0.453125q0.6875 0.4375 0.96875 1.234375q1.15625 -1.6875 2.984375 -1.6875q1.453125 0 2.21875 0.796875q0.78125 0.796875 0.78125 2.453125l0 6.640625l-1.640625 0l0 -6.09375q0 -0.984375 -0.15625 -1.40625q-0.15625 -0.4375 -0.578125 -0.703125q-0.421875 -0.265625 -0.984375 -0.265625q-1.015625 0 -1.6875 0.6875q-0.671875 0.671875 -0.671875 2.15625l0 5.625l-1.640625 0l0 -6.28125q0 -1.09375 -0.40625 -1.640625q-0.40625 -0.546875 -1.3125 -0.546875q-0.6875 0 -1.28125 0.359375q-0.59375 0.359375 -0.859375 1.0625q-0.25 0.703125 -0.25 2.03125l0 5.015625l-1.640625 0zm15.540802 -11.46875l0 -1.890625l1.640625 0l0 1.890625l-1.640625 0zm0 11.46875l0 -9.671875l1.640625 0l0 9.671875l-1.640625 0zm3.2698212 0l0 -1.328125l6.15625 -7.078125q-1.046875 0.0625 -1.84375 0.0625l-3.9375 0l0 -1.328125l7.90625 0l0 1.078125l-5.25 6.140625l-1.0 1.125q1.09375 -0.078125 2.0625 -0.078125l4.46875 0l0 1.40625l-8.5625 0zm16.828125 -3.109375l1.6875 0.203125q-0.40625 1.484375 -1.484375 2.3125q-1.078125 0.8125 -2.765625 0.8125q-2.125 0 -3.375 -1.296875q-1.234375 -1.3125 -1.234375 -3.671875q0 -2.453125 1.25 -3.796875q1.265625 -1.34375 3.265625 -1.34375q1.9375 0 3.15625 1.328125q1.234375 1.3125 1.234375 3.703125q0 0.15625 0 0.4375l-7.21875 0q0.09375 1.59375 0.90625 2.453125q0.8125 0.84375 2.015625 0.84375q0.90625 0 1.546875 -0.46875q0.640625 -0.484375 1.015625 -1.515625zm-5.390625 -2.65625l5.40625 0q-0.109375 -1.21875 -0.625 -1.828125q-0.78125 -0.953125 -2.03125 -0.953125q-1.125 0 -1.90625 0.765625q-0.765625 0.75 -0.84375 2.015625zm9.125717 5.765625l0 -9.671875l1.46875 0l0 1.46875q0.5625 -1.03125 1.03125 -1.359375q0.484375 -0.328125 1.0625 -0.328125q0.828125 0 1.6875 0.53125l-0.5625 1.515625q-0.609375 -0.359375 -1.203125 -0.359375q-0.546875 0 -0.96875 0.328125q-0.421875 0.328125 -0.609375 0.890625q-0.28125 0.875 -0.28125 1.921875l0 5.0625l-1.625 0z" fill-rule="nonzero"/><path fill="#000000" fill-opacity="0.0" d="m298.34647 118.43307l-153.48033 9.1653595" fill-rule="evenodd"/><path stroke="#b45f06" stroke-width="2.0" stroke-linejoin="round" stroke-linecap="butt" d="m298.34647 118.43307l-141.50166 8.450035" fill-rule="evenodd"/><path fill="#b45f06" stroke="#b45f06" stroke-width="2.0" stroke-linecap="butt" d="m156.64787 123.58551l-8.863129 3.838623l9.256973 2.7565613z" fill-rule="evenodd"/><path fill="#000000" fill-opacity="0.0" d="m313.09088 133.29631l-168.22046 -5.7007904" fill-rule="evenodd"/><path stroke="#b45f06" stroke-width="2.0" stroke-linejoin="round" stroke-linecap="butt" d="m313.0909 133.29631l-156.22739 -5.2943573" fill-rule="evenodd"/><path fill="#b45f06" stroke="#b45f06" stroke-width="2.0" stroke-linecap="butt" d="m156.97542 124.700386l-9.182877 2.9941635l8.959106 3.6089783z" fill-rule="evenodd"/><path fill="#000000" fill-opacity="0.0" d="m327.83533 148.15955l-182.96063 -20.566933" fill-rule="evenodd"/><path stroke="#b45f06" stroke-width="2.0" stroke-linejoin="round" stroke-linecap="butt" d="m327.83533 148.15955l-171.03575 -19.22644" fill-rule="evenodd"/><path fill="#b45f06" stroke="#b45f06" stroke-width="2.0" stroke-linecap="butt" d="m157.16861 125.65032l-9.388412 2.2689056l8.65036 4.296669z" fill-rule="evenodd"/><path fill="#fce5cd" d="m224.3307 100.93438l32.598434 0l0 32.598427l-32.598434 0z" fill-rule="evenodd"/><path stroke="#000000" stroke-width="1.0" stroke-linejoin="round" stroke-linecap="butt" d="m224.3307 100.93438l32.598434 0l0 32.598427l-32.598434 0z" fill-rule="evenodd"/><path fill="#000000" d="m232.73695 124.153595l6.375 -6.75l-3.78125 -6.609375l1.96875 0l1.71875 3.03125q0.6875 1.1875 0.796875 1.390625q0.234375 0.453125 0.515625 1.0625q0.671875 -0.90625 2.078125 -2.390625l2.9375 -3.09375l2.328125 0l-6.453125 6.90625l3.65625 6.453125l-1.9375 0l-2.171875 -3.90625q-0.3125 -0.578125 -0.734375 -1.484375q-0.484375 0.671875 -1.203125 1.421875l-3.71875 3.96875l-2.375 0z" fill-rule="nonzero"/><path fill="#fce5cd" d="m246.56036 118.08399l32.59842 0l0 32.598427l-32.59842 0z" fill-rule="evenodd"/><path stroke="#000000" stroke-width="1.0" stroke-linejoin="round" stroke-linecap="butt" d="m246.56036 118.08399l32.59842 0l0 32.598427l-32.59842 0z" fill-rule="evenodd"/><path fill="#000000" d="m254.96661 141.3032l6.375 -6.75l-3.78125 -6.6093826l1.96875 0l1.71875 3.0312576q0.6875 1.1875 0.796875 1.390625q0.234375 0.453125 0.515625 1.0625q0.671875 -0.90625 2.078125 -2.390625l2.9375 -3.0937576l2.328125 0l-6.453125 6.9062576l3.65625 6.453125l-1.9375 0l-2.171875 -3.90625q-0.3125 -0.578125 -0.734375 -1.484375q-0.484375 0.671875 -1.203125 1.421875l-3.71875 3.96875l-2.375 0z" fill-rule="nonzero"/><path fill="#000000" fill-opacity="0.0" d="m154.87735 149.64832l153.7323 0l0 59.2126l-153.7323 0z" fill-rule="evenodd"/><path fill="#000000" d="m170.93985 167.1527l1.125 0.296875q-0.359375 1.390625 -1.28125 2.125q-0.921875 0.734375 -2.265625 0.734375q-1.390625 0 -2.265625 -0.5625q-0.875 -0.5625 -1.328125 -1.625q-0.453125 -1.078125 -0.453125 -2.3125q0 -1.34375 0.515625 -2.34375q0.515625 -1.0 1.453125 -1.515625q0.953125 -0.515625 2.09375 -0.515625q1.28125 0 2.15625 0.65625q0.890625 0.65625 1.234375 1.84375l-1.125 0.265625q-0.296875 -0.9375 -0.875 -1.359375q-0.5625 -0.4375 -1.421875 -0.4375q-0.984375 0 -1.65625 0.484375q-0.65625 0.46875 -0.9375 1.265625q-0.265625 0.796875 -0.265625 1.65625q0 1.09375 0.3125 1.90625q0.328125 0.8125 1.0 1.21875q0.671875 0.40625 1.46875 0.40625q0.953125 0 1.609375 -0.546875q0.671875 -0.546875 0.90625 -1.640625zm2.0097656 -0.09375q0 -1.734375 0.953125 -2.5625q0.796875 -0.6875 1.953125 -0.6875q1.28125 0 2.09375 0.84375q0.828125 0.828125 0.828125 2.3125q0 1.203125 -0.359375 1.890625q-0.359375 0.6875 -1.0625 1.078125q-0.6875 0.375 -1.5 0.375q-1.296875 0 -2.109375 -0.828125q-0.796875 -0.84375 -0.796875 -2.421875zm1.078125 0q0 1.1875 0.515625 1.78125q0.53125 0.59375 1.3125 0.59375q0.796875 0 1.3125 -0.59375q0.515625 -0.59375 0.515625 -1.8125q0 -1.15625 -0.53125 -1.75q-0.515625 -0.59375 -1.296875 -0.59375q-0.78125 0 -1.3125 0.59375q-0.515625 0.578125 -0.515625 1.78125zm5.955078 3.109375l0 -8.59375l1.0625 0l0 8.59375l-1.0625 0zm2.6660156 0l0 -8.59375l1.0625 0l0 8.59375l-1.0625 0zm6.9472656 -2.0l1.09375 0.125q-0.25 0.953125 -0.953125 1.484375q-0.703125 0.53125 -1.78125 0.53125q-1.359375 0 -2.171875 -0.84375q-0.796875 -0.84375 -0.796875 -2.359375q0 -1.5625 0.8125 -2.421875q0.8125 -0.875 2.09375 -0.875q1.25 0 2.03125 0.84375q0.796875 0.84375 0.796875 2.390625q0 0.09375 0 0.28125l-4.640625 0q0.0625 1.03125 0.578125 1.578125q0.515625 0.53125 1.296875 0.53125q0.578125 0 0.984375 -0.296875q0.421875 -0.3125 0.65625 -0.96875zm-3.453125 -1.703125l3.46875 0q-0.0625 -0.796875 -0.390625 -1.1875q-0.515625 -0.609375 -1.3125 -0.609375q-0.734375 0 -1.234375 0.484375q-0.484375 0.484375 -0.53125 1.3125zm9.939453 1.421875l1.03125 0.140625q-0.171875 1.0625 -0.875 1.671875q-0.703125 0.609375 -1.71875 0.609375q-1.28125 0 -2.0625 -0.828125q-0.765625 -0.84375 -0.765625 -2.40625q0 -1.0 0.328125 -1.75q0.34375 -0.765625 1.015625 -1.140625q0.6875 -0.375 1.5 -0.375q1.0 0 1.640625 0.515625q0.65625 0.5 0.84375 1.453125l-1.03125 0.15625q-0.140625 -0.625 -0.515625 -0.9375q-0.375 -0.328125 -0.90625 -0.328125q-0.796875 0 -1.296875 0.578125q-0.5 0.5625 -0.5 1.796875q0 1.265625 0.484375 1.828125q0.484375 0.5625 1.25 0.5625q0.625 0 1.03125 -0.375q0.421875 -0.375 0.546875 -1.171875zm4.234375 1.34375l0.15625 0.921875q-0.453125 0.09375 -0.796875 0.09375q-0.578125 0 -0.890625 -0.171875q-0.3125 -0.1875 -0.453125 -0.484375q-0.125 -0.296875 -0.125 -1.25l0 -3.578125l-0.765625 0l0 -0.8125l0.765625 0l0 -1.546875l1.046875 -0.625l0 2.171875l1.0625 0l0 0.8125l-1.0625 0l0 3.640625q0 0.453125 0.046875 0.578125q0.0625 0.125 0.1875 0.203125q0.125 0.078125 0.359375 0.078125q0.1875 0 0.46875 -0.03125zm5.3398438 0.9375l-0.984375 0l0 -8.59375l1.0625 0l0 3.0625q0.671875 -0.828125 1.703125 -0.828125q0.578125 0 1.078125 0.234375q0.515625 0.21875 0.84375 0.640625q0.34375 0.421875 0.53125 1.015625q0.1875 0.59375 0.1875 1.265625q0 1.59375 -0.796875 2.46875q-0.796875 0.875 -1.890625 0.875q-1.109375 0 -1.734375 -0.921875l0 0.78125zm-0.015625 -3.15625q0 1.109375 0.3125 1.609375q0.5 0.8125 1.34375 0.8125q0.6875 0 1.1875 -0.59375q0.515625 -0.59375 0.515625 -1.796875q0 -1.21875 -0.484375 -1.796875q-0.484375 -0.578125 -1.171875 -0.578125q-0.6875 0 -1.203125 0.609375q-0.5 0.59375 -0.5 1.734375zm9.783203 2.390625q-0.59375 0.5 -1.140625 0.703125q-0.53125 0.203125 -1.15625 0.203125q-1.03125 0 -1.578125 -0.5q-0.546875 -0.5 -0.546875 -1.28125q0 -0.453125 0.203125 -0.828125q0.203125 -0.390625 0.546875 -0.609375q0.34375 -0.234375 0.765625 -0.34375q0.296875 -0.09375 0.9375 -0.171875q1.265625 -0.140625 1.875 -0.359375q0 -0.21875 0 -0.265625q0 -0.65625 -0.296875 -0.921875q-0.40625 -0.34375 -1.203125 -0.34375q-0.734375 0 -1.09375 0.265625q-0.359375 0.25 -0.53125 0.90625l-1.03125 -0.140625q0.140625 -0.65625 0.46875 -1.0625q0.328125 -0.40625 0.9375 -0.625q0.609375 -0.21875 1.40625 -0.21875q0.796875 0 1.296875 0.1875q0.5 0.1875 0.734375 0.46875q0.234375 0.28125 0.328125 0.71875q0.046875 0.265625 0.046875 0.96875l0 1.40625q0 1.46875 0.0625 1.859375q0.078125 0.390625 0.28125 0.75l-1.109375 0q-0.15625 -0.328125 -0.203125 -0.765625zm-0.09375 -2.359375q-0.578125 0.234375 -1.71875 0.40625q-0.65625 0.09375 -0.921875 0.21875q-0.265625 0.109375 -0.421875 0.328125q-0.140625 0.21875 -0.140625 0.5q0 0.421875 0.3125 0.703125q0.328125 0.28125 0.9375 0.28125q0.609375 0 1.078125 -0.265625q0.484375 -0.265625 0.703125 -0.734375q0.171875 -0.359375 0.171875 -1.046875l0 -0.390625zm5.001953 2.1875l0.15625 0.921875q-0.453125 0.09375 -0.796875 0.09375q-0.578125 0 -0.890625 -0.171875q-0.3125 -0.1875 -0.453125 -0.484375q-0.125 -0.296875 -0.125 -1.25l0 -3.578125l-0.765625 0l0 -0.8125l0.765625 0l0 -1.546875l1.046875 -0.625l0 2.171875l1.0625 0l0 0.8125l-1.0625 0l0 3.640625q0 0.453125 0.046875 0.578125q0.0625 0.125 0.1875 0.203125q0.125 0.078125 0.359375 0.078125q0.1875 0 0.46875 -0.03125zm5.0996094 -1.34375l1.03125 0.140625q-0.171875 1.0625 -0.875 1.671875q-0.703125 0.609375 -1.71875 0.609375q-1.28125 0 -2.0625 -0.828125q-0.765625 -0.84375 -0.765625 -2.40625q0 -1.0 0.328125 -1.75q0.34375 -0.765625 1.015625 -1.140625q0.6875 -0.375 1.5 -0.375q1.0 0 1.640625 0.515625q0.65625 0.5 0.84375 1.453125l-1.03125 0.15625q-0.140625 -0.625 -0.515625 -0.9375q-0.375 -0.328125 -0.90625 -0.328125q-0.796875 0 -1.296875 0.578125q-0.5 0.5625 -0.5 1.796875q0 1.265625 0.484375 1.828125q0.484375 0.5625 1.25 0.5625q0.625 0 1.03125 -0.375q0.421875 -0.375 0.546875 -1.171875zm1.9375 2.28125l0 -8.59375l1.046875 0l0 3.078125q0.734375 -0.84375 1.859375 -0.84375q0.703125 0 1.203125 0.28125q0.515625 0.265625 0.734375 0.75q0.21875 0.46875 0.21875 1.390625l0 3.9375l-1.046875 0l0 -3.9375q0 -0.796875 -0.34375 -1.15625q-0.34375 -0.359375 -0.96875 -0.359375q-0.46875 0 -0.890625 0.25q-0.40625 0.234375 -0.59375 0.65625q-0.171875 0.40625 -0.171875 1.140625l0 3.40625l-1.046875 0zm10.923828 -2.0l1.09375 0.125q-0.25 0.953125 -0.953125 1.484375q-0.703125 0.53125 -1.78125 0.53125q-1.359375 0 -2.171875 -0.84375q-0.796875 -0.84375 -0.796875 -2.359375q0 -1.5625 0.8125 -2.421875q0.8125 -0.875 2.09375 -0.875q1.25 0 2.03125 0.84375q0.796875 0.84375 0.796875 2.390625q0 0.09375 0 0.28125l-4.640625 0q0.0625 1.03125 0.578125 1.578125q0.515625 0.53125 1.296875 0.53125q0.578125 0 0.984375 -0.296875q0.421875 -0.3125 0.65625 -0.96875zm-3.453125 -1.703125l3.46875 0q-0.0625 -0.796875 -0.390625 -1.1875q-0.515625 -0.609375 -1.3125 -0.609375q-0.734375 0 -1.234375 0.484375q-0.484375 0.484375 -0.53125 1.3125zm5.455078 1.84375l1.03125 -0.15625q0.09375 0.625 0.484375 0.953125q0.40625 0.328125 1.140625 0.328125q0.71875 0 1.0625 -0.28125q0.359375 -0.296875 0.359375 -0.703125q0 -0.359375 -0.3125 -0.5625q-0.21875 -0.140625 -1.078125 -0.359375q-1.15625 -0.296875 -1.609375 -0.5q-0.4375 -0.21875 -0.671875 -0.59375q-0.234375 -0.375 -0.234375 -0.84375q0 -0.40625 0.1875 -0.765625q0.1875 -0.359375 0.515625 -0.59375q0.25 -0.171875 0.671875 -0.296875q0.421875 -0.125 0.921875 -0.125q0.71875 0 1.265625 0.21875q0.5625 0.203125 0.828125 0.5625q0.265625 0.359375 0.359375 0.953125l-1.03125 0.140625q-0.0625 -0.46875 -0.40625 -0.734375q-0.328125 -0.28125 -0.953125 -0.28125q-0.71875 0 -1.03125 0.25q-0.3125 0.234375 -0.3125 0.5625q0 0.203125 0.125 0.359375q0.140625 0.171875 0.40625 0.28125q0.15625 0.0625 0.9375 0.265625q1.125 0.3125 1.5625 0.5q0.4375 0.1875 0.6875 0.546875q0.25 0.359375 0.25 0.90625q0 0.53125 -0.3125 1.0q-0.296875 0.453125 -0.875 0.71875q-0.578125 0.25 -1.3125 0.25q-1.21875 0 -1.859375 -0.5q-0.625 -0.515625 -0.796875 -1.5zm9.365234 -1.25q0 -1.734375 0.953125 -2.5625q0.796875 -0.6875 1.953125 -0.6875q1.28125 0 2.09375 0.84375q0.828125 0.828125 0.828125 2.3125q0 1.203125 -0.359375 1.890625q-0.359375 0.6875 -1.0625 1.078125q-0.6875 0.375 -1.5 0.375q-1.296875 0 -2.109375 -0.828125q-0.796875 -0.84375 -0.796875 -2.421875zm1.078125 0q0 1.1875 0.515625 1.78125q0.53125 0.59375 1.3125 0.59375q0.796875 0 1.3125 -0.59375q0.515625 -0.59375 0.515625 -1.8125q0 -1.15625 -0.53125 -1.75q-0.515625 -0.59375 -1.296875 -0.59375q-0.78125 0 -1.3125 0.59375q-0.515625 0.578125 -0.515625 1.78125zm6.236328 3.109375l0 -5.40625l-0.9375 0l0 -0.8125l0.9375 0l0 -0.671875q0 -0.625 0.109375 -0.921875q0.15625 -0.421875 0.53125 -0.671875q0.390625 -0.25 1.078125 -0.25q0.453125 0 0.984375 0.109375l-0.15625 0.90625q-0.328125 -0.046875 -0.625 -0.046875q-0.484375 0 -0.6875 0.203125q-0.1875 0.203125 -0.1875 0.765625l0 0.578125l1.21875 0l0 0.8125l-1.21875 0l0 5.40625l-1.046875 0zm5.9960938 -1.859375l1.03125 -0.15625q0.09375 0.625 0.484375 0.953125q0.40625 0.328125 1.140625 0.328125q0.71875 0 1.0625 -0.28125q0.359375 -0.296875 0.359375 -0.703125q0 -0.359375 -0.3125 -0.5625q-0.21875 -0.140625 -1.078125 -0.359375q-1.15625 -0.296875 -1.609375 -0.5q-0.4375 -0.21875 -0.671875 -0.59375q-0.234375 -0.375 -0.234375 -0.84375q0 -0.40625 0.1875 -0.765625q0.1875 -0.359375 0.515625 -0.59375q0.25 -0.171875 0.671875 -0.296875q0.421875 -0.125 0.921875 -0.125q0.71875 0 1.265625 0.21875q0.5625 0.203125 0.828125 0.5625q0.265625 0.359375 0.359375 0.953125l-1.03125 0.140625q-0.0625 -0.46875 -0.40625 -0.734375q-0.328125 -0.28125 -0.953125 -0.28125q-0.71875 0 -1.03125 0.25q-0.3125 0.234375 -0.3125 0.5625q0 0.203125 0.125 0.359375q0.140625 0.171875 0.40625 0.28125q0.15625 0.0625 0.9375 0.265625q1.125 0.3125 1.5625 0.5q0.4375 0.1875 0.6875 0.546875q0.25 0.359375 0.25 0.90625q0 0.53125 -0.3125 1.0q-0.296875 0.453125 -0.875 0.71875q-0.578125 0.25 -1.3125 0.25q-1.21875 0 -1.859375 -0.5q-0.625 -0.515625 -0.796875 -1.5zm6.421875 -5.515625l0 -1.21875l1.0625 0l0 1.21875l-1.0625 0zm0 7.375l0 -6.21875l1.0625 0l0 6.21875l-1.0625 0zm2.1035156 0l0 -0.859375l3.96875 -4.546875q-0.6875 0.03125 -1.203125 0.03125l-2.53125 0l0 -0.84375l5.09375 0l0 0.6875l-3.375 3.953125l-0.65625 0.71875q0.71875 -0.046875 1.328125 -0.046875l2.890625 0l0 0.90625l-5.515625 0zm10.8125 -2.0l1.09375 0.125q-0.25 0.953125 -0.953125 1.484375q-0.703125 0.53125 -1.78125 0.53125q-1.359375 0 -2.171875 -0.84375q-0.796875 -0.84375 -0.796875 -2.359375q0 -1.5625 0.8125 -2.421875q0.8125 -0.875 2.09375 -0.875q1.25 0 2.03125 0.84375q0.796875 0.84375 0.796875 2.390625q0 0.09375 0 0.28125l-4.640625 0q0.0625 1.03125 0.578125 1.578125q0.515625 0.53125 1.296875 0.53125q0.578125 0 0.984375 -0.296875q0.421875 -0.3125 0.65625 -0.96875zm-3.453125 -1.703125l3.46875 0q-0.0625 -0.796875 -0.390625 -1.1875q-0.515625 -0.609375 -1.3125 -0.609375q-0.734375 0 -1.234375 0.484375q-0.484375 0.484375 -0.53125 1.3125z" fill-rule="nonzero"/><path fill="#000000" d="m166.68985 186.69957q-0.875 -1.109375 -1.484375 -2.578125q-0.59375 -1.484375 -0.59375 -3.0625q0 -1.390625 0.4375 -2.671875q0.53125 -1.484375 1.640625 -2.953125l0.75 0q-0.703125 1.21875 -0.9375 1.734375q-0.359375 0.8125 -0.5625 1.6875q-0.25 1.09375 -0.25 2.203125q0 2.828125 1.75 5.640625l-0.75 0z" fill-rule="nonzero"/><path fill="#000000" d="m168.2797 184.16832l1.296875 -6.21875l0.9375 0l-0.265625 1.265625q0.484375 -0.71875 0.9375 -1.0625q0.46875 -0.34375 0.9375 -0.34375q0.328125 0 0.78125 0.21875l-0.4375 0.984375q-0.265625 -0.1875 -0.59375 -0.1875q-0.5625 0 -1.15625 0.625q-0.578125 0.609375 -0.90625 2.21875l-0.53125 2.5l-1.0 0zm4.1835938 -2.359375q0 -1.828125 1.0625 -3.015625q0.890625 -0.984375 2.328125 -0.984375q1.125 0 1.8125 0.703125q0.6875 0.703125 0.6875 1.890625q0 1.078125 -0.4375 2.0q-0.4375 0.921875 -1.234375 1.421875q-0.796875 0.484375 -1.6875 0.484375q-0.71875 0 -1.3125 -0.3125q-0.59375 -0.3125 -0.90625 -0.875q-0.3125 -0.578125 -0.3125 -1.3125zm1.046875 -0.109375q0 0.875 0.421875 1.328125q0.421875 0.453125 1.078125 0.453125q0.34375 0 0.671875 -0.125q0.34375 -0.140625 0.625 -0.421875q0.28125 -0.28125 0.484375 -0.640625q0.203125 -0.359375 0.328125 -0.78125q0.1875 -0.578125 0.1875 -1.109375q0 -0.84375 -0.4375 -1.3125q-0.421875 -0.46875 -1.0625 -0.46875q-0.5 0 -0.90625 0.25q-0.40625 0.234375 -0.75 0.6875q-0.328125 0.453125 -0.484375 1.0625q-0.15625 0.609375 -0.15625 1.078125zm5.345703 2.46875l1.796875 -8.59375l1.0625 0l-1.796875 8.59375l-1.0625 0zm2.6660156 0l1.796875 -8.59375l1.0625 0l-1.796875 8.59375l-1.0625 0zm2.9472656 -2.359375q0 -1.828125 1.0625 -3.015625q0.890625 -0.984375 2.328125 -0.984375q1.125 0 1.8125 0.703125q0.6875 0.703125 0.6875 1.890625q0 1.078125 -0.4375 2.0q-0.4375 0.921875 -1.234375 1.421875q-0.796875 0.484375 -1.6875 0.484375q-0.71875 0 -1.3125 -0.3125q-0.59375 -0.3125 -0.90625 -0.875q-0.3125 -0.578125 -0.3125 -1.3125zm1.046875 -0.109375q0 0.875 0.421875 1.328125q0.421875 0.453125 1.078125 0.453125q0.34375 0 0.671875 -0.125q0.34375 -0.140625 0.625 -0.421875q0.28125 -0.28125 0.484375 -0.640625q0.203125 -0.359375 0.328125 -0.78125q0.1875 -0.578125 0.1875 -1.109375q0 -0.84375 -0.4375 -1.3125q-0.421875 -0.46875 -1.0625 -0.46875q-0.5 0 -0.90625 0.25q-0.40625 0.234375 -0.75 0.6875q-0.328125 0.453125 -0.484375 1.0625q-0.15625 0.609375 -0.15625 1.078125zm9.673828 1.34375q-1.109375 1.265625 -2.28125 1.265625q-0.71875 0 -1.171875 -0.40625q-0.4375 -0.421875 -0.4375 -1.015625q0 -0.390625 0.203125 -1.34375l0.75 -3.59375l1.0625 0l-0.84375 3.96875q-0.09375 0.5 -0.09375 0.78125q0 0.34375 0.203125 0.546875q0.21875 0.1875 0.640625 0.1875q0.4375 0 0.859375 -0.203125q0.4375 -0.21875 0.734375 -0.59375q0.3125 -0.375 0.5 -0.875q0.140625 -0.3125 0.296875 -1.125l0.5625 -2.6875l1.0625 0l-1.296875 6.21875l-0.984375 0l0.234375 -1.125zm4.908203 0.265625l-0.171875 0.859375q-0.375 0.109375 -0.734375 0.109375q-0.640625 0 -1.015625 -0.3125q-0.28125 -0.234375 -0.28125 -0.640625q0 -0.203125 0.15625 -0.9375l0.75 -3.625l-0.828125 0l0.171875 -0.8125l0.828125 0l0.328125 -1.53125l1.203125 -0.734375l-0.46875 2.265625l1.046875 0l-0.171875 0.8125l-1.046875 0l-0.71875 3.4375q-0.140625 0.65625 -0.140625 0.796875q0 0.1875 0.109375 0.28125q0.109375 0.09375 0.359375 0.09375q0.359375 0 0.625 -0.0625zm-0.30664062 3.25l0 -0.765625l7.0 0l0 0.765625l-7.0 0zm7.986328 -2.390625l1.125 -5.40625l-0.9375 0l0.15625 -0.8125l0.953125 0l0.1875 -0.890625q0.140625 -0.65625 0.28125 -0.953125q0.15625 -0.296875 0.484375 -0.484375q0.34375 -0.1875 0.921875 -0.1875q0.40625 0 1.171875 0.171875l-0.1875 0.921875q-0.546875 -0.140625 -0.90625 -0.140625q-0.3125 0 -0.46875 0.15625q-0.15625 0.15625 -0.28125 0.734375l-0.140625 0.671875l1.1875 0l-0.171875 0.8125l-1.1875 0l-1.125 5.40625l-1.0625 0zm3.1933594 0l1.296875 -6.21875l0.9375 0l-0.265625 1.265625q0.484375 -0.71875 0.9375 -1.0625q0.46875 -0.34375 0.9375 -0.34375q0.328125 0 0.78125 0.21875l-0.4375 0.984375q-0.265625 -0.1875 -0.59375 -0.1875q-0.5625 0 -1.15625 0.625q-0.578125 0.609375 -0.90625 2.21875l-0.53125 2.5l-1.0 0zm8.183594 -0.78125q-0.546875 0.484375 -1.0625 0.703125q-0.5 0.21875 -1.09375 0.21875q-0.859375 0 -1.390625 -0.5q-0.515625 -0.515625 -0.515625 -1.3125q0 -0.515625 0.234375 -0.90625q0.234375 -0.40625 0.625 -0.640625q0.390625 -0.25 0.96875 -0.359375q0.359375 -0.078125 1.359375 -0.109375q1.0 -0.046875 1.421875 -0.21875q0.125 -0.4375 0.125 -0.71875q0 -0.375 -0.265625 -0.578125q-0.375 -0.296875 -1.078125 -0.296875q-0.671875 0 -1.09375 0.296875q-0.421875 0.296875 -0.625 0.84375l-1.0625 -0.09375q0.328125 -0.921875 1.03125 -1.40625q0.71875 -0.5 1.796875 -0.5q1.15625 0 1.828125 0.546875q0.515625 0.40625 0.515625 1.0625q0 0.5 -0.140625 1.15625l-0.34375 1.546875q-0.171875 0.734375 -0.171875 1.203125q0 0.296875 0.140625 0.84375l-1.078125 0q-0.09375 -0.3125 -0.125 -0.78125zm0.390625 -2.375q-0.21875 0.09375 -0.484375 0.140625q-0.25 0.046875 -0.84375 0.09375q-0.921875 0.078125 -1.3125 0.21875q-0.375 0.125 -0.578125 0.40625q-0.1875 0.265625 -0.1875 0.59375q0 0.453125 0.3125 0.734375q0.3125 0.28125 0.875 0.28125q0.53125 0 1.015625 -0.265625q0.484375 -0.28125 0.765625 -0.78125q0.28125 -0.5 0.4375 -1.421875zm2.0332031 3.71875l1.0625 0.09375q0 0.375 0.09375 0.546875q0.09375 0.1875 0.3125 0.28125q0.296875 0.140625 0.75 0.140625q0.953125 0 1.375 -0.5q0.28125 -0.34375 0.515625 -1.453125l0.109375 -0.515625q-0.828125 0.84375 -1.765625 0.84375q-0.9375 0 -1.578125 -0.6875q-0.625 -0.703125 -0.625 -1.96875q0 -1.046875 0.5 -1.921875q0.5 -0.890625 1.1875 -1.328125q0.6875 -0.453125 1.421875 -0.453125q1.21875 0 1.890625 1.15625l0.203125 -1.015625l0.984375 0l-1.265625 6.0q-0.203125 1.0 -0.546875 1.546875q-0.328125 0.546875 -0.921875 0.84375q-0.59375 0.3125 -1.375 0.3125q-0.75 0 -1.296875 -0.1875q-0.53125 -0.1875 -0.796875 -0.5625q-0.265625 -0.375 -0.265625 -0.859375q0 -0.140625 0.03125 -0.3125zm1.328125 -3.3125q0 0.640625 0.109375 0.953125q0.1875 0.453125 0.5 0.6875q0.328125 0.234375 0.734375 0.234375q0.515625 0 1.03125 -0.359375q0.515625 -0.359375 0.828125 -1.125q0.328125 -0.78125 0.328125 -1.46875q0 -0.765625 -0.421875 -1.21875q-0.421875 -0.46875 -1.046875 -0.46875q-0.390625 0 -0.765625 0.21875q-0.359375 0.203125 -0.671875 0.625q-0.3125 0.421875 -0.46875 1.015625q-0.15625 0.59375 -0.15625 0.90625zm5.392578 2.75l1.296875 -6.21875l1.0625 0l-0.21875 1.015625q0.59375 -0.65625 1.0625 -0.90625q0.46875 -0.25 1.015625 -0.25q0.578125 0 0.96875 0.3125q0.390625 0.296875 0.515625 0.84375q0.46875 -0.578125 0.984375 -0.859375q0.53125 -0.296875 1.109375 -0.296875q0.78125 0 1.171875 0.375q0.390625 0.359375 0.390625 1.03125q0 0.28125 -0.140625 0.9375l-0.828125 4.015625l-1.0625 0l0.859375 -4.109375q0.109375 -0.515625 0.109375 -0.71875q0 -0.3125 -0.203125 -0.484375q-0.1875 -0.171875 -0.53125 -0.171875q-0.484375 0 -0.984375 0.28125q-0.484375 0.28125 -0.765625 0.75q-0.265625 0.46875 -0.46875 1.4375l-0.625 3.015625l-1.0625 0l0.875 -4.203125q0.09375 -0.421875 0.09375 -0.609375q0 -0.296875 -0.1875 -0.484375q-0.1875 -0.1875 -0.5 -0.1875q-0.453125 0 -0.953125 0.28125q-0.484375 0.28125 -0.796875 0.796875q-0.3125 0.515625 -0.515625 1.46875l-0.609375 2.9375l-1.0625 0zm14.574219 -2.109375l1.03125 0.09375q-0.21875 0.765625 -1.03125 1.46875q-0.796875 0.6875 -1.890625 0.6875q-0.703125 0 -1.28125 -0.3125q-0.578125 -0.328125 -0.875 -0.9375q-0.296875 -0.609375 -0.296875 -1.390625q0 -1.015625 0.46875 -1.96875q0.46875 -0.96875 1.21875 -1.421875q0.75 -0.46875 1.625 -0.46875q1.109375 0 1.765625 0.6875q0.671875 0.6875 0.671875 1.890625q0 0.453125 -0.078125 0.9375l-4.578125 0q-0.03125 0.171875 -0.03125 0.328125q0 0.875 0.40625 1.328125q0.40625 0.453125 0.984375 0.453125q0.546875 0 1.0625 -0.34375q0.53125 -0.359375 0.828125 -1.03125zm-3.078125 -1.546875l3.484375 0q0.015625 -0.171875 0.015625 -0.234375q0 -0.796875 -0.40625 -1.21875q-0.390625 -0.421875 -1.015625 -0.421875q-0.6875 0 -1.25 0.46875q-0.5625 0.46875 -0.828125 1.40625zm5.189453 3.65625l1.296875 -6.21875l0.953125 0l-0.21875 1.078125q0.625 -0.640625 1.171875 -0.921875q0.546875 -0.296875 1.109375 -0.296875q0.75 0 1.171875 0.40625q0.4375 0.40625 0.4375 1.09375q0 0.34375 -0.140625 1.09375l-0.796875 3.765625l-1.0625 0l0.828125 -3.9375q0.125 -0.578125 0.125 -0.859375q0 -0.3125 -0.21875 -0.5q-0.203125 -0.1875 -0.609375 -0.1875q-0.8125 0 -1.453125 0.59375q-0.640625 0.578125 -0.9375 2.0l-0.609375 2.890625l-1.046875 0zm9.142578 -0.859375l-0.171875 0.859375q-0.375 0.109375 -0.734375 0.109375q-0.640625 0 -1.015625 -0.3125q-0.28125 -0.234375 -0.28125 -0.640625q0 -0.203125 0.15625 -0.9375l0.75 -3.625l-0.828125 0l0.171875 -0.8125l0.828125 0l0.328125 -1.53125l1.203125 -0.734375l-0.46875 2.265625l1.046875 0l-0.171875 0.8125l-1.046875 0l-0.71875 3.4375q-0.140625 0.65625 -0.140625 0.796875q0 0.1875 0.109375 0.28125q0.109375 0.09375 0.359375 0.09375q0.359375 0 0.625 -0.0625zm-0.30664062 3.25l0 -0.765625l7.0 0l0 0.765625l-7.0 0zm7.751953 -2.390625l1.796875 -8.59375l1.0625 0l-1.796875 8.59375l-1.0625 0zm7.3222656 -2.109375l1.03125 0.09375q-0.21875 0.765625 -1.03125 1.46875q-0.796875 0.6875 -1.890625 0.6875q-0.703125 0 -1.28125 -0.3125q-0.578125 -0.328125 -0.875 -0.9375q-0.296875 -0.609375 -0.296875 -1.390625q0 -1.015625 0.46875 -1.96875q0.46875 -0.96875 1.21875 -1.421875q0.75 -0.46875 1.625 -0.46875q1.109375 0 1.765625 0.6875q0.671875 0.6875 0.671875 1.890625q0 0.453125 -0.078125 0.9375l-4.578125 0q-0.03125 0.171875 -0.03125 0.328125q0 0.875 0.40625 1.328125q0.40625 0.453125 0.984375 0.453125q0.546875 0 1.0625 -0.34375q0.53125 -0.359375 0.828125 -1.03125zm-3.078125 -1.546875l3.484375 0q0.015625 -0.171875 0.015625 -0.234375q0 -0.796875 -0.40625 -1.21875q-0.390625 -0.421875 -1.015625 -0.421875q-0.6875 0 -1.25 0.46875q-0.5625 0.46875 -0.828125 1.40625zm5.189453 3.65625l1.296875 -6.21875l0.953125 0l-0.21875 1.078125q0.625 -0.640625 1.171875 -0.921875q0.546875 -0.296875 1.109375 -0.296875q0.75 0 1.171875 0.40625q0.4375 0.40625 0.4375 1.09375q0 0.34375 -0.140625 1.09375l-0.796875 3.765625l-1.0625 0l0.828125 -3.9375q0.125 -0.578125 0.125 -0.859375q0 -0.3125 -0.21875 -0.5q-0.203125 -0.1875 -0.609375 -0.1875q-0.8125 0 -1.453125 0.59375q-0.640625 0.578125 -0.9375 2.0l-0.609375 2.890625l-1.046875 0zm6.611328 0.5625l1.0625 0.09375q0 0.375 0.09375 0.546875q0.09375 0.1875 0.3125 0.28125q0.296875 0.140625 0.75 0.140625q0.953125 0 1.375 -0.5q0.28125 -0.34375 0.515625 -1.453125l0.109375 -0.515625q-0.828125 0.84375 -1.765625 0.84375q-0.9375 0 -1.578125 -0.6875q-0.625 -0.703125 -0.625 -1.96875q0 -1.046875 0.5 -1.921875q0.5 -0.890625 1.1875 -1.328125q0.6875 -0.453125 1.421875 -0.453125q1.21875 0 1.890625 1.15625l0.203125 -1.015625l0.984375 0l-1.265625 6.0q-0.203125 1.0 -0.546875 1.546875q-0.328125 0.546875 -0.921875 0.84375q-0.59375 0.3125 -1.375 0.3125q-0.75 0 -1.296875 -0.1875q-0.53125 -0.1875 -0.796875 -0.5625q-0.265625 -0.375 -0.265625 -0.859375q0 -0.140625 0.03125 -0.3125zm1.328125 -3.3125q0 0.640625 0.109375 0.953125q0.1875 0.453125 0.5 0.6875q0.328125 0.234375 0.734375 0.234375q0.515625 0 1.03125 -0.359375q0.515625 -0.359375 0.828125 -1.125q0.328125 -0.78125 0.328125 -1.46875q0 -0.765625 -0.421875 -1.21875q-0.421875 -0.46875 -1.046875 -0.46875q-0.390625 0 -0.765625 0.21875q-0.359375 0.203125 -0.671875 0.625q-0.3125 0.421875 -0.46875 1.015625q-0.15625 0.59375 -0.15625 0.90625zm7.876953 1.890625l-0.171875 0.859375q-0.375 0.109375 -0.734375 0.109375q-0.640625 0 -1.015625 -0.3125q-0.28125 -0.234375 -0.28125 -0.640625q0 -0.203125 0.15625 -0.9375l0.75 -3.625l-0.828125 0l0.171875 -0.8125l0.828125 0l0.328125 -1.53125l1.203125 -0.734375l-0.46875 2.265625l1.046875 0l-0.171875 0.8125l-1.046875 0l-0.71875 3.4375q-0.140625 0.65625 -0.140625 0.796875q0 0.1875 0.109375 0.28125q0.109375 0.09375 0.359375 0.09375q0.359375 0 0.625 -0.0625zm0.8652344 0.859375l1.78125 -8.59375l1.0625 0l-0.6875 3.296875q0.59375 -0.5625 1.09375 -0.8125q0.515625 -0.25 1.0625 -0.25q0.765625 0 1.1875 0.40625q0.4375 0.40625 0.4375 1.078125q0 0.328125 -0.1875 1.203125l-0.765625 3.671875l-1.0625 0l0.796875 -3.765625q0.171875 -0.828125 0.171875 -1.03125q0 -0.3125 -0.21875 -0.5q-0.203125 -0.1875 -0.609375 -0.1875q-0.578125 0 -1.09375 0.296875q-0.515625 0.296875 -0.8125 0.828125q-0.296875 0.515625 -0.546875 1.6875l-0.5625 2.671875l-1.046875 0z" fill-rule="nonzero"/><path fill="#000000" d="m165.26797 191.1527l0.265625 -0.828125q0.921875 0.328125 1.34375 0.5625q-0.109375 -1.0625 -0.109375 -1.453125l0.84375 0q-0.015625 0.578125 -0.125 1.453125q0.59375 -0.3125 1.375 -0.5625l0.265625 0.828125q-0.734375 0.25 -1.453125 0.328125q0.359375 0.3125 1.015625 1.109375l-0.703125 0.5q-0.34375 -0.46875 -0.8125 -1.265625q-0.4375 0.828125 -0.765625 1.265625l-0.6875 -0.5q0.6875 -0.84375 0.96875 -1.109375q-0.75 -0.140625 -1.421875 -0.328125zm7.0195312 7.015625l1.296875 -6.21875l0.953125 0l-0.21875 1.078125q0.625 -0.640625 1.171875 -0.921875q0.546875 -0.296875 1.109375 -0.296875q0.75 0 1.171875 0.40625q0.4375 0.40625 0.4375 1.09375q0 0.34375 -0.140625 1.09375l-0.796875 3.765625l-1.0625 0l0.828125 -3.9375q0.125 -0.578125 0.125 -0.859375q0 -0.3125 -0.21875 -0.5q-0.203125 -0.1875 -0.609375 -0.1875q-0.8125 0 -1.453125 0.59375q-0.640625 0.578125 -0.9375 2.0l-0.609375 2.890625l-1.046875 0zm10.908203 -1.125q-1.109375 1.265625 -2.28125 1.265625q-0.71875 0 -1.171875 -0.40625q-0.4375 -0.421875 -0.4375 -1.015625q0 -0.390625 0.203125 -1.34375l0.75 -3.59375l1.0625 0l-0.84375 3.96875q-0.09375 0.5 -0.09375 0.78125q0 0.34375 0.203125 0.546875q0.21875 0.1875 0.640625 0.1875q0.4375 0 0.859375 -0.203125q0.4375 -0.21875 0.734375 -0.59375q0.3125 -0.375 0.5 -0.875q0.140625 -0.3125 0.296875 -1.125l0.5625 -2.6875l1.0625 0l-1.296875 6.21875l-0.984375 0l0.234375 -1.125zm2.4238281 1.125l1.296875 -6.21875l1.0625 0l-0.21875 1.015625q0.59375 -0.65625 1.0625 -0.90625q0.46875 -0.25 1.015625 -0.25q0.578125 0 0.96875 0.3125q0.390625 0.296875 0.515625 0.84375q0.46875 -0.578125 0.984375 -0.859375q0.53125 -0.296875 1.109375 -0.296875q0.78125 0 1.171875 0.375q0.390625 0.359375 0.390625 1.03125q0 0.28125 -0.140625 0.9375l-0.828125 4.015625l-1.0625 0l0.859375 -4.109375q0.109375 -0.515625 0.109375 -0.71875q0 -0.3125 -0.203125 -0.484375q-0.1875 -0.171875 -0.53125 -0.171875q-0.484375 0 -0.984375 0.28125q-0.484375 0.28125 -0.765625 0.75q-0.265625 0.46875 -0.46875 1.4375l-0.625 3.015625l-1.0625 0l0.875 -4.203125q0.09375 -0.421875 0.09375 -0.609375q0 -0.296875 -0.1875 -0.484375q-0.1875 -0.1875 -0.5 -0.1875q-0.453125 0 -0.953125 0.28125q-0.484375 0.28125 -0.796875 0.796875q-0.3125 0.515625 -0.515625 1.46875l-0.609375 2.9375l-1.0625 0zm8.839844 2.390625l0 -0.765625l7.0 0l0 0.765625l-7.0 0zm12.408203 -4.5l1.03125 0.09375q-0.21875 0.765625 -1.03125 1.46875q-0.796875 0.6875 -1.890625 0.6875q-0.703125 0 -1.28125 -0.3125q-0.578125 -0.328125 -0.875 -0.9375q-0.296875 -0.609375 -0.296875 -1.390625q0 -1.015625 0.46875 -1.96875q0.46875 -0.96875 1.21875 -1.421875q0.75 -0.46875 1.625 -0.46875q1.109375 0 1.765625 0.6875q0.671875 0.6875 0.671875 1.890625q0 0.453125 -0.078125 0.9375l-4.578125 0q-0.03125 0.171875 -0.03125 0.328125q0 0.875 0.40625 1.328125q0.40625 0.453125 0.984375 0.453125q0.546875 0 1.0625 -0.34375q0.53125 -0.359375 0.828125 -1.03125zm-3.078125 -1.546875l3.484375 0q0.015625 -0.171875 0.015625 -0.234375q0 -0.796875 -0.40625 -1.21875q-0.390625 -0.421875 -1.015625 -0.421875q-0.6875 0 -1.25 0.46875q-0.5625 0.46875 -0.828125 1.40625zm5.189453 3.65625l1.296875 -6.21875l0.953125 0l-0.21875 1.078125q0.625 -0.640625 1.171875 -0.921875q0.546875 -0.296875 1.109375 -0.296875q0.75 0 1.171875 0.40625q0.4375 0.40625 0.4375 1.09375q0 0.34375 -0.140625 1.09375l-0.796875 3.765625l-1.0625 0l0.828125 -3.9375q0.125 -0.578125 0.125 -0.859375q0 -0.3125 -0.21875 -0.5q-0.203125 -0.1875 -0.609375 -0.1875q-0.8125 0 -1.453125 0.59375q-0.640625 0.578125 -0.9375 2.0l-0.609375 2.890625l-1.046875 0zm8.236328 0l-1.015625 -6.21875l1.03125 0l0.53125 3.421875q0.09375 0.5625 0.21875 1.828125q0.296875 -0.65625 0.78125 -1.515625l2.078125 -3.734375l1.109375 0l-3.5625 6.21875l-1.171875 0zm4.53125 -2.125l1.0625 -0.0625q0 0.453125 0.140625 0.78125q0.140625 0.3125 0.515625 0.515625q0.375 0.203125 0.875 0.203125q0.703125 0 1.046875 -0.28125q0.359375 -0.28125 0.359375 -0.65625q0 -0.28125 -0.203125 -0.515625q-0.21875 -0.25 -1.0625 -0.609375q-0.84375 -0.359375 -1.078125 -0.515625q-0.390625 -0.234375 -0.59375 -0.5625q-0.1875 -0.328125 -0.1875 -0.75q0 -0.734375 0.578125 -1.25q0.59375 -0.53125 1.640625 -0.53125q1.171875 0 1.78125 0.546875q0.625 0.53125 0.640625 1.421875l-1.03125 0.0625q-0.03125 -0.5625 -0.40625 -0.890625q-0.375 -0.328125 -1.0625 -0.328125q-0.546875 0 -0.859375 0.25q-0.296875 0.25 -0.296875 0.546875q0 0.296875 0.265625 0.515625q0.171875 0.15625 0.90625 0.46875q1.21875 0.53125 1.53125 0.828125q0.515625 0.5 0.515625 1.1875q0 0.46875 -0.296875 0.921875q-0.28125 0.4375 -0.859375 0.703125q-0.578125 0.265625 -1.375 0.265625q-1.078125 0 -1.828125 -0.53125q-0.765625 -0.53125 -0.71875 -1.734375zm4.734375 4.515625l0 -0.765625l7.0 0l0 0.765625l-7.0 0zm7.314453 0l1.796875 -8.609375l0.984375 0l-0.1875 0.859375q0.546875 -0.5625 0.96875 -0.78125q0.4375 -0.21875 0.921875 -0.21875q0.890625 0 1.46875 0.65625q0.59375 0.640625 0.59375 1.84375q0 0.96875 -0.328125 1.765625q-0.3125 0.796875 -0.78125 1.296875q-0.46875 0.484375 -0.953125 0.71875q-0.484375 0.21875 -0.984375 0.21875q-1.125 0 -1.734375 -1.140625l-0.703125 3.390625l-1.0625 0zm2.09375 -4.9375q0 0.703125 0.109375 0.96875q0.140625 0.375 0.46875 0.609375q0.34375 0.234375 0.78125 0.234375q0.921875 0 1.484375 -1.015625q0.5625 -1.03125 0.5625 -2.109375q0 -0.78125 -0.390625 -1.21875q-0.375 -0.4375 -0.9375 -0.4375q-0.40625 0 -0.75 0.21875q-0.34375 0.21875 -0.640625 0.640625q-0.296875 0.421875 -0.5 1.046875q-0.1875 0.609375 -0.1875 1.0625zm9.673828 0.4375l1.03125 0.09375q-0.21875 0.765625 -1.03125 1.46875q-0.796875 0.6875 -1.890625 0.6875q-0.703125 0 -1.28125 -0.3125q-0.578125 -0.328125 -0.875 -0.9375q-0.296875 -0.609375 -0.296875 -1.390625q0 -1.015625 0.46875 -1.96875q0.46875 -0.96875 1.21875 -1.421875q0.75 -0.46875 1.625 -0.46875q1.109375 0 1.765625 0.6875q0.671875 0.6875 0.671875 1.890625q0 0.453125 -0.078125 0.9375l-4.578125 0q-0.03125 0.171875 -0.03125 0.328125q0 0.875 0.40625 1.328125q0.40625 0.453125 0.984375 0.453125q0.546875 0 1.0625 -0.34375q0.53125 -0.359375 0.828125 -1.03125zm-3.078125 -1.546875l3.484375 0q0.015625 -0.171875 0.015625 -0.234375q0 -0.796875 -0.40625 -1.21875q-0.390625 -0.421875 -1.015625 -0.421875q-0.6875 0 -1.25 0.46875q-0.5625 0.46875 -0.828125 1.40625zm5.189453 3.65625l1.296875 -6.21875l0.9375 0l-0.265625 1.265625q0.484375 -0.71875 0.9375 -1.0625q0.46875 -0.34375 0.9375 -0.34375q0.328125 0 0.78125 0.21875l-0.4375 0.984375q-0.265625 -0.1875 -0.59375 -0.1875q-0.5625 0 -1.15625 0.625q-0.578125 0.609375 -0.90625 2.21875l-0.53125 2.5l-1.0 0zm2.8242188 2.390625l0 -0.765625l7.0 0l0 0.765625l-7.0 0zm9.017578 -2.390625l-0.640625 -6.21875l1.015625 0l0.28125 2.796875l0.109375 1.5625q0.015625 0.171875 0.03125 0.703125q0.1875 -0.59375 0.296875 -0.90625q0.125 -0.328125 0.40625 -0.921875l1.46875 -3.234375l1.15625 0l0.203125 3.109375q0.046875 0.703125 0.0625 1.890625q0.296875 -0.78125 0.953125 -2.1875l1.34375 -2.8125l1.0625 0l-3.046875 6.21875l-1.09375 0l-0.234375 -3.65625q-0.03125 -0.328125 -0.046875 -1.3125q-0.234375 0.625 -0.5625 1.34375l-1.640625 3.625l-1.125 0zm7.6816406 -2.359375q0 -1.828125 1.0625 -3.015625q0.890625 -0.984375 2.328125 -0.984375q1.125 0 1.8125 0.703125q0.6875 0.703125 0.6875 1.890625q0 1.078125 -0.4375 2.0q-0.4375 0.921875 -1.234375 1.421875q-0.796875 0.484375 -1.6875 0.484375q-0.71875 0 -1.3125 -0.3125q-0.59375 -0.3125 -0.90625 -0.875q-0.3125 -0.578125 -0.3125 -1.3125zm1.046875 -0.109375q0 0.875 0.421875 1.328125q0.421875 0.453125 1.078125 0.453125q0.34375 0 0.671875 -0.125q0.34375 -0.140625 0.625 -0.421875q0.28125 -0.28125 0.484375 -0.640625q0.203125 -0.359375 0.328125 -0.78125q0.1875 -0.578125 0.1875 -1.109375q0 -0.84375 -0.4375 -1.3125q-0.421875 -0.46875 -1.0625 -0.46875q-0.5 0 -0.90625 0.25q-0.40625 0.234375 -0.75 0.6875q-0.328125 0.453125 -0.484375 1.0625q-0.15625 0.609375 -0.15625 1.078125zm5.439453 2.46875l1.296875 -6.21875l0.9375 0l-0.265625 1.265625q0.484375 -0.71875 0.9375 -1.0625q0.46875 -0.34375 0.9375 -0.34375q0.328125 0 0.78125 0.21875l-0.4375 0.984375q-0.265625 -0.1875 -0.59375 -0.1875q-0.5625 0 -1.15625 0.625q-0.578125 0.609375 -0.90625 2.21875l-0.53125 2.5l-1.0 0zm3.9960938 0l1.796875 -8.59375l1.0625 0l-1.109375 5.328125l3.09375 -2.953125l1.390625 0l-2.65625 2.3125l1.609375 3.90625l-1.15625 0l-1.25 -3.1875l-1.28125 1.109375l-0.4375 2.078125l-1.0625 0zm10.5625 -2.109375l1.03125 0.09375q-0.21875 0.765625 -1.03125 1.46875q-0.796875 0.6875 -1.890625 0.6875q-0.703125 0 -1.28125 -0.3125q-0.578125 -0.328125 -0.875 -0.9375q-0.296875 -0.609375 -0.296875 -1.390625q0 -1.015625 0.46875 -1.96875q0.46875 -0.96875 1.21875 -1.421875q0.75 -0.46875 1.625 -0.46875q1.109375 0 1.765625 0.6875q0.671875 0.6875 0.671875 1.890625q0 0.453125 -0.078125 0.9375l-4.578125 0q-0.03125 0.171875 -0.03125 0.328125q0 0.875 0.40625 1.328125q0.40625 0.453125 0.984375 0.453125q0.546875 0 1.0625 -0.34375q0.53125 -0.359375 0.828125 -1.03125zm-3.078125 -1.546875l3.484375 0q0.015625 -0.171875 0.015625 -0.234375q0 -0.796875 -0.40625 -1.21875q-0.390625 -0.421875 -1.015625 -0.421875q-0.6875 0 -1.25 0.46875q-0.5625 0.46875 -0.828125 1.40625zm5.189453 3.65625l1.296875 -6.21875l0.9375 0l-0.265625 1.265625q0.484375 -0.71875 0.9375 -1.0625q0.46875 -0.34375 0.9375 -0.34375q0.328125 0 0.78125 0.21875l-0.4375 0.984375q-0.265625 -0.1875 -0.59375 -0.1875q-0.5625 0 -1.15625 0.625q-0.578125 0.609375 -0.90625 2.21875l-0.53125 2.5l-1.0 0zm5.9648438 -8.734375q0.9375 2.015625 0.9375 4.140625q0 1.421875 -0.375 2.640625q-0.375 1.21875 -1.140625 2.421875q-0.5 0.796875 -1.609375 2.0625l-0.828125 0q0.6875 -0.75 1.453125 -2.078125q0.765625 -1.328125 1.109375 -2.609375q0.34375 -1.28125 0.34375 -2.578125q0 -1.9375 -0.671875 -4.0l0.78125 0z" fill-rule="nonzero"/><path fill="#000000" fill-opacity="0.0" d="m6.3188977 38.658794l183.3071 0l0 59.212597l-183.3071 0z" fill-rule="evenodd"/><path fill="#000000" d="m18.772022 60.458794l0 -8.421875l-3.140625 0l0 -1.125l7.5625 0l0 1.125l-3.15625 0l0 8.421875l-1.265625 0zm5.0528107 0l0 -6.90625l1.0625 0l0 1.046875q0.40625 -0.734375 0.734375 -0.96875q0.34375 -0.234375 0.765625 -0.234375q0.59375 0 1.203125 0.375l-0.40625 1.078125q-0.4375 -0.25 -0.859375 -0.25q-0.390625 0 -0.703125 0.234375q-0.296875 0.234375 -0.421875 0.640625q-0.203125 0.625 -0.203125 1.359375l0 3.625l-1.171875 0zm8.96962 -0.859375q-0.65625 0.5625 -1.265625 0.796875q-0.59375 0.21875 -1.28125 0.21875q-1.140625 0 -1.75 -0.546875q-0.609375 -0.5625 -0.609375 -1.4375q0 -0.5 0.21875 -0.921875q0.234375 -0.421875 0.609375 -0.671875q0.375 -0.25 0.84375 -0.390625q0.34375 -0.078125 1.046875 -0.171875q1.421875 -0.171875 2.09375 -0.40625q0 -0.234375 0 -0.296875q0 -0.71875 -0.328125 -1.015625q-0.453125 -0.390625 -1.34375 -0.390625q-0.8125 0 -1.21875 0.296875q-0.390625 0.28125 -0.578125 1.015625l-1.140625 -0.15625q0.15625 -0.734375 0.515625 -1.1875q0.359375 -0.453125 1.03125 -0.6875q0.671875 -0.25 1.5625 -0.25q0.890625 0 1.4375 0.203125q0.5625 0.203125 0.8125 0.53125q0.265625 0.3125 0.375 0.796875q0.046875 0.296875 0.046875 1.078125l0 1.5625q0 1.625 0.078125 2.0625q0.078125 0.4375 0.296875 0.828125l-1.21875 0q-0.1875 -0.359375 -0.234375 -0.859375zm-0.09375 -2.609375q-0.640625 0.265625 -1.921875 0.4375q-0.71875 0.109375 -1.015625 0.25q-0.296875 0.125 -0.46875 0.375q-0.15625 0.25 -0.15625 0.546875q0 0.46875 0.34375 0.78125q0.359375 0.3125 1.046875 0.3125q0.671875 0 1.203125 -0.296875q0.53125 -0.296875 0.78125 -0.8125q0.1875 -0.390625 0.1875 -1.171875l0 -0.421875zm3.0062256 -4.71875l0 -1.359375l1.171875 0l0 1.359375l-1.171875 0zm0 8.1875l0 -6.90625l1.171875 0l0 6.90625l-1.171875 0zm2.945465 0l0 -6.90625l1.0625 0l0 0.984375q0.75 -1.140625 2.1875 -1.140625q0.625 0 1.15625 0.21875q0.53125 0.21875 0.78125 0.59375q0.265625 0.359375 0.375 0.859375q0.0625 0.328125 0.0625 1.140625l0 4.25l-1.171875 0l0 -4.203125q0 -0.71875 -0.140625 -1.0625q-0.140625 -0.359375 -0.484375 -0.5625q-0.34375 -0.21875 -0.8125 -0.21875q-0.75 0 -1.296875 0.46875q-0.546875 0.46875 -0.546875 1.796875l0 3.78125l-1.171875 0zm10.677963 -3.453125q0 -1.921875 1.078125 -2.84375q0.890625 -0.765625 2.171875 -0.765625q1.421875 0 2.328125 0.9375q0.90625 0.921875 0.90625 2.578125q0 1.328125 -0.40625 2.09375q-0.390625 0.765625 -1.15625 1.1875q-0.765625 0.421875 -1.671875 0.421875q-1.453125 0 -2.359375 -0.921875q-0.890625 -0.9375 -0.890625 -2.6875zm1.203125 0q0 1.328125 0.578125 1.984375q0.59375 0.65625 1.46875 0.65625q0.875 0 1.453125 -0.65625q0.578125 -0.671875 0.578125 -2.03125q0 -1.28125 -0.59375 -1.9375q-0.578125 -0.65625 -1.4375 -0.65625q-0.875 0 -1.46875 0.65625q-0.578125 0.65625 -0.578125 1.984375zm6.6468506 3.453125l0 -6.90625l1.0625 0l0 0.984375q0.75 -1.140625 2.1875 -1.140625q0.625 0 1.15625 0.21875q0.53125 0.21875 0.78125 0.59375q0.265625 0.359375 0.375 0.859375q0.0625 0.328125 0.0625 1.140625l0 4.25l-1.171875 0l0 -4.203125q0 -0.71875 -0.140625 -1.0625q-0.140625 -0.359375 -0.484375 -0.5625q-0.34375 -0.21875 -0.8125 -0.21875q-0.75 0 -1.296875 0.46875q-0.546875 0.46875 -0.546875 1.796875l0 3.78125l-1.171875 0zm12.193592 0l-1.078125 0l0 -9.546875l1.171875 0l0 3.40625q0.734375 -0.921875 1.890625 -0.921875q0.640625 0 1.203125 0.265625q0.578125 0.25 0.9375 0.71875q0.375 0.453125 0.578125 1.109375q0.203125 0.65625 0.203125 1.40625q0 1.78125 -0.875 2.75q-0.875 0.96875 -2.109375 0.96875q-1.21875 0 -1.921875 -1.015625l0 0.859375zm0 -3.5q0 1.234375 0.328125 1.78125q0.5625 0.90625 1.5 0.90625q0.765625 0 1.328125 -0.65625q0.5625 -0.671875 0.5625 -2.0q0 -1.34375 -0.546875 -1.984375q-0.53125 -0.65625 -1.296875 -0.65625q-0.765625 0 -1.328125 0.671875q-0.546875 0.671875 -0.546875 1.9375zm10.849976 2.640625q-0.65625 0.5625 -1.265625 0.796875q-0.59375 0.21875 -1.28125 0.21875q-1.140625 0 -1.75 -0.546875q-0.609375 -0.5625 -0.609375 -1.4375q0 -0.5 0.21875 -0.921875q0.234375 -0.421875 0.609375 -0.671875q0.375 -0.25 0.84375 -0.390625q0.34375 -0.078125 1.046875 -0.171875q1.421875 -0.171875 2.09375 -0.40625q0 -0.234375 0 -0.296875q0 -0.71875 -0.328125 -1.015625q-0.453125 -0.390625 -1.34375 -0.390625q-0.8125 0 -1.21875 0.296875q-0.390625 0.28125 -0.578125 1.015625l-1.140625 -0.15625q0.15625 -0.734375 0.515625 -1.1875q0.359375 -0.453125 1.03125 -0.6875q0.671875 -0.25 1.5625 -0.25q0.890625 0 1.4375 0.203125q0.5625 0.203125 0.8125 0.53125q0.265625 0.3125 0.375 0.796875q0.046875 0.296875 0.046875 1.078125l0 1.5625q0 1.625 0.078125 2.0625q0.078125 0.4375 0.296875 0.828125l-1.21875 0q-0.1875 -0.359375 -0.234375 -0.859375zm-0.09375 -2.609375q-0.640625 0.265625 -1.921875 0.4375q-0.71875 0.109375 -1.015625 0.25q-0.296875 0.125 -0.46875 0.375q-0.15625 0.25 -0.15625 0.546875q0 0.46875 0.34375 0.78125q0.359375 0.3125 1.046875 0.3125q0.671875 0 1.203125 -0.296875q0.53125 -0.296875 0.78125 -0.8125q0.1875 -0.390625 0.1875 -1.171875l0 -0.421875zm5.5531006 2.421875l0.171875 1.03125q-0.5 0.109375 -0.890625 0.109375q-0.640625 0 -1.0 -0.203125q-0.34375 -0.203125 -0.484375 -0.53125q-0.140625 -0.328125 -0.140625 -1.390625l0 -3.96875l-0.859375 0l0 -0.90625l0.859375 0l0 -1.71875l1.171875 -0.703125l0 2.421875l1.171875 0l0 0.90625l-1.171875 0l0 4.046875q0 0.5 0.046875 0.640625q0.0625 0.140625 0.203125 0.234375q0.140625 0.078125 0.40625 0.078125q0.203125 0 0.515625 -0.046875zm5.6561127 -1.484375l1.15625 0.15625q-0.1875 1.1875 -0.96875 1.859375q-0.78125 0.671875 -1.921875 0.671875q-1.40625 0 -2.28125 -0.921875q-0.859375 -0.9375 -0.859375 -2.65625q0 -1.125 0.375 -1.96875q0.375 -0.84375 1.125 -1.25q0.765625 -0.421875 1.65625 -0.421875q1.125 0 1.84375 0.578125q0.71875 0.5625 0.921875 1.609375l-1.140625 0.171875q-0.171875 -0.703125 -0.59375 -1.046875q-0.40625 -0.359375 -0.984375 -0.359375q-0.890625 0 -1.453125 0.640625q-0.546875 0.640625 -0.546875 2.0q0 1.40625 0.53125 2.03125q0.546875 0.625 1.40625 0.625q0.6875 0 1.140625 -0.421875q0.46875 -0.421875 0.59375 -1.296875zm2.1484375 2.53125l0 -9.546875l1.171875 0l0 3.421875q0.828125 -0.9375 2.078125 -0.9375q0.765625 0 1.328125 0.296875q0.5625 0.296875 0.8125 0.84375q0.25 0.53125 0.25 1.546875l0 4.375l-1.171875 0l0 -4.375q0 -0.890625 -0.390625 -1.28125q-0.375 -0.40625 -1.078125 -0.40625q-0.515625 0 -0.984375 0.28125q-0.453125 0.265625 -0.65625 0.734375q-0.1875 0.453125 -0.1875 1.265625l0 3.78125l-1.171875 0zm12.146851 -2.21875l1.203125 0.140625q-0.28125 1.0625 -1.0625 1.65625q-0.765625 0.578125 -1.96875 0.578125q-1.515625 0 -2.40625 -0.9375q-0.890625 -0.9375 -0.890625 -2.609375q0 -1.75 0.890625 -2.703125q0.90625 -0.96875 2.34375 -0.96875q1.390625 0 2.265625 0.9375q0.875 0.9375 0.875 2.65625q0 0.109375 0 0.3125l-5.15625 0q0.0625 1.140625 0.640625 1.75q0.578125 0.59375 1.4375 0.59375q0.65625 0 1.109375 -0.328125q0.453125 -0.34375 0.71875 -1.078125zm-3.84375 -1.90625l3.859375 0q-0.078125 -0.859375 -0.4375 -1.296875q-0.5625 -0.6875 -1.453125 -0.6875q-0.8125 0 -1.359375 0.546875q-0.546875 0.53125 -0.609375 1.4375zm6.0531006 2.0625l1.15625 -0.1875q0.109375 0.703125 0.546875 1.078125q0.453125 0.359375 1.25 0.359375q0.8125 0 1.203125 -0.328125q0.390625 -0.328125 0.390625 -0.765625q0 -0.390625 -0.359375 -0.625q-0.234375 -0.15625 -1.1875 -0.390625q-1.296875 -0.328125 -1.796875 -0.5625q-0.484375 -0.25 -0.75 -0.65625q-0.25 -0.421875 -0.25 -0.9375q0 -0.453125 0.203125 -0.84375q0.21875 -0.40625 0.578125 -0.671875q0.28125 -0.1875 0.75 -0.328125q0.46875 -0.140625 1.015625 -0.140625q0.8125 0 1.421875 0.234375q0.609375 0.234375 0.90625 0.640625q0.296875 0.390625 0.40625 1.0625l-1.140625 0.15625q-0.078125 -0.53125 -0.453125 -0.828125q-0.375 -0.3125 -1.0625 -0.3125q-0.8125 0 -1.15625 0.265625q-0.34375 0.265625 -0.34375 0.625q0 0.234375 0.140625 0.421875q0.15625 0.1875 0.453125 0.3125q0.171875 0.0625 1.03125 0.296875q1.25 0.328125 1.734375 0.546875q0.5 0.203125 0.78125 0.609375q0.28125 0.40625 0.28125 1.0q0 0.59375 -0.34375 1.109375q-0.34375 0.515625 -1.0 0.796875q-0.640625 0.28125 -1.453125 0.28125q-1.34375 0 -2.046875 -0.5625q-0.703125 -0.5625 -0.90625 -1.65625zm10.3983 -1.390625q0 -1.921875 1.078125 -2.84375q0.890625 -0.765625 2.171875 -0.765625q1.421875 0 2.328125 0.9375q0.90625 0.921875 0.90625 2.578125q0 1.328125 -0.40625 2.09375q-0.390625 0.765625 -1.15625 1.1875q-0.765625 0.421875 -1.671875 0.421875q-1.453125 0 -2.359375 -0.921875q-0.890625 -0.9375 -0.890625 -2.6875zm1.203125 0q0 1.328125 0.578125 1.984375q0.59375 0.65625 1.46875 0.65625q0.875 0 1.453125 -0.65625q0.578125 -0.671875 0.578125 -2.03125q0 -1.28125 -0.59375 -1.9375q-0.578125 -0.65625 -1.4375 -0.65625q-0.875 0 -1.46875 0.65625q-0.578125 0.65625 -0.578125 1.984375zm6.9281006 3.453125l0 -6.0l-1.03125 0l0 -0.90625l1.03125 0l0 -0.734375q0 -0.703125 0.125 -1.046875q0.171875 -0.453125 0.59375 -0.734375q0.421875 -0.28125 1.2031174 -0.28125q0.484375 0 1.09375 0.109375l-0.1875 1.03125q-0.359375 -0.0625 -0.6875 -0.0625q-0.5312424 0 -0.7499924 0.234375q-0.21875 0.21875 -0.21875 0.84375l0 0.640625l1.3437424 0l0 0.90625l-1.3437424 0l0 6.0l-1.171875 0zm6.6559677 -2.0625l1.15625 -0.1875q0.109375 0.703125 0.546875 1.078125q0.453125 0.359375 1.25 0.359375q0.8125 0 1.203125 -0.328125q0.390625 -0.328125 0.390625 -0.765625q0 -0.390625 -0.359375 -0.625q-0.234375 -0.15625 -1.1875 -0.390625q-1.296875 -0.328125 -1.796875 -0.5625q-0.484375 -0.25 -0.75 -0.65625q-0.25 -0.421875 -0.25 -0.9375q0 -0.453125 0.203125 -0.84375q0.21875 -0.40625 0.578125 -0.671875q0.28125 -0.1875 0.75 -0.328125q0.46875 -0.140625 1.015625 -0.140625q0.8125 0 1.421875 0.234375q0.609375 0.234375 0.90625 0.640625q0.296875 0.390625 0.40625 1.0625l-1.140625 0.15625q-0.078125 -0.53125 -0.453125 -0.828125q-0.375 -0.3125 -1.0625 -0.3125q-0.8125 0 -1.15625 0.265625q-0.34375 0.265625 -0.34375 0.625q0 0.234375 0.140625 0.421875q0.15625 0.1875 0.453125 0.3125q0.171875 0.0625 1.03125 0.296875q1.25 0.328125 1.734375 0.546875q0.5 0.203125 0.78125 0.609375q0.28125 0.40625 0.28125 1.0q0 0.59375 -0.34375 1.109375q-0.34375 0.515625 -1.0 0.796875q-0.640625 0.28125 -1.453125 0.28125q-1.34375 0 -2.046875 -0.5625q-0.703125 -0.5625 -0.90625 -1.65625zm7.1484375 -6.125l0 -1.359375l1.171875 0l0 1.359375l-1.171875 0zm0 8.1875l0 -6.90625l1.171875 0l0 6.90625l-1.171875 0zm2.33609 0l0 -0.953125l4.390625 -5.046875q-0.75 0.03125 -1.3125 0.03125l-2.828125 0l0 -0.9375l5.65625 0l0 0.765625l-3.75 4.390625l-0.71875 0.796875q0.796875 -0.0625 1.484375 -0.0625l3.1875 0l0 1.015625l-6.109375 0zm12.0078125 -2.21875l1.203125 0.140625q-0.28125 1.0625 -1.0625 1.65625q-0.765625 0.578125 -1.96875 0.578125q-1.515625 0 -2.40625 -0.9375q-0.890625 -0.9375 -0.890625 -2.609375q0 -1.75 0.890625 -2.703125q0.90625 -0.96875 2.34375 -0.96875q1.390625 0 2.265625 0.9375q0.875 0.9375 0.875 2.65625q0 0.109375 0 0.3125l-5.15625 0q0.0625 1.140625 0.640625 1.75q0.578125 0.59375 1.4375 0.59375q0.65625 0 1.109375 -0.328125q0.453125 -0.34375 0.71875 -1.078125zm-3.84375 -1.90625l3.859375 0q-0.078125 -0.859375 -0.4375 -1.296875q-0.5625 -0.6875 -1.453125 -0.6875q-0.8125 0 -1.359375 0.546875q-0.546875 0.53125 -0.609375 1.4375z" fill-rule="nonzero"/><path fill="#000000" d="m18.522022 75.50567l-0.203125 0.953125q-0.421875 0.109375 -0.8125 0.109375q-0.703125 0 -1.125 -0.34375q-0.3125 -0.25 -0.3125 -0.703125q0 -0.234375 0.171875 -1.046875l0.828125 -4.015625l-0.921875 0l0.1875 -0.90625l0.9375 0l0.34375 -1.703125l1.359375 -0.8125l-0.53125 2.515625l1.15625 0l-0.1875 0.90625l-1.15625 0l-0.796875 3.8125q-0.15625 0.734375 -0.15625 0.875q0 0.21875 0.109375 0.328125q0.125 0.109375 0.40625 0.109375q0.390625 0 0.703125 -0.078125zm0.9373627 0.953125l1.453125 -6.90625l1.03125 0l-0.28125 1.40625q0.53125 -0.796875 1.03125 -1.171875q0.515625 -0.390625 1.046875 -0.390625q0.359375 0 0.875 0.25l-0.484375 1.09375q-0.3125 -0.21875 -0.671875 -0.21875q-0.625 0 -1.28125 0.6875q-0.640625 0.6875 -1.015625 2.484375l-0.578125 2.765625l-1.125 0zm9.110245 -0.859375q-0.625 0.53125 -1.1875 0.78125q-0.5625 0.234375 -1.203125 0.234375q-0.96875 0 -1.5625 -0.5625q-0.578125 -0.5625 -0.578125 -1.4375q0 -0.578125 0.265625 -1.015625q0.265625 -0.453125 0.703125 -0.71875q0.4375 -0.28125 1.0625 -0.390625q0.40625 -0.078125 1.515625 -0.125q1.109375 -0.046875 1.59375 -0.234375q0.125 -0.484375 0.125 -0.8125q0 -0.40625 -0.296875 -0.640625q-0.40625 -0.328125 -1.1875 -0.328125q-0.75 0 -1.21875 0.328125q-0.46875 0.328125 -0.6875 0.9375l-1.1875 -0.109375q0.359375 -1.015625 1.140625 -1.5625q0.796875 -0.546875 2.0 -0.546875q1.28125 0 2.03125 0.609375q0.578125 0.453125 0.578125 1.1875q0 0.546875 -0.15625 1.28125l-0.390625 1.71875q-0.1875 0.8125 -0.1875 1.328125q0 0.328125 0.15625 0.9375l-1.203125 0q-0.09375 -0.34375 -0.125 -0.859375zm0.421875 -2.640625q-0.234375 0.09375 -0.53125 0.15625q-0.28125 0.046875 -0.9375 0.109375q-1.03125 0.078125 -1.453125 0.21875q-0.421875 0.140625 -0.640625 0.453125q-0.21875 0.296875 -0.21875 0.671875q0 0.5 0.34375 0.828125q0.34375 0.3125 0.984375 0.3125q0.578125 0 1.109375 -0.3125q0.546875 -0.3125 0.859375 -0.859375q0.3125 -0.5625 0.484375 -1.578125zm3.9906006 -4.703125l0.28125 -1.34375l1.171875 0l-0.28125 1.34375l-1.171875 0zm-1.71875 8.203125l1.453125 -6.90625l1.171875 0l-1.4375 6.90625l-1.1875 0zm3.007965 0l1.453125 -6.90625l1.0625 0l-0.25 1.203125q0.6875 -0.71875 1.296875 -1.03125q0.609375 -0.328125 1.234375 -0.328125q0.84375 0 1.3125 0.453125q0.484375 0.453125 0.484375 1.21875q0 0.375 -0.171875 1.203125l-0.875 4.1875l-1.171875 0l0.921875 -4.375q0.125 -0.640625 0.125 -0.953125q0 -0.34375 -0.234375 -0.546875q-0.234375 -0.21875 -0.6875 -0.21875q-0.90625 0 -1.609375 0.65625q-0.703125 0.640625 -1.03125 2.21875l-0.671875 3.21875l-1.1875 0zm6.1312256 2.65625l0 -0.859375l7.765625 0l0 0.859375l-7.765625 0zm8.693726 -2.65625l2.0 -9.546875l1.171875 0l-0.703125 3.421875q0.5625 -0.515625 1.015625 -0.71875q0.453125 -0.21875 0.953125 -0.21875q0.96875 0 1.609375 0.71875q0.640625 0.71875 0.640625 2.09375q0 0.921875 -0.265625 1.6875q-0.25 0.765625 -0.640625 1.28125q-0.375 0.515625 -0.78125 0.828125q-0.40625 0.296875 -0.84375 0.453125q-0.421875 0.15625 -0.828125 0.15625q-0.6875 0 -1.203125 -0.359375q-0.515625 -0.359375 -0.8125 -1.109375l-0.265625 1.3125l-1.046875 0zm1.75 -2.84375l0 0.234375q0 0.875 0.421875 1.34375q0.421875 0.453125 1.046875 0.453125q0.625 0 1.140625 -0.421875q0.515625 -0.4375 0.84375 -1.34375q0.328125 -0.921875 0.328125 -1.703125q0 -0.875 -0.421875 -1.359375q-0.40625 -0.484375 -1.03125 -0.484375q-0.640625 0 -1.171875 0.5q-0.53125 0.484375 -0.890625 1.515625q-0.265625 0.765625 -0.265625 1.265625zm10.334351 1.984375q-0.625 0.53125 -1.1875 0.78125q-0.5625 0.234375 -1.203125 0.234375q-0.96875 0 -1.5625 -0.5625q-0.578125 -0.5625 -0.578125 -1.4375q0 -0.578125 0.265625 -1.015625q0.265625 -0.453125 0.703125 -0.71875q0.4375 -0.28125 1.0625 -0.390625q0.40625 -0.078125 1.515625 -0.125q1.109375 -0.046875 1.59375 -0.234375q0.125 -0.484375 0.125 -0.8125q0 -0.40625 -0.296875 -0.640625q-0.40625 -0.328125 -1.1875 -0.328125q-0.75 0 -1.21875 0.328125q-0.46875 0.328125 -0.6875 0.9375l-1.1875 -0.109375q0.359375 -1.015625 1.140625 -1.5625q0.796875 -0.546875 2.0 -0.546875q1.28125 0 2.03125 0.609375q0.578125 0.453125 0.578125 1.1875q0 0.546875 -0.15625 1.28125l-0.390625 1.71875q-0.1875 0.8125 -0.1875 1.328125q0 0.328125 0.15625 0.9375l-1.203125 0q-0.09375 -0.34375 -0.125 -0.859375zm0.421875 -2.640625q-0.234375 0.09375 -0.53125 0.15625q-0.28125 0.046875 -0.9375 0.109375q-1.03125 0.078125 -1.453125 0.21875q-0.421875 0.140625 -0.640625 0.453125q-0.21875 0.296875 -0.21875 0.671875q0 0.5 0.34375 0.828125q0.34375 0.3125 0.984375 0.3125q0.578125 0 1.109375 -0.3125q0.546875 -0.3125 0.859375 -0.859375q0.3125 -0.5625 0.484375 -1.578125zm5.0843544 2.546875l-0.203125 0.953125q-0.421875 0.109375 -0.8125 0.109375q-0.703125 0 -1.125 -0.34375q-0.3125 -0.25 -0.3125 -0.703125q0 -0.234375 0.171875 -1.046875l0.828125 -4.015625l-0.921875 0l0.1875 -0.90625l0.9375 0l0.34375 -1.703125l1.359375 -0.8125l-0.53125 2.515625l1.15625 0l-0.1875 0.90625l-1.15625 0l-0.796875 3.8125q-0.15625 0.734375 -0.15625 0.875q0 0.21875 0.109375 0.328125q0.125 0.109375 0.40625 0.109375q0.390625 0 0.703125 -0.078125zm5.7186127 -1.5625l1.171875 0.125q-0.4375 1.296875 -1.265625 1.921875q-0.8125 0.625 -1.84375 0.625q-1.140625 0 -1.84375 -0.71875q-0.6875 -0.734375 -0.6875 -2.046875q0 -1.125 0.4375 -2.21875q0.453125 -1.09375 1.28125 -1.65625q0.84375 -0.578125 1.921875 -0.578125q1.109375 0 1.765625 0.625q0.65625 0.625 0.65625 1.65625l-1.15625 0.078125q-0.015625 -0.65625 -0.390625 -1.015625q-0.375 -0.375 -0.984375 -0.375q-0.703125 0 -1.234375 0.453125q-0.515625 0.4375 -0.8125 1.359375q-0.296875 0.90625 -0.296875 1.75q0 0.890625 0.390625 1.34375q0.390625 0.4375 0.96875 0.4375q0.5625 0 1.078125 -0.4375q0.53125 -0.4375 0.84375 -1.328125zm1.8828125 2.515625l2.0 -9.546875l1.171875 0l-0.765625 3.671875q0.65625 -0.640625 1.21875 -0.90625q0.578125 -0.28125 1.171875 -0.28125q0.859375 0 1.328125 0.453125q0.484375 0.453125 0.484375 1.1875q0 0.359375 -0.203125 1.34375l-0.859375 4.078125l-1.171875 0l0.875 -4.1875q0.1875 -0.90625 0.1875 -1.140625q0 -0.34375 -0.234375 -0.546875q-0.234375 -0.21875 -0.671875 -0.21875q-0.640625 0 -1.21875 0.34375q-0.578125 0.328125 -0.90625 0.90625q-0.328125 0.578125 -0.609375 1.875l-0.609375 2.96875l-1.1875 0zm6.1312256 2.65625l0 -0.859375l7.765625 0l0 0.859375l-7.765625 0zm8.803101 -5.015625l1.1875 -0.078125q0 0.515625 0.15625 0.875q0.15625 0.359375 0.578125 0.59375q0.421875 0.21875 0.96875 0.21875q0.78125 0 1.171875 -0.3125q0.390625 -0.3125 0.390625 -0.734375q0 -0.3125 -0.234375 -0.578125q-0.234375 -0.28125 -1.171875 -0.671875q-0.9375 -0.40625 -1.1875 -0.578125q-0.4375 -0.265625 -0.671875 -0.625q-0.21875 -0.359375 -0.21875 -0.828125q0 -0.8125 0.65625 -1.390625q0.65625 -0.59375 1.828125 -0.59375q1.296875 0 1.96875 0.609375q0.6875 0.59375 0.71875 1.578125l-1.15625 0.078125q-0.03125 -0.625 -0.453125 -0.984375q-0.40625 -0.375 -1.171875 -0.375q-0.609375 0 -0.953125 0.28125q-0.328125 0.28125 -0.328125 0.609375q0 0.3125 0.296875 0.5625q0.1875 0.171875 1.0 0.53125q1.359375 0.578125 1.703125 0.921875q0.5625 0.53125 0.5625 1.3125q0 0.515625 -0.3125 1.015625q-0.3125 0.484375 -0.96875 0.78125q-0.640625 0.296875 -1.515625 0.296875q-1.203125 0 -2.046875 -0.59375q-0.84375 -0.59375 -0.796875 -1.921875zm8.2265625 -5.84375l0.28125 -1.34375l1.171875 0l-0.28125 1.34375l-1.171875 0zm-1.71875 8.203125l1.453125 -6.90625l1.171875 0l-1.4375 6.90625l-1.1875 0zm2.83609 0l0.1875 -0.90625l3.71875 -4.1875q0.390625 -0.4375 0.875 -0.921875q-0.84375 0.09375 -1.203125 0.09375l-2.5625 0l0.203125 -0.984375l5.34375 0l-0.15625 0.734375l-3.75 4.21875q-0.3125 0.359375 -0.953125 0.984375q0.984375 -0.0625 1.34375 -0.0625l2.734375 0l-0.21875 1.03125l-5.5625 0zm11.9140625 -2.34375l1.15625 0.109375q-0.25 0.859375 -1.140625 1.625q-0.890625 0.765625 -2.125 0.765625q-0.765625 0 -1.40625 -0.34375q-0.640625 -0.359375 -0.984375 -1.03125q-0.328125 -0.6875 -0.328125 -1.546875q0 -1.140625 0.515625 -2.203125q0.53125 -1.0625 1.359375 -1.578125q0.84375 -0.515625 1.8125 -0.515625q1.234375 0 1.96875 0.765625q0.75 0.765625 0.75 2.09375q0 0.5 -0.09375 1.046875l-5.09375 0q-0.03125 0.1875 -0.03125 0.359375q0 0.96875 0.4375 1.484375q0.453125 0.5 1.109375 0.5q0.59375 0 1.171875 -0.390625q0.59375 -0.390625 0.921875 -1.140625zm-3.421875 -1.71875l3.875 0q0.015625 -0.1875 0.015625 -0.265625q0 -0.875 -0.453125 -1.34375q-0.4375 -0.484375 -1.125 -0.484375q-0.765625 0 -1.390625 0.53125q-0.609375 0.515625 -0.921875 1.5625z" fill-rule="nonzero"/></g></svg>