<svg version="1.1" xmlns="http://www.w3.org/2000/svg" viewBox="0 0 776.2581568397767 244" width="1552.5163136795534" height="488">
  <!-- svg-source:excalidraw -->
  
  <defs>
    <style class="style-fonts">
      @font-face {
        font-family: "Virgil";
        src: url("https://excalidraw.com/Virgil.woff2");
      }
      @font-face {
        font-family: "Cascadia";
        src: url("https://excalidraw.com/Cascadia.woff2");
      }
    </style>
  </defs>
  <rect x="0" y="0" width="776.2581568397767" height="244" fill="#ffffff"></rect><g stroke-linecap="round" transform="translate(193.09986435154178 120.02567877314283) rotate(0 76.5 44.99999999999997)"><path d="M1.31 2.33 C53.16 -4.53, 112.98 -1.18, 153.76 -2.94 M-0.56 -1.78 C34 0.44, 67.97 0, 152.85 1.74 M149.94 2.02 C155.51 27.97, 150.81 57.21, 152.48 88.31 M154.83 -1.35 C155.23 22.39, 154.16 43.96, 152.05 90.53 M154.1 88.88 C110.73 91.42, 77.05 93.02, 1.78 92.87 M153.57 90.27 C100.73 91.7, 49.38 94.14, 1.85 90.35 M0.1 90.11 C2.25 69.54, -3.31 44.23, -2.83 0.57 M-0.71 89.5 C-0.12 60.16, 0.47 28.63, -1.27 1.33" stroke="#000000" stroke-width="1" fill="none"></path></g><g transform="translate(210.50991379001835 152.52567877314283) rotate(0 59.08995056152344 12.5)"><text x="59.08995056152344" y="0" font-family="Virgil, Segoe UI Emoji" font-size="20px" fill="#000000" text-anchor="middle" style="white-space: pre;" direction="ltr" dominant-baseline="text-before-edge">PPOCatalog</text></g><g stroke-linecap="round" transform="translate(366.2581568397768 10) rotate(0 199.99999999999994 112)"><path d="M-0.91 -0.43 C113.69 0.69, 232.35 0.56, 400.04 1.79 M-0.86 0.04 C80.2 -1.56, 161.6 -0.64, 401.06 0.59 M397.51 3.12 C402.49 57.85, 400.53 111.36, 400.63 222.09 M401.29 0.59 C399.3 78.94, 399.37 158.38, 400.4 225.69 M398.35 223.17 C272.64 223.86, 142.05 224.53, 2.09 224.31 M400.65 224.45 C258.51 225.86, 114.57 226.1, -0.96 223.45 M2.49 220.56 C-0.05 136.65, 0.62 54.02, 0.17 1.68 M-1.18 224.31 C1.73 141.32, -0.27 61.83, 1.1 1.21" stroke="#000000" stroke-width="1" fill="none"></path></g><g transform="translate(500.3382120765932 15) rotate(0 65.91994476318354 12.5)"><text x="65.9199447631836" y="0" font-family="Virgil, Segoe UI Emoji" font-size="20px" fill="#000000" text-anchor="middle" style="white-space: pre;" direction="ltr" dominant-baseline="text-before-edge">PPORLModule</text></g><g stroke-linecap="round" transform="translate(393.76985852934683 48.789404752324344) rotate(0 96.5 30)"><path d="M-3.29 2.57 C77.61 -2.93, 155 -2.36, 191.75 -0.95 M-1.52 -0.82 C61.88 -1.44, 123.07 -3.04, 193.31 -0.83 M192.54 -3.15 C193.13 14.06, 190.55 36.2, 189.59 60.96 M192.57 0.92 C194.07 24.32, 194.14 48.08, 194.59 60.27 M194.87 63.73 C127.74 65.61, 69.89 61.77, -2.28 58.83 M193.61 58.56 C135.02 60.44, 81.67 59.47, -1.23 60.29 M3.77 56.25 C2.4 35.45, -4.64 16.91, 1.95 3.13 M1.79 58.8 C-1.63 37.91, 0.61 17.47, -1.76 1.7" stroke="#000000" stroke-width="1" fill="none"></path></g><g transform="translate(428.71990888335074 53.789404752324344) rotate(0 61.549949645996094 25)"><text x="61.549949645996094" y="0" font-family="Virgil, Segoe UI Emoji" font-size="20px" fill="#000000" text-anchor="middle" style="white-space: pre;" direction="ltr" dominant-baseline="text-before-edge">actor critic </text><text x="61.549949645996094" y="25" font-family="Virgil, Segoe UI Emoji" font-size="20px" fill="#000000" text-anchor="middle" style="white-space: pre;" direction="ltr" dominant-baseline="text-before-edge">encoder</text></g><g stroke-linecap="round" transform="translate(601.8319550556927 50.0076481774102) rotate(0 78 30.5)"><path d="M-1.09 0.14 C35.38 -1.59, 82.31 3.73, 158.77 -1.43 M-1.65 -0.22 C54.35 -1.6, 109.83 1.54, 157.39 -0.26 M152.5 -0.28 C158.83 15.39, 156.19 28.29, 158.39 64.69 M154.71 -0.8 C155.14 17.63, 155.34 36.78, 154.96 59.33 M154.27 57.98 C118.66 63.62, 78.14 64.81, 2.67 58.91 M156.19 62.28 C114.07 56.8, 73.21 59.55, -0.58 59.45 M-1.91 58.9 C3.21 36.62, -1.7 15.57, 0.68 -2.84 M-0.77 62.13 C2.02 44.06, 1.79 31.22, -0.39 0.7" stroke="#000000" stroke-width="1" fill="none"></path></g><g transform="translate(627.0620041889935 68.0076481774102) rotate(0 52.76995086669922 12.5)"><text x="52.76995086669922" y="0" font-family="Virgil, Segoe UI Emoji" font-size="20px" fill="#000000" text-anchor="middle" style="white-space: pre;" direction="ltr" dominant-baseline="text-before-edge">policy head</text></g><g stroke-linecap="round"><g transform="translate(351.09103452263616 124.93793017165456) rotate(0 22.327492660586472 -10.461785273441023)"><path d="M-3.2 -0.88 C18.71 -4.94, 36.13 -14.7, 45.48 -20.04 M-0.72 -1.96 C9.51 -2.24, 17.83 -7.44, 47.85 -18.25" stroke="#000000" stroke-width="1" fill="none"></path></g><g transform="translate(351.09103452263616 124.93793017165456) rotate(0 22.327492660586472 -10.461785273441023)"><path d="M25.98 -3.08 C37.16 -7.39, 43.83 -16.93, 46.97 -21.65 M28.46 -4.15 C32.84 -4.3, 35.32 -9.38, 49.34 -19.86" stroke="#000000" stroke-width="1" fill="none"></path></g><g transform="translate(351.09103452263616 124.93793017165456) rotate(0 22.327492660586472 -10.461785273441023)"><path d="M20.03 -18.84 C33.63 -16.93, 42.62 -20.35, 46.97 -21.65 M22.5 -19.91 C28.25 -16.73, 31.99 -18.48, 49.34 -19.86" stroke="#000000" stroke-width="1" fill="none"></path></g></g><mask></mask><g stroke-linecap="round"><g transform="translate(346.8020082808623 147.60947249604948) rotate(0 141.47019390638417 -18.27381312160381)"><path d="M-1.03 -2.89 C49.28 -3.99, 92.11 -12.13, 152.84 -22.68 M0.23 -1.19 C34.45 -6.22, 70.73 -10.19, 155.57 -19.48 M154.87 -19.24 C191.04 -23.19, 233.34 -26.25, 283.97 -34.93 M154.79 -19.94 C203.44 -21.8, 247.18 -26.8, 283.19 -35.36" stroke="#000000" stroke-width="1" fill="none"></path></g><g transform="translate(346.8020082808623 147.60947249604948) rotate(0 141.47019390638417 -18.27381312160381)"><path d="M256.47 -22.76 C266.67 -24.58, 269.36 -31.57, 279.95 -38.83 M257.73 -21.05 C261.58 -23.48, 267.46 -26.58, 282.68 -35.64" stroke="#000000" stroke-width="1" fill="none"></path></g><g transform="translate(346.8020082808623 147.60947249604948) rotate(0 141.47019390638417 -18.27381312160381)"><path d="M252.52 -42.89 C264.19 -38.46, 268.09 -39.25, 279.95 -38.83 M253.78 -41.19 C258.63 -38.97, 265.43 -37.39, 282.68 -35.64" stroke="#000000" stroke-width="1" fill="none"></path></g></g><mask></mask><g stroke-linecap="round" transform="translate(10 159.98845276485406) rotate(0 76 24.5)"><path d="M-3.49 -3.89 C38.51 4.34, 68.45 -0.04, 150.89 1.82 M-0.86 0.09 C41.91 2.29, 86.41 -0.71, 150.46 -0.7 M149.65 3.09 C152.42 12.86, 152.16 21.69, 151.36 50.89 M151.56 1.61 C153.91 19.01, 153.56 38.04, 151.04 47.32 M148.41 50.42 C95.73 49.39, 50.66 54.04, -1.96 51.99 M150.3 49.72 C107.61 50.7, 65.45 48.83, 0.76 49.13 M-3.77 52.72 C3.45 33.56, -0.68 20.36, 1.19 2.72 M-0.99 49.01 C1.49 35.43, -1.37 23.32, 1.32 -1.11" stroke="#000000" stroke-width="1" fill="none"></path></g><g transform="translate(37.43004608154297 171.98845276485406) rotate(0 48.56995391845703 12.5)"><text x="48.56995391845703" y="0" font-family="Virgil, Segoe UI Emoji" font-size="20px" fill="#000000" text-anchor="middle" style="white-space: pre;" direction="ltr" dominant-baseline="text-before-edge">obs space</text></g><g stroke-linecap="round" transform="translate(10.549824822198843 90.90202967828418) rotate(0 76 24.5)"><path d="M-3.74 2.94 C33.51 1.43, 62.61 0.44, 150.7 2.66 M0.99 0.73 C41.02 -2.68, 84.67 -2.81, 150.5 -1.17 M154.28 0.48 C153.45 6.89, 149.69 20.32, 154.49 45.28 M152.07 -0.03 C154.22 14.58, 152.43 26.63, 150.47 48.22 M155.23 48.74 C95.52 54.81, 34.67 52.82, -2.28 47.85 M153.61 47.67 C115.27 49.84, 77.78 48.15, 0.93 49.72 M-3.17 48.72 C1.49 41.74, -4.57 25.68, -1.89 2.58 M1.9 47.61 C1.32 32.9, 1.79 21.57, -1.75 0.98" stroke="#000000" stroke-width="1" fill="none"></path></g><g transform="translate(24.289876091730093 102.90202967828418) rotate(0 62.25994873046875 12.5)"><text x="62.25994873046875" y="0" font-family="Virgil, Segoe UI Emoji" font-size="20px" fill="#000000" text-anchor="middle" style="white-space: pre;" direction="ltr" dominant-baseline="text-before-edge">action space</text></g><g stroke-linecap="round"><g transform="translate(167.31697289064107 108.57499511744601) rotate(0 10.447052817992017 14.748155610857538)"><path d="M-3.99 -2.02 C3.35 12.6, 11.57 20.73, 24.88 30.2 M1.26 -1.87 C7.83 8.3, 12.1 14.95, 21.09 31.51" stroke="#000000" stroke-width="1" fill="none"></path></g><g transform="translate(167.31697289064107 108.57499511744601) rotate(0 10.447052817992017 14.748155610857538)"><path d="M2.76 17.01 C8.25 26.32, 14.28 29.5, 23.48 30.58 M7.8 17.15 C12.13 22.21, 14.38 24.01, 19.84 31.84" stroke="#000000" stroke-width="1" fill="none"></path></g><g transform="translate(167.31697289064107 108.57499511744601) rotate(0 10.447052817992017 14.748155610857538)"><path d="M14.23 10.63 C16.56 21.45, 19.54 26.33, 23.48 30.58 M19.27 10.77 C20.61 17.33, 19.83 20.81, 19.84 31.84" stroke="#000000" stroke-width="1" fill="none"></path></g></g><mask></mask><g stroke-linecap="round"><g transform="translate(166.10191575248382 191.2518191992233) rotate(0 10.558279260532345 -12.051926913653233)"><path d="M-0.62 -0.4 C5.47 -9.63, 16.03 -15.52, 16.21 -23.7 M0.02 -0.81 C4.7 -8.34, 11.33 -12.42, 21.73 -22.6" stroke="#000000" stroke-width="1" fill="none"></path></g><g transform="translate(166.10191575248382 191.2518191992233) rotate(0 10.558279260532345 -12.051926913653233)"><path d="M14.59 -9.87 C16.5 -15.79, 21.73 -19.29, 18.92 -24.32 M15.06 -10.17 C16.21 -14.83, 18.75 -17.06, 22.96 -23.51" stroke="#000000" stroke-width="1" fill="none"></path></g><g transform="translate(166.10191575248382 191.2518191992233) rotate(0 10.558279260532345 -12.051926913653233)"><path d="M7.78 -17.22 C11.71 -20.85, 19.07 -22.05, 18.92 -24.32 M8.25 -17.52 C11.48 -20.14, 15.99 -20.24, 22.96 -23.51" stroke="#000000" stroke-width="1" fill="none"></path></g></g><mask></mask><g stroke-linecap="round" transform="translate(389.0201399130707 156.2698789018824) rotate(0 81.033203125 30)"><path d="M-0.19 2.76 C50.87 0.1, 93.7 0.33, 164.67 -3.74 M-1.65 -0.97 C57.62 0.38, 110.87 -1.71, 162.67 -1.97 M165.38 0.12 C159.18 14.31, 163.56 32.07, 164.91 61.44 M161.39 -1.61 C162.29 18.63, 159.97 35.57, 163.95 60.46 M161.75 63.25 C109.24 66.18, 52.02 61.11, -2.66 61.14 M160.59 59.13 C102.78 56.82, 44.45 58.54, 0.11 60.63 M-1.03 63.04 C2.36 38.64, 2.02 19.08, 3.72 2.48 M0.08 59.92 C-2.5 36.93, -1.38 16.66, 1.11 -0.86" stroke="#000000" stroke-width="1" fill="none"></path></g><g transform="translate(396.0934049887543 161.2698789018824) rotate(0 73.9599380493164 25)"><text x="73.9599380493164" y="0" font-family="Virgil, Segoe UI Emoji" font-size="20px" fill="#000000" text-anchor="middle" style="white-space: pre;" direction="ltr" dominant-baseline="text-before-edge">value function </text><text x="73.9599380493164" y="25" font-family="Virgil, Segoe UI Emoji" font-size="20px" fill="#000000" text-anchor="middle" style="white-space: pre;" direction="ltr" dominant-baseline="text-before-edge">head</text></g><g stroke-linecap="round"><g transform="translate(348.96453799521123 164.1124139646298) rotate(0 19.451385292669556 9.295154421215898)"><path d="M3.82 -1.64 C13.12 10.01, 32.07 11.01, 36.13 20.23 M-1.14 1.14 C10.52 4.73, 22.49 11.81, 40.05 16.87" stroke="#000000" stroke-width="1" fill="none"></path></g><g transform="translate(348.96453799521123 164.1124139646298) rotate(0 19.451385292669556 9.295154421215898)"><path d="M22.69 15.63 C24.98 20.58, 37.15 15.2, 37.14 20.66 M17.73 18.41 C23.8 16.69, 30.33 18.63, 41.06 17.3" stroke="#000000" stroke-width="1" fill="none"></path></g><g transform="translate(348.96453799521123 164.1124139646298) rotate(0 19.451385292669556 9.295154421215898)"><path d="M27.39 1.92 C28.09 12, 38.48 11.81, 37.14 20.66 M22.43 4.7 C27.18 7.11, 32.28 13.24, 41.06 17.3" stroke="#000000" stroke-width="1" fill="none"></path></g></g><mask></mask><g stroke-linecap="round" transform="translate(570.9428877266611 151.931351936164) rotate(0 92 35.5)"><path d="M2.98 0.86 C60.59 -1.56, 119.18 -5.3, 185.79 3.8 M-0.36 1.78 C43.98 1.22, 90.63 1.35, 182.76 1.4 M181.31 -0.85 C187.1 15.51, 182.98 26.87, 185.04 69.41 M185.79 0.55 C185.79 18.4, 183.91 31.46, 184.62 69.14 M184.01 74.62 C117.11 69.27, 48.64 69.71, 0.95 70.7 M183.62 72.59 C147.28 69.82, 108.94 72.82, 0.66 70.33 M-1.82 73.42 C-1.04 40.84, 0.38 13.6, -3.73 -0.57 M1.34 70.02 C1.69 54.96, -0.92 35.15, -1.69 -1.25" stroke="#000000" stroke-width="1" fill="none"></path></g><g transform="translate(578.5029768379892 162.431351936164) rotate(0 84.43991088867188 25)"><text x="84.43991088867188" y="0" font-family="Virgil, Segoe UI Emoji" font-size="20px" fill="#000000" text-anchor="middle" style="white-space: pre;" direction="ltr" dominant-baseline="text-before-edge">action </text><text x="84.43991088867188" y="25" font-family="Virgil, Segoe UI Emoji" font-size="20px" fill="#000000" text-anchor="middle" style="white-space: pre;" direction="ltr" dominant-baseline="text-before-edge">distribution class</text></g><g stroke-linecap="round"><g transform="translate(350.020203523517 145.32250965042834) rotate(0 140.90381994731223 -4.42282192183805)"><path d="M-3.85 3.27 C53.98 -6.17, 116.52 -15.35, 150.59 -15.57 M1.61 -1.9 C44.42 -9.25, 91.1 -11.71, 153.59 -19.59 M147.99 -17.33 C203.23 -6.29, 247.32 -0.34, 283.86 6.59 M149.67 -19.05 C205.55 -7.31, 254.62 2.39, 285.66 10.74" stroke="#000000" stroke-width="1" fill="none"></path></g><g transform="translate(350.020203523517 145.32250965042834) rotate(0 140.90381994731223 -4.42282192183805)"><path d="M251.99 17.32 C264.01 14.35, 280.7 10.84, 284.63 13.56 M257.46 12.16 C263.56 11.16, 273.29 13.27, 287.63 9.54" stroke="#000000" stroke-width="1" fill="none"></path></g><g transform="translate(350.020203523517 145.32250965042834) rotate(0 140.90381994731223 -4.42282192183805)"><path d="M256.84 -2.62 C267.06 1.95, 281.93 5.95, 284.63 13.56 M262.3 -7.79 C267.26 -2.66, 275.53 5.5, 287.63 9.54" stroke="#000000" stroke-width="1" fill="none"></path></g></g><mask></mask><g stroke-linecap="round" transform="translate(14.62529704190888 10.98795140056285) rotate(0 76 30)"><path d="M0.54 -2 C57.85 2.24, 111.98 3.81, 154.56 2.2 M0.38 -1.08 C42.01 2.23, 83.59 3.52, 152.43 0.07 M151.67 -2.77 C153.09 22.31, 149.73 40.33, 152.97 57.76 M153.48 0.54 C153.93 13.1, 152.78 27.51, 153.17 61.14 M148.98 61.04 C108.54 59.13, 66.32 59.74, -2.53 57.44 M153.37 58.07 C101.42 58.99, 52 60.58, 0.83 58.33 M-2.89 61.69 C1.23 44, -2.5 34.39, 0.56 -3.17 M-0.59 58.62 C-1.56 40.38, -1.63 18.76, 1.89 0.58" stroke="#000000" stroke-width="1" fill="none"></path></g><g transform="translate(27.67535349942841 15.98795140056285) rotate(0 62.94994354248047 25)"><text x="62.94994354248047" y="0" font-family="Virgil, Segoe UI Emoji" font-size="20px" fill="#000000" text-anchor="middle" style="white-space: pre;" direction="ltr" dominant-baseline="text-before-edge">model config </text><text x="62.94994354248047" y="25" font-family="Virgil, Segoe UI Emoji" font-size="20px" fill="#000000" text-anchor="middle" style="white-space: pre;" direction="ltr" dominant-baseline="text-before-edge">dict</text></g><g stroke-linecap="round"><g transform="translate(167.69855558480663 69.79949380184303) rotate(0 18.122711755049806 24.721859735451233)"><path d="M-0.55 0.28 C3.55 14.47, 18.4 24.49, 36.99 50.89 M-1.16 -1.44 C7.4 9.47, 15.95 21.32, 37.4 49.65" stroke="#000000" stroke-width="1" fill="none"></path></g><g transform="translate(167.69855558480663 69.79949380184303) rotate(0 18.122711755049806 24.721859735451233)"><path d="M11.7 33.59 C13.56 40.55, 26.04 43.37, 37.73 49.1 M11.09 31.86 C17.11 35.46, 23.33 40.2, 38.15 47.86" stroke="#000000" stroke-width="1" fill="none"></path></g><g transform="translate(167.69855558480663 69.79949380184303) rotate(0 18.122711755049806 24.721859735451233)"><path d="M28.09 21.24 C26.54 30.7, 35.66 36.06, 37.73 49.1 M27.48 19.51 C30.25 25.33, 33.15 32.57, 38.15 47.86" stroke="#000000" stroke-width="1" fill="none"></path></g></g><mask></mask><g stroke-linecap="round" transform="translate(193.42347136624676 11.273451990339822) rotate(0 76 30)"><path d="M0.18 1.28 C57.61 0.27, 115.81 -5.81, 154.72 0.35 M1.57 -0.75 C59.28 -1.59, 120.78 -1.25, 151.73 -1.85 M151.47 1.86 C154.66 20.11, 149.13 35.75, 149.15 57.61 M151.58 0.61 C152.03 17.35, 150.28 36.66, 150.09 58.05 M150.08 60.94 C100.27 60.11, 42.92 58.45, 1.76 59.05 M152.56 61.92 C99.59 61.29, 43.93 60.85, 1.47 58.75 M3.07 63.77 C-2.87 46.11, -0.97 36.2, -3.07 0.38 M-0.28 58.09 C0.73 48.14, -2.09 34.12, 1.89 -0.04" stroke="#000000" stroke-width="1" fill="none"></path></g><g transform="translate(209.0035342324577 16.273451990339822) rotate(0 60.41993713378906 25)"><text x="60.41993713378906" y="0" font-family="Virgil, Segoe UI Emoji" font-size="20px" fill="#000000" text-anchor="middle" style="white-space: pre;" direction="ltr" dominant-baseline="text-before-edge">view </text><text x="60.41993713378906" y="25" font-family="Virgil, Segoe UI Emoji" font-size="20px" fill="#000000" text-anchor="middle" style="white-space: pre;" direction="ltr" dominant-baseline="text-before-edge">requirements</text></g><g stroke-linecap="round"><g transform="translate(269.2985454094388 74.92776511493594) rotate(0 -2.788750064602141 21.406839339506348)"><path d="M2.51 -0.78 C-1.26 9.48, -3.35 21.21, -6.2 43.59 M-0.26 0.28 C-2.01 15.97, -5.46 30.17, -8.09 41.31" stroke="#000000" stroke-width="1" fill="none"></path></g><g transform="translate(269.2985454094388 74.92776511493594) rotate(0 -2.788750064602141 21.406839339506348)"><path d="M-8.17 19.05 C-8.27 24.06, -7 30.3, -4.24 42.8 M-10.94 20.1 C-8.58 28.42, -7.51 35.23, -6.13 40.53" stroke="#000000" stroke-width="1" fill="none"></path></g><g transform="translate(269.2985454094388 74.92776511493594) rotate(0 -2.788750064602141 21.406839339506348)"><path d="M6.25 22.41 C2.36 26.26, -0.21 31.6, -4.24 42.8 M3.47 23.46 C0.61 30.58, -3.48 36.19, -6.13 40.53" stroke="#000000" stroke-width="1" fill="none"></path></g></g><mask></mask></svg>