<?xml version="1.0" encoding="UTF-8" standalone="no"?>
<svg
   xmlns:dc="http://purl.org/dc/elements/1.1/"
   xmlns:cc="http://creativecommons.org/ns#"
   xmlns:rdf="http://www.w3.org/1999/02/22-rdf-syntax-ns#"
   xmlns:svg="http://www.w3.org/2000/svg"
   xmlns="http://www.w3.org/2000/svg"
   xmlns:sodipodi="http://sodipodi.sourceforge.net/DTD/sodipodi-0.dtd"
   xmlns:inkscape="http://www.inkscape.org/namespaces/inkscape"
   inkscape:version="1.0 (4035a4f, 2020-05-01)"
   height="404.28571"
   width="825.62427"
   sodipodi:docname="limit-tasks.svg"
   id="svg1393"
   stroke-miterlimit="10"
   stroke-linecap="square"
   stroke="none"
   fill="none"
   viewBox="0 0 825.62427 404.28571"
   version="1.1">
  <metadata
     id="metadata1399">
    <rdf:RDF>
      <cc:Work
         rdf:about="">
        <dc:format>image/svg+xml</dc:format>
        <dc:type
           rdf:resource="http://purl.org/dc/dcmitype/StillImage" />
      </cc:Work>
    </rdf:RDF>
  </metadata>
  <defs
     id="defs1397" />
  <sodipodi:namedview
     inkscape:current-layer="g1391"
     inkscape:window-maximized="1"
     inkscape:window-y="23"
     inkscape:window-x="0"
     inkscape:cy="299.81494"
     inkscape:cx="464.00131"
     inkscape:zoom="0.91087963"
     showgrid="false"
     id="namedview1395"
     inkscape:window-height="995"
     inkscape:window-width="1792"
     inkscape:pageshadow="2"
     inkscape:pageopacity="0"
     guidetolerance="10"
     gridtolerance="10"
     objecttolerance="10"
     borderopacity="1"
     bordercolor="#666666"
     pagecolor="#ffffff" />
  <clipPath
     id="p.0">
    <path
       id="path1218"
       clip-rule="nonzero"
       d="M 0,0 H 1152 V 864 H 0 Z" />
  </clipPath>
  <g
     transform="translate(-111.99869,-132.18506)"
     id="g1391"
     clip-path="url(#p.0)">
    <path
       id="path1221"
       fill-rule="evenodd"
       d="M 0,0 H 1152 V 864 H 0 Z"
       fill-opacity="0"
       fill="#000000" />
    <path
       id="path1223"
       fill-rule="evenodd"
       d="m 112.5017,396.75818 h 300.063 v 139.21259 h -300.063 z"
       fill="#ffffff" />
    <path
       id="path1225"
       fill-rule="evenodd"
       d="m 112.5017,396.75818 h 300.063 v 139.21259 h -300.063 z"
       stroke-linecap="butt"
       stroke-linejoin="round"
       stroke-width="1"
       stroke="#000000" />
    <path
       id="path1227"
       fill-rule="evenodd"
       d="M 637.0599,395.02274 H 937.12295 V 534.23536 H 637.0599 Z"
       fill="#ffffff" />
    <path
       id="path1229"
       fill-rule="evenodd"
       d="M 637.0599,395.02274 H 937.12295 V 534.23536 H 637.0599 Z"
       stroke-linecap="butt"
       stroke-linejoin="round"
       stroke-width="1"
       stroke="#000000" />
    <path
       id="path1231"
       fill-rule="evenodd"
       d="m 706.40186,493.1077 v 0 c 0,-4.08786 3.31384,-7.4017 7.40173,-7.4017 h 128.18866 c 1.96308,0 3.84571,0.77981 5.23383,2.1679 1.38806,1.3881 2.16791,3.27076 2.16791,5.2338 v 29.60599 c 0,4.08789 -3.31391,7.40173 -7.40174,7.40173 H 713.80359 c -4.08789,0 -7.40173,-3.31384 -7.40173,-7.40173 z"
       fill="#fce5cd" />
    <path
       id="path1233"
       fill-rule="evenodd"
       d="m 706.40186,493.1077 v 0 c 0,-4.08786 3.31384,-7.4017 7.40173,-7.4017 h 128.18866 c 1.96308,0 3.84571,0.77981 5.23383,2.1679 1.38806,1.3881 2.16791,3.27076 2.16791,5.2338 v 29.60599 c 0,4.08789 -3.31391,7.40173 -7.40174,7.40173 H 713.80359 c -4.08789,0 -7.40173,-3.31384 -7.40173,-7.40173 z"
       stroke-linecap="butt"
       stroke-linejoin="round"
       stroke-width="1"
       stroke="#000000" />
    <path
       id="path1235"
       fill-rule="nonzero"
       d="m 755.58026,514.8307 5.125,-13.35934 h 1.90625 l 5.46875,13.35934 h -2.01563 l -1.54687,-4.04684 h -5.59375 l -1.46875,4.04684 z m 3.85937,-5.48434 h 4.53125 l -1.40625,-3.70313 q -0.625,-1.6875 -0.9375,-2.76562 -0.26562,1.28125 -0.71875,2.54687 z m 9.83423,5.48434 v -9.67184 h 1.46875 v 1.46875 q 0.5625,-1.03125 1.03125,-1.35938 0.48438,-0.32812 1.0625,-0.32812 0.82813,0 1.6875,0.53125 l -0.5625,1.51562 q -0.60937,-0.35937 -1.20312,-0.35937 -0.54688,0 -0.96875,0.32812 -0.42188,0.32813 -0.60938,0.89063 -0.28125,0.875 -0.28125,1.92187 v 5.06247 z m 6.21265,0 v -9.67184 h 1.46875 v 1.46875 q 0.5625,-1.03125 1.03125,-1.35938 0.48437,-0.32812 1.0625,-0.32812 0.82812,0 1.6875,0.53125 l -0.5625,1.51562 q -0.60938,-0.35937 -1.20313,-0.35937 -0.54687,0 -0.96875,0.32812 -0.42187,0.32813 -0.60937,0.89063 -0.28125,0.875 -0.28125,1.92187 v 5.06247 z m 12.54083,-1.1875 q -0.92187,0.76562 -1.76562,1.09375 -0.82813,0.3125 -1.79688,0.3125 -1.59375,0 -2.45312,-0.78125 -0.85938,-0.78125 -0.85938,-1.98438 0,-0.71871 0.32813,-1.29684 0.32812,-0.59375 0.84375,-0.9375 0.53125,-0.35937 1.1875,-0.54687 0.46875,-0.125 1.45312,-0.25 1.98438,-0.23438 2.92188,-0.5625 0.0156,-0.34375 0.0156,-0.42188 0,-1 -0.46875,-1.42187 -0.625,-0.54688 -1.875,-0.54688 -1.15625,0 -1.70312,0.40625 -0.54688,0.40625 -0.8125,1.42188 l -1.60938,-0.21875 q 0.21875,-1.01563 0.71875,-1.64063 0.5,-0.64062 1.45313,-0.98437 0.95312,-0.34375 2.1875,-0.34375 1.25,0 2.01562,0.29687 0.78125,0.28125 1.14063,0.73438 0.375,0.4375 0.51562,1.10937 0.0781,0.42188 0.0781,1.51563 v 2.1875 q 0,2.28121 0.10937,2.89059 0.10938,0.59375 0.40625,1.15625 h -1.70312 q -0.26563,-0.51563 -0.32813,-1.1875 z m -0.14062,-3.67184 q -0.89063,0.375 -2.67188,0.625 -1.01562,0.14062 -1.4375,0.32812 -0.42187,0.1875 -0.65625,0.53125 -0.21875,0.34375 -0.21875,0.78122 0,0.65625 0.5,1.09375 0.5,0.4375 1.45313,0.4375 0.9375,0 1.67187,-0.40625 0.75,-0.42188 1.09375,-1.14063 0.26563,-0.56246 0.26563,-1.64059 z m 4.12567,8.57809 -0.1875,-1.53125 q 0.54687,0.14062 0.9375,0.14062 0.54687,0 0.875,-0.1875 0.32812,-0.17187 0.54687,-0.5 0.15625,-0.25 0.5,-1.21875 0.0469,-0.14062 0.14063,-0.40625 l -3.67188,-9.68746 h 1.76563 l 2.01562,5.59375 q 0.39063,1.07812 0.70313,2.24996 0.28125,-1.12496 0.67187,-2.20309 l 2.07813,-5.64062 h 1.64062 l -3.6875,9.82809 q -0.59375,1.60937 -0.92187,2.20312 -0.4375,0.8125 -1,1.1875 -0.5625,0.375 -1.34375,0.375 -0.48438,0 -1.0625,-0.20312 z"
       fill="#000000" />
    <path
       id="path1237"
       fill-rule="evenodd"
       d="m 687.2779,493.1077 v 0 c 0,-4.08786 3.3139,-7.4017 7.40173,-7.4017 h 128.18872 c 1.96302,0 3.84571,0.77981 5.23377,2.1679 1.38812,1.3881 2.16791,3.27076 2.16791,5.2338 v 29.60599 c 0,4.08789 -3.31385,7.40173 -7.40168,7.40173 H 694.67963 c -4.08783,0 -7.40173,-3.31384 -7.40173,-7.40173 z"
       fill="#fce5cd" />
    <path
       id="path1239"
       fill-rule="evenodd"
       d="m 687.2779,493.1077 v 0 c 0,-4.08786 3.3139,-7.4017 7.40173,-7.4017 h 128.18872 c 1.96302,0 3.84571,0.77981 5.23377,2.1679 1.38812,1.3881 2.16791,3.27076 2.16791,5.2338 v 29.60599 c 0,4.08789 -3.31385,7.40173 -7.40168,7.40173 H 694.67963 c -4.08783,0 -7.40173,-3.31384 -7.40173,-7.40173 z"
       stroke-linecap="butt"
       stroke-linejoin="round"
       stroke-width="1"
       stroke="#000000" />
    <path
       id="path1241"
       fill-rule="nonzero"
       d="m 736.45636,514.8307 5.125,-13.35934 h 1.90625 l 5.46875,13.35934 h -2.01562 l -1.54688,-4.04684 h -5.59375 l -1.46875,4.04684 z m 3.85938,-5.48434 h 4.53125 l -1.40625,-3.70313 q -0.625,-1.6875 -0.9375,-2.76562 -0.26563,1.28125 -0.71875,2.54687 z m 9.83416,5.48434 v -9.67184 h 1.46875 v 1.46875 q 0.5625,-1.03125 1.03125,-1.35938 0.48438,-0.32812 1.0625,-0.32812 0.82813,0 1.6875,0.53125 l -0.5625,1.51562 q -0.60937,-0.35937 -1.20312,-0.35937 -0.54688,0 -0.96875,0.32812 -0.42188,0.32813 -0.60938,0.89063 -0.28125,0.875 -0.28125,1.92187 v 5.06247 z m 6.21271,0 v -9.67184 h 1.46875 v 1.46875 q 0.5625,-1.03125 1.03125,-1.35938 0.48438,-0.32812 1.0625,-0.32812 0.82813,0 1.6875,0.53125 l -0.5625,1.51562 q -0.60937,-0.35937 -1.20312,-0.35937 -0.54688,0 -0.96875,0.32812 -0.42188,0.32813 -0.60938,0.89063 -0.28125,0.875 -0.28125,1.92187 v 5.06247 z m 12.54077,-1.1875 q -0.92187,0.76562 -1.76562,1.09375 -0.82813,0.3125 -1.79688,0.3125 -1.59375,0 -2.45312,-0.78125 -0.85938,-0.78125 -0.85938,-1.98438 0,-0.71871 0.32813,-1.29684 0.32812,-0.59375 0.84375,-0.9375 0.53125,-0.35937 1.1875,-0.54687 0.46875,-0.125 1.45312,-0.25 1.98438,-0.23438 2.92188,-0.5625 0.0156,-0.34375 0.0156,-0.42188 0,-1 -0.46875,-1.42187 -0.625,-0.54688 -1.875,-0.54688 -1.15625,0 -1.70312,0.40625 -0.54688,0.40625 -0.8125,1.42188 l -1.60938,-0.21875 q 0.21875,-1.01563 0.71875,-1.64063 0.5,-0.64062 1.45313,-0.98437 0.95312,-0.34375 2.1875,-0.34375 1.25,0 2.01562,0.29687 0.78125,0.28125 1.14063,0.73438 0.375,0.4375 0.51562,1.10937 0.0781,0.42188 0.0781,1.51563 v 2.1875 q 0,2.28121 0.10937,2.89059 0.10938,0.59375 0.40625,1.15625 h -1.70312 q -0.26563,-0.51563 -0.32813,-1.1875 z m -0.14062,-3.67184 q -0.89063,0.375 -2.67188,0.625 -1.01562,0.14062 -1.4375,0.32812 -0.42187,0.1875 -0.65625,0.53125 -0.21875,0.34375 -0.21875,0.78122 0,0.65625 0.5,1.09375 0.5,0.4375 1.45313,0.4375 0.9375,0 1.67187,-0.40625 0.75,-0.42188 1.09375,-1.14063 0.26563,-0.56246 0.26563,-1.64059 z m 4.12573,8.57809 -0.1875,-1.53125 q 0.54687,0.14062 0.9375,0.14062 0.54687,0 0.875,-0.1875 0.32812,-0.17187 0.54687,-0.5 0.15625,-0.25 0.5,-1.21875 0.0469,-0.14062 0.14063,-0.40625 l -3.67188,-9.68746 h 1.76563 l 2.01562,5.59375 q 0.39063,1.07812 0.70313,2.24996 0.28125,-1.12496 0.67187,-2.20309 l 2.07813,-5.64062 h 1.64062 l -3.6875,9.82809 q -0.59375,1.60937 -0.92187,2.20312 -0.4375,0.8125 -1,1.1875 -0.5625,0.375 -1.34375,0.375 -0.48438,0 -1.0625,-0.20312 z"
       fill="#000000" />
    <path
       id="path1243"
       fill-rule="evenodd"
       d="m 669.1402,493.1077 v 0 c 0,-4.08786 3.31384,-7.4017 7.40173,-7.4017 h 128.18866 c 1.96308,0 3.84571,0.77981 5.23383,2.1679 1.38806,1.3881 2.16791,3.27076 2.16791,5.2338 v 29.60599 c 0,4.08789 -3.31385,7.40173 -7.40174,7.40173 H 676.54193 c -4.08789,0 -7.40173,-3.31384 -7.40173,-7.40173 z"
       fill="#fce5cd" />
    <path
       id="path1245"
       fill-rule="evenodd"
       d="m 669.1402,493.1077 v 0 c 0,-4.08786 3.31384,-7.4017 7.40173,-7.4017 h 128.18866 c 1.96308,0 3.84571,0.77981 5.23383,2.1679 1.38806,1.3881 2.16791,3.27076 2.16791,5.2338 v 29.60599 c 0,4.08789 -3.31385,7.40173 -7.40174,7.40173 H 676.54193 c -4.08789,0 -7.40173,-3.31384 -7.40173,-7.40173 z"
       stroke-linecap="butt"
       stroke-linejoin="round"
       stroke-width="1"
       stroke="#000000" />
    <path
       id="path1247"
       fill-rule="nonzero"
       d="m 718.3186,514.8307 5.125,-13.35934 h 1.90625 l 5.46875,13.35934 h -2.01563 l -1.54687,-4.04684 h -5.59375 l -1.46875,4.04684 z m 3.85937,-5.48434 h 4.53125 l -1.40625,-3.70313 q -0.625,-1.6875 -0.9375,-2.76562 -0.26562,1.28125 -0.71875,2.54687 z m 9.83423,5.48434 v -9.67184 h 1.46875 v 1.46875 q 0.5625,-1.03125 1.03125,-1.35938 0.48438,-0.32812 1.0625,-0.32812 0.82813,0 1.6875,0.53125 l -0.5625,1.51562 q -0.60937,-0.35937 -1.20312,-0.35937 -0.54688,0 -0.96875,0.32812 -0.42188,0.32813 -0.60938,0.89063 -0.28125,0.875 -0.28125,1.92187 v 5.06247 z m 6.21265,0 v -9.67184 h 1.46875 v 1.46875 q 0.5625,-1.03125 1.03125,-1.35938 0.48437,-0.32812 1.0625,-0.32812 0.82812,0 1.6875,0.53125 l -0.5625,1.51562 q -0.60938,-0.35937 -1.20313,-0.35937 -0.54687,0 -0.96875,0.32812 -0.42187,0.32813 -0.60937,0.89063 -0.28125,0.875 -0.28125,1.92187 v 5.06247 z m 12.54083,-1.1875 q -0.92187,0.76562 -1.76562,1.09375 -0.82813,0.3125 -1.79688,0.3125 -1.59375,0 -2.45312,-0.78125 -0.85938,-0.78125 -0.85938,-1.98438 0,-0.71871 0.32813,-1.29684 0.32812,-0.59375 0.84375,-0.9375 0.53125,-0.35937 1.1875,-0.54687 0.46875,-0.125 1.45312,-0.25 1.98438,-0.23438 2.92188,-0.5625 0.0156,-0.34375 0.0156,-0.42188 0,-1 -0.46875,-1.42187 -0.625,-0.54688 -1.875,-0.54688 -1.15625,0 -1.70312,0.40625 -0.54688,0.40625 -0.8125,1.42188 l -1.60938,-0.21875 q 0.21875,-1.01563 0.71875,-1.64063 0.5,-0.64062 1.45313,-0.98437 0.95312,-0.34375 2.1875,-0.34375 1.25,0 2.01562,0.29687 0.78125,0.28125 1.14063,0.73438 0.375,0.4375 0.51562,1.10937 0.0781,0.42188 0.0781,1.51563 v 2.1875 q 0,2.28121 0.10937,2.89059 0.10938,0.59375 0.40625,1.15625 h -1.70312 q -0.26563,-0.51563 -0.32813,-1.1875 z m -0.14062,-3.67184 q -0.89063,0.375 -2.67188,0.625 -1.01562,0.14062 -1.4375,0.32812 -0.42187,0.1875 -0.65625,0.53125 -0.21875,0.34375 -0.21875,0.78122 0,0.65625 0.5,1.09375 0.5,0.4375 1.45313,0.4375 0.9375,0 1.67187,-0.40625 0.75,-0.42188 1.09375,-1.14063 0.26563,-0.56246 0.26563,-1.64059 z m 4.12573,8.57809 -0.1875,-1.53125 q 0.54687,0.14062 0.9375,0.14062 0.54687,0 0.875,-0.1875 0.32812,-0.17187 0.54687,-0.5 0.15625,-0.25 0.5,-1.21875 0.0469,-0.14062 0.14063,-0.40625 l -3.67188,-9.68746 h 1.76563 l 2.01562,5.59375 q 0.39063,1.07812 0.70313,2.24996 0.28125,-1.12496 0.67187,-2.20309 l 2.07813,-5.64062 h 1.64062 l -3.6875,9.82809 q -0.59375,1.60937 -0.92187,2.20312 -0.4375,0.8125 -1,1.1875 -0.5625,0.375 -1.34375,0.375 -0.48438,0 -1.0625,-0.20312 z"
       fill="#000000" />
    <path
       id="path1249"
       fill-rule="evenodd"
       d="m 654.70605,493.1077 v 0 c 0,-4.08786 3.31384,-7.4017 7.40167,-7.4017 h 128.18872 c 1.96302,0 3.84571,0.77981 5.23377,2.1679 1.38812,1.3881 2.16797,3.27076 2.16797,5.2338 v 29.60599 c 0,4.08789 -3.31391,7.40173 -7.40174,7.40173 H 662.10772 c -4.08783,0 -7.40167,-3.31384 -7.40167,-7.40173 z"
       fill="#fce5cd" />
    <path
       id="path1251"
       fill-rule="evenodd"
       d="m 654.70605,493.1077 v 0 c 0,-4.08786 3.31384,-7.4017 7.40167,-7.4017 h 128.18872 c 1.96302,0 3.84571,0.77981 5.23377,2.1679 1.38812,1.3881 2.16797,3.27076 2.16797,5.2338 v 29.60599 c 0,4.08789 -3.31391,7.40173 -7.40174,7.40173 H 662.10772 c -4.08783,0 -7.40167,-3.31384 -7.40167,-7.40173 z"
       stroke-linecap="butt"
       stroke-linejoin="round"
       stroke-width="1"
       stroke="#000000" />
    <path
       id="path1253"
       fill-rule="nonzero"
       d="m 703.88446,514.8307 5.125,-13.35934 h 1.90625 l 5.46875,13.35934 h -2.01563 l -1.54687,-4.04684 h -5.59375 l -1.46875,4.04684 z m 3.85937,-5.48434 h 4.53125 l -1.40625,-3.70313 q -0.625,-1.6875 -0.9375,-2.76562 -0.26562,1.28125 -0.71875,2.54687 z m 9.83417,5.48434 v -9.67184 h 1.46875 v 1.46875 q 0.5625,-1.03125 1.03125,-1.35938 0.48438,-0.32812 1.0625,-0.32812 0.82813,0 1.6875,0.53125 l -0.5625,1.51562 q -0.60937,-0.35937 -1.20312,-0.35937 -0.54688,0 -0.96875,0.32812 -0.42188,0.32813 -0.60938,0.89063 -0.28125,0.875 -0.28125,1.92187 v 5.06247 z m 6.21271,0 v -9.67184 h 1.46875 v 1.46875 q 0.5625,-1.03125 1.03125,-1.35938 0.48437,-0.32812 1.0625,-0.32812 0.82812,0 1.6875,0.53125 l -0.5625,1.51562 q -0.60938,-0.35937 -1.20313,-0.35937 -0.54687,0 -0.96875,0.32812 -0.42187,0.32813 -0.60937,0.89063 -0.28125,0.875 -0.28125,1.92187 v 5.06247 z m 12.54077,-1.1875 q -0.92187,0.76562 -1.76562,1.09375 -0.82813,0.3125 -1.79688,0.3125 -1.59375,0 -2.45312,-0.78125 -0.85938,-0.78125 -0.85938,-1.98438 0,-0.71871 0.32813,-1.29684 0.32812,-0.59375 0.84375,-0.9375 0.53125,-0.35937 1.1875,-0.54687 0.46875,-0.125 1.45312,-0.25 1.98438,-0.23438 2.92188,-0.5625 0.0156,-0.34375 0.0156,-0.42188 0,-1 -0.46875,-1.42187 -0.625,-0.54688 -1.875,-0.54688 -1.15625,0 -1.70312,0.40625 -0.54688,0.40625 -0.8125,1.42188 l -1.60938,-0.21875 q 0.21875,-1.01563 0.71875,-1.64063 0.5,-0.64062 1.45313,-0.98437 0.95312,-0.34375 2.1875,-0.34375 1.25,0 2.01562,0.29687 0.78125,0.28125 1.14063,0.73438 0.375,0.4375 0.51562,1.10937 0.0781,0.42188 0.0781,1.51563 v 2.1875 q 0,2.28121 0.10937,2.89059 0.10938,0.59375 0.40625,1.15625 h -1.70312 q -0.26563,-0.51563 -0.32813,-1.1875 z m -0.14062,-3.67184 q -0.89063,0.375 -2.67188,0.625 -1.01562,0.14062 -1.4375,0.32812 -0.42187,0.1875 -0.65625,0.53125 -0.21875,0.34375 -0.21875,0.78122 0,0.65625 0.5,1.09375 0.5,0.4375 1.45313,0.4375 0.9375,0 1.67187,-0.40625 0.75,-0.42188 1.09375,-1.14063 0.26563,-0.56246 0.26563,-1.64059 z m 4.12573,8.57809 -0.1875,-1.53125 q 0.54687,0.14062 0.9375,0.14062 0.54687,0 0.875,-0.1875 0.32812,-0.17187 0.54687,-0.5 0.15625,-0.25 0.5,-1.21875 0.0469,-0.14062 0.14063,-0.40625 l -3.67188,-9.68746 h 1.76563 l 2.01562,5.59375 q 0.39063,1.07812 0.70313,2.24996 0.28125,-1.12496 0.67187,-2.20309 l 2.07813,-5.64062 h 1.64062 l -3.6875,9.82809 q -0.59375,1.60937 -0.92187,2.20312 -0.4375,0.8125 -1,1.1875 -0.5625,0.375 -1.34375,0.375 -0.48438,0 -1.0625,-0.20312 z"
       fill="#000000" />
    <path
       id="path1255"
       fill-rule="evenodd"
       d="m 700.02924,422.54224 h 183.62201 v 44.40945 H 700.02924 Z"
       fill="#f4cccc" />
    <path
       id="path1257"
       fill-rule="nonzero"
       d="m 770.0373,451.66696 5.125,-13.35937 h 1.90625 l 5.46875,13.35937 h -2.01563 l -1.54687,-4.04687 h -5.59375 l -1.46875,4.04687 z m 3.85937,-5.48437 h 4.53125 l -1.40625,-3.70313 q -0.625,-1.6875 -0.9375,-2.76562 -0.26562,1.28125 -0.71875,2.54687 z m 16.1623,1.9375 1.60937,0.21875 q -0.26562,1.65625 -1.35937,2.60937 -1.07813,0.9375 -2.67188,0.9375 -1.98437,0 -3.1875,-1.29687 -1.20312,-1.29688 -1.20312,-3.71875 0,-1.57813 0.51562,-2.75 0.51563,-1.17188 1.57813,-1.75 1.0625,-0.59375 2.3125,-0.59375 1.57812,0 2.57812,0.79687 1,0.79688 1.28125,2.26563 l -1.59375,0.23437 q -0.23437,-0.96875 -0.8125,-1.45312 -0.57812,-0.5 -1.39062,-0.5 -1.23438,0 -2.01563,0.89062 -0.78125,0.89063 -0.78125,2.8125 0,1.95313 0.75,2.84375 0.75,0.875 1.95313,0.875 0.96875,0 1.60937,-0.59375 0.65625,-0.59375 0.82813,-1.82812 z m 6.59375,2.07812 0.23437,1.45313 q -0.6875,0.14062 -1.23437,0.14062 -0.89063,0 -1.39063,-0.28125 -0.48437,-0.28125 -0.6875,-0.73437 -0.20312,-0.46875 -0.20312,-1.9375 v -5.57813 h -1.20313 v -1.26562 h 1.20313 v -2.39063 l 1.625,-0.98437 v 3.375 h 1.65625 v 1.26562 h -1.65625 v 5.67188 q 0,0.6875 0.0781,0.89062 0.0937,0.20313 0.28125,0.32813 0.20313,0.10937 0.57813,0.10937 0.26562,0 0.71875,-0.0625 z m 0.99585,-3.375 q 0,-2.6875 1.48437,-3.96875 1.25,-1.07812 3.04688,-1.07812 2,0 3.26562,1.3125 1.26563,1.29687 1.26563,3.60937 0,1.85938 -0.5625,2.9375 -0.5625,1.0625 -1.64063,1.65625 -1.0625,0.59375 -2.32812,0.59375 -2.03125,0 -3.28125,-1.29687 -1.25,-1.3125 -1.25,-3.76563 z m 1.6875,0 q 0,1.85938 0.79687,2.79688 0.8125,0.92187 2.04688,0.92187 1.21875,0 2.03125,-0.92187 0.8125,-0.9375 0.8125,-2.84375 0,-1.79688 -0.8125,-2.71875 -0.8125,-0.92188 -2.03125,-0.92188 -1.23438,0 -2.04688,0.92188 -0.79687,0.90625 -0.79687,2.76562 z m 9.28192,4.84375 v -9.67187 h 1.46875 v 1.46875 q 0.5625,-1.03125 1.03125,-1.35938 0.48437,-0.32812 1.0625,-0.32812 0.82812,0 1.6875,0.53125 l -0.5625,1.51562 q -0.60938,-0.35937 -1.20313,-0.35937 -0.54687,0 -0.96875,0.32812 -0.42187,0.32813 -0.60937,0.89063 -0.28125,0.875 -0.28125,1.92187 v 5.0625 z"
       fill="#000000" />
    <path
       id="path1259"
       fill-rule="evenodd"
       d="m 412.5647,466.3645 224.5039,-1.7323"
       fill-opacity="0"
       fill="#000000" />
    <path
       id="path1261"
       fill-rule="evenodd"
       d="m 412.56473,466.3645 218.50406,-1.68597"
       stroke-linecap="butt"
       stroke-linejoin="round"
       stroke-width="1"
       stroke="#000000" />
    <path
       id="path1263"
       fill-rule="evenodd"
       d="m 631.0816,466.3302 4.52521,-1.68671 -4.55072,-1.61667 z"
       stroke-linecap="butt"
       stroke-width="1"
       stroke="#000000"
       fill="#000000" />
    <path
       id="path1265"
       fill-rule="evenodd"
       d="m 412.00928,428.46484 h 224.5039 v 30.33072 h -224.5039 z"
       fill-opacity="0"
       fill="#000000" />
    <path
       id="path1267"
       fill-rule="nonzero"
       d="m 428.07178,455.38486 -0.0469,-1.21875 q -0.29687,0.3125 -0.625,0.57812 -0.3125,0.26563 -0.70312,0.45313 -0.375,0.1875 -0.82813,0.28125 -0.4375,0.10937 -0.98437,0.10937 -0.70313,0 -1.25,-0.20312 -0.53125,-0.20313 -0.90625,-0.57813 -0.35938,-0.375 -0.54688,-0.90625 -0.17187,-0.53125 -0.17187,-1.17187 0,-0.65625 0.26562,-1.20313 0.28125,-0.5625 0.84375,-0.95312 0.57813,-0.40625 1.42188,-0.625 0.85937,-0.23438 2,-0.23438 h 1.21875 v -0.5625 q 0,-0.35937 -0.10938,-0.64062 -0.0937,-0.28125 -0.3125,-0.48438 -0.21875,-0.20312 -0.57812,-0.3125 -0.35938,-0.10937 -0.875,-0.10937 -0.82813,0 -1.625,0.1875 -0.79688,0.1875 -1.53125,0.53125 v -1.78125 q 0.65625,-0.26563 1.53125,-0.4375 0.875,-0.17188 1.8125,-0.17188 1.01562,0 1.75,0.20313 0.75,0.1875 1.21875,0.57812 0.48437,0.39063 0.70312,0.98438 0.23438,0.57812 0.23438,1.35937 v 6.32813 z m -0.3125,-4.09375 h -1.35938 q -0.5625,0 -0.95312,0.10937 -0.39063,0.10938 -0.64063,0.3125 -0.25,0.1875 -0.35937,0.4375 -0.10938,0.25 -0.10938,0.53125 0,0.5625 0.35938,0.85938 0.35937,0.29687 1,0.29687 0.45312,0 0.95312,-0.32812 0.51563,-0.34375 1.10938,-0.96875 z m 12.25729,3.73437 q -0.65625,0.26563 -1.35937,0.39063 -0.6875,0.125 -1.45313,0.125 -1.10937,0 -1.98437,-0.29688 -0.875,-0.29687 -1.48438,-0.89062 -0.60937,-0.59375 -0.9375,-1.46875 -0.3125,-0.875 -0.3125,-2.01563 0,-1.10937 0.34375,-2.01562 0.34375,-0.90625 0.98438,-1.53125 0.64062,-0.64063 1.53125,-0.98438 0.90625,-0.35937 2,-0.35937 0.90625,0 1.51562,0.10937 0.625,0.0937 1.10938,0.23438 v 2.15625 q -0.5625,-0.28125 -1.21875,-0.4375 -0.65625,-0.15625 -1.25,-0.15625 -0.625,0 -1.125,0.21875 -0.48438,0.20312 -0.82813,0.57812 -0.32812,0.375 -0.51562,0.90625 -0.17188,0.53125 -0.17188,1.17188 0,0.65625 0.1875,1.1875 0.20313,0.53125 0.54688,0.90625 0.35937,0.35937 0.84375,0.5625 0.5,0.1875 1.09375,0.1875 0.29687,0 0.60937,-0.0312 0.32813,-0.0469 0.65625,-0.125 0.32813,-0.0781 0.64063,-0.17188 0.3125,-0.10937 0.57812,-0.21875 z m 10.41355,0.26563 q -0.60938,0.14062 -1.21875,0.21875 -0.60938,0.0781 -1.15625,0.0781 -0.90625,0 -1.57813,-0.1875 -0.65625,-0.1875 -1.09375,-0.57812 -0.42187,-0.39063 -0.625,-1 -0.20312,-0.60938 -0.20312,-1.4375 v -4.53125 h -2.5 v -1.71875 h 2.5 v -2.375 l 2.26562,-0.59375 v 2.96875 h 3.60938 v 1.71875 h -3.60938 v 4.35937 q 0,0.79688 0.35938,1.20313 0.375,0.40625 1.23437,0.40625 0.54688,0 1.0625,-0.0937 0.51563,-0.0937 0.95313,-0.21875 z m 10.94479,-4.60938 q 0,1.09375 -0.3125,2 -0.29687,0.90625 -0.89062,1.5625 -0.57813,0.64063 -1.42188,1 -0.84375,0.34375 -1.9375,0.34375 -1.01562,0 -1.82812,-0.29687 -0.8125,-0.29688 -1.39063,-0.89063 -0.5625,-0.59375 -0.85937,-1.48437 -0.29688,-0.90625 -0.29688,-2.10938 0,-1.09375 0.3125,-2 0.3125,-0.90625 0.89063,-1.53125 0.59375,-0.64062 1.4375,-0.98437 0.85937,-0.35938 1.92187,-0.35938 1.04688,0 1.84375,0.3125 0.8125,0.29688 1.375,0.90625 0.57813,0.59375 0.85938,1.48438 0.29687,0.89062 0.29687,2.04687 z m -2.3125,0.0625 q 0,-1.4375 -0.54687,-2.15625 -0.53125,-0.73437 -1.59375,-0.73437 -0.57813,0 -0.98438,0.23437 -0.40625,0.21875 -0.67187,0.625 -0.26563,0.39063 -0.39063,0.92188 -0.125,0.51562 -0.125,1.125 0,1.45312 0.57813,2.1875 0.59375,0.71875 1.59375,0.71875 0.5625,0 0.96875,-0.21875 0.40625,-0.21875 0.65625,-0.60938 0.26562,-0.40625 0.39062,-0.9375 0.125,-0.54687 0.125,-1.15625 z m 10.1948,-1.01562 q 0.0156,-0.51563 -0.0469,-0.875 -0.0625,-0.375 -0.21875,-0.60938 -0.14062,-0.23437 -0.35937,-0.34375 -0.21875,-0.10937 -0.51563,-0.10937 -0.48437,0 -1.01562,0.40625 -0.51563,0.40625 -1.14063,1.32812 v 5.85938 h -2.28125 v -9.25 h 2.01563 l 0.0781,1.34375 q 0.23438,-0.35938 0.51563,-0.64063 0.28125,-0.28125 0.625,-0.48437 0.35937,-0.20313 0.78125,-0.3125 0.4375,-0.10938 0.95312,-0.10938 0.70313,0 1.23438,0.25 0.54687,0.23438 0.90625,0.70313 0.375,0.46875 0.54687,1.1875 0.1875,0.71875 0.15625,1.65625 z m 8.11666,2.29687 q 0.375,0 0.70313,0.14063 0.32812,0.14062 0.5625,0.39062 0.25,0.23438 0.39062,0.5625 0.14063,0.32813 0.14063,0.70313 0,0.35937 -0.14063,0.6875 -0.14062,0.3125 -0.39062,0.5625 -0.23438,0.23437 -0.5625,0.375 -0.32813,0.14062 -0.70313,0.14062 -0.375,0 -0.6875,-0.14062 -0.3125,-0.14063 -0.5625,-0.375 -0.23437,-0.25 -0.375,-0.5625 -0.125,-0.32813 -0.125,-0.6875 0,-0.375 0.125,-0.70313 0.14063,-0.32812 0.375,-0.5625 0.25,-0.25 0.5625,-0.39062 0.3125,-0.14063 0.6875,-0.14063 z m 13.92917,3 q -0.65625,0.26563 -1.35937,0.39063 -0.6875,0.125 -1.45313,0.125 -1.10937,0 -1.98437,-0.29688 -0.875,-0.29687 -1.48438,-0.89062 -0.60937,-0.59375 -0.9375,-1.46875 -0.3125,-0.875 -0.3125,-2.01563 0,-1.10937 0.34375,-2.01562 0.34375,-0.90625 0.98438,-1.53125 0.64062,-0.64063 1.53125,-0.98438 0.90625,-0.35937 2,-0.35937 0.90625,0 1.51562,0.10937 0.625,0.0937 1.10938,0.23438 v 2.15625 q -0.5625,-0.28125 -1.21875,-0.4375 -0.65625,-0.15625 -1.25,-0.15625 -0.625,0 -1.125,0.21875 -0.48438,0.20312 -0.82813,0.57812 -0.32812,0.375 -0.51562,0.90625 -0.17188,0.53125 -0.17188,1.17188 0,0.65625 0.1875,1.1875 0.20313,0.53125 0.54688,0.90625 0.35937,0.35937 0.84375,0.5625 0.5,0.1875 1.09375,0.1875 0.29687,0 0.60937,-0.0312 0.32813,-0.0469 0.65625,-0.125 0.32813,-0.0781 0.64063,-0.17188 0.3125,-0.10937 0.57812,-0.21875 z m 8.5698,0.35938 -0.0469,-1.21875 q -0.29687,0.3125 -0.625,0.57812 -0.3125,0.26563 -0.70312,0.45313 -0.375,0.1875 -0.82813,0.28125 -0.4375,0.10937 -0.98437,0.10937 -0.70313,0 -1.25,-0.20312 -0.53125,-0.20313 -0.90625,-0.57813 -0.35938,-0.375 -0.54688,-0.90625 -0.17187,-0.53125 -0.17187,-1.17187 0,-0.65625 0.26562,-1.20313 0.28125,-0.5625 0.84375,-0.95312 0.57813,-0.40625 1.42188,-0.625 0.85937,-0.23438 2,-0.23438 h 1.21875 v -0.5625 q 0,-0.35937 -0.10938,-0.64062 -0.0937,-0.28125 -0.3125,-0.48438 -0.21875,-0.20312 -0.57812,-0.3125 -0.35938,-0.10937 -0.875,-0.10937 -0.82813,0 -1.625,0.1875 -0.79688,0.1875 -1.53125,0.53125 v -1.78125 q 0.65625,-0.26563 1.53125,-0.4375 0.875,-0.17188 1.8125,-0.17188 1.01562,0 1.75,0.20313 0.75,0.1875 1.21875,0.57812 0.48437,0.39063 0.70312,0.98438 0.23438,0.57812 0.23438,1.35937 v 6.32813 z m -0.3125,-4.09375 h -1.35938 q -0.5625,0 -0.95312,0.10937 -0.39063,0.10938 -0.64063,0.3125 -0.25,0.1875 -0.35937,0.4375 -0.10938,0.25 -0.10938,0.53125 0,0.5625 0.35938,0.85938 0.35937,0.29687 1,0.29687 0.45312,0 0.95312,-0.32812 0.51563,-0.34375 1.10938,-0.96875 z m 7.75729,-7.04688 h -2.60937 v -1.73437 h 4.89062 v 11.14062 h 2.67188 v 1.73438 h -7.875 v -1.73438 h 2.92187 z m 10.25726,0 h -2.60937 v -1.73437 h 4.89062 v 11.14062 h 2.67188 v 1.73438 h -7.875 v -1.73438 h 2.92187 z m 11.08545,7.78125 q 0.375,0 0.70313,0.14063 0.32812,0.14062 0.5625,0.39062 0.25,0.23438 0.39062,0.5625 0.14063,0.32813 0.14063,0.70313 0,0.35937 -0.14063,0.6875 -0.14062,0.3125 -0.39062,0.5625 -0.23438,0.23437 -0.5625,0.375 -0.32813,0.14062 -0.70313,0.14062 -0.375,0 -0.6875,-0.14062 -0.3125,-0.14063 -0.5625,-0.375 -0.23437,-0.25 -0.375,-0.5625 -0.125,-0.32813 -0.125,-0.6875 0,-0.375 0.125,-0.70313 0.14063,-0.32812 0.375,-0.5625 0.25,-0.25 0.5625,-0.39062 0.3125,-0.14063 0.6875,-0.14063 z m 12.39789,-2.29687 q 0.0156,-0.51563 -0.0469,-0.875 -0.0625,-0.375 -0.21875,-0.60938 -0.14063,-0.23437 -0.35938,-0.34375 -0.21875,-0.10937 -0.51562,-0.10937 -0.48438,0 -1.01563,0.40625 -0.51562,0.40625 -1.14062,1.32812 v 5.85938 h -2.28125 v -9.25 h 2.01562 l 0.0781,1.34375 q 0.23437,-0.35938 0.51562,-0.64063 0.28125,-0.28125 0.625,-0.48437 0.35938,-0.20313 0.78125,-0.3125 0.4375,-0.10938 0.95313,-0.10938 0.70312,0 1.23437,0.25 0.54688,0.23438 0.90625,0.70313 0.375,0.46875 0.54688,1.1875 0.1875,0.71875 0.15625,1.65625 z m 12.3667,0.3125 q 0,0.23437 -0.0156,0.60937 -0.0156,0.35938 -0.0312,0.67188 h -6.09375 q 0,0.60937 0.1875,1.07812 0.1875,0.46875 0.53125,0.78125 0.34375,0.3125 0.8125,0.48438 0.48437,0.15625 1.0625,0.15625 0.67187,0 1.4375,-0.10938 0.78125,-0.10937 1.60937,-0.34375 v 1.76563 q -0.35937,0.10937 -0.78125,0.1875 -0.40625,0.0781 -0.84375,0.14062 -0.4375,0.0625 -0.89062,0.0937 -0.45313,0.0312 -0.85938,0.0312 -1.0625,0 -1.90625,-0.29687 -0.82812,-0.29688 -1.42187,-0.875 -0.57813,-0.59375 -0.89063,-1.45313 -0.3125,-0.875 -0.3125,-2.01562 0,-1.125 0.3125,-2.04688 0.3125,-0.9375 0.875,-1.59375 0.5625,-0.65625 1.375,-1.01562 0.8125,-0.35938 1.79688,-0.35938 0.98437,0 1.73437,0.3125 0.76563,0.29688 1.26563,0.84375 0.51562,0.54688 0.78125,1.3125 0.26562,0.75 0.26562,1.64063 z m -2.26562,-0.3125 q 0.0156,-0.54688 -0.14063,-0.95313 -0.14062,-0.40625 -0.39062,-0.67187 -0.25,-0.26563 -0.57813,-0.39063 -0.32812,-0.125 -0.71875,-0.125 -0.82812,0 -1.375,0.5625 -0.53125,0.5625 -0.64062,1.57813 z m 10.99163,5.65625 v -6.29688 q 0,-0.35937 -0.0156,-0.60937 -0.0156,-0.26563 -0.0781,-0.4375 -0.0469,-0.17188 -0.15625,-0.25 -0.10937,-0.0937 -0.28125,-0.0937 -0.28125,0 -0.5625,0.39062 -0.26562,0.375 -0.625,1.29688 v 6 h -1.89062 v -6.29688 q 0,-0.35937 -0.0312,-0.60937 -0.0156,-0.26563 -0.0781,-0.4375 -0.0469,-0.17188 -0.15625,-0.25 -0.10937,-0.0937 -0.28125,-0.0937 -0.25,0 -0.54687,0.39062 -0.28125,0.375 -0.64063,1.29688 v 6 h -1.92187 v -9.25 h 1.65625 l 0.0312,1.34375 q 0.20312,-0.40625 0.40625,-0.70313 0.20312,-0.29687 0.42187,-0.48437 0.23438,-0.1875 0.48438,-0.26563 0.26562,-0.0781 0.59375,-0.0781 0.78125,0 1.1875,0.40625 0.40625,0.40625 0.45312,1.125 0.21875,-0.40625 0.42188,-0.70313 0.21875,-0.29687 0.45312,-0.48437 0.23438,-0.1875 0.5,-0.26563 0.28125,-0.0781 0.60938,-0.0781 1,0 1.48437,0.70312 0.48438,0.70313 0.48438,2.09375 v 6.64063 z m 12.0542,-4.70313 q 0,1.09375 -0.3125,2 -0.29687,0.90625 -0.89062,1.5625 -0.57813,0.64063 -1.42188,1 -0.84375,0.34375 -1.9375,0.34375 -1.01562,0 -1.82812,-0.29687 -0.8125,-0.29688 -1.39063,-0.89063 -0.5625,-0.59375 -0.85937,-1.48437 -0.29688,-0.90625 -0.29688,-2.10938 0,-1.09375 0.3125,-2 0.3125,-0.90625 0.89063,-1.53125 0.59375,-0.64062 1.4375,-0.98437 0.85937,-0.35938 1.92187,-0.35938 1.04688,0 1.84375,0.3125 0.8125,0.29688 1.375,0.90625 0.57813,0.59375 0.85938,1.48438 0.29687,0.89062 0.29687,2.04687 z m -2.3125,0.0625 q 0,-1.4375 -0.54687,-2.15625 -0.53125,-0.73437 -1.59375,-0.73437 -0.57813,0 -0.98438,0.23437 -0.40625,0.21875 -0.67187,0.625 -0.26563,0.39063 -0.39063,0.92188 -0.125,0.51562 -0.125,1.125 0,1.45312 0.57813,2.1875 0.59375,0.71875 1.59375,0.71875 0.5625,0 0.96875,-0.21875 0.40625,-0.21875 0.65625,-0.60938 0.26562,-0.40625 0.39062,-0.9375 0.125,-0.54687 0.125,-1.15625 z m 11.88227,4.54688 q -0.60938,0.14062 -1.21875,0.21875 -0.60938,0.0781 -1.15625,0.0781 -0.90625,0 -1.57813,-0.1875 -0.65625,-0.1875 -1.09375,-0.57812 -0.42187,-0.39063 -0.625,-1 -0.20312,-0.60938 -0.20312,-1.4375 v -4.53125 h -2.5 v -1.71875 h 2.5 v -2.375 l 2.26562,-0.59375 v 2.96875 h 3.60938 v 1.71875 h -3.60938 v 4.35937 q 0,0.79688 0.35938,1.20313 0.375,0.40625 1.23437,0.40625 0.54688,0 1.0625,-0.0937 0.51563,-0.0937 0.95313,-0.21875 z m 10.67919,-5.25 q 0,0.23437 -0.0156,0.60937 -0.0156,0.35938 -0.0312,0.67188 h -6.09375 q 0,0.60937 0.1875,1.07812 0.1875,0.46875 0.53125,0.78125 0.34375,0.3125 0.8125,0.48438 0.48437,0.15625 1.0625,0.15625 0.67187,0 1.4375,-0.10938 0.78125,-0.10937 1.60937,-0.34375 v 1.76563 q -0.35937,0.10937 -0.78125,0.1875 -0.40625,0.0781 -0.84375,0.14062 -0.4375,0.0625 -0.89062,0.0937 -0.45313,0.0312 -0.85938,0.0312 -1.0625,0 -1.90625,-0.29687 -0.82812,-0.29688 -1.42187,-0.875 -0.57813,-0.59375 -0.89063,-1.45313 -0.3125,-0.875 -0.3125,-2.01562 0,-1.125 0.3125,-2.04688 0.3125,-0.9375 0.875,-1.59375 0.5625,-0.65625 1.375,-1.01562 0.8125,-0.35938 1.79688,-0.35938 0.98437,0 1.73437,0.3125 0.76563,0.29688 1.26563,0.84375 0.51562,0.54688 0.78125,1.3125 0.26562,0.75 0.26562,1.64063 z m -2.26562,-0.3125 q 0.0156,-0.54688 -0.14063,-0.95313 -0.14062,-0.40625 -0.39062,-0.67187 -0.25,-0.26563 -0.57813,-0.39063 -0.32812,-0.125 -0.71875,-0.125 -0.82812,0 -1.375,0.5625 -0.53125,0.5625 -0.64062,1.57813 z"
       fill="#000000" />
    <path
       id="path1269"
       fill-rule="evenodd"
       d="m 412.5612,483.77432 224.50394,-1.76376"
       fill-opacity="0"
       fill="#000000" />
    <path
       id="path1271"
       fill-rule="evenodd"
       d="m 412.5612,483.77432 218.50412,-1.71667"
       stroke-linecap="butt"
       stroke-linejoin="round"
       stroke-width="1"
       stroke="#000000" />
    <path
       id="path1273"
       fill-rule="evenodd"
       d="m 631.0783,483.70935 4.52496,-1.68732 -4.55096,-1.61602 z"
       stroke-linecap="butt"
       stroke-width="1"
       stroke="#000000"
       fill="#000000" />
    <path
       id="path1275"
       fill-rule="evenodd"
       d="m 112.49869,134.57765 h 300.063 v 151.77953 h -300.063 z"
       fill="#ffffff" />
    <path
       id="path1277"
       fill-rule="evenodd"
       d="m 112.49869,134.57765 h 300.063 v 151.77953 h -300.063 z"
       stroke-linecap="butt"
       stroke-linejoin="round"
       stroke-width="1"
       stroke="#000000" />
    <path
       id="path1279"
       fill-rule="evenodd"
       d="m 637.0569,132.68506 h 300.063 V 284.4646 h -300.063 z"
       fill="#ffffff" />
    <path
       id="path1281"
       fill-rule="evenodd"
       d="m 637.0569,132.68506 h 300.063 V 284.4646 h -300.063 z"
       stroke-linecap="butt"
       stroke-linejoin="round"
       stroke-width="1"
       stroke="#000000" />
    <path
       id="path1283"
       fill-rule="evenodd"
       d="m 784.5623,239.66379 v 0 c 0,-4.46475 3.61938,-8.08415 8.08417,-8.08415 h 126.82379 c 2.14404,0 4.20031,0.85171 5.71637,2.36778 1.51605,1.51608 2.3678,3.57231 2.3678,5.71637 v 32.33563 c 0,4.46475 -3.61939,8.08414 -8.08417,8.08414 H 792.64647 c -4.46479,0 -8.08417,-3.61939 -8.08417,-8.08414 z"
       fill="#fce5cd" />
    <path
       id="path1285"
       fill-rule="evenodd"
       d="m 784.5623,239.66379 v 0 c 0,-4.46475 3.61938,-8.08415 8.08417,-8.08415 h 126.82379 c 2.14404,0 4.20031,0.85171 5.71637,2.36778 1.51605,1.51608 2.3678,3.57231 2.3678,5.71637 v 32.33563 c 0,4.46475 -3.61939,8.08414 -8.08417,8.08414 H 792.64647 c -4.46479,0 -8.08417,-3.61939 -8.08417,-8.08414 z"
       stroke-linecap="butt"
       stroke-linejoin="round"
       stroke-width="1"
       stroke="#000000" />
    <path
       id="path1287"
       fill-rule="nonzero"
       d="m 833.7407,262.7516 5.125,-13.35936 h 1.90625 l 5.46875,13.35936 h -2.01563 l -1.54687,-4.04688 h -5.59375 l -1.46875,4.04688 z m 3.85937,-5.48438 h 4.53125 l -1.40625,-3.7031 q -0.625,-1.6875 -0.9375,-2.76563 -0.26562,1.28125 -0.71875,2.54688 z m 9.83423,5.48438 v -9.67186 h 1.46875 v 1.46875 q 0.5625,-1.03125 1.03125,-1.35938 0.48438,-0.32812 1.0625,-0.32812 0.82813,0 1.6875,0.53125 l -0.5625,1.51562 q -0.60937,-0.35937 -1.20312,-0.35937 -0.54688,0 -0.96875,0.32812 -0.42188,0.32813 -0.60938,0.89063 -0.28125,0.87498 -0.28125,1.92186 v 5.0625 z m 6.21265,0 v -9.67186 h 1.46875 v 1.46875 q 0.5625,-1.03125 1.03125,-1.35938 0.48437,-0.32812 1.0625,-0.32812 0.82812,0 1.6875,0.53125 l -0.5625,1.51562 q -0.60938,-0.35937 -1.20313,-0.35937 -0.54687,0 -0.96875,0.32812 -0.42187,0.32813 -0.60937,0.89063 -0.28125,0.87498 -0.28125,1.92186 v 5.0625 z m 12.54083,-1.1875 q -0.92187,0.76562 -1.76562,1.09375 -0.82813,0.3125 -1.79688,0.3125 -1.59375,0 -2.45312,-0.78125 -0.85938,-0.78125 -0.85938,-1.98438 0,-0.71875 0.32813,-1.29687 0.32812,-0.59375 0.84375,-0.9375 0.53125,-0.35938 1.1875,-0.54688 0.46875,-0.125 1.45312,-0.25 1.98438,-0.23437 2.92188,-0.5625 0.0156,-0.34375 0.0156,-0.42187 0,-0.99998 -0.46875,-1.42186 -0.625,-0.54687 -1.875,-0.54687 -1.15625,0 -1.70312,0.40625 -0.54688,0.40625 -0.8125,1.42185 l -1.60938,-0.21873 q 0.21875,-1.01562 0.71875,-1.64062 0.5,-0.64063 1.45313,-0.98438 0.95312,-0.34375 2.1875,-0.34375 1.25,0 2.01562,0.29688 0.78125,0.28125 1.14063,0.73437 0.375,0.4375 0.51562,1.10938 0.0781,0.42187 0.0781,1.5156 v 2.1875 q 0,2.28125 0.10937,2.89063 0.10938,0.59375 0.40625,1.15625 h -1.70312 q -0.26563,-0.51563 -0.32813,-1.1875 z m -0.14062,-3.67188 q -0.89063,0.375 -2.67188,0.625 -1.01562,0.14063 -1.4375,0.32813 -0.42187,0.1875 -0.65625,0.53125 -0.21875,0.34375 -0.21875,0.78125 0,0.65625 0.5,1.09375 0.5,0.4375 1.45313,0.4375 0.9375,0 1.67187,-0.40625 0.75,-0.42188 1.09375,-1.14063 0.26563,-0.5625 0.26563,-1.64062 z m 4.12567,8.57813 -0.1875,-1.53125 q 0.54687,0.14062 0.9375,0.14062 0.54687,0 0.875,-0.1875 0.32812,-0.17187 0.54687,-0.5 0.15625,-0.25 0.5,-1.21875 0.0469,-0.14062 0.14063,-0.40625 l -3.67188,-9.68748 h 1.76563 l 2.01562,5.59373 q 0.39063,1.07813 0.70313,2.25 0.28125,-1.125 0.67187,-2.20312 l 2.07813,-5.64061 h 1.64062 l -3.6875,9.82811 q -0.59375,1.60937 -0.92187,2.20312 -0.4375,0.8125 -1,1.1875 -0.5625,0.375 -1.34375,0.375 -0.48438,0 -1.0625,-0.20312 z"
       fill="#000000" />
    <path
       id="path1289"
       fill-rule="evenodd"
       d="m 765.4414,239.66379 v 0 c 0,-4.46475 3.61938,-8.08415 8.08417,-8.08415 h 126.82379 c 2.14404,0 4.20031,0.85171 5.71637,2.36778 1.51605,1.51608 2.3678,3.57231 2.3678,5.71637 v 32.33563 c 0,4.46475 -3.61939,8.08414 -8.08417,8.08414 H 773.52557 c -4.46479,0 -8.08417,-3.61939 -8.08417,-8.08414 z"
       fill="#fce5cd" />
    <path
       id="path1291"
       fill-rule="evenodd"
       d="m 765.4414,239.66379 v 0 c 0,-4.46475 3.61938,-8.08415 8.08417,-8.08415 h 126.82379 c 2.14404,0 4.20031,0.85171 5.71637,2.36778 1.51605,1.51608 2.3678,3.57231 2.3678,5.71637 v 32.33563 c 0,4.46475 -3.61939,8.08414 -8.08417,8.08414 H 773.52557 c -4.46479,0 -8.08417,-3.61939 -8.08417,-8.08414 z"
       stroke-linecap="butt"
       stroke-linejoin="round"
       stroke-width="1"
       stroke="#000000" />
    <path
       id="path1293"
       fill-rule="nonzero"
       d="m 814.6198,262.7516 5.125,-13.35936 h 1.90625 l 5.46875,13.35936 h -2.01562 l -1.54688,-4.04688 h -5.59375 l -1.46875,4.04688 z m 3.85938,-5.48438 h 4.53125 l -1.40625,-3.7031 q -0.625,-1.6875 -0.9375,-2.76563 -0.26563,1.28125 -0.71875,2.54688 z m 9.83422,5.48438 v -9.67186 h 1.46875 v 1.46875 q 0.5625,-1.03125 1.03125,-1.35938 0.48438,-0.32812 1.0625,-0.32812 0.82813,0 1.6875,0.53125 l -0.5625,1.51562 q -0.60937,-0.35937 -1.20312,-0.35937 -0.54688,0 -0.96875,0.32812 -0.42188,0.32813 -0.60938,0.89063 -0.28125,0.87498 -0.28125,1.92186 v 5.0625 z m 6.21265,0 v -9.67186 h 1.46875 v 1.46875 q 0.5625,-1.03125 1.03125,-1.35938 0.48438,-0.32812 1.0625,-0.32812 0.82813,0 1.6875,0.53125 l -0.5625,1.51562 q -0.60937,-0.35937 -1.20312,-0.35937 -0.54688,0 -0.96875,0.32812 -0.42188,0.32813 -0.60938,0.89063 -0.28125,0.87498 -0.28125,1.92186 v 5.0625 z m 12.54083,-1.1875 q -0.92187,0.76562 -1.76562,1.09375 -0.82813,0.3125 -1.79688,0.3125 -1.59375,0 -2.45312,-0.78125 -0.85938,-0.78125 -0.85938,-1.98438 0,-0.71875 0.32813,-1.29687 0.32812,-0.59375 0.84375,-0.9375 0.53125,-0.35938 1.1875,-0.54688 0.46875,-0.125 1.45312,-0.25 1.98438,-0.23437 2.92188,-0.5625 0.0156,-0.34375 0.0156,-0.42187 0,-0.99998 -0.46875,-1.42186 -0.625,-0.54687 -1.875,-0.54687 -1.15625,0 -1.70312,0.40625 -0.54688,0.40625 -0.8125,1.42185 l -1.60938,-0.21873 q 0.21875,-1.01562 0.71875,-1.64062 0.5,-0.64063 1.45313,-0.98438 0.95312,-0.34375 2.1875,-0.34375 1.25,0 2.01562,0.29688 0.78125,0.28125 1.14063,0.73437 0.375,0.4375 0.51562,1.10938 0.0781,0.42187 0.0781,1.5156 v 2.1875 q 0,2.28125 0.10937,2.89063 0.10938,0.59375 0.40625,1.15625 h -1.70312 q -0.26563,-0.51563 -0.32813,-1.1875 z m -0.14062,-3.67188 q -0.89063,0.375 -2.67188,0.625 -1.01562,0.14063 -1.4375,0.32813 -0.42187,0.1875 -0.65625,0.53125 -0.21875,0.34375 -0.21875,0.78125 0,0.65625 0.5,1.09375 0.5,0.4375 1.45313,0.4375 0.9375,0 1.67187,-0.40625 0.75,-0.42188 1.09375,-1.14063 0.26563,-0.5625 0.26563,-1.64062 z m 4.12573,8.57813 -0.1875,-1.53125 q 0.54687,0.14062 0.9375,0.14062 0.54687,0 0.875,-0.1875 0.32812,-0.17187 0.54687,-0.5 0.15625,-0.25 0.5,-1.21875 0.0469,-0.14062 0.14063,-0.40625 l -3.67188,-9.68748 h 1.76563 l 2.01562,5.59373 q 0.39063,1.07813 0.70313,2.25 0.28125,-1.125 0.67187,-2.20312 l 2.07813,-5.64061 h 1.64062 l -3.6875,9.82811 q -0.59375,1.60937 -0.92187,2.20312 -0.4375,0.8125 -1,1.1875 -0.5625,0.375 -1.34375,0.375 -0.48438,0 -1.0625,-0.20312 z"
       fill="#000000" />
    <path
       id="path1295"
       fill-rule="evenodd"
       d="m 738.29816,239.66379 v 0 c 0,-4.46475 3.61938,-8.08415 8.08417,-8.08415 h 126.82379 c 2.14404,0 4.20031,0.85171 5.71637,2.36778 1.51605,1.51608 2.3678,3.57231 2.3678,5.71637 v 32.33563 c 0,4.46475 -3.61939,8.08414 -8.08417,8.08414 H 746.38233 c -4.46479,0 -8.08417,-3.61939 -8.08417,-8.08414 z"
       fill="#fce5cd" />
    <path
       id="path1297"
       fill-rule="evenodd"
       d="m 738.29816,239.66379 v 0 c 0,-4.46475 3.61938,-8.08415 8.08417,-8.08415 h 126.82379 c 2.14404,0 4.20031,0.85171 5.71637,2.36778 1.51605,1.51608 2.3678,3.57231 2.3678,5.71637 v 32.33563 c 0,4.46475 -3.61939,8.08414 -8.08417,8.08414 H 746.38233 c -4.46479,0 -8.08417,-3.61939 -8.08417,-8.08414 z"
       stroke-linecap="butt"
       stroke-linejoin="round"
       stroke-width="1"
       stroke="#000000" />
    <path
       id="path1299"
       fill-rule="nonzero"
       d="m 787.47656,262.7516 5.125,-13.35936 h 1.90625 l 5.46875,13.35936 h -2.01563 l -1.54687,-4.04688 h -5.59375 l -1.46875,4.04688 z m 3.85937,-5.48438 h 4.53125 l -1.40625,-3.7031 q -0.625,-1.6875 -0.9375,-2.76563 -0.26562,1.28125 -0.71875,2.54688 z m 9.83423,5.48438 v -9.67186 h 1.46875 v 1.46875 q 0.5625,-1.03125 1.03125,-1.35938 0.48438,-0.32812 1.0625,-0.32812 0.82813,0 1.6875,0.53125 l -0.5625,1.51562 q -0.60937,-0.35937 -1.20312,-0.35937 -0.54688,0 -0.96875,0.32812 -0.42188,0.32813 -0.60938,0.89063 -0.28125,0.87498 -0.28125,1.92186 v 5.0625 z m 6.21265,0 v -9.67186 h 1.46875 v 1.46875 q 0.5625,-1.03125 1.03125,-1.35938 0.48437,-0.32812 1.0625,-0.32812 0.82812,0 1.6875,0.53125 l -0.5625,1.51562 q -0.60938,-0.35937 -1.20313,-0.35937 -0.54687,0 -0.96875,0.32812 -0.42187,0.32813 -0.60937,0.89063 -0.28125,0.87498 -0.28125,1.92186 v 5.0625 z m 12.54083,-1.1875 q -0.92187,0.76562 -1.76562,1.09375 -0.82813,0.3125 -1.79688,0.3125 -1.59375,0 -2.45312,-0.78125 -0.85938,-0.78125 -0.85938,-1.98438 0,-0.71875 0.32813,-1.29687 0.32812,-0.59375 0.84375,-0.9375 0.53125,-0.35938 1.1875,-0.54688 0.46875,-0.125 1.45312,-0.25 1.98438,-0.23437 2.92188,-0.5625 0.0156,-0.34375 0.0156,-0.42187 0,-0.99998 -0.46875,-1.42186 -0.625,-0.54687 -1.875,-0.54687 -1.15625,0 -1.70312,0.40625 -0.54688,0.40625 -0.8125,1.42185 l -1.60938,-0.21873 q 0.21875,-1.01562 0.71875,-1.64062 0.5,-0.64063 1.45313,-0.98438 0.95312,-0.34375 2.1875,-0.34375 1.25,0 2.01562,0.29688 0.78125,0.28125 1.14063,0.73437 0.375,0.4375 0.51562,1.10938 0.0781,0.42187 0.0781,1.5156 v 2.1875 q 0,2.28125 0.10937,2.89063 0.10938,0.59375 0.40625,1.15625 h -1.70312 q -0.26563,-0.51563 -0.32813,-1.1875 z m -0.14062,-3.67188 q -0.89063,0.375 -2.67188,0.625 -1.01562,0.14063 -1.4375,0.32813 -0.42187,0.1875 -0.65625,0.53125 -0.21875,0.34375 -0.21875,0.78125 0,0.65625 0.5,1.09375 0.5,0.4375 1.45313,0.4375 0.9375,0 1.67187,-0.40625 0.75,-0.42188 1.09375,-1.14063 0.26563,-0.5625 0.26563,-1.64062 z m 4.12573,8.57813 -0.1875,-1.53125 q 0.54687,0.14062 0.9375,0.14062 0.54687,0 0.875,-0.1875 0.32812,-0.17187 0.54687,-0.5 0.15625,-0.25 0.5,-1.21875 0.0469,-0.14062 0.14063,-0.40625 l -3.67188,-9.68748 h 1.76563 l 2.01562,5.59373 q 0.39063,1.07813 0.70313,2.25 0.28125,-1.125 0.67187,-2.20312 l 2.07813,-5.64061 h 1.64062 l -3.6875,9.82811 q -0.59375,1.60937 -0.92187,2.20312 -0.4375,0.8125 -1,1.1875 -0.5625,0.375 -1.34375,0.375 -0.48438,0 -1.0625,-0.20312 z"
       fill="#000000" />
    <path
       id="path1301"
       fill-rule="evenodd"
       d="m 720.3474,239.66379 v 0 c 0,-4.46475 3.61945,-8.08415 8.08417,-8.08415 h 126.82385 c 2.14404,0 4.20025,0.85171 5.71631,2.36778 1.51611,1.51608 2.36779,3.57231 2.36779,5.71637 v 32.33563 c 0,4.46475 -3.61938,8.08414 -8.0841,8.08414 H 728.43157 c -4.46472,0 -8.08417,-3.61939 -8.08417,-8.08414 z"
       fill="#fce5cd" />
    <path
       id="path1303"
       fill-rule="evenodd"
       d="m 720.3474,239.66379 v 0 c 0,-4.46475 3.61945,-8.08415 8.08417,-8.08415 h 126.82385 c 2.14404,0 4.20025,0.85171 5.71631,2.36778 1.51611,1.51608 2.36779,3.57231 2.36779,5.71637 v 32.33563 c 0,4.46475 -3.61938,8.08414 -8.0841,8.08414 H 728.43157 c -4.46472,0 -8.08417,-3.61939 -8.08417,-8.08414 z"
       stroke-linecap="butt"
       stroke-linejoin="round"
       stroke-width="1"
       stroke="#000000" />
    <path
       id="path1305"
       fill-rule="nonzero"
       d="m 769.5259,262.7516 5.125,-13.35936 h 1.90625 l 5.46875,13.35936 h -2.01563 l -1.54687,-4.04688 h -5.59375 l -1.46875,4.04688 z m 3.85937,-5.48438 h 4.53125 l -1.40625,-3.7031 q -0.625,-1.6875 -0.9375,-2.76563 -0.26562,1.28125 -0.71875,2.54688 z m 9.83417,5.48438 v -9.67186 h 1.46875 v 1.46875 q 0.5625,-1.03125 1.03125,-1.35938 0.48438,-0.32812 1.0625,-0.32812 0.82813,0 1.6875,0.53125 l -0.5625,1.51562 q -0.60937,-0.35937 -1.20312,-0.35937 -0.54688,0 -0.96875,0.32812 -0.42188,0.32813 -0.60938,0.89063 -0.28125,0.87498 -0.28125,1.92186 v 5.0625 z m 6.21271,0 v -9.67186 h 1.46875 v 1.46875 q 0.5625,-1.03125 1.03125,-1.35938 0.48437,-0.32812 1.0625,-0.32812 0.82812,0 1.6875,0.53125 l -0.5625,1.51562 q -0.60938,-0.35937 -1.20313,-0.35937 -0.54687,0 -0.96875,0.32812 -0.42187,0.32813 -0.60937,0.89063 -0.28125,0.87498 -0.28125,1.92186 v 5.0625 z m 12.54077,-1.1875 q -0.92187,0.76562 -1.76562,1.09375 -0.82813,0.3125 -1.79688,0.3125 -1.59375,0 -2.45312,-0.78125 -0.85938,-0.78125 -0.85938,-1.98438 0,-0.71875 0.32813,-1.29687 0.32812,-0.59375 0.84375,-0.9375 0.53125,-0.35938 1.1875,-0.54688 0.46875,-0.125 1.45312,-0.25 1.98438,-0.23437 2.92188,-0.5625 0.0156,-0.34375 0.0156,-0.42187 0,-0.99998 -0.46875,-1.42186 -0.625,-0.54687 -1.875,-0.54687 -1.15625,0 -1.70312,0.40625 -0.54688,0.40625 -0.8125,1.42185 l -1.60938,-0.21873 q 0.21875,-1.01562 0.71875,-1.64062 0.5,-0.64063 1.45313,-0.98438 0.95312,-0.34375 2.1875,-0.34375 1.25,0 2.01562,0.29688 0.78125,0.28125 1.14063,0.73437 0.375,0.4375 0.51562,1.10938 0.0781,0.42187 0.0781,1.5156 v 2.1875 q 0,2.28125 0.10937,2.89063 0.10938,0.59375 0.40625,1.15625 H 802.301 q -0.26563,-0.51563 -0.32813,-1.1875 z m -0.14062,-3.67188 q -0.89063,0.375 -2.67188,0.625 -1.01562,0.14063 -1.4375,0.32813 -0.42187,0.1875 -0.65625,0.53125 -0.21875,0.34375 -0.21875,0.78125 0,0.65625 0.5,1.09375 0.5,0.4375 1.45313,0.4375 0.9375,0 1.67187,-0.40625 0.75,-0.42188 1.09375,-1.14063 0.26563,-0.5625 0.26563,-1.64062 z m 4.12573,8.57813 -0.1875,-1.53125 q 0.54687,0.14062 0.9375,0.14062 0.54687,0 0.875,-0.1875 0.32812,-0.17187 0.54687,-0.5 0.15625,-0.25 0.5,-1.21875 0.0469,-0.14062 0.14063,-0.40625 l -3.67188,-9.68748 h 1.76563 l 2.01562,5.59373 q 0.39063,1.07813 0.70313,2.25 0.28125,-1.125 0.67187,-2.20312 l 2.07813,-5.64061 h 1.64062 l -3.6875,9.82811 q -0.59375,1.60937 -0.92187,2.20312 -0.4375,0.8125 -1,1.1875 -0.5625,0.375 -1.34375,0.375 -0.48438,0 -1.0625,-0.20312 z"
       fill="#000000" />
    <path
       id="path1307"
       fill-rule="evenodd"
       d="m 706.3988,239.66379 v 0 c 0,-4.46475 3.61938,-8.08415 8.08417,-8.08415 h 126.82385 c 2.14404,0 4.20025,0.85171 5.71631,2.36778 1.51611,1.51608 2.36779,3.57231 2.36779,5.71637 v 32.33563 c 0,4.46475 -3.61938,8.08414 -8.0841,8.08414 H 714.48297 c -4.46478,0 -8.08417,-3.61939 -8.08417,-8.08414 z"
       fill="#fce5cd" />
    <path
       id="path1309"
       fill-rule="evenodd"
       d="m 706.3988,239.66379 v 0 c 0,-4.46475 3.61938,-8.08415 8.08417,-8.08415 h 126.82385 c 2.14404,0 4.20025,0.85171 5.71631,2.36778 1.51611,1.51608 2.36779,3.57231 2.36779,5.71637 v 32.33563 c 0,4.46475 -3.61938,8.08414 -8.0841,8.08414 H 714.48297 c -4.46478,0 -8.08417,-3.61939 -8.08417,-8.08414 z"
       stroke-linecap="butt"
       stroke-linejoin="round"
       stroke-width="1"
       stroke="#000000" />
    <path
       id="path1311"
       fill-rule="nonzero"
       d="m 755.5773,262.7516 5.125,-13.35936 h 1.90625 l 5.46875,13.35936 h -2.01562 l -1.54688,-4.04688 h -5.59375 l -1.46875,4.04688 z m 3.85938,-5.48438 h 4.53125 l -1.40625,-3.7031 q -0.625,-1.6875 -0.9375,-2.76563 -0.26563,1.28125 -0.71875,2.54688 z m 9.83416,5.48438 v -9.67186 h 1.46875 v 1.46875 q 0.5625,-1.03125 1.03125,-1.35938 0.48438,-0.32812 1.0625,-0.32812 0.82813,0 1.6875,0.53125 l -0.5625,1.51562 q -0.60937,-0.35937 -1.20312,-0.35937 -0.54688,0 -0.96875,0.32812 -0.42188,0.32813 -0.60938,0.89063 -0.28125,0.87498 -0.28125,1.92186 v 5.0625 z m 6.21271,0 v -9.67186 h 1.46875 v 1.46875 q 0.5625,-1.03125 1.03125,-1.35938 0.48438,-0.32812 1.0625,-0.32812 0.82813,0 1.6875,0.53125 l -0.5625,1.51562 q -0.60937,-0.35937 -1.20312,-0.35937 -0.54688,0 -0.96875,0.32812 -0.42188,0.32813 -0.60938,0.89063 -0.28125,0.87498 -0.28125,1.92186 v 5.0625 z m 12.54077,-1.1875 q -0.92187,0.76562 -1.76562,1.09375 -0.82813,0.3125 -1.79688,0.3125 -1.59375,0 -2.45312,-0.78125 -0.85938,-0.78125 -0.85938,-1.98438 0,-0.71875 0.32813,-1.29687 0.32812,-0.59375 0.84375,-0.9375 0.53125,-0.35938 1.1875,-0.54688 0.46875,-0.125 1.45312,-0.25 1.98438,-0.23437 2.92188,-0.5625 0.0156,-0.34375 0.0156,-0.42187 0,-0.99998 -0.46875,-1.42186 -0.625,-0.54687 -1.875,-0.54687 -1.15625,0 -1.70312,0.40625 -0.54688,0.40625 -0.8125,1.42185 l -1.60938,-0.21873 q 0.21875,-1.01562 0.71875,-1.64062 0.5,-0.64063 1.45313,-0.98438 0.95312,-0.34375 2.1875,-0.34375 1.25,0 2.01562,0.29688 0.78125,0.28125 1.14063,0.73437 0.375,0.4375 0.51562,1.10938 0.0781,0.42187 0.0781,1.5156 v 2.1875 q 0,2.28125 0.10937,2.89063 0.10938,0.59375 0.40625,1.15625 h -1.70312 q -0.26563,-0.51563 -0.32813,-1.1875 z m -0.14062,-3.67188 q -0.89063,0.375 -2.67188,0.625 -1.01562,0.14063 -1.4375,0.32813 -0.42187,0.1875 -0.65625,0.53125 -0.21875,0.34375 -0.21875,0.78125 0,0.65625 0.5,1.09375 0.5,0.4375 1.45313,0.4375 0.9375,0 1.67187,-0.40625 0.75,-0.42188 1.09375,-1.14063 0.26563,-0.5625 0.26563,-1.64062 z m 4.12573,8.57813 -0.1875,-1.53125 q 0.54687,0.14062 0.9375,0.14062 0.54687,0 0.875,-0.1875 0.32812,-0.17187 0.54687,-0.5 0.15625,-0.25 0.5,-1.21875 0.0469,-0.14062 0.14063,-0.40625 l -3.67188,-9.68748 h 1.76563 l 2.01562,5.59373 q 0.39063,1.07813 0.70313,2.25 0.28125,-1.125 0.67187,-2.20312 l 2.07813,-5.64061 h 1.64062 l -3.6875,9.82811 q -0.59375,1.60937 -0.92187,2.20312 -0.4375,0.8125 -1,1.1875 -0.5625,0.375 -1.34375,0.375 -0.48438,0 -1.0625,-0.20312 z"
       fill="#000000" />
    <path
       id="path1313"
       fill-rule="evenodd"
       d="m 687.2749,239.66379 v 0 c 0,-4.46475 3.61938,-8.08415 8.08417,-8.08415 h 126.82379 c 2.14404,0 4.20031,0.85171 5.71637,2.36778 1.51605,1.51608 2.3678,3.57231 2.3678,5.71637 v 32.33563 c 0,4.46475 -3.61939,8.08414 -8.08417,8.08414 H 695.35907 c -4.46479,0 -8.08417,-3.61939 -8.08417,-8.08414 z"
       fill="#fce5cd" />
    <path
       id="path1315"
       fill-rule="evenodd"
       d="m 687.2749,239.66379 v 0 c 0,-4.46475 3.61938,-8.08415 8.08417,-8.08415 h 126.82379 c 2.14404,0 4.20031,0.85171 5.71637,2.36778 1.51605,1.51608 2.3678,3.57231 2.3678,5.71637 v 32.33563 c 0,4.46475 -3.61939,8.08414 -8.08417,8.08414 H 695.35907 c -4.46479,0 -8.08417,-3.61939 -8.08417,-8.08414 z"
       stroke-linecap="butt"
       stroke-linejoin="round"
       stroke-width="1"
       stroke="#000000" />
    <path
       id="path1317"
       fill-rule="nonzero"
       d="m 736.4533,262.7516 5.125,-13.35936 h 1.90625 l 5.46875,13.35936 h -2.01562 l -1.54688,-4.04688 h -5.59375 l -1.46875,4.04688 z m 3.85938,-5.48438 h 4.53125 l -1.40625,-3.7031 q -0.625,-1.6875 -0.9375,-2.76563 -0.26563,1.28125 -0.71875,2.54688 z m 9.83422,5.48438 v -9.67186 h 1.46875 v 1.46875 q 0.5625,-1.03125 1.03125,-1.35938 0.48438,-0.32812 1.0625,-0.32812 0.82813,0 1.6875,0.53125 l -0.5625,1.51562 q -0.60937,-0.35937 -1.20312,-0.35937 -0.54688,0 -0.96875,0.32812 -0.42188,0.32813 -0.60938,0.89063 -0.28125,0.87498 -0.28125,1.92186 v 5.0625 z m 6.21265,0 v -9.67186 h 1.46875 v 1.46875 q 0.5625,-1.03125 1.03125,-1.35938 0.48438,-0.32812 1.0625,-0.32812 0.82813,0 1.6875,0.53125 l -0.5625,1.51562 q -0.60937,-0.35937 -1.20312,-0.35937 -0.54688,0 -0.96875,0.32812 -0.42188,0.32813 -0.60938,0.89063 -0.28125,0.87498 -0.28125,1.92186 v 5.0625 z m 12.54083,-1.1875 q -0.92187,0.76562 -1.76562,1.09375 -0.82813,0.3125 -1.79688,0.3125 -1.59375,0 -2.45312,-0.78125 -0.85938,-0.78125 -0.85938,-1.98438 0,-0.71875 0.32813,-1.29687 0.32812,-0.59375 0.84375,-0.9375 0.53125,-0.35938 1.1875,-0.54688 0.46875,-0.125 1.45312,-0.25 1.98438,-0.23437 2.92188,-0.5625 0.0156,-0.34375 0.0156,-0.42187 0,-0.99998 -0.46875,-1.42186 -0.625,-0.54687 -1.875,-0.54687 -1.15625,0 -1.70312,0.40625 -0.54688,0.40625 -0.8125,1.42185 l -1.60938,-0.21873 q 0.21875,-1.01562 0.71875,-1.64062 0.5,-0.64063 1.45313,-0.98438 0.95312,-0.34375 2.1875,-0.34375 1.25,0 2.01562,0.29688 0.78125,0.28125 1.14063,0.73437 0.375,0.4375 0.51562,1.10938 0.0781,0.42187 0.0781,1.5156 v 2.1875 q 0,2.28125 0.10937,2.89063 0.10938,0.59375 0.40625,1.15625 h -1.70312 q -0.26563,-0.51563 -0.32813,-1.1875 z m -0.14062,-3.67188 q -0.89063,0.375 -2.67188,0.625 -1.01562,0.14063 -1.4375,0.32813 -0.42187,0.1875 -0.65625,0.53125 -0.21875,0.34375 -0.21875,0.78125 0,0.65625 0.5,1.09375 0.5,0.4375 1.45313,0.4375 0.9375,0 1.67187,-0.40625 0.75,-0.42188 1.09375,-1.14063 0.26563,-0.5625 0.26563,-1.64062 z m 4.12573,8.57813 -0.1875,-1.53125 q 0.54687,0.14062 0.9375,0.14062 0.54687,0 0.875,-0.1875 0.32812,-0.17187 0.54687,-0.5 0.15625,-0.25 0.5,-1.21875 0.0469,-0.14062 0.14063,-0.40625 l -3.67188,-9.68748 h 1.76563 l 2.01562,5.59373 q 0.39063,1.07813 0.70313,2.25 0.28125,-1.125 0.67187,-2.20312 l 2.07813,-5.64061 h 1.64062 l -3.6875,9.82811 q -0.59375,1.60937 -0.92187,2.20312 -0.4375,0.8125 -1,1.1875 -0.5625,0.375 -1.34375,0.375 -0.48438,0 -1.0625,-0.20312 z"
       fill="#000000" />
    <path
       id="path1319"
       fill-rule="evenodd"
       d="m 669.1372,239.66379 v 0 c 0,-4.46475 3.61938,-8.08415 8.08411,-8.08415 h 126.82385 c 2.14404,0 4.20025,0.85171 5.71637,2.36778 1.51605,1.51608 2.36779,3.57231 2.36779,5.71637 v 32.33563 c 0,4.46475 -3.61944,8.08414 -8.08416,8.08414 H 677.22131 c -4.46473,0 -8.08411,-3.61939 -8.08411,-8.08414 z"
       fill="#fce5cd" />
    <path
       id="path1321"
       fill-rule="evenodd"
       d="m 669.1372,239.66379 v 0 c 0,-4.46475 3.61938,-8.08415 8.08411,-8.08415 h 126.82385 c 2.14404,0 4.20025,0.85171 5.71637,2.36778 1.51605,1.51608 2.36779,3.57231 2.36779,5.71637 v 32.33563 c 0,4.46475 -3.61944,8.08414 -8.08416,8.08414 H 677.22131 c -4.46473,0 -8.08411,-3.61939 -8.08411,-8.08414 z"
       stroke-linecap="butt"
       stroke-linejoin="round"
       stroke-width="1"
       stroke="#000000" />
    <path
       id="path1323"
       fill-rule="nonzero"
       d="m 718.3156,262.7516 5.125,-13.35936 h 1.90625 l 5.46875,13.35936 h -2.01562 l -1.54688,-4.04688 h -5.59375 l -1.46875,4.04688 z m 3.85938,-5.48438 h 4.53125 l -1.40625,-3.7031 q -0.625,-1.6875 -0.9375,-2.76563 -0.26563,1.28125 -0.71875,2.54688 z m 9.83416,5.48438 v -9.67186 h 1.46875 v 1.46875 q 0.5625,-1.03125 1.03125,-1.35938 0.48438,-0.32812 1.0625,-0.32812 0.82813,0 1.6875,0.53125 l -0.5625,1.51562 q -0.60937,-0.35937 -1.20312,-0.35937 -0.54688,0 -0.96875,0.32812 -0.42188,0.32813 -0.60938,0.89063 -0.28125,0.87498 -0.28125,1.92186 v 5.0625 z m 6.21271,0 v -9.67186 h 1.46875 v 1.46875 q 0.5625,-1.03125 1.03125,-1.35938 0.48438,-0.32812 1.0625,-0.32812 0.82813,0 1.6875,0.53125 l -0.5625,1.51562 q -0.60937,-0.35937 -1.20312,-0.35937 -0.54688,0 -0.96875,0.32812 -0.42188,0.32813 -0.60938,0.89063 -0.28125,0.87498 -0.28125,1.92186 v 5.0625 z m 12.54077,-1.1875 q -0.92187,0.76562 -1.76562,1.09375 -0.82813,0.3125 -1.79688,0.3125 -1.59375,0 -2.45312,-0.78125 -0.85938,-0.78125 -0.85938,-1.98438 0,-0.71875 0.32813,-1.29687 0.32812,-0.59375 0.84375,-0.9375 0.53125,-0.35938 1.1875,-0.54688 0.46875,-0.125 1.45312,-0.25 1.98438,-0.23437 2.92188,-0.5625 0.0156,-0.34375 0.0156,-0.42187 0,-0.99998 -0.46875,-1.42186 -0.625,-0.54687 -1.875,-0.54687 -1.15625,0 -1.70312,0.40625 -0.54688,0.40625 -0.8125,1.42185 l -1.60938,-0.21873 q 0.21875,-1.01562 0.71875,-1.64062 0.5,-0.64063 1.45313,-0.98438 0.95312,-0.34375 2.1875,-0.34375 1.25,0 2.01562,0.29688 0.78125,0.28125 1.14063,0.73437 0.375,0.4375 0.51562,1.10938 0.0781,0.42187 0.0781,1.5156 v 2.1875 q 0,2.28125 0.10937,2.89063 0.10938,0.59375 0.40625,1.15625 h -1.70312 q -0.26563,-0.51563 -0.32813,-1.1875 z m -0.14062,-3.67188 q -0.89063,0.375 -2.67188,0.625 -1.01562,0.14063 -1.4375,0.32813 -0.42187,0.1875 -0.65625,0.53125 -0.21875,0.34375 -0.21875,0.78125 0,0.65625 0.5,1.09375 0.5,0.4375 1.45313,0.4375 0.9375,0 1.67187,-0.40625 0.75,-0.42188 1.09375,-1.14063 0.26563,-0.5625 0.26563,-1.64062 z m 4.12573,8.57813 -0.1875,-1.53125 q 0.54687,0.14062 0.9375,0.14062 0.54687,0 0.875,-0.1875 0.32812,-0.17187 0.54687,-0.5 0.15625,-0.25 0.5,-1.21875 0.0469,-0.14062 0.14063,-0.40625 l -3.67188,-9.68748 h 1.76563 l 2.01562,5.59373 q 0.39063,1.07813 0.70313,2.25 0.28125,-1.125 0.67187,-2.20312 l 2.07813,-5.64061 h 1.64062 l -3.6875,9.82811 q -0.59375,1.60937 -0.92187,2.20312 -0.4375,0.8125 -1,1.1875 -0.5625,0.375 -1.34375,0.375 -0.48438,0 -1.0625,-0.20312 z"
       fill="#000000" />
    <path
       id="path1325"
       fill-rule="evenodd"
       d="m 654.703,239.66379 v 0 c 0,-4.46475 3.61938,-8.08415 8.08417,-8.08415 h 126.82379 c 2.1441,0 4.20031,0.85171 5.71637,2.36778 1.51611,1.51608 2.3678,3.57231 2.3678,5.71637 v 32.33563 c 0,4.46475 -3.61939,8.08414 -8.08417,8.08414 H 662.78717 c -4.46479,0 -8.08417,-3.61939 -8.08417,-8.08414 z"
       fill="#fce5cd" />
    <path
       id="path1327"
       fill-rule="evenodd"
       d="m 654.703,239.66379 v 0 c 0,-4.46475 3.61938,-8.08415 8.08417,-8.08415 h 126.82379 c 2.1441,0 4.20031,0.85171 5.71637,2.36778 1.51611,1.51608 2.3678,3.57231 2.3678,5.71637 v 32.33563 c 0,4.46475 -3.61939,8.08414 -8.08417,8.08414 H 662.78717 c -4.46479,0 -8.08417,-3.61939 -8.08417,-8.08414 z"
       stroke-linecap="butt"
       stroke-linejoin="round"
       stroke-width="1"
       stroke="#000000" />
    <path
       id="path1329"
       fill-rule="nonzero"
       d="m 703.8815,262.7516 5.125,-13.35936 h 1.90625 l 5.46875,13.35936 h -2.01563 l -1.54687,-4.04688 h -5.59375 l -1.46875,4.04688 z m 3.85937,-5.48438 h 4.53125 l -1.40625,-3.7031 q -0.625,-1.6875 -0.9375,-2.76563 -0.26562,1.28125 -0.71875,2.54688 z m 9.83417,5.48438 v -9.67186 h 1.46875 v 1.46875 q 0.5625,-1.03125 1.03125,-1.35938 0.48438,-0.32812 1.0625,-0.32812 0.82813,0 1.6875,0.53125 l -0.5625,1.51562 q -0.60937,-0.35937 -1.20312,-0.35937 -0.54688,0 -0.96875,0.32812 -0.42188,0.32813 -0.60938,0.89063 -0.28125,0.87498 -0.28125,1.92186 v 5.0625 z m 6.21271,0 v -9.67186 h 1.46875 v 1.46875 q 0.5625,-1.03125 1.03125,-1.35938 0.48437,-0.32812 1.0625,-0.32812 0.82812,0 1.6875,0.53125 l -0.5625,1.51562 q -0.60938,-0.35937 -1.20313,-0.35937 -0.54687,0 -0.96875,0.32812 -0.42187,0.32813 -0.60937,0.89063 -0.28125,0.87498 -0.28125,1.92186 v 5.0625 z m 12.54077,-1.1875 q -0.92187,0.76562 -1.76562,1.09375 -0.82813,0.3125 -1.79688,0.3125 -1.59375,0 -2.45312,-0.78125 -0.85938,-0.78125 -0.85938,-1.98438 0,-0.71875 0.32813,-1.29687 0.32812,-0.59375 0.84375,-0.9375 0.53125,-0.35938 1.1875,-0.54688 0.46875,-0.125 1.45312,-0.25 1.98438,-0.23437 2.92188,-0.5625 0.0156,-0.34375 0.0156,-0.42187 0,-0.99998 -0.46875,-1.42186 -0.625,-0.54687 -1.875,-0.54687 -1.15625,0 -1.70312,0.40625 -0.54688,0.40625 -0.8125,1.42185 l -1.60938,-0.21873 q 0.21875,-1.01562 0.71875,-1.64062 0.5,-0.64063 1.45313,-0.98438 0.95312,-0.34375 2.1875,-0.34375 1.25,0 2.01562,0.29688 0.78125,0.28125 1.14063,0.73437 0.375,0.4375 0.51562,1.10938 0.0781,0.42187 0.0781,1.5156 v 2.1875 q 0,2.28125 0.10937,2.89063 0.10938,0.59375 0.40625,1.15625 h -1.70312 q -0.26563,-0.51563 -0.32813,-1.1875 z m -0.14062,-3.67188 q -0.89063,0.375 -2.67188,0.625 -1.01562,0.14063 -1.4375,0.32813 -0.42187,0.1875 -0.65625,0.53125 -0.21875,0.34375 -0.21875,0.78125 0,0.65625 0.5,1.09375 0.5,0.4375 1.45313,0.4375 0.9375,0 1.67187,-0.40625 0.75,-0.42188 1.09375,-1.14063 0.26563,-0.5625 0.26563,-1.64062 z m 4.12573,8.57813 -0.1875,-1.53125 q 0.54687,0.14062 0.9375,0.14062 0.54687,0 0.875,-0.1875 0.32812,-0.17187 0.54687,-0.5 0.15625,-0.25 0.5,-1.21875 0.0469,-0.14062 0.14063,-0.40625 l -3.67188,-9.68748 h 1.76563 l 2.01562,5.59373 q 0.39063,1.07813 0.70313,2.25 0.28125,-1.125 0.67187,-2.20312 l 2.07813,-5.64061 h 1.64062 l -3.6875,9.82811 q -0.59375,1.60937 -0.92187,2.20312 -0.4375,0.8125 -1,1.1875 -0.5625,0.375 -1.34375,0.375 -0.48438,0 -1.0625,-0.20312 z"
       fill="#000000" />
    <path
       id="path1331"
       fill-rule="evenodd"
       d="m 700.0262,162.69643 h 183.62207 v 48.50394 H 700.0262 Z"
       fill="#f4cccc" />
    <path
       id="path1333"
       fill-rule="nonzero"
       d="m 770.03424,193.8684 5.125,-13.35938 h 1.90625 l 5.46875,13.35938 h -2.01563 l -1.54687,-4.04688 h -5.59375 l -1.46875,4.04688 z m 3.85937,-5.48438 h 4.53125 l -1.40625,-3.70312 q -0.625,-1.6875 -0.9375,-2.76563 -0.26562,1.28125 -0.71875,2.54688 z m 16.16236,1.9375 1.60937,0.21875 q -0.26562,1.65625 -1.35937,2.60938 -1.07813,0.9375 -2.67188,0.9375 -1.98437,0 -3.1875,-1.29688 -1.20312,-1.29687 -1.20312,-3.71875 0,-1.57812 0.51562,-2.75 0.51563,-1.17187 1.57813,-1.75 1.0625,-0.59375 2.3125,-0.59375 1.57812,0 2.57812,0.79688 1,0.79687 1.28125,2.26562 l -1.59375,0.23438 q -0.23437,-0.96875 -0.8125,-1.45313 -0.57812,-0.5 -1.39062,-0.5 -1.23438,0 -2.01563,0.89063 -0.78125,0.89062 -0.78125,2.8125 0,1.95312 0.75,2.84375 0.75,0.875 1.95313,0.875 0.96875,0 1.60937,-0.59375 0.65625,-0.59375 0.82813,-1.82813 z m 6.59375,2.07813 0.23437,1.45312 q -0.6875,0.14063 -1.23437,0.14063 -0.89063,0 -1.39063,-0.28125 -0.48437,-0.28125 -0.6875,-0.73438 -0.20312,-0.46875 -0.20312,-1.9375 v -5.57812 h -1.20313 v -1.26563 h 1.20313 v -2.39062 l 1.625,-0.98438 v 3.375 h 1.65625 v 1.26563 h -1.65625 v 5.67187 q 0,0.6875 0.0781,0.89063 0.0937,0.20312 0.28125,0.32812 0.20313,0.10938 0.57813,0.10938 0.26562,0 0.71875,-0.0625 z m 0.99579,-3.375 q 0,-2.6875 1.48437,-3.96875 1.25,-1.07813 3.04688,-1.07813 2,0 3.26562,1.3125 1.26563,1.29688 1.26563,3.60938 0,1.85937 -0.5625,2.9375 -0.5625,1.0625 -1.64063,1.65625 -1.0625,0.59375 -2.32812,0.59375 -2.03125,0 -3.28125,-1.29688 -1.25,-1.3125 -1.25,-3.76562 z m 1.6875,0 q 0,1.85937 0.79687,2.79687 0.8125,0.92188 2.04688,0.92188 1.21875,0 2.03125,-0.92188 0.8125,-0.9375 0.8125,-2.84375 0,-1.79687 -0.8125,-2.71875 -0.8125,-0.92187 -2.03125,-0.92187 -1.23438,0 -2.04688,0.92187 -0.79687,0.90625 -0.79687,2.76563 z m 9.28198,4.84375 v -9.67188 h 1.46875 v 1.46875 q 0.5625,-1.03125 1.03125,-1.35937 0.48437,-0.32813 1.0625,-0.32813 0.82812,0 1.6875,0.53125 l -0.5625,1.51563 q -0.60938,-0.35938 -1.20313,-0.35938 -0.54687,0 -0.96875,0.32813 -0.42187,0.32812 -0.60937,0.89062 -0.28125,0.875 -0.28125,1.92188 v 5.0625 z"
       fill="#000000" />
    <path
       id="path1335"
       fill-rule="evenodd"
       d="m 412.56168,210.46742 224.50394,-1.88977"
       fill-opacity="0"
       fill="#000000" />
    <path
       id="path1337"
       fill-rule="evenodd"
       d="M 412.56168,210.46742 631.0658,208.62816"
       stroke-linecap="butt"
       stroke-linejoin="round"
       stroke-width="1"
       stroke="#000000" />
    <path
       id="path1339"
       fill-rule="evenodd"
       d="m 631.0797,210.27983 4.52405,-1.68987 -4.55182,-1.61347 z"
       stroke-linecap="butt"
       stroke-width="1"
       stroke="#000000"
       fill="#000000" />
    <path
       id="path1341"
       fill-rule="evenodd"
       d="M 412.00626,169.15533 H 636.5102 v 33.10236 H 412.00626 Z"
       fill-opacity="0"
       fill="#000000" />
    <path
       id="path1343"
       fill-rule="nonzero"
       d="m 428.06876,196.07533 -0.0469,-1.21875 q -0.29687,0.3125 -0.625,0.57812 -0.3125,0.26563 -0.70312,0.45313 -0.375,0.1875 -0.82813,0.28125 -0.4375,0.10937 -0.98437,0.10937 -0.70313,0 -1.25,-0.20312 -0.53125,-0.20313 -0.90625,-0.57813 -0.35938,-0.375 -0.54688,-0.90625 -0.17187,-0.53125 -0.17187,-1.17187 0,-0.65625 0.26562,-1.20313 0.28125,-0.5625 0.84375,-0.95312 0.57813,-0.40625 1.42188,-0.625 0.85937,-0.23438 2,-0.23438 h 1.21875 v -0.5625 q 0,-0.35937 -0.10938,-0.64062 -0.0937,-0.28125 -0.3125,-0.48438 -0.21875,-0.20312 -0.57812,-0.3125 -0.35938,-0.10937 -0.875,-0.10937 -0.82813,0 -1.625,0.1875 -0.79688,0.1875 -1.53125,0.53125 v -1.78125 q 0.65625,-0.26563 1.53125,-0.4375 0.875,-0.17188 1.8125,-0.17188 1.01562,0 1.75,0.20313 0.75,0.1875 1.21875,0.57812 0.48437,0.39063 0.70312,0.98438 0.23438,0.57812 0.23438,1.35937 v 6.32813 z m -0.3125,-4.09375 h -1.35938 q -0.5625,0 -0.95312,0.10937 -0.39063,0.10938 -0.64063,0.3125 -0.25,0.1875 -0.35937,0.4375 -0.10938,0.25 -0.10938,0.53125 0,0.5625 0.35938,0.85938 0.35937,0.29687 1,0.29687 0.45312,0 0.95312,-0.32812 0.51563,-0.34375 1.10938,-0.96875 z m 12.25729,3.73437 q -0.65625,0.26563 -1.35937,0.39063 -0.6875,0.125 -1.45313,0.125 -1.10937,0 -1.98437,-0.29688 -0.875,-0.29687 -1.48438,-0.89062 -0.60937,-0.59375 -0.9375,-1.46875 -0.3125,-0.875 -0.3125,-2.01563 0,-1.10937 0.34375,-2.01562 0.34375,-0.90625 0.98438,-1.53125 0.64062,-0.64063 1.53125,-0.98438 0.90625,-0.35937 2,-0.35937 0.90625,0 1.51562,0.10937 0.625,0.0937 1.10938,0.23438 v 2.15625 q -0.5625,-0.28125 -1.21875,-0.4375 -0.65625,-0.15625 -1.25,-0.15625 -0.625,0 -1.125,0.21875 -0.48438,0.20312 -0.82813,0.57812 -0.32812,0.375 -0.51562,0.90625 -0.17188,0.53125 -0.17188,1.17188 0,0.65625 0.1875,1.1875 0.20313,0.53125 0.54688,0.90625 0.35937,0.35937 0.84375,0.5625 0.5,0.1875 1.09375,0.1875 0.29687,0 0.60937,-0.0312 0.32813,-0.0469 0.65625,-0.125 0.32813,-0.0781 0.64063,-0.17188 0.3125,-0.10937 0.57812,-0.21875 z m 10.41355,0.26563 q -0.60938,0.14062 -1.21875,0.21875 -0.60938,0.0781 -1.15625,0.0781 -0.90625,0 -1.57813,-0.1875 -0.65625,-0.1875 -1.09375,-0.57812 -0.42187,-0.39063 -0.625,-1 -0.20312,-0.60938 -0.20312,-1.4375 v -4.53125 h -2.5 v -1.71875 h 2.5 v -2.375 l 2.26562,-0.59375 v 2.96875 h 3.60938 v 1.71875 h -3.60938 v 4.35937 q 0,0.79688 0.35938,1.20313 0.375,0.40625 1.23437,0.40625 0.54688,0 1.0625,-0.0937 0.51563,-0.0937 0.95313,-0.21875 z m 10.94479,-4.60938 q 0,1.09375 -0.3125,2 -0.29687,0.90625 -0.89062,1.5625 -0.57813,0.64063 -1.42188,1 -0.84375,0.34375 -1.9375,0.34375 -1.01562,0 -1.82812,-0.29687 -0.8125,-0.29688 -1.39063,-0.89063 -0.5625,-0.59375 -0.85937,-1.48437 -0.29688,-0.90625 -0.29688,-2.10938 0,-1.09375 0.3125,-2 0.3125,-0.90625 0.89063,-1.53125 0.59375,-0.64062 1.4375,-0.98437 0.85937,-0.35938 1.92187,-0.35938 1.04688,0 1.84375,0.3125 0.8125,0.29688 1.375,0.90625 0.57813,0.59375 0.85938,1.48438 0.29687,0.89062 0.29687,2.04687 z m -2.3125,0.0625 q 0,-1.4375 -0.54687,-2.15625 -0.53125,-0.73437 -1.59375,-0.73437 -0.57813,0 -0.98438,0.23437 -0.40625,0.21875 -0.67187,0.625 -0.26563,0.39063 -0.39063,0.92188 -0.125,0.51562 -0.125,1.125 0,1.45312 0.57813,2.1875 0.59375,0.71875 1.59375,0.71875 0.5625,0 0.96875,-0.21875 0.40625,-0.21875 0.65625,-0.60938 0.26562,-0.40625 0.39062,-0.9375 0.125,-0.54687 0.125,-1.15625 z m 10.1948,-1.01562 q 0.0156,-0.51563 -0.0469,-0.875 -0.0625,-0.375 -0.21875,-0.60938 -0.14062,-0.23437 -0.35937,-0.34375 -0.21875,-0.10937 -0.51563,-0.10937 -0.48437,0 -1.01562,0.40625 -0.51563,0.40625 -1.14063,1.32812 v 5.85938 h -2.28125 v -9.25 h 2.01563 l 0.0781,1.34375 q 0.23438,-0.35938 0.51563,-0.64063 0.28125,-0.28125 0.625,-0.48437 0.35937,-0.20313 0.78125,-0.3125 0.4375,-0.10938 0.95312,-0.10938 0.70313,0 1.23438,0.25 0.54687,0.23438 0.90625,0.70313 0.375,0.46875 0.54687,1.1875 0.1875,0.71875 0.15625,1.65625 z m 8.11666,2.29687 q 0.375,0 0.70313,0.14063 0.32812,0.14062 0.5625,0.39062 0.25,0.23438 0.39062,0.5625 0.14063,0.32813 0.14063,0.70313 0,0.35937 -0.14063,0.6875 -0.14062,0.3125 -0.39062,0.5625 -0.23438,0.23437 -0.5625,0.375 -0.32813,0.14062 -0.70313,0.14062 -0.375,0 -0.6875,-0.14062 -0.3125,-0.14063 -0.5625,-0.375 -0.23437,-0.25 -0.375,-0.5625 -0.125,-0.32813 -0.125,-0.6875 0,-0.375 0.125,-0.70313 0.14063,-0.32812 0.375,-0.5625 0.25,-0.25 0.5625,-0.39062 0.3125,-0.14063 0.6875,-0.14063 z m 13.92917,3 q -0.65625,0.26563 -1.35937,0.39063 -0.6875,0.125 -1.45313,0.125 -1.10937,0 -1.98437,-0.29688 -0.875,-0.29687 -1.48438,-0.89062 -0.60937,-0.59375 -0.9375,-1.46875 -0.3125,-0.875 -0.3125,-2.01563 0,-1.10937 0.34375,-2.01562 0.34375,-0.90625 0.98438,-1.53125 0.64062,-0.64063 1.53125,-0.98438 0.90625,-0.35937 2,-0.35937 0.90625,0 1.51562,0.10937 0.625,0.0937 1.10938,0.23438 v 2.15625 q -0.5625,-0.28125 -1.21875,-0.4375 -0.65625,-0.15625 -1.25,-0.15625 -0.625,0 -1.125,0.21875 -0.48438,0.20312 -0.82813,0.57812 -0.32812,0.375 -0.51562,0.90625 -0.17188,0.53125 -0.17188,1.17188 0,0.65625 0.1875,1.1875 0.20313,0.53125 0.54688,0.90625 0.35937,0.35937 0.84375,0.5625 0.5,0.1875 1.09375,0.1875 0.29687,0 0.60937,-0.0312 0.32813,-0.0469 0.65625,-0.125 0.32813,-0.0781 0.64063,-0.17188 0.3125,-0.10937 0.57812,-0.21875 z m 8.5698,0.35938 -0.0469,-1.21875 q -0.29687,0.3125 -0.625,0.57812 -0.3125,0.26563 -0.70312,0.45313 -0.375,0.1875 -0.82813,0.28125 -0.4375,0.10937 -0.98437,0.10937 -0.70313,0 -1.25,-0.20312 -0.53125,-0.20313 -0.90625,-0.57813 -0.35938,-0.375 -0.54688,-0.90625 -0.17187,-0.53125 -0.17187,-1.17187 0,-0.65625 0.26562,-1.20313 0.28125,-0.5625 0.84375,-0.95312 0.57813,-0.40625 1.42188,-0.625 0.85937,-0.23438 2,-0.23438 h 1.21875 v -0.5625 q 0,-0.35937 -0.10938,-0.64062 -0.0937,-0.28125 -0.3125,-0.48438 -0.21875,-0.20312 -0.57812,-0.3125 -0.35938,-0.10937 -0.875,-0.10937 -0.82813,0 -1.625,0.1875 -0.79688,0.1875 -1.53125,0.53125 v -1.78125 q 0.65625,-0.26563 1.53125,-0.4375 0.875,-0.17188 1.8125,-0.17188 1.01562,0 1.75,0.20313 0.75,0.1875 1.21875,0.57812 0.48437,0.39063 0.70312,0.98438 0.23438,0.57812 0.23438,1.35937 v 6.32813 z m -0.3125,-4.09375 h -1.35938 q -0.5625,0 -0.95312,0.10937 -0.39063,0.10938 -0.64063,0.3125 -0.25,0.1875 -0.35937,0.4375 -0.10938,0.25 -0.10938,0.53125 0,0.5625 0.35938,0.85938 0.35937,0.29687 1,0.29687 0.45312,0 0.95312,-0.32812 0.51563,-0.34375 1.10938,-0.96875 z m 7.75729,-7.04688 h -2.60937 v -1.73437 h 4.89062 v 11.14062 h 2.67185 v 1.73438 h -7.87497 v -1.73438 h 2.92187 z m 10.2573,0 h -2.60938 v -1.73437 h 4.89063 v 11.14062 h 2.67187 v 1.73438 h -7.875 v -1.73438 h 2.92188 z m 11.08538,7.78125 q 0.375,0 0.70313,0.14063 0.32812,0.14062 0.5625,0.39062 0.25,0.23438 0.39062,0.5625 0.14063,0.32813 0.14063,0.70313 0,0.35937 -0.14063,0.6875 -0.14062,0.3125 -0.39062,0.5625 -0.23438,0.23437 -0.5625,0.375 -0.32813,0.14062 -0.70313,0.14062 -0.375,0 -0.6875,-0.14062 -0.3125,-0.14063 -0.5625,-0.375 -0.23437,-0.25 -0.375,-0.5625 -0.125,-0.32813 -0.125,-0.6875 0,-0.375 0.125,-0.70313 0.14063,-0.32812 0.375,-0.5625 0.25,-0.25 0.5625,-0.39062 0.3125,-0.14063 0.6875,-0.14063 z m 12.39795,-2.29687 q 0.0156,-0.51563 -0.0469,-0.875 -0.0625,-0.375 -0.21875,-0.60938 -0.14063,-0.23437 -0.35938,-0.34375 -0.21875,-0.10937 -0.51562,-0.10937 -0.48438,0 -1.01563,0.40625 -0.51562,0.40625 -1.14062,1.32812 v 5.85938 h -2.28125 v -9.25 h 2.01562 l 0.0781,1.34375 q 0.23437,-0.35938 0.51562,-0.64063 0.28125,-0.28125 0.625,-0.48437 0.35938,-0.20313 0.78125,-0.3125 0.4375,-0.10938 0.95313,-0.10938 0.70312,0 1.23437,0.25 0.54688,0.23438 0.90625,0.70313 0.375,0.46875 0.54688,1.1875 0.1875,0.71875 0.15625,1.65625 z m 12.36664,0.3125 q 0,0.23437 -0.0156,0.60937 -0.0156,0.35938 -0.0312,0.67188 h -6.09375 q 0,0.60937 0.1875,1.07812 0.1875,0.46875 0.53125,0.78125 0.34375,0.3125 0.8125,0.48438 0.48437,0.15625 1.0625,0.15625 0.67187,0 1.4375,-0.10938 0.78125,-0.10937 1.60937,-0.34375 v 1.76563 q -0.35937,0.10937 -0.78125,0.1875 -0.40625,0.0781 -0.84375,0.14062 -0.4375,0.0625 -0.89062,0.0937 -0.45313,0.0312 -0.85938,0.0312 -1.0625,0 -1.90625,-0.29687 -0.82812,-0.29688 -1.42187,-0.875 -0.57813,-0.59375 -0.89063,-1.45313 -0.3125,-0.875 -0.3125,-2.01562 0,-1.125 0.3125,-2.04688 0.3125,-0.9375 0.875,-1.59375 0.5625,-0.65625 1.375,-1.01562 0.8125,-0.35938 1.79688,-0.35938 0.98437,0 1.73437,0.3125 0.76563,0.29688 1.26563,0.84375 0.51562,0.54688 0.78125,1.3125 0.26562,0.75 0.26562,1.64063 z m -2.26562,-0.3125 q 0.0156,-0.54688 -0.14063,-0.95313 -0.14062,-0.40625 -0.39062,-0.67187 -0.25,-0.26563 -0.57813,-0.39063 -0.32812,-0.125 -0.71875,-0.125 -0.82812,0 -1.375,0.5625 -0.53125,0.5625 -0.64062,1.57813 z m 10.99169,5.65625 v -6.29688 q 0,-0.35937 -0.0156,-0.60937 -0.0156,-0.26563 -0.0781,-0.4375 -0.0469,-0.17188 -0.15625,-0.25 -0.10937,-0.0937 -0.28125,-0.0937 -0.28125,0 -0.5625,0.39062 -0.26562,0.375 -0.625,1.29688 v 6 h -1.89062 v -6.29688 q 0,-0.35937 -0.0312,-0.60937 -0.0156,-0.26563 -0.0781,-0.4375 -0.0469,-0.17188 -0.15625,-0.25 -0.10937,-0.0937 -0.28125,-0.0937 -0.25,0 -0.54687,0.39062 -0.28125,0.375 -0.64063,1.29688 v 6 h -1.92187 v -9.25 h 1.65625 l 0.0312,1.34375 q 0.20312,-0.40625 0.40625,-0.70313 0.20312,-0.29687 0.42187,-0.48437 0.23438,-0.1875 0.48438,-0.26563 0.26562,-0.0781 0.59375,-0.0781 0.78125,0 1.1875,0.40625 0.40625,0.40625 0.45312,1.125 0.21875,-0.40625 0.42188,-0.70313 0.21875,-0.29687 0.45312,-0.48437 0.23438,-0.1875 0.5,-0.26563 0.28125,-0.0781 0.60938,-0.0781 1,0 1.48437,0.70312 0.48438,0.70313 0.48438,2.09375 v 6.64063 z m 12.05414,-4.70313 q 0,1.09375 -0.3125,2 -0.29687,0.90625 -0.89062,1.5625 -0.57813,0.64063 -1.42188,1 -0.84375,0.34375 -1.9375,0.34375 -1.01562,0 -1.82812,-0.29687 -0.8125,-0.29688 -1.39063,-0.89063 -0.5625,-0.59375 -0.85937,-1.48437 -0.29688,-0.90625 -0.29688,-2.10938 0,-1.09375 0.3125,-2 0.3125,-0.90625 0.89063,-1.53125 0.59375,-0.64062 1.4375,-0.98437 0.85937,-0.35938 1.92187,-0.35938 1.04688,0 1.84375,0.3125 0.8125,0.29688 1.375,0.90625 0.57813,0.59375 0.85938,1.48438 0.29687,0.89062 0.29687,2.04687 z m -2.3125,0.0625 q 0,-1.4375 -0.54687,-2.15625 -0.53125,-0.73437 -1.59375,-0.73437 -0.57813,0 -0.98438,0.23437 -0.40625,0.21875 -0.67187,0.625 -0.26563,0.39063 -0.39063,0.92188 -0.125,0.51562 -0.125,1.125 0,1.45312 0.57813,2.1875 0.59375,0.71875 1.59375,0.71875 0.5625,0 0.96875,-0.21875 0.40625,-0.21875 0.65625,-0.60938 0.26562,-0.40625 0.39062,-0.9375 0.125,-0.54687 0.125,-1.15625 z m 11.88233,4.54688 q -0.60938,0.14062 -1.21875,0.21875 -0.60938,0.0781 -1.15625,0.0781 -0.90625,0 -1.57813,-0.1875 -0.65625,-0.1875 -1.09375,-0.57812 -0.42187,-0.39063 -0.625,-1 -0.20312,-0.60938 -0.20312,-1.4375 v -4.53125 h -2.5 v -1.71875 h 2.5 v -2.375 l 2.26562,-0.59375 v 2.96875 h 3.60938 v 1.71875 h -3.60938 v 4.35937 q 0,0.79688 0.35938,1.20313 0.375,0.40625 1.23437,0.40625 0.54688,0 1.0625,-0.0937 0.51563,-0.0937 0.95313,-0.21875 z m 10.67913,-5.25 q 0,0.23437 -0.0156,0.60937 -0.0156,0.35938 -0.0312,0.67188 h -6.09375 q 0,0.60937 0.1875,1.07812 0.1875,0.46875 0.53125,0.78125 0.34375,0.3125 0.8125,0.48438 0.48437,0.15625 1.0625,0.15625 0.67187,0 1.4375,-0.10938 0.78125,-0.10937 1.60937,-0.34375 v 1.76563 q -0.35937,0.10937 -0.78125,0.1875 -0.40625,0.0781 -0.84375,0.14062 -0.4375,0.0625 -0.89062,0.0937 -0.45313,0.0312 -0.85938,0.0312 -1.0625,0 -1.90625,-0.29687 -0.82812,-0.29688 -1.42187,-0.875 -0.57813,-0.59375 -0.89063,-1.45313 -0.3125,-0.875 -0.3125,-2.01562 0,-1.125 0.3125,-2.04688 0.3125,-0.9375 0.875,-1.59375 0.5625,-0.65625 1.375,-1.01562 0.8125,-0.35938 1.79688,-0.35938 0.98437,0 1.73437,0.3125 0.76563,0.29688 1.26563,0.84375 0.51562,0.54688 0.78125,1.3125 0.26562,0.75 0.26562,1.64063 z m -2.26562,-0.3125 q 0.0156,-0.54688 -0.14063,-0.95313 -0.14062,-0.40625 -0.39062,-0.67187 -0.25,-0.26563 -0.57813,-0.39063 -0.32812,-0.125 -0.71875,-0.125 -0.82812,0 -1.375,0.5625 -0.53125,0.5625 -0.64062,1.57813 z"
       fill="#000000" />
    <path
       id="path1345"
       fill-rule="evenodd"
       d="m 412.55817,229.47305 224.5039,-1.92125"
       fill-opacity="0"
       fill="#000000" />
    <path
       id="path1347"
       fill-rule="evenodd"
       d="m 412.55817,229.47305 218.50415,-1.86992"
       stroke-linecap="butt"
       stroke-linejoin="round"
       stroke-width="1"
       stroke="#000000" />
    <path
       id="path1349"
       fill-rule="evenodd"
       d="m 631.0764,229.2548 4.5238,-1.69051 -4.55206,-1.61283 z"
       stroke-linecap="butt"
       stroke-width="1"
       stroke="#000000"
       fill="#000000" />
    <path
       id="path1351"
       fill-rule="evenodd"
       d="m 412.55817,248.46959 224.5039,-1.92125"
       fill-opacity="0"
       fill="#000000" />
    <path
       id="path1353"
       fill-rule="evenodd"
       d="m 412.55817,248.46959 218.50415,-1.86992"
       stroke-linecap="butt"
       stroke-linejoin="round"
       stroke-width="1"
       stroke="#000000" />
    <path
       id="path1355"
       fill-rule="evenodd"
       d="m 631.0764,248.25134 4.5238,-1.69051 -4.55206,-1.61283 z"
       stroke-linecap="butt"
       stroke-width="1"
       stroke="#000000"
       fill="#000000" />
    <path
       id="path1357"
       fill-rule="evenodd"
       d="m 412.55817,259.67294 224.5039,-2.67715"
       fill-opacity="0"
       fill="#000000" />
    <path
       id="path1359"
       fill-rule="evenodd"
       d="M 412.55817,259.67294 631.0625,257.06732"
       stroke-linecap="butt"
       stroke-linejoin="round"
       stroke-width="1"
       stroke="#000000" />
    <path
       id="path1361"
       fill-rule="evenodd"
       d="m 631.0822,258.71893 4.51807,-1.70572 -4.55744,-1.5975 z"
       stroke-linecap="butt"
       stroke-width="1"
       stroke="#000000"
       fill="#000000" />
    <path
       id="path1363"
       fill-rule="evenodd"
       d="m 650.36444,269.95956 22.97369,-17.63924 -1.82934,23.46886 24.0368,-10.5827 -11.23144,13.64987 36.03442,0.45908 -31.85803,11.20019 8.87054,7.66995 -13.04693,4.14371 17.23718,13.49551 -29.24866,-5.20806 2.08478,12.26864 -19.06653,-5.82965 -3.92096,11.8096 -12.01153,-5.97995 -8.09046,9.51431 -8.09741,-6.44714 -18.01721,14.11707 -0.77313,-13.64988 -24.29914,-1.68594 14.11695,-9.97336 -22.98749,-10.12771 27.16394,-5.22028 -19.07343,-13.49551 28.99323,-1.84031 -6.00574,-17.02987 27.94397,11.20022 8.09046,-18.26077 z"
       fill="#ffffff" />
    <path
       id="path1365"
       fill-rule="evenodd"
       d="m 650.36444,269.95956 22.97369,-17.63924 -1.82934,23.46886 24.0368,-10.5827 -11.23144,13.64987 36.03442,0.45908 -31.85803,11.20019 8.87054,7.66995 -13.04693,4.14371 17.23718,13.49551 -29.24866,-5.20806 2.08478,12.26864 -19.06653,-5.82965 -3.92096,11.8096 -12.01153,-5.97995 -8.09046,9.51431 -8.09741,-6.44714 -18.01721,14.11707 -0.77313,-13.64988 -24.29914,-1.68594 14.11695,-9.97336 -22.98749,-10.12771 27.16394,-5.22028 -19.07343,-13.49551 28.99323,-1.84031 -6.00574,-17.02987 27.94397,11.20022 8.09046,-18.26077 z"
       stroke-linecap="butt"
       stroke-linejoin="round"
       stroke-width="1"
       stroke="#000000" />
    <path
       id="path1367"
       fill-rule="nonzero"
       d="m 617.3243,288.65137 h 35.00897 v 17.60001 H 617.3243 Z"
       fill="#ffe599" />
    <path
       id="path1369"
       fill-rule="nonzero"
       d="m 617.3243,289.46344 h 35.00897 v 16.85327 H 617.3243 Z"
       fill-opacity="0"
       fill="#000000" />
    <path
       id="path1371"
       fill-rule="nonzero"
       d="m 617.9649,297.54385 q 0,-1.59375 0.46875,-2.6875 0.35937,-0.79687 0.98437,-1.4375 0.625,-0.64062 1.35938,-0.9375 0.98437,-0.42187 2.25,-0.42187 2.32812,0 3.71875,1.4375 1.39062,1.4375 1.39062,4 0,2.54687 -1.39062,3.98437 -1.375,1.42188 -3.6875,1.42188 -2.32813,0 -3.71875,-1.42188 -1.375,-1.42187 -1.375,-3.9375 z m 2.17187,-0.0625 q 0,1.78125 0.82813,2.70313 0.82812,0.92187 2.09375,0.92187 1.26562,0 2.07812,-0.90625 0.8125,-0.92187 0.8125,-2.75 0,-1.79687 -0.79687,-2.6875 -0.78125,-0.89062 -2.09375,-0.89062 -1.3125,0 -2.125,0.90625 -0.79688,0.89062 -0.79688,2.70312 z m 9.22821,0.0625 q 0,-1.59375 0.46875,-2.6875 0.35938,-0.79687 0.98438,-1.4375 0.625,-0.64062 1.35937,-0.9375 0.98438,-0.42187 2.25,-0.42187 2.32813,0 3.71875,1.4375 1.39063,1.4375 1.39063,4 0,2.54687 -1.39063,3.98437 -1.375,1.42188 -3.6875,1.42188 -2.32812,0 -3.71875,-1.42188 -1.375,-1.42187 -1.375,-3.9375 z m 2.17188,-0.0625 q 0,1.78125 0.82812,2.70313 0.82813,0.92187 2.09375,0.92187 1.26563,0 2.07813,-0.90625 0.8125,-0.92187 0.8125,-2.75 0,-1.79687 -0.79688,-2.6875 -0.78125,-0.89062 -2.09375,-0.89062 -1.3125,0 -2.125,0.90625 -0.79687,0.89062 -0.79687,2.70312 z m 9.6189,5.25 v -10.48437 h 3.17187 l 1.90625,7.15625 1.89063,-7.15625 h 3.17187 v 10.48437 h -1.96875 v -8.26562 l -2.07812,8.26562 h -2.04688 l -2.07812,-8.26562 v 8.26562 z"
       fill="#000000" />
    <path
       id="path1373"
       fill-rule="nonzero"
       d="m 652.33325,289.46344 v 0 16.85327 0 z"
       fill-opacity="0"
       fill="#000000" />
    <path
       id="path1375"
       fill-rule="evenodd"
       d="m 194.36572,499.55215 14.23622,-14.3324 v 7.11814 0 c 49.12251,-0.66535 91.69328,-4.70703 111.44902,-10.58103 v 0 c 17.49469,5.20169 14.81934,11.17432 -7.2019,16.07794 -22.02121,4.90366 -60.74674,8.15012 -104.24712,8.73929 v 7.11811 z"
       fill="#d9ead3" />
    <path
       id="path1377"
       fill-rule="evenodd"
       d="m 331.49957,488.87497 c 0,-9.82806 -61.39691,-17.79526 -137.13385,-17.79526 v -14.23624 0 c 75.73694,0 137.13385,7.96723 137.13385,17.79529 z"
       fill="#adbba8" />
    <path
       id="path1379"
       fill-rule="evenodd"
       d="m 331.49957,488.87497 c 0,-9.82806 -61.39691,-17.79526 -137.13385,-17.79526 v -14.23624 0 c 75.73694,0 137.13385,7.96723 137.13385,17.79529 v 14.23621 c 0,9.11285 -53.05164,16.75311 -122.89763,17.69913 v 7.1181 l -14.23622,-14.14005 14.23622,-14.33239 v 7.11813 0 c 49.12251,-0.66534 91.69328,-4.70703 111.44902,-10.58102"
       fill-opacity="0"
       fill="#000000" />
    <path
       id="path1381"
       fill-rule="evenodd"
       d="m 331.49957,488.87497 c 0,-9.82806 -61.39691,-17.79526 -137.13385,-17.79526 v -14.23624 0 c 75.73694,0 137.13385,7.96723 137.13385,17.79529 v 14.23621 c 0,9.11285 -53.05164,16.75311 -122.89763,17.69913 v 7.1181 l -14.23622,-14.14005 14.23622,-14.33239 v 7.11813 0 c 49.12251,-0.66534 91.69328,-4.70703 111.44902,-10.58102"
       stroke-linecap="butt"
       stroke-linejoin="round"
       stroke-width="1"
       stroke="#000000" />
    <path
       id="path1383"
       fill-rule="evenodd"
       d="m 194.36572,422.54224 h 224.50394 v 30.33069 H 194.36572 Z"
       fill-opacity="0"
       fill="#000000" />
    <path
       id="path1385"
       fill-rule="nonzero"
       d="m 210.58447,443.80597 q 0.0156,-0.51563 -0.0469,-0.875 -0.0625,-0.375 -0.21875,-0.60938 -0.14062,-0.23437 -0.35937,-0.34375 -0.21875,-0.10937 -0.51563,-0.10937 -0.48437,0 -1.01562,0.40625 -0.51563,0.40625 -1.14063,1.32812 v 5.85938 h -2.28125 v -9.25 h 2.01563 l 0.0781,1.34375 q 0.23438,-0.35938 0.51563,-0.64063 0.28125,-0.28125 0.625,-0.48437 0.35937,-0.20313 0.78125,-0.3125 0.4375,-0.10938 0.95312,-0.10938 0.70313,0 1.23438,0.25 0.54687,0.23438 0.90625,0.70313 0.375,0.46875 0.54687,1.1875 0.1875,0.71875 0.15625,1.65625 z m 10.10104,5.65625 -0.0469,-1.21875 q -0.29688,0.3125 -0.625,0.57812 -0.3125,0.26563 -0.70313,0.45313 -0.375,0.1875 -0.82812,0.28125 -0.4375,0.10937 -0.98438,0.10937 -0.70312,0 -1.25,-0.20312 -0.53125,-0.20313 -0.90625,-0.57813 -0.35937,-0.375 -0.54687,-0.90625 -0.17188,-0.53125 -0.17188,-1.17187 0,-0.65625 0.26563,-1.20313 0.28125,-0.5625 0.84375,-0.95312 0.57812,-0.40625 1.42187,-0.625 0.85938,-0.23438 2,-0.23438 h 1.21875 v -0.5625 q 0,-0.35937 -0.10937,-0.64062 -0.0937,-0.28125 -0.3125,-0.48438 -0.21875,-0.20312 -0.57813,-0.3125 -0.35937,-0.10937 -0.875,-0.10937 -0.82812,0 -1.625,0.1875 -0.79687,0.1875 -1.53125,0.53125 v -1.78125 q 0.65625,-0.26563 1.53125,-0.4375 0.875,-0.17188 1.8125,-0.17188 1.01563,0 1.75,0.20313 0.75,0.1875 1.21875,0.57812 0.48438,0.39063 0.70313,0.98438 0.23437,0.57812 0.23437,1.35937 v 6.32813 z m -0.3125,-4.09375 h -1.35937 q -0.5625,0 -0.95313,0.10937 -0.39062,0.10938 -0.64062,0.3125 -0.25,0.1875 -0.35938,0.4375 -0.10937,0.25 -0.10937,0.53125 0,0.5625 0.35937,0.85938 0.35938,0.29687 1,0.29687 0.45313,0 0.95313,-0.32812 0.51562,-0.34375 1.10937,-0.96875 z m 10.33542,3.07812 q -0.48437,1.20313 -1.01562,2.10938 -0.51563,0.90625 -1.14063,1.51562 -0.625,0.60938 -1.40625,0.90625 -0.76562,0.3125 -1.71875,0.3125 -0.21875,0 -0.5,-0.0312 -0.26562,-0.0156 -0.54687,-0.0625 v -1.89062 q 0.10937,0.0312 0.25,0.0469 0.14062,0.0156 0.29687,0.0312 0.15625,0.0156 0.3125,0.0156 0.15625,0.0156 0.29688,0.0156 0.39062,0 0.71875,-0.14062 0.32812,-0.14063 0.59375,-0.40625 0.28125,-0.26563 0.5,-0.625 0.23437,-0.35938 0.40625,-0.78125 l -3.67188,-9.25 h 2.48438 l 1.92187,5.23437 0.57813,1.70313 0.5625,-1.625 1.9375,-5.3125 h 2.39062 z m 8.5073,-2.34375 q 0.375,0 0.70312,0.14063 0.32813,0.14062 0.5625,0.39062 0.25,0.23438 0.39063,0.5625 0.14062,0.32813 0.14062,0.70313 0,0.35937 -0.14062,0.6875 -0.14063,0.3125 -0.39063,0.5625 -0.23437,0.23437 -0.5625,0.375 -0.32812,0.14062 -0.70312,0.14062 -0.375,0 -0.6875,-0.14062 -0.3125,-0.14063 -0.5625,-0.375 -0.23438,-0.25 -0.375,-0.5625 -0.125,-0.32813 -0.125,-0.6875 0,-0.375 0.125,-0.70313 0.14062,-0.32812 0.375,-0.5625 0.25,-0.25 0.5625,-0.39062 0.3125,-0.14063 0.6875,-0.14063 z m 14.03854,3.35938 h -2.46875 l -0.98437,-2.9375 -0.29688,-1.01563 -0.29687,1.04688 -0.95313,2.90625 h -2.46875 l -1.3125,-9.25 h 2.10938 l 0.65625,5.21875 0.15625,1.4375 0.375,-1.28125 0.9375,-2.82813 h 1.6875 l 1,2.79688 0.42187,1.32812 0.17188,-1.46875 0.5625,-5.20312 h 2.01562 z m 8.46042,0 -0.0469,-1.21875 q -0.29688,0.3125 -0.625,0.57812 -0.3125,0.26563 -0.70313,0.45313 -0.375,0.1875 -0.82812,0.28125 -0.4375,0.10937 -0.98438,0.10937 -0.70312,0 -1.25,-0.20312 -0.53125,-0.20313 -0.90625,-0.57813 -0.35937,-0.375 -0.54687,-0.90625 -0.17188,-0.53125 -0.17188,-1.17187 0,-0.65625 0.26563,-1.20313 0.28125,-0.5625 0.84375,-0.95312 0.57812,-0.40625 1.42187,-0.625 0.85938,-0.23438 2,-0.23438 h 1.21875 v -0.5625 q 0,-0.35937 -0.10937,-0.64062 -0.0937,-0.28125 -0.3125,-0.48438 -0.21875,-0.20312 -0.57813,-0.3125 -0.35937,-0.10937 -0.875,-0.10937 -0.82812,0 -1.625,0.1875 -0.79687,0.1875 -1.53125,0.53125 v -1.78125 q 0.65625,-0.26563 1.53125,-0.4375 0.875,-0.17188 1.8125,-0.17188 1.01563,0 1.75,0.20313 0.75,0.1875 1.21875,0.57812 0.48438,0.39063 0.70313,0.98438 0.23437,0.57812 0.23437,1.35937 v 6.32813 z m -0.3125,-4.09375 h -1.35937 q -0.5625,0 -0.95313,0.10937 -0.39062,0.10938 -0.64062,0.3125 -0.25,0.1875 -0.35938,0.4375 -0.10937,0.25 -0.10937,0.53125 0,0.5625 0.35937,0.85938 0.35938,0.29687 1,0.29687 0.45313,0 0.95313,-0.32812 0.51562,-0.34375 1.10937,-0.96875 z m 10.22604,-7.6875 q 0,0.29687 -0.10937,0.5625 -0.10938,0.26562 -0.3125,0.46875 -0.1875,0.1875 -0.45313,0.29687 -0.26562,0.10938 -0.57812,0.10938 -0.3125,0 -0.57813,-0.10938 -0.26562,-0.10937 -0.46875,-0.29687 -0.1875,-0.20313 -0.29687,-0.46875 -0.10938,-0.26563 -0.10938,-0.5625 0,-0.3125 0.10938,-0.5625 0.10937,-0.26563 0.29687,-0.46875 0.20313,-0.20313 0.46875,-0.3125 0.26563,-0.125 0.57813,-0.125 0.3125,0 0.57812,0.125 0.26563,0.10937 0.45313,0.3125 0.20312,0.20312 0.3125,0.46875 0.10937,0.25 0.10937,0.5625 z m -2.46875,4.25 h -2.60937 v -1.71875 h 4.89062 v 7.51562 h 2.67188 v 1.73438 h -7.875 v -1.73438 h 2.92187 z m 14.91355,7.4375 q -0.60938,0.14062 -1.21875,0.21875 -0.60938,0.0781 -1.15625,0.0781 -0.90625,0 -1.57813,-0.1875 -0.65625,-0.1875 -1.09375,-0.57812 -0.42187,-0.39063 -0.625,-1 -0.20312,-0.60938 -0.20312,-1.4375 v -4.53125 h -2.5 v -1.71875 h 2.5 v -2.375 l 2.26562,-0.59375 v 2.96875 h 3.60938 v 1.71875 h -3.60938 v 4.35937 q 0,0.79688 0.35938,1.20313 0.375,0.40625 1.23437,0.40625 0.54688,0 1.0625,-0.0937 0.51563,-0.0937 0.95313,-0.21875 z"
       fill="#000000" />
    <path
       id="path1387"
       fill-rule="evenodd"
       d="m 113.49092,343.9218 h 814.07874 v 2.67719 H 113.49092 Z"
       fill="#999999" />
    <path
       id="path1389"
       fill-rule="evenodd"
       d="m 113.49092,343.9218 h 814.07874 v 2.67719 H 113.49092 Z"
       stroke-linecap="butt"
       stroke-linejoin="round"
       stroke-width="1"
       stroke="#666666" />
  </g>
</svg>
