<?xml version="1.0" encoding="UTF-8" standalone="no"?>
<svg
   xmlns:dc="http://purl.org/dc/elements/1.1/"
   xmlns:cc="http://creativecommons.org/ns#"
   xmlns:rdf="http://www.w3.org/1999/02/22-rdf-syntax-ns#"
   xmlns:svg="http://www.w3.org/2000/svg"
   xmlns="http://www.w3.org/2000/svg"
   xmlns:sodipodi="http://sodipodi.sourceforge.net/DTD/sodipodi-0.dtd"
   xmlns:inkscape="http://www.inkscape.org/namespaces/inkscape"
   inkscape:version="1.0 (4035a4f, 2020-05-01)"
   height="222.3121"
   width="710.27161"
   sodipodi:docname="map-reduce.svg"
   id="svg1202"
   stroke-miterlimit="10"
   stroke-linecap="square"
   stroke="none"
   fill="none"
   viewBox="0 0 710.27161 222.3121"
   version="1.1">
  <metadata
     id="metadata1208">
    <rdf:RDF>
      <cc:Work
         rdf:about="">
        <dc:format>image/svg+xml</dc:format>
        <dc:type
           rdf:resource="http://purl.org/dc/dcmitype/StillImage" />
      </cc:Work>
    </rdf:RDF>
  </metadata>
  <defs
     id="defs1206" />
  <sodipodi:namedview
     inkscape:current-layer="g1200"
     inkscape:window-maximized="1"
     inkscape:window-y="23"
     inkscape:window-x="0"
     inkscape:cy="107.44013"
     inkscape:cx="335.58959"
     inkscape:zoom="1.0247396"
     showgrid="false"
     id="namedview1204"
     inkscape:window-height="995"
     inkscape:window-width="1792"
     inkscape:pageshadow="2"
     inkscape:pageopacity="0"
     guidetolerance="10"
     gridtolerance="10"
     objecttolerance="10"
     borderopacity="1"
     bordercolor="#666666"
     pagecolor="#ffffff" />
  <clipPath
     id="p.0">
    <path
       id="path1093"
       clip-rule="nonzero"
       d="M 0,0 H 1024 V 768 H 0 Z" />
  </clipPath>
  <g
     transform="translate(-84.67979,-162.38452)"
     id="g1200"
     clip-path="url(#p.0)">
    <path
       id="path1096"
       fill-rule="evenodd"
       d="M 0,0 H 1024 V 768 H 0 Z"
       fill-opacity="0"
       fill="#000000" />
    <path
       sodipodi:nodetypes="ccccc"
       id="path1098"
       fill-rule="evenodd"
       d="m 84.67979,332.0735 h 111.30709 v 43.90552 H 84.67979 Z"
       fill-opacity="0"
       fill="#000000" />
    <path
       sodipodi:nodetypes="scscsccscsscscssscscccccssccscsccscssssscscccccccscsccscsccccscscscscccscccccscccccsssscsscccssscsccsccsccsccccccccccscccsccccscsccccscccssccccscscccssscccccccccccccc"
       id="path1100"
       fill-rule="nonzero"
       d="m 94.30479,354.14975 c 0,-1.79167 0.494792,-3.11458 1.484375,-3.96875 0.833333,-0.71875 1.848958,-1.07813 3.046875,-1.07813 1.33333,0 2.42187,0.4375 3.26562,1.3125 0.84375,0.86459 1.26563,2.06771 1.26563,3.60938 0,1.23958 -0.1875,2.21875 -0.5625,2.9375 -0.375,0.70833 -0.92188,1.26042 -1.64063,1.65625 -0.70833,0.39583 -1.48437,0.59375 -2.32812,0.59375 -1.354167,0 -2.447917,-0.43229 -3.28125,-1.29688 -0.833333,-0.875 -1.25,-2.1302 -1.25,-3.76562 z m 1.6875,0 c 0,1.23958 0.265625,2.17187 0.796875,2.79687 0.541667,0.61459 1.223958,0.92188 2.046875,0.92188 0.8125,0 1.48958,-0.30729 2.03125,-0.92188 0.54167,-0.625 0.8125,-1.57291 0.8125,-2.84375 0,-1.19791 -0.27083,-2.10416 -0.8125,-2.71875 -0.54167,-0.61458 -1.21875,-0.92187 -2.03125,-0.92187 -0.822917,0 -1.505208,0.30729 -2.046875,0.92187 -0.53125,0.60417 -0.796875,1.52605 -0.796875,2.76563 z m 10.79759,4.84375 h -1.51562 v -13.35938 h 1.64062 v 4.76563 c 0.69792,-0.86458 1.58334,-1.29688 2.65625,-1.29688 0.59375,0 1.15625,0.1198 1.6875,0.35938 0.53125,0.23958 0.96875,0.57812 1.3125,1.01562 0.34375,0.42709 0.60938,0.94792 0.79688,1.5625 0.19787,0.61459 0.29687,1.27084 0.29687,1.96875 0,1.65625 -0.41146,2.9375 -1.23437,3.84375 -0.8125,0.90625 -1.79688,1.35938 -2.95313,1.35938 -1.13541,0 -2.03125,-0.47917 -2.6875,-1.4375 z m -0.0156,-4.90625 c 0,1.15625 0.16146,1.99479 0.48437,2.51562 0.51042,0.84375 1.20834,1.26563 2.09375,1.26563 0.71875,0 1.33854,-0.3125 1.85938,-0.9375 0.52083,-0.625 0.78125,-1.55208 0.78125,-2.78125 0,-1.26042 -0.25,-2.19271 -0.75,-2.79688 -0.5,-0.60416 -1.10938,-0.90625 -1.82813,-0.90625 -0.70833,0 -1.32812,0.3125 -1.85937,0.9375 -0.52084,0.625 -0.78125,1.52605 -0.78125,2.70313 z m 8.87571,-6.54688 v -1.90625 h 1.64063 v 1.90625 z m -2.07812,15.20313 0.3125,-1.39063 c 0.33333,0.0833 0.59375,0.125 0.78125,0.125 0.33333,0 0.57812,-0.10937 0.73437,-0.32812 0.1667,-0.21875 0.25,-0.77604 0.25,-1.67188 v -10.15625 h 1.64063 v 10.20313 c 0,1.1875 -0.15625,2.01562 -0.46875,2.48437 -0.39583,0.60417 -1.05208,0.90625 -1.96875,0.90625 -0.4375,0 -0.86458,-0.0573 -1.28125,-0.17187 z m 12.86357,-6.85938 1.68751,0.20313 c -0.27084,0.98958 -0.76564,1.76042 -1.48439,2.3125 -0.71875,0.54167 -1.64062,0.8125 -2.76562,0.8125 -1.41667,0 -2.54167,-0.43229 -3.375,-1.29688 -0.82292,-0.875 -1.23438,-2.09895 -1.23438,-3.67187 0,-1.63542 0.41667,-2.90104 1.25,-3.79688 0.84375,-0.89583 1.9323,-1.34375 3.26563,-1.34375 1.29167,0 2.34375,0.44271 3.15625,1.32813 0.82292,0.875 1.23438,2.10937 1.23438,3.70312 v 0.4375 h -7.21876 c 0.0625,1.0625 0.36459,1.88021 0.90625,2.45313 0.54167,0.5625 1.21355,0.84375 2.01563,0.84375 0.60417,0 1.11979,-0.15625 1.54687,-0.46875 0.42709,-0.32292 0.76563,-0.82813 1.01563,-1.51563 z m -5.39063,-2.65625 h 5.40625 c -0.0729,-0.8125 -0.28125,-1.42187 -0.625,-1.82812 -0.52083,-0.63542 -1.19791,-0.95313 -2.03125,-0.95313 -0.75,0 -1.38541,0.25521 -1.90625,0.76563 -0.51041,0.5 -0.79165,1.17187 -0.84375,2.01562 z m 15.45385,2.21875 1.60938,0.21875 c -0.17708,1.10417 -0.63021,1.97396 -1.35938,2.60938 -0.71875,0.625 -1.60937,0.9375 -2.67187,0.9375 -1.32292,0 -2.38542,-0.43229 -3.1875,-1.29688 -0.80208,-0.86458 -1.20313,-2.10416 -1.20313,-3.71875 0,-1.05208 0.17188,-1.96875 0.51563,-2.75 0.34375,-0.78125 0.86979,-1.36458 1.57812,-1.75 0.70834,-0.39583 1.47917,-0.59375 2.3125,-0.59375 1.05209,0 1.91146,0.26563 2.57813,0.79688 0.66667,0.53125 1.09375,1.28646 1.28125,2.26562 l -1.59375,0.23438 c -0.15625,-0.64583 -0.42708,-1.13021 -0.8125,-1.45313 -0.38542,-0.33333 -0.84896,-0.5 -1.39063,-0.5 -0.82291,0 -1.49479,0.29688 -2.01562,0.89063 -0.52083,0.59375 -0.78125,1.53125 -0.78125,2.8125 0,1.30208 0.25,2.25 0.75,2.84375 0.5,0.58333 1.15104,0.875 1.95312,0.875 0.64584,0 1.1823,-0.19792 1.60938,-0.59375 0.4375,-0.39583 0.71354,-1.00521 0.82812,-1.82813 z m 5.87503,2.14063 c 0.17709,0 0.41667,-0.0208 0.71875,-0.0625 l 0.23438,1.45312 c -0.45833,0.0937 -0.86979,0.14063 -1.23438,0.14063 -0.59375,0 -1.05729,-0.0937 -1.39062,-0.28125 -0.32292,-0.1875 -0.55208,-0.43229 -0.6875,-0.73438 -0.13543,-0.3125 -0.20313,-0.95833 -0.20313,-1.9375 v -5.57812 h -1.20312 v -1.26563 h 1.20312 V 346.931 l 1.625,-0.98438 v 3.375 h 1.65625 v 1.26563 h -1.65625 v 5.67187 c 0,0.45834 0.026,0.75521 0.0781,0.89063 0.0625,0.13542 0.15625,0.24482 0.28125,0.32812 0.13542,0.0729 0.32812,0.10938 0.57812,0.10938 z m 1.66765,-1.48438 1.625,-0.25 c 0.0833,0.64584 0.33334,1.14584 0.75,1.5 0.41667,0.34375 1,0.51563 1.75,0.51563 0.75,0 1.3073,-0.15104 1.67188,-0.45313 0.36458,-0.3125 0.54687,-0.67708 0.54687,-1.09375 0,-0.36458 -0.16145,-0.65625 -0.48437,-0.875 -0.21875,-0.14583 -0.77604,-0.32812 -1.67188,-0.54687 -1.20833,-0.3125 -2.04687,-0.57813 -2.51562,-0.79688 -0.45833,-0.21875 -0.80729,-0.52083 -1.04688,-0.90625 -0.23958,-0.39583 -0.35937,-0.83333 -0.35937,-1.3125 0,-0.42708 0.099,-0.82291 0.29687,-1.1875 0.19792,-0.375 0.46875,-0.68229 0.8125,-0.92187 0.25,-0.1875 0.59375,-0.34375 1.03125,-0.46875 0.44792,-0.13543 0.92188,-0.20313 1.42188,-0.20313 0.76042,0 1.42708,0.10938 2,0.32813 0.57292,0.21875 0.99479,0.51562 1.26562,0.89062 0.28125,0.375 0.47396,0.875 0.57813,1.5 l -1.60938,0.21875 c -0.0729,-0.5 -0.28645,-0.89062 -0.64062,-1.17187 -0.34375,-0.28125 -0.83333,-0.42188 -1.46875,-0.42188 -0.76042,0 -1.30208,0.125 -1.625,0.375 -0.3125,0.25 -0.46875,0.54167 -0.46875,0.875 0,0.20834 0.0625,0.40105 0.1875,0.57813 0.13542,0.17708 0.34896,0.32292 0.64062,0.4375 0.15625,0.0625 0.63542,0.20312 1.4375,0.42187 1.16667,0.30209 1.97917,0.55209 2.4375,0.75 0.45834,0.19792 0.81771,0.48438 1.07813,0.85938 0.26042,0.375 0.39062,0.84375 0.39062,1.40625 0,0.55208 -0.16145,1.06771 -0.48437,1.54687 -0.3125,0.47917 -0.77083,0.85417 -1.375,1.125 -0.60417,0.26042 -1.28646,0.39063 -2.04688,0.39063 -1.25,0 -2.20833,-0.26042 -2.875,-0.78125 -0.65625,-0.52083 -1.07291,-1.29688 -1.25,-2.32813 z m 23.79268,-4.96875 h -8.82812 v -1.51562 h 8.82812 z m 0,4.0625 h -8.82812 v -1.53125 h 8.82812 z"
       fill="#000000" />
    <path
       sodipodi:nodetypes="cccccccccccccccsccccccsccccccccccccsscsscccssssccccccccsccccccscccsssssccscssscccssccsccsscscsccccccccc"
       id="path1102"
       fill-rule="nonzero"
       d="m 94.94541,384.69662 v -17.0625 h 3.609375 v 1.35937 h -1.96875 v 14.34375 h 1.96875 v 1.35938 z m 10.8708,-3.70313 h -1.64062 v -10.45312 c -0.39583,0.375 -0.91667,0.75521 -1.5625,1.14062 -0.63542,0.375 -1.20833,0.65625 -1.71875,0.84375 v -1.59375 c 0.91667,-0.42708 1.71875,-0.94791 2.40625,-1.5625 0.6875,-0.61458 1.17187,-1.20833 1.45312,-1.78125 h 1.0625 z m 5.07885,0 v -1.875 h 1.875 v 1.875 c 0,0.6875 -0.125,1.23959 -0.375,1.65625 -0.23959,0.42709 -0.625,0.75521 -1.15625,0.98438 l -0.45313,-0.70313 c 0.34375,-0.14583 0.59896,-0.36979 0.76563,-0.67187 0.16666,-0.29167 0.26045,-0.71354 0.28125,-1.26563 z m 18.10099,-1.57812 v 1.57812 h -8.82814 c -0.0104,-0.39583 0.0521,-0.77604 0.1875,-1.14062 0.22917,-0.60417 0.58854,-1.19792 1.07813,-1.78125 0.5,-0.58333 1.21875,-1.25521 2.15625,-2.01563 1.44791,-1.1875 2.42708,-2.1302 2.9375,-2.82812 0.51041,-0.69792 0.76562,-1.35417 0.76562,-1.96875 0,-0.65625 -0.23437,-1.20313 -0.70312,-1.64063 -0.45834,-0.44791 -1.0625,-0.67187 -1.8125,-0.67187 -0.79167,0 -1.42709,0.23958 -1.90625,0.71875 -0.46875,0.46875 -0.70313,1.11979 -0.70313,1.95312 l -1.6875,-0.17187 c 0.11459,-1.26042 0.54688,-2.21875 1.29688,-2.875 0.76041,-0.65625 1.77083,-0.98438 3.03125,-0.98438 1.28125,0 2.29687,0.35417 3.04687,1.0625 0.75001,0.70834 1.12501,1.58855 1.12501,2.64063 0,0.53125 -0.10937,1.05729 -0.32812,1.57812 -0.21875,0.52084 -0.58334,1.06771 -1.09376,1.64063 -0.5,0.5625 -1.34375,1.34375 -2.53125,2.34375 -0.97917,0.82292 -1.60938,1.38542 -1.89063,1.6875 -0.28125,0.29167 -0.51041,0.58333 -0.6875,0.875 z m 2.64134,1.57812 v -1.875 h 1.875 v 1.875 c 0,0.6875 -0.125,1.23959 -0.375,1.65625 -0.23959,0.42709 -0.625,0.75521 -1.15625,0.98438 l -0.45313,-0.70313 c 0.34375,-0.14583 0.59896,-0.36979 0.76563,-0.67187 0.16666,-0.29167 0.26045,-0.71354 0.28125,-1.26563 z m 10.81973,-0.81248 c -0.77083,-0.69791 -1.21354,-1.60416 -1.32812,-2.71875 l 1.64062,-0.21875 c 0.1875,0.9375 0.50521,1.60938 0.95313,2.01563 0.45833,0.40625 1.01041,0.60937 1.65625,0.60937 0.77083,0 1.42187,-0.26562 1.95312,-0.79687 0.53125,-0.53125 0.79688,-1.19271 0.79688,-1.98438 0,-0.75 -0.2448,-1.36979 -0.73438,-1.85937 -0.48958,-0.48958 -1.11458,-0.73438 -1.875,-0.73438 -0.3125,0 -0.69792,0.0573 -1.15625,0.17188 l 0.1875,-1.4375 c 0.10417,0.0106 0.19273,0.0156 0.26563,0.0156 0.69791,0 1.32291,-0.18229 1.875,-0.54687 0.5625,-0.36458 0.84375,-0.92188 0.84375,-1.67188 0,-0.60416 -0.20313,-1.10416 -0.60938,-1.5 -0.40625,-0.39583 -0.93229,-0.59375 -1.57812,-0.59375 -0.63542,0 -1.16667,0.20313 -1.59375,0.60938 -0.42709,0.39583 -0.69792,0.99479 -0.8125,1.79687 l -1.64063,-0.29687 c 0.19792,-1.09375 0.65104,-1.94271 1.35938,-2.54688 0.70833,-0.60416 1.59375,-0.90625 2.65625,-0.90625 0.72916,0 1.39583,0.15625 2,0.46875 0.61458,0.3125 1.08333,0.73959 1.40625,1.28125 0.33333,0.54167 0.5,1.11459 0.5,1.71875 0,0.57292 -0.15625,1.09896 -0.46875,1.57813 -0.3125,0.46875 -0.77084,0.84375 -1.375,1.125 0.79166,0.1875 1.40625,0.56771 1.84375,1.14062 0.4375,0.57292 0.65625,1.29167 0.65625,2.15625 0,1.15625 -0.42709,2.14063 -1.28125,2.95313 -0.84375,0.8125 -1.91667,1.21875 -3.21875,1.21875 -1.17709,0 -2.15105,-0.34896 -2.92188,-1.04688 z m 12.23509,4.51561 h -3.60937 v -1.35938 h 1.96875 v -14.34375 h -1.96875 v -1.35937 h 3.60937 z"
       fill="#000000" />
    <path
       sodipodi:nodetypes="ccccc"
       id="path1104"
       fill-rule="evenodd"
       d="m 357.3622,162.88452 h 209.35434 v 53.10236 H 357.3622 Z"
       fill="#ffffff" />
    <path
       sodipodi:nodetypes="ccccc"
       id="path1106"
       fill-rule="evenodd"
       d="m 357.3622,162.88452 h 209.35434 v 53.10236 H 357.3622 Z"
       stroke-linecap="butt"
       stroke-linejoin="round"
       stroke-width="1"
       stroke="#0b5394" />
    <path
       sodipodi:nodetypes="cccccsccscsccscsscsccsssscscccccssscccccscsscccsscccssccscsccscsssccsccccccsccsscsscccscscsccccccccccccccsccsscccccccscscscscccccccccccccccccsccscsccscsscsccssssccccscscscccccscscsssccsccsccsccccccccccscsccccccscscscsccscccccsccccsscccccccccccccscssccscsccccccccscscsccscssccsscccccccssccsccscsssccccccsssscsscccssscccccccsccscccscscscscccscscssccccccccssccsscccscsssccscccsssccscsccsscsccscccccc"
       id="path1108"
       fill-rule="nonzero"
       d="m 367.5966,196.3557 v -9.67187 h 1.46875 v 1.35937 c 0.30208,-0.47917 0.70313,-0.85938 1.20313,-1.14062 0.51041,-0.29167 1.08333,-0.43751 1.71875,-0.4375 0.71875,-1e-5 1.30729,0.15104 1.76562,0.45312 0.45833,0.29167 0.78125,0.70312 0.96875,1.23438 0.77083,-1.12501 1.76563,-1.68751 2.98438,-1.6875 0.96875,-1e-5 1.70833,0.26562 2.21875,0.79687 0.52083,0.53125 0.78125,1.34896 0.78125,2.45313 v 6.64062 h -1.64063 v -6.09375 c 0,-0.65625 -0.0521,-1.125 -0.15625,-1.40625 -0.10417,-0.29167 -0.29687,-0.52604 -0.57812,-0.70312 -0.28125,-0.17713 -0.60938,-0.26563 -0.98438,-0.26563 -0.67708,0 -1.23958,0.22917 -1.6875,0.6875 -0.44792,0.44792 -0.67187,1.16667 -0.67187,2.15625 v 5.625 h -1.64063 v -6.28125 c 0,-0.72917 -0.13542,-1.27604 -0.40625,-1.64062 -0.27083,-0.36459 -0.70833,-0.54688 -1.3125,-0.54688 -0.45833,0 -0.88542,0.11979 -1.28125,0.35938 -0.39583,0.23958 -0.68229,0.59374 -0.85937,1.0625 -0.1667,0.46874 -0.25,1.14583 -0.25,2.03125 v 5.01562 z m 22.18148,0 c -0.17709,-0.34375 -0.28643,-0.73958 -0.32813,-1.1875 -0.61458,0.51042 -1.20312,0.875 -1.76562,1.09375 -0.55209,0.20833 -1.15104,0.3125 -1.79688,0.3125 -1.0625,0 -1.88021,-0.26042 -2.45312,-0.78125 -0.57292,-0.52083 -0.85938,-1.18229 -0.85938,-1.98437 0,-0.47917 0.10938,-0.91146 0.32813,-1.29688 0.21875,-0.39583 0.5,-0.70833 0.84375,-0.9375 0.35416,-0.23958 0.75,-0.42188 1.1875,-0.54687 0.3125,-0.0833 0.79687,-0.1667 1.45312,-0.25 1.32292,-0.15626 2.29688,-0.34376 2.92188,-0.5625 0.0106,-0.22917 0.0156,-0.36978 0.0156,-0.42188 0,-0.66667 -0.15625,-1.14063 -0.46875,-1.42187 -0.41666,-0.36459 -1.04166,-0.54688 -1.875,-0.54688 -0.77083,0 -1.33854,0.13542 -1.70312,0.40625 -0.36459,0.27083 -0.63542,0.74479 -0.8125,1.42188 l -1.60938,-0.21875 c 0.14584,-0.67709 0.38542,-1.22396 0.71875,-1.64063 0.33334,-0.42708 0.81771,-0.75521 1.45313,-0.98437 0.63541,-0.22917 1.36458,-0.34376 2.1875,-0.34375 0.83333,-1e-5 1.50521,0.099 2.01562,0.29687 0.52084,0.1875 0.90104,0.43229 1.14063,0.73438 0.25,0.29166 0.42192,0.66145 0.51562,1.10937 0.0521,0.28125 0.0781,0.78646 0.0781,1.51563 v 2.1875 c 0,1.52083 0.0365,2.48437 0.10937,2.89062 0.0729,0.39583 0.20834,0.78125 0.40625,1.15625 h -1.70312 z m -0.4688,-4.85937 c -0.59375,0.24999 -1.48438,0.45833 -2.67188,0.625 -0.67708,0.0937 -1.15625,0.20312 -1.4375,0.32812 -0.28125,0.125 -0.5,0.30208 -0.65625,0.53125 -0.14585,0.22917 -0.21875,0.48958 -0.21875,0.78125 0,0.4375 0.16667,0.80208 0.5,1.09375 0.33334,0.29167 0.81771,0.4375 1.45313,0.4375 0.625,0 1.18229,-0.13542 1.67187,-0.40625 0.5,-0.28125 0.86459,-0.66146 1.09375,-1.14062 0.17713,-0.37501 0.26563,-0.92188 0.26563,-1.64063 z m 4.20382,8.5625 v -13.375 h 1.48438 v 1.25 c 0.35417,-0.48959 0.75,-0.85417 1.1875,-1.09375 0.44792,-0.25001 0.98958,-0.37501 1.625,-0.375 0.82292,-1e-5 1.54687,0.21354 2.17187,0.64062 0.63542,0.41667 1.11459,1.01562 1.4375,1.79688 0.32292,0.77083 0.48438,1.61979 0.48438,2.54687 0,0.98958 -0.17708,1.88021 -0.53125,2.67188 -0.35417,0.79166 -0.86979,1.40104 -1.54688,1.82812 -0.67708,0.41667 -1.39062,0.625 -2.14062,0.625 -0.54167,0 -1.03125,-0.11458 -1.46875,-0.34375 -0.4375,-0.22917 -0.79167,-0.52083 -1.0625,-0.875 v 4.70313 z m 1.48438,-8.48438 c 0,1.23958 0.25,2.16146 0.75,2.76563 0.51042,0.59374 1.11979,0.89062 1.82812,0.89062 0.72917,0 1.35417,-0.30729 1.875,-0.92187 0.52084,-0.62501 0.78125,-1.58334 0.78125,-2.875 0,-1.22917 -0.2552,-2.15105 -0.76562,-2.76563 -0.5,-0.61458 -1.10417,-0.92188 -1.8125,-0.92187 -0.69792,-1e-5 -1.31771,0.32812 -1.85938,0.98437 -0.53125,0.64583 -0.79687,1.59375 -0.79687,2.84375 z m 9.34448,4.78125 v -1.875 h 1.875 v 1.875 z m 4.71454,0 v -9.67187 h 1.46875 v 1.46875 c 0.375,-0.68751 0.71875,-1.14063 1.03125,-1.35938 0.32292,-0.21875 0.67708,-0.32813 1.0625,-0.32812 0.55208,-1e-5 1.11458,0.17708 1.6875,0.53125 l -0.5625,1.51562 c -0.40625,-0.23958 -0.80729,-0.35938 -1.20313,-0.35937 -0.36458,-1e-5 -0.6875,0.10937 -0.96875,0.32812 -0.28125,0.21875 -0.48437,0.51562 -0.60937,0.89063 -0.18755,0.58333 -0.28125,1.22395 -0.28125,1.92187 v 5.0625 z m 12.8533,-3.10937 1.6875,0.20312 c -0.27083,0.98958 -0.76562,1.76042 -1.48437,2.3125 -0.71875,0.54167 -1.64063,0.8125 -2.76563,0.8125 -1.41667,0 -2.54167,-0.43229 -3.375,-1.29687 -0.82292,-0.87501 -1.23437,-2.09896 -1.23437,-3.67188 0,-1.63542 0.41666,-2.90104 1.25,-3.79687 0.84375,-0.89584 1.93229,-1.34376 3.26562,-1.34375 1.29167,-1e-5 2.34375,0.4427 3.15625,1.32812 0.82292,0.875 1.23438,2.10937 1.23438,3.70313 v 0.4375 h -7.21875 c 0.0625,1.06249 0.36458,1.8802 0.90625,2.45312 0.54166,0.5625 1.21354,0.84375 2.01562,0.84375 0.60417,0 1.11979,-0.15625 1.54688,-0.46875 0.42708,-0.32292 0.76562,-0.82813 1.01562,-1.51562 z m -5.39062,-2.65625 h 5.40625 c -0.0729,-0.81251 -0.28125,-1.42188 -0.625,-1.82813 -0.52084,-0.63542 -1.19792,-0.95313 -2.03125,-0.95312 -0.75,-1e-5 -1.38542,0.2552 -1.90625,0.76562 -0.51042,0.5 -0.79165,1.17187 -0.84375,2.01563 z m 9.14135,5.76562 v -9.67187 h 1.46875 v 1.35937 c 0.30209,-0.47917 0.70313,-0.85938 1.20313,-1.14062 0.51042,-0.29167 1.08333,-0.43751 1.71875,-0.4375 0.71875,-1e-5 1.30729,0.15104 1.76562,0.45312 0.45834,0.29167 0.78125,0.70312 0.96875,1.23438 0.77084,-1.12501 1.76563,-1.68751 2.98438,-1.6875 0.96875,-1e-5 1.70833,0.26562 2.21875,0.79687 0.52083,0.53125 0.78125,1.34896 0.78125,2.45313 v 6.64062 h -1.64063 v -6.09375 c 0,-0.65625 -0.0521,-1.125 -0.15625,-1.40625 -0.10416,-0.29167 -0.29687,-0.52604 -0.57812,-0.70312 -0.28125,-0.17713 -0.60938,-0.26563 -0.98438,-0.26563 -0.67708,0 -1.23958,0.22917 -1.6875,0.6875 -0.44791,0.44792 -0.67187,1.16667 -0.67187,2.15625 v 5.625 h -1.64063 v -6.28125 c 0,-0.72917 -0.13541,-1.27604 -0.40625,-1.64062 -0.27083,-0.36459 -0.70833,-0.54688 -1.3125,-0.54688 -0.45833,0 -0.88541,0.11979 -1.28125,0.35938 -0.39583,0.23958 -0.68229,0.59374 -0.85937,1.0625 -0.1667,0.46874 -0.25,1.14583 -0.25,2.03125 v 5.01562 z m 14.93143,-4.84375 c 0,-1.79167 0.49479,-3.11458 1.48438,-3.96875 0.83333,-0.71875 1.84895,-1.07813 3.04687,-1.07812 1.33333,-1e-5 2.42188,0.43749 3.26563,1.3125 0.84375,0.86458 1.26562,2.0677 1.26562,3.60937 0,1.23958 -0.1875,2.21875 -0.5625,2.9375 -0.375,0.70833 -0.92187,1.26042 -1.64062,1.65625 -0.70834,0.39583 -1.48438,0.59375 -2.32813,0.59375 -1.35417,0 -2.44792,-0.43229 -3.28125,-1.29687 -0.83333,-0.87501 -1.25,-2.13021 -1.25,-3.76563 z m 1.6875,0 c 0,1.23958 0.26563,2.17187 0.79688,2.79688 0.54166,0.61458 1.22395,0.92187 2.04687,0.92187 0.8125,0 1.48958,-0.30729 2.03125,-0.92187 0.54167,-0.62501 0.8125,-1.57292 0.8125,-2.84375 0,-1.19792 -0.27083,-2.10417 -0.8125,-2.71875 -0.54167,-0.61459 -1.21875,-0.92188 -2.03125,-0.92188 -0.82292,0 -1.50521,0.30729 -2.04687,0.92188 -0.53125,0.60416 -0.79688,1.52604 -0.79688,2.76562 z m 12.15698,3.4375 c 0.17709,0 0.41667,-0.0208 0.71875,-0.0625 l 0.23438,1.45313 c -0.45834,0.0937 -0.86979,0.14062 -1.23438,0.14062 -0.59375,0 -1.05729,-0.0937 -1.39062,-0.28125 -0.32292,-0.1875 -0.55209,-0.43229 -0.6875,-0.73437 -0.13543,-0.31251 -0.20313,-0.95834 -0.20313,-1.9375 v -5.57813 h -1.20312 v -1.26562 h 1.20312 v -2.39063 l 1.625,-0.98437 v 3.375 h 1.65625 v 1.26562 h -1.65625 v 5.67188 c 0,0.45833 0.026,0.7552 0.0781,0.89062 0.0625,0.13542 0.15625,0.24483 0.28125,0.32813 0.13541,0.0729 0.32812,0.10937 0.57812,0.10937 z m 8.94892,-1.70312 1.6875,0.20312 c -0.27084,0.98958 -0.76563,1.76042 -1.48438,2.3125 -0.71875,0.54167 -1.64062,0.8125 -2.76562,0.8125 -1.41667,0 -2.54167,-0.43229 -3.375,-1.29687 -0.82292,-0.87501 -1.23438,-2.09896 -1.23438,-3.67188 0,-1.63542 0.41667,-2.90104 1.25,-3.79687 0.84375,-0.89584 1.93229,-1.34376 3.26563,-1.34375 1.29166,-1e-5 2.34375,0.4427 3.15625,1.32812 0.82291,0.875 1.23437,2.10937 1.23437,3.70313 v 0.4375 h -7.21875 c 0.0625,1.06249 0.36458,1.8802 0.90625,2.45312 0.54167,0.5625 1.21354,0.84375 2.01563,0.84375 0.60416,0 1.11979,-0.15625 1.54687,-0.46875 0.42708,-0.32292 0.76563,-0.82813 1.01563,-1.51562 z m -5.39063,-2.65625 h 5.40625 c -0.0729,-0.81251 -0.28125,-1.42188 -0.625,-1.82813 -0.52083,-0.63542 -1.19792,-0.95313 -2.03125,-0.95312 -0.75,-1e-5 -1.38542,0.2552 -1.90625,0.76562 -0.51042,0.5 -0.79165,1.17187 -0.84375,2.01563 z m 12.26633,9.6875 c -0.90625,-1.13542 -1.67188,-2.46876 -2.29688,-4 -0.625,-1.53126 -0.9375,-3.1198 -0.9375,-4.76563 0,-1.4375 0.23438,-2.81771 0.70313,-4.14062 0.55208,-1.54167 1.39583,-3.07292 2.53125,-4.59375 h 1.17187 c -0.72916,1.26041 -1.21354,2.16145 -1.45312,2.70312 -0.36458,0.83333 -0.65625,1.70833 -0.875,2.625 -0.26042,1.13542 -0.39063,2.27604 -0.39063,3.42188 0,2.91666 0.90625,5.83333 2.71875,8.75 z m 3.4783,-3.92193 v -8.40625 h -1.45312 v -1.26562 h 1.45312 v -1.03125 c 0,-0.64584 0.0573,-1.13021 0.17188,-1.45313 0.15625,-0.42708 0.43229,-0.77083 0.82812,-1.03125 0.39583,-0.26042 0.95313,-0.39063 1.67188,-0.39062 0.45833,-1e-5 0.96875,0.0521 1.53125,0.15625 l -0.25,1.4375 c -0.33334,-0.0625 -0.65105,-0.0937 -0.95313,-0.0937 -0.5,-1e-5 -0.85417,0.10937 -1.0625,0.32812 -0.20833,0.20833 -0.3125,0.60417 -0.3125,1.1875 v 0.89063 h 1.89063 v 1.26562 h -1.89063 v 8.40625 z m 11.12082,5e-5 v -1.42187 c -0.75,1.09374 -1.77083,1.64062 -3.0625,1.64062 -0.57292,0 -1.10938,-0.10938 -1.60938,-0.32812 -0.48958,-0.21876 -0.85416,-0.4948 -1.09375,-0.82813 -0.23958,-0.33333 -0.4063,-0.73958 -0.5,-1.21875 -0.0729,-0.3125 -0.10937,-0.82292 -0.10937,-1.53125 v -5.98437 h 1.64062 v 5.35937 c 0,0.85417 0.0365,1.43229 0.10938,1.73438 0.10417,0.42708 0.32292,0.76562 0.65625,1.01562 0.33333,0.25 0.74479,0.375 1.23437,0.375 0.48959,0 0.94792,-0.125 1.375,-0.375 0.4375,-0.26042 0.7448,-0.60417 0.92188,-1.03125 0.17712,-0.4375 0.26562,-1.06771 0.26562,-1.89062 v -5.1875 h 1.64063 v 9.67187 z m 4.04763,0 v -9.67187 h 1.46875 v 1.375 c 0.70833,-1.06251 1.73437,-1.59376 3.07812,-1.59375 0.58333,-1e-5 1.11979,0.10416 1.60938,0.3125 0.48958,0.20833 0.85416,0.48437 1.09375,0.82812 0.25,0.33333 0.42192,0.73437 0.51562,1.20313 0.0625,0.30208 0.0937,0.83333 0.0937,1.59375 v 5.95312 h -1.64062 v -5.89062 c 0,-0.66667 -0.0677,-1.16146 -0.20313,-1.48438 -0.125,-0.33333 -0.34896,-0.59896 -0.67187,-0.79687 -0.32292,-0.19788 -0.70313,-0.29688 -1.14063,-0.29688 -0.69792,0 -1.30208,0.22396 -1.8125,0.67188 -0.5,0.43749 -0.75,1.27604 -0.75,2.51562 v 5.28125 z m 16.68818,-3.54687 1.60937,0.21875 c -0.17708,1.10416 -0.6302,1.97395 -1.35937,2.60937 -0.71875,0.625 -1.60938,0.9375 -2.67188,0.9375 -1.32291,0 -2.38541,-0.43229 -3.1875,-1.29687 -0.80208,-0.86459 -1.20312,-2.10417 -1.20312,-3.71875 0,-1.05209 0.17187,-1.96876 0.51562,-2.75 0.34375,-0.78126 0.8698,-1.36459 1.57813,-1.75 0.70833,-0.39584 1.47917,-0.59376 2.3125,-0.59375 1.05208,-1e-5 1.91146,0.26562 2.57812,0.79687 0.66667,0.53125 1.09375,1.28646 1.28125,2.26563 l -1.59375,0.23437 c -0.15625,-0.64583 -0.42708,-1.13021 -0.8125,-1.45312 -0.38541,-0.33334 -0.84895,-0.50001 -1.39062,-0.5 -0.82292,-1e-5 -1.49479,0.29687 -2.01563,0.89062 -0.52083,0.59375 -0.78125,1.53125 -0.78125,2.8125 0,1.30208 0.25,2.25 0.75,2.84375 0.5,0.58333 1.15105,0.875 1.95313,0.875 0.64583,0 1.18229,-0.19792 1.60937,-0.59375 0.4375,-0.39583 0.71355,-1.00521 0.82813,-1.82812 z m 3.4375,3.54687 v -1.875 h 1.875 v 1.875 c 0,0.6875 -0.125,1.23958 -0.375,1.65625 -0.23958,0.42708 -0.625,0.75521 -1.15625,0.98438 l -0.45313,-0.70313 c 0.34375,-0.14583 0.59896,-0.36979 0.76563,-0.67187 0.16667,-0.29167 0.26045,-0.71355 0.28125,-1.26563 z m 9.33536,-4.84375 c 0,-1.79167 0.49479,-3.11458 1.48437,-3.96875 0.83333,-0.71875 1.84896,-1.07813 3.04688,-1.07812 1.33333,-1e-5 2.42187,0.43749 3.26562,1.3125 0.84375,0.86458 1.26563,2.0677 1.26563,3.60937 0,1.23958 -0.1875,2.21875 -0.5625,2.9375 -0.375,0.70833 -0.92188,1.26042 -1.64063,1.65625 -0.70833,0.39583 -1.48437,0.59375 -2.32812,0.59375 -1.35417,0 -2.44792,-0.43229 -3.28125,-1.29687 -0.83334,-0.87501 -1.25,-2.13021 -1.25,-3.76563 z m 1.6875,0 c 0,1.23958 0.26562,2.17187 0.79687,2.79688 0.54167,0.61458 1.22396,0.92187 2.04688,0.92187 0.8125,0 1.48958,-0.30729 2.03125,-0.92187 0.54166,-0.62501 0.8125,-1.57292 0.8125,-2.84375 0,-1.19792 -0.27084,-2.10417 -0.8125,-2.71875 -0.54167,-0.61459 -1.21875,-0.92188 -2.03125,-0.92188 -0.82292,0 -1.50521,0.30729 -2.04688,0.92188 -0.53125,0.60416 -0.79687,1.52604 -0.79687,2.76562 z m 10.7976,4.84375 h -1.51562 v -13.35937 h 1.64062 v 4.76562 c 0.69792,-0.86458 1.58334,-1.29688 2.65625,-1.29687 0.59375,-1e-5 1.15625,0.11979 1.6875,0.35937 0.53125,0.23958 0.96875,0.57812 1.3125,1.01563 0.34375,0.42708 0.60938,0.94791 0.79688,1.5625 0.19787,0.61458 0.29687,1.27083 0.29687,1.96875 0,1.65624 -0.41145,2.93749 -1.23437,3.84375 -0.8125,0.90624 -1.79688,1.35937 -2.95313,1.35937 -1.13541,0 -2.03125,-0.47917 -2.6875,-1.4375 z m -0.0156,-4.90625 c 0,1.15625 0.16146,1.99479 0.48437,2.51563 0.51042,0.84374 1.20834,1.26562 2.09375,1.26562 0.71875,0 1.33855,-0.3125 1.85938,-0.9375 0.52083,-0.625 0.78125,-1.55208 0.78125,-2.78125 0,-1.26042 -0.25,-2.19271 -0.75,-2.79687 -0.5,-0.60417 -1.10938,-0.90626 -1.82813,-0.90625 -0.70833,-1e-5 -1.32812,0.31249 -1.85937,0.9375 -0.52083,0.62499 -0.78125,1.52604 -0.78125,2.70312 z m 8.87567,-6.54687 v -1.90625 h 1.64062 v 1.90625 z m -2.07813,15.20312 0.3125,-1.39062 c 0.33334,0.0833 0.59375,0.12499 0.78125,0.125 0.33334,-1e-5 0.57813,-0.10938 0.73438,-0.32813 0.1667,-0.21875 0.25,-0.77604 0.25,-1.67187 v -10.15625 h 1.64062 v 10.20312 c 0,1.1875 -0.15625,2.01562 -0.46875,2.48438 -0.39583,0.60416 -1.05208,0.90624 -1.96875,0.90625 -0.4375,-1e-5 -0.86458,-0.0573 -1.28125,-0.17188 z m 7.31672,0.17188 h -1.1875 c 1.82291,-2.91667 2.73437,-5.83334 2.73437,-8.75 0,-1.14584 -0.13021,-2.27605 -0.39062,-3.39063 -0.20834,-0.91667 -0.5,-1.79167 -0.875,-2.625 -0.23959,-0.55208 -0.72917,-1.46354 -1.46875,-2.73437 h 1.1875 c 1.13541,1.52083 1.97916,3.05208 2.53125,4.59375 0.45833,1.32291 0.6875,2.70312 0.6875,4.14062 0,1.64583 -0.3125,3.23437 -0.9375,4.76563 -0.625,1.53124 -1.38542,2.86458 -2.28125,4 z"
       fill="#000000" />
    <path
       sodipodi:nodetypes="ssssssssss"
       id="path1110"
       fill-rule="evenodd"
       d="m 197.021,319.6404 v 0 c 0,-12.12418 9.82858,-21.95276 21.95276,-21.95276 v 0 c 5.82223,0 11.406,2.3129 15.52293,6.42981 4.11695,4.11694 6.42983,9.70071 6.42983,15.52295 v 0 c 0,12.12418 -9.82859,21.95276 -21.95276,21.95276 v 0 c -12.12418,0 -21.95276,-9.82858 -21.95276,-21.95276 z"
       fill="#cfe2f3" />
    <path
       sodipodi:nodetypes="ssssssssss"
       id="path1112"
       fill-rule="evenodd"
       d="m 197.021,319.6404 v 0 c 0,-12.12418 9.82858,-21.95276 21.95276,-21.95276 v 0 c 5.82223,0 11.406,2.3129 15.52293,6.42981 4.11695,4.11694 6.42983,9.70071 6.42983,15.52295 v 0 c 0,12.12418 -9.82859,21.95276 -21.95276,21.95276 v 0 c -12.12418,0 -21.95276,-9.82858 -21.95276,-21.95276 z"
       stroke-linecap="butt"
       stroke-linejoin="round"
       stroke-width="1"
       stroke="#000000" />
    <path
       sodipodi:nodetypes="ssssssssss"
       id="path1114"
       fill-rule="evenodd"
       d="m 213.021,335.6404 v 0 c 0,-12.12418 9.82858,-21.95276 21.95276,-21.95276 v 0 c 5.82223,0 11.406,2.3129 15.52293,6.42981 4.11695,4.11694 6.42983,9.70071 6.42983,15.52295 v 0 c 0,12.12418 -9.82859,21.95276 -21.95276,21.95276 v 0 c -12.12418,0 -21.95276,-9.82858 -21.95276,-21.95276 z"
       fill="#cfe2f3" />
    <path
       sodipodi:nodetypes="ssssssssss"
       id="path1116"
       fill-rule="evenodd"
       d="m 213.021,335.6404 v 0 c 0,-12.12418 9.82858,-21.95276 21.95276,-21.95276 v 0 c 5.82223,0 11.406,2.3129 15.52293,6.42981 4.11695,4.11694 6.42983,9.70071 6.42983,15.52295 v 0 c 0,12.12418 -9.82859,21.95276 -21.95276,21.95276 v 0 c -12.12418,0 -21.95276,-9.82858 -21.95276,-21.95276 z"
       stroke-linecap="butt"
       stroke-linejoin="round"
       stroke-width="1"
       stroke="#000000" />
    <path
       sodipodi:nodetypes="ssssssssss"
       id="path1118"
       fill-rule="evenodd"
       d="m 229.021,351.6404 v 0 c 0,-12.12418 9.82858,-21.95276 21.95276,-21.95276 v 0 c 5.82223,0 11.406,2.3129 15.52295,6.42981 4.11694,4.11694 6.42981,9.70071 6.42981,15.52295 v 0 c 0,12.12418 -9.82859,21.95276 -21.95276,21.95276 v 0 c -12.12418,0 -21.95276,-9.82858 -21.95276,-21.95276 z"
       fill="#cfe2f3" />
    <path
       sodipodi:nodetypes="ssssssssss"
       id="path1120"
       fill-rule="evenodd"
       d="m 229.021,351.6404 v 0 c 0,-12.12418 9.82858,-21.95276 21.95276,-21.95276 v 0 c 5.82223,0 11.406,2.3129 15.52295,6.42981 4.11694,4.11694 6.42981,9.70071 6.42981,15.52295 v 0 c 0,12.12418 -9.82859,21.95276 -21.95276,21.95276 v 0 c -12.12418,0 -21.95276,-9.82858 -21.95276,-21.95276 z"
       stroke-linecap="butt"
       stroke-linejoin="round"
       stroke-width="1"
       stroke="#000000" />
    <path
       sodipodi:nodetypes="cc"
       id="path1122"
       fill-rule="evenodd"
       d="M 206.2126,229.78215 357.36221,189.4357"
       fill-opacity="0"
       fill="#000000" />
    <path
       sodipodi:nodetypes="cc"
       id="path1124"
       fill-rule="evenodd"
       d="m 206.2126,229.78215 147.83846,-39.4626"
       stroke-linecap="butt"
       stroke-linejoin="round"
       stroke-width="1"
       stroke="#000000" />
    <path
       sodipodi:nodetypes="ccccc"
       id="path1126"
       fill-rule="evenodd"
       d="m 354.05106,190.31955 -0.79651,1.37657 2.69522,-1.88341 -3.2753,-0.28967 z"
       stroke-linecap="butt"
       stroke-width="1"
       stroke="#000000"
       fill="#000000" />
    <path
       sodipodi:nodetypes="cc"
       id="path1128"
       fill-rule="evenodd"
       d="M 218.97375,297.68765 357.36745,189.4357"
       fill-opacity="0"
       fill="#000000" />
    <path
       sodipodi:nodetypes="cc"
       id="path1130"
       fill-rule="evenodd"
       d="M 218.97375,297.68765 354.66805,191.54716"
       stroke-linecap="butt"
       stroke-linejoin="round"
       stroke-width="1"
       stroke="#b7b7b7" />
    <path
       sodipodi:nodetypes="ccccc"
       id="path1132"
       fill-rule="evenodd"
       d="m 354.66806,191.54716 -0.1929,1.57864 1.74081,-2.78941 -3.12655,1.01784 z"
       stroke-linecap="butt"
       stroke-width="1"
       stroke="#b7b7b7"
       fill="#b7b7b7" />
    <path
       sodipodi:nodetypes="cc"
       id="path1134"
       fill-rule="evenodd"
       d="m 272.9265,351.6404 84.44095,2.39371"
       fill-opacity="0"
       fill="#000000" />
    <path
       sodipodi:nodetypes="cc"
       id="path1136"
       fill-rule="evenodd"
       d="m 272.9265,351.6404 81.0152,2.2966"
       stroke-linecap="butt"
       stroke-linejoin="round"
       stroke-width="1"
       stroke="#b7b7b7" />
    <path
       sodipodi:nodetypes="ccccc"
       id="path1138"
       fill-rule="evenodd"
       d="m 353.94174,353.937 -1.15601,1.09225 3.1204,-1.03656 -3.05664,-1.2117 z"
       stroke-linecap="butt"
       stroke-width="1"
       stroke="#b7b7b7"
       fill="#b7b7b7" />
    <path
       sodipodi:nodetypes="cc"
       id="path1140"
       fill-rule="evenodd"
       d="M 234.97375,313.68765 357.36746,267.04199"
       fill-opacity="0"
       fill="#000000" />
    <path
       sodipodi:nodetypes="cc"
       id="path1142"
       fill-rule="evenodd"
       d="M 234.97375,313.68765 354.16507,268.26248"
       stroke-linecap="butt"
       stroke-linejoin="round"
       stroke-width="1"
       stroke="#b7b7b7" />
    <path
       sodipodi:nodetypes="ccccc"
       id="path1144"
       fill-rule="evenodd"
       d="m 354.16504,268.26245 -0.65036,1.45132 2.48672,-2.15118 -3.28768,0.0495 z"
       stroke-linecap="butt"
       stroke-width="1"
       stroke="#b7b7b7"
       fill="#b7b7b7" />
    <path
       sodipodi:nodetypes="cc"
       id="path1146"
       fill-rule="evenodd"
       d="m 206.2021,229.76903 134.83464,19.90552"
       fill-opacity="0"
       fill="#000000" />
    <path
       sodipodi:nodetypes="cc"
       id="path1148"
       fill-rule="evenodd"
       d="m 206.2021,229.76903 131.44429,19.405"
       stroke-linecap="butt"
       stroke-linejoin="round"
       stroke-width="1"
       stroke="#000000" />
    <path
       sodipodi:nodetypes="ccccc"
       id="path1150"
       fill-rule="evenodd"
       d="m 337.6464,249.17403 -1.27676,0.94829 3.22088,-0.66129 -2.89239,-1.56376 z"
       stroke-linecap="butt"
       stroke-width="1"
       stroke="#000000"
       fill="#000000" />
    <path
       sodipodi:nodetypes="cc"
       id="path1152"
       fill-rule="evenodd"
       d="m 206.2021,229.76903 133.79527,96.50395"
       fill-opacity="0"
       fill="#000000" />
    <path
       sodipodi:nodetypes="cc"
       id="path1154"
       fill-rule="evenodd"
       d="m 206.2021,229.76903 131.01576,94.49913"
       stroke-linecap="butt"
       stroke-linejoin="round"
       stroke-width="1"
       stroke="#000000" />
    <path
       sodipodi:nodetypes="ccccc"
       id="path1156"
       fill-rule="evenodd"
       d="m 337.21786,324.26816 -1.56995,0.25421 3.16379,0.89539 -1.84805,-2.71955 z"
       stroke-linecap="butt"
       stroke-width="1"
       stroke="#000000"
       fill="#000000" />
    <path
       sodipodi:nodetypes="ccccc"
       id="path1158"
       fill-rule="evenodd"
       d="m 357.3622,245.1798 h 209.35434 v 53.10237 H 357.3622 Z"
       fill="#ffffff" />
    <path
       sodipodi:nodetypes="ccccc"
       id="path1160"
       fill-rule="evenodd"
       d="m 357.3622,245.1798 h 209.35434 v 53.10237 H 357.3622 Z"
       stroke-linecap="butt"
       stroke-linejoin="round"
       stroke-width="1"
       stroke="#0b5394" />
    <path
       sodipodi:nodetypes="cccccsccscsccscsscsccsssscscccccssscccccscsscccsscccssccscsccscsssccsccccccsccsscsscccscscsccccccccccccccsccsscccccccscscscscccccccccccccccccsccscsccscsscsccssssccccscscscccccscscsssccsccsccsccccccccccscsccccccscscscsccscccccsccccsscccccccccccccscssccscsccccccccscscsccscssccsscccccccssccsccscsssccccccsssscsscccssscccccccsccscccscscscscccscscssccccccccssccsscccscsssccscccsssccscsccsscsccscccccc"
       id="path1162"
       fill-rule="nonzero"
       d="m 367.5966,278.65097 v -9.67188 h 1.46875 v 1.35938 c 0.30208,-0.47917 0.70313,-0.85938 1.20313,-1.14063 0.51041,-0.29166 1.08333,-0.4375 1.71875,-0.4375 0.71875,0 1.30729,0.15105 1.76562,0.45313 0.45833,0.29167 0.78125,0.70312 0.96875,1.23437 0.77083,-1.125 1.76563,-1.6875 2.98438,-1.6875 0.96875,0 1.70833,0.26563 2.21875,0.79688 0.52083,0.53125 0.78125,1.34896 0.78125,2.45312 v 6.64063 h -1.64063 v -6.09375 c 0,-0.65625 -0.0521,-1.125 -0.15625,-1.40625 -0.10417,-0.29167 -0.29687,-0.52604 -0.57812,-0.70313 -0.28125,-0.17712 -0.60938,-0.26562 -0.98438,-0.26562 -0.67708,0 -1.23958,0.22917 -1.6875,0.6875 -0.44792,0.44792 -0.67187,1.16667 -0.67187,2.15625 v 5.625 h -1.64063 v -6.28125 c 0,-0.72917 -0.13542,-1.27604 -0.40625,-1.64063 -0.27083,-0.36458 -0.70833,-0.54687 -1.3125,-0.54687 -0.45833,0 -0.88542,0.11979 -1.28125,0.35937 -0.39583,0.23959 -0.68229,0.59375 -0.85937,1.0625 -0.1667,0.46875 -0.25,1.14584 -0.25,2.03125 v 5.01563 z m 22.18148,0 c -0.17709,-0.34375 -0.28643,-0.73958 -0.32813,-1.1875 -0.61458,0.51042 -1.20312,0.875 -1.76562,1.09375 -0.55209,0.20833 -1.15104,0.3125 -1.79688,0.3125 -1.0625,0 -1.88021,-0.26042 -2.45312,-0.78125 -0.57292,-0.52083 -0.85938,-1.18229 -0.85938,-1.98438 0,-0.47916 0.10938,-0.91145 0.32813,-1.29687 0.21875,-0.39583 0.5,-0.70833 0.84375,-0.9375 0.35416,-0.23958 0.75,-0.42188 1.1875,-0.54688 0.3125,-0.0833 0.79687,-0.1667 1.45312,-0.25 1.32292,-0.15625 2.29688,-0.34375 2.92188,-0.5625 0.0106,-0.22916 0.0156,-0.36977 0.0156,-0.42187 0,-0.66667 -0.15625,-1.14063 -0.46875,-1.42188 -0.41666,-0.36458 -1.04166,-0.54687 -1.875,-0.54687 -0.77083,0 -1.33854,0.13542 -1.70312,0.40625 -0.36459,0.27083 -0.63542,0.74479 -0.8125,1.42187 l -1.60938,-0.21875 c 0.14584,-0.67708 0.38542,-1.22395 0.71875,-1.64062 0.33334,-0.42708 0.81771,-0.75521 1.45313,-0.98438 0.63541,-0.22916 1.36458,-0.34375 2.1875,-0.34375 0.83333,0 1.50521,0.099 2.01562,0.29688 0.52084,0.1875 0.90104,0.43229 1.14063,0.73437 0.25,0.29167 0.42192,0.66146 0.51562,1.10938 0.0521,0.28125 0.0781,0.78646 0.0781,1.51562 v 2.1875 c 0,1.52084 0.0365,2.48438 0.10937,2.89063 0.0729,0.39583 0.20834,0.78125 0.40625,1.15625 h -1.70312 z m -0.4688,-4.85938 c -0.59375,0.25 -1.48438,0.45834 -2.67188,0.625 -0.67708,0.0937 -1.15625,0.20313 -1.4375,0.32813 -0.28125,0.125 -0.5,0.30208 -0.65625,0.53125 -0.14585,0.22917 -0.21875,0.48958 -0.21875,0.78125 0,0.4375 0.16667,0.80208 0.5,1.09375 0.33334,0.29167 0.81771,0.4375 1.45313,0.4375 0.625,0 1.18229,-0.13542 1.67187,-0.40625 0.5,-0.28125 0.86459,-0.66146 1.09375,-1.14063 0.17713,-0.375 0.26563,-0.92187 0.26563,-1.64062 z m 4.20382,8.5625 v -13.375 h 1.48438 v 1.25 c 0.35417,-0.48958 0.75,-0.85416 1.1875,-1.09375 0.44792,-0.25 0.98958,-0.375 1.625,-0.375 0.82292,0 1.54687,0.21355 2.17187,0.64063 0.63542,0.41667 1.11459,1.01562 1.4375,1.79687 0.32292,0.77084 0.48438,1.6198 0.48438,2.54688 0,0.98958 -0.17708,1.88021 -0.53125,2.67187 -0.35417,0.79167 -0.86979,1.40105 -1.54688,1.82813 -0.67708,0.41667 -1.39062,0.625 -2.14062,0.625 -0.54167,0 -1.03125,-0.11458 -1.46875,-0.34375 -0.4375,-0.22917 -0.79167,-0.52083 -1.0625,-0.875 v 4.70312 z m 1.48438,-8.48437 c 0,1.23958 0.25,2.16146 0.75,2.76562 0.51042,0.59375 1.11979,0.89063 1.82812,0.89063 0.72917,0 1.35417,-0.30729 1.875,-0.92188 0.52084,-0.625 0.78125,-1.58333 0.78125,-2.875 0,-1.22916 -0.2552,-2.15104 -0.76562,-2.76562 -0.5,-0.61458 -1.10417,-0.92188 -1.8125,-0.92188 -0.69792,0 -1.31771,0.32813 -1.85938,0.98438 -0.53125,0.64583 -0.79687,1.59375 -0.79687,2.84375 z m 9.34448,4.78125 v -1.875 h 1.875 v 1.875 z m 4.71454,0 v -9.67188 h 1.46875 v 1.46875 c 0.375,-0.6875 0.71875,-1.14062 1.03125,-1.35937 0.32292,-0.21875 0.67708,-0.32813 1.0625,-0.32813 0.55208,0 1.11458,0.17709 1.6875,0.53125 l -0.5625,1.51563 c -0.40625,-0.23958 -0.80729,-0.35938 -1.20313,-0.35938 -0.36458,0 -0.6875,0.10938 -0.96875,0.32813 -0.28125,0.21875 -0.48437,0.51562 -0.60937,0.89062 -0.18755,0.58334 -0.28125,1.22396 -0.28125,1.92188 v 5.0625 z m 12.8533,-3.10938 1.6875,0.20313 c -0.27083,0.98958 -0.76562,1.76042 -1.48437,2.3125 -0.71875,0.54167 -1.64063,0.8125 -2.76563,0.8125 -1.41667,0 -2.54167,-0.43229 -3.375,-1.29688 -0.82292,-0.875 -1.23437,-2.09895 -1.23437,-3.67187 0,-1.63542 0.41666,-2.90104 1.25,-3.79688 0.84375,-0.89583 1.93229,-1.34375 3.26562,-1.34375 1.29167,0 2.34375,0.44271 3.15625,1.32813 0.82292,0.875 1.23438,2.10937 1.23438,3.70312 v 0.4375 h -7.21875 c 0.0625,1.0625 0.36458,1.88021 0.90625,2.45313 0.54166,0.5625 1.21354,0.84375 2.01562,0.84375 0.60417,0 1.11979,-0.15625 1.54688,-0.46875 0.42708,-0.32292 0.76562,-0.82813 1.01562,-1.51563 z m -5.39062,-2.65625 h 5.40625 c -0.0729,-0.8125 -0.28125,-1.42187 -0.625,-1.82812 -0.52084,-0.63542 -1.19792,-0.95313 -2.03125,-0.95313 -0.75,0 -1.38542,0.25521 -1.90625,0.76563 -0.51042,0.5 -0.79165,1.17187 -0.84375,2.01562 z m 9.14135,5.76563 v -9.67188 h 1.46875 v 1.35938 c 0.30209,-0.47917 0.70313,-0.85938 1.20313,-1.14063 0.51042,-0.29166 1.08333,-0.4375 1.71875,-0.4375 0.71875,0 1.30729,0.15105 1.76562,0.45313 0.45834,0.29167 0.78125,0.70312 0.96875,1.23437 0.77084,-1.125 1.76563,-1.6875 2.98438,-1.6875 0.96875,0 1.70833,0.26563 2.21875,0.79688 0.52083,0.53125 0.78125,1.34896 0.78125,2.45312 v 6.64063 h -1.64063 v -6.09375 c 0,-0.65625 -0.0521,-1.125 -0.15625,-1.40625 -0.10416,-0.29167 -0.29687,-0.52604 -0.57812,-0.70313 -0.28125,-0.17712 -0.60938,-0.26562 -0.98438,-0.26562 -0.67708,0 -1.23958,0.22917 -1.6875,0.6875 -0.44791,0.44792 -0.67187,1.16667 -0.67187,2.15625 v 5.625 h -1.64063 v -6.28125 c 0,-0.72917 -0.13541,-1.27604 -0.40625,-1.64063 -0.27083,-0.36458 -0.70833,-0.54687 -1.3125,-0.54687 -0.45833,0 -0.88541,0.11979 -1.28125,0.35937 -0.39583,0.23959 -0.68229,0.59375 -0.85937,1.0625 -0.1667,0.46875 -0.25,1.14584 -0.25,2.03125 v 5.01563 z m 14.93143,-4.84375 c 0,-1.79167 0.49479,-3.11458 1.48438,-3.96875 0.83333,-0.71875 1.84895,-1.07813 3.04687,-1.07813 1.33333,0 2.42188,0.4375 3.26563,1.3125 0.84375,0.86459 1.26562,2.06771 1.26562,3.60938 0,1.23958 -0.1875,2.21875 -0.5625,2.9375 -0.375,0.70833 -0.92187,1.26042 -1.64062,1.65625 -0.70834,0.39583 -1.48438,0.59375 -2.32813,0.59375 -1.35417,0 -2.44792,-0.43229 -3.28125,-1.29688 -0.83333,-0.875 -1.25,-2.1302 -1.25,-3.76562 z m 1.6875,0 c 0,1.23958 0.26563,2.17187 0.79688,2.79687 0.54166,0.61459 1.22395,0.92188 2.04687,0.92188 0.8125,0 1.48958,-0.30729 2.03125,-0.92188 0.54167,-0.625 0.8125,-1.57291 0.8125,-2.84375 0,-1.19791 -0.27083,-2.10416 -0.8125,-2.71875 -0.54167,-0.61458 -1.21875,-0.92187 -2.03125,-0.92187 -0.82292,0 -1.50521,0.30729 -2.04687,0.92187 -0.53125,0.60417 -0.79688,1.52605 -0.79688,2.76563 z m 12.15698,3.4375 c 0.17709,0 0.41667,-0.0208 0.71875,-0.0625 l 0.23438,1.45312 c -0.45834,0.0937 -0.86979,0.14063 -1.23438,0.14063 -0.59375,0 -1.05729,-0.0937 -1.39062,-0.28125 -0.32292,-0.1875 -0.55209,-0.43229 -0.6875,-0.73438 -0.13543,-0.3125 -0.20313,-0.95833 -0.20313,-1.9375 v -5.57812 h -1.20312 v -1.26563 h 1.20312 v -2.39062 l 1.625,-0.98438 v 3.375 h 1.65625 v 1.26563 h -1.65625 v 5.67187 c 0,0.45834 0.026,0.75521 0.0781,0.89063 0.0625,0.13542 0.15625,0.24482 0.28125,0.32812 0.13541,0.0729 0.32812,0.10938 0.57812,0.10938 z m 8.94892,-1.70313 1.6875,0.20313 c -0.27084,0.98958 -0.76563,1.76042 -1.48438,2.3125 -0.71875,0.54167 -1.64062,0.8125 -2.76562,0.8125 -1.41667,0 -2.54167,-0.43229 -3.375,-1.29688 -0.82292,-0.875 -1.23438,-2.09895 -1.23438,-3.67187 0,-1.63542 0.41667,-2.90104 1.25,-3.79688 0.84375,-0.89583 1.93229,-1.34375 3.26563,-1.34375 1.29166,0 2.34375,0.44271 3.15625,1.32813 0.82291,0.875 1.23437,2.10937 1.23437,3.70312 v 0.4375 h -7.21875 c 0.0625,1.0625 0.36458,1.88021 0.90625,2.45313 0.54167,0.5625 1.21354,0.84375 2.01563,0.84375 0.60416,0 1.11979,-0.15625 1.54687,-0.46875 0.42708,-0.32292 0.76563,-0.82813 1.01563,-1.51563 z m -5.39063,-2.65625 h 5.40625 c -0.0729,-0.8125 -0.28125,-1.42187 -0.625,-1.82812 -0.52083,-0.63542 -1.19792,-0.95313 -2.03125,-0.95313 -0.75,0 -1.38542,0.25521 -1.90625,0.76563 -0.51042,0.5 -0.79165,1.17187 -0.84375,2.01562 z m 12.26633,9.6875 c -0.90625,-1.13541 -1.67188,-2.46875 -2.29688,-4 -0.625,-1.53125 -0.9375,-3.11979 -0.9375,-4.76562 0,-1.4375 0.23438,-2.81771 0.70313,-4.14063 0.55208,-1.54166 1.39583,-3.07291 2.53125,-4.59375 h 1.17187 c -0.72916,1.26042 -1.21354,2.16146 -1.45312,2.70313 -0.36458,0.83333 -0.65625,1.70833 -0.875,2.625 -0.26042,1.13542 -0.39063,2.27604 -0.39063,3.42187 0,2.91667 0.90625,5.83334 2.71875,8.75 z m 3.4783,-3.92192 v -8.40625 h -1.45312 v -1.26563 h 1.45312 v -1.03125 c 0,-0.64583 0.0573,-1.1302 0.17188,-1.45312 0.15625,-0.42708 0.43229,-0.77083 0.82812,-1.03125 0.39583,-0.26042 0.95313,-0.39063 1.67188,-0.39063 0.45833,0 0.96875,0.0521 1.53125,0.15625 l -0.25,1.4375 c -0.33334,-0.0625 -0.65105,-0.0937 -0.95313,-0.0937 -0.5,0 -0.85417,0.10938 -1.0625,0.32813 -0.20833,0.20833 -0.3125,0.60417 -0.3125,1.1875 v 0.89062 h 1.89063 v 1.26563 h -1.89063 v 8.40625 z m 11.12082,5e-5 v -1.42188 c -0.75,1.09375 -1.77083,1.64063 -3.0625,1.64063 -0.57292,0 -1.10938,-0.10938 -1.60938,-0.32813 -0.48958,-0.21875 -0.85416,-0.49479 -1.09375,-0.82812 -0.23958,-0.33333 -0.4063,-0.73958 -0.5,-1.21875 -0.0729,-0.3125 -0.10937,-0.82292 -0.10937,-1.53125 v -5.98438 h 1.64062 v 5.35938 c 0,0.85417 0.0365,1.43229 0.10938,1.73437 0.10417,0.42709 0.32292,0.76563 0.65625,1.01563 0.33333,0.25 0.74479,0.375 1.23437,0.375 0.48959,0 0.94792,-0.125 1.375,-0.375 0.4375,-0.26042 0.7448,-0.60417 0.92188,-1.03125 0.17712,-0.4375 0.26562,-1.06771 0.26562,-1.89063 v -5.1875 h 1.64063 v 9.67188 z m 4.04763,0 v -9.67188 h 1.46875 v 1.375 c 0.70833,-1.0625 1.73437,-1.59375 3.07812,-1.59375 0.58333,0 1.11979,0.10417 1.60938,0.3125 0.48958,0.20834 0.85416,0.48438 1.09375,0.82813 0.25,0.33333 0.42192,0.73437 0.51562,1.20312 0.0625,0.30209 0.0937,0.83334 0.0937,1.59375 v 5.95313 h -1.64062 v -5.89063 c 0,-0.66666 -0.0677,-1.16145 -0.20313,-1.48437 -0.125,-0.33333 -0.34896,-0.59896 -0.67187,-0.79688 -0.32292,-0.19787 -0.70313,-0.29687 -1.14063,-0.29687 -0.69792,0 -1.30208,0.22396 -1.8125,0.67187 -0.5,0.4375 -0.75,1.27605 -0.75,2.51563 v 5.28125 z m 16.68818,-3.54688 1.60937,0.21875 c -0.17708,1.10417 -0.6302,1.97396 -1.35937,2.60938 -0.71875,0.625 -1.60938,0.9375 -2.67188,0.9375 -1.32291,0 -2.38541,-0.43229 -3.1875,-1.29688 -0.80208,-0.86458 -1.20312,-2.10416 -1.20312,-3.71875 0,-1.05208 0.17187,-1.96875 0.51562,-2.75 0.34375,-0.78125 0.8698,-1.36458 1.57813,-1.75 0.70833,-0.39583 1.47917,-0.59375 2.3125,-0.59375 1.05208,0 1.91146,0.26563 2.57812,0.79688 0.66667,0.53125 1.09375,1.28646 1.28125,2.26562 l -1.59375,0.23438 c -0.15625,-0.64583 -0.42708,-1.13021 -0.8125,-1.45313 -0.38541,-0.33333 -0.84895,-0.5 -1.39062,-0.5 -0.82292,0 -1.49479,0.29688 -2.01563,0.89063 -0.52083,0.59375 -0.78125,1.53125 -0.78125,2.8125 0,1.30208 0.25,2.25 0.75,2.84375 0.5,0.58333 1.15105,0.875 1.95313,0.875 0.64583,0 1.18229,-0.19792 1.60937,-0.59375 0.4375,-0.39583 0.71355,-1.00521 0.82813,-1.82813 z m 3.4375,3.54688 v -1.875 h 1.875 v 1.875 c 0,0.6875 -0.125,1.23958 -0.375,1.65625 -0.23958,0.42708 -0.625,0.75521 -1.15625,0.98437 l -0.45313,-0.70312 c 0.34375,-0.14583 0.59896,-0.36979 0.76563,-0.67188 0.16667,-0.29166 0.26045,-0.71354 0.28125,-1.26562 z m 9.33536,-4.84375 c 0,-1.79167 0.49479,-3.11458 1.48437,-3.96875 0.83333,-0.71875 1.84896,-1.07813 3.04688,-1.07813 1.33333,0 2.42187,0.4375 3.26562,1.3125 0.84375,0.86459 1.26563,2.06771 1.26563,3.60938 0,1.23958 -0.1875,2.21875 -0.5625,2.9375 -0.375,0.70833 -0.92188,1.26042 -1.64063,1.65625 -0.70833,0.39583 -1.48437,0.59375 -2.32812,0.59375 -1.35417,0 -2.44792,-0.43229 -3.28125,-1.29688 -0.83334,-0.875 -1.25,-2.1302 -1.25,-3.76562 z m 1.6875,0 c 0,1.23958 0.26562,2.17187 0.79687,2.79687 0.54167,0.61459 1.22396,0.92188 2.04688,0.92188 0.8125,0 1.48958,-0.30729 2.03125,-0.92188 0.54166,-0.625 0.8125,-1.57291 0.8125,-2.84375 0,-1.19791 -0.27084,-2.10416 -0.8125,-2.71875 -0.54167,-0.61458 -1.21875,-0.92187 -2.03125,-0.92187 -0.82292,0 -1.50521,0.30729 -2.04688,0.92187 -0.53125,0.60417 -0.79687,1.52605 -0.79687,2.76563 z m 10.7976,4.84375 h -1.51562 v -13.35938 h 1.64062 v 4.76563 c 0.69792,-0.86458 1.58334,-1.29688 2.65625,-1.29688 0.59375,0 1.15625,0.1198 1.6875,0.35938 0.53125,0.23958 0.96875,0.57812 1.3125,1.01562 0.34375,0.42709 0.60938,0.94792 0.79688,1.5625 0.19787,0.61459 0.29687,1.27084 0.29687,1.96875 0,1.65625 -0.41145,2.9375 -1.23437,3.84375 -0.8125,0.90625 -1.79688,1.35938 -2.95313,1.35938 -1.13541,0 -2.03125,-0.47917 -2.6875,-1.4375 z m -0.0156,-4.90625 c 0,1.15625 0.16146,1.99479 0.48437,2.51562 0.51042,0.84375 1.20834,1.26563 2.09375,1.26563 0.71875,0 1.33855,-0.3125 1.85938,-0.9375 0.52083,-0.625 0.78125,-1.55208 0.78125,-2.78125 0,-1.26042 -0.25,-2.19271 -0.75,-2.79688 -0.5,-0.60416 -1.10938,-0.90625 -1.82813,-0.90625 -0.70833,0 -1.32812,0.3125 -1.85937,0.9375 -0.52083,0.625 -0.78125,1.52605 -0.78125,2.70313 z m 8.87567,-6.54688 v -1.90625 h 1.64062 v 1.90625 z m -2.07813,15.20313 0.3125,-1.39063 c 0.33334,0.0833 0.59375,0.125 0.78125,0.125 0.33334,0 0.57813,-0.10937 0.73438,-0.32812 0.1667,-0.21875 0.25,-0.77604 0.25,-1.67188 v -10.15625 h 1.64062 v 10.20313 c 0,1.1875 -0.15625,2.01562 -0.46875,2.48437 -0.39583,0.60417 -1.05208,0.90625 -1.96875,0.90625 -0.4375,0 -0.86458,-0.0573 -1.28125,-0.17187 z m 7.31672,0.17187 h -1.1875 c 1.82291,-2.91666 2.73437,-5.83333 2.73437,-8.75 0,-1.14583 -0.13021,-2.27604 -0.39062,-3.39062 -0.20834,-0.91667 -0.5,-1.79167 -0.875,-2.625 -0.23959,-0.55208 -0.72917,-1.46354 -1.46875,-2.73438 h 1.1875 c 1.13541,1.52084 1.97916,3.05209 2.53125,4.59375 0.45833,1.32292 0.6875,2.70313 0.6875,4.14063 0,1.64583 -0.3125,3.23437 -0.9375,4.76562 -0.625,1.53125 -1.38542,2.86459 -2.28125,4 z"
       fill="#000000" />
    <path
       sodipodi:nodetypes="ccccc"
       id="path1164"
       fill-rule="evenodd"
       d="m 357.3622,327.47507 h 209.35434 v 53.10236 H 357.3622 Z"
       fill="#ffffff" />
    <path
       sodipodi:nodetypes="ccccc"
       id="path1166"
       fill-rule="evenodd"
       d="m 357.3622,327.47507 h 209.35434 v 53.10236 H 357.3622 Z"
       stroke-linecap="butt"
       stroke-linejoin="round"
       stroke-width="1"
       stroke="#0b5394" />
    <path
       sodipodi:nodetypes="cccccsccscsccscsscsccsssscscccccssscccccscsscccsscccssccscsccscsssccsccccccsccsscsscccscscsccccccccccccccsccsscccccccscscscscccccccccccccccccsccscsccscsscsccssssccccscscscccccscscsssccsccsccsccccccccccscsccccccscscscsccscccccsccccsscccccccccccccscssccscsccccccccscscsccscssccsscccccccssccsccscsssccccccsssscsscccssscccccccsccscccscscscscccscscssccccccccssccsscccscsssccscccsssccscsccsscsccscccccc"
       id="path1168"
       fill-rule="nonzero"
       d="m 367.5966,360.94626 v -9.67188 h 1.46875 v 1.35938 c 0.30208,-0.47917 0.70313,-0.85938 1.20313,-1.14063 0.51041,-0.29166 1.08333,-0.4375 1.71875,-0.4375 0.71875,0 1.30729,0.15105 1.76562,0.45313 0.45833,0.29167 0.78125,0.70312 0.96875,1.23437 0.77083,-1.125 1.76563,-1.6875 2.98438,-1.6875 0.96875,0 1.70833,0.26563 2.21875,0.79688 0.52083,0.53125 0.78125,1.34896 0.78125,2.45312 v 6.64063 h -1.64063 v -6.09375 c 0,-0.65625 -0.0521,-1.125 -0.15625,-1.40625 -0.10417,-0.29167 -0.29687,-0.52604 -0.57812,-0.70313 -0.28125,-0.17712 -0.60938,-0.26562 -0.98438,-0.26562 -0.67708,0 -1.23958,0.22917 -1.6875,0.6875 -0.44792,0.44792 -0.67187,1.16667 -0.67187,2.15625 v 5.625 h -1.64063 v -6.28125 c 0,-0.72917 -0.13542,-1.27604 -0.40625,-1.64063 -0.27083,-0.36458 -0.70833,-0.54687 -1.3125,-0.54687 -0.45833,0 -0.88542,0.11979 -1.28125,0.35937 -0.39583,0.23959 -0.68229,0.59375 -0.85937,1.0625 -0.1667,0.46875 -0.25,1.14584 -0.25,2.03125 v 5.01563 z m 22.18148,0 c -0.17709,-0.34375 -0.28643,-0.73958 -0.32813,-1.1875 -0.61458,0.51042 -1.20312,0.875 -1.76562,1.09375 -0.55209,0.20833 -1.15104,0.3125 -1.79688,0.3125 -1.0625,0 -1.88021,-0.26042 -2.45312,-0.78125 -0.57292,-0.52083 -0.85938,-1.18229 -0.85938,-1.98438 0,-0.47916 0.10938,-0.91145 0.32813,-1.29687 0.21875,-0.39583 0.5,-0.70833 0.84375,-0.9375 0.35416,-0.23958 0.75,-0.42188 1.1875,-0.54688 0.3125,-0.0833 0.79687,-0.1667 1.45312,-0.25 1.32292,-0.15625 2.29688,-0.34375 2.92188,-0.5625 0.0106,-0.22916 0.0156,-0.36977 0.0156,-0.42187 0,-0.66667 -0.15625,-1.14063 -0.46875,-1.42188 -0.41666,-0.36458 -1.04166,-0.54687 -1.875,-0.54687 -0.77083,0 -1.33854,0.13542 -1.70312,0.40625 -0.36459,0.27083 -0.63542,0.74479 -0.8125,1.42187 l -1.60938,-0.21875 c 0.14584,-0.67708 0.38542,-1.22395 0.71875,-1.64062 0.33334,-0.42708 0.81771,-0.75521 1.45313,-0.98438 0.63541,-0.22916 1.36458,-0.34375 2.1875,-0.34375 0.83333,0 1.50521,0.099 2.01562,0.29688 0.52084,0.1875 0.90104,0.43229 1.14063,0.73437 0.25,0.29167 0.42192,0.66146 0.51562,1.10938 0.0521,0.28125 0.0781,0.78646 0.0781,1.51562 v 2.1875 c 0,1.52084 0.0365,2.48438 0.10937,2.89063 0.0729,0.39583 0.20834,0.78125 0.40625,1.15625 h -1.70312 z m -0.4688,-4.85938 c -0.59375,0.25 -1.48438,0.45834 -2.67188,0.625 -0.67708,0.0937 -1.15625,0.20313 -1.4375,0.32813 -0.28125,0.125 -0.5,0.30208 -0.65625,0.53125 -0.14585,0.22917 -0.21875,0.48958 -0.21875,0.78125 0,0.4375 0.16667,0.80208 0.5,1.09375 0.33334,0.29167 0.81771,0.4375 1.45313,0.4375 0.625,0 1.18229,-0.13542 1.67187,-0.40625 0.5,-0.28125 0.86459,-0.66146 1.09375,-1.14063 0.17713,-0.375 0.26563,-0.92187 0.26563,-1.64062 z m 4.20382,8.5625 v -13.375 h 1.48438 v 1.25 c 0.35417,-0.48958 0.75,-0.85416 1.1875,-1.09375 0.44792,-0.25 0.98958,-0.375 1.625,-0.375 0.82292,0 1.54687,0.21355 2.17187,0.64063 0.63542,0.41667 1.11459,1.01562 1.4375,1.79687 0.32292,0.77084 0.48438,1.6198 0.48438,2.54688 0,0.98958 -0.17708,1.88021 -0.53125,2.67187 -0.35417,0.79167 -0.86979,1.40105 -1.54688,1.82813 -0.67708,0.41667 -1.39062,0.625 -2.14062,0.625 -0.54167,0 -1.03125,-0.11458 -1.46875,-0.34375 -0.4375,-0.22917 -0.79167,-0.52083 -1.0625,-0.875 v 4.70312 z m 1.48438,-8.48437 c 0,1.23958 0.25,2.16146 0.75,2.76562 0.51042,0.59375 1.11979,0.89063 1.82812,0.89063 0.72917,0 1.35417,-0.30729 1.875,-0.92188 0.52084,-0.625 0.78125,-1.58333 0.78125,-2.875 0,-1.22916 -0.2552,-2.15104 -0.76562,-2.76562 -0.5,-0.61458 -1.10417,-0.92188 -1.8125,-0.92188 -0.69792,0 -1.31771,0.32813 -1.85938,0.98438 -0.53125,0.64583 -0.79687,1.59375 -0.79687,2.84375 z m 9.34448,4.78125 v -1.875 h 1.875 v 1.875 z m 4.71454,0 v -9.67188 h 1.46875 v 1.46875 c 0.375,-0.6875 0.71875,-1.14062 1.03125,-1.35937 0.32292,-0.21875 0.67708,-0.32813 1.0625,-0.32813 0.55208,0 1.11458,0.17709 1.6875,0.53125 l -0.5625,1.51563 c -0.40625,-0.23958 -0.80729,-0.35938 -1.20313,-0.35938 -0.36458,0 -0.6875,0.10938 -0.96875,0.32813 -0.28125,0.21875 -0.48437,0.51562 -0.60937,0.89062 -0.18755,0.58334 -0.28125,1.22396 -0.28125,1.92188 v 5.0625 z m 12.8533,-3.10938 1.6875,0.20313 c -0.27083,0.98958 -0.76562,1.76042 -1.48437,2.3125 -0.71875,0.54167 -1.64063,0.8125 -2.76563,0.8125 -1.41667,0 -2.54167,-0.43229 -3.375,-1.29688 -0.82292,-0.875 -1.23437,-2.09895 -1.23437,-3.67187 0,-1.63542 0.41666,-2.90104 1.25,-3.79688 0.84375,-0.89583 1.93229,-1.34375 3.26562,-1.34375 1.29167,0 2.34375,0.44271 3.15625,1.32813 0.82292,0.875 1.23438,2.10937 1.23438,3.70312 v 0.4375 h -7.21875 c 0.0625,1.0625 0.36458,1.88021 0.90625,2.45313 0.54166,0.5625 1.21354,0.84375 2.01562,0.84375 0.60417,0 1.11979,-0.15625 1.54688,-0.46875 0.42708,-0.32292 0.76562,-0.82813 1.01562,-1.51563 z m -5.39062,-2.65625 h 5.40625 c -0.0729,-0.8125 -0.28125,-1.42187 -0.625,-1.82812 -0.52084,-0.63542 -1.19792,-0.95313 -2.03125,-0.95313 -0.75,0 -1.38542,0.25521 -1.90625,0.76563 -0.51042,0.5 -0.79165,1.17187 -0.84375,2.01562 z m 9.14135,5.76563 v -9.67188 h 1.46875 v 1.35938 c 0.30209,-0.47917 0.70313,-0.85938 1.20313,-1.14063 0.51042,-0.29166 1.08333,-0.4375 1.71875,-0.4375 0.71875,0 1.30729,0.15105 1.76562,0.45313 0.45834,0.29167 0.78125,0.70312 0.96875,1.23437 0.77084,-1.125 1.76563,-1.6875 2.98438,-1.6875 0.96875,0 1.70833,0.26563 2.21875,0.79688 0.52083,0.53125 0.78125,1.34896 0.78125,2.45312 v 6.64063 h -1.64063 v -6.09375 c 0,-0.65625 -0.0521,-1.125 -0.15625,-1.40625 -0.10416,-0.29167 -0.29687,-0.52604 -0.57812,-0.70313 -0.28125,-0.17712 -0.60938,-0.26562 -0.98438,-0.26562 -0.67708,0 -1.23958,0.22917 -1.6875,0.6875 -0.44791,0.44792 -0.67187,1.16667 -0.67187,2.15625 v 5.625 h -1.64063 v -6.28125 c 0,-0.72917 -0.13541,-1.27604 -0.40625,-1.64063 -0.27083,-0.36458 -0.70833,-0.54687 -1.3125,-0.54687 -0.45833,0 -0.88541,0.11979 -1.28125,0.35937 -0.39583,0.23959 -0.68229,0.59375 -0.85937,1.0625 -0.1667,0.46875 -0.25,1.14584 -0.25,2.03125 v 5.01563 z m 14.93143,-4.84375 c 0,-1.79167 0.49479,-3.11458 1.48438,-3.96875 0.83333,-0.71875 1.84895,-1.07813 3.04687,-1.07813 1.33333,0 2.42188,0.4375 3.26563,1.3125 0.84375,0.86459 1.26562,2.06771 1.26562,3.60938 0,1.23958 -0.1875,2.21875 -0.5625,2.9375 -0.375,0.70833 -0.92187,1.26042 -1.64062,1.65625 -0.70834,0.39583 -1.48438,0.59375 -2.32813,0.59375 -1.35417,0 -2.44792,-0.43229 -3.28125,-1.29688 -0.83333,-0.875 -1.25,-2.1302 -1.25,-3.76562 z m 1.6875,0 c 0,1.23958 0.26563,2.17187 0.79688,2.79687 0.54166,0.61459 1.22395,0.92188 2.04687,0.92188 0.8125,0 1.48958,-0.30729 2.03125,-0.92188 0.54167,-0.625 0.8125,-1.57291 0.8125,-2.84375 0,-1.19791 -0.27083,-2.10416 -0.8125,-2.71875 -0.54167,-0.61458 -1.21875,-0.92187 -2.03125,-0.92187 -0.82292,0 -1.50521,0.30729 -2.04687,0.92187 -0.53125,0.60417 -0.79688,1.52605 -0.79688,2.76563 z m 12.15698,3.4375 c 0.17709,0 0.41667,-0.0208 0.71875,-0.0625 l 0.23438,1.45312 c -0.45834,0.0937 -0.86979,0.14063 -1.23438,0.14063 -0.59375,0 -1.05729,-0.0937 -1.39062,-0.28125 -0.32292,-0.1875 -0.55209,-0.43229 -0.6875,-0.73438 -0.13543,-0.3125 -0.20313,-0.95833 -0.20313,-1.9375 v -5.57812 h -1.20312 v -1.26563 h 1.20312 v -2.39062 l 1.625,-0.98438 v 3.375 h 1.65625 v 1.26563 h -1.65625 v 5.67187 c 0,0.45834 0.026,0.75521 0.0781,0.89063 0.0625,0.13542 0.15625,0.24482 0.28125,0.32812 0.13541,0.0729 0.32812,0.10938 0.57812,0.10938 z m 8.94892,-1.70313 1.6875,0.20313 c -0.27084,0.98958 -0.76563,1.76042 -1.48438,2.3125 -0.71875,0.54167 -1.64062,0.8125 -2.76562,0.8125 -1.41667,0 -2.54167,-0.43229 -3.375,-1.29688 -0.82292,-0.875 -1.23438,-2.09895 -1.23438,-3.67187 0,-1.63542 0.41667,-2.90104 1.25,-3.79688 0.84375,-0.89583 1.93229,-1.34375 3.26563,-1.34375 1.29166,0 2.34375,0.44271 3.15625,1.32813 0.82291,0.875 1.23437,2.10937 1.23437,3.70312 v 0.4375 h -7.21875 c 0.0625,1.0625 0.36458,1.88021 0.90625,2.45313 0.54167,0.5625 1.21354,0.84375 2.01563,0.84375 0.60416,0 1.11979,-0.15625 1.54687,-0.46875 0.42708,-0.32292 0.76563,-0.82813 1.01563,-1.51563 z m -5.39063,-2.65625 h 5.40625 c -0.0729,-0.8125 -0.28125,-1.42187 -0.625,-1.82812 -0.52083,-0.63542 -1.19792,-0.95313 -2.03125,-0.95313 -0.75,0 -1.38542,0.25521 -1.90625,0.76563 -0.51042,0.5 -0.79165,1.17187 -0.84375,2.01562 z m 12.26633,9.6875 c -0.90625,-1.13541 -1.67188,-2.46875 -2.29688,-4 -0.625,-1.53125 -0.9375,-3.11979 -0.9375,-4.76562 0,-1.4375 0.23438,-2.81771 0.70313,-4.14063 0.55208,-1.54166 1.39583,-3.07291 2.53125,-4.59375 h 1.17187 c -0.72916,1.26042 -1.21354,2.16146 -1.45312,2.70313 -0.36458,0.83333 -0.65625,1.70833 -0.875,2.625 -0.26042,1.13542 -0.39063,2.27604 -0.39063,3.42187 0,2.91667 0.90625,5.83334 2.71875,8.75 z m 3.4783,-3.92192 v -8.40625 h -1.45312 v -1.26563 h 1.45312 v -1.03125 c 0,-0.64583 0.0573,-1.1302 0.17188,-1.45312 0.15625,-0.42708 0.43229,-0.77083 0.82812,-1.03125 0.39583,-0.26042 0.95313,-0.39063 1.67188,-0.39063 0.45833,0 0.96875,0.0521 1.53125,0.15625 l -0.25,1.4375 c -0.33334,-0.0625 -0.65105,-0.0937 -0.95313,-0.0937 -0.5,0 -0.85417,0.10938 -1.0625,0.32813 -0.20833,0.20833 -0.3125,0.60417 -0.3125,1.1875 v 0.89062 h 1.89063 v 1.26563 h -1.89063 v 8.40625 z m 11.12082,5e-5 v -1.42188 c -0.75,1.09375 -1.77083,1.64063 -3.0625,1.64063 -0.57292,0 -1.10938,-0.10938 -1.60938,-0.32813 -0.48958,-0.21875 -0.85416,-0.49479 -1.09375,-0.82812 -0.23958,-0.33333 -0.4063,-0.73958 -0.5,-1.21875 -0.0729,-0.3125 -0.10937,-0.82292 -0.10937,-1.53125 v -5.98438 h 1.64062 v 5.35938 c 0,0.85417 0.0365,1.43229 0.10938,1.73437 0.10417,0.42709 0.32292,0.76563 0.65625,1.01563 0.33333,0.25 0.74479,0.375 1.23437,0.375 0.48959,0 0.94792,-0.125 1.375,-0.375 0.4375,-0.26042 0.7448,-0.60417 0.92188,-1.03125 0.17712,-0.4375 0.26562,-1.06771 0.26562,-1.89063 v -5.1875 h 1.64063 v 9.67188 z m 4.04763,0 v -9.67188 h 1.46875 v 1.375 c 0.70833,-1.0625 1.73437,-1.59375 3.07812,-1.59375 0.58333,0 1.11979,0.10417 1.60938,0.3125 0.48958,0.20834 0.85416,0.48438 1.09375,0.82813 0.25,0.33333 0.42192,0.73437 0.51562,1.20312 0.0625,0.30209 0.0937,0.83334 0.0937,1.59375 v 5.95313 h -1.64062 v -5.89063 c 0,-0.66666 -0.0677,-1.16145 -0.20313,-1.48437 -0.125,-0.33333 -0.34896,-0.59896 -0.67187,-0.79688 -0.32292,-0.19787 -0.70313,-0.29687 -1.14063,-0.29687 -0.69792,0 -1.30208,0.22396 -1.8125,0.67187 -0.5,0.4375 -0.75,1.27605 -0.75,2.51563 v 5.28125 z m 16.68818,-3.54688 1.60937,0.21875 c -0.17708,1.10417 -0.6302,1.97396 -1.35937,2.60938 -0.71875,0.625 -1.60938,0.9375 -2.67188,0.9375 -1.32291,0 -2.38541,-0.43229 -3.1875,-1.29688 -0.80208,-0.86458 -1.20312,-2.10416 -1.20312,-3.71875 0,-1.05208 0.17187,-1.96875 0.51562,-2.75 0.34375,-0.78125 0.8698,-1.36458 1.57813,-1.75 0.70833,-0.39583 1.47917,-0.59375 2.3125,-0.59375 1.05208,0 1.91146,0.26563 2.57812,0.79688 0.66667,0.53125 1.09375,1.28646 1.28125,2.26562 l -1.59375,0.23438 c -0.15625,-0.64583 -0.42708,-1.13021 -0.8125,-1.45313 -0.38541,-0.33333 -0.84895,-0.5 -1.39062,-0.5 -0.82292,0 -1.49479,0.29688 -2.01563,0.89063 -0.52083,0.59375 -0.78125,1.53125 -0.78125,2.8125 0,1.30208 0.25,2.25 0.75,2.84375 0.5,0.58333 1.15105,0.875 1.95313,0.875 0.64583,0 1.18229,-0.19792 1.60937,-0.59375 0.4375,-0.39583 0.71355,-1.00521 0.82813,-1.82813 z m 3.4375,3.54688 v -1.875 h 1.875 v 1.875 c 0,0.6875 -0.125,1.23958 -0.375,1.65625 -0.23958,0.42708 -0.625,0.75521 -1.15625,0.98437 l -0.45313,-0.70312 c 0.34375,-0.14583 0.59896,-0.36979 0.76563,-0.67188 0.16667,-0.29166 0.26045,-0.71354 0.28125,-1.26562 z m 9.33536,-4.84375 c 0,-1.79167 0.49479,-3.11458 1.48437,-3.96875 0.83333,-0.71875 1.84896,-1.07813 3.04688,-1.07813 1.33333,0 2.42187,0.4375 3.26562,1.3125 0.84375,0.86459 1.26563,2.06771 1.26563,3.60938 0,1.23958 -0.1875,2.21875 -0.5625,2.9375 -0.375,0.70833 -0.92188,1.26042 -1.64063,1.65625 -0.70833,0.39583 -1.48437,0.59375 -2.32812,0.59375 -1.35417,0 -2.44792,-0.43229 -3.28125,-1.29688 -0.83334,-0.875 -1.25,-2.1302 -1.25,-3.76562 z m 1.6875,0 c 0,1.23958 0.26562,2.17187 0.79687,2.79687 0.54167,0.61459 1.22396,0.92188 2.04688,0.92188 0.8125,0 1.48958,-0.30729 2.03125,-0.92188 0.54166,-0.625 0.8125,-1.57291 0.8125,-2.84375 0,-1.19791 -0.27084,-2.10416 -0.8125,-2.71875 -0.54167,-0.61458 -1.21875,-0.92187 -2.03125,-0.92187 -0.82292,0 -1.50521,0.30729 -2.04688,0.92187 -0.53125,0.60417 -0.79687,1.52605 -0.79687,2.76563 z m 10.7976,4.84375 h -1.51562 v -13.35938 h 1.64062 v 4.76563 c 0.69792,-0.86458 1.58334,-1.29688 2.65625,-1.29688 0.59375,0 1.15625,0.1198 1.6875,0.35938 0.53125,0.23958 0.96875,0.57812 1.3125,1.01562 0.34375,0.42709 0.60938,0.94792 0.79688,1.5625 0.19787,0.61459 0.29687,1.27084 0.29687,1.96875 0,1.65625 -0.41145,2.9375 -1.23437,3.84375 -0.8125,0.90625 -1.79688,1.35938 -2.95313,1.35938 -1.13541,0 -2.03125,-0.47917 -2.6875,-1.4375 z m -0.0156,-4.90625 c 0,1.15625 0.16146,1.99479 0.48437,2.51562 0.51042,0.84375 1.20834,1.26563 2.09375,1.26563 0.71875,0 1.33855,-0.3125 1.85938,-0.9375 0.52083,-0.625 0.78125,-1.55208 0.78125,-2.78125 0,-1.26042 -0.25,-2.19271 -0.75,-2.79688 -0.5,-0.60416 -1.10938,-0.90625 -1.82813,-0.90625 -0.70833,0 -1.32812,0.3125 -1.85937,0.9375 -0.52083,0.625 -0.78125,1.52605 -0.78125,2.70313 z m 8.87567,-6.54688 v -1.90625 h 1.64062 v 1.90625 z m -2.07813,15.20313 0.3125,-1.39063 c 0.33334,0.0833 0.59375,0.125 0.78125,0.125 0.33334,0 0.57813,-0.10937 0.73438,-0.32812 0.1667,-0.21875 0.25,-0.77604 0.25,-1.67188 v -10.15625 h 1.64062 v 10.20313 c 0,1.1875 -0.15625,2.01562 -0.46875,2.48437 -0.39583,0.60417 -1.05208,0.90625 -1.96875,0.90625 -0.4375,0 -0.86458,-0.0573 -1.28125,-0.17187 z m 7.31672,0.17187 h -1.1875 c 1.82291,-2.91666 2.73437,-5.83333 2.73437,-8.75 0,-1.14583 -0.13021,-2.27604 -0.39062,-3.39062 -0.20834,-0.91667 -0.5,-1.79167 -0.875,-2.625 -0.23959,-0.55208 -0.72917,-1.46354 -1.46875,-2.73438 h 1.1875 c 1.13541,1.52084 1.97916,3.05209 2.53125,4.59375 0.45833,1.32292 0.6875,2.70313 0.6875,4.14063 0,1.64583 -0.3125,3.23437 -0.9375,4.76562 -0.625,1.53125 -1.38542,2.86459 -2.28125,4 z"
       fill="#000000" />
    <path
       sodipodi:nodetypes="csssssssssc"
       id="path1170"
       fill-rule="evenodd"
       d="m 117.36221,206.29674 v 0 c 0,-4.2937 3.48072,-7.77443 7.77443,-7.77443 h 68.89208 c 2.0619,0 4.03936,0.81909 5.49736,2.27709 1.45797,1.45799 2.27706,3.43544 2.27706,5.49734 v 31.0968 c 0,4.2937 -3.48072,7.77445 -7.77443,7.77445 h -68.89208 c -4.2937,0 -7.77442,-3.48075 -7.77442,-7.77445 z"
       fill="#cfe2f3" />
    <path
       sodipodi:nodetypes="csssssssssc"
       id="path1172"
       fill-rule="evenodd"
       d="m 117.36221,206.29674 v 0 c 0,-4.2937 3.48072,-7.77443 7.77443,-7.77443 h 68.89208 c 2.0619,0 4.03936,0.81909 5.49736,2.27709 1.45797,1.45799 2.27706,3.43544 2.27706,5.49734 v 31.0968 c 0,4.2937 -3.48072,7.77445 -7.77443,7.77445 h -68.89208 c -4.2937,0 -7.77442,-3.48075 -7.77442,-7.77445 z"
       stroke-linecap="butt"
       stroke-linejoin="round"
       stroke-width="1"
       stroke="#000000" />
    <path
       sodipodi:nodetypes="cccccscssccscsccccccccscscsccscssccsccccccccssccsccscsscscccccsssscsscccssscscc"
       id="path1174"
       fill-rule="nonzero"
       d="m 143.57625,228.76509 v -8.40625 h -1.45313 v -1.26563 h 1.45313 v -1.03125 c 0,-0.64583 0.0573,-1.1302 0.17187,-1.45312 0.15625,-0.42708 0.4323,-0.77083 0.82813,-1.03125 0.39583,-0.26042 0.95312,-0.39063 1.67187,-0.39063 0.45834,0 0.96875,0.0521 1.53125,0.15625 l -0.25,1.4375 c -0.33333,-0.0625 -0.65104,-0.0937 -0.95312,-0.0937 -0.5,0 -0.85417,0.10938 -1.0625,0.32813 -0.20833,0.20833 -0.3125,0.60417 -0.3125,1.1875 v 0.89062 h 1.89062 v 1.26563 h -1.89062 v 8.40625 z m 11.1208,5e-5 v -1.42188 c -0.75,1.09375 -1.77083,1.64063 -3.0625,1.64063 -0.57291,0 -1.10937,-0.10938 -1.60937,-0.32813 -0.48958,-0.21875 -0.85417,-0.49479 -1.09375,-0.82812 -0.23958,-0.33333 -0.4063,-0.73958 -0.5,-1.21875 -0.0729,-0.3125 -0.10938,-0.82292 -0.10938,-1.53125 v -5.98438 h 1.64063 v 5.35938 c 0,0.85417 0.0365,1.43229 0.10937,1.73437 0.10417,0.42709 0.32292,0.76563 0.65625,1.01563 0.33334,0.25 0.7448,0.375 1.23438,0.375 0.48958,0 0.94792,-0.125 1.375,-0.375 0.4375,-0.26042 0.74479,-0.60417 0.92187,-1.03125 0.17713,-0.4375 0.26563,-1.06771 0.26563,-1.89063 v -5.1875 h 1.64062 v 9.67188 z m 4.04765,0 v -9.67188 h 1.46875 v 1.375 c 0.70833,-1.0625 1.73437,-1.59375 3.07812,-1.59375 0.58333,0 1.11979,0.10417 1.60938,0.3125 0.48958,0.20834 0.85416,0.48438 1.09375,0.82813 0.25,0.33333 0.42192,0.73437 0.51562,1.20312 0.0625,0.30209 0.0937,0.83334 0.0937,1.59375 v 5.95313 h -1.64062 v -5.89063 c 0,-0.66666 -0.0677,-1.16145 -0.20313,-1.48437 -0.125,-0.33333 -0.34896,-0.59896 -0.67187,-0.79688 -0.32292,-0.19787 -0.70313,-0.29687 -1.14063,-0.29687 -0.69792,0 -1.30208,0.22396 -1.8125,0.67187 -0.5,0.4375 -0.75,1.27605 -0.75,2.51563 v 5.28125 z m 16.68816,-3.54688 1.60938,0.21875 c -0.17709,1.10417 -0.63021,1.97396 -1.35938,2.60938 -0.71875,0.625 -1.60937,0.9375 -2.67187,0.9375 -1.32292,0 -2.38542,-0.43229 -3.1875,-1.29688 -0.80209,-0.86458 -1.20313,-2.10416 -1.20313,-3.71875 0,-1.05208 0.17188,-1.96875 0.51563,-2.75 0.34375,-0.78125 0.86979,-1.36458 1.57812,-1.75 0.70834,-0.39583 1.47917,-0.59375 2.3125,-0.59375 1.05209,0 1.91146,0.26563 2.57813,0.79688 0.66666,0.53125 1.09375,1.28646 1.28125,2.26562 l -1.59375,0.23438 c -0.15625,-0.64583 -0.42709,-1.13021 -0.8125,-1.45313 -0.38542,-0.33333 -0.84896,-0.5 -1.39063,-0.5 -0.82291,0 -1.49479,0.29688 -2.01562,0.89063 -0.52084,0.59375 -0.78125,1.53125 -0.78125,2.8125 0,1.30208 0.25,2.25 0.75,2.84375 0.5,0.58333 1.15104,0.875 1.95312,0.875 0.64584,0 1.18229,-0.19792 1.60938,-0.59375 0.4375,-0.39583 0.71354,-1.00521 0.82812,-1.82813 z"
       fill="#000000" />
    <path
       sodipodi:nodetypes="cc"
       id="path1176"
       fill-rule="evenodd"
       d="m 566.71655,189.4357 102.14172,69.44882"
       fill-opacity="0"
       fill="#000000" />
    <path
       sodipodi:nodetypes="cc"
       id="path1178"
       fill-rule="evenodd"
       d="m 566.71655,189.4357 99.30768,67.52188"
       stroke-linecap="butt"
       stroke-linejoin="round"
       stroke-width="1"
       stroke="#000000" />
    <path
       sodipodi:nodetypes="ccccc"
       id="path1180"
       fill-rule="evenodd"
       d="m 666.02423,256.95758 -1.56232,0.29767 3.18744,0.80728 -1.92279,-2.66725 z"
       stroke-linecap="butt"
       stroke-width="1"
       stroke="#000000"
       fill="#000000" />
    <path
       sodipodi:nodetypes="cc"
       id="path1182"
       fill-rule="evenodd"
       d="m 566.71655,271.73096 108.25195,2.4567"
       fill-opacity="0"
       fill="#000000" />
    <path
       sodipodi:nodetypes="cc"
       id="path1184"
       fill-rule="evenodd"
       d="m 566.71655,271.73096 104.82574,2.37894"
       stroke-linecap="butt"
       stroke-linejoin="round"
       stroke-width="1"
       stroke="#000000" />
    <path
       sodipodi:nodetypes="ccccc"
       id="path1186"
       fill-rule="evenodd"
       d="m 671.5423,274.1099 -1.14978,1.09879 3.11444,-1.05417 -3.06341,-1.1944 z"
       stroke-linecap="butt"
       stroke-width="1"
       stroke="#000000"
       fill="#000000" />
    <path
       sodipodi:nodetypes="cc"
       id="path1188"
       fill-rule="evenodd"
       d="m 566.71655,354.02625 89.88977,-56.34647"
       fill-opacity="0"
       fill="#000000" />
    <path
       sodipodi:nodetypes="cc"
       id="path1190"
       fill-rule="evenodd"
       d="m 566.71655,354.02625 86.98602,-54.52628"
       stroke-linecap="butt"
       stroke-linejoin="round"
       stroke-width="1"
       stroke="#000000" />
    <path
       sodipodi:nodetypes="ccccc"
       id="path1192"
       fill-rule="evenodd"
       d="m 653.7025,299.49997 -0.35553,1.55017 2.02063,-2.5939 -3.21521,0.68817 z"
       stroke-linecap="butt"
       stroke-width="1"
       stroke="#000000"
       fill="#000000" />
    <path
       sodipodi:nodetypes="ccccc"
       id="path1194"
       fill-rule="evenodd"
       d="m 678.042,243.55905 h 116.40942 v 69.44882 H 678.042 Z"
       fill="#ffffff" />
    <path
       sodipodi:nodetypes="ccccc"
       id="path1196"
       fill-rule="evenodd"
       d="m 678.042,243.55905 h 116.40942 v 69.44882 H 678.042 Z"
       stroke-linecap="butt"
       stroke-linejoin="round"
       stroke-width="1"
       stroke="#0b5394" />
    <path
       sodipodi:nodetypes="cccccsccsscscccccssscccccscsscccsscccssccscsccscssscsssccsccccccccccccccscccccccccscccsssccscccscccccscscscccccccscscscscccscscccsscsccsccsccccccccccscsccccssccccccccccccccccsccsscsccscccccc"
       id="path1198"
       fill-rule="nonzero"
       d="m 688.26074,285.20346 v -9.67188 h 1.46875 v 1.46875 c 0.375,-0.6875 0.71875,-1.14062 1.03125,-1.35937 0.32292,-0.21875 0.67708,-0.32813 1.0625,-0.32813 0.55208,0 1.11458,0.17709 1.6875,0.53125 l -0.5625,1.51563 c -0.40625,-0.23958 -0.80729,-0.35938 -1.20312,-0.35938 -0.36459,0 -0.6875,0.10938 -0.96875,0.32813 -0.28125,0.21875 -0.48438,0.51562 -0.60938,0.89062 -0.18755,0.58334 -0.28125,1.22396 -0.28125,1.92188 v 5.0625 z m 12.86901,0 c -0.17709,-0.34375 -0.28643,-0.73958 -0.32813,-1.1875 -0.61458,0.51042 -1.20312,0.875 -1.76562,1.09375 -0.55209,0.20833 -1.15104,0.3125 -1.79688,0.3125 -1.0625,0 -1.88021,-0.26042 -2.45312,-0.78125 -0.57292,-0.52083 -0.85938,-1.18229 -0.85938,-1.98438 0,-0.47916 0.10938,-0.91145 0.32813,-1.29687 0.21875,-0.39583 0.5,-0.70833 0.84375,-0.9375 0.35416,-0.23958 0.75,-0.42188 1.1875,-0.54688 0.3125,-0.0833 0.79687,-0.1667 1.45312,-0.25 1.32292,-0.15625 2.29688,-0.34375 2.92188,-0.5625 0.0106,-0.22916 0.0156,-0.36977 0.0156,-0.42187 0,-0.66667 -0.15625,-1.14063 -0.46875,-1.42188 -0.41666,-0.36458 -1.04166,-0.54687 -1.875,-0.54687 -0.77083,0 -1.33854,0.13542 -1.70312,0.40625 -0.36459,0.27083 -0.63542,0.74479 -0.8125,1.42187 l -1.60938,-0.21875 c 0.14584,-0.67708 0.38542,-1.22395 0.71875,-1.64062 0.33334,-0.42708 0.81771,-0.75521 1.45313,-0.98438 0.63541,-0.22916 1.36458,-0.34375 2.1875,-0.34375 0.83333,0 1.50521,0.099 2.01562,0.29688 0.52084,0.1875 0.90104,0.43229 1.14063,0.73437 0.25,0.29167 0.42192,0.66146 0.51562,1.10938 0.0521,0.28125 0.0781,0.78646 0.0781,1.51562 v 2.1875 c 0,1.52084 0.0365,2.48438 0.10937,2.89063 0.0729,0.39583 0.20834,0.78125 0.40625,1.15625 h -1.70312 z m -0.4688,-4.85938 c -0.59375,0.25 -1.48438,0.45834 -2.67188,0.625 -0.67708,0.0937 -1.15625,0.20313 -1.4375,0.32813 -0.28125,0.125 -0.5,0.30208 -0.65625,0.53125 -0.14585,0.22917 -0.21875,0.48958 -0.21875,0.78125 0,0.4375 0.16667,0.80208 0.5,1.09375 0.33334,0.29167 0.81771,0.4375 1.45313,0.4375 0.625,0 1.18229,-0.13542 1.67187,-0.40625 0.5,-0.28125 0.86459,-0.66146 1.09375,-1.14063 0.17713,-0.375 0.26563,-0.92187 0.26563,-1.64062 z m 4.12567,8.57813 -0.1875,-1.53125 c 0.36458,0.0937 0.67708,0.14062 0.9375,0.14062 0.36458,0 0.65625,-0.0625 0.875,-0.1875 0.21875,-0.11458 0.40104,-0.28125 0.54687,-0.5 0.10417,-0.16666 0.27084,-0.57291 0.5,-1.21875 0.0312,-0.0937 0.0781,-0.22916 0.14063,-0.40625 l -3.67188,-9.6875 h 1.76563 l 2.01562,5.59375 c 0.26042,0.71875 0.4948,1.46875 0.70313,2.25 0.1875,-0.75 0.41146,-1.48437 0.67187,-2.20312 l 2.07813,-5.64063 h 1.64062 l -3.6875,9.82813 c -0.39583,1.07292 -0.70312,1.80729 -0.92187,2.20312 -0.29167,0.54167 -0.625,0.9375 -1,1.1875 -0.375,0.25 -0.82292,0.375 -1.34375,0.375 -0.32292,0 -0.67708,-0.0677 -1.0625,-0.20312 z m 8.474,-3.71875 v -1.875 h 1.875 v 1.875 z m 4.41766,0.79687 1.59375,0.23438 c 0.0729,0.5 0.26042,0.85937 0.5625,1.07812 0.40625,0.30209 0.96354,0.45313 1.67188,0.45313 0.76041,0 1.34375,-0.15104 1.75,-0.45313 0.41666,-0.30208 0.69791,-0.72395 0.84375,-1.26562 0.0834,-0.33333 0.11977,-1.03646 0.10937,-2.10938 -0.70833,0.84375 -1.59896,1.26563 -2.67187,1.26563 -1.33334,0 -2.36459,-0.47917 -3.09375,-1.4375 -0.72917,-0.95833 -1.09375,-2.10938 -1.09375,-3.45313 0,-0.92708 0.16666,-1.78125 0.5,-2.5625 0.34375,-0.78125 0.82812,-1.3802 1.45312,-1.79687 0.63542,-0.42708 1.38542,-0.64063 2.25,-0.64063 1.13542,0 2.07292,0.45834 2.8125,1.375 v -1.15625 h 1.51563 v 8.35938 c 0,1.51042 -0.15625,2.57812 -0.46875,3.20312 -0.30209,0.625 -0.78646,1.1198 -1.45313,1.48438 -0.65625,0.36458 -1.47396,0.54687 -2.45312,0.54687 -1.14584,0 -2.07813,-0.26041 -2.79688,-0.78125 -0.70833,-0.51041 -1.05205,-1.29166 -1.03125,-2.34375 z m 1.35938,-5.8125 c 0,1.27084 0.25,2.19792 0.75,2.78125 0.51041,0.58334 1.14583,0.875 1.90625,0.875 0.75,0 1.3802,-0.28645 1.89062,-0.85937 0.51042,-0.58333 0.76563,-1.49479 0.76563,-2.73438 0,-1.1875 -0.26563,-2.07812 -0.79688,-2.67187 -0.52083,-0.60417 -1.15104,-0.90625 -1.89062,-0.90625 -0.72917,0 -1.34896,0.29687 -1.85938,0.89062 -0.51042,0.58334 -0.76562,1.45834 -0.76562,2.625 z m 15.95385,1.90625 1.6875,0.20313 c -0.27083,0.98958 -0.76562,1.76042 -1.48437,2.3125 -0.71875,0.54167 -1.64063,0.8125 -2.76563,0.8125 -1.41666,0 -2.54166,-0.43229 -3.375,-1.29688 -0.82291,-0.875 -1.23437,-2.09895 -1.23437,-3.67187 0,-1.63542 0.41667,-2.90104 1.25,-3.79688 0.84375,-0.89583 1.93229,-1.34375 3.26562,-1.34375 1.29167,0 2.34375,0.44271 3.15625,1.32813 0.82292,0.875 1.23438,2.10937 1.23438,3.70312 v 0.4375 h -7.21875 c 0.0625,1.0625 0.36458,1.88021 0.90625,2.45313 0.54167,0.5625 1.21354,0.84375 2.01562,0.84375 0.60417,0 1.1198,-0.15625 1.54688,-0.46875 0.42708,-0.32292 0.76562,-0.82813 1.01562,-1.51563 z m -5.39062,-2.65625 h 5.40625 c -0.0729,-0.8125 -0.28125,-1.42187 -0.625,-1.82812 -0.52083,-0.63542 -1.19792,-0.95313 -2.03125,-0.95313 -0.75,0 -1.38542,0.25521 -1.90625,0.76563 -0.51042,0.5 -0.79165,1.17187 -0.84375,2.01562 z m 12.00069,4.35938 c 0.17708,0 0.41667,-0.0208 0.71875,-0.0625 l 0.23437,1.45312 c -0.45833,0.0937 -0.86979,0.14063 -1.23437,0.14063 -0.59375,0 -1.05729,-0.0937 -1.39063,-0.28125 -0.32291,-0.1875 -0.55208,-0.43229 -0.6875,-0.73438 -0.13542,-0.3125 -0.20312,-0.95833 -0.20312,-1.9375 v -5.57812 h -1.20313 v -1.26563 h 1.20313 v -2.39062 l 1.625,-0.98438 v 3.375 h 1.65625 v 1.26563 h -1.65625 v 5.67187 c 0,0.45834 0.026,0.75521 0.0781,0.89063 0.0625,0.13542 0.15625,0.24482 0.28125,0.32812 0.13542,0.0729 0.32813,0.10938 0.57813,0.10938 z m 5.44895,5.32812 c -0.90625,-1.13541 -1.67187,-2.46875 -2.29687,-4 -0.625,-1.53125 -0.9375,-3.11979 -0.9375,-4.76562 0,-1.4375 0.23437,-2.81771 0.70312,-4.14063 0.55209,-1.54166 1.39584,-3.07291 2.53125,-4.59375 h 1.17188 c -0.72917,1.26042 -1.21354,2.16146 -1.45313,2.70313 -0.36458,0.83333 -0.65625,1.70833 -0.875,2.625 -0.26041,1.13542 -0.39062,2.27604 -0.39062,3.42187 0,2.91667 0.90625,5.83334 2.71875,8.75 z m 3.54078,-3.92187 v -1.875 h 1.875 v 1.875 z m 5.18328,0 v -1.875 h 1.875 v 1.875 z m 5.18335,0 v -1.875 h 1.875 v 1.875 z m 5.80829,3.9219 h -1.1875 c 1.82292,-2.91666 2.73438,-5.83333 2.73438,-8.75 0,-1.14583 -0.13021,-2.27604 -0.39063,-3.39062 -0.20833,-0.91667 -0.5,-1.79167 -0.875,-2.625 -0.23958,-0.55208 -0.72916,-1.46354 -1.46875,-2.73438 h 1.1875 c 1.13542,1.52084 1.97917,3.05209 2.53125,4.59375 0.45834,1.32292 0.6875,2.70313 0.6875,4.14063 0,1.64583 -0.3125,3.23437 -0.9375,4.76562 -0.625,1.53125 -1.38541,2.86459 -2.28125,4 z"
       fill="#000000" />
  </g>
</svg>
