<svg version="1.1" viewBox="0.0 0.0 517.6666666666666 341.1994750656168" fill="none" stroke="none" stroke-linecap="square" stroke-miterlimit="10" xmlns:xlink="http://www.w3.org/1999/xlink" xmlns="http://www.w3.org/2000/svg"><clipPath id="p.0"><path d="m0 0l517.6667 0l0 341.19946l-517.6667 0l0 -341.19946z" clip-rule="nonzero"/></clipPath><g clip-path="url(#p.0)"><path fill="#000000" fill-opacity="0.0" d="m0 0l517.6667 0l0 341.19946l-517.6667 0z" fill-rule="evenodd"/><path fill="#000000" fill-opacity="0.0" d="m4.418263 4.950642l433.94638 0l74.998505 74.99848l0 256.3401l-508.9449 0z" fill-rule="evenodd"/><path stroke="#38761d" stroke-width="8.0" stroke-linejoin="round" stroke-linecap="butt" d="m4.418263 4.950642l433.94638 0l74.998505 74.99848l0 256.3401l-508.9449 0z" fill-rule="evenodd"/><path fill="#000000" fill-opacity="0.0" d="m0.64467824 192.55376l508.9449 0l0 111.49605l-508.9449 0z" fill-rule="evenodd"/><path fill="#38761d" d="m60.565365 246.74812l-10.265625 1.859375q-0.53125 -3.078125 -2.375 -4.625q-1.828125 -1.5625 -4.75 -1.5625q-3.90625 0 -6.234375 2.6875q-2.3125 2.6875 -2.3125 9.0q0 7.0156403 2.359375 9.906265q2.359375 2.890625 6.328125 2.890625q2.96875 0 4.859375 -1.6875q1.890625 -1.6875 2.671875 -5.8125l10.25 1.75q-1.59375 7.046875 -6.125 10.65625q-4.53125 3.59375 -12.140625 3.59375q-8.640625 0 -13.781252 -5.453125q-5.140625 -5.453125 -5.140625 -15.10939q0 -9.75 5.15625 -15.1875q5.156252 -5.4375 13.953127 -5.4375q7.203125 0 11.453125 3.09375q4.25 3.09375 6.09375 9.4375zm5.5019493 7.5q0 -5.1875 2.5625 -10.046875q2.5625 -4.875 7.25 -7.421875q4.6875 -2.5625 10.484375 -2.5625q8.9375 0 14.65625 5.8125q5.71875 5.796875 5.71875 14.671875q0 8.937515 -5.78125 14.82814q-5.765625 5.875 -14.515625 5.875q-5.421875 0 -10.34375 -2.453125q-4.90625 -2.453125 -7.46875 -7.171875q-2.5625 -4.734375 -2.5625 -11.531265zm10.6875 0.5625q0 5.8593903 2.78125 8.98439q2.78125 3.109375 6.859375 3.109375q4.09375 0 6.84375 -3.109375q2.765625 -3.125 2.765625 -9.062515q0 -5.78125 -2.765625 -8.890625q-2.75 -3.125 -6.84375 -3.125q-4.078125 0 -6.859375 3.125q-2.78125 3.109375 -2.78125 8.96875zm73.986336 19.70314l-10.421875 0l0 -20.10939q0 -6.390625 -0.671875 -8.265625q-0.65625 -1.875 -2.171875 -2.90625q-1.5 -1.046875 -3.609375 -1.046875q-2.71875 0 -4.875 1.484375q-2.1406326 1.484375 -2.9375076 3.9375q-0.796875 2.453125 -0.796875 9.062515l0 17.84375l-10.4375 0l0 -39.406265l9.6875 0l0 5.78125q5.1562576 -6.671875 13.000008 -6.671875q3.4375 0 6.296875 1.25q2.859375 1.234375 4.328125 3.171875q1.46875 1.921875 2.03125 4.375q0.578125 2.4375 0.578125 7.0l0 24.500015zm28.658203 -39.406265l0 8.3125l-7.125 0l0 15.875015q0 4.828125 0.203125 5.625q0.203125 0.796875 0.921875 1.328125q0.734375 0.515625 1.765625 0.515625q1.453125 0 4.1875 -1.015625l0.890625 8.09375q-3.625 1.5625 -8.234375 1.5625q-2.8125 0 -5.078125 -0.9375q-2.265625 -0.953125 -3.328125 -2.453125q-1.046875 -1.515625 -1.46875 -4.0625q-0.328125 -1.828125 -0.328125 -7.359375l0 -17.17189l-4.78125 0l0 -8.3125l4.78125 0l0 -7.828125l10.46875 -6.09375l0 13.921875l7.125 0zm7.2304688 39.406265l0 -10.421875l10.4375 0l0 10.421875l-10.4375 0zm50.027344 -27.39064l-9.46875 -1.703125q1.59375 -5.71875 5.484375 -8.453125q3.90625 -2.75 11.59375 -2.75q6.96875 0 10.375 1.65625q3.421875 1.640625 4.8125 4.1875q1.390625 2.53125 1.390625 9.328125l-0.109375 12.17189q0 5.203125 0.5 7.671875q0.5 2.453125 1.875 5.28125l-10.3125 0q-0.40625 -1.046875 -1.0 -3.078125q-0.265625 -0.9375 -0.375 -1.234375q-2.671875 2.609375 -5.71875 3.90625q-3.03125 1.296875 -6.484375 1.296875q-6.09375 0 -9.609375 -3.296875q-3.5 -3.3125 -3.5 -8.359375q0 -3.34375 1.59375 -5.953125q1.609375 -2.6093903 4.484375 -4.0000153q2.875 -1.40625 8.296875 -2.4375q7.296875 -1.375 10.125 -2.5625l0 -1.03125q0 -3.015625 -1.484375 -4.296875q-1.484375 -1.28125 -5.609375 -1.28125q-2.78125 0 -4.34375 1.09375q-1.546875 1.09375 -2.515625 3.84375zm13.953125 8.46875q-2.0 0.65626526 -6.34375 1.5937653q-4.34375 0.921875 -5.6875 1.8125q-2.03125 1.453125 -2.03125 3.671875q0 2.1875 1.625 3.796875q1.640625 1.59375 4.15625 1.59375q2.828125 0 5.390625 -1.859375q1.890625 -1.40625 2.484375 -3.453125q0.40625 -1.328125 0.40625 -5.078125l0 -2.0781403zm54.876953 -8.84375l-10.265625 1.859375q-0.53125 -3.078125 -2.375 -4.625q-1.828125 -1.5625 -4.75 -1.5625q-3.90625 0 -6.234375 2.6875q-2.3125 2.6875 -2.3125 9.0q0 7.0156403 2.359375 9.906265q2.359375 2.890625 6.328125 2.890625q2.96875 0 4.859375 -1.6875q1.890625 -1.6875 2.671875 -5.8125l10.25 1.75q-1.59375 7.046875 -6.125 10.65625q-4.53125 3.59375 -12.140625 3.59375q-8.640625 0 -13.78125 -5.453125q-5.140625 -5.453125 -5.140625 -15.10939q0 -9.75 5.15625 -15.1875q5.15625 -5.4375 13.953125 -5.4375q7.203125 0 11.453125 3.09375q4.25 3.09375 6.09375 9.4375zm25.986328 -11.640625l0 8.3125l-7.125 0l0 15.875015q0 4.828125 0.203125 5.625q0.203125 0.796875 0.921875 1.328125q0.734375 0.515625 1.765625 0.515625q1.453125 0 4.1875 -1.015625l0.890625 8.09375q-3.625 1.5625 -8.234375 1.5625q-2.8125 0 -5.078125 -0.9375q-2.265625 -0.953125 -3.328125 -2.453125q-1.046875 -1.515625 -1.46875 -4.0625q-0.328125 -1.828125 -0.328125 -7.359375l0 -17.17189l-4.78125 0l0 -8.3125l4.78125 0l0 -7.828125l10.46875 -6.09375l0 13.921875l7.125 0zm7.2304688 -5.34375l0 -9.65625l10.4375 0l0 9.65625l-10.4375 0zm0 44.750015l0 -39.406265l10.4375 0l0 39.406265l-10.4375 0zm18.708984 -20.26564q0 -5.1875 2.5625 -10.046875q2.5625 -4.875 7.25 -7.421875q4.6875 -2.5625 10.484375 -2.5625q8.9375 0 14.65625 5.8125q5.71875 5.796875 5.71875 14.671875q0 8.937515 -5.78125 14.82814q-5.765625 5.875 -14.515625 5.875q-5.421875 0 -10.34375 -2.453125q-4.90625 -2.453125 -7.46875 -7.171875q-2.5625 -4.734375 -2.5625 -11.531265zm10.6875 0.5625q0 5.8593903 2.78125 8.98439q2.78125 3.109375 6.859375 3.109375q4.09375 0 6.84375 -3.109375q2.765625 -3.125 2.765625 -9.062515q0 -5.78125 -2.765625 -8.890625q-2.75 -3.125 -6.84375 -3.125q-4.078125 0 -6.859375 3.125q-2.78125 3.109375 -2.78125 8.96875zm73.98633 19.70314l-10.421875 0l0 -20.10939q0 -6.390625 -0.671875 -8.265625q-0.65625 -1.875 -2.171875 -2.90625q-1.5 -1.046875 -3.609375 -1.046875q-2.71875 0 -4.875 1.484375q-2.140625 1.484375 -2.9375 3.9375q-0.796875 2.453125 -0.796875 9.062515l0 17.84375l-10.4375 0l0 -39.406265l9.6875 0l0 5.78125q5.15625 -6.671875 13.0 -6.671875q3.4375 0 6.296875 1.25q2.859375 1.234375 4.328125 3.171875q1.46875 1.921875 2.03125 4.375q0.578125 2.4375 0.578125 7.0l0 24.500015zm6.908203 -11.25l10.46875 -1.59375q0.671875 3.046875 2.703125 4.625q2.046875 1.578125 5.71875 1.578125q4.046875 0 6.078125 -1.484375q1.375 -1.046875 1.375 -2.78125q0 -1.1875 -0.734375 -1.96875q-0.78125 -0.75 -3.484375 -1.375q-12.625 -2.78125 -16.0 -5.0781403q-4.671875 -3.203125 -4.671875 -8.875q0 -5.125 4.03125 -8.609375q4.046875 -3.484375 12.546875 -3.484375q8.09375 0 12.03125 2.640625q3.9375 2.625 5.421875 7.78125l-9.84375 1.8125q-0.625 -2.296875 -2.390625 -3.515625q-1.765625 -1.234375 -5.03125 -1.234375q-4.109375 0 -5.890625 1.15625q-1.1875 0.8125 -1.1875 2.109375q0 1.125 1.03125 1.90625q1.40625 1.03125 9.734375 2.921875q8.34375 1.890625 11.640625 4.640625q3.265625 2.7812653 3.265625 7.7500153q0 5.421875 -4.53125 9.328125q-4.515625 3.890625 -13.390625 3.890625q-8.046875 0 -12.75 -3.265625q-4.6875 -3.265625 -6.140625 -8.875z" fill-rule="nonzero"/><path fill="#f4cccc" d="m119.21685 196.7521l0 0c0 -51.920547 29.068382 -99.47138 75.2804 -123.1457l31.765656 61.998085c-22.948563 11.754929 -37.38388 35.366318 -37.38388 61.147614z" fill-rule="evenodd"/><path stroke="#000000" stroke-width="1.0" stroke-linejoin="round" stroke-linecap="butt" d="m119.21685 196.7521l0 0c0 -51.920547 29.068382 -99.47138 75.2804 -123.1457l31.765656 61.998085c-22.948563 11.754929 -37.38388 35.366318 -37.38388 61.147614z" fill-rule="evenodd"/><path fill="#000000" fill-opacity="0.0" d="m261.3219 196.66846l-90.2056 -73.5688" fill-rule="evenodd"/><path stroke="#434343" stroke-width="3.0" stroke-linejoin="round" stroke-linecap="butt" d="m261.3219 196.66846l-76.25653 -62.192383" fill-rule="evenodd"/><path stroke="#434343" stroke-width="3.0" stroke-linecap="butt" d="m188.19717 130.63606l-13.682175 -4.764534l7.418579 12.444572z" fill-rule="evenodd"/><path fill="#b6d7a8" d="m303.14783 67.09251l0 0c55.20224 19.594322 92.08548 71.8218 92.08548 130.39502l-69.18344 0l0 0c0 -29.287125 -18.443481 -55.401215 -46.04709 -65.19798z" fill-rule="evenodd"/><path stroke="#000000" stroke-width="1.0" stroke-linejoin="round" stroke-linecap="butt" d="m303.14783 67.09251l0 0c55.20224 19.594322 92.08548 71.8218 92.08548 130.39502l-69.18344 0l0 0c0 -29.287125 -18.443481 -55.401215 -46.04709 -65.19798z" fill-rule="evenodd"/><path fill="#fff2cc" d="m194.67322 73.14373l0 0c34.955826 -17.583046 75.72229 -19.545536 112.20566 -5.4015656l-25.457733 65.65775c-17.915802 -6.9446945 -37.9346 -5.981102 -55.100357 2.6522217z" fill-rule="evenodd"/><path stroke="#000000" stroke-width="1.0" stroke-linejoin="round" stroke-linecap="butt" d="m194.67322 73.14373l0 0c34.955826 -17.583046 75.72229 -19.545536 112.20566 -5.4015656l-25.457733 65.65775c-17.915802 -6.9446945 -37.9346 -5.981102 -55.100357 2.6522217z" fill-rule="evenodd"/><path fill="#000000" fill-opacity="0.0" d="m76.504845 196.15892l22.862946 -102.6129l45.7259 10.160645l-22.862953 102.6129z" fill-rule="evenodd"/><path fill="#000000" d="m104.539894 191.87253l-3.0353394 -0.67448425l1.3286362 -5.96315l3.0353394 0.674469l-1.3286362 5.9631653zm7.5309067 -13.8983l-0.6762161 3.034958l-11.439728 -2.5419922q1.1854172 2.008072 1.4299011 4.431305l-2.760788 -0.6134796q-0.1162796 -1.2743073 -0.89001465 -2.9028015q-0.7737427 -1.628479 -2.1072388 -2.4689941l0.5504837 -2.4706726l15.8936 3.5316772zm-13.741203 -13.192001q0.5130997 -2.3029022 2.4340057 -3.2365875q2.295578 -1.1065216 6.795212 -0.106658936q4.499626 0.9998474 6.1054 2.9892883q1.3466339 1.6437378 0.8335266 3.94664q-0.5165024 2.318161 -2.60186 3.3433533q-2.0972214 1.0065308 -6.65786 -0.006866455q-4.469124 -0.9930725 -6.0901566 -2.9859009q-1.3313751 -1.6403656 -0.8182678 -3.9432678zm2.516739 0.5592346q-0.12232971 0.54904175 0.12994385 1.0692749q0.25567627 0.5049896 1.1046295 0.9337158q1.1031189 0.58125305 3.8944092 1.2015076q2.791298 0.62023926 3.8896637 0.5762024q1.1017685 -0.059295654 1.5477295 -0.40837097q0.445961 -0.34907532 0.5682907 -0.89811707q0.12232971 -0.54904175 -0.13333893 -1.0540161q-0.2522812 -0.52023315 -1.1164856 -0.95236206q-1.0878677 -0.5778656 -3.879158 -1.1981049q-2.791298 -0.6202545 -3.8930588 -0.56095886q-1.0983734 0.044052124 -1.5443344 0.39312744q-0.445961 0.34907532 -0.5682907 0.8981018zm0.22351074 -12.857986q0.5131073 -2.3029022 2.4340134 -3.2365723q2.295578 -1.1065216 6.795204 -0.106674194q4.499634 0.9998474 6.1054077 2.9892883q1.3466339 1.6437378 0.8335266 3.9466553q-0.5165024 2.3181458 -2.6018677 3.343338q-2.0972137 1.006546 -6.657852 -0.006866455q-4.469124 -0.9930725 -6.0901566 -2.9859009q-1.3313751 -1.6403503 -0.81827545 -3.9432678zm2.5167465 0.5592499q-0.12232971 0.5490265 0.12994385 1.0692596q0.25566864 0.5049896 1.1046295 0.9337311q1.1031189 0.5812378 3.8944092 1.2014923q2.791298 0.62023926 3.8896637 0.5762024q1.1017609 -0.059295654 1.5477295 -0.40837097q0.445961 -0.34907532 0.5682907 -0.89811707q0.12232971 -0.5490265 -0.13333893 -1.0540161q-0.2522812 -0.52023315 -1.1164856 -0.95236206q-1.0878677 -0.57785034 -3.879158 -1.1981049q-2.791298 -0.62023926 -3.8930588 -0.5609436q-1.0983734 0.044036865 -1.5443344 0.39311218q-0.445961 0.34907532 -0.5682907 0.89811707zm15.118088 -4.842514l-3.035347 -0.674469l0.6762161 -3.034958l3.0353394 0.674469l-0.6762085 3.034958zm-13.52565 -14.159454q0.5131073 -2.3029022 2.4340057 -3.2365875q2.2955856 -1.1065216 6.795212 -0.106674194q4.499626 0.9998627 6.1054077 2.9893036q1.3466339 1.6437378 0.8335266 3.94664q-0.5165024 2.318161 -2.6018677 3.343338q-2.0972137 1.006546 -6.657852 -0.006866455q-4.469124 -0.9930725 -6.0901566 -2.9859009q-1.3313828 -1.6403503 -0.81827545 -3.9432526zm2.516739 0.5592346q-0.12232971 0.54904175 0.12995148 1.0692749q0.25566864 0.5049896 1.1046219 0.9337158q1.1031189 0.58125305 3.8944168 1.2015076q2.7912903 0.62023926 3.8896637 0.5762024q1.1017609 -0.059295654 1.5477219 -0.40837097q0.44596863 -0.34907532 0.56829834 -0.89811707q0.12232971 -0.54904175 -0.13334656 -1.0540161q-0.25227356 -0.52023315 -1.116478 -0.95236206q-1.0878677 -0.5778656 -3.8791656 -1.1981049q-2.7912903 -0.6202545 -3.8930588 -0.56095886q-1.0983658 0.044052124 -1.5443268 0.39312744q-0.44596863 0.34907532 -0.56829834 0.8981018z" fill-rule="nonzero"/><path fill="#000000" fill-opacity="0.0" d="m202.34953 20.371687l105.15999 -0.09585571l0 46.873154l-105.15999 0.09585571z" fill-rule="evenodd"/><path fill="#000000" d="m230.375 46.778027l0 -3.1093788l6.109375 -0.005569458l0 3.1093788l-6.109375 0.005569458zm7.2790833 0.14961243l3.109375 -0.31533432q0.125 1.0467644 0.78123474 1.6555405q0.65625 0.6087761 1.5 0.6080055q0.984375 -8.9645386E-4 1.65625 -0.7827568q0.671875 -0.79748917 0.671875 -2.3912392q0 -1.484375 -0.671875 -2.2337646q-0.671875 -0.74938583 -1.734375 -0.7484207q-1.34375 0.0012283325 -2.4062347 1.1896973l-2.515625 -0.37270737l1.578125 -8.438942l8.23436 -0.007507324l0 2.90625l-5.875 0.005355835l-0.484375 2.7660675q1.046875 -0.5322037 2.125 -0.53318787q2.0625 -0.001876831 3.5 1.5124359q1.453125 1.4986763 1.453125 3.9049263q0 2.0000038 -1.171875 3.563572q-1.578125 2.1576881 -4.390625 2.1602516q-2.2499847 0.0020523071 -3.6718597 -1.1997795q-1.40625 -1.2174683 -1.6875 -3.2484627zm17.819061 -12.125622q2.359375 -0.0021514893 3.6875 1.6685143q1.578125 1.9985619 1.578125 6.6079407q0 4.609375 -1.59375 6.6108284q-1.3125 1.6730728 -3.671875 1.6752243q-2.375 0.0021629333 -3.828125 -1.8090096q-1.4375 -1.8268166 -1.4375 -6.4986954q0 -4.578125 1.59375 -6.5952034q1.3125 -1.6574478 3.671875 -1.6595993zm0 2.578125q-0.5625 5.1498413E-4 -1.015625 0.36030197q-0.4375 0.35977554 -0.671875 1.2818642q-0.328125 1.2034225 -0.328125 4.0628014q0 2.859375 0.28125 3.9216194q0.296875 1.0622292 0.734375 1.4212074q0.4375 0.35897446 1.0 0.3584633q0.5625 -5.1498413E-4 1.0 -0.3602867q0.453125 -0.3597908 0.6875 -1.2975044q0.328125 -1.1877975 0.328125 -4.0471764q0 -2.859375 -0.296875 -3.9216042q-0.28125 -1.0622444 -0.71875 -1.4212189q-0.4375 -0.35897827 -1.0 -0.3584671zm8.006561 13.695835l0 -3.1093788l3.109375 -0.00283432l0 3.1093788l-3.109375 0.00283432zm10.888397 -16.291183q2.359375 -0.0021514893 3.6875 1.6685143q1.578125 1.9985619 1.578125 6.6079407q0 4.609375 -1.59375 6.6108284q-1.3125 1.6730728 -3.671875 1.6752243q-2.375 0.002166748 -3.828125 -1.8090096q-1.4375 -1.8268166 -1.4375 -6.4986954q0 -4.578125 1.59375 -6.5952034q1.3125 -1.6574478 3.671875 -1.6595993zm0 2.5781288q-0.5625 5.1116943E-4 -1.015625 0.36029816q-0.4375 0.35977554 -0.671875 1.2818642q-0.328125 1.2034225 -0.328125 4.0628014q0 2.859375 0.28125 3.9216194q0.296875 1.0622292 0.734375 1.4212074q0.4375 0.35897446 1.0 0.3584633q0.5625 -5.1498413E-4 1.0 -0.3602867q0.453125 -0.3597908 0.6875 -1.2975044q0.328125 -1.1877975 0.328125 -4.0471725q0 -2.8593788 -0.296875 -3.921608q-0.28125 -1.0622444 -0.71875 -1.4212189q-0.4375 -0.35897827 -1.0 -0.3584633z" fill-rule="nonzero"/><path fill="#000000" fill-opacity="0.0" d="m427.40787 144.8588l10.688538 57.32135l-46.0614 8.626968l-10.688568 -57.321365z" fill-rule="evenodd"/><path fill="#000000" d="m416.7741 166.81746q0.43249512 2.319397 -0.9673462 3.932785q-1.6765442 1.9195709 -6.2071533 2.7681274q-4.5305786 0.84854126 -6.7885437 -0.35002136q-1.8839111 -0.9824829 -2.3163757 -3.30188q-0.43536377 -2.3347626 1.079773 -4.096924q1.5333862 -1.7496796 6.1254272 -2.6097412q4.499878 -0.8427887 6.7731934 0.35289q1.8685303 0.9853668 2.3010254 3.3047638zm-2.5340576 0.47460938q-0.1031189 -0.5529785 -0.5393982 -0.93226624q-0.43344116 -0.36392212 -1.3825073 -0.42462158q-1.2427368 -0.10107422 -4.0532227 0.42530823q-2.8105164 0.5263977 -3.8033142 0.9984741q-0.9898987 0.48744202 -1.2629395 0.98368835q-0.27304077 0.49624634 -0.16992188 1.0492096q0.10308838 0.55296326 0.53652954 0.91690063q0.4363098 0.37928772 1.4007263 0.43710327q1.227356 0.10395813 4.0378723 -0.42242432q2.8105164 -0.5263977 3.800415 -1.0138397q0.99279785 -0.47207642 1.2658386 -0.96832275q0.27304077 -0.49624634 0.16992188 -1.0492096zm-12.001251 10.393539l3.0562134 -0.5724182l0.5699768 3.0567017l-3.056244 0.57240295l-0.5699463 -3.0566864zm17.998901 7.7066345q0.43249512 2.319397 -0.9673462 3.9328003q-1.6765442 1.9195709 -6.2071533 2.7681122q-4.5305786 0.8485565 -6.7885437 -0.3500061q-1.8839111 -0.9824829 -2.3164062 -3.30188q-0.43533325 -2.3347626 1.0798035 -4.096924q1.5333862 -1.7496948 6.1254272 -2.6097412q4.499878 -0.84280396 6.7731934 0.35289q1.8685303 0.98535156 2.3010254 3.3047485zm-2.5340576 0.47460938q-0.1031189 -0.55296326 -0.5393982 -0.932251q-0.43344116 -0.36392212 -1.3825378 -0.42462158q-1.2427063 -0.10107422 -4.053192 0.42530823q-2.8105164 0.52638245 -3.8033142 0.9984741q-0.9898987 0.48744202 -1.2629395 0.9836731q-0.27304077 0.49624634 -0.16992188 1.0492249q0.10308838 0.55296326 0.53652954 0.9168854q0.4362793 0.37930298 1.4007263 0.43711853q1.227356 0.10395813 4.0378723 -0.42243958q2.8104858 -0.52638245 3.800415 -1.0138245q0.99279785 -0.47207642 1.2658386 -0.96832275q0.27304077 -0.49624634 0.16992188 -1.0492249z" fill-rule="nonzero"/><path fill="#000000" fill-opacity="0.0" d="m154.04794 196.7521l206.58136 0.71891785" fill-rule="evenodd"/><path stroke="#000000" stroke-width="1.0" stroke-linejoin="round" stroke-linecap="butt" d="m154.04794 196.7521l206.58136 0.71891785" fill-rule="evenodd"/></g></svg>
