<svg version="1.1" viewBox="0.0 0.0 517.6666666666666 341.1994750656168" fill="none" stroke="none" stroke-linecap="square" stroke-miterlimit="10" xmlns:xlink="http://www.w3.org/1999/xlink" xmlns="http://www.w3.org/2000/svg"><clipPath id="p.0"><path d="m0 0l517.6667 0l0 341.19946l-517.6667 0l0 -341.19946z" clip-rule="nonzero"/></clipPath><g clip-path="url(#p.0)"><path fill="#000000" fill-opacity="0.0" d="m0 0l517.6667 0l0 341.19946l-517.6667 0z" fill-rule="evenodd"/><path fill="#000000" fill-opacity="0.0" d="m4.418263 4.950642l433.94638 0l74.998505 74.99848l0 256.3401l-508.9449 0z" fill-rule="evenodd"/><path stroke="#38761d" stroke-width="8.0" stroke-linejoin="round" stroke-linecap="butt" d="m4.418263 4.950642l433.94638 0l74.998505 74.99848l0 256.3401l-508.9449 0z" fill-rule="evenodd"/><path fill="#000000" fill-opacity="0.0" d="m0.64467824 208.55376l508.9449 0l0 93.732285l-508.9449 0z" fill-rule="evenodd"/><path fill="#38761d" d="m55.19549 276.43375l-7.8125 0l0 -4.671875q-1.9375 2.71875 -4.59375 4.0625q-2.65625 1.328125 -5.34375 1.328125q-5.484377 0 -9.390627 -4.40625q-3.90625 -4.421875 -3.90625 -12.328125q0 -8.09375 3.796875 -12.296875q3.8125 -4.203125 9.625002 -4.203125q5.328125 0 9.21875 4.421875l0 -15.8125l8.40625 0l0 43.90625zm-22.453125 -16.59375q0 5.09375 1.40625 7.375q2.03125 3.296875 5.6875 3.296875q2.90625 0 4.9375 -2.46875q2.046875 -2.484375 2.046875 -7.390625q0 -5.484375 -1.984375 -7.890625q-1.96875 -2.40625 -5.0625 -2.40625q-2.984375 0 -5.015625 2.375q-2.015625 2.375 -2.015625 7.109375zm30.758545 -19.515625l0 -7.796875l8.406246 0l0 7.796875l-8.406246 0zm0 36.109375l0 -31.796875l8.406246 0l0 31.796875l-8.406246 0zm14.070171 -9.078125l8.4375 -1.28125q0.546875 2.453125 2.1875 3.734375q1.65625 1.265625 4.609375 1.265625q3.265625 0 4.921875 -1.203125q1.109375 -0.828125 1.109375 -2.234375q0 -0.96875 -0.609375 -1.59375q-0.625 -0.59375 -2.8125 -1.109375q-10.171875 -2.25 -12.90625 -4.09375q-3.765625 -2.578125 -3.765625 -7.171875q0 -4.125 3.265625 -6.9375q3.265625 -2.8125 10.109375 -2.8125q6.53125 0 9.703125 2.125q3.1875 2.125 4.375 6.28125l-7.9375 1.46875q-0.5 -1.859375 -1.921875 -2.84375q-1.421875 -0.984375 -4.0625 -0.984375q-3.328125 0 -4.765625 0.921875q-0.953125 0.65625 -0.953125 1.703125q0 0.90625 0.84375 1.53125q1.125 0.84375 7.84375 2.375q6.734375 1.515625 9.40625 3.734375q2.625 2.25 2.625 6.265625q0 4.375 -3.65625 7.515625q-3.640625 3.140625 -10.8125 3.140625q-6.484375 0 -10.28125 -2.625q-3.78125 -2.640625 -4.953125 -7.171875zm64.795296 -13.328125l-8.28125 1.5q-0.421875 -2.484375 -1.90625 -3.734375q-1.484375 -1.265625 -3.84375 -1.265625q-3.1562576 0 -5.0312576 2.171875q-1.859375 2.171875 -1.859375 7.265625q0 5.65625 1.890625 8.0q1.90625 2.328125 5.1093826 2.328125q2.40625 0 3.921875 -1.359375q1.53125 -1.359375 2.15625 -4.6875l8.265625 1.40625q-1.28125 5.6875 -4.9375 8.59375q-3.65625 2.90625 -9.796875 2.90625q-6.9687576 0 -11.125008 -4.390625q-4.140625 -4.40625 -4.140625 -12.203125q0 -7.875 4.15625 -12.25q4.171875 -4.390625 11.265633 -4.390625q5.8125 0 9.234375 2.5q3.4375 2.5 4.921875 7.609375zm14.435913 22.40625l-8.40625 0l0 -31.796875l7.8125 0l0 4.515625q2.0 -3.203125 3.59375 -4.21875q1.609375 -1.015625 3.65625 -1.015625q2.875 0 5.53125 1.578125l-2.59375 7.34375q-2.140625 -1.375 -3.953125 -1.375q-1.78125 0 -3.015625 0.96875q-1.21875 0.96875 -1.921875 3.515625q-0.703125 2.546875 -0.703125 10.65625l0 9.828125zm34.225845 -10.125l8.390625 1.40625q-1.609375 4.609375 -5.109375 7.03125q-3.484375 2.40625 -8.71875 2.40625q-8.296875 0 -12.28125 -5.421875q-3.140625 -4.34375 -3.140625 -10.953125q0 -7.90625 4.125 -12.375q4.140625 -4.484375 10.453125 -4.484375q7.09375 0 11.1875 4.6875q4.109375 4.6875 3.9375 14.359375l-21.078125 0q0.078125 3.734375 2.015625 5.828125q1.953125 2.078125 4.859375 2.078125q1.984375 0 3.328125 -1.078125q1.34375 -1.078125 2.03125 -3.484375zm0.484375 -8.5q-0.09375 -3.65625 -1.890625 -5.546875q-1.796875 -1.90625 -4.375 -1.90625q-2.75 0 -4.546875 2.0q-1.796875 2.015625 -1.765625 5.453125l12.578125 0zm29.795288 -13.171875l0 6.703125l-5.75 0l0 12.8125q0 3.890625 0.15625 4.546875q0.171875 0.640625 0.75 1.0625q0.59375 0.40625 1.4375 0.40625q1.15625 0 3.375 -0.796875l0.71875 6.53125q-2.9375 1.25 -6.640625 1.25q-2.28125 0 -4.109375 -0.765625q-1.828125 -0.765625 -2.6875 -1.96875q-0.84375 -1.21875 -1.171875 -3.28125q-0.265625 -1.46875 -0.265625 -5.9375l0 -13.859375l-3.875 0l0 -6.703125l3.875 0l0 -6.328125l8.4375 -4.90625l0 11.234375l5.75 0zm24.25087 21.671875l8.390625 1.40625q-1.609375 4.609375 -5.109375 7.03125q-3.484375 2.40625 -8.71875 2.40625q-8.296875 0 -12.28125 -5.421875q-3.140625 -4.34375 -3.140625 -10.953125q0 -7.90625 4.125 -12.375q4.140625 -4.484375 10.453125 -4.484375q7.09375 0 11.1875 4.6875q4.109375 4.6875 3.9375 14.359375l-21.078125 0q0.078125 3.734375 2.015625 5.828125q1.953125 2.078125 4.859375 2.078125q1.984375 0 3.328125 -1.078125q1.34375 -1.078125 2.03125 -3.484375zm0.484375 -8.5q-0.09375 -3.65625 -1.890625 -5.546875q-1.796875 -1.90625 -4.375 -1.90625q-2.75 0 -4.546875 2.0q-1.796875 2.015625 -1.765625 5.453125l12.578125 0zm38.53734 -3.46875l-7.640625 -1.390625q1.296875 -4.609375 4.4375 -6.8125q3.140625 -2.21875 9.34375 -2.21875q5.625 0 8.375 1.328125q2.765625 1.328125 3.890625 3.390625q1.125 2.046875 1.125 7.53125l-0.09375 9.8125q0 4.1875 0.40625 6.1875q0.40625 1.984375 1.515625 4.265625l-8.328125 0q-0.328125 -0.84375 -0.8125 -2.484375q-0.203125 -0.75 -0.296875 -0.984375q-2.15625 2.09375 -4.609375 3.140625q-2.453125 1.046875 -5.25 1.046875q-4.90625 0 -7.734375 -2.65625q-2.828125 -2.671875 -2.828125 -6.75q0 -2.6875 1.28125 -4.796875q1.296875 -2.109375 3.609375 -3.234375q2.328125 -1.125 6.703125 -1.96875q5.890625 -1.109375 8.171875 -2.0625l0 -0.84375q0 -2.421875 -1.203125 -3.453125q-1.203125 -1.03125 -4.515625 -1.03125q-2.25 0 -3.515625 0.890625q-1.25 0.875 -2.03125 3.09375zm11.265625 6.828125q-1.625 0.53125 -5.125 1.28125q-3.5 0.75 -4.578125 1.46875q-1.65625 1.171875 -1.65625 2.96875q0 1.765625 1.3125 3.0625q1.328125 1.28125 3.359375 1.28125q2.28125 0 4.34375 -1.5q1.53125 -1.140625 2.015625 -2.796875q0.328125 -1.078125 0.328125 -4.09375l0 -1.671875zm44.279663 -7.140625l-8.28125 1.5q-0.421875 -2.484375 -1.90625 -3.734375q-1.484375 -1.265625 -3.84375 -1.265625q-3.15625 0 -5.03125 2.171875q-1.859375 2.171875 -1.859375 7.265625q0 5.65625 1.890625 8.0q1.90625 2.328125 5.109375 2.328125q2.40625 0 3.921875 -1.359375q1.53125 -1.359375 2.15625 -4.6875l8.265625 1.40625q-1.28125 5.6875 -4.9375 8.59375q-3.65625 2.90625 -9.796875 2.90625q-6.96875 0 -11.125 -4.390625q-4.140625 -4.40625 -4.140625 -12.203125q0 -7.875 4.15625 -12.25q4.171875 -4.390625 11.265625 -4.390625q5.8125 0 9.234375 2.5q3.4375 2.5 4.921875 7.609375zm20.967163 -9.390625l0 6.703125l-5.75 0l0 12.8125q0 3.890625 0.15625 4.546875q0.171875 0.640625 0.75 1.0625q0.59375 0.40625 1.4375 0.40625q1.15625 0 3.375 -0.796875l0.71875 6.53125q-2.9375 1.25 -6.640625 1.25q-2.28125 0 -4.109375 -0.765625q-1.828125 -0.765625 -2.6875 -1.96875q-0.84375 -1.21875 -1.171875 -3.28125q-0.265625 -1.46875 -0.265625 -5.9375l0 -13.859375l-3.875 0l0 -6.703125l3.875 0l0 -6.328125l8.4375 -4.90625l0 11.234375l5.75 0zm5.8446045 -4.3125l0 -7.796875l8.40625 0l0 7.796875l-8.40625 0zm0 36.109375l0 -31.796875l8.40625 0l0 31.796875l-8.40625 0zm15.085815 -16.34375q0 -4.203125 2.0625 -8.125q2.078125 -3.921875 5.859375 -5.984375q3.796875 -2.0625 8.453125 -2.0625q7.21875 0 11.828125 4.6875q4.625 4.6875 4.625 11.84375q0 7.203125 -4.65625 11.953125q-4.65625 4.75 -11.734375 4.75q-4.359375 0 -8.328125 -1.96875q-3.96875 -1.984375 -6.046875 -5.796875q-2.0625 -3.828125 -2.0625 -9.296875zm8.625 0.4375q0 4.734375 2.25 7.25q2.25 2.515625 5.53125 2.515625q3.296875 0 5.53125 -2.515625q2.234375 -2.515625 2.234375 -7.296875q0 -4.671875 -2.234375 -7.1875q-2.234375 -2.515625 -5.53125 -2.515625q-3.28125 0 -5.53125 2.515625q-2.25 2.515625 -2.25 7.234375zm59.71167 15.90625l-8.40625 0l0 -16.234375q0 -5.140625 -0.546875 -6.65625q-0.53125 -1.515625 -1.75 -2.34375q-1.21875 -0.84375 -2.921875 -0.84375q-2.1875 0 -3.921875 1.203125q-1.734375 1.1875 -2.390625 3.171875q-0.640625 1.96875 -0.640625 7.296875l0 14.40625l-8.40625 0l0 -31.796875l7.8125 0l0 4.671875q4.15625 -5.390625 10.484375 -5.390625q2.78125 0 5.078125 1.0q2.3125 1.0 3.5 2.5625q1.1875 1.546875 1.640625 3.53125q0.46875 1.96875 0.46875 5.65625l0 19.765625zm5.571045 -9.078125l8.4375 -1.28125q0.546875 2.453125 2.1875 3.734375q1.65625 1.265625 4.609375 1.265625q3.265625 0 4.921875 -1.203125q1.109375 -0.828125 1.109375 -2.234375q0 -0.96875 -0.609375 -1.59375q-0.625 -0.59375 -2.8125 -1.109375q-10.171875 -2.25 -12.90625 -4.09375q-3.765625 -2.578125 -3.765625 -7.171875q0 -4.125 3.265625 -6.9375q3.265625 -2.8125 10.109375 -2.8125q6.53125 0 9.703125 2.125q3.1875 2.125 4.375 6.28125l-7.9375 1.46875q-0.5 -1.859375 -1.921875 -2.84375q-1.421875 -0.984375 -4.0625 -0.984375q-3.328125 0 -4.765625 0.921875q-0.953125 0.65625 -0.953125 1.703125q0 0.90625 0.84375 1.53125q1.125 0.84375 7.84375 2.375q6.734375 1.515625 9.40625 3.734375q2.625 2.25 2.625 6.265625q0 4.375 -3.65625 7.515625q-3.640625 3.140625 -10.8125 3.140625q-6.484375 0 -10.28125 -2.625q-3.78125 -2.640625 -4.953125 -7.171875z" fill-rule="nonzero"/><path fill="#d9ead3" d="m211.99677 39.007874l67.543304 0l0 62.97638l-67.543304 0z" fill-rule="evenodd"/><path fill="#e0eedb" d="m201.5007 28.51181l88.53543 0l-10.496063 10.496063l-67.543304 0z" fill-rule="evenodd"/><path fill="#adbba8" d="m201.5007 112.480316l10.496063 -10.496063l67.543304 0l10.496063 10.496063z" fill-rule="evenodd"/><path fill="#e8f2e4" d="m201.5007 28.51181l10.496063 10.496063l0 62.97638l-10.496063 10.496063z" fill-rule="evenodd"/><path fill="#828c7e" d="m290.03613 28.51181l0 83.968506l-10.496063 -10.496063l0 -62.97638z" fill-rule="evenodd"/><path fill="#000000" fill-opacity="0.0" d="m201.5007 28.51181l88.53543 0l0 83.968506l-88.53543 0zm10.496063 10.496063l67.543304 0l0 62.97638l-67.543304 0zm-10.496063 -10.496063l10.496063 10.496063m-10.496063 73.47244l10.496063 -10.496063m78.03937 -73.47244l-10.496063 10.496063m10.496063 73.47244l-10.496063 -10.496063" fill-rule="evenodd"/><path stroke="#000000" stroke-width="1.0" stroke-linejoin="round" stroke-linecap="butt" d="m201.5007 28.51181l88.53543 0l0 83.968506l-88.53543 0zm10.496063 10.496063l67.543304 0l0 62.97638l-67.543304 0zm-10.496063 -10.496063l10.496063 10.496063m-10.496063 73.47244l10.496063 -10.496063m78.03937 -73.47244l-10.496063 10.496063m10.496063 73.47244l-10.496063 -10.496063" fill-rule="evenodd"/><path fill="#d9ead3" d="m112.685036 110.45745l67.54331 0l0 62.976387l-67.54331 0z" fill-rule="evenodd"/><path fill="#e0eedb" d="m102.18898 99.96139l88.53543 0l-10.496063 10.496063l-67.54331 0z" fill-rule="evenodd"/><path fill="#adbba8" d="m102.18898 183.92989l10.496056 -10.496048l67.54331 0l10.496063 10.496048z" fill-rule="evenodd"/><path fill="#e8f2e4" d="m102.18898 99.96139l10.496056 10.496063l0 62.976387l-10.496056 10.496048z" fill-rule="evenodd"/><path fill="#828c7e" d="m190.72441 99.96139l0 83.9685l-10.496063 -10.496048l0 -62.976387z" fill-rule="evenodd"/><path fill="#000000" fill-opacity="0.0" d="m102.18898 99.96139l88.53543 0l0 83.9685l-88.53543 0zm10.496056 10.496063l67.54331 0l0 62.976387l-67.54331 0zm-10.496056 -10.496063l10.496056 10.496063m-10.496056 73.472435l10.496056 -10.496048m78.039375 -73.47245l-10.496063 10.496063m10.496063 73.472435l-10.496063 -10.496048" fill-rule="evenodd"/><path stroke="#000000" stroke-width="1.0" stroke-linejoin="round" stroke-linecap="butt" d="m102.18898 99.96139l88.53543 0l0 83.9685l-88.53543 0zm10.496056 10.496063l67.54331 0l0 62.976387l-67.54331 0zm-10.496056 -10.496063l10.496056 10.496063m-10.496056 73.472435l10.496056 -10.496048m78.039375 -73.47245l-10.496063 10.496063m10.496063 73.472435l-10.496063 -10.496048" fill-rule="evenodd"/><path fill="#d9ead3" d="m211.99677 135.07524l67.543304 0l0 62.97638l-67.543304 0z" fill-rule="evenodd"/><path fill="#e0eedb" d="m201.5007 124.57918l88.53543 0l-10.496063 10.496063l-67.543304 0z" fill-rule="evenodd"/><path fill="#adbba8" d="m201.5007 208.54768l10.496063 -10.496063l67.543304 0l10.496063 10.496063z" fill-rule="evenodd"/><path fill="#e8f2e4" d="m201.5007 124.57918l10.496063 10.496063l0 62.97638l-10.496063 10.496063z" fill-rule="evenodd"/><path fill="#828c7e" d="m290.03613 124.57918l0 83.968506l-10.496063 -10.496063l0 -62.97638z" fill-rule="evenodd"/><path fill="#000000" fill-opacity="0.0" d="m201.5007 124.57918l88.53543 0l0 83.968506l-88.53543 0zm10.496063 10.496063l67.543304 0l0 62.97638l-67.543304 0zm-10.496063 -10.496063l10.496063 10.496063m-10.496063 73.47244l10.496063 -10.496063m78.03937 -73.47244l-10.496063 10.496063m10.496063 73.47244l-10.496063 -10.496063" fill-rule="evenodd"/><path stroke="#000000" stroke-width="1.0" stroke-linejoin="round" stroke-linecap="butt" d="m201.5007 124.57918l88.53543 0l0 83.968506l-88.53543 0zm10.496063 10.496063l67.543304 0l0 62.97638l-67.543304 0zm-10.496063 -10.496063l10.496063 10.496063m-10.496063 73.47244l10.496063 -10.496063m78.03937 -73.47244l-10.496063 10.496063m10.496063 73.47244l-10.496063 -10.496063" fill-rule="evenodd"/><path fill="#d9ead3" d="m311.3085 110.45745l67.543304 0l0 62.976387l-67.543304 0z" fill-rule="evenodd"/><path fill="#e0eedb" d="m300.81244 99.96139l88.53543 0l-10.496063 10.496063l-67.543304 0z" fill-rule="evenodd"/><path fill="#adbba8" d="m300.81244 183.92989l10.496063 -10.496048l67.543304 0l10.496063 10.496048z" fill-rule="evenodd"/><path fill="#e8f2e4" d="m300.81244 99.96139l10.496063 10.496063l0 62.976387l-10.496063 10.496048z" fill-rule="evenodd"/><path fill="#828c7e" d="m389.34787 99.96139l0 83.9685l-10.496063 -10.496048l0 -62.976387z" fill-rule="evenodd"/><path fill="#000000" fill-opacity="0.0" d="m300.81244 99.96139l88.53543 0l0 83.9685l-88.53543 0zm10.496063 10.496063l67.543304 0l0 62.976387l-67.543304 0zm-10.496063 -10.496063l10.496063 10.496063m-10.496063 73.472435l10.496063 -10.496048m78.03937 -73.47245l-10.496063 10.496063m10.496063 73.472435l-10.496063 -10.496048" fill-rule="evenodd"/><path stroke="#000000" stroke-width="1.0" stroke-linejoin="round" stroke-linecap="butt" d="m300.81244 99.96139l88.53543 0l0 83.9685l-88.53543 0zm10.496063 10.496063l67.543304 0l0 62.976387l-67.543304 0zm-10.496063 -10.496063l10.496063 10.496063m-10.496063 73.472435l10.496063 -10.496048m78.03937 -73.47245l-10.496063 10.496063m10.496063 73.472435l-10.496063 -10.496048" fill-rule="evenodd"/><path fill="#00ff00" d="m230.0483 69.072556l15.716537 -15.716537l15.716522 15.716537l-7.858261 0l0 18.551178l-15.716537 0l0 -18.551178z" fill-rule="evenodd"/><path stroke="#000000" stroke-width="1.0" stroke-linejoin="round" stroke-linecap="butt" d="m230.0483 69.072556l15.716537 -15.716537l15.716522 15.716537l-7.858261 0l0 18.551178l-15.716537 0l0 -18.551178z" fill-rule="evenodd"/><path fill="#00ff00" d="m261.4618 165.87715l-15.716522 15.716522l-15.716537 -15.716522l7.858261 0l0 -18.551193l15.716537 0l0 18.551193z" fill-rule="evenodd"/><path stroke="#000000" stroke-width="1.0" stroke-linejoin="round" stroke-linecap="butt" d="m261.4618 165.87715l-15.716522 15.716522l-15.716537 -15.716522l7.858261 0l0 -18.551193l15.716537 0l0 18.551193z" fill-rule="evenodd"/><path fill="#00ff00" d="m346.48996 126.238556l15.716522 15.716537l-15.716522 15.716537l0 -7.8582764l-18.551178 0l0 -15.716537l18.551178 0z" fill-rule="evenodd"/><path stroke="#000000" stroke-width="1.0" stroke-linejoin="round" stroke-linecap="butt" d="m346.48996 126.238556l15.716522 15.716537l-15.716522 15.716537l0 -7.8582764l-18.551178 0l0 -15.716537l18.551178 0z" fill-rule="evenodd"/><path fill="#00ff00" d="m145.02014 157.65205l-15.716537 -15.716537l15.716537 -15.71653l0 7.8582687l18.551178 0l0 15.716537l-18.551178 0z" fill-rule="evenodd"/><path stroke="#000000" stroke-width="1.0" stroke-linejoin="round" stroke-linecap="butt" d="m145.02014 157.65205l-15.716537 -15.716537l15.716537 -15.71653l0 7.8582687l18.551178 0l0 15.716537l-18.551178 0z" fill-rule="evenodd"/></g></svg>
