<svg version="1.1" viewBox="0.0 0.0 517.6666666666666 341.1994750656168" fill="none" stroke="none" stroke-linecap="square" stroke-miterlimit="10" xmlns:xlink="http://www.w3.org/1999/xlink" xmlns="http://www.w3.org/2000/svg"><clipPath id="p.0"><path d="m0 0l517.6667 0l0 341.19946l-517.6667 0l0 -341.19946z" clip-rule="nonzero"/></clipPath><g clip-path="url(#p.0)"><path fill="#000000" fill-opacity="0.0" d="m0 0l517.6667 0l0 341.19946l-517.6667 0z" fill-rule="evenodd"/><path fill="#434343" d="m30.446194 22.713911l97.63779 0l0 142.07874l-97.63779 0z" fill-rule="evenodd"/><path stroke="#000000" stroke-width="1.0" stroke-linejoin="round" stroke-linecap="butt" d="m30.446194 22.713911l97.63779 0l0 142.07874l-97.63779 0z" fill-rule="evenodd"/><path fill="#000000" fill-opacity="0.0" d="m4.418263 4.950642l433.94638 0l74.998505 74.99848l0 256.3401l-508.9449 0z" fill-rule="evenodd"/><path stroke="#bf9000" stroke-width="8.0" stroke-linejoin="round" stroke-linecap="butt" d="m4.418263 4.950642l433.94638 0l74.998505 74.99848l0 256.3401l-508.9449 0z" fill-rule="evenodd"/><path fill="#000000" fill-opacity="0.0" d="m0.64467824 148.68747l508.9449 0l0 200.37796l-508.9449 0z" fill-rule="evenodd"/><path fill="#7f6000" d="m68.95101 190.64871l9.4375 0l0 5.296875q5.0625 -6.171875 12.0625 -6.171875q3.71875 0 6.453125 1.53125q2.734375 1.53125 4.484375 4.640625q2.5625 -3.109375 5.515625 -4.640625q2.953125 -1.53125 6.296875 -1.53125q4.265625 0 7.21875 1.734375q2.953125 1.734375 4.40625 5.09375q1.0625 2.46875 1.0625 8.015625l0 24.75l-10.234375 0l0 -22.125q0 -5.765625 -1.0625 -7.4375q-1.421875 -2.1875 -4.375 -2.1875q-2.15625 0 -4.046875 1.3125q-1.890625 1.3125 -2.734375 3.84375q-0.84375 2.53125 -0.84375 8.0l0 18.59375l-10.234375 0l0 -21.21875q0 -5.640625 -0.546875 -7.28125q-0.546875 -1.640625 -1.703125 -2.4375q-1.140625 -0.8125 -3.109375 -0.8125q-2.375 0 -4.265625 1.28125q-1.890625 1.265625 -2.71875 3.671875q-0.8125 2.40625 -0.8125 7.984375l0 18.8125l-10.25 0l0 -38.71875zm92.63137 38.71875l0 -5.796875q-2.125 3.09375 -5.578125 4.890625q-3.4375 1.78125 -7.25 1.78125q-3.90625 0 -7.015625 -1.703125q-3.09375 -1.71875 -4.484375 -4.8125q-1.375 -3.109375 -1.375 -8.578125l0 -24.5l10.25 0l0 17.796875q0 8.15625 0.5625 10.0q0.5625 1.84375 2.046875 2.921875q1.5 1.078125 3.796875 1.078125q2.625 0 4.703125 -1.4375q2.078125 -1.453125 2.84375 -3.578125q0.765625 -2.140625 0.765625 -10.4375l0 -16.34375l10.25 0l0 38.71875l-9.515625 0zm20.118637 0l0 -53.4375l10.25 0l0 53.4375l-10.25 0zm38.491898 -38.71875l0 8.171875l-7.0 0l0 15.59375q0 4.75 0.203125 5.53125q0.203125 0.78125 0.90625 1.296875q0.71875 0.5 1.734375 0.5q1.421875 0 4.125 -0.984375l0.875 7.953125q-3.578125 1.53125 -8.09375 1.53125q-2.765625 0 -5.0 -0.921875q-2.21875 -0.9375 -3.265625 -2.40625q-1.03125 -1.484375 -1.4375 -4.0q-0.328125 -1.78125 -0.328125 -7.21875l0 -16.875l-4.703125 0l0 -8.171875l4.703125 0l0 -7.6875l10.28125 -5.984375l0 13.671875l7.0 0zm7.1111145 -5.25l0 -9.46875l10.25 0l0 9.46875l-10.25 0zm0 43.96875l0 -38.71875l10.25 0l0 38.71875l-10.25 0zm19.585648 -14.25l0 -10.25l20.109375 0l0 10.25l-20.109375 0zm61.236115 14.25l-10.25 0l0 -19.75q0 -6.28125 -0.65625 -8.109375q-0.65625 -1.84375 -2.140625 -2.859375q-1.46875 -1.03125 -3.546875 -1.03125q-2.65625 0 -4.78125 1.46875q-2.109375 1.453125 -2.890625 3.859375q-0.78125 2.40625 -0.78125 8.890625l0 17.53125l-10.25 0l0 -38.71875l9.515625 0l0 5.6875q5.0625 -6.5625 12.765625 -6.5625q3.390625 0 6.1875 1.234375q2.8125 1.21875 4.25 3.109375q1.4375 1.890625 2.0 4.296875q0.578125 2.40625 0.578125 6.890625l0 24.0625zm8.009247 -19.90625q0 -5.09375 2.515625 -9.875q2.515625 -4.78125 7.125 -7.296875q4.625 -2.515625 10.296875 -2.515625q8.796875 0 14.40625 5.71875q5.609375 5.703125 5.609375 14.40625q0 8.78125 -5.671875 14.5625q-5.65625 5.78125 -14.265625 5.78125q-5.3125 0 -10.15625 -2.40625q-4.828125 -2.40625 -7.34375 -7.046875q-2.515625 -4.65625 -2.515625 -11.328125zm10.5 0.546875q0 5.765625 2.734375 8.828125q2.734375 3.0625 6.75 3.0625q4.0 0 6.71875 -3.0625q2.71875 -3.0625 2.71875 -8.890625q0 -5.6875 -2.71875 -8.75q-2.71875 -3.0625 -6.71875 -3.0625q-4.015625 0 -6.75 3.0625q-2.734375 3.0625 -2.734375 8.8125zm72.97803 19.359375l-9.515625 0l0 -5.6875q-2.359375 3.3125 -5.59375 4.9375q-3.21875 1.625 -6.5 1.625q-6.671875 0 -11.4375 -5.375q-4.75 -5.375 -4.75 -15.0q0 -9.84375 4.625 -14.96875q4.640625 -5.125 11.703125 -5.125q6.484375 0 11.234375 5.40625l0 -19.25l10.234375 0l0 53.4375zm-27.328125 -20.1875q0 6.1875 1.703125 8.953125q2.484375 4.015625 6.921875 4.015625q3.546875 0 6.015625 -3.0q2.484375 -3.015625 2.484375 -8.984375q0 -6.671875 -2.40625 -9.609375q-2.40625 -2.9375 -6.15625 -2.9375q-3.640625 0 -6.109375 2.90625q-2.453125 2.890625 -2.453125 8.65625zm59.853027 7.859375l10.203125 1.71875q-1.96875 5.609375 -6.21875 8.546875q-4.25 2.9375 -10.625 2.9375q-10.09375 0 -14.9375 -6.59375q-3.828125 -5.296875 -3.828125 -13.34375q0 -9.625 5.03125 -15.078125q5.03125 -5.453125 12.71875 -5.453125q8.640625 0 13.625 5.71875q5.0 5.703125 4.78125 17.46875l-25.65625 0q0.109375 4.5625 2.46875 7.09375q2.375 2.53125 5.90625 2.53125q2.40625 0 4.046875 -1.3125q1.640625 -1.3125 2.484375 -4.234375zm0.578125 -10.34375q-0.109375 -4.453125 -2.296875 -6.765625q-2.1875 -2.3125 -5.328125 -2.3125q-3.34375 0 -5.53125 2.4375q-2.1875 2.453125 -2.15625 6.640625l15.3125 0z" fill-rule="nonzero"/><path fill="#7f6000" d="m77.225914 280.24872l9.4375 0l0 5.296875q5.0625 -6.171875 12.0625 -6.171875q3.71875 0 6.453125 1.53125q2.734375 1.53125 4.484375 4.640625q2.5625 -3.109375 5.515625 -4.640625q2.953125 -1.53125 6.296875 -1.53125q4.265625 0 7.2187576 1.734375q2.953125 1.734375 4.40625 5.09375q1.0625 2.46875 1.0625 8.015625l0 24.75l-10.234383 0l0 -22.125q0 -5.765625 -1.0625 -7.4375q-1.421875 -2.1875 -4.375 -2.1875q-2.15625 0 -4.046875 1.3125q-1.890625 1.3125 -2.734375 3.84375q-0.84375 2.53125 -0.84375 8.0l0 18.59375l-10.234375 0l0 -21.21875q0 -5.640625 -0.546875 -7.28125q-0.546875 -1.640625 -1.703125 -2.4375q-1.140625 -0.8125 -3.109375 -0.8125q-2.375 0 -4.265625 1.28125q-1.890625 1.265625 -2.71875 3.671875q-0.8125 2.40625 -0.8125 7.984375l0 18.8125l-10.25 0l0 -38.71875zm92.63137 38.71875l0 -5.796875q-2.125 3.09375 -5.578125 4.890625q-3.4375 1.78125 -7.25 1.78125q-3.90625 0 -7.015625 -1.703125q-3.09375 -1.71875 -4.484375 -4.8125q-1.375 -3.109375 -1.375 -8.578125l0 -24.5l10.25 0l0 17.796875q0 8.15625 0.5625 10.0q0.5625 1.84375 2.046875 2.921875q1.5 1.078125 3.796875 1.078125q2.625 0 4.703125 -1.4375q2.078125 -1.453125 2.84375 -3.578125q0.765625 -2.140625 0.765625 -10.4375l0 -16.34375l10.25 0l0 38.71875l-9.515625 0zm20.118637 0l0 -53.4375l10.25 0l0 53.4375l-10.25 0zm38.491898 -38.71875l0 8.171875l-7.0 0l0 15.59375q0 4.75 0.203125 5.53125q0.203125 0.78125 0.90625 1.296875q0.71875 0.5 1.734375 0.5q1.421875 0 4.125 -0.984375l0.875 7.953125q-3.578125 1.53125 -8.09375 1.53125q-2.765625 0 -5.0 -0.921875q-2.21875 -0.9375 -3.265625 -2.40625q-1.03125 -1.484375 -1.4375 -4.0q-0.328125 -1.78125 -0.328125 -7.21875l0 -16.875l-4.703125 0l0 -8.171875l4.703125 0l0 -7.6875l10.28125 -5.984375l0 13.671875l7.0 0zm7.1111145 -5.25l0 -9.46875l10.25 0l0 9.46875l-10.25 0zm0 43.96875l0 -38.71875l10.25 0l0 38.71875l-10.25 0zm19.585648 -14.25l0 -10.25l20.109375 0l0 10.25l-20.109375 0zm50.954865 -5.390625l0 -9.015625l23.25 0l0 21.296875q-3.390625 3.28125 -9.828125 5.78125q-6.421875 2.484375 -13.03125 2.484375q-8.375 0 -14.609375 -3.515625q-6.234375 -3.515625 -9.375 -10.046875q-3.125 -6.546875 -3.125 -14.25q0 -8.34375 3.5 -14.828125q3.5 -6.5 10.234375 -9.953125q5.140625 -2.671875 12.796875 -2.671875q9.953125 0 15.546875 4.1875q5.59375 4.171875 7.203125 11.53125l-10.71875 2.0q-1.125 -3.9375 -4.25 -6.203125q-3.109375 -2.28125 -7.78125 -2.28125q-7.078125 0 -11.25 4.484375q-4.171875 4.484375 -4.171875 13.296875q0 9.515625 4.21875 14.28125q4.234375 4.75 11.09375 4.75q3.390625 0 6.796875 -1.328125q3.40625 -1.328125 5.859375 -3.234375l0 -6.765625l-12.359375 0zm33.210663 19.640625l0 -53.4375l17.3125 0q9.84375 0 12.828125 0.796875q4.59375 1.203125 7.6875 5.234375q3.109375 4.03125 3.109375 10.40625q0 4.921875 -1.796875 8.28125q-1.78125 3.34375 -4.53125 5.265625q-2.75 1.90625 -5.59375 2.53125q-3.875 0.765625 -11.203125 0.765625l-7.03125 0l0 20.15625l-10.78125 0zm10.78125 -44.40625l0 15.171875l5.90625 0q6.375 0 8.53125 -0.828125q2.15625 -0.84375 3.375 -2.625q1.21875 -1.796875 1.21875 -4.171875q0 -2.90625 -1.71875 -4.796875q-1.703125 -1.90625 -4.328125 -2.375q-1.9375 -0.375 -7.765625 -0.375l-5.21875 0zm38.93576 -9.03125l10.796875 0l0 28.9375q0 6.890625 0.390625 8.9375q0.703125 3.28125 3.296875 5.265625q2.609375 1.984375 7.125 1.984375q4.59375 0 6.921875 -1.875q2.34375 -1.875 2.8125 -4.609375q0.484375 -2.734375 0.484375 -9.078125l0 -29.5625l10.78125 0l0 28.0625q0 9.625 -0.875 13.609375q-0.875 3.96875 -3.234375 6.703125q-2.34375 2.734375 -6.28125 4.359375q-3.9375 1.609375 -10.28125 1.609375q-7.65625 0 -11.609375 -1.765625q-3.953125 -1.765625 -6.25 -4.59375q-2.296875 -2.828125 -3.015625 -5.921875q-1.0625 -4.59375 -1.0625 -13.5625l0 -28.5z" fill-rule="nonzero"/><defs><linearGradient id="p.1" gradientUnits="userSpaceOnUse" gradientTransform="matrix(8.106781323108367 0.0 0.0 8.106781323108367 0.0 0.0)" spreadMethod="pad" x1="5.740862077429648" y1="4.6983183209430335" x2="5.740832989391121" y2="12.805099643999215"><stop offset="0.0" stop-color="#fff6db"/><stop offset="1.0" stop-color="#fad15c"/></linearGradient></defs><path fill="url(#p.1)" d="m46.539913 38.088478l65.71605 0l0 65.71967l-65.71605 0z" fill-rule="evenodd"/><path stroke="#fff2cc" stroke-width="2.0" stroke-linejoin="round" stroke-linecap="butt" d="m46.539913 38.088478l65.71605 0l0 65.71967l-65.71605 0z" fill-rule="evenodd"/><path fill="#000000" fill-opacity="0.0" d="m54.223576 44.109055l0 -12.901699" fill-rule="evenodd"/><path stroke="#fff2cc" stroke-width="2.0" stroke-linejoin="round" stroke-linecap="butt" d="m54.223576 44.109055l0 -12.901699" fill-rule="evenodd"/><path fill="#000000" fill-opacity="0.0" d="m64.15564 44.109055l0 -12.901699" fill-rule="evenodd"/><path stroke="#fff2cc" stroke-width="2.0" stroke-linejoin="round" stroke-linecap="butt" d="m64.15564 44.109055l0 -12.901699" fill-rule="evenodd"/><path fill="#000000" fill-opacity="0.0" d="m74.0877 44.109055l0 -12.901699" fill-rule="evenodd"/><path stroke="#fff2cc" stroke-width="2.0" stroke-linejoin="round" stroke-linecap="butt" d="m74.0877 44.109055l0 -12.901699" fill-rule="evenodd"/><path fill="#000000" fill-opacity="0.0" d="m84.01977 44.109055l0 -12.901699" fill-rule="evenodd"/><path stroke="#fff2cc" stroke-width="2.0" stroke-linejoin="round" stroke-linecap="butt" d="m84.01977 44.109055l0 -12.901699" fill-rule="evenodd"/><path fill="#000000" fill-opacity="0.0" d="m93.95183 44.109055l0 -12.901699" fill-rule="evenodd"/><path stroke="#fff2cc" stroke-width="2.0" stroke-linejoin="round" stroke-linecap="butt" d="m93.95183 44.109055l0 -12.901699" fill-rule="evenodd"/><path fill="#000000" fill-opacity="0.0" d="m103.88389 44.109055l0 -12.901699" fill-rule="evenodd"/><path stroke="#fff2cc" stroke-width="2.0" stroke-linejoin="round" stroke-linecap="butt" d="m103.88389 44.109055l0 -12.901699" fill-rule="evenodd"/><path fill="#000000" fill-opacity="0.0" d="m54.223576 110.19569l0 -12.901695" fill-rule="evenodd"/><path stroke="#fff2cc" stroke-width="2.0" stroke-linejoin="round" stroke-linecap="butt" d="m54.223576 110.19569l0 -12.901695" fill-rule="evenodd"/><path fill="#000000" fill-opacity="0.0" d="m64.15564 110.19569l0 -12.901695" fill-rule="evenodd"/><path stroke="#fff2cc" stroke-width="2.0" stroke-linejoin="round" stroke-linecap="butt" d="m64.15564 110.19569l0 -12.901695" fill-rule="evenodd"/><path fill="#000000" fill-opacity="0.0" d="m74.0877 110.19569l0 -12.901695" fill-rule="evenodd"/><path stroke="#fff2cc" stroke-width="2.0" stroke-linejoin="round" stroke-linecap="butt" d="m74.0877 110.19569l0 -12.901695" fill-rule="evenodd"/><path fill="#000000" fill-opacity="0.0" d="m84.01977 110.19569l0 -12.901695" fill-rule="evenodd"/><path stroke="#fff2cc" stroke-width="2.0" stroke-linejoin="round" stroke-linecap="butt" d="m84.01977 110.19569l0 -12.901695" fill-rule="evenodd"/><path fill="#000000" fill-opacity="0.0" d="m93.95183 110.19569l0 -12.901695" fill-rule="evenodd"/><path stroke="#fff2cc" stroke-width="2.0" stroke-linejoin="round" stroke-linecap="butt" d="m93.95183 110.19569l0 -12.901695" fill-rule="evenodd"/><path fill="#000000" fill-opacity="0.0" d="m103.88389 110.19569l0 -12.901695" fill-rule="evenodd"/><path stroke="#fff2cc" stroke-width="2.0" stroke-linejoin="round" stroke-linecap="butt" d="m103.88389 110.19569l0 -12.901695" fill-rule="evenodd"/><path fill="#000000" fill-opacity="0.0" d="m106.07806 46.303345l12.900986 0" fill-rule="evenodd"/><path stroke="#fff2cc" stroke-width="2.0" stroke-linejoin="round" stroke-linecap="butt" d="m106.07806 46.303345l12.900986 0" fill-rule="evenodd"/><path fill="#000000" fill-opacity="0.0" d="m106.07806 56.235954l12.900986 0" fill-rule="evenodd"/><path stroke="#fff2cc" stroke-width="2.0" stroke-linejoin="round" stroke-linecap="butt" d="m106.07806 56.235954l12.900986 0" fill-rule="evenodd"/><path fill="#000000" fill-opacity="0.0" d="m106.07806 66.168564l12.900986 0" fill-rule="evenodd"/><path stroke="#fff2cc" stroke-width="2.0" stroke-linejoin="round" stroke-linecap="butt" d="m106.07806 66.168564l12.900986 0" fill-rule="evenodd"/><path fill="#000000" fill-opacity="0.0" d="m106.07806 76.10117l12.900986 0" fill-rule="evenodd"/><path stroke="#fff2cc" stroke-width="2.0" stroke-linejoin="round" stroke-linecap="butt" d="m106.07806 76.10117l12.900986 0" fill-rule="evenodd"/><path fill="#000000" fill-opacity="0.0" d="m106.07806 86.03378l12.900986 0" fill-rule="evenodd"/><path stroke="#fff2cc" stroke-width="2.0" stroke-linejoin="round" stroke-linecap="butt" d="m106.07806 86.03378l12.900986 0" fill-rule="evenodd"/><path fill="#000000" fill-opacity="0.0" d="m106.07806 95.96639l12.900986 0" fill-rule="evenodd"/><path stroke="#fff2cc" stroke-width="2.0" stroke-linejoin="round" stroke-linecap="butt" d="m106.07806 95.96639l12.900986 0" fill-rule="evenodd"/><path fill="#000000" fill-opacity="0.0" d="m39.549286 46.303345l12.90099 0" fill-rule="evenodd"/><path stroke="#fff2cc" stroke-width="2.0" stroke-linejoin="round" stroke-linecap="butt" d="m39.549286 46.303345l12.90099 0" fill-rule="evenodd"/><path fill="#000000" fill-opacity="0.0" d="m39.549286 56.235954l12.90099 0" fill-rule="evenodd"/><path stroke="#fff2cc" stroke-width="2.0" stroke-linejoin="round" stroke-linecap="butt" d="m39.549286 56.235954l12.90099 0" fill-rule="evenodd"/><path fill="#000000" fill-opacity="0.0" d="m39.549286 66.168564l12.90099 0" fill-rule="evenodd"/><path stroke="#fff2cc" stroke-width="2.0" stroke-linejoin="round" stroke-linecap="butt" d="m39.549286 66.168564l12.90099 0" fill-rule="evenodd"/><path fill="#000000" fill-opacity="0.0" d="m39.549286 76.10117l12.90099 0" fill-rule="evenodd"/><path stroke="#fff2cc" stroke-width="2.0" stroke-linejoin="round" stroke-linecap="butt" d="m39.549286 76.10117l12.90099 0" fill-rule="evenodd"/><path fill="#000000" fill-opacity="0.0" d="m39.549286 86.03378l12.90099 0" fill-rule="evenodd"/><path stroke="#fff2cc" stroke-width="2.0" stroke-linejoin="round" stroke-linecap="butt" d="m39.549286 86.03378l12.90099 0" fill-rule="evenodd"/><path fill="#000000" fill-opacity="0.0" d="m39.549286 95.96639l12.90099 0" fill-rule="evenodd"/><path stroke="#fff2cc" stroke-width="2.0" stroke-linejoin="round" stroke-linecap="butt" d="m39.549286 95.96639l12.90099 0" fill-rule="evenodd"/><path fill="#000000" fill-opacity="0.0" d="m46.518707 50.148846l65.735695 0l0 43.63583l-65.735695 0z" fill-rule="evenodd"/><path fill="#000000" d="m72.44613 76.6926l-0.015625 -5.609375l-5.09375 0l0 2.046875l2.359375 0l-0.015625 2.578125q-0.109375 0.125 -0.3125 0.25q-0.203125 0.109375 -0.484375 0.1875q-0.265625 0.09375 -0.578125 0.140625q-0.3125 0.046875 -0.640625 0.046875q-0.53125 0 -0.953125 -0.15625q-0.40625 -0.171875 -0.71875 -0.484375q-0.1875 -0.1875 -0.34375 -0.421875q-0.140625 -0.25 -0.265625 -0.53125q-0.1875 -0.484375 -0.296875 -1.109375q-0.09375 -0.640625 -0.09375 -1.421875l0 -1.953125q0 -0.609375 0.078125 -1.125q0.078125 -0.53125 0.203125 -0.96875q0.1875 -0.5625 0.453125 -0.96875q0.265625 -0.40625 0.59375 -0.65625q0.265625 -0.1875 0.546875 -0.28125q0.296875 -0.109375 0.609375 -0.109375q0.578125 0 0.984375 0.15625q0.421875 0.15625 0.703125 0.453125q0.234375 0.28125 0.375 0.6875q0.140625 0.390625 0.21875 0.90625l2.671875 0q-0.109375 -1.03125 -0.453125 -1.84375q-0.34375 -0.828125 -0.96875 -1.40625q-0.609375 -0.5625 -1.5 -0.859375q-0.890625 -0.3125 -2.09375 -0.3125q-0.78125 0 -1.484375 0.21875q-0.703125 0.21875 -1.296875 0.640625q-0.515625 0.375 -0.9375038 0.890625q-0.421875 0.5 -0.75 1.125q-0.34375 0.71875 -0.53125 1.59375q-0.1875 0.875 -0.1875 1.890625l0 1.921875q0 1.078125 0.1875 1.984375q0.203125 0.90625 0.578125 1.625q0.3125 0.65625 0.78125 1.171875q0.4687538 0.5 1.0312538 0.84375q0.578125 0.34375 1.265625 0.53125q0.6875 0.1875 1.46875 0.1875q0.890625 0 1.671875 -0.171875q0.78125 -0.171875 1.421875 -0.4375q0.625 -0.265625 1.078125 -0.59375q0.46875 -0.34375 0.734375 -0.65625zm5.142578 -3.5625l2.109375 0q1.171875 0 2.109375 -0.328125q0.9375 -0.328125 1.59375 -0.921875q0.65625 -0.59375 1.015625 -1.40625q0.359375 -0.8125 0.359375 -1.765625q0 -1.03125 -0.359375 -1.859375q-0.359375 -0.84375 -1.015625 -1.453125q-0.65625 -0.59375 -1.59375 -0.921875q-0.9375 -0.34375 -2.109375 -0.34375l-4.859375 0l0 14.21875l2.75 0l0 -5.21875zm0 -2.21875l0 -4.5625l2.109375 0q0.59375 0 1.015625 0.1875q0.4375 0.1875 0.734375 0.515625q0.28125 0.3125 0.421875 0.75q0.140625 0.421875 0.140625 0.921875q0 0.4375 -0.140625 0.828125q-0.140625 0.390625 -0.421875 0.703125q-0.296875 0.296875 -0.734375 0.484375q-0.421875 0.171875 -1.015625 0.171875l-2.109375 0zm18.548828 -6.78125l-2.71875 0l-0.015625 9.421875q0 0.6875 -0.140625 1.21875q-0.140625 0.53125 -0.40625 0.875q-0.265625 0.34375 -0.65625 0.515625q-0.375 0.171875 -0.875 0.171875q-0.453125 0 -0.8125 -0.15625q-0.34375 -0.15625 -0.59375 -0.484375q-0.265625 -0.359375 -0.40625 -0.890625q-0.125 -0.53125 -0.125 -1.25l-0.015625 -9.421875l-2.75 0l0 9.421875q0 1.1875 0.328125 2.125q0.34375 0.9375 0.953125 1.5625q0.625 0.640625 1.484375 0.984375q0.859375 0.328125 1.9375 0.328125q1.140625 0 2.03125 -0.328125q0.90625 -0.34375 1.53125 -0.984375q0.609375 -0.640625 0.9375 -1.5625q0.328125 -0.9375 0.328125 -2.125l-0.015625 -9.421875z" fill-rule="nonzero"/><path fill="#ffffff" d="m58.00525 123.23905l42.519684 0l0 4.818901l-42.519684 0z" fill-rule="evenodd"/><path stroke="#000000" stroke-width="1.0" stroke-linejoin="round" stroke-linecap="butt" d="m58.00525 123.23905l42.519684 0l0 4.818901l-42.519684 0z" fill-rule="evenodd"/><path fill="#ffffff" d="m58.00525 131.23904l42.519684 0l0 4.8189087l-42.519684 0z" fill-rule="evenodd"/><path stroke="#000000" stroke-width="1.0" stroke-linejoin="round" stroke-linecap="butt" d="m58.00525 131.23904l42.519684 0l0 4.8189087l-42.519684 0z" fill-rule="evenodd"/><path fill="#ffffff" d="m58.00525 139.23904l42.519684 0l0 4.8189087l-42.519684 0z" fill-rule="evenodd"/><path stroke="#000000" stroke-width="1.0" stroke-linejoin="round" stroke-linecap="butt" d="m58.00525 139.23904l42.519684 0l0 4.8189087l-42.519684 0z" fill-rule="evenodd"/><path fill="#ffffff" d="m58.00525 147.23904l42.519684 0l0 4.8189087l-42.519684 0z" fill-rule="evenodd"/><path stroke="#000000" stroke-width="1.0" stroke-linejoin="round" stroke-linecap="butt" d="m58.00525 147.23904l42.519684 0l0 4.8189087l-42.519684 0z" fill-rule="evenodd"/><path fill="#434343" d="m150.4462 22.713911l97.63779 0l0 142.07874l-97.63779 0z" fill-rule="evenodd"/><path stroke="#000000" stroke-width="1.0" stroke-linejoin="round" stroke-linecap="butt" d="m150.4462 22.713911l97.63779 0l0 142.07874l-97.63779 0z" fill-rule="evenodd"/><defs><linearGradient id="p.2" gradientUnits="userSpaceOnUse" gradientTransform="matrix(8.10799344488093 0.0 0.0 8.10799344488093 0.0 0.0)" spreadMethod="pad" x1="20.540213136579993" y1="4.6976159358251905" x2="20.540182788381784" y2="12.805609380649326"><stop offset="0.0" stop-color="#fff6db"/><stop offset="1.0" stop-color="#fad15c"/></linearGradient></defs><path fill="url(#p.2)" d="m166.53992 38.088478l65.73569 0l0 65.73932l-65.73569 0z" fill-rule="evenodd"/><path stroke="#fff2cc" stroke-width="2.0" stroke-linejoin="round" stroke-linecap="butt" d="m166.53992 38.088478l65.73569 0l0 65.73932l-65.73569 0z" fill-rule="evenodd"/><path fill="#000000" fill-opacity="0.0" d="m174.22357 44.109055l0 -12.907982" fill-rule="evenodd"/><path stroke="#fff2cc" stroke-width="2.0" stroke-linejoin="round" stroke-linecap="butt" d="m174.22357 44.109055l0 -12.907982" fill-rule="evenodd"/><path fill="#000000" fill-opacity="0.0" d="m184.15564 44.109055l0 -12.907982" fill-rule="evenodd"/><path stroke="#fff2cc" stroke-width="2.0" stroke-linejoin="round" stroke-linecap="butt" d="m184.15564 44.109055l0 -12.907982" fill-rule="evenodd"/><path fill="#000000" fill-opacity="0.0" d="m194.0877 44.109055l0 -12.907982" fill-rule="evenodd"/><path stroke="#fff2cc" stroke-width="2.0" stroke-linejoin="round" stroke-linecap="butt" d="m194.0877 44.109055l0 -12.907982" fill-rule="evenodd"/><path fill="#000000" fill-opacity="0.0" d="m204.01976 44.109055l0 -12.907982" fill-rule="evenodd"/><path stroke="#fff2cc" stroke-width="2.0" stroke-linejoin="round" stroke-linecap="butt" d="m204.01976 44.109055l0 -12.907982" fill-rule="evenodd"/><path fill="#000000" fill-opacity="0.0" d="m213.95183 44.109055l0 -12.907982" fill-rule="evenodd"/><path stroke="#fff2cc" stroke-width="2.0" stroke-linejoin="round" stroke-linecap="butt" d="m213.95183 44.109055l0 -12.907982" fill-rule="evenodd"/><path fill="#000000" fill-opacity="0.0" d="m223.8839 44.109055l0 -12.907982" fill-rule="evenodd"/><path stroke="#fff2cc" stroke-width="2.0" stroke-linejoin="round" stroke-linecap="butt" d="m223.8839 44.109055l0 -12.907982" fill-rule="evenodd"/><path fill="#000000" fill-opacity="0.0" d="m174.22357 110.19569l0 -12.907982" fill-rule="evenodd"/><path stroke="#fff2cc" stroke-width="2.0" stroke-linejoin="round" stroke-linecap="butt" d="m174.22357 110.19569l0 -12.907982" fill-rule="evenodd"/><path fill="#000000" fill-opacity="0.0" d="m184.15564 110.19569l0 -12.907982" fill-rule="evenodd"/><path stroke="#fff2cc" stroke-width="2.0" stroke-linejoin="round" stroke-linecap="butt" d="m184.15564 110.19569l0 -12.907982" fill-rule="evenodd"/><path fill="#000000" fill-opacity="0.0" d="m194.0877 110.19569l0 -12.907982" fill-rule="evenodd"/><path stroke="#fff2cc" stroke-width="2.0" stroke-linejoin="round" stroke-linecap="butt" d="m194.0877 110.19569l0 -12.907982" fill-rule="evenodd"/><path fill="#000000" fill-opacity="0.0" d="m204.01976 110.19569l0 -12.907982" fill-rule="evenodd"/><path stroke="#fff2cc" stroke-width="2.0" stroke-linejoin="round" stroke-linecap="butt" d="m204.01976 110.19569l0 -12.907982" fill-rule="evenodd"/><path fill="#000000" fill-opacity="0.0" d="m213.95183 110.19569l0 -12.907982" fill-rule="evenodd"/><path stroke="#fff2cc" stroke-width="2.0" stroke-linejoin="round" stroke-linecap="butt" d="m213.95183 110.19569l0 -12.907982" fill-rule="evenodd"/><path fill="#000000" fill-opacity="0.0" d="m223.8839 110.19569l0 -12.907982" fill-rule="evenodd"/><path stroke="#fff2cc" stroke-width="2.0" stroke-linejoin="round" stroke-linecap="butt" d="m223.8839 110.19569l0 -12.907982" fill-rule="evenodd"/><path fill="#000000" fill-opacity="0.0" d="m226.07806 46.303345l12.907257 0" fill-rule="evenodd"/><path stroke="#fff2cc" stroke-width="2.0" stroke-linejoin="round" stroke-linecap="butt" d="m226.07806 46.303345l12.907257 0" fill-rule="evenodd"/><path fill="#000000" fill-opacity="0.0" d="m226.07806 56.235954l12.907257 0" fill-rule="evenodd"/><path stroke="#fff2cc" stroke-width="2.0" stroke-linejoin="round" stroke-linecap="butt" d="m226.07806 56.235954l12.907257 0" fill-rule="evenodd"/><path fill="#000000" fill-opacity="0.0" d="m226.07806 66.168564l12.907257 0" fill-rule="evenodd"/><path stroke="#fff2cc" stroke-width="2.0" stroke-linejoin="round" stroke-linecap="butt" d="m226.07806 66.168564l12.907257 0" fill-rule="evenodd"/><path fill="#000000" fill-opacity="0.0" d="m226.07806 76.10117l12.907257 0" fill-rule="evenodd"/><path stroke="#fff2cc" stroke-width="2.0" stroke-linejoin="round" stroke-linecap="butt" d="m226.07806 76.10117l12.907257 0" fill-rule="evenodd"/><path fill="#000000" fill-opacity="0.0" d="m226.07806 86.03378l12.907257 0" fill-rule="evenodd"/><path stroke="#fff2cc" stroke-width="2.0" stroke-linejoin="round" stroke-linecap="butt" d="m226.07806 86.03378l12.907257 0" fill-rule="evenodd"/><path fill="#000000" fill-opacity="0.0" d="m226.07806 95.96639l12.907257 0" fill-rule="evenodd"/><path stroke="#fff2cc" stroke-width="2.0" stroke-linejoin="round" stroke-linecap="butt" d="m226.07806 95.96639l12.907257 0" fill-rule="evenodd"/><path fill="#000000" fill-opacity="0.0" d="m159.54929 46.303345l12.907272 0" fill-rule="evenodd"/><path stroke="#fff2cc" stroke-width="2.0" stroke-linejoin="round" stroke-linecap="butt" d="m159.54929 46.303345l12.907272 0" fill-rule="evenodd"/><path fill="#000000" fill-opacity="0.0" d="m159.54929 56.235954l12.907272 0" fill-rule="evenodd"/><path stroke="#fff2cc" stroke-width="2.0" stroke-linejoin="round" stroke-linecap="butt" d="m159.54929 56.235954l12.907272 0" fill-rule="evenodd"/><path fill="#000000" fill-opacity="0.0" d="m159.54929 66.168564l12.907272 0" fill-rule="evenodd"/><path stroke="#fff2cc" stroke-width="2.0" stroke-linejoin="round" stroke-linecap="butt" d="m159.54929 66.168564l12.907272 0" fill-rule="evenodd"/><path fill="#000000" fill-opacity="0.0" d="m159.54929 76.10117l12.907272 0" fill-rule="evenodd"/><path stroke="#fff2cc" stroke-width="2.0" stroke-linejoin="round" stroke-linecap="butt" d="m159.54929 76.10117l12.907272 0" fill-rule="evenodd"/><path fill="#000000" fill-opacity="0.0" d="m159.54929 86.03378l12.907272 0" fill-rule="evenodd"/><path stroke="#fff2cc" stroke-width="2.0" stroke-linejoin="round" stroke-linecap="butt" d="m159.54929 86.03378l12.907272 0" fill-rule="evenodd"/><path fill="#000000" fill-opacity="0.0" d="m159.54929 95.96639l12.907272 0" fill-rule="evenodd"/><path stroke="#fff2cc" stroke-width="2.0" stroke-linejoin="round" stroke-linecap="butt" d="m159.54929 95.96639l12.907272 0" fill-rule="evenodd"/><path fill="#000000" fill-opacity="0.0" d="m166.5187 50.148846l65.7357 0l0 43.63583l-65.7357 0z" fill-rule="evenodd"/><path fill="#000000" d="m192.44612 76.6926l-0.015625 -5.609375l-5.09375 0l0 2.046875l2.359375 0l-0.015625 2.578125q-0.109375 0.125 -0.3125 0.25q-0.203125 0.109375 -0.484375 0.1875q-0.265625 0.09375 -0.578125 0.140625q-0.3125 0.046875 -0.640625 0.046875q-0.53125 0 -0.953125 -0.15625q-0.40625 -0.171875 -0.71875 -0.484375q-0.1875 -0.1875 -0.34375 -0.421875q-0.140625 -0.25 -0.265625 -0.53125q-0.1875 -0.484375 -0.296875 -1.109375q-0.09375 -0.640625 -0.09375 -1.421875l0 -1.953125q0 -0.609375 0.078125 -1.125q0.078125 -0.53125 0.203125 -0.96875q0.1875 -0.5625 0.453125 -0.96875q0.265625 -0.40625 0.59375 -0.65625q0.265625 -0.1875 0.546875 -0.28125q0.296875 -0.109375 0.609375 -0.109375q0.578125 0 0.984375 0.15625q0.421875 0.15625 0.703125 0.453125q0.234375 0.28125 0.375 0.6875q0.140625 0.390625 0.21875 0.90625l2.671875 0q-0.109375 -1.03125 -0.453125 -1.84375q-0.34375 -0.828125 -0.96875 -1.40625q-0.609375 -0.5625 -1.5 -0.859375q-0.890625 -0.3125 -2.09375 -0.3125q-0.78125 0 -1.484375 0.21875q-0.703125 0.21875 -1.296875 0.640625q-0.515625 0.375 -0.9375 0.890625q-0.421875 0.5 -0.75 1.125q-0.34375 0.71875 -0.53125 1.59375q-0.1875 0.875 -0.1875 1.890625l0 1.921875q0 1.078125 0.1875 1.984375q0.203125 0.90625 0.578125 1.625q0.3125 0.65625 0.78125 1.171875q0.46875 0.5 1.03125 0.84375q0.578125 0.34375 1.265625 0.53125q0.6875 0.1875 1.46875 0.1875q0.890625 0 1.671875 -0.171875q0.78125 -0.171875 1.421875 -0.4375q0.625 -0.265625 1.078125 -0.59375q0.46875 -0.34375 0.734375 -0.65625zm5.142578 -3.5625l2.109375 0q1.171875 0 2.109375 -0.328125q0.9375 -0.328125 1.59375 -0.921875q0.65625 -0.59375 1.015625 -1.40625q0.359375 -0.8125 0.359375 -1.765625q0 -1.03125 -0.359375 -1.859375q-0.359375 -0.84375 -1.015625 -1.453125q-0.65625 -0.59375 -1.59375 -0.921875q-0.9375 -0.34375 -2.109375 -0.34375l-4.859375 0l0 14.21875l2.75 0l0 -5.21875zm0 -2.21875l0 -4.5625l2.109375 0q0.59375 0 1.015625 0.1875q0.4375 0.1875 0.734375 0.515625q0.28125 0.3125 0.421875 0.75q0.140625 0.421875 0.140625 0.921875q0 0.4375 -0.140625 0.828125q-0.140625 0.390625 -0.421875 0.703125q-0.296875 0.296875 -0.734375 0.484375q-0.421875 0.171875 -1.015625 0.171875l-2.109375 0zm18.548828 -6.78125l-2.71875 0l-0.015625 9.421875q0 0.6875 -0.140625 1.21875q-0.140625 0.53125 -0.40625 0.875q-0.265625 0.34375 -0.65625 0.515625q-0.375 0.171875 -0.875 0.171875q-0.453125 0 -0.8125 -0.15625q-0.34375 -0.15625 -0.59375 -0.484375q-0.265625 -0.359375 -0.40625 -0.890625q-0.125 -0.53125 -0.125 -1.25l-0.015625 -9.421875l-2.75 0l0 9.421875q0 1.1875 0.328125 2.125q0.34375 0.9375 0.953125 1.5625q0.625 0.640625 1.484375 0.984375q0.859375 0.328125 1.9375 0.328125q1.140625 0 2.03125 -0.328125q0.90625 -0.34375 1.53125 -0.984375q0.609375 -0.640625 0.9375 -1.5625q0.328125 -0.9375 0.328125 -2.125l-0.015625 -9.421875z" fill-rule="nonzero"/><path fill="#ffffff" d="m178.00525 123.23905l42.519684 0l0 4.818901l-42.519684 0z" fill-rule="evenodd"/><path stroke="#000000" stroke-width="1.0" stroke-linejoin="round" stroke-linecap="butt" d="m178.00525 123.23905l42.519684 0l0 4.818901l-42.519684 0z" fill-rule="evenodd"/><path fill="#ffffff" d="m178.00525 131.23904l42.519684 0l0 4.8189087l-42.519684 0z" fill-rule="evenodd"/><path stroke="#000000" stroke-width="1.0" stroke-linejoin="round" stroke-linecap="butt" d="m178.00525 131.23904l42.519684 0l0 4.8189087l-42.519684 0z" fill-rule="evenodd"/><path fill="#ffffff" d="m178.00525 139.23904l42.519684 0l0 4.8189087l-42.519684 0z" fill-rule="evenodd"/><path stroke="#000000" stroke-width="1.0" stroke-linejoin="round" stroke-linecap="butt" d="m178.00525 139.23904l42.519684 0l0 4.8189087l-42.519684 0z" fill-rule="evenodd"/><path fill="#ffffff" d="m178.00525 147.23904l42.519684 0l0 4.8189087l-42.519684 0z" fill-rule="evenodd"/><path stroke="#000000" stroke-width="1.0" stroke-linejoin="round" stroke-linecap="butt" d="m178.00525 147.23904l42.519684 0l0 4.8189087l-42.519684 0z" fill-rule="evenodd"/><path fill="#434343" d="m270.4462 22.713911l97.63779 0l0 142.07874l-97.63779 0z" fill-rule="evenodd"/><path stroke="#000000" stroke-width="1.0" stroke-linejoin="round" stroke-linecap="butt" d="m270.4462 22.713911l97.63779 0l0 142.07874l-97.63779 0z" fill-rule="evenodd"/><defs><linearGradient id="p.3" gradientUnits="userSpaceOnUse" gradientTransform="matrix(8.107993444876396 0.0 0.0 8.107993444876396 0.0 0.0)" spreadMethod="pad" x1="35.34042117366207" y1="4.697615935827818" x2="35.34039335448038" y2="12.805609380656488"><stop offset="0.0" stop-color="#fff6db"/><stop offset="1.0" stop-color="#fad15c"/></linearGradient></defs><path fill="url(#p.3)" d="m286.53992 38.088478l65.73569 0l0 65.73932l-65.73569 0z" fill-rule="evenodd"/><path stroke="#fff2cc" stroke-width="2.0" stroke-linejoin="round" stroke-linecap="butt" d="m286.53992 38.088478l65.73569 0l0 65.73932l-65.73569 0z" fill-rule="evenodd"/><path fill="#000000" fill-opacity="0.0" d="m294.22357 44.109055l0 -12.907982" fill-rule="evenodd"/><path stroke="#fff2cc" stroke-width="2.0" stroke-linejoin="round" stroke-linecap="butt" d="m294.22357 44.109055l0 -12.907982" fill-rule="evenodd"/><path fill="#000000" fill-opacity="0.0" d="m304.15564 44.109055l0 -12.907982" fill-rule="evenodd"/><path stroke="#fff2cc" stroke-width="2.0" stroke-linejoin="round" stroke-linecap="butt" d="m304.15564 44.109055l0 -12.907982" fill-rule="evenodd"/><path fill="#000000" fill-opacity="0.0" d="m314.0877 44.109055l0 -12.907982" fill-rule="evenodd"/><path stroke="#fff2cc" stroke-width="2.0" stroke-linejoin="round" stroke-linecap="butt" d="m314.0877 44.109055l0 -12.907982" fill-rule="evenodd"/><path fill="#000000" fill-opacity="0.0" d="m324.01978 44.109055l0 -12.907982" fill-rule="evenodd"/><path stroke="#fff2cc" stroke-width="2.0" stroke-linejoin="round" stroke-linecap="butt" d="m324.01978 44.109055l0 -12.907982" fill-rule="evenodd"/><path fill="#000000" fill-opacity="0.0" d="m333.9518 44.109055l0 -12.907982" fill-rule="evenodd"/><path stroke="#fff2cc" stroke-width="2.0" stroke-linejoin="round" stroke-linecap="butt" d="m333.9518 44.109055l0 -12.907982" fill-rule="evenodd"/><path fill="#000000" fill-opacity="0.0" d="m343.88388 44.109055l0 -12.907982" fill-rule="evenodd"/><path stroke="#fff2cc" stroke-width="2.0" stroke-linejoin="round" stroke-linecap="butt" d="m343.88388 44.109055l0 -12.907982" fill-rule="evenodd"/><path fill="#000000" fill-opacity="0.0" d="m294.22357 110.19569l0 -12.907982" fill-rule="evenodd"/><path stroke="#fff2cc" stroke-width="2.0" stroke-linejoin="round" stroke-linecap="butt" d="m294.22357 110.19569l0 -12.907982" fill-rule="evenodd"/><path fill="#000000" fill-opacity="0.0" d="m304.15564 110.19569l0 -12.907982" fill-rule="evenodd"/><path stroke="#fff2cc" stroke-width="2.0" stroke-linejoin="round" stroke-linecap="butt" d="m304.15564 110.19569l0 -12.907982" fill-rule="evenodd"/><path fill="#000000" fill-opacity="0.0" d="m314.0877 110.19569l0 -12.907982" fill-rule="evenodd"/><path stroke="#fff2cc" stroke-width="2.0" stroke-linejoin="round" stroke-linecap="butt" d="m314.0877 110.19569l0 -12.907982" fill-rule="evenodd"/><path fill="#000000" fill-opacity="0.0" d="m324.01978 110.19569l0 -12.907982" fill-rule="evenodd"/><path stroke="#fff2cc" stroke-width="2.0" stroke-linejoin="round" stroke-linecap="butt" d="m324.01978 110.19569l0 -12.907982" fill-rule="evenodd"/><path fill="#000000" fill-opacity="0.0" d="m333.9518 110.19569l0 -12.907982" fill-rule="evenodd"/><path stroke="#fff2cc" stroke-width="2.0" stroke-linejoin="round" stroke-linecap="butt" d="m333.9518 110.19569l0 -12.907982" fill-rule="evenodd"/><path fill="#000000" fill-opacity="0.0" d="m343.88388 110.19569l0 -12.907982" fill-rule="evenodd"/><path stroke="#fff2cc" stroke-width="2.0" stroke-linejoin="round" stroke-linecap="butt" d="m343.88388 110.19569l0 -12.907982" fill-rule="evenodd"/><path fill="#000000" fill-opacity="0.0" d="m346.07806 46.303345l12.907257 0" fill-rule="evenodd"/><path stroke="#fff2cc" stroke-width="2.0" stroke-linejoin="round" stroke-linecap="butt" d="m346.07806 46.303345l12.907257 0" fill-rule="evenodd"/><path fill="#000000" fill-opacity="0.0" d="m346.07806 56.235954l12.907257 0" fill-rule="evenodd"/><path stroke="#fff2cc" stroke-width="2.0" stroke-linejoin="round" stroke-linecap="butt" d="m346.07806 56.235954l12.907257 0" fill-rule="evenodd"/><path fill="#000000" fill-opacity="0.0" d="m346.07806 66.168564l12.907257 0" fill-rule="evenodd"/><path stroke="#fff2cc" stroke-width="2.0" stroke-linejoin="round" stroke-linecap="butt" d="m346.07806 66.168564l12.907257 0" fill-rule="evenodd"/><path fill="#000000" fill-opacity="0.0" d="m346.07806 76.10117l12.907257 0" fill-rule="evenodd"/><path stroke="#fff2cc" stroke-width="2.0" stroke-linejoin="round" stroke-linecap="butt" d="m346.07806 76.10117l12.907257 0" fill-rule="evenodd"/><path fill="#000000" fill-opacity="0.0" d="m346.07806 86.03378l12.907257 0" fill-rule="evenodd"/><path stroke="#fff2cc" stroke-width="2.0" stroke-linejoin="round" stroke-linecap="butt" d="m346.07806 86.03378l12.907257 0" fill-rule="evenodd"/><path fill="#000000" fill-opacity="0.0" d="m346.07806 95.96639l12.907257 0" fill-rule="evenodd"/><path stroke="#fff2cc" stroke-width="2.0" stroke-linejoin="round" stroke-linecap="butt" d="m346.07806 95.96639l12.907257 0" fill-rule="evenodd"/><path fill="#000000" fill-opacity="0.0" d="m279.5493 46.303345l12.907257 0" fill-rule="evenodd"/><path stroke="#fff2cc" stroke-width="2.0" stroke-linejoin="round" stroke-linecap="butt" d="m279.5493 46.303345l12.907257 0" fill-rule="evenodd"/><path fill="#000000" fill-opacity="0.0" d="m279.5493 56.235954l12.907257 0" fill-rule="evenodd"/><path stroke="#fff2cc" stroke-width="2.0" stroke-linejoin="round" stroke-linecap="butt" d="m279.5493 56.235954l12.907257 0" fill-rule="evenodd"/><path fill="#000000" fill-opacity="0.0" d="m279.5493 66.168564l12.907257 0" fill-rule="evenodd"/><path stroke="#fff2cc" stroke-width="2.0" stroke-linejoin="round" stroke-linecap="butt" d="m279.5493 66.168564l12.907257 0" fill-rule="evenodd"/><path fill="#000000" fill-opacity="0.0" d="m279.5493 76.10117l12.907257 0" fill-rule="evenodd"/><path stroke="#fff2cc" stroke-width="2.0" stroke-linejoin="round" stroke-linecap="butt" d="m279.5493 76.10117l12.907257 0" fill-rule="evenodd"/><path fill="#000000" fill-opacity="0.0" d="m279.5493 86.03378l12.907257 0" fill-rule="evenodd"/><path stroke="#fff2cc" stroke-width="2.0" stroke-linejoin="round" stroke-linecap="butt" d="m279.5493 86.03378l12.907257 0" fill-rule="evenodd"/><path fill="#000000" fill-opacity="0.0" d="m279.5493 95.96639l12.907257 0" fill-rule="evenodd"/><path stroke="#fff2cc" stroke-width="2.0" stroke-linejoin="round" stroke-linecap="butt" d="m279.5493 95.96639l12.907257 0" fill-rule="evenodd"/><path fill="#000000" fill-opacity="0.0" d="m286.5187 50.148846l65.73569 0l0 43.63583l-65.73569 0z" fill-rule="evenodd"/><path fill="#000000" d="m312.44614 76.6926l-0.015625 -5.609375l-5.09375 0l0 2.046875l2.359375 0l-0.015625 2.578125q-0.109375 0.125 -0.3125 0.25q-0.203125 0.109375 -0.484375 0.1875q-0.265625 0.09375 -0.578125 0.140625q-0.3125 0.046875 -0.640625 0.046875q-0.53125 0 -0.953125 -0.15625q-0.40625 -0.171875 -0.71875 -0.484375q-0.1875 -0.1875 -0.34375 -0.421875q-0.140625 -0.25 -0.265625 -0.53125q-0.1875 -0.484375 -0.296875 -1.109375q-0.09375 -0.640625 -0.09375 -1.421875l0 -1.953125q0 -0.609375 0.078125 -1.125q0.078125 -0.53125 0.203125 -0.96875q0.1875 -0.5625 0.453125 -0.96875q0.265625 -0.40625 0.59375 -0.65625q0.265625 -0.1875 0.546875 -0.28125q0.296875 -0.109375 0.609375 -0.109375q0.578125 0 0.984375 0.15625q0.421875 0.15625 0.703125 0.453125q0.234375 0.28125 0.375 0.6875q0.140625 0.390625 0.21875 0.90625l2.671875 0q-0.109375 -1.03125 -0.453125 -1.84375q-0.34375 -0.828125 -0.96875 -1.40625q-0.609375 -0.5625 -1.5 -0.859375q-0.890625 -0.3125 -2.09375 -0.3125q-0.78125 0 -1.484375 0.21875q-0.703125 0.21875 -1.296875 0.640625q-0.515625 0.375 -0.9375 0.890625q-0.421875 0.5 -0.75 1.125q-0.34375 0.71875 -0.53125 1.59375q-0.1875 0.875 -0.1875 1.890625l0 1.921875q0 1.078125 0.1875 1.984375q0.203125 0.90625 0.578125 1.625q0.3125 0.65625 0.78125 1.171875q0.46875 0.5 1.03125 0.84375q0.578125 0.34375 1.265625 0.53125q0.6875 0.1875 1.46875 0.1875q0.890625 0 1.671875 -0.171875q0.78125 -0.171875 1.421875 -0.4375q0.625 -0.265625 1.078125 -0.59375q0.46875 -0.34375 0.734375 -0.65625zm5.142578 -3.5625l2.109375 0q1.171875 0 2.109375 -0.328125q0.9375 -0.328125 1.59375 -0.921875q0.65625 -0.59375 1.015625 -1.40625q0.359375 -0.8125 0.359375 -1.765625q0 -1.03125 -0.359375 -1.859375q-0.359375 -0.84375 -1.015625 -1.453125q-0.65625 -0.59375 -1.59375 -0.921875q-0.9375 -0.34375 -2.109375 -0.34375l-4.859375 0l0 14.21875l2.75 0l0 -5.21875zm0 -2.21875l0 -4.5625l2.109375 0q0.59375 0 1.015625 0.1875q0.4375 0.1875 0.734375 0.515625q0.28125 0.3125 0.421875 0.75q0.140625 0.421875 0.140625 0.921875q0 0.4375 -0.140625 0.828125q-0.140625 0.390625 -0.421875 0.703125q-0.296875 0.296875 -0.734375 0.484375q-0.421875 0.171875 -1.015625 0.171875l-2.109375 0zm18.548828 -6.78125l-2.71875 0l-0.015625 9.421875q0 0.6875 -0.140625 1.21875q-0.140625 0.53125 -0.40625 0.875q-0.265625 0.34375 -0.65625 0.515625q-0.375 0.171875 -0.875 0.171875q-0.453125 0 -0.8125 -0.15625q-0.34375 -0.15625 -0.59375 -0.484375q-0.265625 -0.359375 -0.40625 -0.890625q-0.125 -0.53125 -0.125 -1.25l-0.015625 -9.421875l-2.75 0l0 9.421875q0 1.1875 0.328125 2.125q0.34375 0.9375 0.953125 1.5625q0.625 0.640625 1.484375 0.984375q0.859375 0.328125 1.9375 0.328125q1.140625 0 2.03125 -0.328125q0.90625 -0.34375 1.53125 -0.984375q0.609375 -0.640625 0.9375 -1.5625q0.328125 -0.9375 0.328125 -2.125l-0.015625 -9.421875z" fill-rule="nonzero"/><path fill="#ffffff" d="m298.00525 123.23905l42.519684 0l0 4.818901l-42.519684 0z" fill-rule="evenodd"/><path stroke="#000000" stroke-width="1.0" stroke-linejoin="round" stroke-linecap="butt" d="m298.00525 123.23905l42.519684 0l0 4.818901l-42.519684 0z" fill-rule="evenodd"/><path fill="#ffffff" d="m298.00525 131.23904l42.519684 0l0 4.8189087l-42.519684 0z" fill-rule="evenodd"/><path stroke="#000000" stroke-width="1.0" stroke-linejoin="round" stroke-linecap="butt" d="m298.00525 131.23904l42.519684 0l0 4.8189087l-42.519684 0z" fill-rule="evenodd"/><path fill="#ffffff" d="m298.00525 139.23904l42.519684 0l0 4.8189087l-42.519684 0z" fill-rule="evenodd"/><path stroke="#000000" stroke-width="1.0" stroke-linejoin="round" stroke-linecap="butt" d="m298.00525 139.23904l42.519684 0l0 4.8189087l-42.519684 0z" fill-rule="evenodd"/><path fill="#ffffff" d="m298.00525 147.23904l42.519684 0l0 4.8189087l-42.519684 0z" fill-rule="evenodd"/><path stroke="#000000" stroke-width="1.0" stroke-linejoin="round" stroke-linecap="butt" d="m298.00525 147.23904l42.519684 0l0 4.8189087l-42.519684 0z" fill-rule="evenodd"/></g></svg>
