<svg version="1.1" viewBox="0.0 0.0 517.6666666666666 341.1994750656168" fill="none" stroke="none" stroke-linecap="square" stroke-miterlimit="10" xmlns:xlink="http://www.w3.org/1999/xlink" xmlns="http://www.w3.org/2000/svg"><clipPath id="p.0"><path d="m0 0l517.6667 0l0 341.19946l-517.6667 0l0 -341.19946z" clip-rule="nonzero"/></clipPath><g clip-path="url(#p.0)"><path fill="#000000" fill-opacity="0.0" d="m0 0l517.6667 0l0 341.19946l-517.6667 0z" fill-rule="evenodd"/><path fill="#000000" fill-opacity="0.0" d="m4.418263 4.950642l433.94638 0l74.998505 74.99848l0 256.3401l-508.9449 0z" fill-rule="evenodd"/><path stroke="#bf9000" stroke-width="8.0" stroke-linejoin="round" stroke-linecap="butt" d="m4.418263 4.950642l433.94638 0l74.998505 74.99848l0 256.3401l-508.9449 0z" fill-rule="evenodd"/><path fill="#000000" fill-opacity="0.0" d="m0.64467824 192.55376l508.9449 0l0 126.04726l-508.9449 0z" fill-rule="evenodd"/><path fill="#7f6000" d="m45.437435 240.39313l11.125 0l0 6.234375q5.96875 -7.265625 14.218746 -7.265625q4.390625 0 7.609375 1.8125q3.21875 1.796875 5.28125 5.453125q3.015625 -3.65625 6.484375 -5.453125q3.484375 -1.8125 7.4375 -1.8125q5.03125 0 8.5 2.046875q3.484375 2.046875 5.203125 6.0q1.25 2.921875 1.25 9.453125l0 29.171875l-12.078125 0l0 -26.078125q0 -6.796875 -1.234375 -8.765625q-1.6875 -2.578125 -5.15625 -2.578125q-2.546875 0 -4.78125 1.546875q-2.234375 1.546875 -3.21875 4.53125q-0.984375 2.984375 -0.984375 9.421875l0 21.921875l-12.078125 0l0 -25.015625q0 -6.65625 -0.640625 -8.578125q-0.640625 -1.9375 -2.0 -2.875q-1.359375 -0.953125 -3.671875 -0.953125q-2.7968712 0 -5.031246 1.5q-2.234375 1.5 -3.203125 4.34375q-0.96875 2.828125 -0.96875 9.40625l0 22.171875l-12.0625 0l0 -45.640625zm109.18359 45.640625l0 -6.828125q-2.5 3.640625 -6.5625 5.75q-4.0625 2.109375 -8.5625 2.109375q-4.609375 0 -8.265625 -2.015625q-3.6406326 -2.03125 -5.2812576 -5.671875q-1.625 -3.65625 -1.625 -10.109375l0 -28.875l12.078133 0l0 20.96875q0 9.625 0.65625 11.796875q0.671875 2.171875 2.421875 3.4375q1.765625 1.265625 4.484375 1.265625q3.09375 0 5.53125 -1.6875q2.453125 -1.703125 3.359375 -4.21875q0.90625 -2.515625 0.90625 -12.3125l0 -19.25l12.0625 0l0 45.640625l-11.203125 0zm23.707031 0l0 -63.0l12.078125 0l0 63.0l-12.078125 0zm45.38672 -45.640625l0 9.625l-8.25 0l0 18.390625q0 5.59375 0.234375 6.515625q0.234375 0.921875 1.0625 1.53125q0.84375 0.59375 2.046875 0.59375q1.671875 0 4.859375 -1.15625l1.03125 9.359375q-4.21875 1.8125 -9.546875 1.8125q-3.265625 0 -5.890625 -1.09375q-2.609375 -1.09375 -3.84375 -2.828125q-1.21875 -1.75 -1.6875 -4.71875q-0.390625 -2.109375 -0.390625 -8.5l0 -19.90625l-5.546875 0l0 -9.625l5.546875 0l0 -9.0625l12.125 -7.046875l0 16.109375l8.25 0zm8.3671875 -6.1875l0 -11.171875l12.078125 0l0 11.171875l-12.078125 0zm0 51.828125l0 -45.640625l12.078125 0l0 45.640625l-12.078125 0zm23.089844 -16.796875l0 -12.078125l23.71875 0l0 12.078125l-23.71875 0zm60.054688 -6.359375l0 -10.625l27.421875 0l0 25.09375q-4.0 3.875 -11.59375 6.828125q-7.578125 2.9375 -15.34375 2.9375q-9.890625 0 -17.234375 -4.140625q-7.34375 -4.15625 -11.046875 -11.859375q-3.6875 -7.71875 -3.6875 -16.796875q0 -9.828125 4.125 -17.46875q4.125 -7.65625 12.0625 -11.75q6.0625 -3.125 15.09375 -3.125q11.71875 0 18.3125 4.921875q6.609375 4.90625 8.5 13.59375l-12.640625 2.359375q-1.328125 -4.640625 -5.0 -7.328125q-3.671875 -2.6875 -9.171875 -2.6875q-8.34375 0 -13.265625 5.296875q-4.921875 5.28125 -4.921875 15.671875q0 11.21875 4.984375 16.828125q4.984375 5.609375 13.0625 5.609375q4.0 0 8.015625 -1.5625q4.015625 -1.578125 6.90625 -3.8125l0 -7.984375l-14.578125 0zm39.152344 23.15625l0 -63.0l20.40625 0q11.609375 0 15.125 0.953125q5.421875 1.421875 9.0625 6.171875q3.65625 4.734375 3.65625 12.265625q0 5.796875 -2.109375 9.75q-2.09375 3.953125 -5.34375 6.21875q-3.25 2.25 -6.59375 2.96875q-4.5625 0.90625 -13.1875 0.90625l-8.296875 0l0 23.765625l-12.71875 0zm12.71875 -52.34375l0 17.875l6.953125 0q7.53125 0 10.0625 -0.984375q2.53125 -0.984375 3.96875 -3.09375q1.4375 -2.109375 1.4375 -4.890625q0 -3.4375 -2.015625 -5.671875q-2.015625 -2.234375 -5.109375 -2.796875q-2.28125 -0.4375 -9.15625 -0.4375l-6.140625 0zm45.882812 -10.65625l12.71875 0l0 34.125q0 8.125 0.484375 10.53125q0.8125 3.859375 3.875 6.203125q3.078125 2.34375 8.40625 2.34375q5.421875 0 8.171875 -2.203125q2.75 -2.21875 3.296875 -5.4375q0.5625 -3.234375 0.5625 -10.703125l0 -34.859375l12.71875 0l0 33.09375q0 11.34375 -1.03125 16.03125q-1.03125 4.671875 -3.8125 7.90625q-2.765625 3.21875 -7.40625 5.140625q-4.640625 1.90625 -12.109375 1.90625q-9.03125 0 -13.6875 -2.078125q-4.65625 -2.09375 -7.375 -5.421875q-2.703125 -3.328125 -3.5625 -6.984375q-1.25 -5.421875 -1.25 -15.984375l0 -33.609375z" fill-rule="nonzero"/><defs><linearGradient id="p.1" gradientUnits="userSpaceOnUse" gradientTransform="matrix(10.657397751126096 0.0 0.0 10.657397751126096 0.0 0.0)" spreadMethod="pad" x1="4.077656824466359" y1="3.8625225636912277" x2="4.077618343685549" y2="14.519920314747853"><stop offset="0.0" stop-color="#fff6db"/><stop offset="1.0" stop-color="#fad15c"/></linearGradient></defs><path fill="url(#p.1)" d="m43.45721 41.164852l113.57608 0l0 113.57971l-113.57608 0z" fill-rule="evenodd"/><path stroke="#000000" stroke-width="2.0" stroke-linejoin="round" stroke-linecap="butt" d="m43.45721 41.164852l113.57608 0l0 113.57971l-113.57608 0z" fill-rule="evenodd"/><path fill="#000000" fill-opacity="0.0" d="m56.73677 51.569885l0 -22.297298" fill-rule="evenodd"/><path stroke="#000000" stroke-width="2.0" stroke-linejoin="round" stroke-linecap="butt" d="m56.73677 51.569885l0 -22.297298" fill-rule="evenodd"/><path fill="#000000" fill-opacity="0.0" d="m73.90221 51.569885l0 -22.297298" fill-rule="evenodd"/><path stroke="#000000" stroke-width="2.0" stroke-linejoin="round" stroke-linecap="butt" d="m73.90221 51.569885l0 -22.297298" fill-rule="evenodd"/><path fill="#000000" fill-opacity="0.0" d="m91.06765 51.569885l0 -22.297298" fill-rule="evenodd"/><path stroke="#000000" stroke-width="2.0" stroke-linejoin="round" stroke-linecap="butt" d="m91.06765 51.569885l0 -22.297298" fill-rule="evenodd"/><path fill="#000000" fill-opacity="0.0" d="m108.23309 51.569885l0 -22.297298" fill-rule="evenodd"/><path stroke="#000000" stroke-width="2.0" stroke-linejoin="round" stroke-linecap="butt" d="m108.23309 51.569885l0 -22.297298" fill-rule="evenodd"/><path fill="#000000" fill-opacity="0.0" d="m125.39853 51.569885l0 -22.297298" fill-rule="evenodd"/><path stroke="#000000" stroke-width="2.0" stroke-linejoin="round" stroke-linecap="butt" d="m125.39853 51.569885l0 -22.297298" fill-rule="evenodd"/><path fill="#000000" fill-opacity="0.0" d="m142.56396 51.569885l0 -22.297298" fill-rule="evenodd"/><path stroke="#000000" stroke-width="2.0" stroke-linejoin="round" stroke-linecap="butt" d="m142.56396 51.569885l0 -22.297298" fill-rule="evenodd"/><path fill="#000000" fill-opacity="0.0" d="m56.73677 165.7838l0 -22.297302" fill-rule="evenodd"/><path stroke="#000000" stroke-width="2.0" stroke-linejoin="round" stroke-linecap="butt" d="m56.73677 165.7838l0 -22.297302" fill-rule="evenodd"/><path fill="#000000" fill-opacity="0.0" d="m73.90221 165.7838l0 -22.297302" fill-rule="evenodd"/><path stroke="#000000" stroke-width="2.0" stroke-linejoin="round" stroke-linecap="butt" d="m73.90221 165.7838l0 -22.297302" fill-rule="evenodd"/><path fill="#000000" fill-opacity="0.0" d="m91.06765 165.7838l0 -22.297302" fill-rule="evenodd"/><path stroke="#000000" stroke-width="2.0" stroke-linejoin="round" stroke-linecap="butt" d="m91.06765 165.7838l0 -22.297302" fill-rule="evenodd"/><path fill="#000000" fill-opacity="0.0" d="m108.23309 165.7838l0 -22.297302" fill-rule="evenodd"/><path stroke="#000000" stroke-width="2.0" stroke-linejoin="round" stroke-linecap="butt" d="m108.23309 165.7838l0 -22.297302" fill-rule="evenodd"/><path fill="#000000" fill-opacity="0.0" d="m125.39853 165.7838l0 -22.297302" fill-rule="evenodd"/><path stroke="#000000" stroke-width="2.0" stroke-linejoin="round" stroke-linecap="butt" d="m125.39853 165.7838l0 -22.297302" fill-rule="evenodd"/><path fill="#000000" fill-opacity="0.0" d="m142.56396 165.7838l0 -22.297302" fill-rule="evenodd"/><path stroke="#000000" stroke-width="2.0" stroke-linejoin="round" stroke-linecap="butt" d="m142.56396 165.7838l0 -22.297302" fill-rule="evenodd"/><path fill="#000000" fill-opacity="0.0" d="m146.35612 55.362156l22.296585 0" fill-rule="evenodd"/><path stroke="#000000" stroke-width="2.0" stroke-linejoin="round" stroke-linecap="butt" d="m146.35612 55.362156l22.296585 0" fill-rule="evenodd"/><path fill="#000000" fill-opacity="0.0" d="m146.35612 72.528145l22.296585 0" fill-rule="evenodd"/><path stroke="#000000" stroke-width="2.0" stroke-linejoin="round" stroke-linecap="butt" d="m146.35612 72.528145l22.296585 0" fill-rule="evenodd"/><path fill="#000000" fill-opacity="0.0" d="m146.35612 89.69413l22.296585 0" fill-rule="evenodd"/><path stroke="#000000" stroke-width="2.0" stroke-linejoin="round" stroke-linecap="butt" d="m146.35612 89.69413l22.296585 0" fill-rule="evenodd"/><path fill="#000000" fill-opacity="0.0" d="m146.35612 106.860115l22.296585 0" fill-rule="evenodd"/><path stroke="#000000" stroke-width="2.0" stroke-linejoin="round" stroke-linecap="butt" d="m146.35612 106.860115l22.296585 0" fill-rule="evenodd"/><path fill="#000000" fill-opacity="0.0" d="m146.35612 124.02611l22.296585 0" fill-rule="evenodd"/><path stroke="#000000" stroke-width="2.0" stroke-linejoin="round" stroke-linecap="butt" d="m146.35612 124.02611l22.296585 0" fill-rule="evenodd"/><path fill="#000000" fill-opacity="0.0" d="m146.35612 141.1921l22.296585 0" fill-rule="evenodd"/><path stroke="#000000" stroke-width="2.0" stroke-linejoin="round" stroke-linecap="butt" d="m146.35612 141.1921l22.296585 0" fill-rule="evenodd"/><path fill="#000000" fill-opacity="0.0" d="m31.375412 55.362156l22.296589 0" fill-rule="evenodd"/><path stroke="#000000" stroke-width="2.0" stroke-linejoin="round" stroke-linecap="butt" d="m31.375412 55.362156l22.296589 0" fill-rule="evenodd"/><path fill="#000000" fill-opacity="0.0" d="m31.375412 72.528145l22.296589 0" fill-rule="evenodd"/><path stroke="#000000" stroke-width="2.0" stroke-linejoin="round" stroke-linecap="butt" d="m31.375412 72.528145l22.296589 0" fill-rule="evenodd"/><path fill="#000000" fill-opacity="0.0" d="m31.375412 89.69413l22.296589 0" fill-rule="evenodd"/><path stroke="#000000" stroke-width="2.0" stroke-linejoin="round" stroke-linecap="butt" d="m31.375412 89.69413l22.296589 0" fill-rule="evenodd"/><path fill="#000000" fill-opacity="0.0" d="m31.375412 106.860115l22.296589 0" fill-rule="evenodd"/><path stroke="#000000" stroke-width="2.0" stroke-linejoin="round" stroke-linecap="butt" d="m31.375412 106.860115l22.296589 0" fill-rule="evenodd"/><path fill="#000000" fill-opacity="0.0" d="m31.375412 124.02611l22.296589 0" fill-rule="evenodd"/><path stroke="#000000" stroke-width="2.0" stroke-linejoin="round" stroke-linecap="butt" d="m31.375412 124.02611l22.296589 0" fill-rule="evenodd"/><path fill="#000000" fill-opacity="0.0" d="m31.375412 141.1921l22.296589 0" fill-rule="evenodd"/><path stroke="#000000" stroke-width="2.0" stroke-linejoin="round" stroke-linecap="butt" d="m31.375412 141.1921l22.296589 0" fill-rule="evenodd"/><path fill="#000000" fill-opacity="0.0" d="m43.42056 69.88013l113.61005 0l0 61.39679l-113.61005 0z" fill-rule="evenodd"/><path fill="#000000" d="m88.18613 109.285126l-0.015625 -9.71875l-8.8125 0l0 3.5625l4.078125 0l-0.015625 4.46875q-0.1875 0.21875 -0.5625 0.421875q-0.359375 0.1875 -0.828125 0.328125q-0.484375 0.15625 -1.03125 0.25q-0.53125 0.078125 -1.09375 0.078125q-0.90625 -0.015625 -1.625 -0.296875q-0.71875 -0.28125 -1.265625 -0.828125q-0.3125 -0.3125 -0.578125 -0.71875q-0.265625 -0.421875 -0.46875 -0.921875q-0.328125 -0.84375 -0.5 -1.9375q-0.171875 -1.109375 -0.171875 -2.4375l0 -3.390625q0 -1.0625 0.125 -1.96875q0.125 -0.921875 0.359375 -1.671875q0.3125 -0.953125 0.765625 -1.65625q0.46875 -0.71875 1.046875 -1.15625q0.4375 -0.328125 0.9375 -0.5q0.515625 -0.171875 1.0625 -0.171875q1.0 0 1.71875 0.265625q0.71875 0.265625 1.1875 0.78125q0.421875 0.484375 0.671875 1.1875q0.25 0.6875 0.359375 1.578125l4.640625 0q-0.1875 -1.78125 -0.796875 -3.203125q-0.59375 -1.421875 -1.65625 -2.421875q-1.0625 -0.96875 -2.625 -1.5q-1.546875 -0.53125 -3.625 -0.53125q-1.34375 0 -2.5625 0.375q-1.21875 0.375 -2.25 1.109375q-0.890625 0.640625 -1.625 1.515625q-0.734375 0.875 -1.296875 1.984375q-0.59375 1.234375 -0.921875 2.75q-0.3125 1.515625 -0.3125 3.265625l0 3.359375q0 1.84375 0.328125 3.421875q0.328125 1.5625 0.984375 2.828125q0.546875 1.125 1.34375 2.015625q0.8125 0.875 1.796875 1.484375q1.0 0.59375 2.1875 0.90625q1.203125 0.3125 2.546875 0.3125q1.5625 0 2.90625 -0.296875q1.359375 -0.28125 2.46875 -0.75q1.078125 -0.46875 1.875 -1.03125q0.796875 -0.578125 1.25 -1.140625zm8.922134 -6.15625l3.671875 0q2.015625 0 3.640625 -0.578125q1.625 -0.578125 2.765625 -1.609375q1.140625 -1.015625 1.75 -2.421875q0.625 -1.40625 0.625 -3.0625q0 -1.78125 -0.625 -3.234375q-0.609375 -1.453125 -1.75 -2.5q-1.140625 -1.03125 -2.765625 -1.609375q-1.625 -0.59375 -3.640625 -0.59375l-8.4375 0l0 24.640625l4.765625 0l0 -9.03125zm0 -3.859375l0 -7.890625l3.671875 0q1.015625 0 1.75 0.328125q0.75 0.3125 1.25 0.875q0.5 0.5625 0.734375 1.3125q0.25 0.734375 0.25 1.59375q0 0.75 -0.25 1.4375q-0.234375 0.6875 -0.734375 1.203125q-0.5 0.53125 -1.25 0.84375q-0.734375 0.296875 -1.75 0.296875l-3.671875 0zm32.140884 -11.75l-4.71875 0l-0.015625 16.328125q-0.015625 1.203125 -0.25 2.125q-0.234375 0.90625 -0.71875 1.515625q-0.4375 0.59375 -1.109375 0.890625q-0.65625 0.296875 -1.53125 0.296875q-0.78125 0 -1.390625 -0.28125q-0.609375 -0.28125 -1.03125 -0.84375q-0.46875 -0.609375 -0.703125 -1.53125q-0.21875 -0.9375 -0.234375 -2.171875l-0.015625 -16.328125l-4.75 0l-0.03125 16.328125q0 2.0625 0.578125 3.6875q0.59375 1.609375 1.65625 2.71875q1.078125 1.09375 2.5625 1.671875q1.5 0.578125 3.359375 0.578125q1.984375 0 3.53125 -0.578125q1.546875 -0.578125 2.640625 -1.6875q1.0625 -1.109375 1.625 -2.71875q0.5625 -1.609375 0.5625 -3.671875l-0.015625 -16.328125z" fill-rule="nonzero"/><defs><linearGradient id="p.2" gradientUnits="userSpaceOnUse" gradientTransform="matrix(10.658990736398112 0.0 0.0 10.658990736398112 0.0 0.0)" spreadMethod="pad" x1="18.33730888583813" y1="3.861945310017878" x2="18.33727041080827" y2="14.520936046346547"><stop offset="0.0" stop-color="#fff6db"/><stop offset="1.0" stop-color="#fad15c"/></linearGradient></defs><path fill="url(#p.2)" d="m195.45721 41.164852l113.61005 0l0 113.61366l-113.61005 0z" fill-rule="evenodd"/><path stroke="#000000" stroke-width="2.0" stroke-linejoin="round" stroke-linecap="butt" d="m195.45721 41.164852l113.61005 0l0 113.61366l-113.61005 0z" fill-rule="evenodd"/><path fill="#000000" fill-opacity="0.0" d="m208.73677 51.569885l0 -22.308157" fill-rule="evenodd"/><path stroke="#000000" stroke-width="2.0" stroke-linejoin="round" stroke-linecap="butt" d="m208.73677 51.569885l0 -22.308157" fill-rule="evenodd"/><path fill="#000000" fill-opacity="0.0" d="m225.9022 51.569885l0 -22.308157" fill-rule="evenodd"/><path stroke="#000000" stroke-width="2.0" stroke-linejoin="round" stroke-linecap="butt" d="m225.9022 51.569885l0 -22.308157" fill-rule="evenodd"/><path fill="#000000" fill-opacity="0.0" d="m243.06764 51.569885l0 -22.308157" fill-rule="evenodd"/><path stroke="#000000" stroke-width="2.0" stroke-linejoin="round" stroke-linecap="butt" d="m243.06764 51.569885l0 -22.308157" fill-rule="evenodd"/><path fill="#000000" fill-opacity="0.0" d="m260.2331 51.569885l0 -22.308157" fill-rule="evenodd"/><path stroke="#000000" stroke-width="2.0" stroke-linejoin="round" stroke-linecap="butt" d="m260.2331 51.569885l0 -22.308157" fill-rule="evenodd"/><path fill="#000000" fill-opacity="0.0" d="m277.39853 51.569885l0 -22.308157" fill-rule="evenodd"/><path stroke="#000000" stroke-width="2.0" stroke-linejoin="round" stroke-linecap="butt" d="m277.39853 51.569885l0 -22.308157" fill-rule="evenodd"/><path fill="#000000" fill-opacity="0.0" d="m294.56396 51.569885l0 -22.308157" fill-rule="evenodd"/><path stroke="#000000" stroke-width="2.0" stroke-linejoin="round" stroke-linecap="butt" d="m294.56396 51.569885l0 -22.308157" fill-rule="evenodd"/><path fill="#000000" fill-opacity="0.0" d="m208.73677 165.7838l0 -22.308167" fill-rule="evenodd"/><path stroke="#000000" stroke-width="2.0" stroke-linejoin="round" stroke-linecap="butt" d="m208.73677 165.7838l0 -22.308167" fill-rule="evenodd"/><path fill="#000000" fill-opacity="0.0" d="m225.9022 165.7838l0 -22.308167" fill-rule="evenodd"/><path stroke="#000000" stroke-width="2.0" stroke-linejoin="round" stroke-linecap="butt" d="m225.9022 165.7838l0 -22.308167" fill-rule="evenodd"/><path fill="#000000" fill-opacity="0.0" d="m243.06764 165.7838l0 -22.308167" fill-rule="evenodd"/><path stroke="#000000" stroke-width="2.0" stroke-linejoin="round" stroke-linecap="butt" d="m243.06764 165.7838l0 -22.308167" fill-rule="evenodd"/><path fill="#000000" fill-opacity="0.0" d="m260.2331 165.7838l0 -22.308167" fill-rule="evenodd"/><path stroke="#000000" stroke-width="2.0" stroke-linejoin="round" stroke-linecap="butt" d="m260.2331 165.7838l0 -22.308167" fill-rule="evenodd"/><path fill="#000000" fill-opacity="0.0" d="m277.39853 165.7838l0 -22.308167" fill-rule="evenodd"/><path stroke="#000000" stroke-width="2.0" stroke-linejoin="round" stroke-linecap="butt" d="m277.39853 165.7838l0 -22.308167" fill-rule="evenodd"/><path fill="#000000" fill-opacity="0.0" d="m294.56396 165.7838l0 -22.308167" fill-rule="evenodd"/><path stroke="#000000" stroke-width="2.0" stroke-linejoin="round" stroke-linecap="butt" d="m294.56396 165.7838l0 -22.308167" fill-rule="evenodd"/><path fill="#000000" fill-opacity="0.0" d="m298.3561 55.362156l22.307465 0" fill-rule="evenodd"/><path stroke="#000000" stroke-width="2.0" stroke-linejoin="round" stroke-linecap="butt" d="m298.3561 55.362156l22.307465 0" fill-rule="evenodd"/><path fill="#000000" fill-opacity="0.0" d="m298.3561 72.528145l22.307465 0" fill-rule="evenodd"/><path stroke="#000000" stroke-width="2.0" stroke-linejoin="round" stroke-linecap="butt" d="m298.3561 72.528145l22.307465 0" fill-rule="evenodd"/><path fill="#000000" fill-opacity="0.0" d="m298.3561 89.69413l22.307465 0" fill-rule="evenodd"/><path stroke="#000000" stroke-width="2.0" stroke-linejoin="round" stroke-linecap="butt" d="m298.3561 89.69413l22.307465 0" fill-rule="evenodd"/><path fill="#000000" fill-opacity="0.0" d="m298.3561 106.860115l22.307465 0" fill-rule="evenodd"/><path stroke="#000000" stroke-width="2.0" stroke-linejoin="round" stroke-linecap="butt" d="m298.3561 106.860115l22.307465 0" fill-rule="evenodd"/><path fill="#000000" fill-opacity="0.0" d="m298.3561 124.02611l22.307465 0" fill-rule="evenodd"/><path stroke="#000000" stroke-width="2.0" stroke-linejoin="round" stroke-linecap="butt" d="m298.3561 124.02611l22.307465 0" fill-rule="evenodd"/><path fill="#000000" fill-opacity="0.0" d="m298.3561 141.1921l22.307465 0" fill-rule="evenodd"/><path stroke="#000000" stroke-width="2.0" stroke-linejoin="round" stroke-linecap="butt" d="m298.3561 141.1921l22.307465 0" fill-rule="evenodd"/><path fill="#000000" fill-opacity="0.0" d="m183.37541 55.362156l22.30745 0" fill-rule="evenodd"/><path stroke="#000000" stroke-width="2.0" stroke-linejoin="round" stroke-linecap="butt" d="m183.37541 55.362156l22.30745 0" fill-rule="evenodd"/><path fill="#000000" fill-opacity="0.0" d="m183.37541 72.528145l22.30745 0" fill-rule="evenodd"/><path stroke="#000000" stroke-width="2.0" stroke-linejoin="round" stroke-linecap="butt" d="m183.37541 72.528145l22.30745 0" fill-rule="evenodd"/><path fill="#000000" fill-opacity="0.0" d="m183.37541 89.69413l22.30745 0" fill-rule="evenodd"/><path stroke="#000000" stroke-width="2.0" stroke-linejoin="round" stroke-linecap="butt" d="m183.37541 89.69413l22.30745 0" fill-rule="evenodd"/><path fill="#000000" fill-opacity="0.0" d="m183.37541 106.860115l22.30745 0" fill-rule="evenodd"/><path stroke="#000000" stroke-width="2.0" stroke-linejoin="round" stroke-linecap="butt" d="m183.37541 106.860115l22.30745 0" fill-rule="evenodd"/><path fill="#000000" fill-opacity="0.0" d="m183.37541 124.02611l22.30745 0" fill-rule="evenodd"/><path stroke="#000000" stroke-width="2.0" stroke-linejoin="round" stroke-linecap="butt" d="m183.37541 124.02611l22.30745 0" fill-rule="evenodd"/><path fill="#000000" fill-opacity="0.0" d="m183.37541 141.1921l22.30745 0" fill-rule="evenodd"/><path stroke="#000000" stroke-width="2.0" stroke-linejoin="round" stroke-linecap="butt" d="m183.37541 141.1921l22.30745 0" fill-rule="evenodd"/><path fill="#000000" fill-opacity="0.0" d="m195.42056 69.88013l113.61005 0l0 61.39679l-113.61005 0z" fill-rule="evenodd"/><path fill="#000000" d="m240.18613 109.285126l-0.015625 -9.71875l-8.8125 0l0 3.5625l4.078125 0l-0.015625 4.46875q-0.1875 0.21875 -0.5625 0.421875q-0.359375 0.1875 -0.828125 0.328125q-0.484375 0.15625 -1.03125 0.25q-0.53125 0.078125 -1.09375 0.078125q-0.90625 -0.015625 -1.625 -0.296875q-0.71875 -0.28125 -1.265625 -0.828125q-0.3125 -0.3125 -0.578125 -0.71875q-0.265625 -0.421875 -0.46875 -0.921875q-0.328125 -0.84375 -0.5 -1.9375q-0.171875 -1.109375 -0.171875 -2.4375l0 -3.390625q0 -1.0625 0.125 -1.96875q0.125 -0.921875 0.359375 -1.671875q0.3125 -0.953125 0.765625 -1.65625q0.46875 -0.71875 1.046875 -1.15625q0.4375 -0.328125 0.9375 -0.5q0.515625 -0.171875 1.0625 -0.171875q1.0 0 1.71875 0.265625q0.71875 0.265625 1.1875 0.78125q0.421875 0.484375 0.671875 1.1875q0.25 0.6875 0.359375 1.578125l4.640625 0q-0.1875 -1.78125 -0.796875 -3.203125q-0.59375 -1.421875 -1.65625 -2.421875q-1.0625 -0.96875 -2.625 -1.5q-1.546875 -0.53125 -3.625 -0.53125q-1.34375 0 -2.5625 0.375q-1.21875 0.375 -2.25 1.109375q-0.890625 0.640625 -1.625 1.515625q-0.734375 0.875 -1.296875 1.984375q-0.59375 1.234375 -0.921875 2.75q-0.3125 1.515625 -0.3125 3.265625l0 3.359375q0 1.84375 0.328125 3.421875q0.328125 1.5625 0.984375 2.828125q0.546875 1.125 1.34375 2.015625q0.8125 0.875 1.796875 1.484375q1.0 0.59375 2.1875 0.90625q1.203125 0.3125 2.546875 0.3125q1.5625 0 2.90625 -0.296875q1.359375 -0.28125 2.46875 -0.75q1.078125 -0.46875 1.875 -1.03125q0.796875 -0.578125 1.25 -1.140625zm8.922134 -6.15625l3.671875 0q2.015625 0 3.6406403 -0.578125q1.625 -0.578125 2.765625 -1.609375q1.140625 -1.015625 1.75 -2.421875q0.625 -1.40625 0.625 -3.0625q0 -1.78125 -0.625 -3.234375q-0.609375 -1.453125 -1.75 -2.5q-1.140625 -1.03125 -2.765625 -1.609375q-1.6250153 -0.59375 -3.6406403 -0.59375l-8.4375 0l0 24.640625l4.765625 0l0 -9.03125zm0 -3.859375l0 -7.890625l3.671875 0q1.015625 0 1.75 0.328125q0.75 0.3125 1.25 0.875q0.50001526 0.5625 0.73439026 1.3125q0.25 0.734375 0.25 1.59375q0 0.75 -0.25 1.4375q-0.234375 0.6875 -0.73439026 1.203125q-0.5 0.53125 -1.25 0.84375q-0.734375 0.296875 -1.75 0.296875l-3.671875 0zm32.140884 -11.75l-4.71875 0l-0.015625 16.328125q-0.015625 1.203125 -0.25 2.125q-0.234375 0.90625 -0.71875 1.515625q-0.4375 0.59375 -1.109375 0.890625q-0.65625 0.296875 -1.53125 0.296875q-0.78125 0 -1.390625 -0.28125q-0.609375 -0.28125 -1.03125 -0.84375q-0.46875 -0.609375 -0.703125 -1.53125q-0.21875 -0.9375 -0.234375 -2.171875l-0.015625 -16.328125l-4.75 0l-0.03125 16.328125q0 2.0625 0.578125 3.6875q0.59375 1.609375 1.65625 2.71875q1.078125 1.09375 2.5625 1.671875q1.5 0.578125 3.359375 0.578125q1.984375 0 3.53125 -0.578125q1.546875 -0.578125 2.640625 -1.6875q1.0625 -1.109375 1.625 -2.71875q0.5625 -1.609375 0.5625 -3.671875l-0.015625 -16.328125z" fill-rule="nonzero"/></g></svg>
