<svg version="1.1" viewBox="0.0 0.0 192.0 192.0" fill="none" stroke="none" stroke-linecap="square" stroke-miterlimit="10" xmlns:xlink="http://www.w3.org/1999/xlink" xmlns="http://www.w3.org/2000/svg"><clipPath id="p.0"><path d="m0 0l192.0 0l0 192.0l-192.0 0l0 -192.0z" clip-rule="nonzero"/></clipPath><g clip-path="url(#p.0)"><path fill="#000000" fill-opacity="0.0" d="m0 0l192.0 0l0 192.0l-192.0 0z" fill-rule="evenodd"/><path fill="#000000" fill-opacity="0.0" d="m3.1469817 3.7217848l185.85826 0l0 184.06299l-185.85826 0z" fill-rule="evenodd"/><path stroke="#3daae6" stroke-width="4.0" stroke-linejoin="round" stroke-linecap="butt" d="m3.1469817 3.7217848l185.85826 0l0 184.06299l-185.85826 0z" fill-rule="evenodd"/><path fill="#000000" fill-opacity="0.0" d="m131.61685 67.55609l0 0c0 -6.9328766 5.946884 -12.553085 13.28273 -12.553085l0 0c3.5227966 0 6.901306 1.3225517 9.392303 3.676712c2.4909973 2.3541603 3.8904266 5.5470886 3.8904266 8.876373l0 0c0 6.9328766 -5.946884 12.553085 -13.28273 12.553085l0 0c-7.335846 0 -13.28273 -5.6202087 -13.28273 -12.553085z" fill-rule="evenodd"/><path stroke="#3daae6" stroke-width="8.0" stroke-linejoin="round" stroke-linecap="butt" d="m131.61685 67.55609l0 0c0 -6.9328766 5.946884 -12.553085 13.28273 -12.553085l0 0c3.5227966 0 6.901306 1.3225517 9.392303 3.676712c2.4909973 2.3541603 3.8904266 5.5470886 3.8904266 8.876373l0 0c0 6.9328766 -5.946884 12.553085 -13.28273 12.553085l0 0c-7.335846 0 -13.28273 -5.6202087 -13.28273 -12.553085z" fill-rule="evenodd"/><path fill="#000000" fill-opacity="0.0" d="m113.69503 117.083084l0 0c0 -1.8286514 1.4824219 -3.3110733 3.311081 -3.3110733l56.425194 0c0.8781433 0 1.7203369 0.34884644 2.341278 0.9697952c0.62094116 0.6209488 0.9697876 1.4631271 0.9697876 2.341278l0 13.2438965c0 1.828659 -1.4824219 3.311081 -3.3110657 3.311081l-56.425194 0c-1.828659 0 -3.311081 -1.4824219 -3.311081 -3.311081z" fill-rule="evenodd"/><path stroke="#3daae6" stroke-width="8.0" stroke-linejoin="round" stroke-linecap="butt" d="m113.69503 117.083084l0 0c0 -1.8286514 1.4824219 -3.3110733 3.311081 -3.3110733l56.425194 0c0.8781433 0 1.7203369 0.34884644 2.341278 0.9697952c0.62094116 0.6209488 0.9697876 1.4631271 0.9697876 2.341278l0 13.2438965c0 1.828659 -1.4824219 3.311081 -3.3110657 3.311081l-56.425194 0c-1.828659 0 -3.311081 -1.4824219 -3.311081 -3.311081z" fill-rule="evenodd"/><path fill="#000000" fill-opacity="0.0" d="m145.2187 113.77201l-0.33164978 -33.662834" fill-rule="evenodd"/><path stroke="#3daae6" stroke-width="8.0" stroke-linejoin="round" stroke-linecap="butt" d="m145.2187 113.77201l-0.33164978 -33.662834" fill-rule="evenodd"/><path fill="#000000" fill-opacity="0.0" d="m14.233596 19.989595l0 0c0 -2.5831795 2.094081 -4.6772594 4.6772585 -4.6772594l33.22816 0c1.2404861 0 2.4301643 0.49278164 3.3073196 1.3699379c0.8771553 0.8771553 1.3699379 2.0668354 1.3699379 3.3073215l0 18.708475c0 2.5831757 -2.094078 4.6772575 -4.6772575 4.6772575l-33.22816 0c-2.5831776 0 -4.6772585 -2.0940819 -4.6772585 -4.6772575z" fill-rule="evenodd"/><path stroke="#3daae6" stroke-width="4.0" stroke-linejoin="round" stroke-linecap="butt" d="m14.233596 19.989595l0 0c0 -2.5831795 2.094081 -4.6772594 4.6772585 -4.6772594l33.22816 0c1.2404861 0 2.4301643 0.49278164 3.3073196 1.3699379c0.8771553 0.8771553 1.3699379 2.0668354 1.3699379 3.3073215l0 18.708475c0 2.5831757 -2.094078 4.6772575 -4.6772575 4.6772575l-33.22816 0c-2.5831776 0 -4.6772585 -2.0940819 -4.6772585 -4.6772575z" fill-rule="evenodd"/><path fill="#000000" fill-opacity="0.0" d="m14.233596 56.661015l0 0c0 -2.5831795 2.094081 -4.6772575 4.6772585 -4.6772575l33.22816 0c1.2404861 0 2.4301643 0.49277878 3.3073196 1.3699379c0.8771553 0.8771553 1.3699379 2.0668335 1.3699379 3.3073196l0 18.708477c0 2.5831757 -2.094078 4.6772537 -4.6772575 4.6772537l-33.22816 0c-2.5831776 0 -4.6772585 -2.094078 -4.6772585 -4.6772537z" fill-rule="evenodd"/><path stroke="#3daae6" stroke-width="4.0" stroke-linejoin="round" stroke-linecap="butt" d="m14.233596 56.661015l0 0c0 -2.5831795 2.094081 -4.6772575 4.6772585 -4.6772575l33.22816 0c1.2404861 0 2.4301643 0.49277878 3.3073196 1.3699379c0.8771553 0.8771553 1.3699379 2.0668335 1.3699379 3.3073196l0 18.708477c0 2.5831757 -2.094078 4.6772537 -4.6772575 4.6772537l-33.22816 0c-2.5831776 0 -4.6772585 -2.094078 -4.6772585 -4.6772537z" fill-rule="evenodd"/><path fill="#000000" fill-opacity="0.0" d="m14.233596 93.33343l0 0c0 -2.5831757 2.094081 -4.6772614 4.6772585 -4.6772614l33.22816 0c1.2404861 0 2.4301643 0.4927826 3.3073196 1.3699417c0.8771553 0.8771515 1.3699379 2.0668335 1.3699379 3.3073196l0 18.708473c0 2.5831757 -2.094078 4.6772614 -4.6772575 4.6772614l-33.22816 0c-2.5831776 0 -4.6772585 -2.0940857 -4.6772585 -4.6772614z" fill-rule="evenodd"/><path stroke="#3daae6" stroke-width="4.0" stroke-linejoin="round" stroke-linecap="butt" d="m14.233596 93.33343l0 0c0 -2.5831757 2.094081 -4.6772614 4.6772585 -4.6772614l33.22816 0c1.2404861 0 2.4301643 0.4927826 3.3073196 1.3699417c0.8771553 0.8771515 1.3699379 2.0668335 1.3699379 3.3073196l0 18.708473c0 2.5831757 -2.094078 4.6772614 -4.6772575 4.6772614l-33.22816 0c-2.5831776 0 -4.6772585 -2.0940857 -4.6772585 -4.6772614z" fill-rule="evenodd"/><path fill="#000000" fill-opacity="0.0" d="m14.233596 130.00534l0 0c0 -2.5831757 2.094081 -4.6772537 4.6772585 -4.6772537l33.22816 0c1.2404861 0 2.4301643 0.49277496 3.3073196 1.3699341c0.8771553 0.8771591 1.3699379 2.0668411 1.3699379 3.3073196l0 18.70848c0 2.5831757 -2.094078 4.6772614 -4.6772575 4.6772614l-33.22816 0c-2.5831776 0 -4.6772585 -2.0940857 -4.6772585 -4.6772614z" fill-rule="evenodd"/><path stroke="#3daae6" stroke-width="4.0" stroke-linejoin="round" stroke-linecap="butt" d="m14.233596 130.00534l0 0c0 -2.5831757 2.094081 -4.6772537 4.6772585 -4.6772537l33.22816 0c1.2404861 0 2.4301643 0.49277496 3.3073196 1.3699341c0.8771553 0.8771591 1.3699379 2.0668411 1.3699379 3.3073196l0 18.70848c0 2.5831757 -2.094078 4.6772614 -4.6772575 4.6772614l-33.22816 0c-2.5831776 0 -4.6772585 -2.0940857 -4.6772585 -4.6772614z" fill-rule="evenodd"/><path fill="#000000" fill-opacity="0.0" d="m70.83727 17.12603l0 0c2.5602798 0 5.0156937 1.017067 6.8260803 2.8274574c1.8103943 1.8103905 2.8274612 4.265808 2.8274612 6.826086l0 61.29618c0 5.331497 4.3220367 9.653542 9.653542 9.653542l0 0c-5.331505 0 -9.653542 4.3220367 -9.653542 9.653542l0 61.286507c0 5.331497 -4.3220367 9.653534 -9.653542 9.653534z" fill-rule="evenodd"/><path fill="#000000" fill-opacity="0.0" d="m70.83727 17.12603l0 0c2.5602798 0 5.0156937 1.017067 6.8260803 2.8274574c1.8103943 1.8103905 2.8274612 4.265808 2.8274612 6.826086l0 61.29618c0 5.331497 4.3220367 9.653542 9.653542 9.653542l0 0c-5.331505 0 -9.653542 4.3220367 -9.653542 9.653542l0 61.286507c0 5.331497 -4.3220367 9.653534 -9.653542 9.653534" fill-rule="evenodd"/><path stroke="#3daae6" stroke-width="4.0" stroke-linejoin="round" stroke-linecap="butt" d="m70.83727 17.12603l0 0c2.5602798 0 5.0156937 1.017067 6.8260803 2.8274574c1.8103943 1.8103905 2.8274612 4.265808 2.8274612 6.826086l0 61.29618c0 5.331497 4.3220367 9.653542 9.653542 9.653542l0 0c-5.331505 0 -9.653542 4.3220367 -9.653542 9.653542l0 61.286507c0 5.331497 -4.3220367 9.653534 -9.653542 9.653534" fill-rule="evenodd"/><path fill="#000000" fill-opacity="0.0" d="m16.07349 140.05823l49.480312 0l0 48.472443l-49.480312 0z" fill-rule="evenodd"/><path fill="#3daae6" d="m26.79224 172.09824l0 -3.296875l3.296875 0l0 3.296875l-3.296875 0zm6.6679688 0l0 -3.296875l3.296875 0l0 3.296875l-3.296875 0zm6.6679688 0l0 -3.296875l3.296875 0l0 3.296875l-3.296875 0z" fill-rule="nonzero"/></g></svg>