<svg version="1.1" viewBox="0.0 0.0 192.0 192.0" fill="none" stroke="none" stroke-linecap="square" stroke-miterlimit="10" xmlns:xlink="http://www.w3.org/1999/xlink" xmlns="http://www.w3.org/2000/svg"><clipPath id="p.0"><path d="m0 0l192.0 0l0 192.0l-192.0 0l0 -192.0z" clip-rule="nonzero"/></clipPath><g clip-path="url(#p.0)"><path fill="#000000" fill-opacity="0.0" d="m0 0l192.0 0l0 192.0l-192.0 0z" fill-rule="evenodd"/><path fill="#ffffff" d="m18.91279 74.026535l0 0c0 -2.4150314 1.9577656 -4.372795 4.3727913 -4.372795l34.12056 0c1.1597328 0 2.2719727 0.46070862 3.0920296 1.2807617c0.8200569 0.82006073 1.2807579 1.9322968 1.2807579 3.0920334l0 17.490639c0 2.4150238 -1.9577637 4.3727875 -4.3727875 4.3727875l-34.12056 0c-2.4150257 0 -4.3727913 -1.9577637 -4.3727913 -4.3727875z" fill-rule="evenodd"/><path stroke="#3daae6" stroke-width="2.0" stroke-linejoin="round" stroke-linecap="butt" d="m18.91279 74.026535l0 0c0 -2.4150314 1.9577656 -4.372795 4.3727913 -4.372795l34.12056 0c1.1597328 0 2.2719727 0.46070862 3.0920296 1.2807617c0.8200569 0.82006073 1.2807579 1.9322968 1.2807579 3.0920334l0 17.490639c0 2.4150238 -1.9577637 4.3727875 -4.3727875 4.3727875l-34.12056 0c-2.4150257 0 -4.3727913 -1.9577637 -4.3727913 -4.3727875z" fill-rule="evenodd"/><path fill="#000000" fill-opacity="0.0" d="m3.1469817 3.7217848l185.85826 0l0 184.06299l-185.85826 0z" fill-rule="evenodd"/><path stroke="#3daae6" stroke-width="4.0" stroke-linejoin="round" stroke-linecap="butt" d="m3.1469817 3.7217848l185.85826 0l0 184.06299l-185.85826 0z" fill-rule="evenodd"/><path fill="#000000" fill-opacity="0.0" d="m12.875748 71.05218l0 0c0 -6.279648 5.09066 -11.370308 11.370306 -11.370308l45.47986 0l0 0c3.0155945 0 5.9076767 1.1979408 8.040024 3.330284c2.1323395 2.132347 3.330284 5.0244293 3.330284 8.040024l0 51.08616c0 6.279648 -5.09066 11.3703 -11.370308 11.3703l-45.47986 0l0 0c-6.279646 0 -11.370306 -5.0906525 -11.370306 -11.3703z" fill-rule="evenodd"/><path stroke="#3daae6" stroke-width="4.0" stroke-linejoin="round" stroke-linecap="butt" d="m12.875748 71.05218l0 0c0 -6.279648 5.09066 -11.370308 11.370306 -11.370308l45.47986 0l0 0c3.0155945 0 5.9076767 1.1979408 8.040024 3.330284c2.1323395 2.132347 3.330284 5.0244293 3.330284 8.040024l0 51.08616c0 6.279648 -5.09066 11.3703 -11.370308 11.3703l-45.47986 0l0 0c-6.279646 0 -11.370306 -5.0906525 -11.370306 -11.3703z" fill-rule="evenodd"/><path fill="#ffffff" d="m19.214678 79.611435l0 0c0 -2.4150238 1.9577656 -4.3727875 4.3727913 -4.3727875l34.12056 0c1.1597366 0 2.2719727 0.460701 3.0920334 1.2807617c0.8200569 0.8200531 1.2807579 1.9322891 1.2807579 3.0920258l0 17.490639c0 2.4150314 -1.9577637 4.372795 -4.3727913 4.372795l-34.12056 0c-2.4150257 0 -4.3727913 -1.9577637 -4.3727913 -4.372795z" fill-rule="evenodd"/><path stroke="#3daae6" stroke-width="2.0" stroke-linejoin="round" stroke-linecap="butt" d="m19.214678 79.611435l0 0c0 -2.4150238 1.9577656 -4.3727875 4.3727913 -4.3727875l34.12056 0c1.1597366 0 2.2719727 0.460701 3.0920334 1.2807617c0.8200569 0.8200531 1.2807579 1.9322891 1.2807579 3.0920258l0 17.490639c0 2.4150314 -1.9577637 4.372795 -4.3727913 4.372795l-34.12056 0c-2.4150257 0 -4.3727913 -1.9577637 -4.3727913 -4.372795z" fill-rule="evenodd"/><path fill="#000000" fill-opacity="0.0" d="m131.61685 67.55609l0 0c0 -6.9328766 5.946884 -12.553085 13.28273 -12.553085l0 0c3.5227966 0 6.901306 1.3225517 9.392303 3.676712c2.4909973 2.3541603 3.8904266 5.5470886 3.8904266 8.876373l0 0c0 6.9328766 -5.946884 12.553085 -13.28273 12.553085l0 0c-7.335846 0 -13.28273 -5.6202087 -13.28273 -12.553085z" fill-rule="evenodd"/><path stroke="#3daae6" stroke-width="8.0" stroke-linejoin="round" stroke-linecap="butt" d="m131.61685 67.55609l0 0c0 -6.9328766 5.946884 -12.553085 13.28273 -12.553085l0 0c3.5227966 0 6.901306 1.3225517 9.392303 3.676712c2.4909973 2.3541603 3.8904266 5.5470886 3.8904266 8.876373l0 0c0 6.9328766 -5.946884 12.553085 -13.28273 12.553085l0 0c-7.335846 0 -13.28273 -5.6202087 -13.28273 -12.553085z" fill-rule="evenodd"/><path fill="#000000" fill-opacity="0.0" d="m113.69503 117.083084l0 0c0 -1.8286514 1.4824219 -3.3110733 3.311081 -3.3110733l56.425194 0c0.8781433 0 1.7203369 0.34884644 2.341278 0.9697952c0.62094116 0.6209488 0.9697876 1.4631271 0.9697876 2.341278l0 13.2438965c0 1.828659 -1.4824219 3.311081 -3.3110657 3.311081l-56.425194 0c-1.828659 0 -3.311081 -1.4824219 -3.311081 -3.311081z" fill-rule="evenodd"/><path stroke="#3daae6" stroke-width="8.0" stroke-linejoin="round" stroke-linecap="butt" d="m113.69503 117.083084l0 0c0 -1.8286514 1.4824219 -3.3110733 3.311081 -3.3110733l56.425194 0c0.8781433 0 1.7203369 0.34884644 2.341278 0.9697952c0.62094116 0.6209488 0.9697876 1.4631271 0.9697876 2.341278l0 13.2438965c0 1.828659 -1.4824219 3.311081 -3.3110657 3.311081l-56.425194 0c-1.828659 0 -3.311081 -1.4824219 -3.311081 -3.311081z" fill-rule="evenodd"/><path fill="#000000" fill-opacity="0.0" d="m145.2187 113.77201l-0.33164978 -33.662834" fill-rule="evenodd"/><path stroke="#3daae6" stroke-width="8.0" stroke-linejoin="round" stroke-linecap="butt" d="m145.2187 113.77201l-0.33164978 -33.662834" fill-rule="evenodd"/><path fill="#000000" fill-opacity="0.0" d="m87.43084 96.0l40.0 0" fill-rule="evenodd"/><path stroke="#3daae6" stroke-width="4.0" stroke-linejoin="round" stroke-linecap="butt" d="m87.43085 96.0l22.0 0" fill-rule="evenodd"/><path fill="#3daae6" stroke="#3daae6" stroke-width="4.0" stroke-linecap="butt" d="m109.43085 100.42311l12.15239 -4.423111l-12.15239 -4.423111z" fill-rule="evenodd"/><path fill="#ffffff" d="m20.12019 85.49863l0 0c0 -2.4150238 1.9577656 -4.3727875 4.3727913 -4.3727875l34.12056 0c1.1597366 0 2.2719727 0.460701 3.0920296 1.2807541c0.8200569 0.82006073 1.2807617 1.9322968 1.2807617 3.0920334l0 17.490639c0 2.4150238 -1.9577675 4.3727875 -4.3727913 4.3727875l-34.12056 0c-2.4150257 0 -4.3727913 -1.9577637 -4.3727913 -4.3727875z" fill-rule="evenodd"/><path stroke="#3daae6" stroke-width="2.0" stroke-linejoin="round" stroke-linecap="butt" d="m20.12019 85.49863l0 0c0 -2.4150238 1.9577656 -4.3727875 4.3727913 -4.3727875l34.12056 0c1.1597366 0 2.2719727 0.460701 3.0920296 1.2807541c0.8200569 0.82006073 1.2807617 1.9322968 1.2807617 3.0920334l0 17.490639c0 2.4150238 -1.9577675 4.3727875 -4.3727913 4.3727875l-34.12056 0c-2.4150257 0 -4.3727913 -1.9577637 -4.3727913 -4.3727875z" fill-rule="evenodd"/><path fill="#ffffff" d="m23.272123 91.837654l0 0c0 -2.4150238 1.9577637 -4.3727875 4.3727894 -4.3727875l34.12056 0c1.1597366 0 2.2719727 0.460701 3.0920334 1.2807617c0.8200531 0.8200531 1.2807617 1.9322891 1.2807617 3.0920258l0 17.490639c0 2.4150238 -1.9577713 4.372795 -4.372795 4.372795l-34.12056 0c-2.4150257 0 -4.3727894 -1.9577713 -4.3727894 -4.372795z" fill-rule="evenodd"/><path stroke="#3daae6" stroke-width="2.0" stroke-linejoin="round" stroke-linecap="butt" d="m23.272123 91.837654l0 0c0 -2.4150238 1.9577637 -4.3727875 4.3727894 -4.3727875l34.12056 0c1.1597366 0 2.2719727 0.460701 3.0920334 1.2807617c0.8200531 0.8200531 1.2807617 1.9322891 1.2807617 3.0920258l0 17.490639c0 2.4150238 -1.9577713 4.372795 -4.372795 4.372795l-34.12056 0c-2.4150257 0 -4.3727894 -1.9577713 -4.3727894 -4.372795z" fill-rule="evenodd"/><path fill="#ffffff" d="m27.195908 97.11993l0 0c0 -2.4150238 1.9577656 -4.3727875 4.3727913 -4.3727875l34.120564 0c1.159729 0 2.2719727 0.460701 3.0920258 1.2807617c0.82006073 0.8200531 1.2807617 1.9322891 1.2807617 3.0920258l0 17.490639c0 2.4150314 -1.9577637 4.372795 -4.3727875 4.372795l-34.120564 0c-2.4150257 0 -4.3727913 -1.9577637 -4.3727913 -4.372795z" fill-rule="evenodd"/><path stroke="#3daae6" stroke-width="2.0" stroke-linejoin="round" stroke-linecap="butt" d="m27.195908 97.11993l0 0c0 -2.4150238 1.9577656 -4.3727875 4.3727913 -4.3727875l34.120564 0c1.159729 0 2.2719727 0.460701 3.0920258 1.2807617c0.82006073 0.8200531 1.2807617 1.9322891 1.2807617 3.0920258l0 17.490639c0 2.4150314 -1.9577637 4.372795 -4.3727875 4.372795l-34.120564 0c-2.4150257 0 -4.3727913 -1.9577637 -4.3727913 -4.372795z" fill-rule="evenodd"/><path fill="#ffffff" d="m30.818546 103.00672l0 0c0 -2.4150238 1.9577637 -4.3727875 4.3727913 -4.3727875l34.12056 0c1.1597366 0 2.2719727 0.460701 3.0920334 1.2807541c0.8200531 0.82006073 1.2807541 1.9322968 1.2807541 3.0920334l0 17.490639c0 2.4150238 -1.9577637 4.3727875 -4.3727875 4.3727875l-34.12056 0c-2.4150276 0 -4.3727913 -1.9577637 -4.3727913 -4.3727875z" fill-rule="evenodd"/><path stroke="#3daae6" stroke-width="2.0" stroke-linejoin="round" stroke-linecap="butt" d="m30.818546 103.00672l0 0c0 -2.4150238 1.9577637 -4.3727875 4.3727913 -4.3727875l34.12056 0c1.1597366 0 2.2719727 0.460701 3.0920334 1.2807541c0.8200531 0.82006073 1.2807541 1.9322968 1.2807541 3.0920334l0 17.490639c0 2.4150238 -1.9577637 4.3727875 -4.3727875 4.3727875l-34.12056 0c-2.4150276 0 -4.3727913 -1.9577637 -4.3727913 -4.3727875z" fill-rule="evenodd"/></g></svg>