<svg version="1.1" viewBox="0.0 0.0 192.0 192.0" fill="none" stroke="none" stroke-linecap="square" stroke-miterlimit="10" xmlns:xlink="http://www.w3.org/1999/xlink" xmlns="http://www.w3.org/2000/svg"><clipPath id="p.0"><path d="m0 0l192.0 0l0 192.0l-192.0 0l0 -192.0z" clip-rule="nonzero"/></clipPath><g clip-path="url(#p.0)"><path fill="#000000" fill-opacity="0.0" d="m0 0l192.0 0l0 192.0l-192.0 0z" fill-rule="evenodd"/><path fill="#000000" fill-opacity="0.0" d="m3.1469817 3.7217848l185.85826 0l0 184.06299l-185.85826 0z" fill-rule="evenodd"/><path stroke="#3daae6" stroke-width="4.0" stroke-linejoin="round" stroke-linecap="butt" d="m3.1469817 3.7217848l185.85826 0l0 184.06299l-185.85826 0z" fill-rule="evenodd"/><path fill="#000000" fill-opacity="0.0" d="m134.9376 67.55609l0 0c0 -6.9328766 5.946884 -12.553085 13.28273 -12.553085l0 0c3.5227966 0 6.901306 1.3225517 9.392303 3.676712c2.4909973 2.3541603 3.8904266 5.5470886 3.8904266 8.876373l0 0c0 6.9328766 -5.946884 12.553085 -13.28273 12.553085l0 0c-7.335846 0 -13.28273 -5.6202087 -13.28273 -12.553085z" fill-rule="evenodd"/><path stroke="#3daae6" stroke-width="8.0" stroke-linejoin="round" stroke-linecap="butt" d="m134.9376 67.55609l0 0c0 -6.9328766 5.946884 -12.553085 13.28273 -12.553085l0 0c3.5227966 0 6.901306 1.3225517 9.392303 3.676712c2.4909973 2.3541603 3.8904266 5.5470886 3.8904266 8.876373l0 0c0 6.9328766 -5.946884 12.553085 -13.28273 12.553085l0 0c-7.335846 0 -13.28273 -5.6202087 -13.28273 -12.553085z" fill-rule="evenodd"/><path fill="#000000" fill-opacity="0.0" d="m117.01579 117.083084l0 0c0 -1.8286514 1.4824142 -3.3110733 3.3110733 -3.3110733l56.425194 0c0.8781433 0 1.7203369 0.34884644 2.341278 0.9697952c0.62094116 0.6209488 0.9697876 1.4631271 0.9697876 2.341278l0 13.2438965c0 1.828659 -1.4824219 3.311081 -3.3110657 3.311081l-56.425194 0c-1.828659 0 -3.3110733 -1.4824219 -3.3110733 -3.311081z" fill-rule="evenodd"/><path stroke="#3daae6" stroke-width="8.0" stroke-linejoin="round" stroke-linecap="butt" d="m117.01579 117.083084l0 0c0 -1.8286514 1.4824142 -3.3110733 3.3110733 -3.3110733l56.425194 0c0.8781433 0 1.7203369 0.34884644 2.341278 0.9697952c0.62094116 0.6209488 0.9697876 1.4631271 0.9697876 2.341278l0 13.2438965c0 1.828659 -1.4824219 3.311081 -3.3110657 3.311081l-56.425194 0c-1.828659 0 -3.3110733 -1.4824219 -3.3110733 -3.311081z" fill-rule="evenodd"/><path fill="#000000" fill-opacity="0.0" d="m148.53946 113.77201l-0.33164978 -33.662834" fill-rule="evenodd"/><path stroke="#3daae6" stroke-width="8.0" stroke-linejoin="round" stroke-linecap="butt" d="m148.53946 113.77201l-0.33164978 -33.662834" fill-rule="evenodd"/><path fill="#000000" fill-opacity="0.0" d="m98.07087 96.35958l34.92913 -0.37795258" fill-rule="evenodd"/><path stroke="#3daae6" stroke-width="4.0" stroke-linejoin="round" stroke-linecap="butt" d="m98.07087 96.35958l16.930183 -0.18319702" fill-rule="evenodd"/><path fill="#3daae6" stroke="#3daae6" stroke-width="4.0" stroke-linecap="butt" d="m115.04891 100.599236l12.103821 -4.5543365l-12.199539 -4.291359z" fill-rule="evenodd"/><path fill="#000000" fill-opacity="0.0" d="m64.715225 95.91601l24.472443 0" fill-rule="evenodd"/><path stroke="#3daae6" stroke-width="4.0" stroke-linejoin="round" stroke-linecap="butt" d="m64.715225 95.91601l24.472443 0" fill-rule="evenodd"/><path fill="#000000" fill-opacity="0.0" d="m82.36317 104.05517l11.496063 -15.685043" fill-rule="evenodd"/><path stroke="#3daae6" stroke-width="4.0" stroke-linejoin="round" stroke-linecap="butt" d="m82.36317 104.05517l11.496063 -15.685043" fill-rule="evenodd"/><path fill="#000000" fill-opacity="0.0" d="m91.448425 104.356804l11.496063 -15.685036" fill-rule="evenodd"/><path stroke="#3daae6" stroke-width="4.0" stroke-linejoin="round" stroke-linecap="butt" d="m91.448425 104.356804l11.496063 -15.685036" fill-rule="evenodd"/><path fill="#000000" fill-opacity="0.0" d="m10.572179 82.45386l0 0c0 -3.4703293 2.8132591 -6.283592 6.2835894 -6.283592l36.062744 0c1.6665115 0 3.2647667 0.6620178 4.4431686 1.8404236c1.178402 1.1783981 1.8404198 2.776657 1.8404198 4.4431686l0 25.133606c0 3.4703293 -2.8132591 6.283592 -6.2835884 6.283592l-36.062744 0l0 0c-3.4703302 0 -6.2835894 -2.813263 -6.2835894 -6.283592z" fill-rule="evenodd"/><path stroke="#3daae6" stroke-width="4.0" stroke-linejoin="round" stroke-linecap="butt" d="m10.572179 82.45386l0 0c0 -3.4703293 2.8132591 -6.283592 6.2835894 -6.283592l36.062744 0c1.6665115 0 3.2647667 0.6620178 4.4431686 1.8404236c1.178402 1.1783981 1.8404198 2.776657 1.8404198 4.4431686l0 25.133606c0 3.4703293 -2.8132591 6.283592 -6.2835884 6.283592l-36.062744 0l0 0c-3.4703302 0 -6.2835894 -2.813263 -6.2835894 -6.283592z" fill-rule="evenodd"/><path fill="#000000" fill-opacity="0.0" d="m64.0737 47.656166l73.07086 0l0 48.472443l-73.07086 0z" fill-rule="evenodd"/><path fill="#3daae6" d="m78.0737 62.508667l0 6.328125q1.59375 -1.875 3.8125 -1.875q1.140625 0 2.046875 0.421875q0.921875 0.421875 1.375 1.078125q0.46875 0.65625 0.640625 1.453125q0.171875 0.796875 0.171875 2.484375l0 7.296875l-3.296875 0l0 -6.578125q0 -1.953125 -0.1875 -2.484375q-0.1875 -0.53125 -0.671875 -0.828125q-0.46875 -0.3125 -1.171875 -0.3125q-0.828125 0 -1.46875 0.40625q-0.640625 0.390625 -0.953125 1.1875q-0.296875 0.796875 -0.296875 2.375l0 6.234375l-3.28125 0l0 -17.1875l3.28125 0zm17.097656 4.734375l0 2.625l-2.25 0l0 5.015625q0 1.53125 0.0625 1.78125q0.0625 0.25 0.28125 0.421875q0.234375 0.15625 0.5625 0.15625q0.453125 0 1.328125 -0.3125l0.28125 2.546875q-1.15625 0.5 -2.609375 0.5q-0.890625 0 -1.609375 -0.296875q-0.703125 -0.296875 -1.046875 -0.765625q-0.328125 -0.484375 -0.453125 -1.296875q-0.109375 -0.578125 -0.109375 -2.3125l0 -5.4375l-1.515625 0l0 -2.625l1.515625 0l0 -2.46875l3.3125 -1.921875l0 4.390625l2.25 0zm7.9921875 0l0 2.625l-2.25 0l0 5.015625q0 1.53125 0.0625 1.78125q0.0625 0.25 0.28125 0.421875q0.234375 0.15625 0.5625 0.15625q0.453125 0 1.328125 -0.3125l0.28125 2.546875q-1.15625 0.5 -2.609375 0.5q-0.890625 0 -1.609375 -0.296875q-0.703125 -0.296875 -1.046875 -0.765625q-0.328125 -0.484375 -0.453125 -1.296875q-0.109375 -0.578125 -0.109375 -2.3125l0 -5.4375l-1.515625 0l0 -2.625l1.515625 0l0 -2.46875l3.3125 -1.921875l0 4.390625l2.25 0zm2.1796875 0l3.078125 0l0 1.828125q0.59375 -0.9375 1.609375 -1.515625q1.03125 -0.59375 2.265625 -0.59375q2.171875 0 3.671875 1.703125q1.515625 1.703125 1.515625 4.734375q0 3.125 -1.53125 4.859375q-1.515625 1.71875 -3.671875 1.71875q-1.03125 0 -1.875 -0.40625q-0.84375 -0.421875 -1.765625 -1.40625l0 6.265625l-3.296875 0l0 -17.1875zm3.265625 6.015625q0 2.09375 0.828125 3.109375q0.828125 1.0 2.03125 1.0q1.140625 0 1.90625 -0.921875q0.765625 -0.921875 0.765625 -3.015625q0 -1.96875 -0.796875 -2.90625q-0.78125 -0.953125 -1.9375 -0.953125q-1.203125 0 -2.0 0.9375q-0.796875 0.921875 -0.796875 2.75z" fill-rule="nonzero"/><path fill="#000000" fill-opacity="0.0" d="m10.572179 37.95517l0 0c0 -3.4703293 2.8132591 -6.2835903 6.2835894 -6.2835903l36.062744 0c1.6665115 0 3.2647667 0.6620197 4.4431686 1.8404217c1.178402 1.178402 1.8404198 2.776657 1.8404198 4.4431686l0 25.133606c0 3.4703293 -2.8132591 6.283592 -6.2835884 6.283592l-36.062744 0l0 0c-3.4703302 0 -6.2835894 -2.813263 -6.2835894 -6.283592z" fill-rule="evenodd"/><path stroke="#3daae6" stroke-width="4.0" stroke-linejoin="round" stroke-linecap="butt" d="m10.572179 37.95517l0 0c0 -3.4703293 2.8132591 -6.2835903 6.2835894 -6.2835903l36.062744 0c1.6665115 0 3.2647667 0.6620197 4.4431686 1.8404217c1.178402 1.178402 1.8404198 2.776657 1.8404198 4.4431686l0 25.133606c0 3.4703293 -2.8132591 6.283592 -6.2835884 6.283592l-36.062744 0l0 0c-3.4703302 0 -6.2835894 -2.813263 -6.2835894 -6.283592z" fill-rule="evenodd"/><path fill="#000000" fill-opacity="0.0" d="m10.572179 127.95648l0 0c0 -3.4703293 2.8132591 -6.283592 6.2835894 -6.283592l36.062744 0c1.6665115 0 3.2647667 0.6620178 4.4431686 1.8404236c1.178402 1.1783981 1.8404198 2.776657 1.8404198 4.4431686l0 25.133606c0 3.470337 -2.8132591 6.2835846 -6.2835884 6.2835846l-36.062744 0l0 0c-3.4703302 0 -6.2835894 -2.8132477 -6.2835894 -6.2835846z" fill-rule="evenodd"/><path stroke="#3daae6" stroke-width="4.0" stroke-linejoin="round" stroke-linecap="butt" d="m10.572179 127.95648l0 0c0 -3.4703293 2.8132591 -6.283592 6.2835894 -6.283592l36.062744 0c1.6665115 0 3.2647667 0.6620178 4.4431686 1.8404236c1.178402 1.1783981 1.8404198 2.776657 1.8404198 4.4431686l0 25.133606c0 3.470337 -2.8132591 6.2835846 -6.2835884 6.2835846l-36.062744 0l0 0c-3.4703302 0 -6.2835894 -2.8132477 -6.2835894 -6.2835846z" fill-rule="evenodd"/></g></svg>