<svg version="1.1" viewBox="0.0 0.0 1152.0 864.0" fill="none" stroke="none" stroke-linecap="square" stroke-miterlimit="10" xmlns:xlink="http://www.w3.org/1999/xlink" xmlns="http://www.w3.org/2000/svg"><clipPath id="p.0"><path d="m0 0l1152.0 0l0 864.0l-1152.0 0l0 -864.0z" clip-rule="nonzero"/></clipPath><g clip-path="url(#p.0)"><path fill="#000000" fill-opacity="0.0" d="m0 0l1152.0 0l0 864.0l-1152.0 0z" fill-rule="evenodd"/><path fill="#ffffff" d="m112.5017 396.75818l300.063 0l0 139.21259l-300.063 0z" fill-rule="evenodd"/><path stroke="#000000" stroke-width="1.0" stroke-linejoin="round" stroke-linecap="butt" d="m112.5017 396.75818l300.063 0l0 139.21259l-300.063 0z" fill-rule="evenodd"/><path fill="#ffffff" d="m637.0599 395.02274l300.06305 0l0 139.21262l-300.06305 0z" fill-rule="evenodd"/><path stroke="#000000" stroke-width="1.0" stroke-linejoin="round" stroke-linecap="butt" d="m637.0599 395.02274l300.06305 0l0 139.21262l-300.06305 0z" fill-rule="evenodd"/><path fill="#f4cccc" d="m700.02924 422.54224l183.62201 0l0 44.409454l-183.62201 0z" fill-rule="evenodd"/><path fill="#000000" d="m770.0373 451.66696l5.125 -13.359375l1.90625 0l5.46875 13.359375l-2.015625 0l-1.546875 -4.046875l-5.59375 0l-1.46875 4.046875l-1.875 0zm3.859375 -5.484375l4.53125 0l-1.40625 -3.703125q-0.625 -1.6875 -0.9375 -2.765625q-0.265625 1.28125 -0.71875 2.546875l-1.46875 3.921875zm16.162292 1.9375l1.609375 0.21875q-0.265625 1.65625 -1.359375 2.609375q-1.078125 0.9375 -2.671875 0.9375q-1.984375 0 -3.1875 -1.296875q-1.203125 -1.296875 -1.203125 -3.71875q0 -1.578125 0.515625 -2.75q0.515625 -1.171875 1.578125 -1.75q1.0625 -0.59375 2.3125 -0.59375q1.578125 0 2.578125 0.796875q1.0 0.796875 1.28125 2.265625l-1.59375 0.234375q-0.234375 -0.96875 -0.8125 -1.453125q-0.578125 -0.5 -1.390625 -0.5q-1.234375 0 -2.015625 0.890625q-0.78125 0.890625 -0.78125 2.8125q0 1.953125 0.75 2.84375q0.75 0.875 1.953125 0.875q0.96875 0 1.609375 -0.59375q0.65625 -0.59375 0.828125 -1.828125zm6.59375 2.078125l0.234375 1.453125q-0.6875 0.140625 -1.234375 0.140625q-0.890625 0 -1.390625 -0.28125q-0.484375 -0.28125 -0.6875 -0.734375q-0.203125 -0.46875 -0.203125 -1.9375l0 -5.578125l-1.203125 0l0 -1.265625l1.203125 0l0 -2.390625l1.625 -0.984375l0 3.375l1.65625 0l0 1.265625l-1.65625 0l0 5.671875q0 0.6875 0.078125 0.890625q0.09375 0.203125 0.28125 0.328125q0.203125 0.109375 0.578125 0.109375q0.265625 0 0.71875 -0.0625zm0.9958496 -3.375q0 -2.6875 1.484375 -3.96875q1.25 -1.078125 3.046875 -1.078125q2.0 0 3.265625 1.3125q1.265625 1.296875 1.265625 3.609375q0 1.859375 -0.5625 2.9375q-0.5625 1.0625 -1.640625 1.65625q-1.0625 0.59375 -2.328125 0.59375q-2.03125 0 -3.28125 -1.296875q-1.25 -1.3125 -1.25 -3.765625zm1.6875 0q0 1.859375 0.796875 2.796875q0.8125 0.921875 2.046875 0.921875q1.21875 0 2.03125 -0.921875q0.8125 -0.9375 0.8125 -2.84375q0 -1.796875 -0.8125 -2.71875q-0.8125 -0.921875 -2.03125 -0.921875q-1.234375 0 -2.046875 0.921875q-0.796875 0.90625 -0.796875 2.765625zm9.281921 4.84375l0 -9.671875l1.46875 0l0 1.46875q0.5625 -1.03125 1.03125 -1.359375q0.484375 -0.328125 1.0625 -0.328125q0.828125 0 1.6875 0.53125l-0.5625 1.515625q-0.609375 -0.359375 -1.203125 -0.359375q-0.546875 0 -0.96875 0.328125q-0.421875 0.328125 -0.609375 0.890625q-0.28125 0.875 -0.28125 1.921875l0 5.0625l-1.625 0z" fill-rule="nonzero"/><path fill="#000000" fill-opacity="0.0" d="m412.5647 466.3645l224.5039 -1.7322998" fill-rule="evenodd"/><path stroke="#000000" stroke-width="1.0" stroke-linejoin="round" stroke-linecap="butt" d="m412.56473 466.3645l218.50406 -1.6859741" fill-rule="evenodd"/><path fill="#000000" stroke="#000000" stroke-width="1.0" stroke-linecap="butt" d="m631.0816 466.3302l4.5252075 -1.6867065l-4.55072 -1.6166687z" fill-rule="evenodd"/><path fill="#000000" fill-opacity="0.0" d="m412.00403 418.65643l224.5039 0l0 30.330719l-224.5039 0z" fill-rule="evenodd"/><path fill="#000000" d="m428.06653 445.57645l-0.046875 -1.21875q-0.296875 0.3125 -0.625 0.578125q-0.3125 0.265625 -0.703125 0.453125q-0.375 0.1875 -0.828125 0.28125q-0.4375 0.109375 -0.984375 0.109375q-0.703125 0 -1.25 -0.203125q-0.53125 -0.203125 -0.90625 -0.578125q-0.359375 -0.375 -0.546875 -0.90625q-0.171875 -0.53125 -0.171875 -1.171875q0 -0.65625 0.265625 -1.203125q0.28125 -0.5625 0.84375 -0.953125q0.578125 -0.40625 1.421875 -0.625q0.859375 -0.234375 2.0 -0.234375l1.21875 0l0 -0.5625q0 -0.359375 -0.109375 -0.640625q-0.09375 -0.28125 -0.3125 -0.484375q-0.21875 -0.203125 -0.578125 -0.3125q-0.359375 -0.109375 -0.875 -0.109375q-0.828125 0 -1.625 0.1875q-0.796875 0.1875 -1.53125 0.53125l0 -1.78125q0.65625 -0.265625 1.53125 -0.4375q0.875 -0.171875 1.8125 -0.171875q1.015625 0 1.75 0.203125q0.75 0.1875 1.21875 0.578125q0.484375 0.390625 0.703125 0.984375q0.234375 0.578125 0.234375 1.359375l0 6.328125l-1.90625 0zm-0.3125 -4.09375l-1.359375 0q-0.5625 0 -0.953125 0.109375q-0.390625 0.109375 -0.640625 0.3125q-0.25 0.1875 -0.359375 0.4375q-0.109375 0.25 -0.109375 0.53125q0 0.5625 0.359375 0.859375q0.359375 0.296875 1.0 0.296875q0.453125 0 0.953125 -0.328125q0.515625 -0.34375 1.109375 -0.96875l0 -1.25zm12.257294 3.734375q-0.65625 0.265625 -1.359375 0.390625q-0.6875 0.125 -1.453125 0.125q-1.109375 0 -1.984375 -0.296875q-0.875 -0.296875 -1.484375 -0.890625q-0.609375 -0.59375 -0.9375 -1.46875q-0.3125 -0.875 -0.3125 -2.015625q0 -1.109375 0.34375 -2.015625q0.34375 -0.90625 0.984375 -1.53125q0.640625 -0.640625 1.53125 -0.984375q0.90625 -0.359375 2.0 -0.359375q0.90625 0 1.515625 0.109375q0.625 0.09375 1.109375 0.234375l0 2.15625q-0.5625 -0.28125 -1.21875 -0.4375q-0.65625 -0.15625 -1.25 -0.15625q-0.625 0 -1.125 0.21875q-0.484375 0.203125 -0.828125 0.578125q-0.328125 0.375 -0.515625 0.90625q-0.171875 0.53125 -0.171875 1.171875q0 0.65625 0.1875 1.1875q0.203125 0.53125 0.546875 0.90625q0.359375 0.359375 0.84375 0.5625q0.5 0.1875 1.09375 0.1875q0.296875 0 0.609375 -0.03125q0.328125 -0.046875 0.65625 -0.125q0.328125 -0.078125 0.640625 -0.171875q0.3125 -0.109375 0.578125 -0.21875l0 1.96875zm10.413544 0.265625q-0.609375 0.140625 -1.21875 0.21875q-0.609375 0.078125 -1.15625 0.078125q-0.90625 0 -1.578125 -0.1875q-0.65625 -0.1875 -1.09375 -0.578125q-0.421875 -0.390625 -0.625 -1.0q-0.203125 -0.609375 -0.203125 -1.4375l0 -4.53125l-2.5 0l0 -1.71875l2.5 0l0 -2.375l2.265625 -0.59375l0 2.96875l3.609375 0l0 1.71875l-3.609375 0l0 4.359375q0 0.796875 0.359375 1.203125q0.375 0.40625 1.234375 0.40625q0.546875 0 1.0625 -0.09375q0.515625 -0.09375 0.953125 -0.21875l0 1.78125zm10.944794 -4.609375q0 1.09375 -0.3125 2.0q-0.296875 0.90625 -0.890625 1.5625q-0.578125 0.640625 -1.421875 1.0q-0.84375 0.34375 -1.9375 0.34375q-1.015625 0 -1.828125 -0.296875q-0.8125 -0.296875 -1.390625 -0.890625q-0.5625 -0.59375 -0.859375 -1.484375q-0.296875 -0.90625 -0.296875 -2.109375q0 -1.09375 0.3125 -2.0q0.3125 -0.90625 0.890625 -1.53125q0.59375 -0.640625 1.4375 -0.984375q0.859375 -0.359375 1.921875 -0.359375q1.046875 0 1.84375 0.3125q0.8125 0.296875 1.375 0.90625q0.578125 0.59375 0.859375 1.484375q0.296875 0.890625 0.296875 2.046875zm-2.3125 0.0625q0 -1.4375 -0.546875 -2.15625q-0.53125 -0.734375 -1.59375 -0.734375q-0.578125 0 -0.984375 0.234375q-0.40625 0.21875 -0.671875 0.625q-0.265625 0.390625 -0.390625 0.921875q-0.125 0.515625 -0.125 1.125q0 1.453125 0.578125 2.1875q0.59375 0.71875 1.59375 0.71875q0.5625 0 0.96875 -0.21875q0.40625 -0.21875 0.65625 -0.609375q0.265625 -0.40625 0.390625 -0.9375q0.125 -0.546875 0.125 -1.15625zm10.194794 -1.015625q0.015625 -0.515625 -0.046875 -0.875q-0.0625 -0.375 -0.21875 -0.609375q-0.140625 -0.234375 -0.359375 -0.34375q-0.21875 -0.109375 -0.515625 -0.109375q-0.484375 0 -1.015625 0.40625q-0.515625 0.40625 -1.140625 1.328125l0 5.859375l-2.28125 0l0 -9.25l2.015625 0l0.078125 1.34375q0.234375 -0.359375 0.515625 -0.640625q0.28125 -0.28125 0.625 -0.484375q0.359375 -0.203125 0.78125 -0.3125q0.4375 -0.109375 0.953125 -0.109375q0.703125 0 1.234375 0.25q0.546875 0.234375 0.90625 0.703125q0.375 0.46875 0.546875 1.1875q0.1875 0.71875 0.15625 1.65625l-2.234375 0zm8.116669 2.296875q0.375 0 0.703125 0.140625q0.328125 0.140625 0.5625 0.390625q0.25 0.234375 0.390625 0.5625q0.140625 0.328125 0.140625 0.703125q0 0.359375 -0.140625 0.6875q-0.140625 0.3125 -0.390625 0.5625q-0.234375 0.234375 -0.5625 0.375q-0.328125 0.140625 -0.703125 0.140625q-0.375 0 -0.6875 -0.140625q-0.3125 -0.140625 -0.5625 -0.375q-0.234375 -0.25 -0.375 -0.5625q-0.125 -0.328125 -0.125 -0.6875q0 -0.375 0.125 -0.703125q0.140625 -0.328125 0.375 -0.5625q0.25 -0.25 0.5625 -0.390625q0.3125 -0.140625 0.6875 -0.140625zm13.929169 3.0q-0.65625 0.265625 -1.359375 0.390625q-0.6875 0.125 -1.453125 0.125q-1.109375 0 -1.984375 -0.296875q-0.875 -0.296875 -1.484375 -0.890625q-0.609375 -0.59375 -0.9375 -1.46875q-0.3125 -0.875 -0.3125 -2.015625q0 -1.109375 0.34375 -2.015625q0.34375 -0.90625 0.984375 -1.53125q0.640625 -0.640625 1.53125 -0.984375q0.90625 -0.359375 2.0 -0.359375q0.90625 0 1.515625 0.109375q0.625 0.09375 1.109375 0.234375l0 2.15625q-0.5625 -0.28125 -1.21875 -0.4375q-0.65625 -0.15625 -1.25 -0.15625q-0.625 0 -1.125 0.21875q-0.484375 0.203125 -0.828125 0.578125q-0.328125 0.375 -0.515625 0.90625q-0.171875 0.53125 -0.171875 1.171875q0 0.65625 0.1875 1.1875q0.203125 0.53125 0.546875 0.90625q0.359375 0.359375 0.84375 0.5625q0.5 0.1875 1.09375 0.1875q0.296875 0 0.609375 -0.03125q0.328125 -0.046875 0.65625 -0.125q0.328125 -0.078125 0.640625 -0.171875q0.3125 -0.109375 0.578125 -0.21875l0 1.96875zm8.569794 0.359375l-0.046875 -1.21875q-0.296875 0.3125 -0.625 0.578125q-0.3125 0.265625 -0.703125 0.453125q-0.375 0.1875 -0.828125 0.28125q-0.4375 0.109375 -0.984375 0.109375q-0.703125 0 -1.25 -0.203125q-0.53125 -0.203125 -0.90625 -0.578125q-0.359375 -0.375 -0.546875 -0.90625q-0.171875 -0.53125 -0.171875 -1.171875q0 -0.65625 0.265625 -1.203125q0.28125 -0.5625 0.84375 -0.953125q0.578125 -0.40625 1.421875 -0.625q0.859375 -0.234375 2.0 -0.234375l1.21875 0l0 -0.5625q0 -0.359375 -0.109375 -0.640625q-0.09375 -0.28125 -0.3125 -0.484375q-0.21875 -0.203125 -0.578125 -0.3125q-0.359375 -0.109375 -0.875 -0.109375q-0.828125 0 -1.625 0.1875q-0.796875 0.1875 -1.53125 0.53125l0 -1.78125q0.65625 -0.265625 1.53125 -0.4375q0.875 -0.171875 1.8125 -0.171875q1.015625 0 1.75 0.203125q0.75 0.1875 1.21875 0.578125q0.484375 0.390625 0.703125 0.984375q0.234375 0.578125 0.234375 1.359375l0 6.328125l-1.90625 0zm-0.3125 -4.09375l-1.359375 0q-0.5625 0 -0.953125 0.109375q-0.390625 0.109375 -0.640625 0.3125q-0.25 0.1875 -0.359375 0.4375q-0.109375 0.25 -0.109375 0.53125q0 0.5625 0.359375 0.859375q0.359375 0.296875 1.0 0.296875q0.453125 0 0.953125 -0.328125q0.515625 -0.34375 1.109375 -0.96875l0 -1.25zm7.7572937 -7.046875l-2.609375 0l0 -1.734375l4.890625 0l0 11.140625l2.671875 0l0 1.734375l-7.875 0l0 -1.734375l2.921875 0l0 -9.40625zm10.257263 0l-2.609375 0l0 -1.734375l4.890625 0l0 11.140625l2.671875 0l0 1.734375l-7.875 0l0 -1.734375l2.921875 0l0 -9.40625zm11.085449 7.78125q0.375 0 0.703125 0.140625q0.328125 0.140625 0.5625 0.390625q0.25 0.234375 0.390625 0.5625q0.140625 0.328125 0.140625 0.703125q0 0.359375 -0.140625 0.6875q-0.140625 0.3125 -0.390625 0.5625q-0.234375 0.234375 -0.5625 0.375q-0.328125 0.140625 -0.703125 0.140625q-0.375 0 -0.6875 -0.140625q-0.3125 -0.140625 -0.5625 -0.375q-0.234375 -0.25 -0.375 -0.5625q-0.125 -0.328125 -0.125 -0.6875q0 -0.375 0.125 -0.703125q0.140625 -0.328125 0.375 -0.5625q0.25 -0.25 0.5625 -0.390625q0.3125 -0.140625 0.6875 -0.140625zm12.397888 -2.296875q0.015625 -0.515625 -0.046875 -0.875q-0.0625 -0.375 -0.21875 -0.609375q-0.140625 -0.234375 -0.359375 -0.34375q-0.21875 -0.109375 -0.515625 -0.109375q-0.484375 0 -1.015625 0.40625q-0.515625 0.40625 -1.140625 1.328125l0 5.859375l-2.28125 0l0 -9.25l2.015625 0l0.078125 1.34375q0.234375 -0.359375 0.515625 -0.640625q0.28125 -0.28125 0.625 -0.484375q0.359375 -0.203125 0.78125 -0.3125q0.4375 -0.109375 0.953125 -0.109375q0.703125 0 1.234375 0.25q0.546875 0.234375 0.90625 0.703125q0.375 0.46875 0.546875 1.1875q0.1875 0.71875 0.15625 1.65625l-2.234375 0zm12.366699 0.3125q0 0.234375 -0.015625 0.609375q-0.015625 0.359375 -0.03125 0.671875l-6.09375 0q0 0.609375 0.1875 1.078125q0.1875 0.46875 0.53125 0.78125q0.34375 0.3125 0.8125 0.484375q0.484375 0.15625 1.0625 0.15625q0.671875 0 1.4375 -0.109375q0.78125 -0.109375 1.609375 -0.34375l0 1.765625q-0.359375 0.109375 -0.78125 0.1875q-0.40625 0.078125 -0.84375 0.140625q-0.4375 0.0625 -0.890625 0.09375q-0.453125 0.03125 -0.859375 0.03125q-1.0625 0 -1.90625 -0.296875q-0.828125 -0.296875 -1.421875 -0.875q-0.578125 -0.59375 -0.890625 -1.453125q-0.3125 -0.875 -0.3125 -2.015625q0 -1.125 0.3125 -2.046875q0.3125 -0.9375 0.875 -1.59375q0.5625 -0.65625 1.375 -1.015625q0.8125 -0.359375 1.796875 -0.359375q0.984375 0 1.734375 0.3125q0.765625 0.296875 1.265625 0.84375q0.515625 0.546875 0.78125 1.3125q0.265625 0.75 0.265625 1.640625zm-2.265625 -0.3125q0.015625 -0.546875 -0.140625 -0.953125q-0.140625 -0.40625 -0.390625 -0.671875q-0.25 -0.265625 -0.578125 -0.390625q-0.328125 -0.125 -0.71875 -0.125q-0.828125 0 -1.375 0.5625q-0.53125 0.5625 -0.640625 1.578125l3.84375 0zm10.991638 5.65625l0 -6.296875q0 -0.359375 -0.015625 -0.609375q-0.015625 -0.265625 -0.078125 -0.4375q-0.046875 -0.171875 -0.15625 -0.25q-0.109375 -0.09375 -0.28125 -0.09375q-0.28125 0 -0.5625 0.390625q-0.265625 0.375 -0.625 1.296875l0 6.0l-1.890625 0l0 -6.296875q0 -0.359375 -0.03125 -0.609375q-0.015625 -0.265625 -0.078125 -0.4375q-0.046875 -0.171875 -0.15625 -0.25q-0.109375 -0.09375 -0.28125 -0.09375q-0.25 0 -0.546875 0.390625q-0.28125 0.375 -0.640625 1.296875l0 6.0l-1.921875 0l0 -9.25l1.65625 0l0.03125 1.34375q0.203125 -0.40625 0.40625 -0.703125q0.203125 -0.296875 0.421875 -0.484375q0.234375 -0.1875 0.484375 -0.265625q0.265625 -0.078125 0.59375 -0.078125q0.78125 0 1.1875 0.40625q0.40625 0.40625 0.453125 1.125q0.21875 -0.40625 0.421875 -0.703125q0.21875 -0.296875 0.453125 -0.484375q0.234375 -0.1875 0.5 -0.265625q0.28125 -0.078125 0.609375 -0.078125q1.0 0 1.484375 0.703125q0.484375 0.703125 0.484375 2.09375l0 6.640625l-1.921875 0zm12.054199 -4.703125q0 1.09375 -0.3125 2.0q-0.296875 0.90625 -0.890625 1.5625q-0.578125 0.640625 -1.421875 1.0q-0.84375 0.34375 -1.9375 0.34375q-1.015625 0 -1.828125 -0.296875q-0.8125 -0.296875 -1.390625 -0.890625q-0.5625 -0.59375 -0.859375 -1.484375q-0.296875 -0.90625 -0.296875 -2.109375q0 -1.09375 0.3125 -2.0q0.3125 -0.90625 0.890625 -1.53125q0.59375 -0.640625 1.4375 -0.984375q0.859375 -0.359375 1.921875 -0.359375q1.046875 0 1.84375 0.3125q0.8125 0.296875 1.375 0.90625q0.578125 0.59375 0.859375 1.484375q0.296875 0.890625 0.296875 2.046875zm-2.3125 0.0625q0 -1.4375 -0.546875 -2.15625q-0.53125 -0.734375 -1.59375 -0.734375q-0.578125 0 -0.984375 0.234375q-0.40625 0.21875 -0.671875 0.625q-0.265625 0.390625 -0.390625 0.921875q-0.125 0.515625 -0.125 1.125q0 1.453125 0.578125 2.1875q0.59375 0.71875 1.59375 0.71875q0.5625 0 0.96875 -0.21875q0.40625 -0.21875 0.65625 -0.609375q0.265625 -0.40625 0.390625 -0.9375q0.125 -0.546875 0.125 -1.15625zm11.882263 4.546875q-0.609375 0.140625 -1.21875 0.21875q-0.609375 0.078125 -1.15625 0.078125q-0.90625 0 -1.578125 -0.1875q-0.65625 -0.1875 -1.09375 -0.578125q-0.421875 -0.390625 -0.625 -1.0q-0.203125 -0.609375 -0.203125 -1.4375l0 -4.53125l-2.5 0l0 -1.71875l2.5 0l0 -2.375l2.265625 -0.59375l0 2.96875l3.609375 0l0 1.71875l-3.609375 0l0 4.359375q0 0.796875 0.359375 1.203125q0.375 0.40625 1.234375 0.40625q0.546875 0 1.0625 -0.09375q0.515625 -0.09375 0.953125 -0.21875l0 1.78125zm10.679199 -5.25q0 0.234375 -0.015625 0.609375q-0.015625 0.359375 -0.03125 0.671875l-6.09375 0q0 0.609375 0.1875 1.078125q0.1875 0.46875 0.53125 0.78125q0.34375 0.3125 0.8125 0.484375q0.484375 0.15625 1.0625 0.15625q0.671875 0 1.4375 -0.109375q0.78125 -0.109375 1.609375 -0.34375l0 1.765625q-0.359375 0.109375 -0.78125 0.1875q-0.40625 0.078125 -0.84375 0.140625q-0.4375 0.0625 -0.890625 0.09375q-0.453125 0.03125 -0.859375 0.03125q-1.0625 0 -1.90625 -0.296875q-0.828125 -0.296875 -1.421875 -0.875q-0.578125 -0.59375 -0.890625 -1.453125q-0.3125 -0.875 -0.3125 -2.015625q0 -1.125 0.3125 -2.046875q0.3125 -0.9375 0.875 -1.59375q0.5625 -0.65625 1.375 -1.015625q0.8125 -0.359375 1.796875 -0.359375q0.984375 0 1.734375 0.3125q0.765625 0.296875 1.265625 0.84375q0.515625 0.546875 0.78125 1.3125q0.265625 0.75 0.265625 1.640625zm-2.265625 -0.3125q0.015625 -0.546875 -0.140625 -0.953125q-0.140625 -0.40625 -0.390625 -0.671875q-0.25 -0.265625 -0.578125 -0.390625q-0.328125 -0.125 -0.71875 -0.125q-0.828125 0 -1.375 0.5625q-0.53125 0.5625 -0.640625 1.578125l3.84375 0z" fill-rule="nonzero"/><path fill="#000000" fill-opacity="0.0" d="m412.5612 483.77432l224.50394 -1.7637634" fill-rule="evenodd"/><path stroke="#000000" stroke-width="1.0" stroke-linejoin="round" stroke-linecap="butt" d="m412.5612 483.77432l218.50412 -1.7166748" fill-rule="evenodd"/><path fill="#000000" stroke="#000000" stroke-width="1.0" stroke-linecap="butt" d="m631.0783 483.70935l4.5249634 -1.6873169l-4.5509644 -1.6160278z" fill-rule="evenodd"/><path fill="#ffffff" d="m112.49869 134.57765l300.063 0l0 151.77953l-300.063 0z" fill-rule="evenodd"/><path stroke="#000000" stroke-width="1.0" stroke-linejoin="round" stroke-linecap="butt" d="m112.49869 134.57765l300.063 0l0 151.77953l-300.063 0z" fill-rule="evenodd"/><path fill="#ffffff" d="m637.0569 132.68506l300.063 0l0 151.77954l-300.063 0z" fill-rule="evenodd"/><path stroke="#000000" stroke-width="1.0" stroke-linejoin="round" stroke-linecap="butt" d="m637.0569 132.68506l300.063 0l0 151.77954l-300.063 0z" fill-rule="evenodd"/><path fill="#f4cccc" d="m700.0262 162.69643l183.62207 0l0 48.503937l-183.62207 0z" fill-rule="evenodd"/><path fill="#000000" d="m770.03424 193.8684l5.125 -13.359375l1.90625 0l5.46875 13.359375l-2.015625 0l-1.546875 -4.046875l-5.59375 0l-1.46875 4.046875l-1.875 0zm3.859375 -5.484375l4.53125 0l-1.40625 -3.703125q-0.625 -1.6875 -0.9375 -2.765625q-0.265625 1.28125 -0.71875 2.546875l-1.46875 3.921875zm16.162354 1.9375l1.609375 0.21875q-0.265625 1.65625 -1.359375 2.609375q-1.078125 0.9375 -2.671875 0.9375q-1.984375 0 -3.1875 -1.296875q-1.203125 -1.296875 -1.203125 -3.71875q0 -1.578125 0.515625 -2.75q0.515625 -1.171875 1.578125 -1.75q1.0625 -0.59375 2.3125 -0.59375q1.578125 0 2.578125 0.796875q1.0 0.796875 1.28125 2.265625l-1.59375 0.234375q-0.234375 -0.96875 -0.8125 -1.453125q-0.578125 -0.5 -1.390625 -0.5q-1.234375 0 -2.015625 0.890625q-0.78125 0.890625 -0.78125 2.8125q0 1.953125 0.75 2.84375q0.75 0.875 1.953125 0.875q0.96875 0 1.609375 -0.59375q0.65625 -0.59375 0.828125 -1.828125zm6.59375 2.078125l0.234375 1.453125q-0.6875 0.140625 -1.234375 0.140625q-0.890625 0 -1.390625 -0.28125q-0.484375 -0.28125 -0.6875 -0.734375q-0.203125 -0.46875 -0.203125 -1.9375l0 -5.578125l-1.203125 0l0 -1.265625l1.203125 0l0 -2.390625l1.625 -0.984375l0 3.375l1.65625 0l0 1.265625l-1.65625 0l0 5.671875q0 0.6875 0.078125 0.890625q0.09375 0.203125 0.28125 0.328125q0.203125 0.109375 0.578125 0.109375q0.265625 0 0.71875 -0.0625zm0.9957886 -3.375q0 -2.6875 1.484375 -3.96875q1.25 -1.078125 3.046875 -1.078125q2.0 0 3.265625 1.3125q1.265625 1.296875 1.265625 3.609375q0 1.859375 -0.5625 2.9375q-0.5625 1.0625 -1.640625 1.65625q-1.0625 0.59375 -2.328125 0.59375q-2.03125 0 -3.28125 -1.296875q-1.25 -1.3125 -1.25 -3.765625zm1.6875 0q0 1.859375 0.796875 2.796875q0.8125 0.921875 2.046875 0.921875q1.21875 0 2.03125 -0.921875q0.8125 -0.9375 0.8125 -2.84375q0 -1.796875 -0.8125 -2.71875q-0.8125 -0.921875 -2.03125 -0.921875q-1.234375 0 -2.046875 0.921875q-0.796875 0.90625 -0.796875 2.765625zm9.281982 4.84375l0 -9.671875l1.46875 0l0 1.46875q0.5625 -1.03125 1.03125 -1.359375q0.484375 -0.328125 1.0625 -0.328125q0.828125 0 1.6875 0.53125l-0.5625 1.515625q-0.609375 -0.359375 -1.203125 -0.359375q-0.546875 0 -0.96875 0.328125q-0.421875 0.328125 -0.609375 0.890625q-0.28125 0.875 -0.28125 1.921875l0 5.0625l-1.625 0z" fill-rule="nonzero"/><path fill="#000000" fill-opacity="0.0" d="m412.56168 178.46742l224.50394 -1.8897705" fill-rule="evenodd"/><path stroke="#000000" stroke-width="1.0" stroke-linejoin="round" stroke-linecap="butt" d="m412.56168 178.46742l218.50412 -1.8392639" fill-rule="evenodd"/><path fill="#000000" stroke="#000000" stroke-width="1.0" stroke-linecap="butt" d="m631.0797 178.27983l4.524048 -1.6898651l-4.551819 -1.6134796z" fill-rule="evenodd"/><path fill="#000000" fill-opacity="0.0" d="m412.00626 137.15533l224.50394 0l0 33.102356l-224.50394 0z" fill-rule="evenodd"/><path fill="#000000" d="m428.06876 164.07533l-0.046875 -1.21875q-0.296875 0.3125 -0.625 0.578125q-0.3125 0.265625 -0.703125 0.453125q-0.375 0.1875 -0.828125 0.28125q-0.4375 0.109375 -0.984375 0.109375q-0.703125 0 -1.25 -0.203125q-0.53125 -0.203125 -0.90625 -0.578125q-0.359375 -0.375 -0.546875 -0.90625q-0.171875 -0.53125 -0.171875 -1.171875q0 -0.65625 0.265625 -1.203125q0.28125 -0.5625 0.84375 -0.953125q0.578125 -0.40625 1.421875 -0.625q0.859375 -0.234375 2.0 -0.234375l1.21875 0l0 -0.5625q0 -0.359375 -0.109375 -0.640625q-0.09375 -0.28125 -0.3125 -0.484375q-0.21875 -0.203125 -0.578125 -0.3125q-0.359375 -0.109375 -0.875 -0.109375q-0.828125 0 -1.625 0.1875q-0.796875 0.1875 -1.53125 0.53125l0 -1.78125q0.65625 -0.265625 1.53125 -0.4375q0.875 -0.171875 1.8125 -0.171875q1.015625 0 1.75 0.203125q0.75 0.1875 1.21875 0.578125q0.484375 0.390625 0.703125 0.984375q0.234375 0.578125 0.234375 1.359375l0 6.328125l-1.90625 0zm-0.3125 -4.09375l-1.359375 0q-0.5625 0 -0.953125 0.109375q-0.390625 0.109375 -0.640625 0.3125q-0.25 0.1875 -0.359375 0.4375q-0.109375 0.25 -0.109375 0.53125q0 0.5625 0.359375 0.859375q0.359375 0.296875 1.0 0.296875q0.453125 0 0.953125 -0.328125q0.515625 -0.34375 1.109375 -0.96875l0 -1.25zm12.257294 3.734375q-0.65625 0.265625 -1.359375 0.390625q-0.6875 0.125 -1.453125 0.125q-1.109375 0 -1.984375 -0.296875q-0.875 -0.296875 -1.484375 -0.890625q-0.609375 -0.59375 -0.9375 -1.46875q-0.3125 -0.875 -0.3125 -2.015625q0 -1.109375 0.34375 -2.015625q0.34375 -0.90625 0.984375 -1.53125q0.640625 -0.640625 1.53125 -0.984375q0.90625 -0.359375 2.0 -0.359375q0.90625 0 1.515625 0.109375q0.625 0.09375 1.109375 0.234375l0 2.15625q-0.5625 -0.28125 -1.21875 -0.4375q-0.65625 -0.15625 -1.25 -0.15625q-0.625 0 -1.125 0.21875q-0.484375 0.203125 -0.828125 0.578125q-0.328125 0.375 -0.515625 0.90625q-0.171875 0.53125 -0.171875 1.171875q0 0.65625 0.1875 1.1875q0.203125 0.53125 0.546875 0.90625q0.359375 0.359375 0.84375 0.5625q0.5 0.1875 1.09375 0.1875q0.296875 0 0.609375 -0.03125q0.328125 -0.046875 0.65625 -0.125q0.328125 -0.078125 0.640625 -0.171875q0.3125 -0.109375 0.578125 -0.21875l0 1.96875zm10.413544 0.265625q-0.609375 0.140625 -1.21875 0.21875q-0.609375 0.078125 -1.15625 0.078125q-0.90625 0 -1.578125 -0.1875q-0.65625 -0.1875 -1.09375 -0.578125q-0.421875 -0.390625 -0.625 -1.0q-0.203125 -0.609375 -0.203125 -1.4375l0 -4.53125l-2.5 0l0 -1.71875l2.5 0l0 -2.375l2.265625 -0.59375l0 2.96875l3.609375 0l0 1.71875l-3.609375 0l0 4.359375q0 0.796875 0.359375 1.203125q0.375 0.40625 1.234375 0.40625q0.546875 0 1.0625 -0.09375q0.515625 -0.09375 0.953125 -0.21875l0 1.78125zm10.944794 -4.609375q0 1.09375 -0.3125 2.0q-0.296875 0.90625 -0.890625 1.5625q-0.578125 0.640625 -1.421875 1.0q-0.84375 0.34375 -1.9375 0.34375q-1.015625 0 -1.828125 -0.296875q-0.8125 -0.296875 -1.390625 -0.890625q-0.5625 -0.59375 -0.859375 -1.484375q-0.296875 -0.90625 -0.296875 -2.109375q0 -1.09375 0.3125 -2.0q0.3125 -0.90625 0.890625 -1.53125q0.59375 -0.640625 1.4375 -0.984375q0.859375 -0.359375 1.921875 -0.359375q1.046875 0 1.84375 0.3125q0.8125 0.296875 1.375 0.90625q0.578125 0.59375 0.859375 1.484375q0.296875 0.890625 0.296875 2.046875zm-2.3125 0.0625q0 -1.4375 -0.546875 -2.15625q-0.53125 -0.734375 -1.59375 -0.734375q-0.578125 0 -0.984375 0.234375q-0.40625 0.21875 -0.671875 0.625q-0.265625 0.390625 -0.390625 0.921875q-0.125 0.515625 -0.125 1.125q0 1.453125 0.578125 2.1875q0.59375 0.71875 1.59375 0.71875q0.5625 0 0.96875 -0.21875q0.40625 -0.21875 0.65625 -0.609375q0.265625 -0.40625 0.390625 -0.9375q0.125 -0.546875 0.125 -1.15625zm10.194794 -1.015625q0.015625 -0.515625 -0.046875 -0.875q-0.0625 -0.375 -0.21875 -0.609375q-0.140625 -0.234375 -0.359375 -0.34375q-0.21875 -0.109375 -0.515625 -0.109375q-0.484375 0 -1.015625 0.40625q-0.515625 0.40625 -1.140625 1.328125l0 5.859375l-2.28125 0l0 -9.25l2.015625 0l0.078125 1.34375q0.234375 -0.359375 0.515625 -0.640625q0.28125 -0.28125 0.625 -0.484375q0.359375 -0.203125 0.78125 -0.3125q0.4375 -0.109375 0.953125 -0.109375q0.703125 0 1.234375 0.25q0.546875 0.234375 0.90625 0.703125q0.375 0.46875 0.546875 1.1875q0.1875 0.71875 0.15625 1.65625l-2.234375 0zm8.116669 2.296875q0.375 0 0.703125 0.140625q0.328125 0.140625 0.5625 0.390625q0.25 0.234375 0.390625 0.5625q0.140625 0.328125 0.140625 0.703125q0 0.359375 -0.140625 0.6875q-0.140625 0.3125 -0.390625 0.5625q-0.234375 0.234375 -0.5625 0.375q-0.328125 0.140625 -0.703125 0.140625q-0.375 0 -0.6875 -0.140625q-0.3125 -0.140625 -0.5625 -0.375q-0.234375 -0.25 -0.375 -0.5625q-0.125 -0.328125 -0.125 -0.6875q0 -0.375 0.125 -0.703125q0.140625 -0.328125 0.375 -0.5625q0.25 -0.25 0.5625 -0.390625q0.3125 -0.140625 0.6875 -0.140625zm13.929169 3.0q-0.65625 0.265625 -1.359375 0.390625q-0.6875 0.125 -1.453125 0.125q-1.109375 0 -1.984375 -0.296875q-0.875 -0.296875 -1.484375 -0.890625q-0.609375 -0.59375 -0.9375 -1.46875q-0.3125 -0.875 -0.3125 -2.015625q0 -1.109375 0.34375 -2.015625q0.34375 -0.90625 0.984375 -1.53125q0.640625 -0.640625 1.53125 -0.984375q0.90625 -0.359375 2.0 -0.359375q0.90625 0 1.515625 0.109375q0.625 0.09375 1.109375 0.234375l0 2.15625q-0.5625 -0.28125 -1.21875 -0.4375q-0.65625 -0.15625 -1.25 -0.15625q-0.625 0 -1.125 0.21875q-0.484375 0.203125 -0.828125 0.578125q-0.328125 0.375 -0.515625 0.90625q-0.171875 0.53125 -0.171875 1.171875q0 0.65625 0.1875 1.1875q0.203125 0.53125 0.546875 0.90625q0.359375 0.359375 0.84375 0.5625q0.5 0.1875 1.09375 0.1875q0.296875 0 0.609375 -0.03125q0.328125 -0.046875 0.65625 -0.125q0.328125 -0.078125 0.640625 -0.171875q0.3125 -0.109375 0.578125 -0.21875l0 1.96875zm8.569794 0.359375l-0.046875 -1.21875q-0.296875 0.3125 -0.625 0.578125q-0.3125 0.265625 -0.703125 0.453125q-0.375 0.1875 -0.828125 0.28125q-0.4375 0.109375 -0.984375 0.109375q-0.703125 0 -1.25 -0.203125q-0.53125 -0.203125 -0.90625 -0.578125q-0.359375 -0.375 -0.546875 -0.90625q-0.171875 -0.53125 -0.171875 -1.171875q0 -0.65625 0.265625 -1.203125q0.28125 -0.5625 0.84375 -0.953125q0.578125 -0.40625 1.421875 -0.625q0.859375 -0.234375 2.0 -0.234375l1.21875 0l0 -0.5625q0 -0.359375 -0.109375 -0.640625q-0.09375 -0.28125 -0.3125 -0.484375q-0.21875 -0.203125 -0.578125 -0.3125q-0.359375 -0.109375 -0.875 -0.109375q-0.828125 0 -1.625 0.1875q-0.796875 0.1875 -1.53125 0.53125l0 -1.78125q0.65625 -0.265625 1.53125 -0.4375q0.875 -0.171875 1.8125 -0.171875q1.015625 0 1.75 0.203125q0.75 0.1875 1.21875 0.578125q0.484375 0.390625 0.703125 0.984375q0.234375 0.578125 0.234375 1.359375l0 6.328125l-1.90625 0zm-0.3125 -4.09375l-1.359375 0q-0.5625 0 -0.953125 0.109375q-0.390625 0.109375 -0.640625 0.3125q-0.25 0.1875 -0.359375 0.4375q-0.109375 0.25 -0.109375 0.53125q0 0.5625 0.359375 0.859375q0.359375 0.296875 1.0 0.296875q0.453125 0 0.953125 -0.328125q0.515625 -0.34375 1.109375 -0.96875l0 -1.25zm7.7572937 -7.046875l-2.609375 0l0 -1.734375l4.890625 0l0 11.140625l2.6718445 0l0 1.734375l-7.8749695 0l0 -1.734375l2.921875 0l0 -9.40625zm10.257294 0l-2.609375 0l0 -1.734375l4.890625 0l0 11.140625l2.671875 0l0 1.734375l-7.875 0l0 -1.734375l2.921875 0l0 -9.40625zm11.085388 7.78125q0.375 0 0.703125 0.140625q0.328125 0.140625 0.5625 0.390625q0.25 0.234375 0.390625 0.5625q0.140625 0.328125 0.140625 0.703125q0 0.359375 -0.140625 0.6875q-0.140625 0.3125 -0.390625 0.5625q-0.234375 0.234375 -0.5625 0.375q-0.328125 0.140625 -0.703125 0.140625q-0.375 0 -0.6875 -0.140625q-0.3125 -0.140625 -0.5625 -0.375q-0.234375 -0.25 -0.375 -0.5625q-0.125 -0.328125 -0.125 -0.6875q0 -0.375 0.125 -0.703125q0.140625 -0.328125 0.375 -0.5625q0.25 -0.25 0.5625 -0.390625q0.3125 -0.140625 0.6875 -0.140625zm12.397949 -2.296875q0.015625 -0.515625 -0.046875 -0.875q-0.0625 -0.375 -0.21875 -0.609375q-0.140625 -0.234375 -0.359375 -0.34375q-0.21875 -0.109375 -0.515625 -0.109375q-0.484375 0 -1.015625 0.40625q-0.515625 0.40625 -1.140625 1.328125l0 5.859375l-2.28125 0l0 -9.25l2.015625 0l0.078125 1.34375q0.234375 -0.359375 0.515625 -0.640625q0.28125 -0.28125 0.625 -0.484375q0.359375 -0.203125 0.78125 -0.3125q0.4375 -0.109375 0.953125 -0.109375q0.703125 0 1.234375 0.25q0.546875 0.234375 0.90625 0.703125q0.375 0.46875 0.546875 1.1875q0.1875 0.71875 0.15625 1.65625l-2.234375 0zm12.366638 0.3125q0 0.234375 -0.015625 0.609375q-0.015625 0.359375 -0.03125 0.671875l-6.09375 0q0 0.609375 0.1875 1.078125q0.1875 0.46875 0.53125 0.78125q0.34375 0.3125 0.8125 0.484375q0.484375 0.15625 1.0625 0.15625q0.671875 0 1.4375 -0.109375q0.78125 -0.109375 1.609375 -0.34375l0 1.765625q-0.359375 0.109375 -0.78125 0.1875q-0.40625 0.078125 -0.84375 0.140625q-0.4375 0.0625 -0.890625 0.09375q-0.453125 0.03125 -0.859375 0.03125q-1.0625 0 -1.90625 -0.296875q-0.828125 -0.296875 -1.421875 -0.875q-0.578125 -0.59375 -0.890625 -1.453125q-0.3125 -0.875 -0.3125 -2.015625q0 -1.125 0.3125 -2.046875q0.3125 -0.9375 0.875 -1.59375q0.5625 -0.65625 1.375 -1.015625q0.8125 -0.359375 1.796875 -0.359375q0.984375 0 1.734375 0.3125q0.765625 0.296875 1.265625 0.84375q0.515625 0.546875 0.78125 1.3125q0.265625 0.75 0.265625 1.640625zm-2.265625 -0.3125q0.015625 -0.546875 -0.140625 -0.953125q-0.140625 -0.40625 -0.390625 -0.671875q-0.25 -0.265625 -0.578125 -0.390625q-0.328125 -0.125 -0.71875 -0.125q-0.828125 0 -1.375 0.5625q-0.53125 0.5625 -0.640625 1.578125l3.84375 0zm10.991699 5.65625l0 -6.296875q0 -0.359375 -0.015625 -0.609375q-0.015625 -0.265625 -0.078125 -0.4375q-0.046875 -0.171875 -0.15625 -0.25q-0.109375 -0.09375 -0.28125 -0.09375q-0.28125 0 -0.5625 0.390625q-0.265625 0.375 -0.625 1.296875l0 6.0l-1.890625 0l0 -6.296875q0 -0.359375 -0.03125 -0.609375q-0.015625 -0.265625 -0.078125 -0.4375q-0.046875 -0.171875 -0.15625 -0.25q-0.109375 -0.09375 -0.28125 -0.09375q-0.25 0 -0.546875 0.390625q-0.28125 0.375 -0.640625 1.296875l0 6.0l-1.921875 0l0 -9.25l1.65625 0l0.03125 1.34375q0.203125 -0.40625 0.40625 -0.703125q0.203125 -0.296875 0.421875 -0.484375q0.234375 -0.1875 0.484375 -0.265625q0.265625 -0.078125 0.59375 -0.078125q0.78125 0 1.1875 0.40625q0.40625 0.40625 0.453125 1.125q0.21875 -0.40625 0.421875 -0.703125q0.21875 -0.296875 0.453125 -0.484375q0.234375 -0.1875 0.5 -0.265625q0.28125 -0.078125 0.609375 -0.078125q1.0 0 1.484375 0.703125q0.484375 0.703125 0.484375 2.09375l0 6.640625l-1.921875 0zm12.054138 -4.703125q0 1.09375 -0.3125 2.0q-0.296875 0.90625 -0.890625 1.5625q-0.578125 0.640625 -1.421875 1.0q-0.84375 0.34375 -1.9375 0.34375q-1.015625 0 -1.828125 -0.296875q-0.8125 -0.296875 -1.390625 -0.890625q-0.5625 -0.59375 -0.859375 -1.484375q-0.296875 -0.90625 -0.296875 -2.109375q0 -1.09375 0.3125 -2.0q0.3125 -0.90625 0.890625 -1.53125q0.59375 -0.640625 1.4375 -0.984375q0.859375 -0.359375 1.921875 -0.359375q1.046875 0 1.84375 0.3125q0.8125 0.296875 1.375 0.90625q0.578125 0.59375 0.859375 1.484375q0.296875 0.890625 0.296875 2.046875zm-2.3125 0.0625q0 -1.4375 -0.546875 -2.15625q-0.53125 -0.734375 -1.59375 -0.734375q-0.578125 0 -0.984375 0.234375q-0.40625 0.21875 -0.671875 0.625q-0.265625 0.390625 -0.390625 0.921875q-0.125 0.515625 -0.125 1.125q0 1.453125 0.578125 2.1875q0.59375 0.71875 1.59375 0.71875q0.5625 0 0.96875 -0.21875q0.40625 -0.21875 0.65625 -0.609375q0.265625 -0.40625 0.390625 -0.9375q0.125 -0.546875 0.125 -1.15625zm11.882324 4.546875q-0.609375 0.140625 -1.21875 0.21875q-0.609375 0.078125 -1.15625 0.078125q-0.90625 0 -1.578125 -0.1875q-0.65625 -0.1875 -1.09375 -0.578125q-0.421875 -0.390625 -0.625 -1.0q-0.203125 -0.609375 -0.203125 -1.4375l0 -4.53125l-2.5 0l0 -1.71875l2.5 0l0 -2.375l2.265625 -0.59375l0 2.96875l3.609375 0l0 1.71875l-3.609375 0l0 4.359375q0 0.796875 0.359375 1.203125q0.375 0.40625 1.234375 0.40625q0.546875 0 1.0625 -0.09375q0.515625 -0.09375 0.953125 -0.21875l0 1.78125zm10.679138 -5.25q0 0.234375 -0.015625 0.609375q-0.015625 0.359375 -0.03125 0.671875l-6.09375 0q0 0.609375 0.1875 1.078125q0.1875 0.46875 0.53125 0.78125q0.34375 0.3125 0.8125 0.484375q0.484375 0.15625 1.0625 0.15625q0.671875 0 1.4375 -0.109375q0.78125 -0.109375 1.609375 -0.34375l0 1.765625q-0.359375 0.109375 -0.78125 0.1875q-0.40625 0.078125 -0.84375 0.140625q-0.4375 0.0625 -0.890625 0.09375q-0.453125 0.03125 -0.859375 0.03125q-1.0625 0 -1.90625 -0.296875q-0.828125 -0.296875 -1.421875 -0.875q-0.578125 -0.59375 -0.890625 -1.453125q-0.3125 -0.875 -0.3125 -2.015625q0 -1.125 0.3125 -2.046875q0.3125 -0.9375 0.875 -1.59375q0.5625 -0.65625 1.375 -1.015625q0.8125 -0.359375 1.796875 -0.359375q0.984375 0 1.734375 0.3125q0.765625 0.296875 1.265625 0.84375q0.515625 0.546875 0.78125 1.3125q0.265625 0.75 0.265625 1.640625zm-2.265625 -0.3125q0.015625 -0.546875 -0.140625 -0.953125q-0.140625 -0.40625 -0.390625 -0.671875q-0.25 -0.265625 -0.578125 -0.390625q-0.328125 -0.125 -0.71875 -0.125q-0.828125 0 -1.375 0.5625q-0.53125 0.5625 -0.640625 1.578125l3.84375 0z" fill-rule="nonzero"/><path fill="#000000" fill-opacity="0.0" d="m412.55817 189.47305l224.5039 -1.9212494" fill-rule="evenodd"/><path stroke="#000000" stroke-width="1.0" stroke-linejoin="round" stroke-linecap="butt" d="m412.55817 189.47305l218.50415 -1.8699188" fill-rule="evenodd"/><path fill="#000000" stroke="#000000" stroke-width="1.0" stroke-linecap="butt" d="m631.0764 189.2548l4.5238037 -1.690506l-4.552063 -1.6128387z" fill-rule="evenodd"/><path fill="#000000" fill-opacity="0.0" d="m412.55817 200.46959l224.5039 -1.9212494" fill-rule="evenodd"/><path stroke="#000000" stroke-width="1.0" stroke-linejoin="round" stroke-linecap="butt" d="m412.55817 200.46959l218.50415 -1.8699188" fill-rule="evenodd"/><path fill="#000000" stroke="#000000" stroke-width="1.0" stroke-linecap="butt" d="m631.0764 200.25134l4.5238037 -1.690506l-4.552063 -1.6128387z" fill-rule="evenodd"/><path fill="#000000" fill-opacity="0.0" d="m412.55817 211.67294l224.5039 -2.6771698" fill-rule="evenodd"/><path stroke="#000000" stroke-width="1.0" stroke-linejoin="round" stroke-linecap="butt" d="m412.55817 211.67294l218.50433 -2.6056213" fill-rule="evenodd"/><path fill="#000000" stroke="#000000" stroke-width="1.0" stroke-linecap="butt" d="m631.0822 210.71893l4.5180664 -1.705719l-4.557434 -1.5975037z" fill-rule="evenodd"/><path fill="#d9ead3" d="m194.36572 499.55215l14.236221 -14.332397l0 7.1181335l0 0c49.122513 -0.66534424 91.69328 -4.7070312 111.44902 -10.581024l0 0c17.49469 5.2016907 14.819336 11.174316 -7.2019043 16.077942c-22.02121 4.903656 -60.746735 8.150116 -104.247116 8.739288l0 7.118103z" fill-rule="evenodd"/><path fill="#adbba8" d="m331.49957 488.87497c0 -9.828064 -61.39691 -17.795258 -137.13385 -17.795258l0 -14.236237l0 0c75.73694 0 137.13385 7.967224 137.13385 17.795288z" fill-rule="evenodd"/><path fill="#000000" fill-opacity="0.0" d="m331.49957 488.87497c0 -9.828064 -61.39691 -17.795258 -137.13385 -17.795258l0 -14.236237l0 0c75.73694 0 137.13385 7.967224 137.13385 17.795288l0 14.236206c0 9.112854 -53.051636 16.753113 -122.89763 17.699127l0 7.118103l-14.236221 -14.140045l14.236221 -14.332397l0 7.1181335l0 0c49.122513 -0.66534424 91.69328 -4.7070312 111.44902 -10.581024" fill-rule="evenodd"/><path stroke="#000000" stroke-width="1.0" stroke-linejoin="round" stroke-linecap="butt" d="m331.49957 488.87497c0 -9.828064 -61.39691 -17.795258 -137.13385 -17.795258l0 -14.236237l0 0c75.73694 0 137.13385 7.967224 137.13385 17.795288l0 14.236206c0 9.112854 -53.051636 16.753113 -122.89763 17.699127l0 7.118103l-14.236221 -14.140045l14.236221 -14.332397l0 7.1181335l0 0c49.122513 -0.66534424 91.69328 -4.7070312 111.44902 -10.581024" fill-rule="evenodd"/><path fill="#000000" fill-opacity="0.0" d="m202.36572 422.54224l224.50394 0l0 30.330688l-224.50394 0z" fill-rule="evenodd"/><path fill="#000000" d="m218.58447 443.80597q0.015625 -0.515625 -0.046875 -0.875q-0.0625 -0.375 -0.21875 -0.609375q-0.140625 -0.234375 -0.359375 -0.34375q-0.21875 -0.109375 -0.515625 -0.109375q-0.484375 0 -1.015625 0.40625q-0.515625 0.40625 -1.140625 1.328125l0 5.859375l-2.28125 0l0 -9.25l2.015625 0l0.078125 1.34375q0.234375 -0.359375 0.515625 -0.640625q0.28125 -0.28125 0.625 -0.484375q0.359375 -0.203125 0.78125 -0.3125q0.4375 -0.109375 0.953125 -0.109375q0.703125 0 1.234375 0.25q0.546875 0.234375 0.90625 0.703125q0.375 0.46875 0.546875 1.1875q0.1875 0.71875 0.15625 1.65625l-2.234375 0zm10.101044 5.65625l-0.046875 -1.21875q-0.296875 0.3125 -0.625 0.578125q-0.3125 0.265625 -0.703125 0.453125q-0.375 0.1875 -0.828125 0.28125q-0.4375 0.109375 -0.984375 0.109375q-0.703125 0 -1.25 -0.203125q-0.53125 -0.203125 -0.90625 -0.578125q-0.359375 -0.375 -0.546875 -0.90625q-0.171875 -0.53125 -0.171875 -1.171875q0 -0.65625 0.265625 -1.203125q0.28125 -0.5625 0.84375 -0.953125q0.578125 -0.40625 1.421875 -0.625q0.859375 -0.234375 2.0 -0.234375l1.21875 0l0 -0.5625q0 -0.359375 -0.109375 -0.640625q-0.09375 -0.28125 -0.3125 -0.484375q-0.21875 -0.203125 -0.578125 -0.3125q-0.359375 -0.109375 -0.875 -0.109375q-0.828125 0 -1.625 0.1875q-0.796875 0.1875 -1.53125 0.53125l0 -1.78125q0.65625 -0.265625 1.53125 -0.4375q0.875 -0.171875 1.8125 -0.171875q1.015625 0 1.75 0.203125q0.75 0.1875 1.21875 0.578125q0.484375 0.390625 0.703125 0.984375q0.234375 0.578125 0.234375 1.359375l0 6.328125l-1.90625 0zm-0.3125 -4.09375l-1.359375 0q-0.5625 0 -0.953125 0.109375q-0.390625 0.109375 -0.640625 0.3125q-0.25 0.1875 -0.359375 0.4375q-0.109375 0.25 -0.109375 0.53125q0 0.5625 0.359375 0.859375q0.359375 0.296875 1.0 0.296875q0.453125 0 0.953125 -0.328125q0.515625 -0.34375 1.109375 -0.96875l0 -1.25zm10.335419 3.078125q-0.484375 1.203125 -1.015625 2.109375q-0.515625 0.90625 -1.140625 1.515625q-0.625 0.609375 -1.40625 0.90625q-0.765625 0.3125 -1.71875 0.3125q-0.21875 0 -0.5 -0.03125q-0.265625 -0.015625 -0.546875 -0.0625l0 -1.890625q0.109375 0.03125 0.25 0.046875q0.140625 0.015625 0.296875 0.03125q0.15625 0.015625 0.3125 0.015625q0.15625 0.015625 0.296875 0.015625q0.390625 0 0.71875 -0.140625q0.328125 -0.140625 0.59375 -0.40625q0.28125 -0.265625 0.5 -0.625q0.234375 -0.359375 0.40625 -0.78125l-3.671875 -9.25l2.484375 0l1.921875 5.234375l0.578125 1.703125l0.5625 -1.625l1.9375 -5.3125l2.390625 0l-3.25 8.234375zm8.507294 -2.34375q0.375 0 0.703125 0.140625q0.328125 0.140625 0.5625 0.390625q0.25 0.234375 0.390625 0.5625q0.140625 0.328125 0.140625 0.703125q0 0.359375 -0.140625 0.6875q-0.140625 0.3125 -0.390625 0.5625q-0.234375 0.234375 -0.5625 0.375q-0.328125 0.140625 -0.703125 0.140625q-0.375 0 -0.6875 -0.140625q-0.3125 -0.140625 -0.5625 -0.375q-0.234375 -0.25 -0.375 -0.5625q-0.125 -0.328125 -0.125 -0.6875q0 -0.375 0.125 -0.703125q0.140625 -0.328125 0.375 -0.5625q0.25 -0.25 0.5625 -0.390625q0.3125 -0.140625 0.6875 -0.140625zm14.038544 3.359375l-2.46875 0l-0.984375 -2.9375l-0.296875 -1.015625l-0.296875 1.046875l-0.953125 2.90625l-2.46875 0l-1.3125 -9.25l2.109375 0l0.65625 5.21875l0.15625 1.4375l0.375 -1.28125l0.9375 -2.828125l1.6875 0l1.0 2.796875l0.421875 1.328125l0.171875 -1.46875l0.5625 -5.203125l2.015625 0l-1.3125 9.25zm8.460419 0l-0.046875 -1.21875q-0.296875 0.3125 -0.625 0.578125q-0.3125 0.265625 -0.703125 0.453125q-0.375 0.1875 -0.828125 0.28125q-0.4375 0.109375 -0.984375 0.109375q-0.703125 0 -1.25 -0.203125q-0.53125 -0.203125 -0.90625 -0.578125q-0.359375 -0.375 -0.546875 -0.90625q-0.171875 -0.53125 -0.171875 -1.171875q0 -0.65625 0.265625 -1.203125q0.28125 -0.5625 0.84375 -0.953125q0.578125 -0.40625 1.421875 -0.625q0.859375 -0.234375 2.0 -0.234375l1.21875 0l0 -0.5625q0 -0.359375 -0.109375 -0.640625q-0.09375 -0.28125 -0.3125 -0.484375q-0.21875 -0.203125 -0.578125 -0.3125q-0.359375 -0.109375 -0.875 -0.109375q-0.828125 0 -1.625 0.1875q-0.796875 0.1875 -1.53125 0.53125l0 -1.78125q0.65625 -0.265625 1.53125 -0.4375q0.875 -0.171875 1.8125 -0.171875q1.015625 0 1.75 0.203125q0.75 0.1875 1.21875 0.578125q0.484375 0.390625 0.703125 0.984375q0.234375 0.578125 0.234375 1.359375l0 6.328125l-1.90625 0zm-0.3125 -4.09375l-1.359375 0q-0.5625 0 -0.953125 0.109375q-0.390625 0.109375 -0.640625 0.3125q-0.25 0.1875 -0.359375 0.4375q-0.109375 0.25 -0.109375 0.53125q0 0.5625 0.359375 0.859375q0.359375 0.296875 1.0 0.296875q0.453125 0 0.953125 -0.328125q0.515625 -0.34375 1.109375 -0.96875l0 -1.25zm10.226044 -7.6875q0 0.296875 -0.109375 0.5625q-0.109375 0.265625 -0.3125 0.46875q-0.1875 0.1875 -0.453125 0.296875q-0.265625 0.109375 -0.578125 0.109375q-0.3125 0 -0.578125 -0.109375q-0.265625 -0.109375 -0.46875 -0.296875q-0.1875 -0.203125 -0.296875 -0.46875q-0.109375 -0.265625 -0.109375 -0.5625q0 -0.3125 0.109375 -0.5625q0.109375 -0.265625 0.296875 -0.46875q0.203125 -0.203125 0.46875 -0.3125q0.265625 -0.125 0.578125 -0.125q0.3125 0 0.578125 0.125q0.265625 0.109375 0.453125 0.3125q0.203125 0.203125 0.3125 0.46875q0.109375 0.25 0.109375 0.5625zm-2.46875 4.25l-2.609375 0l0 -1.71875l4.890625 0l0 7.515625l2.671875 0l0 1.734375l-7.875 0l0 -1.734375l2.921875 0l0 -5.796875zm14.913544 7.4375q-0.609375 0.140625 -1.21875 0.21875q-0.609375 0.078125 -1.15625 0.078125q-0.90625 0 -1.578125 -0.1875q-0.65625 -0.1875 -1.09375 -0.578125q-0.421875 -0.390625 -0.625 -1.0q-0.203125 -0.609375 -0.203125 -1.4375l0 -4.53125l-2.5 0l0 -1.71875l2.5 0l0 -2.375l2.265625 -0.59375l0 2.96875l3.609375 0l0 1.71875l-3.609375 0l0 4.359375q0 0.796875 0.359375 1.203125q0.375 0.40625 1.234375 0.40625q0.546875 0 1.0625 -0.09375q0.515625 -0.09375 0.953125 -0.21875l0 1.78125z" fill-rule="nonzero"/><path fill="#999999" d="m113.49092 343.9218l814.07874 0l0 2.677185l-814.07874 0z" fill-rule="evenodd"/><path stroke="#666666" stroke-width="1.0" stroke-linejoin="round" stroke-linecap="butt" d="m113.49092 343.9218l814.07874 0l0 2.677185l-814.07874 0z" fill-rule="evenodd"/><path fill="#000000" fill-opacity="0.0" d="m412.55817 222.23593l224.5039 -2.6771698" fill-rule="evenodd"/><path stroke="#000000" stroke-width="1.0" stroke-linejoin="round" stroke-linecap="butt" d="m412.55817 222.23593l218.50433 -2.6056213" fill-rule="evenodd"/><path fill="#000000" stroke="#000000" stroke-width="1.0" stroke-linecap="butt" d="m631.0822 221.28192l4.5180664 -1.705719l-4.557434 -1.5975037z" fill-rule="evenodd"/><path fill="#000000" fill-opacity="0.0" d="m412.55817 232.95378l224.5039 -2.6771698" fill-rule="evenodd"/><path stroke="#000000" stroke-width="1.0" stroke-linejoin="round" stroke-linecap="butt" d="m412.55817 232.95378l218.50433 -2.6056213" fill-rule="evenodd"/><path fill="#000000" stroke="#000000" stroke-width="1.0" stroke-linecap="butt" d="m631.0822 231.99977l4.5180664 -1.705719l-4.557434 -1.5975037z" fill-rule="evenodd"/><path fill="#000000" fill-opacity="0.0" d="m412.55817 243.97478l224.5039 -2.6771698" fill-rule="evenodd"/><path stroke="#000000" stroke-width="1.0" stroke-linejoin="round" stroke-linecap="butt" d="m412.55817 243.97478l218.50433 -2.6056213" fill-rule="evenodd"/><path fill="#000000" stroke="#000000" stroke-width="1.0" stroke-linecap="butt" d="m631.0822 243.02077l4.5180664 -1.705719l-4.557434 -1.5975037z" fill-rule="evenodd"/><path fill="#ffffff" d="m560.86316 216.19577l22.973694 -17.639221l-1.8293457 23.468872l24.036743 -10.582733l-11.231384 13.649887l36.034424 0.45906067l-31.858032 11.200226l8.870544 7.669937l-13.046936 4.1437225l17.237122 13.495514l-29.248657 -5.2080994l2.0847778 12.268677l-19.066467 -5.829651l-3.9210205 11.809601l-12.011475 -5.97995l-8.090515 9.514282l-8.097351 -6.4471436l-18.017273 14.117096l-0.7731323 -13.649902l-24.299072 -1.6859131l14.116943 -9.973358l-22.987488 -10.127747l27.16388 -5.2202606l-19.073395 -13.495514l28.993256 -1.8403015l-6.0057983 -17.029861l27.94397 11.200226l8.090515 -18.260803z" fill-rule="evenodd"/><path stroke="#000000" stroke-width="1.0" stroke-linejoin="round" stroke-linecap="butt" d="m560.86316 216.19577l22.973694 -17.639221l-1.8293457 23.468872l24.036743 -10.582733l-11.231384 13.649887l36.034424 0.45906067l-31.858032 11.200226l8.870544 7.669937l-13.046936 4.1437225l17.237122 13.495514l-29.248657 -5.2080994l2.0847778 12.268677l-19.066467 -5.829651l-3.9210205 11.809601l-12.011475 -5.97995l-8.090515 9.514282l-8.097351 -6.4471436l-18.017273 14.117096l-0.7731323 -13.649902l-24.299072 -1.6859131l14.116943 -9.973358l-22.987488 -10.127747l27.16388 -5.2202606l-19.073395 -13.495514l28.993256 -1.8403015l-6.0057983 -17.029861l27.94397 11.200226l8.090515 -18.260803z" fill-rule="evenodd"/><path fill="#ffe599" d="m527.823 234.88759l35.008972 0l0 17.59999l-35.008972 0l0 -17.59999z" fill-rule="nonzero"/><path fill="#000000" fill-opacity="0.0" d="m527.823 235.69968l35.008972 0l0 16.853256l-35.008972 0l0 -16.853256z" fill-rule="nonzero"/><path fill="#000000" d="m528.4636 243.78009q0 -1.59375 0.46875 -2.6875q0.359375 -0.796875 0.984375 -1.4375q0.625 -0.640625 1.359375 -0.9375q0.984375 -0.421875 2.25 -0.421875q2.328125 0 3.71875 1.4375q1.390625 1.4375 1.390625 4.0q0 2.546875 -1.390625 3.984375q-1.375 1.421875 -3.6875 1.421875q-2.328125 0 -3.71875 -1.421875q-1.375 -1.421875 -1.375 -3.9375zm2.171875 -0.0625q0 1.78125 0.828125 2.703125q0.828125 0.921875 2.09375 0.921875q1.265625 0 2.078125 -0.90625q0.8125 -0.921875 0.8125 -2.75q0 -1.796875 -0.796875 -2.6875q-0.78125 -0.890625 -2.09375 -0.890625q-1.3125 0 -2.125 0.90625q-0.796875 0.890625 -0.796875 2.703125zm9.22821 0.0625q0 -1.59375 0.46875 -2.6875q0.359375 -0.796875 0.984375 -1.4375q0.625 -0.640625 1.359375 -0.9375q0.984375 -0.421875 2.25 -0.421875q2.328125 0 3.71875 1.4375q1.390625 1.4375 1.390625 4.0q0 2.546875 -1.390625 3.984375q-1.375 1.421875 -3.6875 1.421875q-2.328125 0 -3.71875 -1.421875q-1.375 -1.421875 -1.375 -3.9375zm2.171875 -0.0625q0 1.78125 0.828125 2.703125q0.828125 0.921875 2.09375 0.921875q1.265625 0 2.078125 -0.90625q0.8125 -0.921875 0.8125 -2.75q0 -1.796875 -0.796875 -2.6875q-0.78125 -0.890625 -2.09375 -0.890625q-1.3125 0 -2.125 0.90625q-0.796875 0.890625 -0.796875 2.703125zm9.618835 5.25l0 -10.484375l3.171875 0l1.90625 7.15625l1.890625 -7.15625l3.171875 0l0 10.484375l-1.96875 0l0 -8.265625l-2.078125 8.265625l-2.046875 0l-2.078125 -8.265625l0 8.265625l-1.96875 0z" fill-rule="nonzero"/><path fill="#000000" fill-opacity="0.0" d="m562.832 235.69968l0 0l0 16.853256l0 0l0 -16.853256z" fill-rule="nonzero"/><path fill="#000000" fill-opacity="0.0" d="m113.490814 132.69817l111.18111 0l0 42.015747l-111.18111 0z" fill-rule="evenodd"/><path fill="#000000" d="m123.334564 155.32129l1.65625 -0.140625q0.125 1.0 0.546875 1.640625q0.4375 0.640625 1.34375 1.046875q0.921875 0.390625 2.0625 0.390625q1.0 0 1.78125 -0.296875q0.78125 -0.296875 1.15625 -0.8125q0.375 -0.53125 0.375 -1.15625q0 -0.625 -0.375 -1.09375q-0.359375 -0.46875 -1.1875 -0.796875q-0.546875 -0.203125 -2.390625 -0.640625q-1.828125 -0.453125 -2.5625 -0.84375q-0.96875 -0.5 -1.4375 -1.234375q-0.46875 -0.75 -0.46875 -1.671875q0 -1.0 0.578125 -1.875q0.578125 -0.890625 1.671875 -1.34375q1.109375 -0.453125 2.453125 -0.453125q1.484375 0 2.609375 0.484375q1.140625 0.46875 1.75 1.40625q0.609375 0.921875 0.65625 2.09375l-1.6875 0.125q-0.140625 -1.265625 -0.9375 -1.90625q-0.78125 -0.65625 -2.3125 -0.65625q-1.609375 0 -2.34375 0.59375q-0.734375 0.59375 -0.734375 1.421875q0 0.71875 0.53125 1.171875q0.5 0.46875 2.65625 0.96875q2.15625 0.484375 2.953125 0.84375q1.171875 0.53125 1.71875 1.359375q0.5625 0.828125 0.5625 1.90625q0 1.0625 -0.609375 2.015625q-0.609375 0.9375 -1.75 1.46875q-1.140625 0.515625 -2.578125 0.515625q-1.8125 0 -3.046875 -0.53125q-1.21875 -0.53125 -1.921875 -1.59375q-0.6875 -1.0625 -0.71875 -2.40625zm19.162323 4.296875l0 -1.421875q-1.125 1.640625 -3.0625 1.640625q-0.859375 0 -1.609375 -0.328125q-0.734375 -0.328125 -1.09375 -0.828125q-0.359375 -0.5 -0.5 -1.21875q-0.109375 -0.46875 -0.109375 -1.53125l0 -5.984375l1.640625 0l0 5.359375q0 1.28125 0.109375 1.734375q0.15625 0.640625 0.65625 1.015625q0.5 0.375 1.234375 0.375q0.734375 0 1.375 -0.375q0.65625 -0.390625 0.921875 -1.03125q0.265625 -0.65625 0.265625 -1.890625l0 -5.1875l1.640625 0l0 9.671875l-1.46875 0zm5.547592 0l-1.515625 0l0 -13.359375l1.640625 0l0 4.765625q1.046875 -1.296875 2.65625 -1.296875q0.890625 0 1.6875 0.359375q0.796875 0.359375 1.3125 1.015625q0.515625 0.640625 0.796875 1.5625q0.296875 0.921875 0.296875 1.96875q0 2.484375 -1.234375 3.84375q-1.21875 1.359375 -2.953125 1.359375q-1.703125 0 -2.6875 -1.4375l0 1.21875zm-0.015625 -4.90625q0 1.734375 0.484375 2.515625q0.765625 1.265625 2.09375 1.265625q1.078125 0 1.859375 -0.9375q0.78125 -0.9375 0.78125 -2.78125q0 -1.890625 -0.75 -2.796875q-0.75 -0.90625 -1.828125 -0.90625q-1.0625 0 -1.859375 0.9375q-0.78125 0.9375 -0.78125 2.703125zm8.891342 4.90625l0 -9.671875l1.46875 0l0 1.359375q0.453125 -0.71875 1.203125 -1.140625q0.765625 -0.4375 1.71875 -0.4375q1.078125 0 1.765625 0.453125q0.6875 0.4375 0.96875 1.234375q1.15625 -1.6875 2.984375 -1.6875q1.453125 0 2.21875 0.796875q0.78125 0.796875 0.78125 2.453125l0 6.640625l-1.640625 0l0 -6.09375q0 -0.984375 -0.15625 -1.40625q-0.15625 -0.4375 -0.578125 -0.703125q-0.421875 -0.265625 -0.984375 -0.265625q-1.015625 0 -1.6875 0.6875q-0.671875 0.671875 -0.671875 2.15625l0 5.625l-1.640625 0l0 -6.28125q0 -1.09375 -0.40625 -1.640625q-0.40625 -0.546875 -1.3125 -0.546875q-0.6875 0 -1.28125 0.359375q-0.59375 0.359375 -0.859375 1.0625q-0.25 0.703125 -0.25 2.03125l0 5.015625l-1.640625 0zm15.540802 -11.46875l0 -1.890625l1.640625 0l0 1.890625l-1.640625 0zm0 11.46875l0 -9.671875l1.640625 0l0 9.671875l-1.640625 0zm7.722946 -1.46875l0.234375 1.453125q-0.6875 0.140625 -1.234375 0.140625q-0.890625 0 -1.390625 -0.28125q-0.484375 -0.28125 -0.6875 -0.734375q-0.203125 -0.46875 -0.203125 -1.9375l0 -5.578125l-1.203125 0l0 -1.265625l1.203125 0l0 -2.390625l1.625 -0.984375l0 3.375l1.65625 0l0 1.265625l-1.65625 0l0 5.671875q0 0.6875 0.078125 0.890625q0.09375 0.203125 0.28125 0.328125q0.203125 0.109375 0.578125 0.109375q0.265625 0 0.71875 -0.0625zm5.183304 0l0.234375 1.453125q-0.6875 0.140625 -1.234375 0.140625q-0.890625 0 -1.390625 -0.28125q-0.484375 -0.28125 -0.6875 -0.734375q-0.203125 -0.46875 -0.203125 -1.9375l0 -5.578125l-1.203125 0l0 -1.265625l1.203125 0l0 -2.390625l1.625 -0.984375l0 3.375l1.65625 0l0 1.265625l-1.65625 0l0 5.671875q0 0.6875 0.078125 0.890625q0.09375 0.203125 0.28125 0.328125q0.203125 0.109375 0.578125 0.109375q0.265625 0 0.71875 -0.0625zm8.230179 -1.640625l1.6875 0.203125q-0.40625 1.484375 -1.484375 2.3125q-1.078125 0.8125 -2.765625 0.8125q-2.125 0 -3.375 -1.296875q-1.234375 -1.3125 -1.234375 -3.671875q0 -2.453125 1.25 -3.796875q1.265625 -1.34375 3.265625 -1.34375q1.9375 0 3.15625 1.328125q1.234375 1.3125 1.234375 3.703125q0 0.15625 0 0.4375l-7.21875 0q0.09375 1.59375 0.90625 2.453125q0.8125 0.84375 2.015625 0.84375q0.90625 0 1.546875 -0.46875q0.640625 -0.484375 1.015625 -1.515625zm-5.390625 -2.65625l5.40625 0q-0.109375 -1.21875 -0.625 -1.828125q-0.78125 -0.953125 -2.03125 -0.953125q-1.125 0 -1.90625 0.765625q-0.765625 0.75 -0.84375 2.015625zm9.125717 5.765625l0 -9.671875l1.46875 0l0 1.46875q0.5625 -1.03125 1.03125 -1.359375q0.484375 -0.328125 1.0625 -0.328125q0.828125 0 1.6875 0.53125l-0.5625 1.515625q-0.609375 -0.359375 -1.203125 -0.359375q-0.546875 0 -0.96875 0.328125q-0.421875 0.328125 -0.609375 0.890625q-0.28125 0.875 -0.28125 1.921875l0 5.0625l-1.625 0z" fill-rule="nonzero"/><path fill="#000000" fill-opacity="0.0" d="m113.490814 396.69815l111.18111 0l0 42.015747l-111.18111 0z" fill-rule="evenodd"/><path fill="#000000" d="m123.334564 419.3213l1.65625 -0.140625q0.125 1.0 0.546875 1.640625q0.4375 0.640625 1.34375 1.046875q0.921875 0.390625 2.0625 0.390625q1.0 0 1.78125 -0.296875q0.78125 -0.296875 1.15625 -0.8125q0.375 -0.53125 0.375 -1.15625q0 -0.625 -0.375 -1.09375q-0.359375 -0.46875 -1.1875 -0.796875q-0.546875 -0.203125 -2.390625 -0.640625q-1.828125 -0.453125 -2.5625 -0.84375q-0.96875 -0.5 -1.4375 -1.234375q-0.46875 -0.75 -0.46875 -1.671875q0 -1.0 0.578125 -1.875q0.578125 -0.890625 1.671875 -1.34375q1.109375 -0.453125 2.453125 -0.453125q1.484375 0 2.609375 0.484375q1.140625 0.46875 1.75 1.40625q0.609375 0.921875 0.65625 2.09375l-1.6875 0.125q-0.140625 -1.265625 -0.9375 -1.90625q-0.78125 -0.65625 -2.3125 -0.65625q-1.609375 0 -2.34375 0.59375q-0.734375 0.59375 -0.734375 1.421875q0 0.71875 0.53125 1.171875q0.5 0.46875 2.65625 0.96875q2.15625 0.484375 2.953125 0.84375q1.171875 0.53125 1.71875 1.359375q0.5625 0.828125 0.5625 1.90625q0 1.0625 -0.609375 2.015625q-0.609375 0.9375 -1.75 1.46875q-1.140625 0.515625 -2.578125 0.515625q-1.8125 0 -3.046875 -0.53125q-1.21875 -0.53125 -1.921875 -1.59375q-0.6875 -1.0625 -0.71875 -2.40625zm19.162323 4.296875l0 -1.421875q-1.125 1.640625 -3.0625 1.640625q-0.859375 0 -1.609375 -0.328125q-0.734375 -0.328125 -1.09375 -0.828125q-0.359375 -0.5 -0.5 -1.21875q-0.109375 -0.46875 -0.109375 -1.53125l0 -5.984375l1.640625 0l0 5.359375q0 1.28125 0.109375 1.734375q0.15625 0.640625 0.65625 1.015625q0.5 0.375 1.234375 0.375q0.734375 0 1.375 -0.375q0.65625 -0.390625 0.921875 -1.03125q0.265625 -0.65625 0.265625 -1.890625l0 -5.1875l1.640625 0l0 9.671875l-1.46875 0zm5.547592 0l-1.515625 0l0 -13.359375l1.640625 0l0 4.765625q1.046875 -1.296875 2.65625 -1.296875q0.890625 0 1.6875 0.359375q0.796875 0.359375 1.3125 1.015625q0.515625 0.640625 0.796875 1.5625q0.296875 0.921875 0.296875 1.96875q0 2.484375 -1.234375 3.84375q-1.21875 1.359375 -2.953125 1.359375q-1.703125 0 -2.6875 -1.4375l0 1.21875zm-0.015625 -4.90625q0 1.734375 0.484375 2.515625q0.765625 1.265625 2.09375 1.265625q1.078125 0 1.859375 -0.9375q0.78125 -0.9375 0.78125 -2.78125q0 -1.890625 -0.75 -2.796875q-0.75 -0.90625 -1.828125 -0.90625q-1.0625 0 -1.859375 0.9375q-0.78125 0.9375 -0.78125 2.703125zm8.891342 4.90625l0 -9.671875l1.46875 0l0 1.359375q0.453125 -0.71875 1.203125 -1.140625q0.765625 -0.4375 1.71875 -0.4375q1.078125 0 1.765625 0.453125q0.6875 0.4375 0.96875 1.234375q1.15625 -1.6875 2.984375 -1.6875q1.453125 0 2.21875 0.796875q0.78125 0.796875 0.78125 2.453125l0 6.640625l-1.640625 0l0 -6.09375q0 -0.984375 -0.15625 -1.40625q-0.15625 -0.4375 -0.578125 -0.703125q-0.421875 -0.265625 -0.984375 -0.265625q-1.015625 0 -1.6875 0.6875q-0.671875 0.671875 -0.671875 2.15625l0 5.625l-1.640625 0l0 -6.28125q0 -1.09375 -0.40625 -1.640625q-0.40625 -0.546875 -1.3125 -0.546875q-0.6875 0 -1.28125 0.359375q-0.59375 0.359375 -0.859375 1.0625q-0.25 0.703125 -0.25 2.03125l0 5.015625l-1.640625 0zm15.540802 -11.46875l0 -1.890625l1.640625 0l0 1.890625l-1.640625 0zm0 11.46875l0 -9.671875l1.640625 0l0 9.671875l-1.640625 0zm7.722946 -1.46875l0.234375 1.453125q-0.6875 0.140625 -1.234375 0.140625q-0.890625 0 -1.390625 -0.28125q-0.484375 -0.28125 -0.6875 -0.734375q-0.203125 -0.46875 -0.203125 -1.9375l0 -5.578125l-1.203125 0l0 -1.265625l1.203125 0l0 -2.390625l1.625 -0.984375l0 3.375l1.65625 0l0 1.265625l-1.65625 0l0 5.671875q0 0.6875 0.078125 0.890625q0.09375 0.203125 0.28125 0.328125q0.203125 0.109375 0.578125 0.109375q0.265625 0 0.71875 -0.0625zm5.183304 0l0.234375 1.453125q-0.6875 0.140625 -1.234375 0.140625q-0.890625 0 -1.390625 -0.28125q-0.484375 -0.28125 -0.6875 -0.734375q-0.203125 -0.46875 -0.203125 -1.9375l0 -5.578125l-1.203125 0l0 -1.265625l1.203125 0l0 -2.390625l1.625 -0.984375l0 3.375l1.65625 0l0 1.265625l-1.65625 0l0 5.671875q0 0.6875 0.078125 0.890625q0.09375 0.203125 0.28125 0.328125q0.203125 0.109375 0.578125 0.109375q0.265625 0 0.71875 -0.0625zm8.230179 -1.640625l1.6875 0.203125q-0.40625 1.484375 -1.484375 2.3125q-1.078125 0.8125 -2.765625 0.8125q-2.125 0 -3.375 -1.296875q-1.234375 -1.3125 -1.234375 -3.671875q0 -2.453125 1.25 -3.796875q1.265625 -1.34375 3.265625 -1.34375q1.9375 0 3.15625 1.328125q1.234375 1.3125 1.234375 3.703125q0 0.15625 0 0.4375l-7.21875 0q0.09375 1.59375 0.90625 2.453125q0.8125 0.84375 2.015625 0.84375q0.90625 0 1.546875 -0.46875q0.640625 -0.484375 1.015625 -1.515625zm-5.390625 -2.65625l5.40625 0q-0.109375 -1.21875 -0.625 -1.828125q-0.78125 -0.953125 -2.03125 -0.953125q-1.125 0 -1.90625 0.765625q-0.765625 0.75 -0.84375 2.015625zm9.125717 5.765625l0 -9.671875l1.46875 0l0 1.46875q0.5625 -1.03125 1.03125 -1.359375q0.484375 -0.328125 1.0625 -0.328125q0.828125 0 1.6875 0.53125l-0.5625 1.515625q-0.609375 -0.359375 -1.203125 -0.359375q-0.546875 0 -0.96875 0.328125q-0.421875 0.328125 -0.609375 0.890625q-0.28125 0.875 -0.28125 1.921875l0 5.0625l-1.625 0z" fill-rule="nonzero"/></g></svg>