<?xml version="1.0" encoding="UTF-8" standalone="no"?>
<svg
   xmlns:dc="http://purl.org/dc/elements/1.1/"
   xmlns:cc="http://creativecommons.org/ns#"
   xmlns:rdf="http://www.w3.org/1999/02/22-rdf-syntax-ns#"
   xmlns:svg="http://www.w3.org/2000/svg"
   xmlns="http://www.w3.org/2000/svg"
   xmlns:sodipodi="http://sodipodi.sourceforge.net/DTD/sodipodi-0.dtd"
   xmlns:inkscape="http://www.inkscape.org/namespaces/inkscape"
   inkscape:version="1.0 (4035a4f, 2020-05-01)"
   height="312.84741"
   width="514.90033"
   sodipodi:docname="tree-of-tasks.svg"
   id="svg1077"
   stroke-miterlimit="10"
   stroke-linecap="square"
   stroke="none"
   fill="none"
   viewBox="0 0 514.90033 312.84741"
   version="1.1">
  <metadata
     id="metadata1083">
    <rdf:RDF>
      <cc:Work
         rdf:about="">
        <dc:format>image/svg+xml</dc:format>
        <dc:type
           rdf:resource="http://purl.org/dc/dcmitype/StillImage" />
      </cc:Work>
    </rdf:RDF>
  </metadata>
  <defs
     id="defs1081" />
  <sodipodi:namedview
     inkscape:current-layer="g1075"
     inkscape:window-maximized="1"
     inkscape:window-y="23"
     inkscape:window-x="0"
     inkscape:cy="256.75544"
     inkscape:cx="123.26806"
     inkscape:zoom="0.37777778"
     showgrid="false"
     id="namedview1079"
     inkscape:window-height="995"
     inkscape:window-width="1792"
     inkscape:pageshadow="2"
     inkscape:pageopacity="0"
     guidetolerance="10"
     gridtolerance="10"
     objecttolerance="10"
     borderopacity="1"
     bordercolor="#666666"
     pagecolor="#ffffff" />
  <clipPath
     id="p.0">
    <path
       id="path934"
       clip-rule="nonzero"
       d="M 0,0 H 960 V 720 H 0 Z" />
  </clipPath>
  <g
     transform="translate(-97.32018,-87.362206)"
     id="g1075"
     clip-path="url(#p.0)">
    <path
       id="path937"
       fill-rule="evenodd"
       d="M 0,0 H 960 V 720 H 0 Z"
       fill-opacity="0"
       fill="#000000" />
    <path
       id="path939"
       fill-rule="evenodd"
       d="m 288.97375,143.33086 h 123.46457 v 47.37009 H 288.97375 Z"
       fill="#ffffff" />
    <path
       id="path941"
       fill-rule="evenodd"
       d="m 288.97375,143.33086 h 123.46457 v 47.37009 H 288.97375 Z"
       stroke-linecap="butt"
       stroke-linejoin="round"
       stroke-width="2"
       stroke="#3d85c6" />
    <path
       id="path943"
       fill-rule="nonzero"
       d="m 310.6374,162.6559 v -12.40625 h 4.26563 q 1.45312,0 2.20312,0.1875 1.07813,0.23437 1.82813,0.875 0.98437,0.82812 1.46875,2.125 0.48437,1.29687 0.48437,2.95312 0,1.40625 -0.32812,2.5 -0.32813,1.09375 -0.84375,1.8125 -0.51563,0.70313 -1.14063,1.125 -0.60937,0.40625 -1.48437,0.625 -0.85938,0.20313 -1.98438,0.20313 z m 1.64063,-1.46875 h 2.64062 q 1.23438,0 1.92188,-0.21875 0.70312,-0.23438 1.125,-0.64063 0.57812,-0.59375 0.90625,-1.57812 0.32812,-0.98438 0.32812,-2.39063 0,-1.9375 -0.64062,-2.98437 -0.64063,-1.04688 -1.5625,-1.40625 -0.65625,-0.25 -2.125,-0.25 h -2.59375 z m 10.68569,-9.1875 v -1.75 h 1.51563 v 1.75 z m 0,10.65625 v -8.98438 h 1.51563 v 8.98438 z m 3.22477,-2.6875 1.51562,-0.23438 q 0.125,0.90625 0.70313,1.39063 0.57812,0.48437 1.60937,0.48437 1.0625,0 1.5625,-0.42187 0.51563,-0.4375 0.51563,-1.01563 0,-0.51562 -0.45313,-0.8125 -0.3125,-0.20312 -1.5625,-0.51562 -1.67187,-0.42188 -2.32812,-0.71875 -0.64063,-0.3125 -0.98438,-0.85938 -0.32812,-0.54687 -0.32812,-1.20312 0,-0.60938 0.28125,-1.10938 0.28125,-0.51562 0.75,-0.85937 0.35937,-0.26563 0.96875,-0.4375 0.60937,-0.1875 1.3125,-0.1875 1.0625,0 1.85937,0.3125 0.79688,0.29687 1.17188,0.82812 0.39062,0.51563 0.53125,1.375 l -1.48438,0.20313 q -0.10937,-0.6875 -0.59375,-1.07813 -0.48437,-0.39062 -1.375,-0.39062 -1.04687,0 -1.5,0.34375 -0.4375,0.34375 -0.4375,0.8125 0,0.29687 0.17188,0.53125 0.1875,0.25 0.59375,0.40625 0.21875,0.0937 1.34375,0.39062 1.60937,0.4375 2.25,0.71875 0.64062,0.26563 1,0.79688 0.375,0.51562 0.375,1.29687 0,0.76563 -0.45313,1.4375 -0.4375,0.67188 -1.28125,1.04688 -0.82812,0.35937 -1.89062,0.35937 -1.75,0 -2.67188,-0.71875 -0.92187,-0.73437 -1.17187,-2.17187 z m 12.60156,1.32812 0.21875,1.34375 q -0.64063,0.14063 -1.15625,0.14063 -0.82813,0 -1.28125,-0.26563 -0.45313,-0.26562 -0.64063,-0.6875 -0.1875,-0.4375 -0.1875,-1.79687 v -5.17188 h -1.125 v -1.1875 h 1.125 v -2.21875 l 1.51563,-0.92187 v 3.14062 h 1.53125 v 1.1875 h -1.53125 v 5.25 q 0,0.65625 0.0781,0.84375 0.0781,0.1875 0.25,0.29688 0.1875,0.10937 0.53125,0.10937 0.25,0 0.67188,-0.0625 z m 1.47058,1.35938 v -8.98438 h 1.375 v 1.35938 q 0.51562,-0.95313 0.95312,-1.25 0.45313,-0.3125 0.98438,-0.3125 0.78125,0 1.5625,0.48437 l -0.51563,1.42188 q -0.5625,-0.32813 -1.125,-0.32813 -0.5,0 -0.89062,0.29688 -0.39063,0.29687 -0.5625,0.82812 -0.26563,0.8125 -0.26563,1.78125 v 4.70313 z m 5.80164,-10.65625 v -1.75 h 1.51562 v 1.75 z m 0,10.65625 v -8.98438 h 1.51562 v 8.98438 z m 5.24038,0 h -1.40625 v -12.40625 h 1.51563 v 4.42187 q 0.96875,-1.20312 2.46875,-1.20312 0.82812,0 1.5625,0.34375 0.73437,0.32812 1.21875,0.9375 0.48437,0.59375 0.75,1.45312 0.26562,0.85938 0.26562,1.82813 0,2.3125 -1.14062,3.57812 -1.14063,1.25 -2.73438,1.25 -1.59375,0 -2.5,-1.32812 z m -0.0156,-4.5625 q 0,1.625 0.4375,2.34375 0.71875,1.17187 1.95312,1.17187 1,0 1.71875,-0.85937 0.73438,-0.875 0.73438,-2.59375 0,-1.76563 -0.70313,-2.59375 -0.70312,-0.84375 -1.6875,-0.84375 -1,0 -1.73437,0.875 -0.71875,0.85937 -0.71875,2.5 z m 14.13708,4.5625 v -1.3125 q -1.04687,1.51562 -2.84375,1.51562 -0.79687,0 -1.5,-0.29687 -0.6875,-0.3125 -1.01562,-0.76563 -0.32813,-0.46875 -0.46875,-1.14062 -0.0937,-0.4375 -0.0937,-1.42188 v -5.5625 h 1.51562 v 4.98438 q 0,1.1875 0.0937,1.60937 0.15625,0.59375 0.60938,0.9375 0.46875,0.34375 1.15625,0.34375 0.6875,0 1.28125,-0.34375 0.60937,-0.35937 0.85937,-0.95312 0.25,-0.60938 0.25,-1.76563 v -4.8125 h 1.51563 v 8.98438 z m 7.07459,-1.35938 0.21875,1.34375 q -0.64063,0.14063 -1.15625,0.14063 -0.82813,0 -1.28125,-0.26563 -0.45313,-0.26562 -0.64063,-0.6875 -0.1875,-0.4375 -0.1875,-1.79687 v -5.17188 h -1.125 v -1.1875 h 1.125 v -2.21875 l 1.51563,-0.92187 v 3.14062 h 1.53125 v 1.1875 h -1.53125 v 5.25 q 0,0.65625 0.0781,0.84375 0.0781,0.1875 0.25,0.29688 0.1875,0.10937 0.53125,0.10937 0.25,0 0.67188,-0.0625 z m 7.64245,-1.53125 1.5625,0.1875 q -0.35937,1.39063 -1.375,2.15625 -1,0.75 -2.5625,0.75 -1.98437,0 -3.14062,-1.20312 -1.14063,-1.21875 -1.14063,-3.42188 0,-2.26562 1.15625,-3.51562 1.17188,-1.25 3.03125,-1.25 1.8125,0 2.95313,1.23437 1.14062,1.21875 1.14062,3.4375 0,0.14063 -0.0156,0.40625 h -6.70313 q 0.0937,1.48438 0.84375,2.28125 0.75,0.78125 1.875,0.78125 0.84375,0 1.4375,-0.4375 0.59375,-0.4375 0.9375,-1.40625 z m -5,-2.46875 h 5.01563 q -0.10938,-1.125 -0.57813,-1.70312 -0.73437,-0.875 -1.89062,-0.875 -1.04688,0 -1.76563,0.70312 -0.70312,0.70313 -0.78125,1.875 z m 14.30896,5.35938 v -1.14063 q -0.84375,1.34375 -2.51562,1.34375 -1.0625,0 -1.96875,-0.59375 -0.90625,-0.59375 -1.40625,-1.65625 -0.48438,-1.0625 -0.48438,-2.4375 0,-1.34375 0.4375,-2.4375 0.45313,-1.09375 1.34375,-1.67187 0.90625,-0.59375 2.01563,-0.59375 0.8125,0 1.4375,0.34375 0.64062,0.34375 1.04687,0.89062 v -4.45312 h 1.51563 v 12.40625 z m -4.8125,-4.48438 q 0,1.71875 0.71875,2.57813 0.73438,0.85937 1.73438,0.85937 0.98437,0 1.6875,-0.8125 0.70312,-0.82812 0.70312,-2.5 0,-1.84375 -0.71875,-2.70312 -0.70312,-0.85938 -1.75,-0.85938 -1.01562,0 -1.70312,0.82813 -0.67188,0.82812 -0.67188,2.60937 z"
       fill="#000000" />
    <path
       id="path945"
       fill-rule="nonzero"
       d="m 336.79434,180.9684 1.51562,-0.23438 q 0.125,0.90625 0.70313,1.39063 0.57812,0.48437 1.60937,0.48437 1.0625,0 1.5625,-0.42187 0.51563,-0.4375 0.51563,-1.01563 0,-0.51562 -0.45313,-0.8125 -0.3125,-0.20312 -1.5625,-0.51562 -1.67187,-0.42188 -2.32812,-0.71875 -0.64063,-0.3125 -0.98438,-0.85938 -0.32812,-0.54687 -0.32812,-1.20312 0,-0.60938 0.28125,-1.10938 0.28125,-0.51562 0.75,-0.85937 0.35937,-0.26563 0.96875,-0.4375 0.60937,-0.1875 1.3125,-0.1875 1.0625,0 1.85937,0.3125 0.79688,0.29687 1.17188,0.82812 0.39062,0.51563 0.53125,1.375 l -1.48438,0.20313 q -0.10937,-0.6875 -0.59375,-1.07813 -0.48437,-0.39062 -1.375,-0.39062 -1.04687,0 -1.5,0.34375 -0.4375,0.34375 -0.4375,0.8125 0,0.29687 0.17188,0.53125 0.1875,0.25 0.59375,0.40625 0.21875,0.0937 1.34375,0.39062 1.60937,0.4375 2.25,0.71875 0.64062,0.26563 1,0.79688 0.375,0.51562 0.375,1.29687 0,0.76563 -0.45313,1.4375 -0.4375,0.67188 -1.28125,1.04688 -0.82812,0.35937 -1.89062,0.35937 -1.75,0 -2.67188,-0.71875 -0.92187,-0.73437 -1.17187,-2.17187 z m 8.71094,-1.8125 q 0,-2.48438 1.39062,-3.6875 1.15625,-1 2.8125,-1 1.85938,0 3.03125,1.21875 1.1875,1.20312 1.1875,3.34375 0,1.73437 -0.53125,2.73437 -0.51562,1 -1.51562,1.54688 -0.98438,0.54687 -2.17188,0.54687 -1.875,0 -3.04687,-1.20312 -1.15625,-1.21875 -1.15625,-3.5 z m 1.5625,0 q 0,1.73437 0.75,2.59375 0.75,0.85937 1.89062,0.85937 1.14063,0 1.89063,-0.85937 0.75,-0.875 0.75,-2.64063 0,-1.65625 -0.75,-2.51562 -0.75,-0.85938 -1.89063,-0.85938 -1.14062,0 -1.89062,0.85938 -0.75,0.84375 -0.75,2.5625 z m 8.62146,4.5 v -8.98438 h 1.375 v 1.35938 q 0.51562,-0.95313 0.95312,-1.25 0.45313,-0.3125 0.98438,-0.3125 0.78125,0 1.5625,0.48437 l -0.51563,1.42188 q -0.5625,-0.32813 -1.125,-0.32813 -0.5,0 -0.89062,0.29688 -0.39063,0.29687 -0.5625,0.82812 -0.26563,0.8125 -0.26563,1.78125 v 4.70313 z m 9.11416,-1.35938 0.21875,1.34375 q -0.64062,0.14063 -1.15625,0.14063 -0.82812,0 -1.28125,-0.26563 -0.45312,-0.26562 -0.64062,-0.6875 -0.1875,-0.4375 -0.1875,-1.79687 v -5.17188 h -1.125 v -1.1875 h 1.125 v -2.21875 l 1.51562,-0.92187 v 3.14062 h 1.53125 v 1.1875 h -1.53125 v 5.25 q 0,0.65625 0.0781,0.84375 0.0781,0.1875 0.25,0.29688 0.1875,0.10937 0.53125,0.10937 0.25,0 0.67187,-0.0625 z"
       fill="#000000" />
    <path
       id="path947"
       fill-rule="evenodd"
       d="M 497.99744,88.362206 H 607.35175 V 135.73229 H 497.99744 Z"
       fill="#ffffff" />
    <path
       id="path949"
       fill-rule="evenodd"
       d="M 497.99744,88.362206 H 607.35175 V 135.73229 H 497.99744 Z"
       stroke-linecap="butt"
       stroke-linejoin="round"
       stroke-width="2"
       stroke="#3d85c6" />
    <path
       id="path951"
       fill-rule="nonzero"
       d="M 512.60596,107.68724 V 95.28099 h 4.26562 q 1.45313,0 2.20313,0.1875 1.07812,0.234375 1.82812,0.875 0.98438,0.828125 1.46875,2.125 0.48438,1.296875 0.48438,2.95313 0,1.40625 -0.32813,2.5 -0.32812,1.09375 -0.84375,1.8125 -0.51562,0.70312 -1.14062,1.125 -0.60938,0.40625 -1.48438,0.625 -0.85937,0.20312 -1.98437,0.20312 z m 1.64062,-1.46875 h 2.64063 q 1.23437,0 1.92187,-0.21875 0.70313,-0.23437 1.125,-0.64062 0.57813,-0.59375 0.90625,-1.57813 0.32813,-0.98437 0.32813,-2.39062 0,-1.937505 -0.64063,-2.98438 -0.64062,-1.046875 -1.5625,-1.40625 -0.65625,-0.25 -2.125,-0.25 h -2.59375 z m 10.68567,-9.1875 v -1.75 h 1.51563 v 1.75 z m 0,10.65625 v -8.984375 h 1.51563 v 8.984375 z m 3.2248,-2.6875 1.51562,-0.23437 q 0.125,0.90625 0.70313,1.39062 0.57812,0.48438 1.60937,0.48438 1.0625,0 1.5625,-0.42188 0.51563,-0.4375 0.51563,-1.01562 0,-0.51563 -0.45313,-0.8125 -0.3125,-0.20313 -1.5625,-0.51563 -1.67187,-0.42187 -2.32812,-0.71875 -0.64063,-0.3125 -0.98438,-0.85937 -0.32812,-0.54688 -0.32812,-1.20313 0,-0.60937 0.28125,-1.109375 0.28125,-0.515625 0.75,-0.859375 0.35937,-0.265625 0.96875,-0.4375 0.60937,-0.1875 1.3125,-0.1875 1.0625,0 1.85937,0.3125 0.79688,0.296875 1.17188,0.828125 0.39062,0.515625 0.53125,1.375005 l -1.48438,0.20312 q -0.10937,-0.6875 -0.59375,-1.07812 -0.48437,-0.39063 -1.375,-0.39063 -1.04687,0 -1.5,0.34375 -0.4375,0.34375 -0.4375,0.8125 0,0.29688 0.17188,0.53125 0.1875,0.25 0.59375,0.40625 0.21875,0.0937 1.34375,0.39063 1.60937,0.4375 2.25,0.71875 0.64062,0.26562 1,0.79687 0.375,0.51563 0.375,1.29688 0,0.76562 -0.45313,1.4375 -0.4375,0.67187 -1.28125,1.04687 -0.82812,0.35938 -1.89062,0.35938 -1.75,0 -2.67188,-0.71875 -0.92187,-0.73438 -1.17187,-2.17188 z m 12.60156,1.32813 0.21875,1.34375 q -0.64063,0.14062 -1.15625,0.14062 -0.82813,0 -1.28125,-0.26562 -0.45313,-0.26563 -0.64063,-0.6875 -0.1875,-0.4375 -0.1875,-1.79688 v -5.171875 h -1.125 v -1.1875 h 1.125 v -2.21875 l 1.51563,-0.921875 v 3.140625 h 1.53125 v 1.1875 h -1.53125 v 5.250005 q 0,0.65625 0.0781,0.84375 0.0781,0.1875 0.25,0.29687 0.1875,0.10938 0.53125,0.10938 0.25,0 0.67188,-0.0625 z m 1.47058,1.35937 v -8.984375 h 1.375 v 1.359375 q 0.51563,-0.953125 0.95313,-1.25 0.45312,-0.3125 0.98437,-0.3125 0.78125,0 1.5625,0.484375 l -0.51562,1.421875 q -0.5625,-0.32812 -1.125,-0.32812 -0.5,0 -0.89063,0.29687 -0.39062,0.29688 -0.5625,0.82813 -0.26562,0.8125 -0.26562,1.78125 v 4.70312 z m 5.80164,-10.65625 v -1.75 h 1.51562 v 1.75 z m 0,10.65625 v -8.984375 h 1.51562 v 8.984375 z m 5.24035,0 h -1.40625 V 95.28099 h 1.51563 v 4.421875 q 0.96875,-1.203125 2.46875,-1.203125 0.82812,0 1.5625,0.34375 0.73437,0.328125 1.21875,0.9375 0.48437,0.59375 0.75,1.45313 0.26562,0.85937 0.26562,1.82812 0,2.3125 -1.14062,3.57813 -1.14063,1.25 -2.73438,1.25 -1.59375,0 -2.5,-1.32813 z m -0.0156,-4.5625 q 0,1.625 0.4375,2.34375 0.71875,1.17188 1.95312,1.17188 1,0 1.71875,-0.85938 0.73438,-0.875 0.73438,-2.59375 0,-1.76562 -0.70313,-2.59375 -0.70312,-0.84375 -1.6875,-0.84375 -1,0 -1.73437,0.875 -0.71875,0.85938 -0.71875,2.5 z m 14.13708,4.5625 v -1.3125 q -1.04687,1.51563 -2.84375,1.51563 -0.79687,0 -1.5,-0.29688 -0.6875,-0.3125 -1.01562,-0.76562 -0.32813,-0.46875 -0.46875,-1.14063 -0.0937,-0.4375 -0.0937,-1.42187 v -5.562505 h 1.51562 v 4.984375 q 0,1.1875 0.0937,1.60938 0.15625,0.59375 0.60938,0.9375 0.46875,0.34375 1.15625,0.34375 0.6875,0 1.28125,-0.34375 0.60937,-0.35938 0.85937,-0.95313 0.25,-0.60937 0.25,-1.76562 v -4.812505 h 1.51563 v 8.984375 z m 7.07459,-1.35937 0.21875,1.34375 q -0.64063,0.14062 -1.15625,0.14062 -0.82813,0 -1.28125,-0.26562 -0.45313,-0.26563 -0.64063,-0.6875 -0.1875,-0.4375 -0.1875,-1.79688 v -5.171875 h -1.125 v -1.1875 h 1.125 v -2.21875 L 572.936,95.56224 v 3.140625 h 1.53125 v 1.1875 H 572.936 v 5.250005 q 0,0.65625 0.0781,0.84375 0.0781,0.1875 0.25,0.29687 0.1875,0.10938 0.53125,0.10938 0.25,0 0.67188,-0.0625 z m 7.64245,-1.53125 1.5625,0.1875 q -0.35937,1.39062 -1.375,2.15625 -1,0.75 -2.5625,0.75 -1.98437,0 -3.14062,-1.20313 -1.14063,-1.21875 -1.14063,-3.42187 0,-2.26563 1.15625,-3.51563 1.17188,-1.25 3.03125,-1.25 1.8125,0 2.95313,1.234375 1.14062,1.218755 1.14062,3.437505 0,0.14062 -0.0156,0.40625 h -6.70313 q 0.0937,1.48437 0.84375,2.28125 0.75,0.78125 1.875,0.78125 0.84375,0 1.4375,-0.4375 0.59375,-0.4375 0.9375,-1.40625 z m -5,-2.46875 h 5.01563 q -0.10938,-1.125 -0.57813,-1.70313 -0.73437,-0.875 -1.89062,-0.875 -1.04688,0 -1.76563,0.70313 -0.70312,0.70312 -0.78125,1.875 z m 14.30896,5.35937 v -1.14062 q -0.84375,1.34375 -2.51562,1.34375 -1.0625,0 -1.96875,-0.59375 -0.90625,-0.59375 -1.40625,-1.65625 -0.48438,-1.0625 -0.48438,-2.4375 0,-1.34375 0.4375,-2.4375 0.45313,-1.093755 1.34375,-1.67188 0.90625,-0.59375 2.01563,-0.59375 0.8125,0 1.4375,0.34375 0.64062,0.34375 1.04687,0.890625 V 95.28099 h 1.51563 v 12.40625 z m -4.8125,-4.48437 q 0,1.71875 0.71875,2.57812 0.73438,0.85938 1.73438,0.85938 0.98437,0 1.6875,-0.8125 0.70312,-0.82813 0.70312,-2.5 0,-1.84375 -0.71875,-2.70313 -0.70312,-0.859375 -1.75,-0.859375 -1.01562,0 -1.70312,0.828125 -0.67188,0.82813 -0.67188,2.60938 z"
       fill="#000000" />
    <path
       id="path953"
       fill-rule="nonzero"
       d="m 538.76294,125.99974 1.51562,-0.23437 q 0.125,0.90625 0.70313,1.39062 0.57812,0.48438 1.60937,0.48438 1.0625,0 1.5625,-0.42188 0.51563,-0.4375 0.51563,-1.01562 0,-0.51563 -0.45313,-0.8125 -0.3125,-0.20313 -1.5625,-0.51563 -1.67187,-0.42187 -2.32812,-0.71875 -0.64063,-0.3125 -0.98438,-0.85937 -0.32812,-0.54688 -0.32812,-1.20313 0,-0.60937 0.28125,-1.10937 0.28125,-0.51563 0.75,-0.85938 0.35937,-0.26562 0.96875,-0.4375 0.60937,-0.1875 1.3125,-0.1875 1.0625,0 1.85937,0.3125 0.79688,0.29688 1.17188,0.82813 0.39062,0.51562 0.53125,1.375 l -1.48438,0.20312 q -0.10937,-0.6875 -0.59375,-1.07812 -0.48437,-0.39063 -1.375,-0.39063 -1.04687,0 -1.5,0.34375 -0.4375,0.34375 -0.4375,0.8125 0,0.29688 0.17188,0.53125 0.1875,0.25 0.59375,0.40625 0.21875,0.0937 1.34375,0.39063 1.60937,0.4375 2.25,0.71875 0.64062,0.26562 1,0.79687 0.375,0.51563 0.375,1.29688 0,0.76562 -0.45313,1.4375 -0.4375,0.67187 -1.28125,1.04687 -0.82812,0.35937 -1.89062,0.35937 -1.75,0 -2.67188,-0.71875 -0.92187,-0.73437 -1.17187,-2.17187 z m 8.71094,-1.8125 q 0,-2.48437 1.39062,-3.6875 1.15625,-1 2.8125,-1 1.85938,0 3.03125,1.21875 1.1875,1.20313 1.1875,3.34375 0,1.73438 -0.53125,2.73438 -0.51562,1 -1.51562,1.54687 -0.98438,0.54687 -2.17188,0.54687 -1.875,0 -3.04687,-1.20312 -1.15625,-1.21875 -1.15625,-3.5 z m 1.5625,0 q 0,1.73438 0.75,2.59375 0.75,0.85938 1.89062,0.85938 1.14063,0 1.89063,-0.85938 0.75,-0.875 0.75,-2.64062 0,-1.65625 -0.75,-2.51563 -0.75,-0.85937 -1.89063,-0.85937 -1.14062,0 -1.89062,0.85937 -0.75,0.84375 -0.75,2.5625 z m 8.62146,4.5 v -8.98437 h 1.375 v 1.35937 q 0.51562,-0.95312 0.95312,-1.25 0.45313,-0.3125 0.98438,-0.3125 0.78125,0 1.5625,0.48438 l -0.51563,1.42187 q -0.5625,-0.32812 -1.125,-0.32812 -0.5,0 -0.89062,0.29687 -0.39063,0.29688 -0.5625,0.82813 -0.26563,0.8125 -0.26563,1.78125 v 4.70312 z m 9.11413,-1.35937 0.21875,1.34374 q -0.64062,0.14063 -1.15625,0.14063 -0.82812,0 -1.28125,-0.26563 -0.45312,-0.26562 -0.64062,-0.68749 -0.1875,-0.4375 -0.1875,-1.79688 v -5.17187 h -1.125 v -1.1875 h 1.125 v -2.21875 l 1.51562,-0.92188 v 3.14063 h 1.53125 v 1.1875 h -1.53125 v 5.25 q 0,0.65625 0.0781,0.84375 0.0781,0.1875 0.25,0.29687 0.1875,0.10938 0.53125,0.10938 0.25,0 0.67187,-0.0625 z"
       fill="#000000" />
    <path
       id="path955"
       fill-rule="evenodd"
       d="m 497.99738,189.18369 h 109.35431 v 49.88976 H 497.99738 Z"
       fill="#ffffff" />
    <path
       id="path957"
       fill-rule="evenodd"
       d="m 497.99738,189.18369 h 109.35431 v 49.88976 H 497.99738 Z"
       stroke-linecap="butt"
       stroke-linejoin="round"
       stroke-width="2"
       stroke="#3d85c6" />
    <path
       id="path959"
       fill-rule="nonzero"
       d="M 512.6059,209.76855 V 197.3623 h 4.26563 q 1.45312,0 2.20312,0.1875 1.07813,0.23437 1.82813,0.875 0.98437,0.82812 1.46875,2.125 0.48437,1.29687 0.48437,2.95312 0,1.40625 -0.32812,2.5 -0.32813,1.09375 -0.84375,1.8125 -0.51563,0.70313 -1.14063,1.125 -0.60937,0.40625 -1.48437,0.625 -0.85938,0.20313 -1.98438,0.20313 z m 1.64063,-1.46875 h 2.64062 q 1.23438,0 1.92188,-0.21875 0.70312,-0.23438 1.125,-0.64063 0.57812,-0.59375 0.90625,-1.57812 0.32812,-0.98438 0.32812,-2.39063 0,-1.9375 -0.64062,-2.98437 -0.64063,-1.04688 -1.5625,-1.40625 -0.65625,-0.25 -2.125,-0.25 h -2.59375 z m 10.68573,-9.1875 v -1.75 h 1.51562 v 1.75 z m 0,10.65625 v -8.98438 h 1.51562 v 8.98438 z m 3.22473,-2.6875 1.51562,-0.23438 q 0.125,0.90625 0.70313,1.39063 0.57812,0.48437 1.60937,0.48437 1.0625,0 1.5625,-0.42187 0.51563,-0.4375 0.51563,-1.01563 0,-0.51562 -0.45313,-0.8125 -0.3125,-0.20312 -1.5625,-0.51562 -1.67187,-0.42188 -2.32812,-0.71875 -0.64063,-0.3125 -0.98438,-0.85938 -0.32812,-0.54687 -0.32812,-1.20312 0,-0.60938 0.28125,-1.10938 0.28125,-0.51562 0.75,-0.85937 0.35937,-0.26563 0.96875,-0.4375 0.60937,-0.1875 1.3125,-0.1875 1.0625,0 1.85937,0.3125 0.79688,0.29687 1.17188,0.82812 0.39062,0.51563 0.53125,1.375 l -1.48438,0.20313 q -0.10937,-0.6875 -0.59375,-1.07813 -0.48437,-0.39062 -1.375,-0.39062 -1.04687,0 -1.5,0.34375 -0.4375,0.34375 -0.4375,0.8125 0,0.29687 0.17188,0.53125 0.1875,0.25 0.59375,0.40625 0.21875,0.0937 1.34375,0.39062 1.60937,0.4375 2.25,0.71875 0.64062,0.26563 1,0.79688 0.375,0.51562 0.375,1.29687 0,0.76563 -0.45313,1.4375 -0.4375,0.67188 -1.28125,1.04688 -0.82812,0.35937 -1.89062,0.35937 -1.75,0 -2.67188,-0.71875 -0.92187,-0.73437 -1.17187,-2.17187 z m 12.60156,1.32812 0.21875,1.34375 q -0.64063,0.14063 -1.15625,0.14063 -0.82813,0 -1.28125,-0.26563 -0.45313,-0.26562 -0.64063,-0.6875 -0.1875,-0.4375 -0.1875,-1.79687 v -5.17188 h -1.125 v -1.1875 h 1.125 v -2.21875 l 1.51563,-0.92187 v 3.14062 h 1.53125 v 1.1875 h -1.53125 v 5.25 q 0,0.65625 0.0781,0.84375 0.0781,0.1875 0.25,0.29688 0.1875,0.10937 0.53125,0.10937 0.25,0 0.67188,-0.0625 z m 1.47058,1.35938 v -8.98438 h 1.375 v 1.35938 q 0.51562,-0.95313 0.95312,-1.25 0.45313,-0.3125 0.98438,-0.3125 0.78125,0 1.5625,0.48437 l -0.51563,1.42188 q -0.5625,-0.32813 -1.125,-0.32813 -0.5,0 -0.89062,0.29688 -0.39063,0.29687 -0.5625,0.82812 -0.26563,0.8125 -0.26563,1.78125 v 4.70313 z m 5.80164,-10.65625 v -1.75 h 1.51562 v 1.75 z m 0,10.65625 v -8.98438 h 1.51562 v 8.98438 z m 5.24041,0 h -1.40625 V 197.3623 h 1.51563 v 4.42187 q 0.96875,-1.20312 2.46875,-1.20312 0.82812,0 1.5625,0.34375 0.73437,0.32812 1.21875,0.9375 0.48437,0.59375 0.75,1.45312 0.26562,0.85938 0.26562,1.82813 0,2.3125 -1.14062,3.57812 -1.14063,1.25 -2.73438,1.25 -1.59375,0 -2.5,-1.32812 z m -0.0156,-4.5625 q 0,1.625 0.4375,2.34375 0.71875,1.17187 1.95312,1.17187 1,0 1.71875,-0.85937 0.73438,-0.875 0.73438,-2.59375 0,-1.76563 -0.70313,-2.59375 -0.70312,-0.84375 -1.6875,-0.84375 -1,0 -1.73437,0.875 -0.71875,0.85937 -0.71875,2.5 z m 14.13702,4.5625 v -1.3125 q -1.04687,1.51562 -2.84375,1.51562 -0.79687,0 -1.5,-0.29687 -0.6875,-0.3125 -1.01562,-0.76563 -0.32807,-0.46875 -0.46869,-1.14062 -0.0937,-0.4375 -0.0937,-1.42188 v -5.5625 h 1.51556 v 4.98438 q 0,1.1875 0.0937,1.60937 0.15625,0.59375 0.60938,0.9375 0.46875,0.34375 1.15625,0.34375 0.6875,0 1.28125,-0.34375 0.60937,-0.35937 0.85937,-0.95312 0.25,-0.60938 0.25,-1.76563 v -4.8125 h 1.51563 v 8.98438 z m 7.07459,-1.35938 0.21875,1.34375 q -0.64063,0.14063 -1.15625,0.14063 -0.82813,0 -1.28125,-0.26563 -0.45313,-0.26562 -0.64063,-0.6875 -0.1875,-0.4375 -0.1875,-1.79687 v -5.17188 h -1.125 v -1.1875 h 1.125 v -2.21875 l 1.51563,-0.92187 v 3.14062 h 1.53125 v 1.1875 h -1.53125 v 5.25 q 0,0.65625 0.0781,0.84375 0.0781,0.1875 0.25,0.29688 0.1875,0.10937 0.53125,0.10937 0.25,0 0.67188,-0.0625 z m 7.64245,-1.53125 1.5625,0.1875 q -0.35937,1.39063 -1.375,2.15625 -1,0.75 -2.5625,0.75 -1.98437,0 -3.14062,-1.20312 -1.14063,-1.21875 -1.14063,-3.42188 0,-2.26562 1.15625,-3.51562 1.17188,-1.25 3.03125,-1.25 1.8125,0 2.95313,1.23437 1.14062,1.21875 1.14062,3.4375 0,0.14063 -0.0156,0.40625 h -6.70313 q 0.0937,1.48438 0.84375,2.28125 0.75,0.78125 1.875,0.78125 0.84375,0 1.4375,-0.4375 0.59375,-0.4375 0.9375,-1.40625 z m -5,-2.46875 h 5.01563 q -0.10938,-1.125 -0.57813,-1.70312 -0.73437,-0.875 -1.89062,-0.875 -1.04688,0 -1.76563,0.70312 -0.70312,0.70313 -0.78125,1.875 z m 14.30896,5.35938 v -1.14063 q -0.84375,1.34375 -2.51562,1.34375 -1.0625,0 -1.96875,-0.59375 -0.90625,-0.59375 -1.40625,-1.65625 -0.48438,-1.0625 -0.48438,-2.4375 0,-1.34375 0.4375,-2.4375 0.45313,-1.09375 1.34375,-1.67187 0.90625,-0.59375 2.01563,-0.59375 0.8125,0 1.4375,0.34375 0.64062,0.34375 1.04687,0.89062 v -4.45312 h 1.51563 v 12.40625 z m -4.8125,-4.48438 q 0,1.71875 0.71875,2.57813 0.73438,0.85937 1.73438,0.85937 0.98437,0 1.6875,-0.8125 0.70312,-0.82812 0.70312,-2.5 0,-1.84375 -0.71875,-2.70312 -0.70312,-0.85938 -1.75,-0.85938 -1.01562,0 -1.70312,0.82813 -0.67188,0.82812 -0.67188,2.60937 z"
       fill="#000000" />
    <path
       id="path961"
       fill-rule="nonzero"
       d="m 538.7629,228.08105 1.51562,-0.23438 q 0.125,0.90625 0.70313,1.39063 0.57812,0.48437 1.60937,0.48437 1.0625,0 1.5625,-0.42187 0.51563,-0.4375 0.51563,-1.01563 0,-0.51562 -0.45313,-0.8125 -0.3125,-0.20312 -1.5625,-0.51562 -1.67187,-0.42188 -2.32812,-0.71875 -0.64063,-0.3125 -0.98438,-0.85938 -0.32812,-0.54687 -0.32812,-1.20312 0,-0.60938 0.28125,-1.10938 0.28125,-0.51562 0.75,-0.85937 0.35937,-0.26563 0.96875,-0.4375 0.60937,-0.1875 1.3125,-0.1875 1.0625,0 1.85937,0.3125 0.79688,0.29687 1.17188,0.82812 0.39062,0.51563 0.53125,1.375 l -1.48438,0.20313 q -0.10937,-0.6875 -0.59375,-1.07813 -0.48437,-0.39062 -1.375,-0.39062 -1.04687,0 -1.5,0.34375 -0.4375,0.34375 -0.4375,0.8125 0,0.29687 0.17188,0.53125 0.1875,0.25 0.59375,0.40625 0.21875,0.0937 1.34375,0.39062 1.60937,0.4375 2.25,0.71875 0.64062,0.26563 1,0.79688 0.375,0.51562 0.375,1.29687 0,0.76563 -0.45313,1.4375 -0.4375,0.67188 -1.28125,1.04688 -0.82812,0.35937 -1.89062,0.35937 -1.75,0 -2.67188,-0.71875 -0.92187,-0.73437 -1.17187,-2.17187 z m 8.71094,-1.8125 q 0,-2.48438 1.39062,-3.6875 1.15625,-1 2.8125,-1 1.85938,0 3.03125,1.21875 1.1875,1.20312 1.1875,3.34375 0,1.73437 -0.53125,2.73437 -0.51562,1 -1.51562,1.54688 -0.98438,0.54687 -2.17188,0.54687 -1.875,0 -3.04687,-1.20312 -1.15625,-1.21875 -1.15625,-3.5 z m 1.5625,0 q 0,1.73437 0.75,2.59375 0.75,0.85937 1.89062,0.85937 1.14063,0 1.89063,-0.85937 0.75,-0.875 0.75,-2.64063 0,-1.65625 -0.75,-2.51562 -0.75,-0.85938 -1.89063,-0.85938 -1.14062,0 -1.89062,0.85938 -0.75,0.84375 -0.75,2.5625 z m 8.62146,4.5 v -8.98438 h 1.375 v 1.35938 q 0.51562,-0.95313 0.95312,-1.25 0.45313,-0.3125 0.98438,-0.3125 0.78125,0 1.5625,0.48437 l -0.51563,1.42188 q -0.5625,-0.32813 -1.125,-0.32813 -0.5,0 -0.89062,0.29688 -0.39063,0.29687 -0.5625,0.82812 -0.26563,0.8125 -0.26563,1.78125 v 4.70313 z m 9.11413,-1.35938 0.21875,1.34375 q -0.64062,0.14063 -1.15625,0.14063 -0.82812,0 -1.28125,-0.26563 -0.45312,-0.26562 -0.64062,-0.6875 -0.1875,-0.4375 -0.1875,-1.79687 v -5.17188 h -1.125 v -1.1875 h 1.125 v -2.21875 l 1.51562,-0.92187 v 3.14062 h 1.53125 v 1.1875 h -1.53125 v 5.25 q 0,0.65625 0.0781,0.84375 0.0781,0.1875 0.25,0.29688 0.1875,0.10937 0.53125,0.10937 0.25,0 0.67187,-0.0625 z"
       fill="#000000" />
    <path
       id="path963"
       fill-rule="evenodd"
       d="m 399.14172,135.18655 c 1.14786,-1.1553 -1.49606,-3.38495 6.88715,-6.93176 8.38321,-3.54681 31.57263,-11.74103 43.41208,-14.34909 11.83944,-2.60804 23.02057,-1.08267 27.62466,-1.29921"
       fill-opacity="0"
       fill="#000000" />
    <path
       id="path965"
       fill-rule="evenodd"
       d="m 399.14172,135.18655 c 1.14786,-1.15529 -1.49606,-3.38495 6.88715,-6.93176 8.38321,-3.54681 31.57263,-11.74104 43.41208,-14.34909 5.9197,-1.30402 11.67486,-1.57469 16.52557,-1.54642 2.42538,0.0141 4.6246,0.103 6.50531,0.1748 l 1.16681,0.0426"
       stroke-linecap="butt"
       stroke-linejoin="round"
       stroke-width="1"
       stroke="#000000" />
    <path
       id="path967"
       fill-rule="evenodd"
       d="m 473.63867,112.57665 -1.13434,1.11475 3.09943,-1.09764 -3.07984,-1.15144 z"
       stroke-linecap="butt"
       stroke-width="1"
       stroke="#000000"
       fill="#000000" />
    <path
       id="path969"
       fill-rule="evenodd"
       d="m 492.46982,122.49081 c -1.38101,1.61068 -0.32678,4.20691 -8.2861,9.66405 -7.95932,5.45712 -28.4335,18.06123 -39.46982,23.07874 -11.03629,5.0175 -22.29001,5.85521 -26.74802,7.02624"
       fill-opacity="0"
       fill="#000000" />
    <path
       id="path971"
       fill-rule="evenodd"
       d="m 492.46982,122.49081 c -1.38104,1.61068 -0.32678,4.20691 -8.2861,9.66405 -7.95932,5.45712 -28.4335,18.06123 -39.46982,23.07874 -5.51813,2.50875 -11.09061,3.97255 -15.84088,4.95555 -2.37513,0.49148 -4.54465,0.86277 -6.39902,1.1844 l -1.15015,0.20148"
       stroke-linecap="butt"
       stroke-linejoin="round"
       stroke-width="1"
       stroke="#b7b7b7" />
    <path
       id="path973"
       fill-rule="evenodd"
       d="m 421.32385,161.57503 0.8772,-1.32661 -2.80277,1.71931 3.2522,0.4845 z"
       stroke-linecap="butt"
       stroke-width="1"
       stroke="#b7b7b7"
       fill="#b7b7b7" />
    <path
       id="path975"
       fill-rule="evenodd"
       d="m 415.38748,170.00197 c 1.62857,-0.005 1.33563,-3.45137 9.77136,-0.0316 8.4357,3.41982 30.62708,14.02292 40.8429,20.55045 10.21585,6.52753 17.04339,15.51228 20.45208,18.61473"
       fill-opacity="0"
       fill="#000000" />
    <path
       id="path977"
       fill-rule="evenodd"
       d="m 415.3875,170.00197 c 1.62851,-0.005 1.33563,-3.45136 9.77133,-0.0315 8.4357,3.4198 30.62708,14.0229 40.84293,20.55043 5.10788,3.26375 9.36871,7.14183 12.77868,10.59178 1.70499,1.72496 3.19724,3.34288 4.47632,4.72348 l 0.79496,0.85515"
       stroke-linecap="butt"
       stroke-linejoin="round"
       stroke-width="1"
       stroke="#000000" />
    <path
       id="path979"
       fill-rule="evenodd"
       d="m 484.0517,206.69127 -1.59033,-0.0138 2.96777,1.41549 -1.36358,-2.99197 z"
       stroke-linecap="butt"
       stroke-width="1"
       stroke="#000000"
       fill="#000000" />
    <path
       id="path981"
       fill-rule="evenodd"
       d="m 490.35693,227.0171 c -2.11542,0.16238 -3.20575,2.74364 -12.69254,0.97435 -9.48675,-1.7693 -32.87643,-7.33423 -44.22809,-11.59013 -11.35165,-4.25591 -19.90149,-11.62107 -23.88177,-13.94529"
       fill-opacity="0"
       fill="#000000" />
    <path
       id="path983"
       fill-rule="evenodd"
       d="m 490.35696,227.0171 c -2.11545,0.16238 -3.20581,2.74364 -12.69257,0.97435 -9.48678,-1.7693 -32.87643,-7.33424 -44.22809,-11.59013 -5.67581,-2.12795 -10.65121,-5.03322 -14.70513,-7.69701 -2.02698,-1.33192 -3.82361,-2.60345 -5.36228,-3.68727 l -0.95572,-0.67079"
       stroke-linecap="butt"
       stroke-linejoin="round"
       stroke-width="1"
       stroke="#b7b7b7" />
    <path
       id="path985"
       fill-rule="evenodd"
       d="m 412.41318,204.34625 1.55832,-0.31779 -3.19757,-0.76612 1.95706,2.64223 z"
       stroke-linecap="butt"
       stroke-width="1"
       stroke="#b7b7b7"
       fill="#b7b7b7" />
    <path
       id="path987"
       fill-rule="evenodd"
       d="m 98.32018,212.29921 h 103.77953 v 44.91338 H 98.32018 Z"
       fill="#ffffff" />
    <path
       id="path989"
       fill-rule="evenodd"
       d="m 98.32018,212.29921 h 103.77953 v 44.91338 H 98.32018 Z"
       stroke-linecap="butt"
       stroke-linejoin="round"
       stroke-width="2"
       stroke="#0b5394" />
    <path
       id="path991"
       fill-rule="nonzero"
       d="m 110.1413,230.3959 v -12.40625 h 4.26563 q 1.45312,0 2.20312,0.1875 1.07813,0.23437 1.82813,0.875 0.98437,0.82812 1.46875,2.125 0.48437,1.29687 0.48437,2.95312 0,1.40625 -0.32812,2.5 -0.32813,1.09375 -0.84375,1.8125 -0.51563,0.70313 -1.14063,1.125 -0.60937,0.40625 -1.48437,0.625 -0.85938,0.20313 -1.98438,0.20313 z m 1.64063,-1.46875 h 2.64062 q 1.23438,0 1.92188,-0.21875 0.70312,-0.23438 1.125,-0.64063 0.57812,-0.59375 0.90625,-1.57812 0.32812,-0.98438 0.32812,-2.39063 0,-1.9375 -0.64062,-2.98437 -0.64063,-1.04688 -1.5625,-1.40625 -0.65625,-0.25 -2.125,-0.25 h -2.59375 z m 10.6857,-9.1875 v -1.75 h 1.51562 v 1.75 z m 0,10.65625 v -8.98438 h 1.51562 v 8.98438 z m 3.22476,-2.6875 1.51563,-0.23438 q 0.125,0.90625 0.70312,1.39063 0.57813,0.48437 1.60938,0.48437 1.0625,0 1.5625,-0.42187 0.51563,-0.4375 0.51563,-1.01563 0,-0.51562 -0.45313,-0.8125 -0.3125,-0.20312 -1.5625,-0.51562 -1.67188,-0.42188 -2.32813,-0.71875 -0.64063,-0.3125 -0.98438,-0.85938 -0.32812,-0.54687 -0.32812,-1.20312 0,-0.60938 0.28125,-1.10938 0.28125,-0.51562 0.75,-0.85937 0.35937,-0.26563 0.96875,-0.4375 0.60938,-0.1875 1.31251,-0.1875 1.0625,0 1.85937,0.3125 0.79688,0.29687 1.17188,0.82812 0.39062,0.51563 0.53125,1.375 l -1.48438,0.20313 q -0.10937,-0.6875 -0.59375,-1.07813 -0.48437,-0.39062 -1.375,-0.39062 -1.04687,0 -1.50001,0.34375 -0.4375,0.34375 -0.4375,0.8125 0,0.29687 0.17188,0.53125 0.1875,0.25 0.59376,0.40625 0.21875,0.0937 1.34375,0.39062 1.60937,0.4375 2.25,0.71875 0.64062,0.26563 1,0.79688 0.375,0.51562 0.375,1.29687 0,0.76563 -0.45313,1.4375 -0.4375,0.67188 -1.28125,1.04688 -0.82812,0.35937 -1.89062,0.35937 -1.75001,0 -2.67189,-0.71875 -0.92187,-0.73437 -1.17187,-2.17187 z m 12.60157,1.32812 0.21875,1.34375 q -0.64063,0.14063 -1.15625,0.14063 -0.82813,0 -1.28125,-0.26563 -0.45313,-0.26562 -0.64063,-0.6875 -0.1875,-0.4375 -0.1875,-1.79687 v -5.17188 h -1.125 v -1.1875 h 1.125 v -2.21875 l 1.51563,-0.92187 v 3.14062 h 1.53125 v 1.1875 h -1.53125 v 5.25 q 0,0.65625 0.0781,0.84375 0.0781,0.1875 0.25,0.29688 0.1875,0.10937 0.53125,0.10937 0.25,0 0.67188,-0.0625 z m 1.47057,1.35938 v -8.98438 h 1.375 v 1.35938 q 0.51562,-0.95313 0.95312,-1.25 0.45313,-0.3125 0.98438,-0.3125 0.78125,0 1.5625,0.48437 l -0.51563,1.42188 q -0.5625,-0.32813 -1.125,-0.32813 -0.5,0 -0.89062,0.29688 -0.39063,0.29687 -0.5625,0.82812 -0.26563,0.8125 -0.26563,1.78125 v 4.70313 z m 5.80165,-10.65625 v -1.75 h 1.51562 v 1.75 z m 0,10.65625 v -8.98438 h 1.51562 v 8.98438 z m 5.24038,0 h -1.40625 v -12.40625 h 1.51563 v 4.42187 q 0.96875,-1.20312 2.46875,-1.20312 0.82812,0 1.5625,0.34375 0.73437,0.32812 1.21875,0.9375 0.48437,0.59375 0.75,1.45312 0.26562,0.85938 0.26562,1.82813 0,2.3125 -1.14062,3.57812 -1.14063,1.25 -2.73438,1.25 -1.59375,0 -2.5,-1.32812 z m -0.0156,-4.5625 q 0,1.625 0.4375,2.34375 0.71875,1.17187 1.95312,1.17187 1,0 1.71875,-0.85937 0.73438,-0.875 0.73438,-2.59375 0,-1.76563 -0.70313,-2.59375 -0.70312,-0.84375 -1.6875,-0.84375 -1,0 -1.73437,0.875 -0.71875,0.85937 -0.71875,2.5 z m 14.13708,4.5625 v -1.3125 q -1.04687,1.51562 -2.84375,1.51562 -0.79687,0 -1.5,-0.29687 -0.6875,-0.3125 -1.01562,-0.76563 -0.32813,-0.46875 -0.46875,-1.14062 -0.0937,-0.4375 -0.0937,-1.42188 v -5.5625 h 1.51562 v 4.98438 q 0,1.1875 0.0937,1.60937 0.15625,0.59375 0.60938,0.9375 0.46875,0.34375 1.15625,0.34375 0.6875,0 1.28125,-0.34375 0.60937,-0.35937 0.85937,-0.95312 0.25,-0.60938 0.25,-1.76563 v -4.8125 h 1.51563 v 8.98438 z m 7.07459,-1.35938 0.21875,1.34375 q -0.64063,0.14063 -1.15625,0.14063 -0.82813,0 -1.28125,-0.26563 -0.45313,-0.26562 -0.64063,-0.6875 -0.1875,-0.4375 -0.1875,-1.79687 v -5.17188 h -1.125 v -1.1875 h 1.125 v -2.21875 l 1.51563,-0.92187 v 3.14062 h 1.53125 v 1.1875 h -1.53125 v 5.25 q 0,0.65625 0.0781,0.84375 0.0781,0.1875 0.25,0.29688 0.1875,0.10937 0.53125,0.10937 0.25,0 0.67188,-0.0625 z m 7.64244,-1.53125 1.5625,0.1875 q -0.35938,1.39063 -1.375,2.15625 -1,0.75 -2.5625,0.75 -1.98438,0 -3.14063,-1.20312 -1.14062,-1.21875 -1.14062,-3.42188 0,-2.26562 1.15625,-3.51562 1.17187,-1.25 3.03125,-1.25 1.8125,0 2.95312,1.23437 1.14063,1.21875 1.14063,3.4375 0,0.14063 -0.0156,0.40625 h -6.70312 q 0.0937,1.48438 0.84375,2.28125 0.75,0.78125 1.875,0.78125 0.84375,0 1.4375,-0.4375 0.59375,-0.4375 0.9375,-1.40625 z m -5,-2.46875 h 5.01562 q -0.10937,-1.125 -0.57812,-1.70312 -0.73438,-0.875 -1.89063,-0.875 -1.04687,0 -1.76562,0.70312 -0.70313,0.70313 -0.78125,1.875 z m 14.30896,5.35938 v -1.14063 q -0.84375,1.34375 -2.51563,1.34375 -1.0625,0 -1.96875,-0.59375 -0.90625,-0.59375 -1.40625,-1.65625 -0.48437,-1.0625 -0.48437,-2.4375 0,-1.34375 0.4375,-2.4375 0.45312,-1.09375 1.34375,-1.67187 0.90625,-0.59375 2.01562,-0.59375 0.8125,0 1.4375,0.34375 0.64063,0.34375 1.04688,0.89062 v -4.45312 h 1.51562 v 12.40625 z m -4.8125,-4.48438 q 0,1.71875 0.71875,2.57813 0.73437,0.85937 1.73437,0.85937 0.98438,0 1.6875,-0.8125 0.70313,-0.82812 0.70313,-2.5 0,-1.84375 -0.71875,-2.70312 -0.70313,-0.85938 -1.75,-0.85938 -1.01563,0 -1.70313,0.82813 -0.67187,0.82812 -0.67187,2.60937 z"
       fill="#000000" />
    <path
       id="path993"
       fill-rule="nonzero"
       d="m 136.29826,248.7084 1.51562,-0.23438 q 0.125,0.90625 0.70313,1.39063 0.57812,0.48437 1.60937,0.48437 1.0625,0 1.5625,-0.42187 0.51563,-0.4375 0.51563,-1.01563 0,-0.51562 -0.45313,-0.8125 -0.3125,-0.20312 -1.5625,-0.51562 -1.67187,-0.42188 -2.32812,-0.71875 -0.64063,-0.3125 -0.98438,-0.85938 -0.32812,-0.54687 -0.32812,-1.20312 0,-0.60938 0.28125,-1.10938 0.28125,-0.51562 0.75,-0.85937 0.35937,-0.26563 0.96875,-0.4375 0.60937,-0.1875 1.3125,-0.1875 1.0625,0 1.85937,0.3125 0.79688,0.29687 1.17188,0.82812 0.39062,0.51563 0.53125,1.375 l -1.48438,0.20313 q -0.10937,-0.6875 -0.59375,-1.07813 -0.48437,-0.39062 -1.375,-0.39062 -1.04687,0 -1.5,0.34375 -0.4375,0.34375 -0.4375,0.8125 0,0.29687 0.17188,0.53125 0.1875,0.25 0.59375,0.40625 0.21875,0.0937 1.34375,0.39062 1.60937,0.4375 2.25,0.71875 0.64062,0.26563 1,0.79688 0.375,0.51562 0.375,1.29687 0,0.76563 -0.45313,1.4375 -0.4375,0.67188 -1.28125,1.04688 -0.82812,0.35937 -1.89062,0.35937 -1.75,0 -2.67188,-0.71875 -0.92187,-0.73437 -1.17187,-2.17187 z m 8.71094,-1.8125 q 0,-2.48438 1.39062,-3.6875 1.15625,-1 2.8125,-1 1.85938,0 3.03125,1.21875 1.1875,1.20312 1.1875,3.34375 0,1.73437 -0.53125,2.73437 -0.51562,1 -1.51562,1.54688 -0.98438,0.54687 -2.17188,0.54687 -1.875,0 -3.04687,-1.20312 -1.15625,-1.21875 -1.15625,-3.5 z m 1.5625,0 q 0,1.73437 0.75,2.59375 0.75,0.85937 1.89062,0.85937 1.14063,0 1.89063,-0.85937 0.75,-0.875 0.75,-2.64063 0,-1.65625 -0.75,-2.51562 -0.75,-0.85938 -1.89063,-0.85938 -1.14062,0 -1.89062,0.85938 -0.75,0.84375 -0.75,2.5625 z m 8.62146,4.5 v -8.98438 h 1.375 v 1.35938 q 0.51562,-0.95313 0.95312,-1.25 0.45313,-0.3125 0.98438,-0.3125 0.78125,0 1.5625,0.48437 l -0.51563,1.42188 q -0.5625,-0.32813 -1.125,-0.32813 -0.5,0 -0.89062,0.29688 -0.39063,0.29687 -0.5625,0.82812 -0.26563,0.8125 -0.26563,1.78125 v 4.70313 z m 9.11415,-1.35938 0.21875,1.34375 q -0.64063,0.14063 -1.15625,0.14063 -0.82813,0 -1.28125,-0.26563 -0.45313,-0.26562 -0.64063,-0.6875 -0.1875,-0.4375 -0.1875,-1.79687 v -5.17188 h -1.125 v -1.1875 h 1.125 v -2.21875 l 1.51563,-0.92187 v 3.14062 h 1.53125 v 1.1875 h -1.53125 v 5.25 q 0,0.65625 0.0781,0.84375 0.0781,0.1875 0.25,0.29688 0.1875,0.10937 0.53125,0.10937 0.25,0 0.67188,-0.0625 z"
       fill="#000000" />
    <path
       id="path995"
       fill-rule="evenodd"
       d="m 150.90027,152.24934 h 76.7874 v 29.70079 h -76.7874 z"
       fill-opacity="0"
       fill="#000000" />
    <path
       id="path997"
       fill-rule="nonzero"
       d="m 162.82059,170.83974 v -1.46875 h 1.46875 v 1.46875 z m 4.3669,0 h -1.46875 v -5.53125 h 1.35937 v 0.79687 q 0.34375,-0.5625 0.625,-0.73437 0.28125,-0.1875 0.625,-0.1875 0.5,0 0.96875,0.28125 l -0.45312,1.28125 q -0.375,-0.25 -0.6875,-0.25 -0.3125,0 -0.53125,0.17187 -0.20313,0.17188 -0.32813,0.625 -0.10937,0.4375 -0.10937,1.84375 z m 5.94386,-1.76563 1.45313,0.25 q -0.28125,0.79688 -0.89063,1.21875 -0.60937,0.42188 -1.51562,0.42188 -1.4375,0 -2.125,-0.9375 -0.54688,-0.76563 -0.54688,-1.90625 0,-1.375 0.71875,-2.15625 0.71875,-0.78125 1.8125,-0.78125 1.23438,0 1.9375,0.82812 0.71875,0.8125 0.6875,2.48438 h -3.65625 q 0.0156,0.65625 0.34375,1.01562 0.34375,0.35938 0.84375,0.35938 0.34375,0 0.57813,-0.1875 0.23437,-0.1875 0.35937,-0.60938 z m 0.0781,-1.46875 q -0.0156,-0.64062 -0.32813,-0.96875 -0.3125,-0.32812 -0.76562,-0.32812 -0.46875,0 -0.78125,0.34375 -0.3125,0.35937 -0.3125,0.95312 z m 2.53587,-2.29687 h 1.34375 v 0.76562 q 0.71875,-0.89062 1.71875,-0.89062 0.53125,0 0.92187,0.21875 0.39063,0.21875 0.64063,0.67187 0.375,-0.45312 0.79687,-0.67187 0.42188,-0.21875 0.89063,-0.21875 0.60937,0 1.03125,0.25 0.42187,0.25 0.625,0.73437 0.15625,0.34375 0.15625,1.14063 v 3.53125 h -1.45313 v -3.15625 q 0,-0.82813 -0.15625,-1.0625 -0.20312,-0.3125 -0.625,-0.3125 -0.3125,0 -0.57812,0.1875 -0.26563,0.1875 -0.39063,0.54687 -0.125,0.35938 -0.125,1.14063 v 2.65625 h -1.45312 v -3.03125 q 0,-0.79688 -0.0781,-1.03125 -0.0781,-0.23438 -0.25,-0.34375 -0.15625,-0.125 -0.4375,-0.125 -0.34375,0 -0.60937,0.1875 -0.26563,0.17187 -0.39063,0.51562 -0.10937,0.34375 -0.10937,1.14063 v 2.6875 h -1.46875 z m 9.24074,2.6875 q 0,-0.71875 0.35937,-1.40625 0.35938,-0.6875 1.01563,-1.04688 0.67187,-0.35937 1.46875,-0.35937 1.26562,0 2.0625,0.82812 0.79687,0.8125 0.79687,2.04688 0,1.25 -0.8125,2.07812 -0.79687,0.82813 -2.03125,0.82813 -0.75,0 -1.45312,-0.34375 -0.6875,-0.34375 -1.04688,-1 -0.35937,-0.67188 -0.35937,-1.625 z m 1.5,0.0781 q 0,0.82813 0.39062,1.26563 0.39063,0.4375 0.96875,0.4375 0.5625,0 0.95313,-0.4375 0.39062,-0.4375 0.39062,-1.26563 0,-0.8125 -0.39062,-1.25 -0.39063,-0.4375 -0.95313,-0.4375 -0.57812,0 -0.96875,0.4375 -0.39062,0.4375 -0.39062,1.25 z m 7.88426,-2.76562 v 1.17187 h -1 v 2.21875 q 0,0.6875 0.0312,0.79688 0.0312,0.10937 0.125,0.1875 0.10937,0.0625 0.25,0.0625 0.20312,0 0.59375,-0.14063 l 0.125,1.14063 q -0.51563,0.21875 -1.15625,0.21875 -0.39063,0 -0.71875,-0.125 -0.3125,-0.14063 -0.46875,-0.34375 -0.14063,-0.21875 -0.20313,-0.57813 -0.0469,-0.25 -0.0469,-1.03125 v -2.40625 h -0.67188 v -1.17187 h 0.67188 v -1.09375 l 1.46875,-0.85938 v 1.95313 z m 4.22049,3.76562 1.45312,0.25 q -0.28125,0.79688 -0.89062,1.21875 -0.60938,0.42188 -1.51563,0.42188 -1.4375,0 -2.125,-0.9375 -0.54687,-0.76563 -0.54687,-1.90625 0,-1.375 0.71875,-2.15625 0.71875,-0.78125 1.8125,-0.78125 1.23437,0 1.9375,0.82812 0.71875,0.8125 0.6875,2.48438 h -3.65625 q 0.0156,0.65625 0.34375,1.01562 0.34375,0.35938 0.84375,0.35938 0.34375,0 0.57812,-0.1875 0.23438,-0.1875 0.35938,-0.60938 z m 0.0781,-1.46875 q -0.0156,-0.64062 -0.32812,-0.96875 -0.3125,-0.32812 -0.76563,-0.32812 -0.46875,0 -0.78125,0.34375 -0.3125,0.35937 -0.3125,0.95312 z m 8.02777,5.48438 h -1 q -0.79687,-1.20313 -1.21875,-2.5 -0.40625,-1.29688 -0.40625,-2.51563 0,-1.5 0.51563,-2.84375 0.4375,-1.17187 1.125,-2.15625 h 1 q -0.70313,1.57813 -0.98438,2.6875 -0.26562,1.10938 -0.26562,2.34375 0,0.85938 0.15625,1.75 0.17187,0.89063 0.4375,1.70313 0.1875,0.53125 0.64062,1.53125 z m 4.54862,-2.25 h -1.45313 v -5.51563 q -0.79687,0.75 -1.89062,1.10938 v -1.32813 q 0.57812,-0.1875 1.23437,-0.70312 0.67188,-0.53125 0.92188,-1.21875 h 1.1875 z m 2.09837,2.25 q 0.4375,-0.9375 0.60938,-1.4375 0.17187,-0.48438 0.32812,-1.125 0.15625,-0.65625 0.21875,-1.23438 0.0781,-0.57812 0.0781,-1.1875 0,-1.23437 -0.26563,-2.34375 -0.26562,-1.10937 -0.98437,-2.6875 h 1 q 0.78125,1.125 1.21875,2.39063 0.4375,1.25 0.4375,2.53125 0,1.09375 -0.34375,2.32812 -0.39063,1.40625 -1.28125,2.76563 z"
       fill="#000000" />
    <path
       id="path999"
       fill-rule="evenodd"
       d="m 227.68767,205.86089 h 76.7874 v 29.70079 h -76.7874 z"
       fill-opacity="0"
       fill="#000000" />
    <path
       id="path1001"
       fill-rule="nonzero"
       d="m 242.88374,224.45128 v -5.53125 h 0.84375 v 0.84375 q 0.32812,-0.59375 0.59375,-0.78125 0.28125,-0.1875 0.60937,-0.1875 0.46875,0 0.95313,0.3125 l -0.3125,0.85937 q -0.34375,-0.20312 -0.6875,-0.20312 -0.3125,0 -0.5625,0.1875 -0.23438,0.1875 -0.34375,0.51562 -0.15625,0.5 -0.15625,1.09375 v 2.89063 z m 7.17361,-0.6875 q -0.53125,0.45312 -1.01562,0.64062 -0.46875,0.17188 -1.01563,0.17188 -0.92187,0 -1.40625,-0.4375 -0.48437,-0.45313 -0.48437,-1.14063 0,-0.40625 0.17187,-0.73437 0.1875,-0.34375 0.48438,-0.54688 0.3125,-0.20312 0.6875,-0.3125 0.26562,-0.0625 0.82812,-0.14062 1.125,-0.125 1.67188,-0.3125 0,-0.20313 0,-0.25 0,-0.57813 -0.26563,-0.8125 -0.35937,-0.3125 -1.0625,-0.3125 -0.65625,0 -0.98437,0.23437 -0.3125,0.23438 -0.45313,0.8125 l -0.92187,-0.125 q 0.125,-0.57812 0.40625,-0.9375 0.29687,-0.375 0.82812,-0.5625 0.54688,-0.20312 1.25,-0.20312 0.71875,0 1.15625,0.17187 0.4375,0.17188 0.64063,0.42188 0.21875,0.25 0.29687,0.64062 0.0469,0.23438 0.0469,0.85938 v 1.25 q 0,1.29687 0.0625,1.65625 0.0625,0.34375 0.23437,0.65625 h -0.96875 q -0.15625,-0.29688 -0.1875,-0.6875 z m -0.0781,-2.07813 q -0.51563,0.20313 -1.53125,0.34375 -0.57813,0.0781 -0.82813,0.1875 -0.23437,0.10938 -0.35937,0.3125 -0.125,0.1875 -0.125,0.4375 0,0.375 0.28125,0.625 0.28125,0.25 0.82812,0.25 0.53125,0 0.95313,-0.23437 0.42187,-0.23438 0.625,-0.65625 0.15625,-0.3125 0.15625,-0.9375 z m 2.34837,4.89063 -0.0937,-0.875 q 0.29688,0.0781 0.53125,0.0781 0.3125,0 0.5,-0.10937 0.1875,-0.0937 0.3125,-0.28125 0.0781,-0.14063 0.28125,-0.70313 0.0312,-0.0781 0.0781,-0.21875 l -2.09375,-5.54687 h 1.01562 l 1.14063,3.20312 q 0.23437,0.60938 0.40625,1.28125 0.15625,-0.64062 0.375,-1.26562 l 1.1875,-3.21875 h 0.9375 l -2.10938,5.625 q -0.32812,0.90625 -0.51562,1.25 -0.25,0.46875 -0.57813,0.6875 -0.3125,0.21875 -0.76562,0.21875 -0.26563,0 -0.60938,-0.125 z m 4.84897,-2.125 v -1.0625 h 1.0625 v 1.0625 z m 2.52313,0.45312 0.90625,0.14063 q 0.0625,0.42187 0.32813,0.60937 0.34375,0.26563 0.9375,0.26563 0.65625,0 1,-0.26563 0.35937,-0.25 0.48437,-0.71875 0.0781,-0.29687 0.0781,-1.20312 -0.625,0.71875 -1.53125,0.71875 -1.14063,0 -1.76563,-0.8125 -0.625,-0.82813 -0.625,-1.98438 0,-0.78125 0.28125,-1.45312 0.29688,-0.67188 0.82813,-1.03125 0.54687,-0.375 1.28125,-0.375 0.98437,0 1.60937,0.79687 v -0.67187 h 0.875 v 4.78125 q 0,1.29687 -0.26562,1.82812 -0.26563,0.54688 -0.84375,0.85938 -0.5625,0.3125 -1.39063,0.3125 -0.98437,0 -1.59375,-0.45313 -0.60937,-0.4375 -0.59375,-1.34375 z m 0.78125,-3.3125 q 0,1.07813 0.42188,1.57813 0.4375,0.5 1.07812,0.5 0.65625,0 1.09375,-0.48438 0.4375,-0.5 0.4375,-1.5625 0,-1.01562 -0.45312,-1.53125 -0.45313,-0.51562 -1.09375,-0.51562 -0.60938,0 -1.04688,0.51562 -0.4375,0.5 -0.4375,1.5 z m 9.09839,1.07813 0.96875,0.125 q -0.23437,0.84375 -0.85937,1.3125 -0.60938,0.46875 -1.57813,0.46875 -1.20312,0 -1.92187,-0.75 -0.70313,-0.75 -0.70313,-2.09375 0,-1.39063 0.71875,-2.15625 0.71875,-0.78125 1.85938,-0.78125 1.10937,0 1.8125,0.76562 0.70312,0.75 0.70312,2.125 0,0.0781 0,0.23438 h -4.125 q 0.0469,0.92187 0.51563,1.40625 0.46875,0.48437 1.15625,0.48437 0.51562,0 0.875,-0.26562 0.35937,-0.28125 0.57812,-0.875 z m -3.07812,-1.51563 h 3.09375 q -0.0625,-0.6875 -0.35938,-1.04687 -0.45312,-0.53125 -1.15625,-0.53125 -0.64062,0 -1.09375,0.4375 -0.4375,0.42187 -0.48437,1.14062 z m 7.27023,2.45313 0.125,0.82812 q -0.39062,0.0937 -0.70312,0.0937 -0.5,0 -0.78125,-0.15625 -0.28125,-0.17187 -0.40625,-0.4375 -0.10938,-0.26562 -0.10938,-1.10937 v -3.17188 h -0.6875 v -0.73437 h 0.6875 v -1.35938 l 0.9375,-0.5625 v 1.92188 h 0.9375 v 0.73437 h -0.9375 v 3.23438 q 0,0.39062 0.0469,0.51562 0.0469,0.10938 0.15625,0.1875 0.10937,0.0625 0.32812,0.0625 0.15625,0 0.40625,-0.0469 z m 5.6713,3.09375 q -0.78125,-0.98438 -1.32813,-2.29688 -0.53125,-1.3125 -0.53125,-2.71875 0,-1.23437 0.40625,-2.375 0.46875,-1.3125 1.45313,-2.625 h 0.65625 q -0.625,1.09375 -0.82813,1.54688 -0.3125,0.71875 -0.5,1.5 -0.21875,0.98437 -0.21875,1.96875 0,2.5 1.54688,5 z m 6.40799,-3.15625 v 0.90625 h -5.03125 q -0.0156,-0.34375 0.10937,-0.65625 0.1875,-0.51563 0.60938,-1.01563 0.42187,-0.5 1.23437,-1.14062 1.23438,-1.03125 1.67188,-1.625 0.4375,-0.59375 0.4375,-1.125 0,-0.5625 -0.40625,-0.9375 -0.39063,-0.39063 -1.03125,-0.39063 -0.67188,0 -1.07813,0.40625 -0.40625,0.40625 -0.40625,1.125 l -0.96875,-0.0937 q 0.0937,-1.07812 0.73438,-1.64062 0.65625,-0.5625 1.73437,-0.5625 1.10938,0 1.75,0.60937 0.64063,0.60938 0.64063,1.5 0,0.46875 -0.1875,0.90625 -0.1875,0.4375 -0.625,0.9375 -0.4375,0.48438 -1.45313,1.32813 -0.82812,0.71875 -1.07812,0.96875 -0.23438,0.25 -0.39063,0.5 z m 1.87963,3.15625 h -0.67187 q 1.5625,-2.5 1.5625,-5 0,-0.98438 -0.21875,-1.95313 -0.1875,-0.78125 -0.5,-1.5 -0.20313,-0.46875 -0.84375,-1.5625 h 0.67187 q 0.98438,1.3125 1.45313,2.625 0.39062,1.14063 0.39062,2.375 0,1.40625 -0.53125,2.71875 -0.53125,1.3125 -1.3125,2.29688 z"
       fill="#000000" />
    <path
       id="path1003"
       fill-rule="evenodd"
       d="m 188.79527,190.89784 c 1.14786,-1.1553 -1.49606,-3.38496 6.88715,-6.93176 8.38319,-3.54682 31.57261,-11.74103 43.41206,-14.34908 11.83946,-2.60806 23.02057,-1.08269 27.62466,-1.29922"
       fill-opacity="0"
       fill="#000000" />
    <path
       id="path1005"
       fill-rule="evenodd"
       d="m 188.79527,190.89784 c 1.14787,-1.1553 -1.49606,-3.38496 6.88715,-6.93176 8.38319,-3.54682 31.5726,-11.74103 43.41206,-14.34909 5.91975,-1.30402 11.67488,-1.5747 16.52559,-1.54642 2.42537,0.0141 4.62465,0.10301 6.50529,0.1748 l 1.16684,0.0426"
       stroke-linecap="butt"
       stroke-linejoin="round"
       stroke-width="1"
       stroke="#000000" />
    <path
       id="path1007"
       fill-rule="evenodd"
       d="m 263.2922,168.28793 -1.13434,1.11475 3.09946,-1.09763 -3.07987,-1.15144 z"
       stroke-linecap="butt"
       stroke-width="1"
       stroke="#000000"
       fill="#000000" />
    <path
       id="path1009"
       fill-rule="evenodd"
       d="m 282.12335,178.2021 c -1.38101,1.61067 -0.32675,4.20691 -8.28607,9.66403 -7.95932,5.45714 -28.43352,18.06125 -39.46983,23.07875 -11.03631,5.0175 -22.29003,5.85521 -26.74804,7.02625"
       fill-opacity="0"
       fill="#000000" />
    <path
       id="path1011"
       fill-rule="evenodd"
       d="m 282.12335,178.2021 c -1.38101,1.61066 -0.32675,4.20691 -8.28607,9.66403 -7.95932,5.45714 -28.43352,18.06125 -39.46983,23.07875 -5.51816,2.50873 -11.09067,3.97254 -15.84087,4.95554 -2.37511,0.4915 -4.54465,0.86281 -6.39903,1.1844 l -1.15017,0.20149"
       stroke-linecap="butt"
       stroke-linejoin="round"
       stroke-width="1"
       stroke="#b7b7b7" />
    <path
       id="path1013"
       fill-rule="evenodd"
       d="m 210.97739,217.28632 0.8772,-1.32661 -2.80275,1.71931 3.25218,0.4845 z"
       stroke-linecap="butt"
       stroke-width="1"
       stroke="#b7b7b7"
       fill="#b7b7b7" />
    <path
       id="path1015"
       fill-rule="evenodd"
       d="m 205.04103,249.71326 c 1.62857,-0.005 1.33563,-3.45137 9.77135,-0.0316 8.43571,3.41982 30.62707,14.02292 40.84291,20.55045 10.21583,6.52753 17.04341,15.51227 20.45207,18.61472"
       fill-opacity="0"
       fill="#000000" />
    <path
       id="path1017"
       fill-rule="evenodd"
       d="m 205.04103,249.71326 c 1.62857,-0.005 1.33563,-3.45137 9.77135,-0.0316 8.43571,3.41982 30.62709,14.02292 40.84291,20.55045 5.10792,3.26376 9.36876,7.14182 12.77873,10.59177 1.70495,1.72497 3.19723,3.34289 4.47626,4.72348 l 0.79498,0.85516"
       stroke-linecap="butt"
       stroke-linejoin="round"
       stroke-width="1"
       stroke="#000000" />
    <path
       id="path1019"
       fill-rule="evenodd"
       d="m 273.70526,286.40256 -1.59036,-0.0138 2.9678,1.41549 -1.36362,-2.99197 z"
       stroke-linecap="butt"
       stroke-width="1"
       stroke="#000000"
       fill="#000000" />
    <path
       id="path1021"
       fill-rule="evenodd"
       d="m 280.01047,298.7284 c -2.11542,0.16238 -3.20575,2.74365 -12.69254,0.97433 -9.48675,-1.76928 -32.87643,-7.33422 -44.22807,-11.59011 -11.35165,-4.25589 -19.90149,-11.62107 -23.88179,-13.94529"
       fill-opacity="0"
       fill="#000000" />
    <path
       id="path1023"
       fill-rule="evenodd"
       d="m 280.01047,298.7284 c -2.11542,0.16238 -3.20575,2.74365 -12.69254,0.97433 -9.48675,-1.76928 -32.87643,-7.33422 -44.22807,-11.59011 -5.67581,-2.12796 -10.65121,-5.03321 -14.70515,-7.69702 -2.02698,-1.33191 -3.8236,-2.60343 -5.36226,-3.68726 l -0.9557,-0.67081"
       stroke-linecap="butt"
       stroke-linejoin="round"
       stroke-width="1"
       stroke="#b7b7b7" />
    <path
       id="path1025"
       fill-rule="evenodd"
       d="m 202.06674,276.05753 1.55832,-0.31778 -3.19756,-0.76611 1.95703,2.64224 z"
       stroke-linecap="butt"
       stroke-width="1"
       stroke="#b7b7b7"
       fill="#b7b7b7" />
    <path
       id="path1027"
       fill-rule="evenodd"
       d="m 278.73227,303.45358 h 123.46457 v 47.37006 H 278.73227 Z"
       fill="#ffffff" />
    <path
       id="path1029"
       fill-rule="evenodd"
       d="m 278.73227,303.45358 h 123.46457 v 47.37006 H 278.73227 Z"
       stroke-linecap="butt"
       stroke-linejoin="round"
       stroke-width="2"
       stroke="#3d85c6" />
    <path
       id="path1031"
       fill-rule="nonzero"
       d="m 300.39594,322.7786 v -12.40625 h 4.26562 q 1.45313,0 2.20313,0.1875 1.07812,0.23437 1.82812,0.875 0.98438,0.82812 1.46875,2.125 0.48438,1.29687 0.48438,2.95312 0,1.40625 -0.32813,2.5 -0.32812,1.09375 -0.84375,1.8125 -0.51562,0.70313 -1.14062,1.125 -0.60938,0.40625 -1.48438,0.625 -0.85937,0.20313 -1.98437,0.20313 z m 1.64062,-1.46875 h 2.64063 q 1.23437,0 1.92187,-0.21875 0.70313,-0.23438 1.125,-0.64063 0.57813,-0.59375 0.90625,-1.57812 0.32813,-0.98438 0.32813,-2.39063 0,-1.9375 -0.64063,-2.98437 -0.64062,-1.04688 -1.5625,-1.40625 -0.65625,-0.25 -2.125,-0.25 h -2.59375 z m 10.6857,-9.1875 v -1.75 h 1.51563 v 1.75 z m 0,10.65625 v -8.98438 h 1.51563 v 8.98438 z m 3.22477,-2.6875 1.51562,-0.23438 q 0.125,0.90625 0.70313,1.39063 0.57812,0.48437 1.60937,0.48437 1.0625,0 1.5625,-0.42187 0.51563,-0.4375 0.51563,-1.01563 0,-0.51562 -0.45313,-0.8125 -0.3125,-0.20312 -1.5625,-0.51562 -1.67187,-0.42188 -2.32812,-0.71875 -0.64063,-0.3125 -0.98438,-0.85938 -0.32812,-0.54687 -0.32812,-1.20312 0,-0.60938 0.28125,-1.10938 0.28125,-0.51562 0.75,-0.85937 0.35937,-0.26563 0.96875,-0.4375 0.60937,-0.1875 1.3125,-0.1875 1.0625,0 1.85937,0.3125 0.79688,0.29687 1.17188,0.82812 0.39062,0.51563 0.53125,1.375 l -1.48438,0.20313 q -0.10937,-0.6875 -0.59375,-1.07813 -0.48437,-0.39062 -1.375,-0.39062 -1.04687,0 -1.5,0.34375 -0.4375,0.34375 -0.4375,0.8125 0,0.29687 0.17188,0.53125 0.1875,0.25 0.59375,0.40625 0.21875,0.0937 1.34375,0.39062 1.60937,0.4375 2.25,0.71875 0.64062,0.26563 1,0.79688 0.375,0.51562 0.375,1.29687 0,0.76563 -0.45313,1.4375 -0.4375,0.67188 -1.28125,1.04688 -0.82812,0.35937 -1.89062,0.35937 -1.75,0 -2.67188,-0.71875 -0.92187,-0.73437 -1.17187,-2.17187 z m 12.60156,1.32812 0.21875,1.34375 q -0.64063,0.14063 -1.15625,0.14063 -0.82813,0 -1.28125,-0.26563 -0.45313,-0.26562 -0.64063,-0.6875 -0.1875,-0.4375 -0.1875,-1.79687 v -5.17188 h -1.125 v -1.1875 h 1.125 v -2.21875 l 1.51563,-0.92187 v 3.14062 h 1.53125 v 1.1875 h -1.53125 v 5.25 q 0,0.65625 0.0781,0.84375 0.0781,0.1875 0.25,0.29688 0.1875,0.10937 0.53125,0.10937 0.25,0 0.67188,-0.0625 z m 1.47055,1.35938 v -8.98438 h 1.375 v 1.35938 q 0.51562,-0.95313 0.95312,-1.25 0.45313,-0.3125 0.98438,-0.3125 0.78125,0 1.5625,0.48437 l -0.51563,1.42188 q -0.5625,-0.32813 -1.125,-0.32813 -0.5,0 -0.89062,0.29688 -0.39063,0.29687 -0.5625,0.82812 -0.26563,0.8125 -0.26563,1.78125 v 4.70313 z m 5.80167,-10.65625 v -1.75 h 1.51562 v 1.75 z m 0,10.65625 v -8.98438 h 1.51562 v 8.98438 z m 5.24038,0 h -1.40625 v -12.40625 h 1.51563 v 4.42187 q 0.96875,-1.20312 2.46875,-1.20312 0.82812,0 1.5625,0.34375 0.73437,0.32812 1.21875,0.9375 0.48437,0.59375 0.75,1.45312 0.26562,0.85938 0.26562,1.82813 0,2.3125 -1.14062,3.57812 -1.14063,1.25 -2.73438,1.25 -1.59375,0 -2.5,-1.32812 z m -0.0156,-4.5625 q 0,1.625 0.4375,2.34375 0.71875,1.17187 1.95312,1.17187 1,0 1.71875,-0.85937 0.73438,-0.875 0.73438,-2.59375 0,-1.76563 -0.70313,-2.59375 -0.70312,-0.84375 -1.6875,-0.84375 -1,0 -1.73437,0.875 -0.71875,0.85937 -0.71875,2.5 z m 14.13708,4.5625 v -1.3125 q -1.04687,1.51562 -2.84375,1.51562 -0.79687,0 -1.5,-0.29687 -0.6875,-0.3125 -1.01562,-0.76563 -0.32813,-0.46875 -0.46875,-1.14062 -0.0937,-0.4375 -0.0937,-1.42188 v -5.5625 h 1.51562 v 4.98438 q 0,1.1875 0.0937,1.60937 0.15625,0.59375 0.60938,0.9375 0.46875,0.34375 1.15625,0.34375 0.6875,0 1.28125,-0.34375 0.60937,-0.35937 0.85937,-0.95312 0.25,-0.60938 0.25,-1.76563 v -4.8125 h 1.51563 v 8.98438 z m 7.07459,-1.35938 0.21875,1.34375 q -0.64063,0.14063 -1.15625,0.14063 -0.82813,0 -1.28125,-0.26563 -0.45313,-0.26562 -0.64063,-0.6875 -0.1875,-0.4375 -0.1875,-1.79687 v -5.17188 h -1.125 v -1.1875 h 1.125 v -2.21875 l 1.51563,-0.92187 v 3.14062 h 1.53125 v 1.1875 h -1.53125 v 5.25 q 0,0.65625 0.0781,0.84375 0.0781,0.1875 0.25,0.29688 0.1875,0.10937 0.53125,0.10937 0.25,0 0.67188,-0.0625 z m 7.64242,-1.53125 1.5625,0.1875 q -0.35937,1.39063 -1.375,2.15625 -1,0.75 -2.5625,0.75 -1.98437,0 -3.14062,-1.20312 -1.14063,-1.21875 -1.14063,-3.42188 0,-2.26562 1.15625,-3.51562 1.17188,-1.25 3.03125,-1.25 1.8125,0 2.95313,1.23437 1.14062,1.21875 1.14062,3.4375 0,0.14063 -0.0156,0.40625 h -6.70313 q 0.0937,1.48438 0.84375,2.28125 0.75,0.78125 1.875,0.78125 0.84375,0 1.4375,-0.4375 0.59375,-0.4375 0.9375,-1.40625 z m -5,-2.46875 h 5.01563 q -0.10938,-1.125 -0.57813,-1.70312 -0.73437,-0.875 -1.89062,-0.875 -1.04688,0 -1.76563,0.70312 -0.70312,0.70313 -0.78125,1.875 z m 14.30896,5.35938 v -1.14063 q -0.84375,1.34375 -2.51562,1.34375 -1.0625,0 -1.96875,-0.59375 -0.90625,-0.59375 -1.40625,-1.65625 -0.48438,-1.0625 -0.48438,-2.4375 0,-1.34375 0.4375,-2.4375 0.45313,-1.09375 1.34375,-1.67187 0.90625,-0.59375 2.01563,-0.59375 0.8125,0 1.4375,0.34375 0.64062,0.34375 1.04687,0.89062 v -4.45312 h 1.51563 v 12.40625 z m -4.8125,-4.48438 q 0,1.71875 0.71875,2.57813 0.73438,0.85937 1.73438,0.85937 0.98437,0 1.6875,-0.8125 0.70312,-0.82812 0.70312,-2.5 0,-1.84375 -0.71875,-2.70312 -0.70312,-0.85938 -1.75,-0.85938 -1.01562,0 -1.70312,0.82813 -0.67188,0.82812 -0.67188,2.60937 z"
       fill="#000000" />
    <path
       id="path1033"
       fill-rule="nonzero"
       d="m 326.5529,341.0911 1.51563,-0.23438 q 0.125,0.90625 0.70312,1.39063 0.57813,0.48437 1.60938,0.48437 1.0625,0 1.5625,-0.42187 0.51562,-0.4375 0.51562,-1.01563 0,-0.51562 -0.45312,-0.8125 -0.3125,-0.20312 -1.5625,-0.51562 -1.67188,-0.42188 -2.32813,-0.71875 -0.64062,-0.3125 -0.98437,-0.85938 -0.32813,-0.54687 -0.32813,-1.20312 0,-0.60938 0.28125,-1.10938 0.28125,-0.51562 0.75,-0.85937 0.35938,-0.26563 0.96875,-0.4375 0.60938,-0.1875 1.3125,-0.1875 1.0625,0 1.85938,0.3125 0.79687,0.29687 1.17187,0.82812 0.39063,0.51563 0.53125,1.375 l -1.48437,0.20313 q -0.10938,-0.6875 -0.59375,-1.07813 -0.48438,-0.39062 -1.375,-0.39062 -1.04688,0 -1.5,0.34375 -0.4375,0.34375 -0.4375,0.8125 0,0.29687 0.17187,0.53125 0.1875,0.25 0.59375,0.40625 0.21875,0.0937 1.34375,0.39062 1.60938,0.4375 2.25,0.71875 0.64063,0.26563 1,0.79688 0.375,0.51562 0.375,1.29687 0,0.76563 -0.45312,1.4375 -0.4375,0.67188 -1.28125,1.04688 -0.82813,0.35937 -1.89063,0.35937 -1.75,0 -2.67187,-0.71875 -0.92188,-0.73437 -1.17188,-2.17187 z m 8.71094,-1.8125 q 0,-2.48438 1.39062,-3.6875 1.15625,-1 2.8125,-1 1.85938,0 3.03125,1.21875 1.1875,1.20312 1.1875,3.34375 0,1.73437 -0.53125,2.73437 -0.51562,1 -1.51562,1.54688 -0.98438,0.54687 -2.17188,0.54687 -1.875,0 -3.04687,-1.20312 -1.15625,-1.21875 -1.15625,-3.5 z m 1.5625,0 q 0,1.73437 0.75,2.59375 0.75,0.85937 1.89062,0.85937 1.14063,0 1.89063,-0.85937 0.75,-0.875 0.75,-2.64063 0,-1.65625 -0.75,-2.51562 -0.75,-0.85938 -1.89063,-0.85938 -1.14062,0 -1.89062,0.85938 -0.75,0.84375 -0.75,2.5625 z m 8.62146,4.5 v -8.98438 h 1.375 v 1.35938 q 0.51562,-0.95313 0.95312,-1.25 0.45313,-0.3125 0.98438,-0.3125 0.78125,0 1.5625,0.48437 l -0.51563,1.42188 q -0.5625,-0.32813 -1.125,-0.32813 -0.5,0 -0.89062,0.29688 -0.39063,0.29687 -0.5625,0.82812 -0.26563,0.8125 -0.26563,1.78125 v 4.70313 z m 9.11413,-1.35938 0.21875,1.34375 q -0.64062,0.14063 -1.15625,0.14063 -0.82812,0 -1.28125,-0.26563 -0.45312,-0.26562 -0.64062,-0.6875 -0.1875,-0.4375 -0.1875,-1.79687 v -5.17188 h -1.125 v -1.1875 h 1.125 v -2.21875 l 1.51562,-0.92187 v 3.14062 h 1.53125 v 1.1875 h -1.53125 v 5.25 q 0,0.65625 0.0781,0.84375 0.0781,0.1875 0.25,0.29688 0.1875,0.10937 0.53125,0.10937 0.25,0 0.67187,-0.0625 z"
       fill="#000000" />
    <path
       id="path1035"
       fill-rule="evenodd"
       d="m 487.75598,248.48491 h 123.46454 v 47.37007 H 487.75598 Z"
       fill="#ffffff" />
    <path
       id="path1037"
       fill-rule="evenodd"
       d="m 487.75598,248.48491 h 123.46454 v 47.37007 H 487.75598 Z"
       stroke-linecap="butt"
       stroke-linejoin="round"
       stroke-width="2"
       stroke="#3d85c6" />
    <path
       id="path1039"
       fill-rule="nonzero"
       d="m 509.41962,267.80997 v -12.40626 h 4.26562 q 1.45313,0 2.20313,0.1875 1.07812,0.23437 1.82812,0.87501 0.98438,0.82813 1.46875,2.125 0.48438,1.29688 0.48438,2.95313 0,1.40625 -0.32813,2.5 -0.32812,1.09375 -0.84375,1.8125 -0.51562,0.70312 -1.14062,1.125 -0.60938,0.40625 -1.48438,0.625 -0.85937,0.20312 -1.98437,0.20312 z m 1.64062,-1.46875 h 2.64063 q 1.23437,0 1.92187,-0.21875 0.70313,-0.23437 1.125,-0.64062 0.57813,-0.59375 0.90625,-1.57813 0.32813,-0.98437 0.32813,-2.39062 0,-1.9375 -0.64063,-2.98438 -0.64062,-1.04687 -1.5625,-1.40625 -0.65625,-0.25 -2.125,-0.25 h -2.59375 z m 10.68567,-9.1875 v -1.75002 h 1.51563 v 1.75002 z m 0,10.65625 v -8.98437 h 1.51563 v 8.98437 z m 3.2248,-2.6875 1.51562,-0.23437 q 0.125,0.90625 0.70313,1.39062 0.57812,0.48438 1.60937,0.48438 1.0625,0 1.5625,-0.42188 0.51563,-0.4375 0.51563,-1.01562 0,-0.51563 -0.45313,-0.8125 -0.3125,-0.20313 -1.5625,-0.51563 -1.67187,-0.42187 -2.32812,-0.71875 -0.64063,-0.3125 -0.98438,-0.85937 -0.32812,-0.54688 -0.32812,-1.20313 0,-0.60937 0.28125,-1.10937 0.28125,-0.51563 0.75,-0.85938 0.35937,-0.26562 0.96875,-0.4375 0.60937,-0.1875 1.3125,-0.1875 1.0625,0 1.85937,0.3125 0.79688,0.29688 1.17188,0.82813 0.39062,0.51562 0.53125,1.375 l -1.48438,0.20312 q -0.10937,-0.6875 -0.59375,-1.07812 -0.48437,-0.39063 -1.375,-0.39063 -1.04687,0 -1.5,0.34375 -0.4375,0.34375 -0.4375,0.8125 0,0.29688 0.17188,0.53125 0.1875,0.25 0.59375,0.40625 0.21875,0.0937 1.34375,0.39063 1.60937,0.4375 2.25,0.71875 0.64062,0.26562 1,0.79687 0.375,0.51563 0.375,1.29688 0,0.76562 -0.45313,1.4375 -0.4375,0.67187 -1.28125,1.04687 -0.82812,0.35938 -1.89062,0.35938 -1.75,0 -2.67188,-0.71875 -0.92187,-0.73438 -1.17187,-2.17188 z m 12.60156,1.32813 0.21875,1.34375 q -0.64063,0.14062 -1.15625,0.14062 -0.82813,0 -1.28125,-0.26562 -0.45313,-0.26563 -0.64063,-0.6875 -0.1875,-0.4375 -0.1875,-1.79688 v -5.17187 h -1.125 v -1.1875 h 1.125 v -2.21875 l 1.51563,-0.9219 v 3.14065 h 1.53125 v 1.1875 h -1.53125 v 5.25 q 0,0.65625 0.0781,0.84375 0.0781,0.1875 0.25,0.29687 0.1875,0.10938 0.53125,0.10938 0.25,0 0.67188,-0.0625 z m 1.47058,1.35937 v -8.98437 h 1.375 v 1.35937 q 0.51563,-0.95312 0.95313,-1.25 0.45312,-0.3125 0.98437,-0.3125 0.78125,0 1.5625,0.48438 l -0.51562,1.42187 q -0.5625,-0.32812 -1.125,-0.32812 -0.5,0 -0.89063,0.29687 -0.39062,0.29688 -0.5625,0.82813 -0.26562,0.8125 -0.26562,1.78125 v 4.70312 z m 5.80164,-10.65625 v -1.75002 h 1.51562 v 1.75002 z m 0,10.65625 v -8.98437 h 1.51562 v 8.98437 z m 5.24035,0 h -1.40625 v -12.40626 h 1.51563 v 4.42189 q 0.96875,-1.20313 2.46875,-1.20313 0.82812,0 1.5625,0.34375 0.73437,0.32813 1.21875,0.9375 0.48437,0.59375 0.75,1.45313 0.26562,0.85937 0.26562,1.82812 0,2.3125 -1.14062,3.57813 -1.14063,1.25 -2.73438,1.25 -1.59375,0 -2.5,-1.32813 z m -0.0156,-4.5625 q 0,1.625 0.4375,2.34375 0.71875,1.17188 1.95312,1.17188 1,0 1.71875,-0.85938 0.73438,-0.875 0.73438,-2.59375 0,-1.76562 -0.70313,-2.59375 -0.70312,-0.84375 -1.6875,-0.84375 -1,0 -1.73437,0.875 -0.71875,0.85938 -0.71875,2.5 z m 14.13708,4.5625 v -1.3125 q -1.04687,1.51563 -2.84375,1.51563 -0.79687,0 -1.5,-0.29688 -0.6875,-0.3125 -1.01562,-0.76562 -0.32813,-0.46875 -0.46875,-1.14063 -0.0937,-0.4375 -0.0937,-1.42187 v -5.5625 h 1.51562 v 4.98437 q 0,1.1875 0.0937,1.60938 0.15625,0.59375 0.60938,0.9375 0.46875,0.34375 1.15625,0.34375 0.6875,0 1.28125,-0.34375 0.60937,-0.35938 0.85937,-0.95313 0.25,-0.60937 0.25,-1.76562 v -4.8125 h 1.51563 v 8.98437 z m 7.07459,-1.35937 0.21875,1.34375 q -0.64063,0.14062 -1.15625,0.14062 -0.82813,0 -1.28125,-0.26562 -0.45313,-0.26563 -0.64063,-0.6875 -0.1875,-0.4375 -0.1875,-1.79688 v -5.17187 h -1.125 v -1.1875 h 1.125 v -2.21875 l 1.51563,-0.9219 v 3.14065 h 1.53125 v 1.1875 h -1.53125 v 5.25 q 0,0.65625 0.0781,0.84375 0.0781,0.1875 0.25,0.29687 0.1875,0.10938 0.53125,0.10938 0.25,0 0.67188,-0.0625 z m 7.64245,-1.53125 1.5625,0.1875 q -0.35937,1.39062 -1.375,2.15625 -1,0.75 -2.5625,0.75 -1.98437,0 -3.14062,-1.20313 -1.14063,-1.21875 -1.14063,-3.42187 0,-2.26563 1.15625,-3.51563 1.17188,-1.25 3.03125,-1.25 1.8125,0 2.95313,1.23438 1.14062,1.21875 1.14062,3.4375 0,0.14062 -0.0156,0.40625 h -6.70313 q 0.0937,1.48437 0.84375,2.28125 0.75,0.78125 1.875,0.78125 0.84375,0 1.4375,-0.4375 0.59375,-0.4375 0.9375,-1.40625 z m -5,-2.46875 h 5.01563 q -0.10938,-1.125 -0.57813,-1.70313 -0.73437,-0.875 -1.89062,-0.875 -1.04688,0 -1.76563,0.70313 -0.70312,0.70312 -0.78125,1.875 z m 14.30896,5.35937 v -1.14062 q -0.84375,1.34375 -2.51562,1.34375 -1.0625,0 -1.96875,-0.59375 -0.90625,-0.59375 -1.40625,-1.65625 -0.48438,-1.0625 -0.48438,-2.4375 0,-1.34375 0.4375,-2.4375 0.45313,-1.09375 1.34375,-1.67188 0.90625,-0.59375 2.01563,-0.59375 0.8125,0 1.4375,0.34375 0.64062,0.34375 1.04687,0.89063 v -4.45315 h 1.51563 v 12.40627 z m -4.8125,-4.48437 q 0,1.71875 0.71875,2.57812 0.73438,0.85938 1.73438,0.85938 0.98437,0 1.6875,-0.8125 0.70312,-0.82813 0.70312,-2.5 0,-1.84375 -0.71875,-2.70313 -0.70312,-0.85937 -1.75,-0.85937 -1.01562,0 -1.70312,0.82812 -0.67188,0.82813 -0.67188,2.60938 z"
       fill="#000000" />
    <path
       id="path1041"
       fill-rule="nonzero"
       d="m 535.5766,286.12247 1.51562,-0.23437 q 0.125,0.90625 0.70313,1.39062 0.57812,0.48438 1.60937,0.48438 1.0625,0 1.5625,-0.42188 0.51563,-0.4375 0.51563,-1.01562 0,-0.51563 -0.45313,-0.8125 -0.3125,-0.20313 -1.5625,-0.51563 -1.67187,-0.42187 -2.32812,-0.71875 -0.64063,-0.3125 -0.98438,-0.85937 -0.32812,-0.54688 -0.32812,-1.20313 0,-0.60937 0.28125,-1.10937 0.28125,-0.51563 0.75,-0.85938 0.35937,-0.26562 0.96875,-0.4375 0.60937,-0.1875 1.3125,-0.1875 1.0625,0 1.85937,0.3125 0.79688,0.29688 1.17188,0.82813 0.39062,0.51562 0.53125,1.375 l -1.48438,0.20312 q -0.10937,-0.6875 -0.59375,-1.07812 -0.48437,-0.39063 -1.375,-0.39063 -1.04687,0 -1.5,0.34375 -0.4375,0.34375 -0.4375,0.8125 0,0.29688 0.17188,0.53125 0.1875,0.25 0.59375,0.40625 0.21875,0.0937 1.34375,0.39063 1.60937,0.4375 2.25,0.71875 0.64062,0.26562 1,0.79687 0.375,0.51563 0.375,1.29688 0,0.76562 -0.45313,1.4375 -0.4375,0.67187 -1.28125,1.04687 -0.82812,0.35938 -1.89062,0.35938 -1.75,0 -2.67188,-0.71875 -0.92187,-0.73438 -1.17187,-2.17188 z m 8.71094,-1.8125 q 0,-2.48437 1.39062,-3.6875 1.15625,-1 2.8125,-1 1.85938,0 3.03125,1.21875 1.1875,1.20313 1.1875,3.34375 0,1.73438 -0.53125,2.73438 -0.51562,1 -1.51562,1.54687 -0.98438,0.54688 -2.17188,0.54688 -1.875,0 -3.04687,-1.20313 -1.15625,-1.21875 -1.15625,-3.5 z m 1.5625,0 q 0,1.73438 0.75,2.59375 0.75,0.85938 1.89062,0.85938 1.14063,0 1.89063,-0.85938 0.75,-0.875 0.75,-2.64062 0,-1.65625 -0.75,-2.51563 -0.75,-0.85937 -1.89063,-0.85937 -1.14062,0 -1.89062,0.85937 -0.75,0.84375 -0.75,2.5625 z m 8.62146,4.5 v -8.98437 h 1.375 v 1.35937 q 0.51562,-0.95312 0.95312,-1.25 0.45313,-0.3125 0.98438,-0.3125 0.78125,0 1.5625,0.48438 l -0.51563,1.42187 q -0.5625,-0.32812 -1.125,-0.32812 -0.5,0 -0.89062,0.29687 -0.39063,0.29688 -0.5625,0.82813 -0.26563,0.8125 -0.26563,1.78125 v 4.70312 z m 9.11413,-1.35937 0.21875,1.34375 q -0.64062,0.14062 -1.15625,0.14062 -0.82812,0 -1.28125,-0.26562 -0.45312,-0.26563 -0.64062,-0.6875 -0.1875,-0.4375 -0.1875,-1.79688 v -5.17187 h -1.125 v -1.1875 h 1.125 v -2.21875 l 1.51562,-0.92188 v 3.14063 h 1.53125 v 1.1875 h -1.53125 v 5.25 q 0,0.65625 0.0781,0.84375 0.0781,0.1875 0.25,0.29687 0.1875,0.10938 0.53125,0.10938 0.25,0 0.67187,-0.0625 z"
       fill="#000000" />
    <path
       id="path1043"
       fill-rule="evenodd"
       d="M 487.75598,357.25687 H 603.63 v 41.95276 H 487.75598 Z"
       fill="#ffffff" />
    <path
       id="path1045"
       fill-rule="evenodd"
       d="M 487.75598,357.25687 H 603.63 v 41.95276 H 487.75598 Z"
       stroke-linecap="butt"
       stroke-linejoin="round"
       stroke-width="2"
       stroke="#3d85c6" />
    <path
       id="path1047"
       fill-rule="nonzero"
       d="m 505.62433,373.87323 v -12.40625 h 4.26562 q 1.45313,0 2.20313,0.1875 1.07812,0.23437 1.82812,0.875 0.98438,0.82812 1.46875,2.125 0.48438,1.29687 0.48438,2.95312 0,1.40625 -0.32813,2.5 -0.32812,1.09375 -0.84375,1.8125 -0.51562,0.70313 -1.14062,1.125 -0.60938,0.40625 -1.48438,0.625 -0.85937,0.20313 -1.98437,0.20313 z m 1.64062,-1.46875 h 2.64063 q 1.23437,0 1.92187,-0.21875 0.70313,-0.23438 1.125,-0.64063 0.57813,-0.59375 0.90625,-1.57812 0.32813,-0.98438 0.32813,-2.39063 0,-1.9375 -0.64063,-2.98437 -0.64062,-1.04688 -1.5625,-1.40625 -0.65625,-0.25 -2.125,-0.25 h -2.59375 z m 10.68574,-9.1875 v -1.75 h 1.51562 v 1.75 z m 0,10.65625 v -8.98438 h 1.51562 v 8.98438 z m 3.22473,-2.6875 1.51562,-0.23438 q 0.125,0.90625 0.70313,1.39063 0.57812,0.48437 1.60937,0.48437 1.0625,0 1.5625,-0.42187 0.51563,-0.4375 0.51563,-1.01563 0,-0.51562 -0.45313,-0.8125 -0.3125,-0.20312 -1.5625,-0.51562 -1.67187,-0.42188 -2.32812,-0.71875 -0.64063,-0.3125 -0.98438,-0.85938 -0.32812,-0.54687 -0.32812,-1.20312 0,-0.60938 0.28125,-1.10938 0.28125,-0.51562 0.75,-0.85937 0.35937,-0.26563 0.96875,-0.4375 0.60937,-0.1875 1.3125,-0.1875 1.0625,0 1.85937,0.3125 0.79688,0.29687 1.17188,0.82812 0.39062,0.51563 0.53125,1.375 l -1.48438,0.20313 q -0.10937,-0.6875 -0.59375,-1.07813 -0.48437,-0.39062 -1.375,-0.39062 -1.04687,0 -1.5,0.34375 -0.4375,0.34375 -0.4375,0.8125 0,0.29687 0.17188,0.53125 0.1875,0.25 0.59375,0.40625 0.21875,0.0937 1.34375,0.39062 1.60937,0.4375 2.25,0.71875 0.64062,0.26563 1,0.79688 0.375,0.51562 0.375,1.29687 0,0.76563 -0.45313,1.4375 -0.4375,0.67188 -1.28125,1.04688 -0.82812,0.35937 -1.89062,0.35937 -1.75,0 -2.67188,-0.71875 -0.92187,-0.73437 -1.17187,-2.17187 z m 12.60156,1.32812 0.21875,1.34375 q -0.64063,0.14063 -1.15625,0.14063 -0.82813,0 -1.28125,-0.26563 -0.45313,-0.26562 -0.64063,-0.6875 -0.1875,-0.4375 -0.1875,-1.79687 v -5.17188 h -1.125 v -1.1875 h 1.125 v -2.21875 l 1.51563,-0.92187 v 3.14062 h 1.53125 v 1.1875 h -1.53125 v 5.25 q 0,0.65625 0.0781,0.84375 0.0781,0.1875 0.25,0.29688 0.1875,0.10937 0.53125,0.10937 0.25,0 0.67188,-0.0625 z m 1.47058,1.35938 v -8.98438 h 1.375 v 1.35938 q 0.51562,-0.95313 0.95312,-1.25 0.45313,-0.3125 0.98438,-0.3125 0.78125,0 1.5625,0.48437 l -0.51563,1.42188 q -0.5625,-0.32813 -1.125,-0.32813 -0.5,0 -0.89062,0.29688 -0.39063,0.29687 -0.5625,0.82812 -0.26563,0.8125 -0.26563,1.78125 v 4.70313 z m 5.80164,-10.65625 v -1.75 h 1.51562 v 1.75 z m 0,10.65625 v -8.98438 h 1.51562 v 8.98438 z m 5.24041,0 h -1.40625 v -12.40625 h 1.51563 v 4.42187 q 0.96875,-1.20312 2.46875,-1.20312 0.82812,0 1.5625,0.34375 0.73437,0.32812 1.21875,0.9375 0.48437,0.59375 0.75,1.45312 0.26562,0.85938 0.26562,1.82813 0,2.3125 -1.14062,3.57812 -1.14063,1.25 -2.73438,1.25 -1.59375,0 -2.5,-1.32812 z m -0.0156,-4.5625 q 0,1.625 0.4375,2.34375 0.71875,1.17187 1.95312,1.17187 1,0 1.71875,-0.85937 0.73438,-0.875 0.73438,-2.59375 0,-1.76563 -0.70313,-2.59375 -0.70312,-0.84375 -1.6875,-0.84375 -1,0 -1.73437,0.875 -0.71875,0.85937 -0.71875,2.5 z m 14.13708,4.5625 v -1.3125 q -1.04687,1.51562 -2.84375,1.51562 -0.79687,0 -1.5,-0.29687 -0.6875,-0.3125 -1.01562,-0.76563 -0.32813,-0.46875 -0.46875,-1.14062 -0.0937,-0.4375 -0.0937,-1.42188 v -5.5625 h 1.51562 v 4.98438 q 0,1.1875 0.0937,1.60937 0.15625,0.59375 0.60938,0.9375 0.46875,0.34375 1.15625,0.34375 0.6875,0 1.28125,-0.34375 0.60937,-0.35937 0.85937,-0.95312 0.25,-0.60938 0.25,-1.76563 v -4.8125 h 1.51563 v 8.98438 z m 7.07459,-1.35938 0.21875,1.34375 q -0.64063,0.14063 -1.15625,0.14063 -0.82813,0 -1.28125,-0.26563 -0.45313,-0.26562 -0.64063,-0.6875 -0.1875,-0.4375 -0.1875,-1.79687 v -5.17188 h -1.125 v -1.1875 h 1.125 v -2.21875 l 1.51563,-0.92187 v 3.14062 h 1.53125 v 1.1875 h -1.53125 v 5.25 q 0,0.65625 0.0781,0.84375 0.0781,0.1875 0.25,0.29688 0.1875,0.10937 0.53125,0.10937 0.25,0 0.67188,-0.0625 z m 7.64239,-1.53125 1.5625,0.1875 q -0.35937,1.39063 -1.375,2.15625 -1,0.75 -2.5625,0.75 -1.98437,0 -3.14062,-1.20312 -1.14063,-1.21875 -1.14063,-3.42188 0,-2.26562 1.15625,-3.51562 1.17188,-1.25 3.03125,-1.25 1.8125,0 2.95313,1.23437 1.14062,1.21875 1.14062,3.4375 0,0.14063 -0.0156,0.40625 h -6.70313 q 0.0937,1.48438 0.84375,2.28125 0.75,0.78125 1.875,0.78125 0.84375,0 1.4375,-0.4375 0.59375,-0.4375 0.9375,-1.40625 z m -5,-2.46875 h 5.01563 q -0.10938,-1.125 -0.57813,-1.70312 -0.73437,-0.875 -1.89062,-0.875 -1.04688,0 -1.76563,0.70312 -0.70312,0.70313 -0.78125,1.875 z m 14.30896,5.35938 v -1.14063 q -0.84375,1.34375 -2.51562,1.34375 -1.0625,0 -1.96875,-0.59375 -0.90625,-0.59375 -1.40625,-1.65625 -0.48438,-1.0625 -0.48438,-2.4375 0,-1.34375 0.4375,-2.4375 0.45313,-1.09375 1.34375,-1.67187 0.90625,-0.59375 2.01563,-0.59375 0.8125,0 1.4375,0.34375 0.64062,0.34375 1.04687,0.89062 v -4.45312 h 1.51563 v 12.40625 z m -4.8125,-4.48438 q 0,1.71875 0.71875,2.57813 0.73438,0.85937 1.73438,0.85937 0.98437,0 1.6875,-0.8125 0.70312,-0.82812 0.70312,-2.5 0,-1.84375 -0.71875,-2.70312 -0.70312,-0.85938 -1.75,-0.85938 -1.01562,0 -1.70312,0.82813 -0.67188,0.82812 -0.67188,2.60937 z"
       fill="#000000" />
    <path
       id="path1049"
       fill-rule="nonzero"
       d="m 531.7813,392.18573 1.51562,-0.23438 q 0.125,0.90625 0.70313,1.39063 0.57812,0.48437 1.60937,0.48437 1.0625,0 1.5625,-0.42187 0.51563,-0.4375 0.51563,-1.01563 0,-0.51562 -0.45313,-0.8125 -0.3125,-0.20312 -1.5625,-0.51562 -1.67187,-0.42188 -2.32812,-0.71875 -0.64063,-0.3125 -0.98438,-0.85938 -0.32812,-0.54687 -0.32812,-1.20312 0,-0.60938 0.28125,-1.10938 0.28125,-0.51562 0.75,-0.85937 0.35937,-0.26563 0.96875,-0.4375 0.60937,-0.1875 1.3125,-0.1875 1.0625,0 1.85937,0.3125 0.79688,0.29687 1.17188,0.82812 0.39062,0.51563 0.53125,1.375 l -1.48438,0.20313 q -0.10937,-0.6875 -0.59375,-1.07813 -0.48437,-0.39062 -1.375,-0.39062 -1.04687,0 -1.5,0.34375 -0.4375,0.34375 -0.4375,0.8125 0,0.29687 0.17188,0.53125 0.1875,0.25 0.59375,0.40625 0.21875,0.0937 1.34375,0.39062 1.60937,0.4375 2.25,0.71875 0.64062,0.26563 1,0.79688 0.375,0.51562 0.375,1.29687 0,0.76563 -0.45313,1.4375 -0.4375,0.67188 -1.28125,1.04688 -0.82812,0.35937 -1.89062,0.35937 -1.75,0 -2.67188,-0.71875 -0.92187,-0.73437 -1.17187,-2.17187 z m 8.71094,-1.8125 q 0,-2.48438 1.39062,-3.6875 1.15625,-1 2.8125,-1 1.85938,0 3.03125,1.21875 1.1875,1.20312 1.1875,3.34375 0,1.73437 -0.53125,2.73437 -0.51562,1 -1.51562,1.54688 -0.98438,0.54687 -2.17188,0.54687 -1.875,0 -3.04687,-1.20312 -1.15625,-1.21875 -1.15625,-3.5 z m 1.5625,0 q 0,1.73437 0.75,2.59375 0.75,0.85937 1.89062,0.85937 1.14063,0 1.89063,-0.85937 0.75,-0.875 0.75,-2.64063 0,-1.65625 -0.75,-2.51562 -0.75,-0.85938 -1.89063,-0.85938 -1.14062,0 -1.89062,0.85938 -0.75,0.84375 -0.75,2.5625 z m 8.62146,4.5 v -8.98438 h 1.375 v 1.35938 q 0.51562,-0.95313 0.95312,-1.25 0.45313,-0.3125 0.98438,-0.3125 0.78125,0 1.5625,0.48437 l -0.51563,1.42188 q -0.5625,-0.32813 -1.125,-0.32813 -0.5,0 -0.89062,0.29688 -0.39063,0.29687 -0.5625,0.82812 -0.26563,0.8125 -0.26563,1.78125 v 4.70313 z m 9.11413,-1.35938 0.21875,1.34375 q -0.64062,0.14063 -1.15625,0.14063 -0.82812,0 -1.28125,-0.26563 -0.45312,-0.26562 -0.64062,-0.6875 -0.1875,-0.4375 -0.1875,-1.79687 v -5.17188 h -1.125 v -1.1875 h 1.125 v -2.21875 l 1.51562,-0.92187 v 3.14062 h 1.53125 v 1.1875 h -1.53125 v 5.25 q 0,0.65625 0.0781,0.84375 0.0781,0.1875 0.25,0.29688 0.1875,0.10937 0.53125,0.10937 0.25,0 0.67187,-0.0625 z"
       fill="#000000" />
    <path
       id="path1051"
       fill-rule="evenodd"
       d="m 388.90027,287.01334 c 1.14786,-1.1553 -1.49606,-3.38498 6.88715,-6.93176 8.38317,-3.54682 31.5726,-11.74103 43.41205,-14.34909 11.83947,-2.60807 23.02056,-1.08268 27.62469,-1.29923"
       fill-opacity="0"
       fill="#000000" />
    <path
       id="path1053"
       fill-rule="evenodd"
       d="m 388.90027,287.01334 c 1.14783,-1.1553 -1.49606,-3.38498 6.88715,-6.93176 8.38317,-3.54682 31.57263,-11.74103 43.41205,-14.34909 5.9197,-1.30402 11.67486,-1.57471 16.5256,-1.54642 2.42535,0.0141 4.6246,0.103 6.50528,0.1748 l 1.16684,0.0426"
       stroke-linecap="butt"
       stroke-linejoin="round"
       stroke-width="1"
       stroke="#000000" />
    <path
       id="path1055"
       fill-rule="evenodd"
       d="m 463.3972,264.40344 -1.13434,1.11475 3.09946,-1.09766 -3.07987,-1.15143 z"
       stroke-linecap="butt"
       stroke-width="1"
       stroke="#000000"
       fill="#000000" />
    <path
       id="path1057"
       fill-rule="evenodd"
       d="m 482.22833,274.3176 c -1.38101,1.61066 -0.32675,4.20691 -8.28607,9.66403 -7.95932,5.45713 -28.4335,18.06125 -39.46982,23.07874 -11.03632,5.01748 -22.29004,5.85519 -26.74805,7.02624"
       fill-opacity="0"
       fill="#000000" />
    <path
       id="path1059"
       fill-rule="evenodd"
       d="m 482.22833,274.3176 c -1.38101,1.61066 -0.32675,4.20691 -8.28607,9.66403 -7.95932,5.45713 -28.43353,18.06125 -39.46982,23.07874 -5.51813,2.50873 -11.09064,3.97253 -15.84088,4.95553 -2.37513,0.49152 -4.54465,0.86283 -6.39902,1.18442 l -1.15015,0.20148"
       stroke-linecap="butt"
       stroke-linejoin="round"
       stroke-width="1"
       stroke="#b7b7b7" />
    <path
       id="path1061"
       fill-rule="evenodd"
       d="m 411.08237,313.4018 0.8772,-1.3266 -2.80274,1.7193 3.25217,0.4845 z"
       stroke-linecap="butt"
       stroke-width="1"
       stroke="#b7b7b7"
       fill="#b7b7b7" />
    <path
       id="path1063"
       fill-rule="evenodd"
       d="m 405.14603,337.82874 c 1.62854,-0.005 1.33563,-3.45136 9.77133,-0.0316 8.43573,3.41984 30.62708,14.02292 40.84293,20.55045 10.21582,6.52753 17.04339,15.51227 20.45208,18.61475"
       fill-opacity="0"
       fill="#000000" />
    <path
       id="path1065"
       fill-rule="evenodd"
       d="m 405.14603,337.82874 c 1.62854,-0.005 1.33563,-3.45136 9.77133,-0.0316 8.4357,3.41984 30.62711,14.02292 40.84293,20.55048 5.10791,3.26373 9.36874,7.14182 12.77871,10.59174 1.70496,1.72497 3.19721,3.34292 4.47629,4.72351 l 0.79496,0.85513"
       stroke-linecap="butt"
       stroke-linejoin="round"
       stroke-width="1"
       stroke="#000000" />
    <path
       id="path1067"
       fill-rule="evenodd"
       d="m 473.81024,374.51804 -1.59036,-0.0138 2.9678,1.41549 -1.36362,-2.992 z"
       stroke-linecap="butt"
       stroke-width="1"
       stroke="#000000"
       fill="#000000" />
    <path
       id="path1069"
       fill-rule="evenodd"
       d="m 480.11548,394.84387 c -2.11545,0.16238 -3.20578,2.74365 -12.69254,0.97437 -9.48678,-1.76932 -32.87646,-7.33426 -44.22809,-11.59015 -11.35165,-4.25589 -19.90149,-11.62107 -23.8818,-13.94529"
       fill-opacity="0"
       fill="#000000" />
    <path
       id="path1071"
       fill-rule="evenodd"
       d="m 480.11548,394.84387 c -2.11545,0.16241 -3.20578,2.74365 -12.69254,0.97437 -9.48678,-1.76932 -32.87643,-7.33423 -44.22809,-11.59015 -5.67581,-2.12793 -10.65121,-5.03321 -14.70513,-7.69699 -2.02701,-1.33191 -3.82361,-2.60349 -5.36231,-3.68732 l -0.95569,-0.67075"
       stroke-linecap="butt"
       stroke-linejoin="round"
       stroke-width="1"
       stroke="#b7b7b7" />
    <path
       id="path1073"
       fill-rule="evenodd"
       d="m 402.17172,372.17303 1.55832,-0.31781 -3.19757,-0.76611 1.95703,2.64224 z"
       stroke-linecap="butt"
       stroke-width="1"
       stroke="#b7b7b7"
       fill="#b7b7b7" />
  </g>
</svg>
