<?xml version="1.0" encoding="UTF-8" standalone="no"?>
<svg
   xmlns:dc="http://purl.org/dc/elements/1.1/"
   xmlns:cc="http://creativecommons.org/ns#"
   xmlns:rdf="http://www.w3.org/1999/02/22-rdf-syntax-ns#"
   xmlns:svg="http://www.w3.org/2000/svg"
   xmlns="http://www.w3.org/2000/svg"
   xmlns:sodipodi="http://sodipodi.sourceforge.net/DTD/sodipodi-0.dtd"
   xmlns:inkscape="http://www.inkscape.org/namespaces/inkscape"
   inkscape:version="1.0 (4035a4f, 2020-05-01)"
   height="594.39441"
   width="717.19794"
   sodipodi:docname="unnecessary-ray-get-better.svg"
   id="svg1138"
   stroke-miterlimit="10"
   stroke-linecap="square"
   stroke="none"
   fill="none"
   viewBox="0 0 717.19794 594.39441"
   version="1.1">
  <metadata
     id="metadata1144">
    <rdf:RDF>
      <cc:Work
         rdf:about="">
        <dc:format>image/svg+xml</dc:format>
        <dc:type
           rdf:resource="http://purl.org/dc/dcmitype/StillImage" />
      </cc:Work>
    </rdf:RDF>
  </metadata>
  <defs
     id="defs1142" />
  <sodipodi:namedview
     inkscape:current-layer="g1136"
     inkscape:window-maximized="1"
     inkscape:window-y="23"
     inkscape:window-x="0"
     inkscape:cy="463.82612"
     inkscape:cx="371.38892"
     inkscape:zoom="0.81979167"
     showgrid="false"
     id="namedview1140"
     inkscape:window-height="995"
     inkscape:window-width="1792"
     inkscape:pageshadow="2"
     inkscape:pageopacity="0"
     guidetolerance="10"
     gridtolerance="10"
     objecttolerance="10"
     borderopacity="1"
     bordercolor="#666666"
     pagecolor="#ffffff" />
  <clipPath
     id="p.0">
    <path
       id="path1047"
       clip-rule="nonzero"
       d="M 0,0 H 1280 V 960 H 0 Z" />
  </clipPath>
  <g
     transform="translate(-235.71654,-68.073494)"
     id="g1136"
     clip-path="url(#p.0)">
    <path
       id="path1050"
       fill-rule="evenodd"
       d="M 0,0 H 1280 V 960 H 0 Z"
       fill-opacity="0"
       fill="#000000" />
    <path
       id="path1052"
       fill-rule="evenodd"
       d="M 304.2546,184.96063 H 557.23095 V 310.62991 H 304.2546 Z"
       fill="#ffffff" />
    <path
       id="path1054"
       fill-rule="evenodd"
       d="M 304.2546,184.96063 H 557.23095 V 310.62991 H 304.2546 Z"
       stroke-linecap="butt"
       stroke-linejoin="round"
       stroke-width="1"
       stroke="#000000" />
    <path
       id="path1056"
       fill-rule="nonzero"
       d="m 326.2108,248.7209 2.51562,0.35937 q 0.15625,1.17188 0.875,1.70313 0.95313,0.70312 2.60938,0.70312 1.79687,0 2.76562,-0.71875 0.98438,-0.70312 1.32813,-2 0.20312,-0.78125 0.1875,-3.29687 -1.70313,1.98437 -4.21875,1.98437 -3.14063,0 -4.85938,-2.26562 -1.71875,-2.26563 -1.71875,-5.42188 0,-2.17187 0.78125,-4.01562 0.79688,-1.84375 2.29688,-2.84375 1.5,-1 3.51562,-1 2.6875,0 4.4375,2.17187 v -1.82812 h 2.375 v 13.14062 q 0,3.54688 -0.71875,5.03125 -0.71875,1.48438 -2.29687,2.34375 -1.5625,0.85938 -3.85938,0.85938 -2.71875,0 -4.39062,-1.23438 -1.67188,-1.21875 -1.625,-3.67187 z m 2.14062,-9.14063 q 0,2.98438 1.1875,4.35938 1.1875,1.375 2.98438,1.375 1.76562,0 2.96875,-1.35938 1.20312,-1.375 1.20312,-4.29687 0,-2.78125 -1.23437,-4.20313 -1.23438,-1.42187 -2.98438,-1.42187 -1.71875,0 -2.92187,1.40625 -1.20313,1.39062 -1.20313,4.14062 z m 25.06092,2.98438 2.65625,0.32812 q -0.625,2.32813 -2.32813,3.625 -1.70312,1.28125 -4.35937,1.28125 -3.32813,0 -5.28125,-2.04687 -1.95313,-2.0625 -1.95313,-5.76563 0,-3.84375 1.96875,-5.95312 1.98438,-2.125 5.125,-2.125 3.0625,0 4.98438,2.07812 1.9375,2.0625 1.9375,5.84375 0,0.21875 -0.0156,0.67188 h -11.34375 q 0.14063,2.51562 1.42188,3.84375 1.28125,1.32812 3.17187,1.32812 1.42188,0 2.42188,-0.73437 1,-0.75 1.59375,-2.375 z m -8.46875,-4.17188 h 8.5 q -0.17188,-1.92187 -0.96875,-2.875 -1.23438,-1.5 -3.20313,-1.5 -1.76562,0 -2.98437,1.1875 -1.20313,1.1875 -1.34375,3.1875 z m 14.37341,9.0625 v -15.20312 h 2.3125 v 2.15625 q 1.67188,-2.5 4.84375,-2.5 1.375,0 2.53125,0.5 1.15625,0.48437 1.71875,1.29687 0.57813,0.79688 0.8125,1.89063 0.14063,0.71875 0.14063,2.51562 v 9.34375 h -2.57813 v -9.25 q 0,-1.57812 -0.3125,-2.35937 -0.29687,-0.78125 -1.0625,-1.23438 -0.76562,-0.46875 -1.79687,-0.46875 -1.64063,0 -2.84375,1.04688 -1.1875,1.03125 -1.1875,3.95312 v 8.3125 z m 26.71716,-4.89062 2.65625,0.32812 q -0.625,2.32813 -2.32812,3.625 -1.70313,1.28125 -4.35938,1.28125 -3.32812,0 -5.28125,-2.04687 -1.95312,-2.0625 -1.95312,-5.76563 0,-3.84375 1.96875,-5.95312 1.98437,-2.125 5.125,-2.125 3.0625,0 4.98437,2.07812 1.9375,2.0625 1.9375,5.84375 0,0.21875 -0.0156,0.67188 h -11.34375 q 0.14062,2.51562 1.42187,3.84375 1.28125,1.32812 3.17188,1.32812 1.42187,0 2.42187,-0.73437 1,-0.75 1.59375,-2.375 z m -8.46875,-4.17188 h 8.5 q -0.17187,-1.92187 -0.96875,-2.875 -1.23437,-1.5 -3.20312,-1.5 -1.76563,0 -2.98438,1.1875 -1.20312,1.1875 -1.34375,3.1875 z m 14.34217,9.0625 v -15.20312 h 2.3125 v 2.29687 q 0.89062,-1.60937 1.64062,-2.125 0.75,-0.51562 1.65625,-0.51562 1.3125,0 2.65625,0.82812 l -0.89062,2.39063 q -0.95313,-0.5625 -1.89063,-0.5625 -0.84375,0 -1.51562,0.51562 -0.67188,0.5 -0.96875,1.40625 -0.42188,1.375 -0.42188,3 v 7.96875 z m 19.7196,-1.875 q -1.4375,1.21875 -2.76562,1.71875 -1.3125,0.5 -2.82813,0.5 -2.51562,0 -3.85937,-1.21875 -1.34375,-1.23437 -1.34375,-3.14062 0,-1.10938 0.5,-2.03125 0.51562,-0.92188 1.32812,-1.48438 0.82813,-0.5625 1.85938,-0.84375 0.76562,-0.20312 2.29687,-0.39062 3.125,-0.375 4.59375,-0.89063 0.0156,-0.53125 0.0156,-0.67187 0,-1.57813 -0.73438,-2.21875 -0.98437,-0.875 -2.9375,-0.875 -1.8125,0 -2.6875,0.64062 -0.85937,0.64063 -1.26562,2.25 l -2.53125,-0.34375 q 0.34375,-1.60937 1.125,-2.60937 0.79687,-1 2.28125,-1.53125 1.5,-0.53125 3.45312,-0.53125 1.95313,0 3.17188,0.45312 1.21875,0.45313 1.78125,1.15625 0.57812,0.6875 0.8125,1.75 0.125,0.65625 0.125,2.375 v 3.4375 q 0,3.59375 0.15625,4.54688 0.17187,0.95312 0.65625,1.82812 h -2.6875 q -0.40625,-0.79687 -0.51563,-1.875 z m -0.21875,-5.75 q -1.40625,0.5625 -4.20312,0.96875 -1.59375,0.21875 -2.25,0.51563 -0.65625,0.28125 -1.01563,0.84375 -0.35937,0.54687 -0.35937,1.21875 0,1.03125 0.78125,1.71875 0.78125,0.6875 2.28125,0.6875 1.48437,0 2.64062,-0.65625 1.17188,-0.65625 1.71875,-1.78125 0.40625,-0.875 0.40625,-2.57813 z m 12.23279,5.3125 0.375,2.28125 q -1.09375,0.23438 -1.95313,0.23438 -1.40625,0 -2.1875,-0.4375 -0.76562,-0.45313 -1.07812,-1.17188 -0.3125,-0.73437 -0.3125,-3.04687 v -8.75 h -1.89063 v -2 h 1.89063 v -3.76563 l 2.5625,-1.54687 v 5.3125 h 2.59375 v 2 h -2.59375 v 8.89062 q 0,1.10938 0.125,1.42188 0.14062,0.3125 0.45312,0.5 0.3125,0.1875 0.89063,0.1875 0.42187,0 1.125,-0.10938 z m 12.92956,-2.57812 2.65625,0.32812 q -0.625,2.32813 -2.32812,3.625 -1.70313,1.28125 -4.35938,1.28125 -3.32812,0 -5.28125,-2.04687 -1.95312,-2.0625 -1.95312,-5.76563 0,-3.84375 1.96875,-5.95312 1.98437,-2.125 5.125,-2.125 3.0625,0 4.98437,2.07812 1.9375,2.0625 1.9375,5.84375 0,0.21875 -0.0156,0.67188 h -11.34375 q 0.14062,2.51562 1.42187,3.84375 1.28125,1.32812 3.17188,1.32812 1.42187,0 2.42187,-0.73437 1,-0.75 1.59375,-2.375 z m -8.46875,-4.17188 h 8.5 q -0.17187,-1.92187 -0.96875,-2.875 -1.23437,-1.5 -3.20312,-1.5 -1.76563,0 -2.98438,1.1875 -1.20312,1.1875 -1.34375,3.1875 z m 11.99842,14.89063 v -1.85938 h 17.07812 v 1.85938 z m 18.65466,-5.82813 v -15.20312 h 2.3125 v 2.29687 q 0.89063,-1.60937 1.64063,-2.125 0.75,-0.51562 1.65625,-0.51562 1.3125,0 2.65625,0.82812 l -0.89063,2.39063 q -0.95312,-0.5625 -1.89062,-0.5625 -0.84375,0 -1.51563,0.51562 -0.67187,0.5 -0.96875,1.40625 -0.42187,1.375 -0.42187,3 v 7.96875 z m 8.82898,-7.60937 q 0,-4.21875 2.35937,-6.25 1.95313,-1.6875 4.78125,-1.6875 3.125,0 5.10938,2.0625 2,2.04687 2,5.67187 0,2.92188 -0.875,4.60938 -0.875,1.6875 -2.5625,2.625 -1.6875,0.92187 -3.67188,0.92187 -3.20312,0 -5.17187,-2.04687 -1.96875,-2.04688 -1.96875,-5.90625 z m 2.65625,0 q 0,2.92187 1.26562,4.375 1.28125,1.45312 3.21875,1.45312 1.92188,0 3.1875,-1.45312 1.28125,-1.46875 1.28125,-4.45313 0,-2.82812 -1.28125,-4.28125 -1.28125,-1.45312 -3.1875,-1.45312 -1.9375,0 -3.21875,1.45312 -1.26562,1.4375 -1.26562,4.35938 z m 14.56091,7.60937 v -21 h 2.57813 v 21 z m 6.51578,0 v -21 h 2.57813 v 21 z m 5.60953,-7.60937 q 0,-4.21875 2.35937,-6.25 1.95313,-1.6875 4.78125,-1.6875 3.125,0 5.10938,2.0625 2,2.04687 2,5.67187 0,2.92188 -0.875,4.60938 -0.875,1.6875 -2.5625,2.625 -1.6875,0.92187 -3.67188,0.92187 -3.20312,0 -5.17187,-2.04687 -1.96875,-2.04688 -1.96875,-5.90625 z m 2.65625,0 q 0,2.92187 1.26562,4.375 1.28125,1.45312 3.21875,1.45312 1.92188,0 3.1875,-1.45312 1.28125,-1.46875 1.28125,-4.45313 0,-2.82812 -1.28125,-4.28125 -1.28125,-1.45312 -3.1875,-1.45312 -1.9375,0 -3.21875,1.45312 -1.26562,1.4375 -1.26562,4.35938 z m 24.59219,7.60937 v -2.23437 q -1.78125,2.57812 -4.82812,2.57812 -1.34375,0 -2.51563,-0.51562 -1.17187,-0.51563 -1.73437,-1.29688 -0.5625,-0.78125 -0.79688,-1.90625 -0.15625,-0.76562 -0.15625,-2.40625 v -9.42187 h 2.57813 v 8.42187 q 0,2.03125 0.15625,2.73438 0.25,1.01562 1.03125,1.59375 0.79687,0.57812 1.95312,0.57812 1.15625,0 2.17188,-0.59375 1.01562,-0.59375 1.4375,-1.60937 0.42187,-1.03125 0.42187,-2.98438 v -8.14062 h 2.57813 v 15.20312 z m 11.96716,-2.3125 0.375,2.28125 q -1.09375,0.23438 -1.95312,0.23438 -1.40625,0 -2.1875,-0.4375 -0.76563,-0.45313 -1.07813,-1.17188 -0.3125,-0.73437 -0.3125,-3.04687 v -8.75 h -1.89062 v -2 h 1.89062 v -3.76563 l 2.5625,-1.54687 v 5.3125 h 2.59375 v 2 h -2.59375 v 8.89062 q 0,1.10938 0.125,1.42188 0.14063,0.3125 0.45313,0.5 0.3125,0.1875 0.89062,0.1875 0.42188,0 1.125,-0.10938 z"
       fill="#000000" />
    <path
       id="path1058"
       fill-rule="evenodd"
       d="M 304.2546,305.40945 H 557.23095 V 413.31497 H 304.2546 Z"
       fill="#fff2cc" />
    <path
       id="path1060"
       fill-rule="evenodd"
       d="M 304.2546,305.40945 H 557.23095 V 413.31497 H 304.2546 Z"
       stroke-linecap="butt"
       stroke-linejoin="round"
       stroke-width="1"
       stroke="#000000" />
    <path
       id="path1062"
       fill-rule="evenodd"
       d="M 625.3754,184.96063 H 878.35178 V 310.62991 H 625.3754 Z"
       fill="#ffffff" />
    <path
       id="path1064"
       fill-rule="evenodd"
       d="M 625.3754,184.96063 H 878.35178 V 310.62991 H 625.3754 Z"
       stroke-linecap="butt"
       stroke-linejoin="round"
       stroke-width="1"
       stroke="#000000" />
    <path
       id="path1066"
       fill-rule="nonzero"
       d="m 708.93274,258.45526 v -15.20311 h 2.3125 v 2.29687 q 0.89062,-1.60937 1.64062,-2.125 0.75,-0.51562 1.65625,-0.51562 1.3125,0 2.65625,0.82812 l -0.89062,2.39063 q -0.95313,-0.5625 -1.89063,-0.5625 -0.84375,0 -1.51562,0.51562 -0.67188,0.5 -0.96875,1.40625 -0.42188,1.375 -0.42188,3 v 7.96874 z m 20.20404,-4.89061 2.65625,0.32813 q -0.625,2.3281 -2.32813,3.62498 -1.70312,1.28125 -4.35937,1.28125 -3.32813,0 -5.28125,-2.04688 -1.95313,-2.06248 -1.95313,-5.7656 0,-3.84375 1.96875,-5.95313 1.98438,-2.125 5.125,-2.125 3.0625,0 4.98438,2.07813 1.9375,2.0625 1.9375,5.84375 0,0.21875 -0.0156,0.67187 H 720.5274 q 0.14063,2.51563 1.42188,3.84375 1.28125,1.32811 3.17187,1.32811 1.42188,0 2.42188,-0.73436 1,-0.75 1.59375,-2.375 z m -8.46875,-4.17187 h 8.5 q -0.17188,-1.92188 -0.96875,-2.875 -1.23438,-1.5 -3.20313,-1.5 -1.76562,0 -2.98437,1.1875 -1.20313,1.1875 -1.34375,3.1875 z m 24.23279,9.06248 v -1.92187 q -1.4375,2.26562 -4.25,2.26562 -1.8125,0 -3.34375,-1 -1.53125,-1 -2.375,-2.79686 -0.82813,-1.79687 -0.82813,-4.14062 0,-2.26563 0.75,-4.125 0.76563,-1.85938 2.28125,-2.84375 1.53125,-0.98438 3.40625,-0.98438 1.375,0 2.4375,0.57813 1.07813,0.57812 1.75,1.5 v -7.53125 h 2.5625 v 20.99998 z m -8.14063,-7.59373 q 0,2.92187 1.21875,4.375 1.23438,1.43748 2.92188,1.43748 1.6875,0 2.85937,-1.37498 1.1875,-1.39063 1.1875,-4.21875 0,-3.125 -1.20312,-4.57813 -1.20313,-1.46875 -2.96875,-1.46875 -1.71875,0 -2.875,1.40625 -1.14063,1.40625 -1.14063,4.42188 z m 24.56085,7.59373 v -2.23437 q -1.78125,2.57812 -4.82812,2.57812 -1.34375,0 -2.51563,-0.51562 -1.17181,-0.51563 -1.73431,-1.29688 -0.5625,-0.78125 -0.79687,-1.90623 -0.15625,-0.76563 -0.15625,-2.40625 v -9.42188 h 2.57806 v 8.42188 q 0,2.03125 0.15625,2.73437 0.25,1.01563 1.03125,1.59374 0.79687,0.57812 1.95312,0.57812 1.15625,0 2.17188,-0.59373 1.01562,-0.59375 1.4375,-1.60938 0.42187,-1.03125 0.42187,-2.98437 v -8.14063 h 2.57813 v 15.20311 z m 16.26404,-5.57811 2.53125,0.34375 q -0.40625,2.60938 -2.125,4.09374 -1.71875,1.48437 -4.20312,1.48437 -3.125,0 -5.03125,-2.03125 -1.89063,-2.04686 -1.89063,-5.85936 0,-2.46875 0.8125,-4.3125 0.82813,-1.84375 2.48438,-2.76562 1.67187,-0.92188 3.64062,-0.92188 2.46875,0 4.04688,1.25 1.57812,1.25 2.03125,3.5625 l -2.51563,0.375 q -0.35937,-1.53125 -1.26562,-2.29687 -0.90625,-0.78125 -2.20313,-0.78125 -1.9375,0 -3.15625,1.40625 -1.21875,1.39062 -1.21875,4.40625 0,3.07812 1.17188,4.46875 1.17187,1.37498 3.0625,1.37498 1.51562,0 2.53125,-0.92186 1.01562,-0.9375 1.29687,-2.875 z m 15.14844,0.6875 2.65625,0.32813 q -0.625,2.32811 -2.32812,3.62498 -1.70313,1.28125 -4.35938,1.28125 -3.32812,0 -5.28125,-2.04687 -1.95312,-2.06249 -1.95312,-5.76561 0,-3.84375 1.96875,-5.95313 1.98437,-2.125 5.125,-2.125 3.0625,0 4.98437,2.07813 1.9375,2.0625 1.9375,5.84375 0,0.21875 -0.0156,0.67187 h -11.34375 q 0.14062,2.51563 1.42187,3.84375 1.28125,1.32811 3.17188,1.32811 1.42187,0 2.42187,-0.73436 1,-0.75 1.59375,-2.375 z m -8.46875,-4.17187 h 8.5 q -0.17187,-1.92188 -0.96875,-2.875 -1.23437,-1.5 -3.20312,-1.5 -1.76563,0 -2.98438,1.1875 -1.20312,1.1875 -1.34375,3.1875 z"
       fill="#000000" />
    <path
       id="path1068"
       fill-rule="evenodd"
       d="M 625.3758,305.40945 H 878.35218 V 413.31497 H 625.3758 Z"
       fill="#fff2cc" />
    <path
       id="path1070"
       fill-rule="evenodd"
       d="M 625.3758,305.40945 H 878.35218 V 413.31497 H 625.3758 Z"
       stroke-linecap="butt"
       stroke-linejoin="round"
       stroke-width="1"
       stroke="#000000" />
    <path
       id="path1072"
       fill-rule="evenodd"
       d="M 460.31424,536.2986 H 713.29065 V 661.96791 H 460.31424 Z"
       fill="#ffffff" />
    <path
       id="path1074"
       fill-rule="evenodd"
       d="M 460.31424,536.2986 H 713.29065 V 661.96791 H 460.31424 Z"
       stroke-linecap="butt"
       stroke-linejoin="round"
       stroke-width="1"
       stroke="#000000" />
    <path
       id="path1076"
       fill-rule="nonzero"
       d="m 549.96625,609.7933 v -21 h 7.23437 q 2.4375,0 3.73438,0.3125 1.79687,0.40625 3.07812,1.5 1.65625,1.40625 2.48438,3.59375 0.82812,2.17188 0.82812,4.98438 0,2.39062 -0.5625,4.23437 -0.5625,1.84375 -1.4375,3.0625 -0.875,1.20313 -1.92187,1.90625 -1.03125,0.6875 -2.5,1.04688 -1.45313,0.35937 -3.35938,0.35937 z m 2.78125,-2.48437 h 4.46875 q 2.07812,0 3.26562,-0.375 1.1875,-0.39063 1.89063,-1.09375 0.98437,-0.98438 1.53125,-2.65625 0.54687,-1.67188 0.54687,-4.04688 0,-3.29687 -1.07812,-5.0625 -1.07813,-1.76562 -2.625,-2.375 -1.125,-0.42187 -3.59375,-0.42187 h -4.40625 z m 18.03925,2.48437 v -15.20312 h 2.3125 v 2.29687 q 0.89062,-1.60937 1.64062,-2.125 0.75,-0.51562 1.65625,-0.51562 1.3125,0 2.65625,0.82812 l -0.89062,2.39063 q -0.95313,-0.5625 -1.89063,-0.5625 -0.84375,0 -1.51562,0.51562 -0.67188,0.5 -0.96875,1.40625 -0.42188,1.375 -0.42188,3 v 7.96875 z m 9.81335,-18.03125 v -2.96875 h 2.57813 v 2.96875 z m 0,18.03125 v -15.20312 h 2.57813 v 15.20312 z m 10.71893,0 -5.78125,-15.20312 h 2.71875 l 3.26563,9.10937 q 0.53125,1.46875 0.96875,3.0625 0.34375,-1.20312 0.96875,-2.89062 l 3.375,-9.28125 h 2.65625 l -5.76563,15.20312 z m 20.85157,-4.89062 2.65625,0.32812 q -0.625,2.32813 -2.32813,3.625 -1.70312,1.28125 -4.35937,1.28125 -3.32813,0 -5.28125,-2.04687 -1.95313,-2.0625 -1.95313,-5.76563 0,-3.84375 1.96875,-5.95312 1.98438,-2.125 5.125,-2.125 3.0625,0 4.98438,2.07812 1.9375,2.0625 1.9375,5.84375 0,0.21875 -0.0156,0.67188 h -11.34375 q 0.14063,2.51562 1.42188,3.84375 1.28125,1.32812 3.17187,1.32812 1.42188,0 2.42188,-0.73437 1,-0.75 1.59375,-2.375 z m -8.46875,-4.17188 h 8.5 q -0.17188,-1.92187 -0.96875,-2.875 -1.23438,-1.5 -3.20313,-1.5 -1.76562,0 -2.98437,1.1875 -1.20313,1.1875 -1.34375,3.1875 z m 14.34216,9.0625 v -15.20312 h 2.3125 v 2.29687 q 0.89062,-1.60937 1.64062,-2.125 0.75,-0.51562 1.65625,-0.51562 1.3125,0 2.65625,0.82812 l -0.89062,2.39063 q -0.95313,-0.5625 -1.89063,-0.5625 -0.84375,0 -1.51562,0.51562 -0.67188,0.5 -0.96875,1.40625 -0.42188,1.375 -0.42188,3 v 7.96875 z"
       fill="#000000" />
    <path
       id="path1078"
       fill-rule="evenodd"
       d="M 460.31445,454.08398 H 713.29083 V 561.9895 H 460.31445 Z"
       fill="#fff2cc" />
    <path
       id="path1080"
       fill-rule="evenodd"
       d="M 460.31445,454.08398 H 713.29083 V 561.9895 H 460.31445 Z"
       stroke-linecap="butt"
       stroke-linejoin="round"
       stroke-width="1"
       stroke="#000000" />
    <path
       id="path1082"
       fill-rule="evenodd"
       d="m 362.6168,337.47528 v 0 c 0,-5.90274 4.78513,-10.68787 10.6879,-10.68787 h 131.31714 c 2.83459,0 5.5531,1.12604 7.55749,3.13041 2.00434,2.00436 3.13037,4.72287 3.13037,7.55746 v 42.75021 c 0,5.90278 -4.78509,10.6879 -10.68786,10.6879 H 373.3047 c -5.90277,0 -10.6879,-4.78512 -10.6879,-10.6879 z"
       fill="#f6b26b" />
    <path
       id="path1084"
       fill-rule="evenodd"
       d="m 362.6168,337.47528 v 0 c 0,-5.90274 4.78513,-10.68787 10.6879,-10.68787 h 131.31714 c 2.83459,0 5.5531,1.12604 7.55749,3.13041 2.00434,2.00436 3.13037,4.72287 3.13037,7.55746 v 42.75021 c 0,5.90278 -4.78509,10.6879 -10.68786,10.6879 H 373.3047 c -5.90277,0 -10.6879,-4.78512 -10.6879,-10.6879 z"
       stroke-linecap="butt"
       stroke-linejoin="round"
       stroke-width="1"
       stroke="#000000" />
    <path
       id="path1086"
       fill-rule="nonzero"
       d="m 403.27966,353.33038 v -15.14063 h 3.07812 v 12.5625 h 7.65625 v 2.57813 z m 26.69995,0 h -3.34375 l -1.32812,-3.46875 h -6.10938 l -1.26562,3.46875 h -3.26563 l 5.95313,-15.26563 h 3.25 z m -5.67187,-6.04688 -2.09375,-5.65625 -2.0625,5.65625 z m 7.32437,6.04688 v -15.26563 h 6.48437 q 2.45313,0 3.5625,0.42188 1.10938,0.40625 1.76563,1.45312 0.67187,1.04688 0.67187,2.40625 0,1.71875 -1.01562,2.84375 -1,1.10938 -3.01563,1.40625 1,0.57813 1.64063,1.28125 0.65625,0.6875 1.76562,2.46875 l 1.85938,2.98438 h -3.6875 l -2.21875,-3.32813 q -1.1875,-1.78125 -1.625,-2.23437 -0.4375,-0.46875 -0.9375,-0.64063 -0.48438,-0.17187 -1.54688,-0.17187 h -0.625 v 6.375 z m 3.07812,-8.8125 h 2.28125 q 2.21875,0 2.76563,-0.1875 0.5625,-0.1875 0.875,-0.64063 0.3125,-0.46875 0.3125,-1.14062 0,-0.78125 -0.42188,-1.25 -0.40625,-0.46875 -1.15625,-0.59375 -0.375,-0.0625 -2.25,-0.0625 h -2.40625 z m 19.41812,3.20312 v -2.57812 h 6.64063 v 6.07812 q -0.96875,0.9375 -2.8125,1.65625 -1.82813,0.71875 -3.71875,0.71875 -2.39063,0 -4.17188,-1 -1.78125,-1.01562 -2.6875,-2.875 -0.89062,-1.875 -0.89062,-4.07812 0,-2.39063 1,-4.23438 1,-1.85937 2.9375,-2.84375 1.46875,-0.76562 3.65625,-0.76562 2.82812,0 4.42187,1.20312 1.60938,1.1875 2.0625,3.29688 l -3.0625,0.5625 q -0.3125,-1.125 -1.20312,-1.76563 -0.89063,-0.65625 -2.21875,-0.65625 -2.03125,0 -3.21875,1.28125 -1.1875,1.28125 -1.1875,3.79688 0,2.71875 1.20312,4.07812 1.20313,1.35938 3.17188,1.35938 0.96875,0 1.9375,-0.375 0.96875,-0.39063 1.67187,-0.92188 v -1.9375 z m 9.48032,5.60938 v -15.26563 h 11.32812 v 2.57813 h -8.23437 v 3.39062 h 7.65625 v 2.5625 h -7.65625 v 4.15625 h 8.51562 v 2.57813 z"
       fill="#000000" />
    <path
       id="path1088"
       fill-rule="nonzero"
       d="m 396.63007,371.7835 q 0,-2.32813 0.70312,-3.90625 0.51563,-1.17188 1.42188,-2.09375 0.90625,-0.92188 1.96875,-1.375 1.4375,-0.60938 3.29687,-0.60938 3.375,0 5.39063,2.09375 2.03125,2.09375 2.03125,5.82813 0,3.6875 -2.01563,5.78125 -2,2.09375 -5.35937,2.09375 -3.40625,0 -5.42188,-2.07813 -2.01562,-2.07812 -2.01562,-5.73437 z m 3.1875,-0.0937 q 0,2.59375 1.1875,3.9375 1.20312,1.32812 3.04687,1.32812 1.84375,0 3.01563,-1.32812 1.1875,-1.32813 1.1875,-3.98438 0,-2.625 -1.15625,-3.90625 -1.14063,-1.29687 -3.04688,-1.29687 -1.90625,0 -3.07812,1.3125 -1.15625,1.29687 -1.15625,3.9375 z m 14.04282,-7.625 h 6.10937 q 1.8125,0 2.6875,0.15625 0.89063,0.14062 1.59375,0.625 0.70313,0.48437 1.17188,1.28125 0.46875,0.79687 0.46875,1.78125 0,1.0625 -0.57813,1.96875 -0.57812,0.89062 -1.5625,1.34375 1.39063,0.40625 2.14063,1.39062 0.75,0.96875 0.75,2.29688 0,1.03125 -0.48438,2.01562 -0.48437,0.98438 -1.32812,1.57813 -0.82813,0.59375 -2.04688,0.71875 -0.78125,0.0937 -3.71875,0.10937 h -5.20312 z m 3.07812,2.54687 v 3.51563 h 2.03125 q 1.79688,0 2.23438,-0.0469 0.79687,-0.0937 1.25,-0.54687 0.45312,-0.45313 0.45312,-1.1875 0,-0.70313 -0.39062,-1.14063 -0.39063,-0.45312 -1.17188,-0.54687 -0.45312,-0.0469 -2.625,-0.0469 z m 0,6.0625 v 4.07813 h 2.85938 q 1.67187,0 2.10937,-0.0937 0.6875,-0.125 1.10938,-0.60938 0.4375,-0.48437 0.4375,-1.29687 0,-0.6875 -0.32813,-1.15625 -0.32812,-0.48438 -0.96875,-0.70313 -0.625,-0.21875 -2.71875,-0.21875 z m 17.82437,-8.60937 h 3.07813 v 9.65625 q 0,1.90625 -0.34375,2.92187 -0.4375,1.32813 -1.625,2.14063 -1.17188,0.8125 -3.09375,0.8125 -2.26563,0 -3.48438,-1.26563 -1.21875,-1.26562 -1.23437,-3.71875 l 2.90625,-0.32812 q 0.0625,1.3125 0.39062,1.84375 0.5,0.82812 1.51563,0.82812 1.03125,0 1.45312,-0.57812 0.4375,-0.59375 0.4375,-2.45313 z m 6.34607,15.26562 V 364.0648 h 11.32813 v 2.57812 h -8.23438 v 3.39063 h 7.65625 v 2.5625 h -7.65625 v 4.15625 h 8.51563 v 2.57812 z m 23.99133,-5.60937 3,0.9375 q -0.6875,2.5 -2.29687,3.71875 -1.59375,1.21875 -4.04688,1.21875 -3.04687,0 -5,-2.07813 -1.95312,-2.07812 -1.95312,-5.6875 0,-3.8125 1.96875,-5.92187 1.96875,-2.10938 5.17187,-2.10938 2.79688,0 4.54688,1.65625 1.04687,0.98438 1.5625,2.8125 l -3.04688,0.73438 q -0.28125,-1.1875 -1.14062,-1.875 -0.84375,-0.6875 -2.07813,-0.6875 -1.70312,0 -2.76562,1.21875 -1.04688,1.21875 -1.04688,3.9375 0,2.90625 1.03125,4.14062 1.04688,1.21875 2.71875,1.21875 1.23438,0 2.10938,-0.78125 0.89062,-0.78125 1.26562,-2.45312 z m 9.07438,5.60937 v -12.6875 h -4.53125 v -2.57812 h 12.14062 v 2.57812 h -4.51562 v 12.6875 z"
       fill="#000000" />
    <path
       id="path1090"
       fill-rule="evenodd"
       d="m 515.3097,358.8504 160.22052,9.66928"
       fill-opacity="0"
       fill="#000000" />
    <path
       id="path1092"
       fill-rule="evenodd"
       d="m 515.3097,358.8504 136.2641,8.22351"
       stroke-linecap="butt"
       stroke-linejoin="round"
       stroke-width="4"
       stroke="#000000" />
    <path
       id="path1094"
       fill-rule="evenodd"
       d="m 651.1758,373.66885 18.51739,-5.50143 -17.72137,-7.68845 z"
       stroke-linecap="butt"
       stroke-width="4"
       stroke="#000000"
       fill="#000000" />
    <path
       id="path1096"
       fill-rule="evenodd"
       d="M 460.31497,68.073494 H 839.02362 V 149.52231 H 460.31497 Z"
       fill-opacity="0"
       fill="#000000" />
    <path
       id="path1098"
       fill-rule="nonzero"
       d="M 472.25247,115.47349 V 86.832865 h 10.73438 q 3.28125,0 5.26562,0.875 1.98438,0.875 3.10938,2.6875 1.125,1.796875 1.125,3.765625 0,1.84375 -1,3.46875 -1,1.609375 -3.01563,2.60937 2.60938,0.76563 4,2.60938 1.39063,1.82812 1.39063,4.32812 0,2 -0.84375,3.73438 -0.84375,1.73437 -2.09375,2.67187 -1.25,0.9375 -3.14063,1.42188 -1.89062,0.46875 -4.625,0.46875 z m 3.78125,-16.609375 h 6.1875 q 2.53125,0 3.625,-0.328125 1.4375,-0.421875 2.17188,-1.421875 0.73437,-1 0.73437,-2.5 0,-1.421875 -0.6875,-2.5 -0.6875,-1.09375 -1.95312,-1.484375 -1.26563,-0.40625 -4.35938,-0.40625 h -5.71875 z m 0,13.234375 h 7.125 q 1.84375,0 2.57813,-0.14063 1.3125,-0.23437 2.1875,-0.78125 0.89062,-0.54687 1.45312,-1.59375 0.5625,-1.04687 0.5625,-2.40625 0,-1.60937 -0.82812,-2.78125 -0.8125,-1.1875 -2.26563,-1.65625 -1.45312,-0.48437 -4.1875,-0.48437 h -6.625 z m 36.80466,-3.3125 3.625,0.45312 q -0.85938,3.1875 -3.1875,4.95313 -2.31247,1.75 -5.93747,1.75 -4.54688,0 -7.21875,-2.79688 -2.65625,-2.8125 -2.65625,-7.875 0,-5.23437 2.6875,-8.124995 2.70312,-2.890625 7,-2.890625 4.15625,0 6.79684,2.84375 2.64063,2.828125 2.64063,7.96875 0,0.3125 -0.0312,0.9375 h -15.46872 q 0.20312,3.40625 1.9375,5.23437 1.73437,1.8125 4.34375,1.8125 1.92187,0 3.28125,-1.01562 1.37497,-1.01563 2.18747,-3.25 z m -11.54685,-5.67188 h 11.5781 q -0.23438,-2.625 -1.3281,-3.937495 -1.67187,-2.03125 -4.35937,-2.03125 -2.42188,0 -4.07813,1.625 -1.64062,1.624995 -1.8125,4.343745 z m 27.26169,9.21875 0.51563,3.09375 q -1.48438,0.32813 -2.65625,0.32813 -1.92188,0 -2.98438,-0.60938 -1.04687,-0.60937 -1.48437,-1.59375 -0.42188,-0.98437 -0.42188,-4.15625 V 97.457865 h -2.57812 V 94.72349 h 2.57812 v -5.125 l 3.5,-2.109375 v 7.234375 h 3.53125 v 2.734375 h -3.53125 v 12.140625 q 0,1.5 0.1875,1.9375 0.1875,0.42187 0.59375,0.67187 0.42188,0.25 1.20313,0.25 0.59375,0 1.54687,-0.125 z m 11.11328,0 0.51563,3.09375 q -1.48438,0.32813 -2.65625,0.32813 -1.92188,0 -2.98438,-0.60938 -1.04687,-0.60937 -1.48437,-1.59375 -0.42188,-0.98437 -0.42188,-4.15625 V 97.457865 h -2.57812 V 94.72349 h 2.57812 v -5.125 l 3.5,-2.109375 v 7.234375 h 3.53125 v 2.734375 h -3.53125 v 12.140625 q 0,1.5 0.1875,1.9375 0.1875,0.42187 0.59375,0.67187 0.42188,0.25 1.20313,0.25 0.59375,0 1.54687,-0.125 z m 17.64453,-3.54687 3.625,0.45312 q -0.85937,3.1875 -3.1875,4.95313 -2.3125,1.75 -5.9375,1.75 -4.54687,0 -7.21875,-2.79688 -2.65625,-2.8125 -2.65625,-7.875 0,-5.23437 2.6875,-8.124995 2.70313,-2.890625 7,-2.890625 4.15625,0 6.79688,2.84375 2.64062,2.828125 2.64062,7.96875 0,0.3125 -0.0312,0.9375 h -15.46875 q 0.20313,3.40625 1.9375,5.23437 1.73438,1.8125 4.34375,1.8125 1.92188,0 3.28125,-1.01562 1.375,-1.01563 2.1875,-3.25 z m -11.54687,-5.67188 h 11.57812 q -0.23437,-2.625 -1.32812,-3.937495 -1.67188,-2.03125 -4.35938,-2.03125 -2.42187,0 -4.07812,1.625 -1.64063,1.624995 -1.8125,4.343745 z m 19.54297,12.35938 v -20.75 h 3.17187 v 3.15625 q 1.20313,-2.21875 2.23438,-2.921875 1.03125,-0.703125 2.25,-0.703125 1.78125,0 3.625,1.140625 l -1.21875,3.265625 q -1.28125,-0.765625 -2.57813,-0.765625 -1.15625,0 -2.07812,0.703125 -0.90625,0.6875 -1.29688,1.90625 -0.59375,1.875 -0.59375,4.10937 v 10.85938 z m 24.80859,0 V 86.832865 h 5.70313 l 6.78125,20.281245 q 0.9375,2.82813 1.35937,4.23438 0.5,-1.5625 1.53125,-4.59375 l 6.85938,-19.921875 h 5.09375 V 115.47349 H 613.7876 V 91.50474 l -8.3125,23.96875 h -3.42188 l -8.28125,-24.375 v 24.375 z m 47.19531,-6.6875 3.625,0.45312 q -0.85937,3.1875 -3.1875,4.95313 -2.3125,1.75 -5.9375,1.75 -4.54687,0 -7.21875,-2.79688 -2.65625,-2.8125 -2.65625,-7.875 0,-5.23437 2.6875,-8.124995 2.70313,-2.890625 7,-2.890625 4.15625,0 6.79688,2.84375 2.64062,2.828125 2.64062,7.96875 0,0.3125 -0.0312,0.9375 h -15.46875 q 0.20313,3.40625 1.9375,5.23437 1.73438,1.8125 4.34375,1.8125 1.92188,0 3.28125,-1.01562 1.375,-1.01563 2.1875,-3.25 z m -11.54687,-5.67188 h 11.57812 q -0.23437,-2.625 -1.32812,-3.937495 -1.67188,-2.03125 -4.35938,-2.03125 -2.42187,0 -4.07812,1.625 -1.64063,1.624995 -1.8125,4.343745 z m 27.26172,9.21875 0.51562,3.09375 q -1.48437,0.32813 -2.65625,0.32813 -1.92187,0 -2.98437,-0.60938 -1.04688,-0.60937 -1.48438,-1.59375 -0.42187,-0.98437 -0.42187,-4.15625 V 97.457865 H 643.4165 V 94.72349 h 2.57813 v -5.125 l 3.5,-2.109375 v 7.234375 h 3.53125 v 2.734375 h -3.53125 v 12.140625 q 0,1.5 0.1875,1.9375 0.1875,0.42187 0.59375,0.67187 0.42187,0.25 1.20312,0.25 0.59375,0 1.54688,-0.125 z m 3.4414,3.14063 V 86.832865 h 3.51563 v 10.28125 q 2.45312,-2.859375 6.20312,-2.859375 2.3125,0 4,0.921875 1.70313,0.90625 2.4375,2.515625 0.73438,1.59375 0.73438,4.64062 v 13.14063 h -3.51563 v -13.14063 q 0,-2.64062 -1.14062,-3.843745 -1.14063,-1.203125 -3.23438,-1.203125 -1.5625,0 -2.9375,0.8125 -1.375,0.8125 -1.96875,2.20312 -0.57812,1.375 -0.57812,3.82813 v 11.34375 z m 20.9336,-10.375 q 0,-5.765625 3.20312,-8.53125 2.67188,-2.3125 6.53125,-2.3125 4.26563,0 6.98438,2.8125 2.71875,2.796875 2.71875,7.73437 0,4.01563 -1.20313,6.3125 -1.20312,2.28125 -3.5,3.5625 -2.29687,1.26563 -5,1.26563 -4.35937,0 -7.04687,-2.79688 -2.6875,-2.79687 -2.6875,-8.04687 z m 3.60937,0 q 0,3.98437 1.73438,5.96875 1.75,1.98437 4.39062,1.98437 2.60938,0 4.34375,-1.98437 1.75,-2 1.75,-6.07813 0,-3.85937 -1.75,-5.82812 -1.75,-1.984375 -4.34375,-1.984375 -2.64062,0 -4.39062,1.96875 -1.73438,1.968745 -1.73438,5.953125 z m 33.40235,10.375 v -2.625 q -1.96875,3.09375 -5.79688,3.09375 -2.48437,0 -4.5625,-1.35938 -2.07812,-1.375 -3.21875,-3.82812 -1.14062,-2.45313 -1.14062,-5.64063 0,-3.09375 1.03125,-5.624995 1.03125,-2.53125 3.09375,-3.875 2.07812,-1.359375 4.64062,-1.359375 1.875,0 3.32813,0.796875 1.46875,0.796875 2.39062,2.0625 v -10.28125 h 3.5 v 28.640625 z m -11.10938,-10.35938 q 0,3.98438 1.67188,5.96875 1.6875,1.96875 3.96875,1.96875 2.3125,0 3.92187,-1.875 1.60938,-1.89062 1.60938,-5.76562 0,-4.25 -1.64063,-6.234375 -1.64062,-2 -4.04687,-2 -2.34375,0 -3.92188,1.921875 -1.5625,1.90625 -1.5625,6.01562 z"
       fill="#000000" />
    <path
       id="path1100"
       fill-rule="evenodd"
       d="m 675.5171,347.15244 v 0 c 0,-5.90274 4.78509,-10.68787 10.68787,-10.68787 h 131.31714 c 2.83459,0 5.5531,1.12604 7.55749,3.13041 2.00433,2.00436 3.13037,4.72287 3.13037,7.55746 v 42.75024 c 0,5.90274 -4.78509,10.68787 -10.68786,10.68787 H 686.20497 c -5.90278,0 -10.68787,-4.78513 -10.68787,-10.68787 z"
       fill="#f6b26b" />
    <path
       id="path1102"
       fill-rule="evenodd"
       d="m 675.5171,347.15244 v 0 c 0,-5.90274 4.78509,-10.68787 10.68787,-10.68787 h 131.31714 c 2.83459,0 5.5531,1.12604 7.55749,3.13041 2.00433,2.00436 3.13037,4.72287 3.13037,7.55746 v 42.75024 c 0,5.90274 -4.78509,10.68787 -10.68786,10.68787 H 686.20497 c -5.90278,0 -10.68787,-4.78513 -10.68787,-10.68787 z"
       stroke-linecap="butt"
       stroke-linejoin="round"
       stroke-width="1"
       stroke="#000000" />
    <path
       id="path1104"
       fill-rule="nonzero"
       d="m 716.17993,363.00757 v -15.14063 h 3.07813 v 12.5625 h 7.65625 v 2.57813 z m 26.69995,0 h -3.34375 l -1.32812,-3.46875 h -6.10938 l -1.26562,3.46875 h -3.26563 l 5.95313,-15.26563 h 3.25 z m -5.67187,-6.04688 -2.09375,-5.65625 -2.0625,5.65625 z m 7.32434,6.04688 v -15.26563 h 6.48437 q 2.45313,0 3.5625,0.42188 1.10938,0.40625 1.76563,1.45312 0.67187,1.04688 0.67187,2.40625 0,1.71875 -1.01562,2.84375 -1,1.10938 -3.01563,1.40625 1,0.57813 1.64063,1.28125 0.65625,0.6875 1.76562,2.46875 l 1.85938,2.98438 h -3.6875 l -2.21875,-3.32813 q -1.1875,-1.78125 -1.625,-2.23437 -0.4375,-0.46875 -0.9375,-0.64063 -0.48438,-0.17187 -1.54688,-0.17187 h -0.625 v 6.375 z m 3.07812,-8.8125 h 2.28125 q 2.21875,0 2.76563,-0.1875 0.5625,-0.1875 0.875,-0.64063 0.3125,-0.46875 0.3125,-1.14062 0,-0.78125 -0.42188,-1.25 -0.40625,-0.46875 -1.15625,-0.59375 -0.375,-0.0625 -2.25,-0.0625 h -2.40625 z m 19.41815,3.20312 v -2.57812 h 6.64063 v 6.07812 q -0.96875,0.9375 -2.8125,1.65625 -1.82813,0.71875 -3.71875,0.71875 -2.39063,0 -4.17188,-1 -1.78125,-1.01562 -2.6875,-2.875 -0.89062,-1.875 -0.89062,-4.07812 0,-2.39063 1,-4.23438 1,-1.85937 2.9375,-2.84375 1.46875,-0.76562 3.65625,-0.76562 2.82812,0 4.42187,1.20312 1.60938,1.1875 2.0625,3.29688 l -3.0625,0.5625 q -0.3125,-1.125 -1.20312,-1.76563 -0.89063,-0.65625 -2.21875,-0.65625 -2.03125,0 -3.21875,1.28125 -1.1875,1.28125 -1.1875,3.79688 0,2.71875 1.20312,4.07812 1.20313,1.35938 3.17188,1.35938 0.96875,0 1.9375,-0.375 0.96875,-0.39063 1.67187,-0.92188 v -1.9375 z m 9.48029,5.60938 v -15.26563 h 11.32813 v 2.57813 h -8.23438 v 3.39062 h 7.65625 v 2.5625 h -7.65625 v 4.15625 h 8.51563 v 2.57813 z"
       fill="#000000" />
    <path
       id="path1106"
       fill-rule="nonzero"
       d="m 709.53033,381.4607 q 0,-2.32813 0.70313,-3.90625 0.51562,-1.17188 1.42187,-2.09375 0.90625,-0.92188 1.96875,-1.375 1.4375,-0.60938 3.29688,-0.60938 3.375,0 5.39062,2.09375 2.03125,2.09375 2.03125,5.82813 0,3.6875 -2.01562,5.78125 -2,2.09375 -5.35938,2.09375 -3.40625,0 -5.42187,-2.07813 -2.01563,-2.07812 -2.01563,-5.73437 z m 3.1875,-0.0937 q 0,2.59375 1.1875,3.9375 1.20313,1.32812 3.04688,1.32812 1.84375,0 3.01562,-1.32812 1.1875,-1.32813 1.1875,-3.98438 0,-2.625 -1.15625,-3.90625 -1.14062,-1.29687 -3.04687,-1.29687 -1.90625,0 -3.07813,1.3125 -1.15625,1.29687 -1.15625,3.9375 z m 14.04279,-7.625 h 6.10937 q 1.8125,0 2.6875,0.15625 0.89063,0.14062 1.59375,0.625 0.70313,0.48437 1.17188,1.28125 0.46875,0.79687 0.46875,1.78125 0,1.0625 -0.57813,1.96875 -0.57812,0.89062 -1.5625,1.34375 1.39063,0.40625 2.14063,1.39062 0.75,0.96875 0.75,2.29688 0,1.03125 -0.48438,2.01562 -0.48437,0.98438 -1.32812,1.57813 -0.82813,0.59375 -2.04688,0.71875 -0.78125,0.0937 -3.71875,0.10937 h -5.20312 z m 3.07812,2.54687 v 3.51563 h 2.03125 q 1.79688,0 2.23438,-0.0469 0.79687,-0.0937 1.25,-0.54687 0.45312,-0.45313 0.45312,-1.1875 0,-0.70313 -0.39062,-1.14063 -0.39063,-0.45312 -1.17188,-0.54687 -0.45312,-0.0469 -2.625,-0.0469 z m 0,6.0625 v 4.07813 h 2.85938 q 1.67187,0 2.10937,-0.0937 0.6875,-0.125 1.10938,-0.60938 0.4375,-0.48437 0.4375,-1.29687 0,-0.6875 -0.32813,-1.15625 -0.32812,-0.48438 -0.96875,-0.70313 -0.625,-0.21875 -2.71875,-0.21875 z m 17.8244,-8.60937 h 3.07813 v 9.65625 q 0,1.90625 -0.34375,2.92187 -0.4375,1.32813 -1.625,2.14063 -1.17188,0.8125 -3.09375,0.8125 -2.26563,0 -3.48438,-1.26563 -1.21875,-1.26562 -1.23437,-3.71875 l 2.90625,-0.32812 q 0.0625,1.3125 0.39062,1.84375 0.5,0.82812 1.51563,0.82812 1.03125,0 1.45312,-0.57812 0.4375,-0.59375 0.4375,-2.45313 z m 6.34607,15.26562 V 373.742 h 11.32813 v 2.57812 h -8.23438 v 3.39063 h 7.65625 v 2.5625 h -7.65625 v 4.15625 h 8.51563 v 2.57812 z m 23.99134,-5.60937 3,0.9375 q -0.6875,2.5 -2.29688,3.71875 -1.59375,1.21875 -4.04687,1.21875 -3.04688,0 -5,-2.07813 -1.95313,-2.07812 -1.95313,-5.6875 0,-3.8125 1.96875,-5.92187 1.96875,-2.10938 5.17188,-2.10938 2.79687,0 4.54687,1.65625 1.04688,0.98438 1.5625,2.8125 l -3.04687,0.73438 q -0.28125,-1.1875 -1.14063,-1.875 -0.84375,-0.6875 -2.07812,-0.6875 -1.70313,0 -2.76563,1.21875 -1.04687,1.21875 -1.04687,3.9375 0,2.90625 1.03125,4.14062 1.04687,1.21875 2.71875,1.21875 1.23437,0 2.10937,-0.78125 0.89063,-0.78125 1.26563,-2.45312 z m 9.07434,5.60937 v -12.6875 h -4.53125 V 373.742 h 12.14062 v 2.57812 h -4.51562 v 12.6875 z"
       fill="#000000" />
    <path
       id="path1108"
       fill-rule="evenodd"
       d="m 236.71654,486.66162 v 0 c 0,-5.90274 4.78513,-10.68787 10.68788,-10.68787 h 130.93921 c 2.8346,0 5.5531,1.12604 7.55747,3.13041 2.00436,2.00436 3.1304,4.72287 3.1304,7.55746 v 42.75024 c 0,5.90278 -4.78513,10.68787 -10.68787,10.68787 H 247.40442 c -5.90275,0 -10.68788,-4.78509 -10.68788,-10.68787 z"
       fill="#ffffff" />
    <path
       id="path1110"
       fill-rule="evenodd"
       d="m 236.71654,486.66162 v 0 c 0,-5.90274 4.78513,-10.68787 10.68788,-10.68787 h 130.93921 c 2.8346,0 5.5531,1.12604 7.55747,3.13041 2.00436,2.00436 3.1304,4.72287 3.1304,7.55746 v 42.75024 c 0,5.90278 -4.78513,10.68787 -10.68787,10.68787 H 247.40442 c -5.90275,0 -10.68788,-4.78509 -10.68788,-10.68787 z"
       stroke-linecap="butt"
       stroke-linejoin="round"
       stroke-width="2"
       stroke="#3d85c6" />
    <path
       id="path1112"
       fill-rule="nonzero"
       d="m 269.62842,508.36298 q 0,-2.04688 0.60937,-3.42188 0.45313,-1.03125 1.23438,-1.82812 0.79687,-0.8125 1.73437,-1.20313 1.25,-0.53125 2.875,-0.53125 2.95313,0 4.71875,1.82813 1.78125,1.82812 1.78125,5.09375 0,3.23437 -1.76562,5.0625 -1.75,1.82812 -4.6875,1.82812 -2.98438,0 -4.75,-1.8125 -1.75,-1.82812 -1.75,-5.01562 z m 2.78125,-0.0937 q 0,2.26562 1.04687,3.4375 1.04688,1.17187 2.65625,1.17187 1.60938,0 2.64063,-1.15625 1.04687,-1.17187 1.04687,-3.48437 0,-2.29688 -1.01562,-3.42188 -1,-1.14062 -2.67188,-1.14062 -1.67187,0 -2.6875,1.15625 -1.01562,1.14062 -1.01562,3.4375 z m 12.15207,6.6875 V 501.5974 h 2.5625 v 4.8125 q 1.17187,-1.34375 2.79687,-1.34375 1.76563,0 2.92188,1.28125 1.15625,1.28125 1.15625,3.67188 0,2.48437 -1.1875,3.82812 -1.17188,1.32813 -2.85938,1.32813 -0.82812,0 -1.64062,-0.40625 -0.79688,-0.42188 -1.375,-1.23438 v 1.42188 z m 2.53125,-5.04688 q 0,1.5 0.48437,2.21875 0.65625,1.03125 1.76563,1.03125 0.84375,0 1.4375,-0.71875 0.59375,-0.73437 0.59375,-2.29687 0,-1.65625 -0.60938,-2.39063 -0.59375,-0.73437 -1.53125,-0.73437 -0.92187,0 -1.53125,0.71875 -0.60937,0.71875 -0.60937,2.17187 z m 8.91159,-5.9375 v -2.375 h 2.5625 v 2.375 z m 2.5625,1.3125 v 9.375 q 0,1.84375 -0.25,2.59375 -0.23438,0.76563 -0.92188,1.1875 -0.6875,0.4375 -1.75,0.4375 -0.39062,0 -0.82812,-0.0625 -0.4375,-0.0625 -0.95313,-0.20312 l 0.45313,-2.1875 q 0.17187,0.0312 0.34375,0.0469 0.15625,0.0312 0.29687,0.0312 0.39063,0 0.64063,-0.17187 0.25,-0.15625 0.32812,-0.40625 0.0781,-0.23438 0.0781,-1.42188 v -9.21875 z m 8.27707,6.59375 2.54687,0.42188 q -0.48437,1.40625 -1.54687,2.14062 -1.0625,0.73438 -2.65625,0.73438 -2.51563,0 -3.73438,-1.65625 -0.95312,-1.3125 -0.95312,-3.32813 0,-2.40625 1.25,-3.76562 1.26562,-1.35938 3.1875,-1.35938 2.15625,0 3.40625,1.42188 1.25,1.42187 1.1875,4.375 h -6.40625 q 0.0312,1.14062 0.60937,1.78125 0.59375,0.625 1.48438,0.625 0.59375,0 1,-0.32813 0.42187,-0.32812 0.625,-1.0625 z m 0.15625,-2.59375 q -0.0312,-1.10937 -0.57813,-1.6875 -0.54687,-0.57812 -1.32812,-0.57812 -0.84375,0 -1.39063,0.60937 -0.54687,0.60938 -0.53125,1.65625 z m 13.0632,-1.14062 -2.53125,0.45312 q -0.125,-0.75 -0.57812,-1.125 -0.45313,-0.39062 -1.17188,-0.39062 -0.95312,0 -1.53125,0.65625 -0.5625,0.65625 -0.5625,2.20312 0,1.73438 0.57813,2.4375 0.57812,0.70313 1.54687,0.70313 0.73438,0 1.20313,-0.40625 0.46875,-0.42188 0.65625,-1.42188 l 2.51562,0.42188 q -0.39062,1.73437 -1.51562,2.625 -1.10938,0.875 -2.96875,0.875 -2.125,0 -3.39063,-1.32813 -1.25,-1.34375 -1.25,-3.71875 0,-2.39062 1.26563,-3.71875 1.26562,-1.34375 3.42187,-1.34375 1.76563,0 2.79688,0.76563 1.04687,0.75 1.51562,2.3125 z m 6.37573,-2.85938 v 2.03125 h -1.75 v 3.90625 q 0,1.1875 0.0469,1.39063 0.0469,0.1875 0.21875,0.3125 0.1875,0.125 0.4375,0.125 0.35937,0 1.03125,-0.25 l 0.21875,2 q -0.89063,0.375 -2.01563,0.375 -0.70312,0 -1.26562,-0.23438 -0.54688,-0.23437 -0.8125,-0.59375 -0.25,-0.375 -0.34375,-1 -0.0937,-0.45312 -0.0937,-1.8125 v -4.21875 h -1.17188 v -2.03125 h 1.17188 v -1.92187 l 2.57812,-1.5 v 3.42187 z m 1.79081,9.67188 V 501.5974 h 5.6875 q 2.14062,0 3.10937,0.35938 0.96875,0.35937 1.54688,1.28125 0.57812,0.92187 0.57812,2.10937 0,1.5 -0.89062,2.48438 -0.875,0.96875 -2.625,1.23437 0.875,0.5 1.4375,1.125 0.57812,0.60938 1.53125,2.15625 l 1.64062,2.60938 h -3.23437 l -1.9375,-2.90625 q -1.04688,-1.5625 -1.4375,-1.96875 -0.375,-0.40625 -0.8125,-0.54688 -0.42188,-0.15625 -1.34375,-0.15625 h -0.54688 v 5.57813 z m 2.70312,-7.70313 h 2 q 1.9375,0 2.42188,-0.15625 0.48437,-0.17187 0.75,-0.57812 0.28125,-0.40625 0.28125,-1 0,-0.67188 -0.35938,-1.07813 -0.35937,-0.42187 -1.01562,-0.53125 -0.32813,-0.0469 -1.96875,-0.0469 h -2.10938 z m 16.34793,4.625 2.54688,0.42188 q -0.48438,1.40625 -1.54688,2.14062 -1.0625,0.73438 -2.65625,0.73438 -2.51562,0 -3.73437,-1.65625 -0.95313,-1.3125 -0.95313,-3.32813 0,-2.40625 1.25,-3.76562 1.26563,-1.35938 3.1875,-1.35938 2.15625,0 3.40625,1.42188 1.25,1.42187 1.1875,4.375 h -6.40625 q 0.0312,1.14062 0.60938,1.78125 0.59375,0.625 1.48437,0.625 0.59375,0 1,-0.32813 0.42188,-0.32812 0.625,-1.0625 z m 0.15625,-2.59375 q -0.0312,-1.10937 -0.57812,-1.6875 -0.54688,-0.57812 -1.32813,-0.57812 -0.84375,0 -1.39062,0.60937 -0.54688,0.60938 -0.53125,1.65625 z m 3.50073,-4 h 1.42188 v -0.73437 q 0,-1.21875 0.25,-1.8125 0.26562,-0.60938 0.95312,-0.98438 0.70313,-0.375 1.78125,-0.375 1.09375,0 2.14063,0.32813 l -0.35938,1.78125 q -0.60937,-0.14063 -1.17187,-0.14063 -0.54688,0 -0.79688,0.26563 -0.23437,0.25 -0.23437,0.98437 v 0.6875 h 1.90625 v 2.01563 h -1.90625 v 7.65625 h -2.5625 v -7.65625 h -1.42188 z"
       fill="#000000" />
    <path
       id="path1114"
       fill-rule="evenodd"
       d="m 799.5995,486.66162 v 0 c 0,-5.90274 4.78516,-10.68787 10.68787,-10.68787 h 130.93921 c 2.83459,0 5.5531,1.12604 7.55749,3.13041 2.00433,2.00436 3.13043,4.72287 3.13043,7.55746 v 42.75024 c 0,5.90278 -4.78515,10.68787 -10.68792,10.68787 H 810.28737 c -5.90271,0 -10.68787,-4.78509 -10.68787,-10.68787 z"
       fill="#ffffff" />
    <path
       id="path1116"
       fill-rule="evenodd"
       d="m 799.5995,486.66162 v 0 c 0,-5.90274 4.78516,-10.68787 10.68787,-10.68787 h 130.93921 c 2.83459,0 5.5531,1.12604 7.55749,3.13041 2.00433,2.00436 3.13043,4.72287 3.13043,7.55746 v 42.75024 c 0,5.90278 -4.78515,10.68787 -10.68792,10.68787 H 810.28737 c -5.90271,0 -10.68787,-4.78509 -10.68787,-10.68787 z"
       stroke-linecap="butt"
       stroke-linejoin="round"
       stroke-width="2"
       stroke="#3d85c6" />
    <path
       id="path1118"
       fill-rule="nonzero"
       d="m 832.5114,508.36298 q 0,-2.04688 0.60937,-3.42188 0.45313,-1.03125 1.23438,-1.82812 0.79687,-0.8125 1.73437,-1.20313 1.25,-0.53125 2.875,-0.53125 2.95313,0 4.71875,1.82813 1.78125,1.82812 1.78125,5.09375 0,3.23437 -1.76562,5.0625 -1.75,1.82812 -4.6875,1.82812 -2.98438,0 -4.75,-1.8125 -1.75,-1.82812 -1.75,-5.01562 z m 2.78125,-0.0937 q 0,2.26562 1.04687,3.4375 1.04688,1.17187 2.65625,1.17187 1.60938,0 2.64063,-1.15625 1.04687,-1.17187 1.04687,-3.48437 0,-2.29688 -1.01562,-3.42188 -1,-1.14062 -2.67188,-1.14062 -1.67187,0 -2.6875,1.15625 -1.01562,1.14062 -1.01562,3.4375 z m 12.15204,6.6875 V 501.5974 h 2.5625 v 4.8125 q 1.17187,-1.34375 2.79687,-1.34375 1.76563,0 2.92188,1.28125 1.15625,1.28125 1.15625,3.67188 0,2.48437 -1.1875,3.82812 -1.17188,1.32813 -2.85938,1.32813 -0.82812,0 -1.64062,-0.40625 -0.79688,-0.42188 -1.375,-1.23438 v 1.42188 z m 2.53125,-5.04688 q 0,1.5 0.48437,2.21875 0.65625,1.03125 1.76563,1.03125 0.84375,0 1.4375,-0.71875 0.59375,-0.73437 0.59375,-2.29687 0,-1.65625 -0.60938,-2.39063 -0.59375,-0.73437 -1.53125,-0.73437 -0.92187,0 -1.53125,0.71875 -0.60937,0.71875 -0.60937,2.17187 z m 8.91162,-5.9375 v -2.375 h 2.5625 v 2.375 z m 2.5625,1.3125 v 9.375 q 0,1.84375 -0.25,2.59375 -0.23438,0.76563 -0.92188,1.1875 -0.6875,0.4375 -1.75,0.4375 -0.39062,0 -0.82812,-0.0625 -0.4375,-0.0625 -0.95313,-0.20312 l 0.45313,-2.1875 q 0.17187,0.0312 0.34375,0.0469 0.15625,0.0312 0.29687,0.0312 0.39063,0 0.64063,-0.17187 0.25,-0.15625 0.32812,-0.40625 0.0781,-0.23438 0.0781,-1.42188 v -9.21875 z m 8.27704,6.59375 2.54687,0.42188 q -0.48437,1.40625 -1.54687,2.14062 -1.0625,0.73438 -2.65625,0.73438 -2.51563,0 -3.73438,-1.65625 -0.95312,-1.3125 -0.95312,-3.32813 0,-2.40625 1.25,-3.76562 1.26562,-1.35938 3.1875,-1.35938 2.15625,0 3.40625,1.42188 1.25,1.42187 1.1875,4.375 h -6.40625 q 0.0312,1.14062 0.60937,1.78125 0.59375,0.625 1.48438,0.625 0.59375,0 1,-0.32813 0.42187,-0.32812 0.625,-1.0625 z m 0.15625,-2.59375 q -0.0312,-1.10937 -0.57813,-1.6875 -0.54687,-0.57812 -1.32812,-0.57812 -0.84375,0 -1.39063,0.60937 -0.54687,0.60938 -0.53125,1.65625 z m 13.06323,-1.14062 -2.53125,0.45312 q -0.125,-0.75 -0.57812,-1.125 -0.45313,-0.39062 -1.17188,-0.39062 -0.95312,0 -1.53125,0.65625 -0.5625,0.65625 -0.5625,2.20312 0,1.73438 0.57813,2.4375 0.57812,0.70313 1.54687,0.70313 0.73438,0 1.20313,-0.40625 0.46875,-0.42188 0.65625,-1.42188 l 2.51562,0.42188 q -0.39062,1.73437 -1.51562,2.625 -1.10938,0.875 -2.96875,0.875 -2.125,0 -3.39063,-1.32813 -1.25,-1.34375 -1.25,-3.71875 0,-2.39062 1.26563,-3.71875 1.26562,-1.34375 3.42187,-1.34375 1.76563,0 2.79688,0.76563 1.04687,0.75 1.51562,2.3125 z m 6.37567,-2.85938 v 2.03125 h -1.75 v 3.90625 q 0,1.1875 0.0469,1.39063 0.0469,0.1875 0.21875,0.3125 0.1875,0.125 0.4375,0.125 0.35937,0 1.03125,-0.25 l 0.21875,2 q -0.89063,0.375 -2.01563,0.375 -0.70312,0 -1.26562,-0.23438 -0.54688,-0.23437 -0.8125,-0.59375 -0.25,-0.375 -0.34375,-1 -0.0937,-0.45312 -0.0937,-1.8125 v -4.21875 h -1.17188 v -2.03125 h 1.17188 v -1.92187 l 2.57812,-1.5 v 3.42187 z m 1.79083,9.67188 V 501.5974 h 5.6875 q 2.14063,0 3.10938,0.35938 0.96875,0.35937 1.54687,1.28125 0.57813,0.92187 0.57813,2.10937 0,1.5 -0.89063,2.48438 -0.875,0.96875 -2.625,1.23437 0.875,0.5 1.4375,1.125 0.57813,0.60938 1.53125,2.15625 l 1.64063,2.60938 h -3.23438 l -1.9375,-2.90625 q -1.04687,-1.5625 -1.4375,-1.96875 -0.375,-0.40625 -0.8125,-0.54688 -0.42187,-0.15625 -1.34375,-0.15625 h -0.54687 v 5.57813 z m 2.70313,-7.70313 h 2 q 1.9375,0 2.42187,-0.15625 0.48438,-0.17187 0.75,-0.57812 0.28125,-0.40625 0.28125,-1 0,-0.67188 -0.35937,-1.07813 -0.35938,-0.42187 -1.01563,-0.53125 -0.32812,-0.0469 -1.96875,-0.0469 h -2.10937 z m 16.34796,4.625 2.54688,0.42188 q -0.48438,1.40625 -1.54688,2.14062 -1.0625,0.73438 -2.65625,0.73438 -2.51562,0 -3.73437,-1.65625 -0.95313,-1.3125 -0.95313,-3.32813 0,-2.40625 1.25,-3.76562 1.26563,-1.35938 3.1875,-1.35938 2.15625,0 3.40625,1.42188 1.25,1.42187 1.1875,4.375 h -6.40625 q 0.0312,1.14062 0.60938,1.78125 0.59375,0.625 1.48437,0.625 0.59375,0 1,-0.32813 0.42188,-0.32812 0.625,-1.0625 z m 0.15625,-2.59375 q -0.0312,-1.10937 -0.57812,-1.6875 -0.54688,-0.57812 -1.32813,-0.57812 -0.84375,0 -1.39062,0.60937 -0.54688,0.60938 -0.53125,1.65625 z m 3.50067,-4 h 1.42188 v -0.73437 q 0,-1.21875 0.25,-1.8125 0.26562,-0.60938 0.95312,-0.98438 0.70313,-0.375 1.78125,-0.375 1.09375,0 2.14063,0.32813 l -0.35938,1.78125 q -0.60937,-0.14063 -1.17187,-0.14063 -0.54688,0 -0.79688,0.26563 -0.23437,0.25 -0.23437,0.98437 v 0.6875 h 1.90625 v 2.01563 h -1.90625 v 7.65625 h -2.5625 v -7.65625 h -1.42188 z"
       fill="#000000" />
    <path
       id="path1120"
       fill-rule="evenodd"
       d="m 304.2546,247.79527 c -12.50003,0 -23.90869,41.55794 -25.00003,72.75349 -1.09134,31.19556 8.13464,52.02875 16.81497,72.75348 8.68033,20.72473 16.81497,41.34101 16.81497,82.68201"
       fill-opacity="0"
       fill="#000000" />
    <path
       id="path1122"
       fill-rule="evenodd"
       d="m 304.2546,247.79527 c -12.50003,0 -23.90869,41.55794 -25.00003,72.75349 -1.09134,31.19556 8.13464,52.02875 16.81497,72.75348 8.68033,20.72473 16.81497,41.34101 16.81497,82.68201"
       stroke-linecap="butt"
       stroke-linejoin="round"
       stroke-width="1"
       stroke="#000000" />
    <path
       id="path1124"
       fill-rule="evenodd"
       d="m 312.87402,540.09973 c 0,29.51184 73.71652,59.02362 147.43307,59.02362"
       fill-opacity="0"
       fill="#000000" />
    <path
       id="path1126"
       fill-rule="evenodd"
       d="m 312.87402,540.09973 c 0,29.51184 73.71652,59.02362 147.43307,59.02362"
       stroke-linecap="butt"
       stroke-linejoin="round"
       stroke-width="1"
       stroke="#000000" />
    <path
       id="path1128"
       fill-rule="evenodd"
       d="m 713.29065,599.13324 c 81.22833,0 162.45667,-29.51178 162.45667,-59.02362"
       fill-opacity="0"
       fill="#000000" />
    <path
       id="path1130"
       fill-rule="evenodd"
       d="m 713.29065,599.13324 c 81.22833,0 162.45667,-29.51178 162.45667,-59.02362"
       stroke-linecap="butt"
       stroke-linejoin="round"
       stroke-width="1"
       stroke="#000000" />
    <path
       id="path1132"
       fill-rule="evenodd"
       d="m 875.75696,475.97375 c 0,-41.33643 6.5249,-61.94873 13.79742,-82.67288 7.27253,-20.72412 15.29273,-41.56006 13.79743,-72.75803 -1.4953,-31.19799 -12.50611,-72.75807 -25.01215,-72.75807"
       fill-opacity="0"
       fill="#000000" />
    <path
       id="path1134"
       fill-rule="evenodd"
       d="m 875.75696,475.97375 c 0,-41.33643 6.5249,-61.94873 13.79742,-82.67288 7.27253,-20.72412 15.29273,-41.56006 13.79743,-72.75803 -1.4953,-31.19799 -12.50611,-72.75807 -25.01215,-72.75807"
       stroke-linecap="butt"
       stroke-linejoin="round"
       stroke-width="1"
       stroke="#000000" />
  </g>
</svg>
