<svg width="188" height="55" viewBox="0 0 188 55" fill="none" xmlns="http://www.w3.org/2000/svg">
<path d="M79.6929 42.8711V17.3504H70.5784V13.1959H93.3859V17.3504H84.2714V42.8711H79.6929ZM97.5358 42.8711V13.1959H109.999C111.836 13.1959 113.447 13.5209 114.832 14.1709C116.245 14.7927 117.333 15.6971 118.096 16.8841C118.888 18.0711 119.283 19.4842 119.283 21.1234V21.5897C119.283 23.455 118.831 24.9529 117.927 26.0834C117.051 27.1856 115.977 27.9628 114.705 28.415V29.0933C115.779 29.1498 116.641 29.5172 117.291 30.1955C117.941 30.8456 118.266 31.7923 118.266 33.0359V42.8711H113.645V33.6718C113.645 32.9087 113.447 32.3011 113.052 31.8489C112.656 31.3967 112.02 31.1706 111.144 31.1706H102.114V42.8711H97.5358ZM102.114 27.016H109.491C111.13 27.016 112.402 26.6062 113.306 25.7866C114.21 24.9388 114.663 23.7942 114.663 22.3528V22.0137C114.663 20.5723 114.21 19.4418 113.306 18.6222C112.43 17.7743 111.158 17.3504 109.491 17.3504H102.114V27.016ZM122.117 42.8711L130.596 13.1959H138.65L147.086 42.8711H142.381L140.431 35.8762H128.815L126.865 42.8711H122.117ZM129.96 31.6369H139.286L134.962 16.0362H134.284L129.96 31.6369ZM151.107 42.8711V13.1959H155.685V42.8711H151.107ZM161.871 42.8711V13.1959H170.689L178.743 39.8188H179.422V13.1959H183.958V42.8711H175.14L167.085 16.2058H166.407V42.8711H161.871Z" fill="black"/>
<path fill-rule="evenodd" clip-rule="evenodd" d="M45.6266 28.6016L25.7266 48.5016L24.2695 47.0445L44.1695 27.1445L45.6266 28.6016Z" fill="#E324CA"/>
<path fill-rule="evenodd" clip-rule="evenodd" d="M44.8905 29.0528L5.14941 29.0528L5.14941 26.9922L44.8905 26.9922L44.8905 29.0528Z" fill="#E324CA"/>
<path fill-rule="evenodd" clip-rule="evenodd" d="M24.2699 8.70319L44.1699 28.6032L45.627 27.1461L25.727 7.24609L24.2699 8.70319Z" fill="#E324CA"/>
<rect x="0.123047" y="22.8984" width="9.95" height="9.95" fill="#E324CA"/>
<rect x="20.0234" y="22.8984" width="9.95" height="9.95" fill="#E324CA"/>
<rect x="20.0234" y="3" width="9.95" height="9.95" fill="#E324CA"/>
<rect x="20.0234" y="42.8008" width="9.95" height="9.95" fill="#E324CA"/>
<rect x="39.9229" y="22.8984" width="9.95" height="9.95" fill="#E324CA"/>
</svg>
