<svg id="train-logo" viewBox="0 0 1060 297" xmlns="http://www.w3.org/2000/svg">
    <g id="train-logo-icon">
        <path d="M183 149H245" />
        <path d="M172.771 58.5L247.5 129.712" />
        <path d="M177 241.279L250.708 171" />
        <path d="M130.5 136.619L62.8247 105" />
        <path d="M130.5 161.598L61.5 194.402" />
        <path d="M61.5 218.381L130.5 250.619" />
        <path d="M62 80.9426L129.5 48.2992" />
        <path d="M139.877 59L52.4795 181.5" />
        <path d="M52.8362 117L140.947 240.5" />
        <circle cx="156.5" cy="34.5" r="29.5" />
        <circle cx="156.5" cy="262.5" r="29.5" />
        <circle cx="34.5" cy="205.5" r="29.5" />
        <circle cx="34.5" cy="91.5" r="29.5" />
        <circle cx="156.5" cy="148.5" r="29.5" />
        <circle cx="270.5" cy="148.5" r="29.5" />
    </g>
    <path id="train-logo-text" d="M370.773 74.8125H416.965C426.796 74.8125 435.324 76.4076 442.551 79.5977C449.777 82.7878 455.344 87.5078 459.25 93.7578C463.221 99.9427 465.207 107.56 465.207 116.609C465.207 123.315 463.775 129.402 460.91 134.871C458.111 140.34 454.237 144.93 449.289 148.641C444.341 152.286 438.612 154.793 432.102 156.16L427.902 157.723H378.586L378.391 147.469H419.699C427.121 147.469 433.306 146.036 438.254 143.172C443.202 140.307 446.913 136.531 449.387 131.844C451.926 127.091 453.195 122.013 453.195 116.609C453.195 110.164 451.796 104.598 448.996 99.9102C446.262 95.1576 442.193 91.5117 436.789 88.9727C431.385 86.4336 424.777 85.1641 416.965 85.1641H382.785V217H370.773V74.8125ZM458.566 217L421.75 153.426L434.641 153.328L471.359 215.73V217H458.566ZM546.738 198.055V143.562C546.738 138.549 545.697 134.22 543.613 130.574C541.53 126.928 538.47 124.129 534.434 122.176C530.397 120.223 525.417 119.246 519.492 119.246C514.023 119.246 509.141 120.223 504.844 122.176C500.612 124.064 497.259 126.635 494.785 129.891C492.376 133.081 491.172 136.629 491.172 140.535L479.453 140.438C479.453 136.466 480.43 132.625 482.383 128.914C484.336 125.203 487.103 121.883 490.684 118.953C494.264 116.023 498.529 113.712 503.477 112.02C508.49 110.262 513.991 109.383 519.98 109.383C527.533 109.383 534.173 110.652 539.902 113.191C545.697 115.73 550.221 119.539 553.477 124.617C556.732 129.695 558.359 136.076 558.359 143.758V194.832C558.359 198.478 558.62 202.254 559.141 206.16C559.727 210.066 560.54 213.289 561.582 215.828V217H549.18C548.398 214.656 547.78 211.727 547.324 208.211C546.934 204.63 546.738 201.245 546.738 198.055ZM549.473 155.477L549.668 164.461H526.719C520.729 164.461 515.358 165.014 510.605 166.121C505.918 167.163 501.947 168.725 498.691 170.809C495.436 172.827 492.93 175.268 491.172 178.133C489.479 180.997 488.633 184.253 488.633 187.898C488.633 191.674 489.577 195.125 491.465 198.25C493.418 201.375 496.152 203.882 499.668 205.77C503.249 207.592 507.48 208.504 512.363 208.504C518.874 208.504 524.603 207.299 529.551 204.891C534.564 202.482 538.698 199.324 541.953 195.418C545.208 191.512 547.389 187.247 548.496 182.625L553.574 189.363C552.728 192.618 551.165 195.971 548.887 199.422C546.673 202.807 543.776 205.997 540.195 208.992C536.615 211.922 532.383 214.331 527.5 216.219C522.682 218.042 517.214 218.953 511.094 218.953C504.193 218.953 498.171 217.651 493.027 215.047C487.949 212.443 483.978 208.895 481.113 204.402C478.314 199.845 476.914 194.702 476.914 188.973C476.914 183.764 478.021 179.109 480.234 175.008C482.448 170.841 485.638 167.326 489.805 164.461C494.036 161.531 499.115 159.318 505.039 157.82C511.029 156.258 517.734 155.477 525.156 155.477H549.473ZM606.492 206.453L639.402 111.336H652L607.273 233.992C606.362 236.401 605.19 239.07 603.758 242C602.391 244.93 600.568 247.729 598.289 250.398C596.076 253.133 593.276 255.346 589.891 257.039C586.57 258.797 582.501 259.676 577.684 259.676C576.447 259.676 574.852 259.513 572.898 259.188C571.01 258.927 569.643 258.667 568.797 258.406L568.699 248.543C569.415 248.738 570.457 248.901 571.824 249.031C573.191 249.161 574.135 249.227 574.656 249.227C578.888 249.227 582.436 248.51 585.301 247.078C588.23 245.646 590.672 243.497 592.625 240.633C594.578 237.833 596.303 234.318 597.801 230.086L606.492 206.453ZM575.73 111.336L609.422 202.059L612.547 214.266L604.051 219.051L563.035 111.336H575.73ZM739.574 74.8125V217H727.66V74.8125H739.574ZM788.305 74.8125V85.1641H679.027V74.8125H788.305ZM799.914 128.816V217H788.293V111.336H799.621L799.914 128.816ZM837.316 110.555L837.023 121.297C835.721 121.102 834.452 120.939 833.215 120.809C831.978 120.678 830.643 120.613 829.211 120.613C824.133 120.613 819.673 121.557 815.832 123.445C812.056 125.268 808.866 127.84 806.262 131.16C803.658 134.415 801.672 138.257 800.305 142.684C798.938 147.046 798.156 151.733 797.961 156.746L793.664 158.406C793.664 151.505 794.38 145.092 795.812 139.168C797.245 133.243 799.426 128.068 802.355 123.641C805.35 119.148 809.094 115.665 813.586 113.191C818.143 110.652 823.482 109.383 829.602 109.383C831.099 109.383 832.564 109.513 833.996 109.773C835.493 109.969 836.6 110.229 837.316 110.555ZM903.027 198.055V143.562C903.027 138.549 901.986 134.22 899.902 130.574C897.819 126.928 894.759 124.129 890.723 122.176C886.686 120.223 881.706 119.246 875.781 119.246C870.312 119.246 865.43 120.223 861.133 122.176C856.901 124.064 853.548 126.635 851.074 129.891C848.665 133.081 847.461 136.629 847.461 140.535L835.742 140.438C835.742 136.466 836.719 132.625 838.672 128.914C840.625 125.203 843.392 121.883 846.973 118.953C850.553 116.023 854.818 113.712 859.766 112.02C864.779 110.262 870.28 109.383 876.27 109.383C883.822 109.383 890.462 110.652 896.191 113.191C901.986 115.73 906.51 119.539 909.766 124.617C913.021 129.695 914.648 136.076 914.648 143.758V194.832C914.648 198.478 914.909 202.254 915.43 206.16C916.016 210.066 916.829 213.289 917.871 215.828V217H905.469C904.688 214.656 904.069 211.727 903.613 208.211C903.223 204.63 903.027 201.245 903.027 198.055ZM905.762 155.477L905.957 164.461H883.008C877.018 164.461 871.647 165.014 866.895 166.121C862.207 167.163 858.236 168.725 854.98 170.809C851.725 172.827 849.219 175.268 847.461 178.133C845.768 180.997 844.922 184.253 844.922 187.898C844.922 191.674 845.866 195.125 847.754 198.25C849.707 201.375 852.441 203.882 855.957 205.77C859.538 207.592 863.77 208.504 868.652 208.504C875.163 208.504 880.892 207.299 885.84 204.891C890.853 202.482 894.987 199.324 898.242 195.418C901.497 191.512 903.678 187.247 904.785 182.625L909.863 189.363C909.017 192.618 907.454 195.971 905.176 199.422C902.962 202.807 900.065 205.997 896.484 208.992C892.904 211.922 888.672 214.331 883.789 216.219C878.971 218.042 873.503 218.953 867.383 218.953C860.482 218.953 854.46 217.651 849.316 215.047C844.238 212.443 840.267 208.895 837.402 204.402C834.603 199.845 833.203 194.702 833.203 188.973C833.203 183.764 834.31 179.109 836.523 175.008C838.737 170.841 841.927 167.326 846.094 164.461C850.326 161.531 855.404 159.318 861.328 157.82C867.318 156.258 874.023 155.477 881.445 155.477H905.762ZM945.984 111.336V217H934.363V111.336H945.984ZM932.312 80.7695C932.312 78.556 932.996 76.7005 934.363 75.2031C935.796 73.6406 937.749 72.8594 940.223 72.8594C942.697 72.8594 944.65 73.6406 946.082 75.2031C947.579 76.7005 948.328 78.556 948.328 80.7695C948.328 82.918 947.579 84.7734 946.082 86.3359C944.65 87.8333 942.697 88.582 940.223 88.582C937.749 88.582 935.796 87.8333 934.363 86.3359C932.996 84.7734 932.312 82.918 932.312 80.7695ZM976.539 133.895V217H964.918V111.336H976.051L976.539 133.895ZM973.902 157.625L968.727 154.695C969.117 148.445 970.387 142.586 972.535 137.117C974.684 131.648 977.581 126.831 981.227 122.664C984.938 118.497 989.267 115.242 994.215 112.898C999.228 110.555 1004.76 109.383 1010.82 109.383C1016.09 109.383 1020.81 110.099 1024.98 111.531C1029.14 112.964 1032.69 115.242 1035.62 118.367C1038.55 121.492 1040.76 125.496 1042.26 130.379C1043.82 135.262 1044.61 141.219 1044.61 148.25V217H1032.89V148.152C1032.89 140.861 1031.88 135.164 1029.86 131.062C1027.84 126.896 1024.98 123.934 1021.27 122.176C1017.55 120.418 1013.16 119.539 1008.08 119.539C1002.48 119.539 997.568 120.776 993.336 123.25C989.169 125.659 985.654 128.816 982.789 132.723C979.99 136.564 977.841 140.698 976.344 145.125C974.846 149.487 974.033 153.654 973.902 157.625Z" />
</svg>
