<svg version="1.1" viewBox="0.0 0.0 488.1364829396326 180.83202099737534" fill="none" stroke="none" stroke-linecap="square" stroke-miterlimit="10" xmlns:xlink="http://www.w3.org/1999/xlink" xmlns="http://www.w3.org/2000/svg"><clipPath id="p.0"><path d="m0 0l488.13647 0l0 180.83202l-488.13647 0l0 -180.83202z" clip-rule="nonzero"/></clipPath><g clip-path="url(#p.0)"><path fill="#000000" fill-opacity="0.0" d="m0 0l488.13647 0l0 180.83202l-488.13647 0z" fill-rule="evenodd"/><g filter="url(#shadowFilter-p.1)"><use xlink:href="#p.1" transform="matrix(1.0 0.0 0.0 1.0 0.0 2.0)"/></g><defs><filter id="shadowFilter-p.1" filterUnits="userSpaceOnUse"><feGaussianBlur in="SourceAlpha" stdDeviation="20.0" result="blur"/><feComponentTransfer in="blur" color-interpolation-filters="sRGB"><feFuncR type="linear" slope="0" intercept="0.0"/><feFuncG type="linear" slope="0" intercept="0.0"/><feFuncB type="linear" slope="0" intercept="0.0"/><feFuncA type="linear" slope="0.15" intercept="0"/></feComponentTransfer></filter></defs><g id="p.1"><path fill="#ffffff" d="m9.259868 21.04606l0 0c0 -6.7354813 5.460185 -12.195667 12.195666 -12.195667l446.34882 0c3.234497 0 6.3365173 1.2848969 8.623657 3.5720282c2.2871094 2.2871313 3.5720215 5.389146 3.5720215 8.623639l0 137.18347c0 6.7354736 -5.460205 12.195663 -12.195679 12.195663l-446.34882 0c-6.7354813 0 -12.195666 -5.46019 -12.195666 -12.195663z" fill-rule="evenodd"/><path stroke="#028cf0" stroke-width="1.0" stroke-linejoin="round" stroke-linecap="butt" d="m9.259868 21.04606l0 0c0 -6.7354813 5.460185 -12.195667 12.195666 -12.195667l446.34882 0c3.234497 0 6.3365173 1.2848969 8.623657 3.5720282c2.2871094 2.2871313 3.5720215 5.389146 3.5720215 8.623639l0 137.18347c0 6.7354736 -5.460205 12.195663 -12.195679 12.195663l-446.34882 0c-6.7354813 0 -12.195666 -5.46019 -12.195666 -12.195663z" fill-rule="evenodd"/></g><g filter="url(#shadowFilter-p.2)"><use xlink:href="#p.2" transform="matrix(1.0 0.0 0.0 1.0 0.0 2.0)"/></g><defs><filter id="shadowFilter-p.2" filterUnits="userSpaceOnUse"><feGaussianBlur in="SourceAlpha" stdDeviation="20.0" result="blur"/><feComponentTransfer in="blur" color-interpolation-filters="sRGB"><feFuncR type="linear" slope="0" intercept="0.0"/><feFuncG type="linear" slope="0" intercept="0.0"/><feFuncB type="linear" slope="0" intercept="0.0"/><feFuncA type="linear" slope="0.15" intercept="0"/></feComponentTransfer></filter></defs><g id="p.2"><path fill="#ecf8fd" d="m22.190508 70.40568l0 0c0 -1.7488556 1.4177322 -3.1665878 3.1665936 -3.1665878l54.820076 0c0.8398361 0 1.6452713 0.33361816 2.2391205 0.927475c0.5938568 0.5938492 0.927475 1.3992844 0.927475 2.2391129l0 35.619568c0 1.7488632 -1.4177322 3.1665955 -3.1665955 3.1665955l-54.820076 0c-1.7488613 0 -3.1665936 -1.4177322 -3.1665936 -3.1665955z" fill-rule="evenodd"/><path stroke="#028cf0" stroke-width="1.0" stroke-linejoin="round" stroke-linecap="butt" d="m22.190508 70.40568l0 0c0 -1.7488556 1.4177322 -3.1665878 3.1665936 -3.1665878l54.820076 0c0.8398361 0 1.6452713 0.33361816 2.2391205 0.927475c0.5938568 0.5938492 0.927475 1.3992844 0.927475 2.2391129l0 35.619568c0 1.7488632 -1.4177322 3.1665955 -3.1665955 3.1665955l-54.820076 0c-1.7488613 0 -3.1665936 -1.4177322 -3.1665936 -3.1665955z" fill-rule="evenodd"/><path fill="#000000" d="m36.72638 92.735466l0 -7.578125l-2.515625 0l0 -0.828125l6.03125 0l0 0.828125l-2.515625 0l0 7.578125l-1.0 0zm4.0047913 0l0 -5.953125l0.90625 0l0.09375 1.140625q0.265625 -0.59375 0.828125 -0.9375q0.578125 -0.34375 1.40625 -0.34375l0 1.046875l-0.28125 0q-0.53125 0 -0.984375 0.1875q-0.4375 0.1875 -0.703125 0.640625q-0.25 0.4375 -0.25 1.21875l0 3.0l-1.015625 0zm6.3404083 0.140625q-0.75 0 -1.25 -0.25q-0.484375 -0.25 -0.734375 -0.671875q-0.234375 -0.421875 -0.234375 -0.90625q0 -0.921875 0.6875 -1.40625q0.703125 -0.5 1.90625 -0.5l1.609375 0l0 -0.0625q0 -0.78125 -0.40625 -1.1875q-0.40625 -0.40625 -1.09375 -0.40625q-0.578125 0 -1.015625 0.296875q-0.421875 0.296875 -0.53125 0.859375l-1.03125 0q0.0625 -0.640625 0.4375 -1.078125q0.375 -0.453125 0.9375 -0.6875q0.5625 -0.234375 1.203125 -0.234375q1.25 0 1.875 0.671875q0.640625 0.65625 0.640625 1.765625l0 3.65625l-0.90625 0l-0.0625 -1.0625q-0.25 0.5 -0.734375 0.859375q-0.484375 0.34375 -1.296875 0.34375zm0.15625 -0.84375q0.578125 0 0.984375 -0.296875q0.421875 -0.3125 0.625 -0.78125q0.21875 -0.484375 0.21875 -1.015625l0 -0.015625l-1.515625 0q-0.890625 0 -1.265625 0.3125q-0.359375 0.296875 -0.359375 0.765625q0 0.46875 0.34375 0.75q0.34375 0.28125 0.96875 0.28125zm4.9608 -6.5625q-0.296875 0 -0.5 -0.203125q-0.1875 -0.203125 -0.1875 -0.5q0 -0.28125 0.1875 -0.46875q0.203125 -0.203125 0.5 -0.203125q0.296875 0 0.5 0.203125q0.203125 0.1875 0.203125 0.46875q0 0.296875 -0.203125 0.5q-0.203125 0.203125 -0.5 0.203125zm-0.5 7.265625l0 -5.953125l1.0 0l0 5.953125l-1.0 0zm2.7586517 0l0 -5.953125l0.90625 0l0.0625 1.0625q0.296875 -0.5625 0.828125 -0.875q0.546875 -0.328125 1.234375 -0.328125q1.046875 0 1.671875 0.640625q0.640625 0.640625 0.640625 1.96875l0 3.484375l-1.015625 0l0 -3.375q0 -1.859375 -1.53125 -1.859375q-0.765625 0 -1.28125 0.5625q-0.5 0.5625 -0.5 1.59375l0 3.078125l-1.015625 0zm9.535919 0.140625q-0.84375 0 -1.515625 -0.390625q-0.65625 -0.390625 -1.03125 -1.078125q-0.375 -0.703125 -0.375 -1.640625q0 -0.9375 0.359375 -1.640625q0.375 -0.703125 1.046875 -1.09375q0.671875 -0.390625 1.546875 -0.390625q0.859375 0 1.484375 0.390625q0.640625 0.390625 0.96875 1.03125q0.34375 0.625 0.34375 1.359375q0 0.125 -0.015625 0.265625q0 0.125 0 0.296875l-4.734375 0q0.03125 0.6875 0.3125 1.140625q0.28125 0.453125 0.703125 0.6875q0.4375 0.21875 0.90625 0.21875q0.625 0 1.046875 -0.28125q0.421875 -0.296875 0.609375 -0.796875l1.0 0q-0.234375 0.828125 -0.921875 1.375q-0.671875 0.546875 -1.734375 0.546875zm0 -5.390625q-0.71875 0 -1.28125 0.4375q-0.546875 0.4375 -0.640625 1.28125l3.75 0q-0.03125 -0.796875 -0.546875 -1.25q-0.515625 -0.46875 -1.28125 -0.46875zm4.1561737 5.25l0 -5.953125l0.90625 0l0.09375 1.140625q0.265625 -0.59375 0.828125 -0.9375q0.578125 -0.34375 1.40625 -0.34375l0 1.046875l-0.28125 0q-0.53125 0 -0.984375 0.1875q-0.4375 0.1875 -0.703125 0.640625q-0.25 0.4375 -0.25 1.21875l0 3.0l-1.015625 0z" fill-rule="nonzero"/></g><g filter="url(#shadowFilter-p.3)"><use xlink:href="#p.3" transform="matrix(1.0 0.0 0.0 1.0 0.0 2.0)"/></g><defs><filter id="shadowFilter-p.3" filterUnits="userSpaceOnUse"><feGaussianBlur in="SourceAlpha" stdDeviation="20.0" result="blur"/><feComponentTransfer in="blur" color-interpolation-filters="sRGB"><feFuncR type="linear" slope="0" intercept="0.0"/><feFuncG type="linear" slope="0" intercept="0.0"/><feFuncB type="linear" slope="0" intercept="0.0"/><feFuncA type="linear" slope="0.15" intercept="0"/></feComponentTransfer></filter></defs><g id="p.3"><path fill="#ffffff" d="m142.03073 70.40568l0 0c0 -1.7488556 1.4177399 -3.1665878 3.1665955 -3.1665878l54.820084 0c0.8398285 0 1.6452637 0.33361816 2.2391205 0.927475c0.59384155 0.5938492 0.927475 1.3992844 0.927475 2.2391129l0 35.619568c0 1.7488632 -1.4177399 3.1665955 -3.1665955 3.1665955l-54.820084 0c-1.7488556 0 -3.1665955 -1.4177322 -3.1665955 -3.1665955z" fill-rule="evenodd"/><path stroke="#028cf0" stroke-width="1.0" stroke-linejoin="round" stroke-linecap="butt" d="m142.03073 70.40568l0 0c0 -1.7488556 1.4177399 -3.1665878 3.1665955 -3.1665878l54.820084 0c0.8398285 0 1.6452637 0.33361816 2.2391205 0.927475c0.59384155 0.5938492 0.927475 1.3992844 0.927475 2.2391129l0 35.619568c0 1.7488632 -1.4177399 3.1665955 -3.1665955 3.1665955l-54.820084 0c-1.7488556 0 -3.1665955 -1.4177322 -3.1665955 -3.1665955z" fill-rule="evenodd"/><path fill="#000000" d="m158.86688 92.735466l0 -7.15625l-2.4375 0l0 -1.25l6.4375 0l0 1.25l-2.453125 0l0 7.15625l-1.546875 0zm6.74205 0.140625q-1.125 0 -1.734375 -0.6875q-0.59375 -0.703125 -0.59375 -2.046875l0 -3.359375l1.515625 0l0 3.21875q0 0.765625 0.3125 1.171875q0.3125 0.40625 0.984375 0.40625q0.640625 0 1.046875 -0.453125q0.421875 -0.453125 0.421875 -1.265625l0 -3.078125l1.53125 0l0 5.953125l-1.359375 0l-0.109375 -1.015625q-0.28125 0.53125 -0.8125 0.84375q-0.515625 0.3125 -1.203125 0.3125zm5.061676 -0.140625l0 -5.953125l1.359375 0l0.109375 1.015625q0.28125 -0.53125 0.796875 -0.84375q0.53125 -0.3125 1.234375 -0.3125q1.109375 0 1.71875 0.703125q0.609375 0.6875 0.609375 2.03125l0 3.359375l-1.53125 0l0 -3.21875q0 -0.765625 -0.3125 -1.171875q-0.3125 -0.40625 -0.96875 -0.40625q-0.65625 0 -1.078125 0.453125q-0.40625 0.453125 -0.40625 1.265625l0 3.078125l-1.53125 0zm10.186676 0.140625q-0.90625 0 -1.609375 -0.375q-0.6875 -0.390625 -1.078125 -1.078125q-0.390625 -0.703125 -0.390625 -1.609375q0 -0.9375 0.390625 -1.65625q0.390625 -0.71875 1.078125 -1.109375q0.6875 -0.40625 1.625 -0.40625q0.875 0 1.546875 0.390625q0.671875 0.375 1.046875 1.046875q0.375 0.65625 0.375 1.46875q0 0.140625 -0.015625 0.28125q0 0.140625 0 0.296875l-4.53125 0q0.046875 0.703125 0.484375 1.109375q0.4375 0.390625 1.0625 0.390625q0.46875 0 0.78125 -0.203125q0.328125 -0.21875 0.484375 -0.5625l1.5625 0q-0.171875 0.5625 -0.5625 1.03125q-0.390625 0.453125 -0.96875 0.71875q-0.5625 0.265625 -1.28125 0.265625zm0.015625 -4.984375q-0.5625 0 -1.0 0.3125q-0.4375 0.3125 -0.546875 0.96875l2.953125 0q-0.03125 -0.59375 -0.4375 -0.9375q-0.390625 -0.34375 -0.96875 -0.34375zm4.269806 4.84375l0 -5.953125l1.359375 0l0.15625 1.109375q0.3125 -0.5625 0.875 -0.90625q0.5625 -0.34375 1.3125 -0.34375l0 1.625l-0.421875 0q-0.515625 0 -0.90625 0.15625q-0.390625 0.15625 -0.625 0.546875q-0.21875 0.375 -0.21875 1.046875l0 2.71875l-1.53125 0z" fill-rule="nonzero"/></g><path fill="#000000" fill-opacity="0.0" d="m83.34377 88.21546l58.692513 0" fill-rule="evenodd"/><path stroke="#028cf0" stroke-width="2.0" stroke-linejoin="round" stroke-linecap="butt" d="m90.923775 88.21547l39.112495 0" fill-rule="evenodd"/><path fill="#028cf0" stroke="#028cf0" stroke-width="2.0" stroke-linecap="butt" d="m90.923775 91.50547l-6.580002 0l0 -6.580002l6.580002 0l0 6.580002z" fill-rule="nonzero"/><path fill="#028cf0" stroke="#028cf0" stroke-width="2.0" stroke-linecap="butt" d="m130.03627 91.518936l9.076202 -3.3034668l-9.076202 -3.3034668z" fill-rule="evenodd"/><g filter="url(#shadowFilter-p.4)"><use xlink:href="#p.4" transform="matrix(1.0 0.0 0.0 1.0 0.0 2.0)"/></g><defs><filter id="shadowFilter-p.4" filterUnits="userSpaceOnUse"><feGaussianBlur in="SourceAlpha" stdDeviation="20.0" result="blur"/><feComponentTransfer in="blur" color-interpolation-filters="sRGB"><feFuncR type="linear" slope="0" intercept="0.0"/><feFuncG type="linear" slope="0" intercept="0.0"/><feFuncB type="linear" slope="0" intercept="0.0"/><feFuncA type="linear" slope="0.15" intercept="0"/></feComponentTransfer></filter></defs><g id="p.4"><path fill="#5cbcfe" d="m275.2558 34.156727l0 0c0 -4.187027 3.3942566 -7.5812836 7.581299 -7.5812836l156.63867 0c2.0106812 0 3.9390259 0.7987404 5.360779 2.2205067c1.4217529 1.4217663 2.22052 3.3500957 2.22052 5.360777l0 85.27838c0 4.187027 -3.3942566 7.5812836 -7.581299 7.5812836l-156.63867 0c-4.187042 0 -7.581299 -3.3942566 -7.581299 -7.5812836z" fill-rule="evenodd"/><path stroke="#028cf0" stroke-width="1.0" stroke-linejoin="round" stroke-linecap="butt" d="m275.2558 34.156727l0 0c0 -4.187027 3.3942566 -7.5812836 7.581299 -7.5812836l156.63867 0c2.0106812 0 3.9390259 0.7987404 5.360779 2.2205067c1.4217529 1.4217663 2.22052 3.3500957 2.22052 5.360777l0 85.27838c0 4.187027 -3.3942566 7.5812836 -7.581299 7.5812836l-156.63867 0c-4.187042 0 -7.581299 -3.3942566 -7.581299 -7.5812836z" fill-rule="evenodd"/></g><g filter="url(#shadowFilter-p.5)"><use xlink:href="#p.5" transform="matrix(1.0 0.0 0.0 1.0 0.0 2.0)"/></g><defs><filter id="shadowFilter-p.5" filterUnits="userSpaceOnUse"><feGaussianBlur in="SourceAlpha" stdDeviation="20.0" result="blur"/><feComponentTransfer in="blur" color-interpolation-filters="sRGB"><feFuncR type="linear" slope="0" intercept="0.0"/><feFuncG type="linear" slope="0" intercept="0.0"/><feFuncB type="linear" slope="0" intercept="0.0"/><feFuncA type="linear" slope="0.15" intercept="0"/></feComponentTransfer></filter></defs><g id="p.5"><path fill="#5cbcfe" d="m284.6925 45.580727l0 0c0 -4.187027 3.3942566 -7.5812836 7.581299 -7.5812836l156.63867 0c2.0106812 0 3.9390259 0.7987404 5.360779 2.2205048c1.4217529 1.4217682 2.22052 3.3500977 2.22052 5.360779l0 85.27837c0 4.187027 -3.3942566 7.5812836 -7.581299 7.5812836l-156.63867 0c-4.187042 0 -7.581299 -3.3942566 -7.581299 -7.5812836z" fill-rule="evenodd"/><path stroke="#028cf0" stroke-width="1.0" stroke-linejoin="round" stroke-linecap="butt" d="m284.6925 45.580727l0 0c0 -4.187027 3.3942566 -7.5812836 7.581299 -7.5812836l156.63867 0c2.0106812 0 3.9390259 0.7987404 5.360779 2.2205048c1.4217529 1.4217682 2.22052 3.3500977 2.22052 5.360779l0 85.27837c0 4.187027 -3.3942566 7.5812836 -7.581299 7.5812836l-156.63867 0c-4.187042 0 -7.581299 -3.3942566 -7.581299 -7.5812836z" fill-rule="evenodd"/></g><g filter="url(#shadowFilter-p.6)"><use xlink:href="#p.6" transform="matrix(1.0 0.0 0.0 1.0 0.0 2.0)"/></g><defs><filter id="shadowFilter-p.6" filterUnits="userSpaceOnUse"><feGaussianBlur in="SourceAlpha" stdDeviation="20.0" result="blur"/><feComponentTransfer in="blur" color-interpolation-filters="sRGB"><feFuncR type="linear" slope="0" intercept="0.0"/><feFuncG type="linear" slope="0" intercept="0.0"/><feFuncB type="linear" slope="0" intercept="0.0"/><feFuncA type="linear" slope="0.15" intercept="0"/></feComponentTransfer></filter></defs><g id="p.6"><path fill="#5cbcfe" d="m294.1292 57.004726l0 0c0 -4.187027 3.3942566 -7.5812836 7.581299 -7.5812836l156.63867 0c2.0106812 0 3.9390259 0.7987404 5.360779 2.2205048c1.4217529 1.4217682 2.22052 3.3500977 2.22052 5.360779l0 85.27838c0 4.187027 -3.3942566 7.5812836 -7.581299 7.5812836l-156.63867 0c-4.187042 0 -7.581299 -3.3942566 -7.581299 -7.5812836z" fill-rule="evenodd"/><path stroke="#028cf0" stroke-width="1.0" stroke-linejoin="round" stroke-linecap="butt" d="m294.1292 57.004726l0 0c0 -4.187027 3.3942566 -7.5812836 7.581299 -7.5812836l156.63867 0c2.0106812 0 3.9390259 0.7987404 5.360779 2.2205048c1.4217529 1.4217682 2.22052 3.3500977 2.22052 5.360779l0 85.27838c0 4.187027 -3.3942566 7.5812836 -7.581299 7.5812836l-156.63867 0c-4.187042 0 -7.581299 -3.3942566 -7.581299 -7.5812836z" fill-rule="evenodd"/><path fill="#000000" d="m306.11533 70.163925l0 -7.15625l-2.4375 0l0 -1.25l6.4375 0l0 1.25l-2.453125 0l0 7.15625l-1.546875 0zm4.519684 0l0 -5.953125l1.359375 0l0.15625 1.109375q0.3125 -0.5625 0.875 -0.90625q0.5625 -0.34375 1.3125 -0.34375l0 1.625l-0.421875 0q-0.515625 0 -0.90625 0.15625q-0.390625 0.15625 -0.625 0.546875q-0.21875 0.375 -0.21875 1.046875l0 2.71875l-1.53125 0zm5.5801697 -6.875q-0.421875 0 -0.703125 -0.25q-0.265625 -0.25 -0.265625 -0.640625q0 -0.375 0.265625 -0.625q0.28125 -0.25 0.703125 -0.25q0.421875 0 0.6875 0.25q0.265625 0.25 0.265625 0.625q0 0.390625 -0.265625 0.640625q-0.265625 0.25 -0.6875 0.25zm-0.765625 6.875l0 -5.953125l1.53125 0l0 5.953125l-1.53125 0zm5.188385 0.140625q-0.765625 0 -1.265625 -0.234375q-0.484375 -0.25 -0.734375 -0.65625q-0.234375 -0.40625 -0.234375 -0.90625q0 -0.828125 0.640625 -1.34375q0.65625 -0.515625 1.953125 -0.515625l1.515625 0l0 -0.140625q0 -0.609375 -0.34375 -0.890625q-0.34375 -0.296875 -0.875 -0.296875q-0.453125 0 -0.8125 0.21875q-0.34375 0.21875 -0.421875 0.65625l-1.5 0q0.046875 -0.65625 0.421875 -1.125q0.390625 -0.484375 0.984375 -0.734375q0.609375 -0.265625 1.34375 -0.265625q1.28125 0 2.0 0.640625q0.734375 0.625 0.734375 1.796875l0 3.65625l-1.296875 0l-0.15625 -0.953125q-0.25 0.46875 -0.734375 0.78125q-0.46875 0.3125 -1.21875 0.3125zm0.359375 -1.203125q0.65625 0 1.015625 -0.421875q0.375 -0.4375 0.46875 -1.078125l-1.3125 0q-0.609375 0 -0.875 0.234375q-0.265625 0.21875 -0.265625 0.546875q0 0.34375 0.265625 0.53125q0.265625 0.1875 0.703125 0.1875zm4.5177917 1.0625l0 -8.640625l1.53125 0l0 8.640625l-1.53125 0z" fill-rule="nonzero"/></g><g filter="url(#shadowFilter-p.7)"><use xlink:href="#p.7" transform="matrix(1.0 0.0 0.0 1.0 0.0 2.0)"/></g><defs><filter id="shadowFilter-p.7" filterUnits="userSpaceOnUse"><feGaussianBlur in="SourceAlpha" stdDeviation="20.0" result="blur"/><feComponentTransfer in="blur" color-interpolation-filters="sRGB"><feFuncR type="linear" slope="0" intercept="0.0"/><feFuncG type="linear" slope="0" intercept="0.0"/><feFuncB type="linear" slope="0" intercept="0.0"/><feFuncA type="linear" slope="0.15" intercept="0"/></feComponentTransfer></filter></defs><g id="p.7"><path fill="#ecf8fd" d="m305.6257 80.06218l0 0c0 -1.7488632 1.4177246 -3.1665955 3.1665955 -3.1665955l54.82007 0c0.83984375 0 1.6452637 0.33361816 2.2391357 0.927475c0.59384155 0.5938492 0.9274597 1.3992844 0.9274597 2.2391205l0 35.619568c0 1.7488556 -1.4177246 3.1665955 -3.1665955 3.1665955l-54.82007 0c-1.7488708 0 -3.1665955 -1.4177399 -3.1665955 -3.1665955z" fill-rule="evenodd"/><path stroke="#028cf0" stroke-width="1.0" stroke-linejoin="round" stroke-linecap="butt" d="m305.6257 80.06218l0 0c0 -1.7488632 1.4177246 -3.1665955 3.1665955 -3.1665955l54.82007 0c0.83984375 0 1.6452637 0.33361816 2.2391357 0.927475c0.59384155 0.5938492 0.9274597 1.3992844 0.9274597 2.2391205l0 35.619568c0 1.7488556 -1.4177246 3.1665955 -3.1665955 3.1665955l-54.82007 0c-1.7488708 0 -3.1665955 -1.4177399 -3.1665955 -3.1665955z" fill-rule="evenodd"/><path fill="#000000" d="m320.16156 102.39196l0 -7.578125l-2.515625 0l0 -0.828125l6.03125 0l0 0.828125l-2.515625 0l0 7.578125l-1.0 0zm4.0047913 0l0 -5.953125l0.90625 0l0.09375 1.140625q0.265625 -0.59375 0.828125 -0.9375q0.578125 -0.34375 1.40625 -0.34375l0 1.046875l-0.28125 0q-0.53125 0 -0.984375 0.1875q-0.4375 0.1875 -0.703125 0.640625q-0.25 0.4375 -0.25 1.21875l0 3.0l-1.015625 0zm6.3404236 0.140625q-0.75 0 -1.25 -0.25q-0.484375 -0.25 -0.734375 -0.671875q-0.234375 -0.421875 -0.234375 -0.90625q0 -0.921875 0.6875 -1.40625q0.703125 -0.5 1.90625 -0.5l1.609375 0l0 -0.0625q0 -0.78125 -0.40625 -1.1875q-0.40625 -0.40625 -1.09375 -0.40625q-0.578125 0 -1.015625 0.296875q-0.421875 0.296875 -0.53125 0.859375l-1.03125 0q0.0625 -0.640625 0.4375 -1.078125q0.375 -0.453125 0.9375 -0.6875q0.5625 -0.234375 1.203125 -0.234375q1.25 0 1.875 0.671875q0.640625 0.65625 0.640625 1.765625l0 3.65625l-0.90625 0l-0.0625 -1.0625q-0.25 0.5 -0.734375 0.859375q-0.484375 0.34375 -1.296875 0.34375zm0.15625 -0.84375q0.578125 0 0.984375 -0.296875q0.421875 -0.3125 0.625 -0.78125q0.21875 -0.484375 0.21875 -1.015625l0 -0.015625l-1.515625 0q-0.890625 0 -1.265625 0.3125q-0.359375 0.296875 -0.359375 0.765625q0 0.46875 0.34375 0.75q0.34375 0.28125 0.96875 0.28125zm4.960785 -6.5625q-0.296875 0 -0.5 -0.203125q-0.1875 -0.203125 -0.1875 -0.5q0 -0.28125 0.1875 -0.46875q0.203125 -0.203125 0.5 -0.203125q0.296875 0 0.5 0.203125q0.203125 0.1875 0.203125 0.46875q0 0.296875 -0.203125 0.5q-0.203125 0.203125 -0.5 0.203125zm-0.5 7.265625l0 -5.953125l1.0 0l0 5.953125l-1.0 0zm2.758667 0l0 -5.953125l0.90625 0l0.0625 1.0625q0.296875 -0.5625 0.828125 -0.875q0.546875 -0.328125 1.234375 -0.328125q1.046875 0 1.671875 0.640625q0.640625 0.640625 0.640625 1.96875l0 3.484375l-1.015625 0l0 -3.375q0 -1.859375 -1.53125 -1.859375q-0.765625 0 -1.28125 0.5625q-0.5 0.5625 -0.5 1.59375l0 3.078125l-1.015625 0zm9.535919 0.140625q-0.84375 0 -1.515625 -0.390625q-0.65625 -0.390625 -1.03125 -1.078125q-0.375 -0.703125 -0.375 -1.640625q0 -0.9375 0.359375 -1.640625q0.375 -0.703125 1.046875 -1.09375q0.671875 -0.390625 1.546875 -0.390625q0.859375 0 1.484375 0.390625q0.640625 0.390625 0.96875 1.03125q0.34375 0.625 0.34375 1.359375q0 0.125 -0.015625 0.265625q0 0.125 0 0.296875l-4.734375 0q0.03125 0.6875 0.3125 1.140625q0.28125 0.453125 0.703125 0.6875q0.4375 0.21875 0.90625 0.21875q0.625 0 1.046875 -0.28125q0.421875 -0.296875 0.609375 -0.796875l1.0 0q-0.234375 0.828125 -0.921875 1.375q-0.671875 0.546875 -1.734375 0.546875zm0 -5.390625q-0.71875 0 -1.28125 0.4375q-0.546875 0.4375 -0.640625 1.28125l3.75 0q-0.03125 -0.796875 -0.546875 -1.25q-0.515625 -0.46875 -1.28125 -0.46875zm4.1561584 5.25l0 -5.953125l0.90625 0l0.09375 1.140625q0.265625 -0.59375 0.828125 -0.9375q0.578125 -0.34375 1.40625 -0.34375l0 1.046875l-0.28125 0q-0.53125 0 -0.984375 0.1875q-0.4375 0.1875 -0.703125 0.640625q-0.25 0.4375 -0.25 1.21875l0 3.0l-1.015625 0z" fill-rule="nonzero"/></g><g filter="url(#shadowFilter-p.8)"><use xlink:href="#p.8" transform="matrix(1.0 0.0 0.0 1.0 0.0 2.0)"/></g><defs><filter id="shadowFilter-p.8" filterUnits="userSpaceOnUse"><feGaussianBlur in="SourceAlpha" stdDeviation="20.0" result="blur"/><feComponentTransfer in="blur" color-interpolation-filters="sRGB"><feFuncR type="linear" slope="0" intercept="0.0"/><feFuncG type="linear" slope="0" intercept="0.0"/><feFuncB type="linear" slope="0" intercept="0.0"/><feFuncA type="linear" slope="0.15" intercept="0"/></feComponentTransfer></filter></defs><g id="p.8"><path fill="#ecf8fd" d="m376.67606 68.06218l0 0c0 -1.7488632 1.4177246 -3.1665955 3.1665955 -3.1665955l54.82007 0c0.83984375 0 1.6452637 0.33361816 2.2391357 0.927475c0.59384155 0.5938492 0.9274597 1.3992844 0.9274597 2.2391205l0 35.619568c0 1.7488556 -1.4177246 3.1665955 -3.1665955 3.1665955l-54.82007 0c-1.7488708 0 -3.1665955 -1.4177399 -3.1665955 -3.1665955z" fill-rule="evenodd"/><path stroke="#028cf0" stroke-width="1.0" stroke-linejoin="round" stroke-linecap="butt" d="m376.67606 68.06218l0 0c0 -1.7488632 1.4177246 -3.1665955 3.1665955 -3.1665955l54.82007 0c0.83984375 0 1.6452637 0.33361816 2.2391357 0.927475c0.59384155 0.5938492 0.9274597 1.3992844 0.9274597 2.2391205l0 35.619568c0 1.7488556 -1.4177246 3.1665955 -3.1665955 3.1665955l-54.82007 0c-1.7488708 0 -3.1665955 -1.4177399 -3.1665955 -3.1665955z" fill-rule="evenodd"/><path fill="#000000" d="m390.2359 90.407585l-2.296875 -8.421875l1.078125 0l1.8125 7.21875l2.0625 -7.21875l1.125 0l2.0 7.21875l1.828125 -7.21875l1.078125 0l-2.34375 8.40625l-1.15625 0l-2.0 -6.9375l-2.046875 6.9375l-1.140625 0.015625zm11.929596 0.125q-0.84375 0 -1.515625 -0.375q-0.671875 -0.390625 -1.0625 -1.09375q-0.390625 -0.703125 -0.390625 -1.640625q0 -0.953125 0.390625 -1.65625q0.40625 -0.703125 1.078125 -1.078125q0.671875 -0.390625 1.515625 -0.390625q0.84375 0 1.515625 0.390625q0.671875 0.375 1.0625 1.078125q0.390625 0.703125 0.390625 1.65625q0 0.9375 -0.40625 1.640625q-0.390625 0.703125 -1.078125 1.09375q-0.671875 0.375 -1.5 0.375zm0 -0.859375q0.515625 0 0.953125 -0.25q0.4375 -0.25 0.71875 -0.75q0.28125 -0.515625 0.28125 -1.25q0 -0.75 -0.28125 -1.25q-0.265625 -0.515625 -0.71875 -0.765625q-0.4375 -0.25 -0.9375 -0.25q-0.515625 0 -0.96875 0.25q-0.4375 0.25 -0.71875 0.765625q-0.265625 0.5 -0.265625 1.25q0 0.734375 0.265625 1.25q0.28125 0.5 0.71875 0.75q0.4375 0.25 0.953125 0.25zm4.3852844 0.71875l0 -5.953125l0.90625 0l0.09375 1.140625q0.265625 -0.59375 0.828125 -0.9375q0.578125 -0.34375 1.40625 -0.34375l0 1.046875l-0.28125 0q-0.53125 0 -0.984375 0.1875q-0.4375 0.1875 -0.703125 0.640625q-0.25 0.4375 -0.25 1.21875l0 3.0l-1.015625 0zm4.3560486 0l0 -8.640625l1.015625 0l0 5.203125l2.421875 -2.515625l1.25 0l-2.640625 2.6875l2.96875 3.265625l-1.28125 0l-2.71875 -3.078125l0 3.078125l-1.015625 0zm8.287903 0.140625q-0.84375 0 -1.515625 -0.390625q-0.65625 -0.390625 -1.03125 -1.078125q-0.375 -0.703125 -0.375 -1.640625q0 -0.9375 0.359375 -1.640625q0.375 -0.703125 1.046875 -1.09375q0.671875 -0.390625 1.546875 -0.390625q0.859375 0 1.484375 0.390625q0.640625 0.390625 0.96875 1.03125q0.34375 0.625 0.34375 1.359375q0 0.125 -0.015625 0.265625q0 0.125 0 0.296875l-4.734375 0q0.03125 0.6875 0.3125 1.140625q0.28125 0.453125 0.703125 0.6875q0.4375 0.21875 0.90625 0.21875q0.625 0 1.046875 -0.28125q0.421875 -0.296875 0.609375 -0.796875l1.0 0q-0.234375 0.828125 -0.921875 1.375q-0.671875 0.546875 -1.734375 0.546875zm0 -5.390625q-0.71875 0 -1.28125 0.4375q-0.546875 0.4375 -0.640625 1.28125l3.75 0q-0.03125 -0.796875 -0.546875 -1.25q-0.515625 -0.46875 -1.28125 -0.46875zm4.156189 5.25l0 -5.953125l0.90625 0l0.09375 1.140625q0.265625 -0.59375 0.828125 -0.9375q0.578125 -0.34375 1.40625 -0.34375l0 1.046875l-0.28125 0q-0.53125 0 -0.984375 0.1875q-0.4375 0.1875 -0.703125 0.640625q-0.25 0.4375 -0.25 1.21875l0 3.0l-1.015625 0z" fill-rule="nonzero"/></g><g filter="url(#shadowFilter-p.9)"><use xlink:href="#p.9" transform="matrix(1.0 0.0 0.0 1.0 0.0 2.0)"/></g><defs><filter id="shadowFilter-p.9" filterUnits="userSpaceOnUse"><feGaussianBlur in="SourceAlpha" stdDeviation="20.0" result="blur"/><feComponentTransfer in="blur" color-interpolation-filters="sRGB"><feFuncR type="linear" slope="0" intercept="0.0"/><feFuncG type="linear" slope="0" intercept="0.0"/><feFuncB type="linear" slope="0" intercept="0.0"/><feFuncA type="linear" slope="0.15" intercept="0"/></feComponentTransfer></filter></defs><g id="p.9"><path fill="#ecf8fd" d="m385.12244 80.06218l0 0c0 -1.7488632 1.4177551 -3.1665955 3.1665955 -3.1665955l54.8201 0c0.83981323 0 1.6452637 0.33361816 2.2391052 0.927475c0.5938721 0.5938492 0.92749023 1.3992844 0.92749023 2.2391205l0 35.619568c0 1.7488556 -1.4177551 3.1665955 -3.1665955 3.1665955l-54.8201 0c-1.7488403 0 -3.1665955 -1.4177399 -3.1665955 -3.1665955z" fill-rule="evenodd"/><path stroke="#028cf0" stroke-width="1.0" stroke-linejoin="round" stroke-linecap="butt" d="m385.12244 80.06218l0 0c0 -1.7488632 1.4177551 -3.1665955 3.1665955 -3.1665955l54.8201 0c0.83981323 0 1.6452637 0.33361816 2.2391052 0.927475c0.5938721 0.5938492 0.92749023 1.3992844 0.92749023 2.2391205l0 35.619568c0 1.7488556 -1.4177551 3.1665955 -3.1665955 3.1665955l-54.8201 0c-1.7488403 0 -3.1665955 -1.4177399 -3.1665955 -3.1665955z" fill-rule="evenodd"/><path fill="#000000" d="m398.6823 102.407585l-2.296875 -8.421875l1.078125 0l1.8125 7.21875l2.0625 -7.21875l1.125 0l2.0 7.21875l1.828125 -7.21875l1.078125 0l-2.34375 8.40625l-1.15625 0l-2.0 -6.9375l-2.046875 6.9375l-1.140625 0.015625zm11.929596 0.125q-0.84375 0 -1.515625 -0.375q-0.671875 -0.390625 -1.0625 -1.09375q-0.390625 -0.703125 -0.390625 -1.640625q0 -0.953125 0.390625 -1.65625q0.40625 -0.703125 1.078125 -1.078125q0.671875 -0.390625 1.515625 -0.390625q0.84375 0 1.515625 0.390625q0.671875 0.375 1.0625 1.078125q0.390625 0.703125 0.390625 1.65625q0 0.9375 -0.40625 1.640625q-0.390625 0.703125 -1.078125 1.09375q-0.671875 0.375 -1.5 0.375zm0 -0.859375q0.515625 0 0.953125 -0.25q0.4375 -0.25 0.71875 -0.75q0.28125 -0.515625 0.28125 -1.25q0 -0.75 -0.28125 -1.25q-0.265625 -0.515625 -0.71875 -0.765625q-0.4375 -0.25 -0.9375 -0.25q-0.515625 0 -0.96875 0.25q-0.4375 0.25 -0.71875 0.765625q-0.265625 0.5 -0.265625 1.25q0 0.734375 0.265625 1.25q0.28125 0.5 0.71875 0.75q0.4375 0.25 0.953125 0.25zm4.3852844 0.71875l0 -5.953125l0.90625 0l0.09375 1.140625q0.265625 -0.59375 0.828125 -0.9375q0.578125 -0.34375 1.40625 -0.34375l0 1.046875l-0.28125 0q-0.53125 0 -0.984375 0.1875q-0.4375 0.1875 -0.703125 0.640625q-0.25 0.4375 -0.25 1.21875l0 3.0l-1.015625 0zm4.3560486 0l0 -8.640625l1.015625 0l0 5.203125l2.421875 -2.515625l1.25 0l-2.640625 2.6875l2.96875 3.265625l-1.28125 0l-2.71875 -3.078125l0 3.078125l-1.015625 0zm8.287903 0.140625q-0.84375 0 -1.515625 -0.390625q-0.65625 -0.390625 -1.03125 -1.078125q-0.375 -0.703125 -0.375 -1.640625q0 -0.9375 0.359375 -1.640625q0.375 -0.703125 1.046875 -1.09375q0.671875 -0.390625 1.546875 -0.390625q0.859375 0 1.484375 0.390625q0.640625 0.390625 0.96875 1.03125q0.34375 0.625 0.34375 1.359375q0 0.125 -0.015625 0.265625q0 0.125 0 0.296875l-4.734375 0q0.03125 0.6875 0.3125 1.140625q0.28125 0.453125 0.703125 0.6875q0.4375 0.21875 0.90625 0.21875q0.625 0 1.046875 -0.28125q0.421875 -0.296875 0.609375 -0.796875l1.0 0q-0.234375 0.828125 -0.921875 1.375q-0.671875 0.546875 -1.734375 0.546875zm0 -5.390625q-0.71875 0 -1.28125 0.4375q-0.546875 0.4375 -0.640625 1.28125l3.75 0q-0.03125 -0.796875 -0.546875 -1.25q-0.515625 -0.46875 -1.28125 -0.46875zm4.156189 5.25l0 -5.953125l0.90625 0l0.09375 1.140625q0.265625 -0.59375 0.828125 -0.9375q0.578125 -0.34375 1.40625 -0.34375l0 1.046875l-0.28125 0q-0.53125 0 -0.984375 0.1875q-0.4375 0.1875 -0.703125 0.640625q-0.25 0.4375 -0.25 1.21875l0 3.0l-1.015625 0z" fill-rule="nonzero"/></g><g filter="url(#shadowFilter-p.10)"><use xlink:href="#p.10" transform="matrix(1.0 0.0 0.0 1.0 0.0 2.0)"/></g><defs><filter id="shadowFilter-p.10" filterUnits="userSpaceOnUse"><feGaussianBlur in="SourceAlpha" stdDeviation="20.0" result="blur"/><feComponentTransfer in="blur" color-interpolation-filters="sRGB"><feFuncR type="linear" slope="0" intercept="0.0"/><feFuncG type="linear" slope="0" intercept="0.0"/><feFuncB type="linear" slope="0" intercept="0.0"/><feFuncA type="linear" slope="0.15" intercept="0"/></feComponentTransfer></filter></defs><g id="p.10"><path fill="#ecf8fd" d="m393.56885 92.06218l0 0c0 -1.7488632 1.4177246 -3.1665955 3.1665955 -3.1665955l54.82007 0c0.83984375 0 1.6452942 0.33361816 2.2391357 0.927475c0.59384155 0.5938492 0.9274597 1.3992844 0.9274597 2.2391205l0 35.619568c0 1.7488556 -1.4177246 3.1665955 -3.1665955 3.1665955l-54.82007 0c-1.7488708 0 -3.1665955 -1.4177399 -3.1665955 -3.1665955z" fill-rule="evenodd"/><path stroke="#028cf0" stroke-width="1.0" stroke-linejoin="round" stroke-linecap="butt" d="m393.56885 92.06218l0 0c0 -1.7488632 1.4177246 -3.1665955 3.1665955 -3.1665955l54.82007 0c0.83984375 0 1.6452942 0.33361816 2.2391357 0.927475c0.59384155 0.5938492 0.9274597 1.3992844 0.9274597 2.2391205l0 35.619568c0 1.7488556 -1.4177246 3.1665955 -3.1665955 3.1665955l-54.82007 0c-1.7488708 0 -3.1665955 -1.4177399 -3.1665955 -3.1665955z" fill-rule="evenodd"/><path fill="#000000" d="m407.12872 114.407585l-2.296875 -8.421875l1.078125 0l1.8125 7.21875l2.0625 -7.21875l1.125 0l2.0 7.21875l1.828125 -7.21875l1.078125 0l-2.34375 8.40625l-1.15625 0l-2.0 -6.9375l-2.046875 6.9375l-1.140625 0.015625zm11.929565 0.125q-0.84375 0 -1.515625 -0.375q-0.671875 -0.390625 -1.0625 -1.09375q-0.390625 -0.703125 -0.390625 -1.640625q0 -0.953125 0.390625 -1.65625q0.40625 -0.703125 1.078125 -1.078125q0.671875 -0.390625 1.515625 -0.390625q0.84375 0 1.515625 0.390625q0.671875 0.375 1.0625 1.078125q0.390625 0.703125 0.390625 1.65625q0 0.9375 -0.40625 1.640625q-0.390625 0.703125 -1.078125 1.09375q-0.671875 0.375 -1.5 0.375zm0 -0.859375q0.515625 0 0.953125 -0.25q0.4375 -0.25 0.71875 -0.75q0.28125 -0.515625 0.28125 -1.25q0 -0.75 -0.28125 -1.25q-0.265625 -0.515625 -0.71875 -0.765625q-0.4375 -0.25 -0.9375 -0.25q-0.515625 0 -0.96875 0.25q-0.4375 0.25 -0.71875 0.765625q-0.265625 0.5 -0.265625 1.25q0 0.734375 0.265625 1.25q0.28125 0.5 0.71875 0.75q0.4375 0.25 0.953125 0.25zm4.385315 0.71875l0 -5.953125l0.90625 0l0.09375 1.140625q0.265625 -0.59375 0.828125 -0.9375q0.578125 -0.34375 1.40625 -0.34375l0 1.046875l-0.28125 0q-0.53125 0 -0.984375 0.1875q-0.4375 0.1875 -0.703125 0.640625q-0.25 0.4375 -0.25 1.21875l0 3.0l-1.015625 0zm4.356018 0l0 -8.640625l1.015625 0l0 5.203125l2.421875 -2.515625l1.25 0l-2.640625 2.6875l2.96875 3.265625l-1.28125 0l-2.71875 -3.078125l0 3.078125l-1.015625 0zm8.287933 0.140625q-0.84375 0 -1.515625 -0.390625q-0.65625 -0.390625 -1.03125 -1.078125q-0.375 -0.703125 -0.375 -1.640625q0 -0.9375 0.359375 -1.640625q0.375 -0.703125 1.046875 -1.09375q0.671875 -0.390625 1.546875 -0.390625q0.859375 0 1.484375 0.390625q0.640625 0.390625 0.96875 1.03125q0.34375 0.625 0.34375 1.359375q0 0.125 -0.015625 0.265625q0 0.125 0 0.296875l-4.734375 0q0.03125 0.6875 0.3125 1.140625q0.28125 0.453125 0.703125 0.6875q0.4375 0.21875 0.90625 0.21875q0.625 0 1.046875 -0.28125q0.421875 -0.296875 0.609375 -0.796875l1.0 0q-0.234375 0.828125 -0.921875 1.375q-0.671875 0.546875 -1.734375 0.546875zm0 -5.390625q-0.71875 0 -1.28125 0.4375q-0.546875 0.4375 -0.640625 1.28125l3.75 0q-0.03125 -0.796875 -0.546875 -1.25q-0.515625 -0.46875 -1.28125 -0.46875zm4.1561584 5.25l0 -5.953125l0.90625 0l0.09375 1.140625q0.265625 -0.59375 0.828125 -0.9375q0.578125 -0.34375 1.40625 -0.34375l0 1.046875l-0.28125 0q-0.53125 0 -0.984375 0.1875q-0.4375 0.1875 -0.703125 0.640625q-0.25 0.4375 -0.25 1.21875l0 3.0l-1.015625 0z" fill-rule="nonzero"/></g><path fill="#000000" fill-opacity="0.0" d="m203.184 88.21546l72.25993 0" fill-rule="evenodd"/><path stroke="#028cf0" stroke-width="2.0" stroke-linejoin="round" stroke-linecap="butt" d="m210.76398 88.21547l52.679993 0" fill-rule="evenodd"/><path fill="#028cf0" stroke="#028cf0" stroke-width="2.0" stroke-linecap="butt" d="m210.76399 91.50547l-6.580002 0l0 -6.580002l6.580002 0l0 6.580002z" fill-rule="nonzero"/><path fill="#028cf0" stroke="#028cf0" stroke-width="2.0" stroke-linecap="butt" d="m263.44397 91.518936l9.076172 -3.3034668l-9.076172 -3.3034668z" fill-rule="evenodd"/><path fill="#ffffff" d="m207.6 68.64824l0 0c0 -5.6750526 4.60054 -10.275589 10.275604 -10.275589l44.27658 0l0 0c2.7252808 0 5.3388977 1.0826035 7.2659607 3.0096474c1.9270325 1.9270477 3.0096436 4.5406837 3.0096436 7.2659416l0 0l0 0c0 5.675049 -4.600525 10.275589 -10.275604 10.275589l-44.27658 0c-5.675064 0 -10.275604 -4.60054 -10.275604 -10.275589z" fill-rule="evenodd"/><path stroke="#00375c" stroke-width="1.0" stroke-linejoin="round" stroke-linecap="butt" d="m207.6 68.64824l0 0c0 -5.6750526 4.60054 -10.275589 10.275604 -10.275589l44.27658 0l0 0c2.7252808 0 5.3388977 1.0826035 7.2659607 3.0096474c1.9270325 1.9270477 3.0096436 4.5406837 3.0096436 7.2659416l0 0l0 0c0 5.675049 -4.600525 10.275589 -10.275604 10.275589l-44.27658 0c-5.675064 0 -10.275604 -4.60054 -10.275604 -10.275589z" fill-rule="evenodd"/><path fill="#00375c" d="m213.86674 72.38824l0 -6.453125l-2.0 0l0 -1.0l5.140625 0l0 1.0l-2.0 0l0 6.453125l-1.140625 0zm6.503189 0.125q-0.96875 0 -1.46875 -0.59375q-0.484375 -0.59375 -0.484375 -1.71875l0 -3.09375l1.125 0l0 2.953125q0 0.65625 0.28125 1.03125q0.28125 0.359375 0.875 0.359375q0.578125 0 0.96875 -0.390625q0.40625 -0.390625 0.40625 -1.140625l0 -2.8125l1.125 0l0 5.28125l-0.984375 0l-0.09375 -0.78125l-0.046875 0q-0.21875 0.375 -0.671875 0.640625q-0.4375 0.265625 -1.03125 0.265625zm4.487564 -0.125l0 -5.28125l0.984375 0l0.09375 0.78125l0.046875 0q0.21875 -0.375 0.65625 -0.640625q0.453125 -0.265625 1.046875 -0.265625q0.96875 0 1.453125 0.59375q0.5 0.578125 0.5 1.71875l0 3.09375l-1.140625 0l0 -2.96875q0 -0.65625 -0.28125 -1.015625q-0.265625 -0.359375 -0.859375 -0.359375q-0.59375 0 -0.984375 0.390625q-0.390625 0.390625 -0.390625 1.140625l0 2.8125l-1.125 0zm8.831314 0.125q-0.765625 0 -1.359375 -0.34375q-0.578125 -0.34375 -0.921875 -0.953125q-0.328125 -0.625 -0.328125 -1.453125q0 -0.828125 0.328125 -1.453125q0.328125 -0.625 0.921875 -0.96875q0.59375 -0.359375 1.359375 -0.359375q0.765625 0 1.3125 0.34375q0.5625 0.34375 0.859375 0.921875q0.3125 0.578125 0.3125 1.265625q0 0.109375 0 0.234375q0 0.109375 0 0.265625l-3.984375 0q0.0625 0.734375 0.484375 1.109375q0.421875 0.375 1.0 0.375q0.5 0 0.796875 -0.203125q0.296875 -0.203125 0.421875 -0.5625l1.140625 0q-0.1875 0.75 -0.796875 1.265625q-0.609375 0.515625 -1.546875 0.515625zm0 -4.5625q-0.53125 0 -0.9375 0.328125q-0.40625 0.3125 -0.515625 0.875l2.8125 0q-0.046875 -0.53125 -0.421875 -0.859375q-0.359375 -0.34375 -0.9375 -0.34375zm3.956314 4.4375l0 -0.984375l1.28125 0l0 -2.96875q0 -0.359375 -0.34375 -0.359375l-0.84375 0l0 -0.96875l1.265625 0q0.4375 0 0.71875 0.25q0.28125 0.25 0.28125 0.6875l0 0.140625l0.046875 0q0.125 -0.609375 0.515625 -0.90625q0.390625 -0.296875 1.125 -0.296875l0.828125 0l0 1.1875l-1.15625 0q-0.625 0 -0.96875 0.4375q-0.34375 0.4375 -0.34375 1.046875l0 1.75l1.640625 0l0 0.984375l-4.046875 0zm8.768814 0.0625q-0.40625 0 -0.6875 -0.25q-0.265625 -0.265625 -0.265625 -0.640625q0 -0.375 0.265625 -0.625q0.28125 -0.265625 0.6875 -0.265625q0.40625 0 0.671875 0.265625q0.265625 0.25 0.265625 0.625q0 0.375 -0.265625 0.640625q-0.265625 0.25 -0.671875 0.25zm3.925064 2.28125l0 -0.984375l0.859375 0q0.375 0 0.53125 -0.15625q0.171875 -0.15625 0.171875 -0.515625l0 -5.015625l-1.34375 0l0 -0.953125l1.34375 0l0 -0.734375q0 -0.890625 0.4375 -1.265625q0.4375 -0.390625 1.25 -0.390625l1.296875 0l0 0.984375l-1.15625 0q-0.375 0 -0.53125 0.15625q-0.15625 0.140625 -0.15625 0.515625l0 0.734375l1.84375 0l0 0.953125l-1.84375 0l0 5.015625q0 0.890625 -0.4375 1.265625q-0.4375 0.390625 -1.265625 0.390625l-1.0 0zm8.753189 -8.4375q-0.375 0 -0.625 -0.234375q-0.25 -0.25 -0.25 -0.59375q0 -0.359375 0.25 -0.59375q0.25 -0.234375 0.625 -0.234375q0.375 0 0.625 0.234375q0.25 0.234375 0.25 0.59375q0 0.34375 -0.25 0.59375q-0.25 0.234375 -0.625 0.234375zm-2.125 6.09375l0 -0.984375l1.65625 0l0 -2.96875q0 -0.359375 -0.328125 -0.359375l-1.171875 0l0 -0.96875l1.375 0q0.65625 0 0.953125 0.3125q0.3125 0.296875 0.3125 0.953125l0 3.03125l1.65625 0l0 0.984375l-4.453125 0zm9.190674 0q-0.765625 0 -1.234375 -0.375q-0.453125 -0.375 -0.453125 -1.34375l0 -2.609375l-1.328125 0l0 -0.953125l0.78125 0q0.546875 0 0.640625 -0.53125l0.15625 -0.859375l0.875 0l0 1.390625l2.09375 0l0 0.953125l-2.09375 0l0 2.578125q0 0.421875 0.1875 0.59375q0.1875 0.15625 0.640625 0.15625l1.25 0l0 1.0l-1.515625 0z" fill-rule="nonzero"/></g></svg>