<svg width="792" height="612" viewBox="0 0 792 612" fill="none" xmlns="http://www.w3.org/2000/svg">
<rect width="792" height="612" fill="white"/>
<rect x="229" y="32" width="143" height="343" fill="#9391F2"/>
<path d="M245.796 97.5994V96.6619H252.341V97.5994H249.597V105.389H248.54V97.5994H245.796ZM253.156 105.389V98.8438H254.128V99.8324H254.196C254.316 99.5085 254.531 99.2457 254.844 99.044C255.156 98.8423 255.509 98.7415 255.901 98.7415C255.975 98.7415 256.067 98.7429 256.178 98.7457C256.289 98.7486 256.372 98.7528 256.429 98.7585V99.7813C256.395 99.7727 256.317 99.7599 256.195 99.7429C256.076 99.723 255.949 99.7131 255.816 99.7131C255.497 99.7131 255.213 99.7798 254.963 99.9134C254.716 100.044 254.52 100.226 254.375 100.459C254.233 100.689 254.162 100.952 254.162 101.247V105.389H253.156ZM259.547 105.543C259.133 105.543 258.756 105.464 258.418 105.308C258.08 105.149 257.812 104.92 257.613 104.622C257.414 104.321 257.315 103.957 257.315 103.531C257.315 103.156 257.388 102.852 257.536 102.619C257.684 102.384 257.881 102.199 258.128 102.065C258.376 101.932 258.648 101.832 258.947 101.767C259.248 101.699 259.55 101.645 259.854 101.605C260.252 101.554 260.574 101.516 260.822 101.49C261.072 101.462 261.253 101.415 261.367 101.349C261.484 101.284 261.542 101.17 261.542 101.009V100.974C261.542 100.554 261.427 100.227 261.197 99.9943C260.969 99.7614 260.624 99.6449 260.161 99.6449C259.681 99.6449 259.305 99.75 259.032 99.9602C258.759 100.17 258.567 100.395 258.457 100.634L257.502 100.293C257.672 99.8949 257.9 99.5852 258.184 99.3636C258.471 99.1392 258.783 98.983 259.121 98.8949C259.462 98.804 259.797 98.7585 260.127 98.7585C260.337 98.7585 260.579 98.7841 260.851 98.8352C261.127 98.8835 261.393 98.9844 261.648 99.1378C261.907 99.2912 262.121 99.5227 262.292 99.8324C262.462 100.142 262.547 100.557 262.547 101.077V105.389H261.542V104.503H261.491C261.422 104.645 261.309 104.797 261.15 104.959C260.991 105.121 260.779 105.259 260.515 105.372C260.251 105.486 259.928 105.543 259.547 105.543ZM259.701 104.639C260.099 104.639 260.434 104.561 260.707 104.405C260.982 104.249 261.19 104.047 261.329 103.8C261.471 103.553 261.542 103.293 261.542 103.02V102.099C261.499 102.151 261.405 102.197 261.261 102.24C261.118 102.28 260.954 102.315 260.766 102.347C260.582 102.375 260.401 102.401 260.225 102.423C260.052 102.443 259.911 102.46 259.803 102.474C259.542 102.509 259.297 102.564 259.07 102.641C258.846 102.714 258.664 102.827 258.525 102.977C258.388 103.125 258.32 103.327 258.32 103.582C258.32 103.932 258.449 104.196 258.708 104.375C258.969 104.551 259.3 104.639 259.701 104.639ZM264.383 105.389V98.8438H265.389V105.389H264.383ZM264.894 97.7528C264.698 97.7528 264.529 97.6861 264.387 97.5526C264.248 97.419 264.178 97.2585 264.178 97.071C264.178 96.8835 264.248 96.723 264.387 96.5895C264.529 96.456 264.698 96.3892 264.894 96.3892C265.09 96.3892 265.258 96.456 265.397 96.5895C265.539 96.723 265.61 96.8835 265.61 97.071C265.61 97.2585 265.539 97.419 265.397 97.5526C265.258 97.6861 265.09 97.7528 264.894 97.7528ZM268.236 101.452V105.389H267.231V98.8438H268.202V99.8665H268.288C268.441 99.5341 268.674 99.267 268.986 99.0653C269.299 98.8608 269.702 98.7585 270.197 98.7585C270.64 98.7585 271.028 98.8494 271.36 99.0313C271.692 99.2102 271.951 99.483 272.136 99.8494C272.32 100.213 272.413 100.673 272.413 101.23V105.389H271.407V101.298C271.407 100.784 271.273 100.384 271.006 100.097C270.739 99.8068 270.373 99.6619 269.907 99.6619C269.586 99.6619 269.299 99.7315 269.046 99.8707C268.796 100.01 268.599 100.213 268.454 100.48C268.309 100.747 268.236 101.071 268.236 101.452ZM276.995 105.526C276.364 105.526 275.82 105.386 275.362 105.108C274.908 104.827 274.557 104.435 274.31 103.932C274.066 103.426 273.943 102.838 273.943 102.168C273.943 101.497 274.066 100.906 274.31 100.395C274.557 99.8807 274.901 99.4801 275.341 99.1932C275.784 98.9034 276.301 98.7585 276.892 98.7585C277.233 98.7585 277.57 98.8153 277.902 98.929C278.235 99.0426 278.537 99.2273 278.81 99.483C279.083 99.7358 279.3 100.071 279.462 100.489C279.624 100.906 279.705 101.42 279.705 102.031V102.457H274.659V101.588H278.682C278.682 101.219 278.608 100.889 278.46 100.599C278.316 100.31 278.108 100.081 277.838 99.9134C277.571 99.7457 277.256 99.6619 276.892 99.6619C276.492 99.6619 276.145 99.7614 275.853 99.9602C275.563 100.156 275.34 100.412 275.183 100.727C275.027 101.043 274.949 101.381 274.949 101.741V102.321C274.949 102.815 275.034 103.234 275.205 103.578C275.378 103.919 275.618 104.179 275.925 104.358C276.232 104.534 276.588 104.622 276.995 104.622C277.259 104.622 277.497 104.585 277.71 104.511C277.926 104.435 278.112 104.321 278.269 104.17C278.425 104.017 278.546 103.827 278.631 103.599L279.603 103.872C279.5 104.202 279.328 104.491 279.087 104.741C278.845 104.989 278.547 105.182 278.192 105.321C277.837 105.457 277.438 105.526 276.995 105.526ZM281.235 105.389V98.8438H282.206V99.8324H282.274C282.394 99.5085 282.61 99.2457 282.922 99.044C283.235 98.8423 283.587 98.7415 283.979 98.7415C284.053 98.7415 284.145 98.7429 284.256 98.7457C284.367 98.7486 284.451 98.7528 284.507 98.7585V99.7813C284.473 99.7727 284.395 99.7599 284.273 99.7429C284.154 99.723 284.027 99.7131 283.894 99.7131C283.576 99.7131 283.291 99.7798 283.041 99.9134C282.794 100.044 282.598 100.226 282.453 100.459C282.311 100.689 282.24 100.952 282.24 101.247V105.389H281.235Z" fill="#211919"/>
<rect x="268" y="252" width="67" height="25" fill="#E88E8E"/>
<path d="M277.767 262.455V263.307H274.375V262.455H277.767ZM275.364 260.886H276.369V267.125C276.369 267.409 276.411 267.622 276.493 267.764C276.578 267.903 276.686 267.997 276.817 268.045C276.95 268.091 277.091 268.114 277.239 268.114C277.349 268.114 277.44 268.108 277.511 268.097C277.582 268.082 277.639 268.071 277.682 268.062L277.886 268.966C277.818 268.991 277.723 269.017 277.601 269.043C277.479 269.071 277.324 269.085 277.136 269.085C276.852 269.085 276.574 269.024 276.301 268.902C276.031 268.78 275.807 268.594 275.628 268.344C275.452 268.094 275.364 267.778 275.364 267.398V260.886ZM279.28 269V262.455H280.251V263.443H280.32C280.439 263.119 280.655 262.857 280.967 262.655C281.28 262.453 281.632 262.352 282.024 262.352C282.098 262.352 282.19 262.354 282.301 262.357C282.412 262.359 282.496 262.364 282.553 262.369V263.392C282.518 263.384 282.44 263.371 282.318 263.354C282.199 263.334 282.072 263.324 281.939 263.324C281.621 263.324 281.337 263.391 281.087 263.524C280.839 263.655 280.643 263.837 280.499 264.07C280.357 264.3 280.286 264.562 280.286 264.858V269H279.28ZM285.671 269.153C285.256 269.153 284.88 269.075 284.542 268.919C284.203 268.76 283.935 268.531 283.736 268.233C283.537 267.932 283.438 267.568 283.438 267.142C283.438 266.767 283.512 266.463 283.659 266.23C283.807 265.994 284.005 265.81 284.252 265.676C284.499 265.543 284.772 265.443 285.07 265.378C285.371 265.31 285.674 265.256 285.978 265.216C286.375 265.165 286.698 265.126 286.945 265.101C287.195 265.072 287.377 265.026 287.49 264.96C287.607 264.895 287.665 264.781 287.665 264.619V264.585C287.665 264.165 287.55 263.838 287.32 263.605C287.093 263.372 286.748 263.256 286.284 263.256C285.804 263.256 285.428 263.361 285.155 263.571C284.882 263.781 284.691 264.006 284.58 264.244L283.625 263.903C283.796 263.506 284.023 263.196 284.307 262.974C284.594 262.75 284.907 262.594 285.245 262.506C285.586 262.415 285.921 262.369 286.25 262.369C286.461 262.369 286.702 262.395 286.975 262.446C287.25 262.494 287.516 262.595 287.772 262.749C288.03 262.902 288.245 263.134 288.415 263.443C288.586 263.753 288.671 264.168 288.671 264.688V269H287.665V268.114H287.614C287.546 268.256 287.432 268.408 287.273 268.57C287.114 268.732 286.902 268.869 286.638 268.983C286.374 269.097 286.051 269.153 285.671 269.153ZM285.824 268.25C286.222 268.25 286.557 268.172 286.83 268.016C287.105 267.859 287.313 267.658 287.452 267.411C287.594 267.163 287.665 266.903 287.665 266.631V265.71C287.623 265.761 287.529 265.808 287.384 265.851C287.242 265.891 287.077 265.926 286.89 265.957C286.705 265.986 286.525 266.011 286.348 266.034C286.175 266.054 286.034 266.071 285.926 266.085C285.665 266.119 285.421 266.175 285.194 266.251C284.969 266.325 284.787 266.437 284.648 266.588C284.512 266.736 284.444 266.937 284.444 267.193C284.444 267.543 284.573 267.807 284.831 267.986C285.093 268.162 285.424 268.25 285.824 268.25ZM290.506 269V262.455H291.512V269H290.506ZM291.018 261.364C290.822 261.364 290.653 261.297 290.511 261.163C290.371 261.03 290.302 260.869 290.302 260.682C290.302 260.494 290.371 260.334 290.511 260.2C290.653 260.067 290.822 260 291.018 260C291.214 260 291.381 260.067 291.521 260.2C291.663 260.334 291.734 260.494 291.734 260.682C291.734 260.869 291.663 261.03 291.521 261.163C291.381 261.297 291.214 261.364 291.018 261.364ZM294.36 265.062V269H293.354V262.455H294.326V263.477H294.411C294.564 263.145 294.797 262.878 295.11 262.676C295.422 262.472 295.826 262.369 296.32 262.369C296.763 262.369 297.151 262.46 297.483 262.642C297.816 262.821 298.074 263.094 298.259 263.46C298.444 263.824 298.536 264.284 298.536 264.841V269H297.53V264.909C297.53 264.395 297.397 263.994 297.13 263.707C296.863 263.418 296.496 263.273 296.03 263.273C295.709 263.273 295.422 263.342 295.169 263.482C294.919 263.621 294.722 263.824 294.577 264.091C294.432 264.358 294.36 264.682 294.36 265.062ZM304.891 269V269.938H299.436V269H304.891ZM308.714 262.455V263.307H305.186V262.455H308.714ZM306.243 269V261.551C306.243 261.176 306.331 260.864 306.507 260.614C306.683 260.364 306.912 260.176 307.193 260.051C307.474 259.926 307.771 259.864 308.083 259.864C308.331 259.864 308.532 259.884 308.689 259.923C308.845 259.963 308.961 260 309.038 260.034L308.748 260.903C308.697 260.886 308.626 260.865 308.535 260.839C308.447 260.814 308.331 260.801 308.186 260.801C307.853 260.801 307.613 260.885 307.466 261.053C307.321 261.22 307.248 261.466 307.248 261.79V269H306.243ZM314.249 266.324V262.455H315.254V269H314.249V267.892H314.18C314.027 268.224 313.788 268.507 313.464 268.74C313.141 268.97 312.732 269.085 312.237 269.085C311.828 269.085 311.464 268.996 311.146 268.817C310.828 268.635 310.578 268.362 310.396 267.999C310.214 267.632 310.124 267.17 310.124 266.614V262.455H311.129V266.545C311.129 267.023 311.263 267.403 311.53 267.688C311.8 267.972 312.143 268.114 312.561 268.114C312.811 268.114 313.065 268.05 313.324 267.922C313.585 267.794 313.804 267.598 313.98 267.334C314.159 267.07 314.249 266.733 314.249 266.324ZM318.102 265.062V269H317.096V262.455H318.068V263.477H318.153C318.306 263.145 318.539 262.878 318.852 262.676C319.164 262.472 319.568 262.369 320.062 262.369C320.505 262.369 320.893 262.46 321.225 262.642C321.558 262.821 321.816 263.094 322.001 263.46C322.186 263.824 322.278 264.284 322.278 264.841V269H321.272V264.909C321.272 264.395 321.139 263.994 320.872 263.707C320.605 263.418 320.238 263.273 319.772 263.273C319.451 263.273 319.164 263.342 318.912 263.482C318.662 263.621 318.464 263.824 318.319 264.091C318.174 264.358 318.102 264.682 318.102 265.062ZM326.775 269.136C326.161 269.136 325.633 268.991 325.19 268.702C324.746 268.412 324.406 268.013 324.167 267.504C323.928 266.996 323.809 266.415 323.809 265.761C323.809 265.097 323.931 264.51 324.175 264.001C324.423 263.49 324.766 263.091 325.207 262.804C325.65 262.514 326.167 262.369 326.758 262.369C327.218 262.369 327.633 262.455 328.002 262.625C328.371 262.795 328.674 263.034 328.91 263.341C329.146 263.648 329.292 264.006 329.349 264.415H328.343C328.266 264.116 328.096 263.852 327.832 263.622C327.57 263.389 327.218 263.273 326.775 263.273C326.383 263.273 326.039 263.375 325.744 263.58C325.451 263.781 325.222 264.067 325.058 264.436C324.896 264.803 324.815 265.233 324.815 265.727C324.815 266.233 324.894 266.673 325.053 267.048C325.215 267.423 325.442 267.714 325.735 267.922C326.031 268.129 326.377 268.233 326.775 268.233C327.036 268.233 327.273 268.188 327.487 268.097C327.7 268.006 327.88 267.875 328.028 267.705C328.175 267.534 328.281 267.33 328.343 267.091H329.349C329.292 267.477 329.151 267.825 328.927 268.135C328.705 268.442 328.411 268.686 328.045 268.868C327.681 269.047 327.258 269.136 326.775 269.136Z" fill="black"/>
<rect x="459" y="154" width="113" height="107" fill="#56E125"/>
<path d="M497.642 175L495.256 166.273H496.329L498.153 173.381H498.239L500.096 166.273H501.29L503.148 173.381H503.233L505.057 166.273H506.131L503.744 175H502.653L500.727 168.045H500.659L498.733 175H497.642ZM509.361 175.136C508.77 175.136 508.251 174.996 507.805 174.714C507.362 174.433 507.016 174.04 506.766 173.534C506.518 173.028 506.395 172.437 506.395 171.761C506.395 171.08 506.518 170.484 506.766 169.976C507.016 169.467 507.362 169.072 507.805 168.791C508.251 168.51 508.77 168.369 509.361 168.369C509.952 168.369 510.469 168.51 510.912 168.791C511.358 169.072 511.704 169.467 511.952 169.976C512.202 170.484 512.327 171.08 512.327 171.761C512.327 172.437 512.202 173.028 511.952 173.534C511.704 174.04 511.358 174.433 510.912 174.714C510.469 174.996 509.952 175.136 509.361 175.136ZM509.361 174.233C509.81 174.233 510.179 174.118 510.469 173.888C510.758 173.658 510.973 173.355 511.112 172.98C511.251 172.605 511.321 172.199 511.321 171.761C511.321 171.324 511.251 170.916 511.112 170.538C510.973 170.161 510.758 169.855 510.469 169.622C510.179 169.389 509.81 169.273 509.361 169.273C508.912 169.273 508.542 169.389 508.253 169.622C507.963 169.855 507.748 170.161 507.609 170.538C507.47 170.916 507.4 171.324 507.4 171.761C507.4 172.199 507.47 172.605 507.609 172.98C507.748 173.355 507.963 173.658 508.253 173.888C508.542 174.118 508.912 174.233 509.361 174.233ZM513.862 175V168.455H514.833V169.443H514.902C515.021 169.119 515.237 168.857 515.549 168.655C515.862 168.453 516.214 168.352 516.606 168.352C516.68 168.352 516.772 168.354 516.883 168.357C516.994 168.359 517.078 168.364 517.134 168.369V169.392C517.1 169.384 517.022 169.371 516.9 169.354C516.781 169.334 516.654 169.324 516.521 169.324C516.203 169.324 515.919 169.391 515.669 169.524C515.421 169.655 515.225 169.837 515.08 170.07C514.938 170.3 514.867 170.562 514.867 170.858V175H513.862ZM519.264 172.614L519.247 171.369H519.452L522.315 168.455H523.56L520.508 171.54H520.423L519.264 172.614ZM518.327 175V166.273H519.332V175H518.327ZM522.486 175L519.929 171.761L520.645 171.062L523.764 175H522.486ZM527.329 175.136C526.698 175.136 526.154 174.997 525.697 174.719C525.242 174.438 524.891 174.045 524.644 173.543C524.4 173.037 524.278 172.449 524.278 171.778C524.278 171.108 524.4 170.517 524.644 170.006C524.891 169.491 525.235 169.091 525.675 168.804C526.118 168.514 526.636 168.369 527.226 168.369C527.567 168.369 527.904 168.426 528.236 168.54C528.569 168.653 528.871 168.838 529.144 169.094C529.417 169.347 529.634 169.682 529.796 170.099C529.958 170.517 530.039 171.031 530.039 171.642V172.068H524.993V171.199H529.016C529.016 170.83 528.942 170.5 528.795 170.21C528.65 169.92 528.442 169.692 528.172 169.524C527.905 169.357 527.59 169.273 527.226 169.273C526.826 169.273 526.479 169.372 526.187 169.571C525.897 169.767 525.674 170.023 525.518 170.338C525.361 170.653 525.283 170.991 525.283 171.352V171.932C525.283 172.426 525.368 172.845 525.539 173.189C525.712 173.53 525.952 173.79 526.259 173.969C526.566 174.145 526.922 174.233 527.329 174.233C527.593 174.233 527.832 174.196 528.045 174.122C528.261 174.045 528.447 173.932 528.603 173.781C528.759 173.628 528.88 173.437 528.965 173.21L529.937 173.483C529.834 173.812 529.663 174.102 529.421 174.352C529.18 174.599 528.881 174.793 528.526 174.932C528.171 175.068 527.772 175.136 527.329 175.136ZM531.569 175V168.455H532.54V169.443H532.609C532.728 169.119 532.944 168.857 533.256 168.655C533.569 168.453 533.921 168.352 534.313 168.352C534.387 168.352 534.479 168.354 534.59 168.357C534.701 168.359 534.785 168.364 534.841 168.369V169.392C534.807 169.384 534.729 169.371 534.607 169.354C534.488 169.334 534.361 169.324 534.228 169.324C533.91 169.324 533.626 169.391 533.376 169.524C533.128 169.655 532.932 169.837 532.788 170.07C532.645 170.3 532.574 170.562 532.574 170.858V175H531.569Z" fill="black"/>
<rect x="469" y="226" width="30" height="27" fill="#88A2E6"/>
<path d="M474.852 246C474.774 245.761 474.671 245.547 474.543 245.357C474.418 245.165 474.267 245.002 474.092 244.867C473.919 244.732 473.723 244.629 473.503 244.558C473.283 244.487 473.041 244.452 472.778 244.452C472.347 244.452 471.956 244.563 471.603 244.786C471.25 245.008 470.97 245.336 470.761 245.769C470.553 246.202 470.449 246.734 470.449 247.364C470.449 247.993 470.554 248.525 470.765 248.958C470.975 249.391 471.261 249.719 471.621 249.942C471.98 250.164 472.385 250.276 472.835 250.276C473.252 250.276 473.619 250.187 473.936 250.009C474.256 249.829 474.504 249.576 474.682 249.249C474.862 248.92 474.952 248.533 474.952 248.088L475.221 248.145H473.034V247.364H475.804V248.145C475.804 248.744 475.676 249.265 475.42 249.707C475.167 250.15 474.817 250.493 474.369 250.737C473.924 250.979 473.413 251.099 472.835 251.099C472.191 251.099 471.625 250.948 471.138 250.645C470.652 250.342 470.274 249.911 470.001 249.352C469.731 248.794 469.596 248.131 469.596 247.364C469.596 246.788 469.673 246.271 469.827 245.812C469.984 245.35 470.204 244.957 470.488 244.633C470.772 244.308 471.108 244.06 471.496 243.887C471.885 243.714 472.312 243.628 472.778 243.628C473.162 243.628 473.519 243.686 473.851 243.802C474.185 243.915 474.482 244.078 474.742 244.288C475.005 244.497 475.224 244.746 475.399 245.038C475.574 245.326 475.695 245.647 475.761 246H474.852ZM477.312 251V243.727H479.77C480.34 243.727 480.807 243.83 481.169 244.036C481.533 244.24 481.803 244.516 481.978 244.864C482.154 245.212 482.241 245.6 482.241 246.028C482.241 246.457 482.154 246.846 481.978 247.197C481.806 247.547 481.538 247.826 481.176 248.035C480.814 248.241 480.35 248.344 479.784 248.344H478.022V247.562H479.755C480.146 247.562 480.46 247.495 480.696 247.36C480.933 247.225 481.105 247.043 481.211 246.813C481.32 246.581 481.375 246.32 481.375 246.028C481.375 245.737 481.32 245.477 481.211 245.247C481.105 245.018 480.932 244.838 480.693 244.707C480.454 244.575 480.137 244.509 479.741 244.509H478.193V251H477.312ZM488.433 243.727H489.313V248.543C489.313 249.04 489.196 249.484 488.962 249.874C488.73 250.263 488.402 250.569 487.978 250.794C487.554 251.017 487.057 251.128 486.487 251.128C485.916 251.128 485.419 251.017 484.995 250.794C484.571 250.569 484.242 250.263 484.008 249.874C483.776 249.484 483.66 249.04 483.66 248.543V243.727H484.541V248.472C484.541 248.827 484.619 249.143 484.775 249.42C484.931 249.694 485.154 249.911 485.443 250.07C485.734 250.226 486.082 250.304 486.487 250.304C486.891 250.304 487.239 250.226 487.531 250.07C487.822 249.911 488.044 249.694 488.198 249.42C488.354 249.143 488.433 248.827 488.433 248.472V243.727Z" fill="black"/>
<rect x="459" y="32" width="113" height="107" fill="#56E125"/>
<path d="M497.642 53L495.256 44.2727H496.33L498.153 51.3807H498.239L500.097 44.2727H501.29L503.148 51.3807H503.233L505.057 44.2727H506.131L503.744 53H502.653L500.727 46.0455H500.659L498.733 53H497.642ZM509.361 53.1364C508.77 53.1364 508.251 52.9957 507.805 52.7145C507.362 52.4332 507.016 52.0398 506.766 51.5341C506.518 51.0284 506.395 50.4375 506.395 49.7614C506.395 49.0795 506.518 48.4844 506.766 47.9759C507.016 47.4673 507.362 47.0724 507.805 46.7912C508.251 46.5099 508.77 46.3693 509.361 46.3693C509.952 46.3693 510.469 46.5099 510.912 46.7912C511.358 47.0724 511.705 47.4673 511.952 47.9759C512.202 48.4844 512.327 49.0795 512.327 49.7614C512.327 50.4375 512.202 51.0284 511.952 51.5341C511.705 52.0398 511.358 52.4332 510.912 52.7145C510.469 52.9957 509.952 53.1364 509.361 53.1364ZM509.361 52.233C509.81 52.233 510.179 52.1179 510.469 51.8878C510.759 51.6577 510.973 51.3551 511.112 50.9801C511.251 50.6051 511.321 50.1989 511.321 49.7614C511.321 49.3239 511.251 48.9162 511.112 48.5384C510.973 48.1605 510.759 47.8551 510.469 47.6222C510.179 47.3892 509.81 47.2727 509.361 47.2727C508.912 47.2727 508.543 47.3892 508.253 47.6222C507.963 47.8551 507.749 48.1605 507.609 48.5384C507.47 48.9162 507.401 49.3239 507.401 49.7614C507.401 50.1989 507.47 50.6051 507.609 50.9801C507.749 51.3551 507.963 51.6577 508.253 51.8878C508.543 52.1179 508.912 52.233 509.361 52.233ZM513.862 53V46.4545H514.833V47.4432H514.902C515.021 47.1193 515.237 46.8565 515.549 46.6548C515.862 46.4531 516.214 46.3523 516.606 46.3523C516.68 46.3523 516.772 46.3537 516.883 46.3565C516.994 46.3594 517.078 46.3636 517.135 46.3693V47.392C517.1 47.3835 517.022 47.3707 516.9 47.3537C516.781 47.3338 516.654 47.3239 516.521 47.3239C516.203 47.3239 515.919 47.3906 515.669 47.5241C515.422 47.6548 515.225 47.8366 515.081 48.0696C514.939 48.2997 514.868 48.5625 514.868 48.858V53H513.862ZM519.264 50.6136L519.247 49.3693H519.452L522.315 46.4545H523.56L520.509 49.5398H520.423L519.264 50.6136ZM518.327 53V44.2727H519.332V53H518.327ZM522.486 53L519.929 49.7614L520.645 49.0625L523.764 53H522.486ZM527.329 53.1364C526.698 53.1364 526.154 52.9972 525.697 52.7188C525.242 52.4375 524.891 52.0455 524.644 51.5426C524.4 51.0369 524.278 50.4489 524.278 49.7784C524.278 49.108 524.4 48.517 524.644 48.0057C524.891 47.4915 525.235 47.0909 525.675 46.804C526.119 46.5142 526.636 46.3693 527.227 46.3693C527.567 46.3693 527.904 46.4261 528.237 46.5398C528.569 46.6534 528.871 46.8381 529.144 47.0938C529.417 47.3466 529.634 47.6818 529.796 48.0994C529.958 48.517 530.039 49.0312 530.039 49.642V50.0682H524.994V49.1989H529.016C529.016 48.8295 528.942 48.5 528.795 48.2102C528.65 47.9205 528.442 47.6918 528.173 47.5241C527.906 47.3565 527.59 47.2727 527.227 47.2727C526.826 47.2727 526.479 47.3722 526.187 47.571C525.897 47.767 525.674 48.0227 525.518 48.3381C525.362 48.6534 525.283 48.9915 525.283 49.3523V49.9318C525.283 50.4261 525.369 50.8452 525.539 51.1889C525.712 51.5298 525.952 51.7898 526.259 51.9688C526.566 52.1449 526.923 52.233 527.329 52.233C527.593 52.233 527.832 52.196 528.045 52.1222C528.261 52.0455 528.447 51.9318 528.603 51.7812C528.759 51.6278 528.88 51.4375 528.965 51.2102L529.937 51.483C529.835 51.8125 529.663 52.1023 529.421 52.3523C529.18 52.5994 528.881 52.7926 528.526 52.9318C528.171 53.0682 527.772 53.1364 527.329 53.1364ZM531.569 53V46.4545H532.54V47.4432H532.609C532.728 47.1193 532.944 46.8565 533.256 46.6548C533.569 46.4531 533.921 46.3523 534.313 46.3523C534.387 46.3523 534.479 46.3537 534.59 46.3565C534.701 46.3594 534.785 46.3636 534.842 46.3693V47.392C534.808 47.3835 534.729 47.3707 534.607 47.3537C534.488 47.3338 534.362 47.3239 534.228 47.3239C533.91 47.3239 533.626 47.3906 533.376 47.5241C533.129 47.6548 532.933 47.8366 532.788 48.0696C532.646 48.2997 532.575 48.5625 532.575 48.858V53H531.569Z" fill="black"/>
<rect x="469" y="104" width="30" height="27" fill="#88A2E6"/>
<path d="M474.852 124C474.774 123.761 474.671 123.547 474.543 123.357C474.418 123.165 474.268 123.002 474.092 122.867C473.92 122.732 473.723 122.629 473.503 122.558C473.283 122.487 473.041 122.452 472.778 122.452C472.348 122.452 471.956 122.563 471.603 122.786C471.25 123.008 470.97 123.336 470.761 123.769C470.553 124.202 470.449 124.734 470.449 125.364C470.449 125.993 470.554 126.525 470.765 126.958C470.976 127.391 471.261 127.719 471.621 127.942C471.981 128.164 472.385 128.276 472.835 128.276C473.252 128.276 473.619 128.187 473.936 128.009C474.256 127.829 474.504 127.576 474.682 127.249C474.862 126.92 474.952 126.533 474.952 126.088L475.222 126.145H473.034V125.364H475.804V126.145C475.804 126.744 475.676 127.265 475.42 127.707C475.167 128.15 474.817 128.493 474.369 128.737C473.924 128.979 473.413 129.099 472.835 129.099C472.191 129.099 471.625 128.948 471.138 128.645C470.652 128.342 470.274 127.911 470.001 127.352C469.732 126.794 469.597 126.131 469.597 125.364C469.597 124.788 469.674 124.271 469.827 123.812C469.984 123.35 470.204 122.957 470.488 122.633C470.772 122.308 471.108 122.06 471.496 121.887C471.885 121.714 472.312 121.628 472.778 121.628C473.162 121.628 473.519 121.686 473.851 121.802C474.185 121.915 474.482 122.078 474.742 122.288C475.005 122.497 475.224 122.746 475.399 123.038C475.574 123.326 475.695 123.647 475.761 124H474.852ZM477.312 129V121.727H479.77C480.34 121.727 480.807 121.83 481.169 122.036C481.533 122.24 481.803 122.516 481.979 122.864C482.154 123.212 482.241 123.6 482.241 124.028C482.241 124.457 482.154 124.846 481.979 125.197C481.806 125.547 481.538 125.826 481.176 126.035C480.814 126.241 480.35 126.344 479.784 126.344H478.023V125.562H479.756C480.146 125.562 480.46 125.495 480.697 125.36C480.933 125.225 481.105 125.043 481.211 124.813C481.32 124.581 481.375 124.32 481.375 124.028C481.375 123.737 481.32 123.477 481.211 123.247C481.105 123.018 480.932 122.838 480.693 122.707C480.454 122.575 480.137 122.509 479.741 122.509H478.193V129H477.312ZM488.433 121.727H489.313V126.543C489.313 127.04 489.196 127.484 488.962 127.874C488.73 128.263 488.402 128.569 487.978 128.794C487.554 129.017 487.057 129.128 486.487 129.128C485.916 129.128 485.419 129.017 484.995 128.794C484.571 128.569 484.242 128.263 484.008 127.874C483.776 127.484 483.66 127.04 483.66 126.543V121.727H484.541V126.472C484.541 126.827 484.619 127.143 484.775 127.42C484.931 127.694 485.154 127.911 485.443 128.07C485.734 128.226 486.082 128.304 486.487 128.304C486.892 128.304 487.24 128.226 487.531 128.07C487.822 127.911 488.044 127.694 488.198 127.42C488.355 127.143 488.433 126.827 488.433 126.472V121.727Z" fill="black"/>
<rect width="66" height="25" transform="translate(391.76 260.674) rotate(23.1071)" fill="#E88E8E"/>
<path d="M395.72 273.73L395.386 274.514L392.266 273.183L392.601 272.399L395.72 273.73ZM394.125 271.345L395.05 271.739L392.602 277.477C392.49 277.739 392.445 277.951 392.465 278.114C392.488 278.275 392.551 278.404 392.652 278.5C392.757 278.594 392.878 278.67 393.013 278.728C393.115 278.771 393.201 278.802 393.271 278.819C393.342 278.834 393.399 278.846 393.441 278.855L393.275 279.766C393.202 279.763 393.104 279.749 392.982 279.724C392.859 279.703 392.711 279.655 392.538 279.581C392.277 279.47 392.045 279.304 391.842 279.085C391.642 278.867 391.508 278.607 391.442 278.307C391.378 278.008 391.42 277.684 391.57 277.334L394.125 271.345ZM394.543 280.344L397.112 274.324L398.005 274.705L397.617 275.614L397.68 275.641C397.917 275.39 398.219 275.233 398.585 275.17C398.952 275.107 399.316 275.153 399.676 275.307C399.744 275.336 399.828 275.373 399.929 275.419C400.03 275.465 400.105 275.502 400.155 275.53L399.754 276.47C399.726 276.449 399.659 276.407 399.554 276.343C399.452 276.278 399.339 276.219 399.216 276.167C398.924 276.042 398.636 275.992 398.354 276.017C398.075 276.04 397.824 276.13 397.599 276.288C397.378 276.444 397.21 276.657 397.094 276.929L395.468 280.739L394.543 280.344ZM400.361 282.993C399.98 282.831 399.664 282.611 399.414 282.335C399.166 282.056 399.009 281.74 398.943 281.388C398.878 281.033 398.929 280.659 399.097 280.267C399.244 279.922 399.431 279.672 399.658 279.515C399.887 279.356 400.141 279.264 400.421 279.238C400.7 279.212 400.99 279.228 401.29 279.285C401.594 279.34 401.893 279.409 402.189 279.492C402.574 279.601 402.886 279.693 403.123 279.766C403.365 279.838 403.55 279.866 403.68 279.851C403.813 279.836 403.911 279.755 403.975 279.606L403.988 279.574C404.153 279.188 404.176 278.842 404.055 278.537C403.938 278.234 403.666 277.991 403.24 277.81C402.798 277.621 402.411 277.57 402.078 277.657C401.744 277.743 401.48 277.874 401.284 278.05L400.54 277.362C400.853 277.063 401.184 276.867 401.532 276.775C401.884 276.681 402.233 276.66 402.578 276.712C402.927 276.762 403.253 276.852 403.557 276.981C403.75 277.064 403.962 277.182 404.193 277.336C404.427 277.488 404.632 277.685 404.807 277.927C404.985 278.169 405.091 278.467 405.126 278.818C405.161 279.17 405.077 279.585 404.873 280.063L403.181 284.03L402.256 283.635L402.603 282.82L402.556 282.8C402.438 282.904 402.274 282.999 402.064 283.085C401.854 283.172 401.605 283.215 401.318 283.216C401.03 283.217 400.711 283.143 400.361 282.993ZM400.857 282.223C401.223 282.379 401.562 282.438 401.874 282.402C402.189 282.366 402.458 282.262 402.683 282.089C402.911 281.918 403.078 281.707 403.185 281.456L403.547 280.609C403.487 280.639 403.383 280.646 403.233 280.628C403.087 280.609 402.921 280.577 402.736 280.532C402.555 280.486 402.379 280.438 402.208 280.39C402.041 280.341 401.905 280.301 401.8 280.272C401.547 280.2 401.3 280.156 401.061 280.137C400.826 280.117 400.614 280.149 400.427 280.232C400.244 280.315 400.102 280.474 400.002 280.709C399.864 281.03 399.88 281.324 400.047 281.59C400.218 281.855 400.488 282.065 400.857 282.223ZM404.869 284.75L407.438 278.73L408.363 279.124L405.794 285.145L404.869 284.75ZM408.336 277.927C408.156 277.85 408.027 277.722 407.948 277.544C407.873 277.366 407.872 277.191 407.945 277.019C408.019 276.846 408.146 276.726 408.326 276.658C408.509 276.591 408.691 276.596 408.871 276.673C409.052 276.75 409.18 276.877 409.255 277.054C409.333 277.233 409.336 277.408 409.262 277.581C409.189 277.753 409.06 277.873 408.877 277.94C408.697 278.008 408.516 278.004 408.336 277.927ZM409.958 282.641L408.413 286.262L407.488 285.868L410.057 279.847L410.951 280.229L410.549 281.169L410.628 281.203C410.899 280.957 411.218 280.803 411.585 280.74C411.952 280.675 412.364 280.739 412.818 280.933C413.226 281.107 413.547 281.343 413.781 281.64C414.017 281.935 414.148 282.288 414.174 282.697C414.201 283.104 414.105 283.564 413.886 284.076L412.254 287.901L411.329 287.507L412.935 283.744C413.137 283.271 413.171 282.85 413.038 282.481C412.906 282.11 412.626 281.833 412.197 281.65C411.902 281.524 411.611 281.475 411.324 281.504C411.039 281.534 410.778 281.644 410.54 281.832C410.302 282.021 410.108 282.291 409.958 282.641ZM418.099 290.395L417.731 291.257L412.714 289.117L413.082 288.255L418.099 290.395ZM424.185 285.875L423.85 286.659L420.605 285.275L420.939 284.491L424.185 285.875ZM419.343 290.926L422.266 284.074C422.413 283.73 422.617 283.477 422.877 283.316C423.137 283.155 423.421 283.072 423.729 283.068C424.036 283.063 424.334 283.122 424.621 283.245C424.849 283.342 425.026 283.439 425.155 283.537C425.283 283.635 425.375 283.715 425.432 283.776L424.825 284.462C424.784 284.426 424.727 284.379 424.654 284.32C424.583 284.262 424.481 284.204 424.348 284.147C424.042 284.017 423.788 284 423.587 284.096C423.387 284.193 423.224 284.391 423.097 284.689L420.268 291.32L419.343 290.926ZM427.757 291.606L429.275 288.047L430.2 288.442L427.631 294.462L426.706 294.068L427.141 293.049L427.078 293.022C426.807 293.267 426.476 293.434 426.087 293.521C425.699 293.605 425.278 293.551 424.823 293.357C424.447 293.196 424.147 292.971 423.925 292.682C423.704 292.39 423.581 292.041 423.556 291.635C423.533 291.226 423.63 290.766 423.849 290.254L425.481 286.429L426.406 286.823L424.801 290.586C424.613 291.025 424.587 291.427 424.721 291.794C424.858 292.161 425.118 292.426 425.502 292.59C425.732 292.688 425.991 292.729 426.279 292.713C426.57 292.698 426.848 292.604 427.113 292.43C427.382 292.257 427.596 291.983 427.757 291.606ZM431.796 291.958L430.251 295.58L429.326 295.185L431.894 289.165L432.788 289.546L432.387 290.487L432.465 290.52C432.737 290.275 433.056 290.121 433.422 290.058C433.79 289.992 434.201 290.057 434.656 290.251C435.063 290.424 435.384 290.66 435.619 290.958C435.854 291.253 435.985 291.605 436.011 292.015C436.038 292.422 435.942 292.881 435.724 293.393L434.092 297.219L433.167 296.824L434.772 293.061C434.974 292.589 435.008 292.168 434.875 291.799C434.743 291.428 434.463 291.151 434.035 290.968C433.739 290.842 433.448 290.793 433.161 290.822C432.876 290.852 432.615 290.961 432.377 291.15C432.139 291.339 431.945 291.608 431.796 291.958ZM438.174 299.109C437.61 298.868 437.181 298.528 436.887 298.087C436.593 297.647 436.436 297.146 436.416 296.584C436.396 296.023 436.514 295.442 436.771 294.841C437.032 294.229 437.374 293.738 437.799 293.366C438.227 292.993 438.699 292.76 439.217 292.669C439.738 292.577 440.271 292.646 440.814 292.878C441.238 293.059 441.586 293.3 441.858 293.602C442.131 293.903 442.316 294.242 442.412 294.616C442.509 294.991 442.503 295.378 442.395 295.776L441.47 295.382C441.516 295.077 441.463 294.767 441.31 294.452C441.161 294.135 440.883 293.89 440.475 293.716C440.115 293.562 439.758 293.521 439.406 293.593C439.058 293.664 438.736 293.837 438.439 294.112C438.146 294.385 437.903 294.75 437.709 295.204C437.511 295.669 437.411 296.106 437.41 296.513C437.412 296.921 437.507 297.278 437.694 297.584C437.885 297.891 438.163 298.122 438.529 298.278C438.769 298.381 439.005 298.432 439.237 298.432C439.468 298.432 439.686 298.383 439.888 298.284C440.091 298.185 440.268 298.038 440.419 297.843L441.344 298.238C441.14 298.571 440.874 298.836 440.547 299.033C440.222 299.228 439.856 299.337 439.448 299.361C439.043 299.382 438.618 299.299 438.174 299.109Z" fill="black"/>
<rect width="66" height="25" transform="translate(375.922 213.691) rotate(-26.2551)" fill="#E88E8E"/>
<path d="M388.409 219.189L388.786 219.953L385.744 221.453L385.367 220.689L388.409 219.189ZM385.56 218.845L386.462 218.401L389.222 223.996C389.348 224.25 389.479 224.423 389.616 224.514C389.754 224.601 389.892 224.638 390.03 224.623C390.17 224.605 390.306 224.563 390.439 224.498C390.538 224.449 390.617 224.403 390.676 224.362C390.733 224.318 390.779 224.282 390.814 224.256L391.397 224.975C391.347 225.029 391.273 225.094 391.175 225.171C391.078 225.25 390.945 225.331 390.777 225.414C390.522 225.54 390.245 225.608 389.947 225.619C389.651 225.629 389.367 225.562 389.096 225.417C388.828 225.27 388.609 225.026 388.441 224.685L385.56 218.845ZM392.662 224.39L389.766 218.519L390.637 218.09L391.075 218.976L391.136 218.946C391.1 218.603 391.177 218.272 391.368 217.953C391.559 217.633 391.83 217.387 392.182 217.214C392.248 217.181 392.332 217.141 392.432 217.095C392.533 217.048 392.61 217.015 392.663 216.995L393.116 217.912C393.082 217.92 393.006 217.943 392.889 217.982C392.773 218.017 392.655 218.064 392.535 218.123C392.25 218.263 392.025 218.449 391.86 218.679C391.696 218.906 391.6 219.156 391.574 219.429C391.548 219.698 391.601 219.965 391.731 220.23L393.564 223.945L392.662 224.39ZM398.461 221.7C398.089 221.883 397.717 221.98 397.345 221.989C396.971 221.996 396.629 221.91 396.319 221.73C396.007 221.548 395.757 221.266 395.569 220.884C395.403 220.548 395.335 220.242 395.364 219.968C395.392 219.691 395.488 219.438 395.65 219.209C395.813 218.98 396.013 218.77 396.252 218.58C396.492 218.385 396.739 218.203 396.994 218.033C397.329 217.811 397.601 217.634 397.811 217.502C398.023 217.366 398.165 217.243 398.238 217.134C398.314 217.024 398.316 216.897 398.244 216.751L398.229 216.721C398.043 216.344 397.795 216.102 397.486 215.995C397.179 215.886 396.818 215.934 396.402 216.139C395.972 216.352 395.681 216.612 395.529 216.922C395.378 217.231 395.305 217.517 395.311 217.78L394.304 217.896C394.281 217.464 394.348 217.086 394.505 216.762C394.663 216.433 394.874 216.155 395.138 215.927C395.404 215.694 395.684 215.505 395.98 215.359C396.168 215.266 396.396 215.183 396.663 215.108C396.932 215.029 397.215 215.002 397.512 215.027C397.812 215.05 398.106 215.163 398.396 215.365C398.686 215.567 398.946 215.901 399.176 216.368L401.084 220.235L400.182 220.68L399.79 219.885L399.744 219.908C399.746 220.065 399.711 220.252 399.64 220.468C399.569 220.683 399.44 220.9 399.253 221.119C399.067 221.338 398.803 221.532 398.461 221.7ZM398.199 220.822C398.556 220.646 398.822 220.428 398.997 220.167C399.175 219.905 399.272 219.632 399.288 219.349C399.306 219.064 399.254 218.8 399.134 218.555L398.727 217.73C398.711 217.795 398.648 217.878 398.536 217.98C398.427 218.079 398.295 218.184 398.14 218.295C397.987 218.402 397.837 218.504 397.689 218.603C397.542 218.697 397.424 218.775 397.333 218.835C397.114 218.981 396.919 219.139 396.749 219.309C396.581 219.474 396.467 219.655 396.409 219.852C396.352 220.045 396.38 220.256 396.493 220.485C396.648 220.798 396.881 220.978 397.192 221.024C397.504 221.067 397.84 220.999 398.199 220.822ZM402.73 219.423L399.834 213.553L400.736 213.108L403.632 218.978L402.73 219.423ZM399.81 212.349C399.635 212.435 399.454 212.45 399.267 212.393C399.083 212.335 398.95 212.222 398.867 212.054C398.784 211.886 398.775 211.711 398.841 211.53C398.909 211.347 399.031 211.212 399.207 211.126C399.383 211.039 399.563 211.025 399.747 211.083C399.933 211.14 400.068 211.252 400.151 211.42C400.234 211.589 400.241 211.764 400.173 211.946C400.107 212.128 399.986 212.262 399.81 212.349ZM404.444 214.187L406.186 217.719L405.284 218.164L402.388 212.293L403.26 211.864L403.712 212.781L403.789 212.743C403.779 212.377 403.87 212.035 404.061 211.715C404.251 211.394 404.567 211.124 405.011 210.905C405.408 210.709 405.796 210.619 406.175 210.635C406.552 210.648 406.904 210.779 407.232 211.026C407.558 211.27 407.845 211.642 408.091 212.141L409.931 215.871L409.029 216.316L407.219 212.647C406.992 212.186 406.695 211.886 406.329 211.747C405.961 211.605 405.568 211.637 405.15 211.843C404.862 211.985 404.636 212.175 404.471 212.411C404.308 212.647 404.221 212.916 404.209 213.22C404.197 213.523 404.276 213.846 404.444 214.187ZM415.63 213.06L416.045 213.901L411.153 216.314L410.738 215.473L415.63 213.06ZM416.164 205.499L416.541 206.263L413.376 207.824L412.999 207.059L416.164 205.499ZM416.843 212.462L413.548 205.782C413.382 205.445 413.322 205.126 413.37 204.824C413.417 204.522 413.539 204.253 413.736 204.016C413.933 203.78 414.172 203.592 414.452 203.454C414.674 203.345 414.863 203.273 415.021 203.24C415.179 203.206 415.3 203.188 415.383 203.185L415.508 204.092C415.455 204.1 415.382 204.112 415.289 204.129C415.198 204.145 415.088 204.185 414.958 204.249C414.66 204.397 414.482 204.578 414.424 204.794C414.368 205.008 414.412 205.26 414.555 205.551L417.745 212.017L416.843 212.462ZM422.839 206.52L421.127 203.05L422.029 202.605L424.925 208.476L424.023 208.92L423.533 207.927L423.471 207.957C423.481 208.323 423.392 208.682 423.205 209.034C423.016 209.384 422.7 209.668 422.257 209.887C421.89 210.068 421.524 210.148 421.159 210.128C420.794 210.106 420.449 209.972 420.125 209.726C419.8 209.478 419.514 209.104 419.268 208.605L417.428 204.875L418.33 204.43L420.139 208.099C420.351 208.527 420.639 208.809 421.004 208.946C421.372 209.081 421.743 209.057 422.117 208.872C422.341 208.761 422.541 208.592 422.716 208.363C422.894 208.132 423.004 207.86 423.045 207.545C423.089 207.229 423.02 206.887 422.839 206.52ZM425.737 203.685L427.479 207.216L426.577 207.661L423.681 201.791L424.552 201.361L425.005 202.278L425.081 202.24C425.072 201.874 425.163 201.532 425.354 201.213C425.543 200.891 425.86 200.621 426.303 200.402C426.701 200.206 427.089 200.116 427.467 200.132C427.845 200.146 428.197 200.276 428.525 200.523C428.851 200.767 429.138 201.139 429.384 201.638L431.224 205.368L430.322 205.813L428.512 202.145C428.285 201.683 427.988 201.383 427.621 201.244C427.254 201.102 426.861 201.134 426.443 201.341C426.155 201.483 425.929 201.672 425.763 201.909C425.601 202.144 425.514 202.414 425.502 202.717C425.49 203.021 425.568 203.343 425.737 203.685ZM435.317 203.502C434.767 203.773 434.229 203.877 433.703 203.813C433.177 203.749 432.695 203.542 432.256 203.191C431.817 202.841 431.453 202.373 431.164 201.787C430.87 201.191 430.72 200.61 430.714 200.046C430.71 199.478 430.841 198.968 431.109 198.516C431.379 198.06 431.778 197.702 432.308 197.44C432.721 197.237 433.131 197.13 433.537 197.119C433.944 197.109 434.321 197.189 434.668 197.36C435.015 197.53 435.305 197.787 435.537 198.128L434.635 198.573C434.434 198.34 434.164 198.178 433.826 198.089C433.488 197.995 433.121 198.047 432.723 198.243C432.372 198.416 432.109 198.66 431.934 198.974C431.761 199.285 431.682 199.642 431.698 200.046C431.715 200.446 431.832 200.868 432.051 201.311C432.275 201.765 432.541 202.125 432.849 202.39C433.16 202.655 433.493 202.816 433.847 202.872C434.204 202.928 434.561 202.867 434.917 202.691C435.152 202.576 435.344 202.43 435.495 202.254C435.646 202.078 435.75 201.881 435.807 201.663C435.864 201.445 435.868 201.215 435.819 200.973L436.721 200.529C436.84 200.9 436.868 201.274 436.804 201.651C436.741 202.025 436.585 202.374 436.337 202.699C436.09 203.02 435.75 203.288 435.317 203.502Z" fill="black"/>
<rect width="66" height="25" transform="translate(379 160.067) rotate(-50.6911)" fill="#E88E8E"/>
<path d="M392.643 159.906L393.302 160.446L391.154 163.071L390.494 162.531L392.643 159.906ZM389.907 160.773L390.544 159.995L395.371 163.947C395.591 164.127 395.782 164.23 395.944 164.256C396.106 164.278 396.247 164.254 396.367 164.184C396.487 164.109 396.593 164.015 396.687 163.9C396.757 163.815 396.81 163.741 396.847 163.679C396.881 163.615 396.908 163.563 396.928 163.525L397.757 163.939C397.733 164.008 397.693 164.098 397.635 164.209C397.58 164.321 397.493 164.45 397.374 164.595C397.194 164.815 396.97 164.992 396.703 165.125C396.438 165.257 396.151 165.312 395.845 165.292C395.54 165.27 395.24 165.139 394.945 164.898L389.907 160.773ZM398.666 162.883L393.601 158.736L394.217 157.984L394.982 158.611L395.025 158.558C394.85 158.26 394.783 157.927 394.825 157.557C394.867 157.188 395.012 156.851 395.261 156.548C395.308 156.491 395.367 156.42 395.44 156.336C395.512 156.252 395.568 156.19 395.609 156.15L396.4 156.798C396.372 156.819 396.312 156.871 396.222 156.955C396.131 157.034 396.043 157.126 395.959 157.229C395.757 157.475 395.629 157.738 395.574 158.016C395.518 158.29 395.535 158.556 395.623 158.816C395.711 159.072 395.869 159.293 396.098 159.48L399.303 162.104L398.666 162.883ZM402.833 158.035C402.571 158.356 402.272 158.597 401.937 158.76C401.599 158.921 401.252 158.984 400.895 158.949C400.536 158.912 400.192 158.758 399.862 158.488C399.572 158.251 399.384 158.001 399.297 157.739C399.208 157.475 399.191 157.206 399.244 156.93C399.297 156.654 399.393 156.38 399.531 156.108C399.669 155.832 399.819 155.563 399.981 155.303C400.193 154.963 400.368 154.689 400.505 154.482C400.641 154.27 400.72 154.1 400.742 153.97C400.765 153.839 400.714 153.722 400.588 153.619L400.562 153.598C400.237 153.331 399.911 153.213 399.585 153.244C399.261 153.272 398.952 153.465 398.659 153.824C398.355 154.195 398.197 154.553 398.187 154.897C398.177 155.241 398.229 155.532 398.344 155.769L397.475 156.292C397.276 155.908 397.18 155.536 397.188 155.175C397.197 154.811 397.274 154.47 397.42 154.153C397.565 153.832 397.743 153.544 397.951 153.289C398.084 153.126 398.257 152.955 398.47 152.777C398.681 152.594 398.928 152.452 399.208 152.352C399.491 152.249 399.806 152.23 400.154 152.294C400.501 152.358 400.876 152.555 401.278 152.884L404.615 155.616L403.978 156.394L403.292 155.833L403.26 155.873C403.326 156.015 403.372 156.199 403.397 156.425C403.421 156.651 403.394 156.902 403.314 157.178C403.235 157.455 403.074 157.74 402.833 158.035ZM402.231 157.344C402.483 157.036 402.635 156.727 402.687 156.417C402.741 156.105 402.716 155.817 402.613 155.552C402.512 155.286 402.356 155.066 402.145 154.894L401.433 154.31C401.445 154.376 401.422 154.478 401.363 154.617C401.304 154.752 401.227 154.902 401.132 155.067C401.037 155.228 400.943 155.384 400.849 155.534C400.755 155.681 400.679 155.801 400.621 155.893C400.482 156.117 400.37 156.341 400.286 156.566C400.2 156.786 400.172 156.998 400.2 157.201C400.228 157.4 400.341 157.581 400.539 157.743C400.809 157.964 401.096 158.031 401.398 157.945C401.7 157.854 401.978 157.654 402.231 157.344ZM405.778 154.196L400.713 150.05L401.351 149.271L406.415 153.418L405.778 154.196ZM400.193 148.963C400.069 149.114 399.91 149.203 399.717 149.228C399.526 149.251 399.357 149.204 399.212 149.085C399.067 148.966 398.987 148.81 398.972 148.618C398.959 148.424 399.014 148.251 399.138 148.099C399.262 147.947 399.42 147.86 399.612 147.837C399.805 147.811 399.974 147.858 400.119 147.977C400.264 148.096 400.344 148.252 400.357 148.447C400.372 148.639 400.317 148.811 400.193 148.963ZM405.172 148.72L408.219 151.215L407.582 151.993L402.517 147.846L403.133 147.094L403.924 147.742L403.978 147.676C403.818 147.347 403.759 146.998 403.801 146.628C403.841 146.257 404.017 145.88 404.33 145.497C404.611 145.154 404.927 144.912 405.278 144.77C405.627 144.626 406.002 144.599 406.403 144.688C406.801 144.776 407.216 144.996 407.647 145.349L410.865 147.983L410.227 148.761L407.062 146.17C406.664 145.844 406.27 145.694 405.879 145.719C405.485 145.742 405.141 145.933 404.846 146.294C404.642 146.542 404.515 146.808 404.462 147.092C404.411 147.374 404.443 147.655 404.558 147.937C404.673 148.218 404.878 148.479 405.172 148.72ZM414.89 143.066L415.616 143.66L412.16 147.881L411.435 147.287L414.89 143.066ZM412.248 135.961L412.907 136.501L410.672 139.231L410.013 138.692L412.248 135.961ZM415.747 142.02L409.983 137.301C409.693 137.064 409.507 136.798 409.425 136.503C409.343 136.208 409.343 135.913 409.425 135.616C409.506 135.319 409.646 135.05 409.844 134.808C410 134.617 410.144 134.473 410.273 134.378C410.403 134.282 410.505 134.215 410.58 134.177L411.069 134.952C411.024 134.981 410.962 135.023 410.885 135.077C410.809 135.129 410.726 135.211 410.634 135.323C410.423 135.58 410.336 135.819 410.372 136.039C410.41 136.258 410.554 136.469 410.805 136.675L416.384 141.242L415.747 142.02ZM418.748 134.13L415.754 131.679L416.391 130.901L421.456 135.048L420.819 135.826L419.961 135.124L419.918 135.177C420.078 135.506 420.146 135.87 420.121 136.268C420.094 136.664 419.924 137.054 419.61 137.436C419.351 137.753 419.052 137.977 418.712 138.11C418.369 138.241 418 138.262 417.603 138.172C417.205 138.081 416.79 137.858 416.359 137.506L413.141 134.871L413.778 134.093L416.943 136.684C417.313 136.987 417.692 137.125 418.081 137.098C418.472 137.069 418.799 136.893 419.064 136.57C419.222 136.376 419.334 136.139 419.399 135.858C419.465 135.575 419.452 135.282 419.359 134.978C419.268 134.672 419.065 134.39 418.748 134.13ZM420.213 130.35L423.26 132.844L422.623 133.622L417.558 129.476L418.174 128.724L418.965 129.372L419.019 129.306C418.859 128.977 418.8 128.627 418.842 128.258C418.882 127.886 419.058 127.509 419.371 127.127C419.652 126.784 419.968 126.542 420.319 126.4C420.668 126.256 421.043 126.229 421.443 126.318C421.842 126.405 422.256 126.625 422.687 126.978L425.905 129.613L425.268 130.391L422.103 127.8C421.705 127.474 421.311 127.323 420.919 127.348C420.526 127.371 420.182 127.563 419.887 127.924C419.683 128.172 419.555 128.438 419.503 128.722C419.452 129.003 419.484 129.285 419.599 129.566C419.714 129.847 419.919 130.109 420.213 130.35ZM428.86 126.22C428.471 126.695 428.024 127.012 427.519 127.171C427.014 127.331 426.489 127.341 425.945 127.204C425.4 127.066 424.875 126.791 424.369 126.377C423.855 125.956 423.478 125.49 423.24 124.978C423.001 124.463 422.91 123.944 422.966 123.422C423.023 122.895 423.238 122.404 423.613 121.946C423.904 121.59 424.233 121.323 424.599 121.145C424.965 120.968 425.341 120.885 425.728 120.897C426.115 120.909 426.484 121.022 426.837 121.237L426.2 122.016C425.92 121.886 425.608 121.85 425.262 121.909C424.917 121.964 424.603 122.163 424.323 122.505C424.074 122.809 423.936 123.14 423.907 123.498C423.877 123.852 423.953 124.21 424.135 124.571C424.316 124.929 424.598 125.264 424.98 125.577C425.371 125.897 425.762 126.115 426.153 126.229C426.546 126.342 426.915 126.35 427.261 126.255C427.609 126.158 427.909 125.955 428.161 125.648C428.326 125.445 428.441 125.233 428.506 125.011C428.571 124.788 428.584 124.566 428.545 124.344C428.507 124.121 428.415 123.91 428.27 123.711L428.907 122.933C429.17 123.221 429.351 123.551 429.448 123.921C429.545 124.286 429.548 124.669 429.456 125.067C429.364 125.462 429.166 125.846 428.86 126.22Z" fill="black"/>
<rect x="459" y="269" width="113" height="107" fill="#56E125"/>
<path d="M497.642 290L495.256 281.273H496.329L498.153 288.381H498.239L500.096 281.273H501.29L503.148 288.381H503.233L505.057 281.273H506.131L503.744 290H502.653L500.727 283.045H500.659L498.733 290H497.642ZM509.361 290.136C508.77 290.136 508.251 289.996 507.805 289.714C507.362 289.433 507.016 289.04 506.766 288.534C506.518 288.028 506.395 287.437 506.395 286.761C506.395 286.08 506.518 285.484 506.766 284.976C507.016 284.467 507.362 284.072 507.805 283.791C508.251 283.51 508.77 283.369 509.361 283.369C509.952 283.369 510.469 283.51 510.912 283.791C511.358 284.072 511.704 284.467 511.952 284.976C512.202 285.484 512.327 286.08 512.327 286.761C512.327 287.437 512.202 288.028 511.952 288.534C511.704 289.04 511.358 289.433 510.912 289.714C510.469 289.996 509.952 290.136 509.361 290.136ZM509.361 289.233C509.81 289.233 510.179 289.118 510.469 288.888C510.758 288.658 510.973 288.355 511.112 287.98C511.251 287.605 511.321 287.199 511.321 286.761C511.321 286.324 511.251 285.916 511.112 285.538C510.973 285.161 510.758 284.855 510.469 284.622C510.179 284.389 509.81 284.273 509.361 284.273C508.912 284.273 508.542 284.389 508.253 284.622C507.963 284.855 507.748 285.161 507.609 285.538C507.47 285.916 507.4 286.324 507.4 286.761C507.4 287.199 507.47 287.605 507.609 287.98C507.748 288.355 507.963 288.658 508.253 288.888C508.542 289.118 508.912 289.233 509.361 289.233ZM513.862 290V283.455H514.833V284.443H514.902C515.021 284.119 515.237 283.857 515.549 283.655C515.862 283.453 516.214 283.352 516.606 283.352C516.68 283.352 516.772 283.354 516.883 283.357C516.994 283.359 517.078 283.364 517.134 283.369V284.392C517.1 284.384 517.022 284.371 516.9 284.354C516.781 284.334 516.654 284.324 516.521 284.324C516.203 284.324 515.919 284.391 515.669 284.524C515.421 284.655 515.225 284.837 515.08 285.07C514.938 285.3 514.867 285.562 514.867 285.858V290H513.862ZM519.264 287.614L519.247 286.369H519.452L522.315 283.455H523.56L520.508 286.54H520.423L519.264 287.614ZM518.327 290V281.273H519.332V290H518.327ZM522.486 290L519.929 286.761L520.645 286.062L523.764 290H522.486ZM527.329 290.136C526.698 290.136 526.154 289.997 525.697 289.719C525.242 289.438 524.891 289.045 524.644 288.543C524.4 288.037 524.278 287.449 524.278 286.778C524.278 286.108 524.4 285.517 524.644 285.006C524.891 284.491 525.235 284.091 525.675 283.804C526.118 283.514 526.636 283.369 527.226 283.369C527.567 283.369 527.904 283.426 528.236 283.54C528.569 283.653 528.871 283.838 529.144 284.094C529.417 284.347 529.634 284.682 529.796 285.099C529.958 285.517 530.039 286.031 530.039 286.642V287.068H524.993V286.199H529.016C529.016 285.83 528.942 285.5 528.795 285.21C528.65 284.92 528.442 284.692 528.172 284.524C527.905 284.357 527.59 284.273 527.226 284.273C526.826 284.273 526.479 284.372 526.187 284.571C525.897 284.767 525.674 285.023 525.518 285.338C525.361 285.653 525.283 285.991 525.283 286.352V286.932C525.283 287.426 525.368 287.845 525.539 288.189C525.712 288.53 525.952 288.79 526.259 288.969C526.566 289.145 526.922 289.233 527.329 289.233C527.593 289.233 527.832 289.196 528.045 289.122C528.261 289.045 528.447 288.932 528.603 288.781C528.759 288.628 528.88 288.437 528.965 288.21L529.937 288.483C529.834 288.812 529.663 289.102 529.421 289.352C529.18 289.599 528.881 289.793 528.526 289.932C528.171 290.068 527.772 290.136 527.329 290.136ZM531.569 290V283.455H532.54V284.443H532.609C532.728 284.119 532.944 283.857 533.256 283.655C533.569 283.453 533.921 283.352 534.313 283.352C534.387 283.352 534.479 283.354 534.59 283.357C534.701 283.359 534.785 283.364 534.841 283.369V284.392C534.807 284.384 534.729 284.371 534.607 284.354C534.488 284.334 534.361 284.324 534.228 284.324C533.91 284.324 533.626 284.391 533.376 284.524C533.128 284.655 532.932 284.837 532.788 285.07C532.645 285.3 532.574 285.562 532.574 285.858V290H531.569Z" fill="black"/>
<rect x="469" y="341" width="30" height="27" fill="#88A2E6"/>
<path d="M474.852 361C474.774 360.761 474.671 360.547 474.543 360.357C474.418 360.165 474.267 360.002 474.092 359.867C473.919 359.732 473.723 359.629 473.503 359.558C473.283 359.487 473.041 359.452 472.778 359.452C472.347 359.452 471.956 359.563 471.603 359.786C471.25 360.008 470.97 360.336 470.761 360.769C470.553 361.202 470.449 361.734 470.449 362.364C470.449 362.993 470.554 363.525 470.765 363.958C470.975 364.391 471.261 364.719 471.621 364.942C471.98 365.164 472.385 365.276 472.835 365.276C473.252 365.276 473.619 365.187 473.936 365.009C474.256 364.829 474.504 364.576 474.682 364.249C474.862 363.92 474.952 363.533 474.952 363.088L475.221 363.145H473.034V362.364H475.804V363.145C475.804 363.744 475.676 364.265 475.42 364.707C475.167 365.15 474.817 365.493 474.369 365.737C473.924 365.979 473.413 366.099 472.835 366.099C472.191 366.099 471.625 365.948 471.138 365.645C470.652 365.342 470.274 364.911 470.001 364.352C469.731 363.794 469.596 363.131 469.596 362.364C469.596 361.788 469.673 361.271 469.827 360.812C469.984 360.35 470.204 359.957 470.488 359.633C470.772 359.308 471.108 359.06 471.496 358.887C471.885 358.714 472.312 358.628 472.778 358.628C473.162 358.628 473.519 358.686 473.851 358.802C474.185 358.915 474.482 359.078 474.742 359.288C475.005 359.497 475.224 359.746 475.399 360.038C475.574 360.326 475.695 360.647 475.761 361H474.852ZM477.312 366V358.727H479.77C480.34 358.727 480.807 358.83 481.169 359.036C481.533 359.24 481.803 359.516 481.978 359.864C482.154 360.212 482.241 360.6 482.241 361.028C482.241 361.457 482.154 361.846 481.978 362.197C481.806 362.547 481.538 362.826 481.176 363.035C480.814 363.241 480.35 363.344 479.784 363.344H478.022V362.562H479.755C480.146 362.562 480.46 362.495 480.696 362.36C480.933 362.225 481.105 362.043 481.211 361.813C481.32 361.581 481.375 361.32 481.375 361.028C481.375 360.737 481.32 360.477 481.211 360.247C481.105 360.018 480.932 359.838 480.693 359.707C480.454 359.575 480.137 359.509 479.741 359.509H478.193V366H477.312ZM488.433 358.727H489.313V363.543C489.313 364.04 489.196 364.484 488.962 364.874C488.73 365.263 488.402 365.569 487.978 365.794C487.554 366.017 487.057 366.128 486.487 366.128C485.916 366.128 485.419 366.017 484.995 365.794C484.571 365.569 484.242 365.263 484.008 364.874C483.776 364.484 483.66 364.04 483.66 363.543V358.727H484.541V363.472C484.541 363.827 484.619 364.143 484.775 364.42C484.931 364.694 485.154 364.911 485.443 365.07C485.734 365.226 486.082 365.304 486.487 365.304C486.891 365.304 487.239 365.226 487.531 365.07C487.822 364.911 488.044 364.694 488.198 364.42C488.354 364.143 488.433 363.827 488.433 363.472V358.727Z" fill="black"/>
<ellipse cx="301.5" cy="160.5" rx="63.5" ry="31.5" fill="#E0FFB9"/>
<path d="M266.545 158.209C266.494 157.777 266.286 157.442 265.923 157.203C265.559 156.964 265.113 156.845 264.585 156.845C264.198 156.845 263.86 156.908 263.571 157.033C263.284 157.158 263.059 157.329 262.897 157.548C262.738 157.767 262.659 158.015 262.659 158.294C262.659 158.527 262.714 158.727 262.825 158.895C262.938 159.06 263.083 159.197 263.259 159.308C263.436 159.416 263.62 159.506 263.813 159.577C264.007 159.645 264.184 159.7 264.346 159.743L265.232 159.981C265.46 160.041 265.713 160.123 265.991 160.229C266.272 160.334 266.541 160.477 266.796 160.659C267.055 160.838 267.268 161.068 267.436 161.349C267.603 161.631 267.687 161.976 267.687 162.385C267.687 162.856 267.563 163.283 267.316 163.663C267.072 164.044 266.714 164.346 266.242 164.571C265.774 164.795 265.204 164.908 264.534 164.908C263.909 164.908 263.367 164.807 262.91 164.605C262.456 164.403 262.098 164.122 261.836 163.761C261.578 163.4 261.431 162.981 261.397 162.504H262.488C262.517 162.834 262.627 163.106 262.821 163.322C263.017 163.535 263.264 163.694 263.562 163.8C263.863 163.902 264.187 163.953 264.534 163.953C264.937 163.953 265.299 163.888 265.62 163.757C265.941 163.623 266.196 163.439 266.383 163.203C266.571 162.964 266.664 162.686 266.664 162.368C266.664 162.078 266.583 161.842 266.421 161.66C266.259 161.479 266.046 161.331 265.782 161.217C265.518 161.104 265.232 161.004 264.926 160.919L263.852 160.612C263.17 160.416 262.63 160.136 262.232 159.773C261.835 159.409 261.636 158.933 261.636 158.345C261.636 157.856 261.768 157.43 262.032 157.067C262.299 156.7 262.657 156.416 263.106 156.214C263.558 156.01 264.062 155.908 264.619 155.908C265.181 155.908 265.681 156.008 266.119 156.21C266.556 156.409 266.903 156.682 267.159 157.028C267.417 157.375 267.554 157.768 267.568 158.209H266.545ZM271.947 164.89C271.334 164.89 270.805 164.746 270.362 164.456C269.919 164.166 269.578 163.767 269.339 163.258C269.101 162.75 268.981 162.169 268.981 161.515C268.981 160.851 269.104 160.264 269.348 159.756C269.595 159.244 269.939 158.845 270.379 158.558C270.822 158.268 271.339 158.123 271.93 158.123C272.391 158.123 272.805 158.209 273.175 158.379C273.544 158.55 273.846 158.788 274.082 159.095C274.318 159.402 274.464 159.76 274.521 160.169H273.516C273.439 159.871 273.268 159.606 273.004 159.376C272.743 159.143 272.391 159.027 271.947 159.027C271.555 159.027 271.212 159.129 270.916 159.334C270.623 159.535 270.395 159.821 270.23 160.19C270.068 160.557 269.987 160.987 269.987 161.481C269.987 161.987 270.067 162.427 270.226 162.802C270.388 163.177 270.615 163.469 270.908 163.676C271.203 163.883 271.55 163.987 271.947 163.987C272.209 163.987 272.446 163.942 272.659 163.851C272.872 163.76 273.052 163.629 273.2 163.459C273.348 163.288 273.453 163.084 273.516 162.845H274.521C274.464 163.231 274.324 163.579 274.099 163.889C273.878 164.196 273.584 164.44 273.217 164.622C272.854 164.801 272.43 164.89 271.947 164.89ZM277.918 164.908C277.503 164.908 277.126 164.829 276.788 164.673C276.45 164.514 276.182 164.285 275.983 163.987C275.784 163.686 275.685 163.322 275.685 162.896C275.685 162.521 275.758 162.217 275.906 161.984C276.054 161.748 276.251 161.564 276.498 161.43C276.746 161.297 277.018 161.197 277.317 161.132C277.618 161.064 277.92 161.01 278.224 160.97C278.622 160.919 278.945 160.881 279.192 160.855C279.442 160.827 279.623 160.78 279.737 160.714C279.854 160.649 279.912 160.535 279.912 160.373V160.339C279.912 159.919 279.797 159.592 279.567 159.359C279.339 159.126 278.994 159.01 278.531 159.01C278.051 159.01 277.675 159.115 277.402 159.325C277.129 159.535 276.937 159.76 276.827 159.998L275.872 159.658C276.043 159.26 276.27 158.95 276.554 158.729C276.841 158.504 277.153 158.348 277.491 158.26C277.832 158.169 278.168 158.123 278.497 158.123C278.707 158.123 278.949 158.149 279.221 158.2C279.497 158.248 279.763 158.349 280.018 158.503C280.277 158.656 280.491 158.888 280.662 159.197C280.832 159.507 280.918 159.922 280.918 160.442V164.754H279.912V163.868H279.861C279.793 164.01 279.679 164.162 279.52 164.324C279.361 164.486 279.149 164.623 278.885 164.737C278.621 164.851 278.298 164.908 277.918 164.908ZM278.071 164.004C278.469 164.004 278.804 163.926 279.077 163.77C279.352 163.613 279.56 163.412 279.699 163.165C279.841 162.917 279.912 162.658 279.912 162.385V161.464C279.869 161.515 279.775 161.562 279.631 161.605C279.489 161.645 279.324 161.68 279.136 161.711C278.952 161.74 278.771 161.765 278.595 161.788C278.422 161.808 278.281 161.825 278.173 161.839C277.912 161.873 277.668 161.929 277.44 162.006C277.216 162.079 277.034 162.192 276.895 162.342C276.758 162.49 276.69 162.692 276.69 162.947C276.69 163.297 276.82 163.561 277.078 163.74C277.339 163.916 277.67 164.004 278.071 164.004ZM283.759 156.027V164.754H282.753V156.027H283.759ZM285.601 164.754V158.209H286.606V164.754H285.601ZM286.112 157.118C285.916 157.118 285.747 157.051 285.605 156.917C285.466 156.784 285.396 156.623 285.396 156.436C285.396 156.248 285.466 156.088 285.605 155.954C285.747 155.821 285.916 155.754 286.112 155.754C286.308 155.754 286.476 155.821 286.615 155.954C286.757 156.088 286.828 156.248 286.828 156.436C286.828 156.623 286.757 156.784 286.615 156.917C286.476 157.051 286.308 157.118 286.112 157.118ZM289.454 160.817V164.754H288.448V158.209H289.42V159.231H289.505C289.659 158.899 289.892 158.632 290.204 158.43C290.517 158.226 290.92 158.123 291.414 158.123C291.857 158.123 292.245 158.214 292.578 158.396C292.91 158.575 293.169 158.848 293.353 159.214C293.538 159.578 293.63 160.038 293.63 160.595V164.754H292.625V160.663C292.625 160.149 292.491 159.748 292.224 159.461C291.957 159.172 291.59 159.027 291.125 159.027C290.804 159.027 290.517 159.096 290.264 159.236C290.014 159.375 289.816 159.578 289.671 159.845C289.527 160.112 289.454 160.436 289.454 160.817ZM298.11 167.345C297.624 167.345 297.207 167.283 296.857 167.158C296.508 167.035 296.217 166.873 295.984 166.672C295.753 166.473 295.57 166.26 295.434 166.033L296.235 165.47C296.326 165.589 296.441 165.726 296.58 165.879C296.719 166.035 296.91 166.17 297.151 166.284C297.395 166.4 297.715 166.459 298.11 166.459C298.638 166.459 299.074 166.331 299.418 166.075C299.762 165.819 299.934 165.419 299.934 164.873V163.544H299.849C299.775 163.663 299.67 163.811 299.533 163.987C299.4 164.16 299.207 164.315 298.954 164.452C298.704 164.585 298.366 164.652 297.94 164.652C297.411 164.652 296.937 164.527 296.516 164.277C296.099 164.027 295.768 163.663 295.523 163.186C295.282 162.709 295.161 162.129 295.161 161.447C295.161 160.777 295.279 160.193 295.515 159.696C295.751 159.196 296.079 158.81 296.499 158.537C296.92 158.261 297.405 158.123 297.957 158.123C298.383 158.123 298.721 158.194 298.971 158.336C299.224 158.476 299.417 158.635 299.55 158.814C299.687 158.99 299.792 159.135 299.866 159.248H299.968V158.209H300.94V164.942C300.94 165.504 300.812 165.961 300.556 166.314C300.303 166.669 299.962 166.929 299.533 167.094C299.107 167.261 298.633 167.345 298.11 167.345ZM298.076 163.748C298.479 163.748 298.82 163.656 299.099 163.471C299.377 163.287 299.589 163.021 299.734 162.675C299.878 162.328 299.951 161.913 299.951 161.43C299.951 160.959 299.88 160.542 299.738 160.182C299.596 159.821 299.386 159.538 299.107 159.334C298.829 159.129 298.485 159.027 298.076 159.027C297.65 159.027 297.295 159.135 297.011 159.351C296.729 159.567 296.518 159.856 296.376 160.22C296.236 160.584 296.167 160.987 296.167 161.43C296.167 161.885 296.238 162.287 296.38 162.636C296.525 162.983 296.738 163.256 297.019 163.454C297.303 163.65 297.655 163.748 298.076 163.748ZM309.94 158.754H308.883C308.82 158.45 308.711 158.183 308.555 157.953C308.401 157.723 308.214 157.53 307.992 157.373C307.773 157.214 307.53 157.095 307.263 157.015C306.996 156.936 306.718 156.896 306.428 156.896C305.9 156.896 305.421 157.03 304.992 157.297C304.566 157.564 304.226 157.957 303.974 158.477C303.724 158.997 303.599 159.635 303.599 160.39C303.599 161.146 303.724 161.784 303.974 162.304C304.226 162.824 304.566 163.217 304.992 163.484C305.421 163.751 305.9 163.885 306.428 163.885C306.718 163.885 306.996 163.845 307.263 163.765C307.53 163.686 307.773 163.568 307.992 163.412C308.214 163.253 308.401 163.058 308.555 162.828C308.711 162.595 308.82 162.328 308.883 162.027H309.94C309.86 162.473 309.715 162.872 309.505 163.224C309.295 163.577 309.033 163.876 308.721 164.123C308.408 164.368 308.057 164.554 307.668 164.682C307.282 164.81 306.869 164.873 306.428 164.873C305.684 164.873 305.022 164.692 304.442 164.328C303.863 163.964 303.407 163.447 303.074 162.777C302.742 162.106 302.576 161.311 302.576 160.39C302.576 159.47 302.742 158.675 303.074 158.004C303.407 157.334 303.863 156.817 304.442 156.453C305.022 156.089 305.684 155.908 306.428 155.908C306.869 155.908 307.282 155.971 307.668 156.099C308.057 156.227 308.408 156.415 308.721 156.662C309.033 156.906 309.295 157.204 309.505 157.557C309.715 157.906 309.86 158.305 309.94 158.754ZM314.17 164.89C313.579 164.89 313.061 164.75 312.615 164.469C312.171 164.187 311.825 163.794 311.575 163.288C311.328 162.783 311.204 162.192 311.204 161.515C311.204 160.834 311.328 160.238 311.575 159.73C311.825 159.221 312.171 158.827 312.615 158.545C313.061 158.264 313.579 158.123 314.17 158.123C314.761 158.123 315.278 158.264 315.721 158.545C316.167 158.827 316.514 159.221 316.761 159.73C317.011 160.238 317.136 160.834 317.136 161.515C317.136 162.192 317.011 162.783 316.761 163.288C316.514 163.794 316.167 164.187 315.721 164.469C315.278 164.75 314.761 164.89 314.17 164.89ZM314.17 163.987C314.619 163.987 314.988 163.872 315.278 163.642C315.568 163.412 315.782 163.109 315.921 162.734C316.061 162.359 316.13 161.953 316.13 161.515C316.13 161.078 316.061 160.67 315.921 160.292C315.782 159.915 315.568 159.609 315.278 159.376C314.988 159.143 314.619 159.027 314.17 159.027C313.721 159.027 313.352 159.143 313.062 159.376C312.772 159.609 312.558 159.915 312.419 160.292C312.279 160.67 312.21 161.078 312.21 161.515C312.21 161.953 312.279 162.359 312.419 162.734C312.558 163.109 312.772 163.412 313.062 163.642C313.352 163.872 313.721 163.987 314.17 163.987ZM319.677 160.817V164.754H318.671V158.209H319.643V159.231H319.728C319.881 158.899 320.114 158.632 320.427 158.43C320.739 158.226 321.143 158.123 321.637 158.123C322.08 158.123 322.468 158.214 322.8 158.396C323.133 158.575 323.391 158.848 323.576 159.214C323.761 159.578 323.853 160.038 323.853 160.595V164.754H322.847V160.663C322.847 160.149 322.714 159.748 322.447 159.461C322.18 159.172 321.813 159.027 321.347 159.027C321.026 159.027 320.739 159.096 320.486 159.236C320.236 159.375 320.039 159.578 319.894 159.845C319.749 160.112 319.677 160.436 319.677 160.817ZM328.605 158.209V159.061H325.077V158.209H328.605ZM326.134 164.754V157.305C326.134 156.93 326.222 156.618 326.398 156.368C326.574 156.118 326.803 155.93 327.084 155.805C327.365 155.68 327.662 155.618 327.975 155.618C328.222 155.618 328.424 155.638 328.58 155.677C328.736 155.717 328.853 155.754 328.929 155.788L328.639 156.658C328.588 156.64 328.517 156.619 328.426 156.594C328.338 156.568 328.222 156.555 328.077 156.555C327.745 156.555 327.505 156.639 327.357 156.807C327.212 156.974 327.139 157.22 327.139 157.544V164.754H326.134ZM330.015 164.754V158.209H331.02V164.754H330.015ZM330.526 157.118C330.33 157.118 330.161 157.051 330.019 156.917C329.88 156.784 329.81 156.623 329.81 156.436C329.81 156.248 329.88 156.088 330.019 155.954C330.161 155.821 330.33 155.754 330.526 155.754C330.722 155.754 330.89 155.821 331.029 155.954C331.171 156.088 331.242 156.248 331.242 156.436C331.242 156.623 331.171 156.784 331.029 156.917C330.89 157.051 330.722 157.118 330.526 157.118ZM335.505 167.345C335.019 167.345 334.601 167.283 334.252 167.158C333.902 167.035 333.611 166.873 333.378 166.672C333.148 166.473 332.965 166.26 332.828 166.033L333.63 165.47C333.72 165.589 333.835 165.726 333.975 165.879C334.114 166.035 334.304 166.17 334.546 166.284C334.79 166.4 335.11 166.459 335.505 166.459C336.033 166.459 336.469 166.331 336.813 166.075C337.157 165.819 337.328 165.419 337.328 164.873V163.544H337.243C337.169 163.663 337.064 163.811 336.928 163.987C336.794 164.16 336.601 164.315 336.348 164.452C336.098 164.585 335.76 164.652 335.334 164.652C334.806 164.652 334.331 164.527 333.911 164.277C333.493 164.027 333.162 163.663 332.918 163.186C332.676 162.709 332.556 162.129 332.556 161.447C332.556 160.777 332.674 160.193 332.909 159.696C333.145 159.196 333.473 158.81 333.894 158.537C334.314 158.261 334.8 158.123 335.351 158.123C335.777 158.123 336.115 158.194 336.365 158.336C336.618 158.476 336.811 158.635 336.945 158.814C337.081 158.99 337.186 159.135 337.26 159.248H337.362V158.209H338.334V164.942C338.334 165.504 338.206 165.961 337.951 166.314C337.698 166.669 337.357 166.929 336.928 167.094C336.502 167.261 336.027 167.345 335.505 167.345ZM335.47 163.748C335.874 163.748 336.215 163.656 336.493 163.471C336.772 163.287 336.983 163.021 337.128 162.675C337.273 162.328 337.345 161.913 337.345 161.43C337.345 160.959 337.274 160.542 337.132 160.182C336.99 159.821 336.78 159.538 336.502 159.334C336.223 159.129 335.88 159.027 335.47 159.027C335.044 159.027 334.689 159.135 334.405 159.351C334.124 159.567 333.912 159.856 333.77 160.22C333.631 160.584 333.561 160.987 333.561 161.43C333.561 161.885 333.632 162.287 333.774 162.636C333.919 162.983 334.132 163.256 334.414 163.454C334.698 163.65 335.05 163.748 335.47 163.748Z" fill="black"/>
<path d="M462.493 107.856C462.413 107.031 461.68 106.427 460.856 106.507L447.418 107.807C446.594 107.887 445.99 108.62 446.07 109.445C446.15 110.269 446.883 110.873 447.707 110.793L459.651 109.638L460.807 121.582C460.887 122.406 461.62 123.01 462.445 122.93C463.269 122.85 463.873 122.117 463.793 121.293L462.493 107.856ZM336.158 261.954L462.158 108.954L459.842 107.046L333.842 260.046L336.158 261.954Z" fill="black"/>
<path d="M284.784 15.2727H285.841V21.0511C285.841 21.6477 285.7 22.1804 285.419 22.6491C285.141 23.1151 284.747 23.483 284.239 23.7528C283.73 24.0199 283.134 24.1534 282.449 24.1534C281.764 24.1534 281.168 24.0199 280.659 23.7528C280.151 23.483 279.756 23.1151 279.474 22.6491C279.196 22.1804 279.057 21.6477 279.057 21.0511V15.2727H280.114V20.9659C280.114 21.392 280.207 21.7713 280.395 22.1037C280.582 22.4332 280.849 22.6932 281.196 22.8835C281.545 23.071 281.963 23.1648 282.449 23.1648C282.935 23.1648 283.352 23.071 283.702 22.8835C284.051 22.6932 284.318 22.4332 284.503 22.1037C284.69 21.7713 284.784 21.392 284.784 20.9659V15.2727ZM292.451 18.9205L291.548 19.1761C291.491 19.0256 291.407 18.8793 291.297 18.7372C291.189 18.5923 291.041 18.473 290.853 18.3793C290.666 18.2855 290.426 18.2386 290.133 18.2386C289.733 18.2386 289.399 18.331 289.132 18.5156C288.868 18.6974 288.735 18.929 288.735 19.2102C288.735 19.4602 288.826 19.6577 289.008 19.8026C289.19 19.9474 289.474 20.0682 289.86 20.1648L290.832 20.4034C291.417 20.5455 291.853 20.7628 292.14 21.0554C292.427 21.3452 292.571 21.7187 292.571 22.1761C292.571 22.5511 292.463 22.8864 292.247 23.1818C292.034 23.4773 291.735 23.7102 291.352 23.8807C290.968 24.0511 290.522 24.1364 290.014 24.1364C289.346 24.1364 288.794 23.9915 288.356 23.7017C287.919 23.4119 287.642 22.9886 287.525 22.4318L288.48 22.1932C288.571 22.5455 288.743 22.8097 288.995 22.9858C289.251 23.1619 289.585 23.25 289.997 23.25C290.466 23.25 290.838 23.1506 291.113 22.9517C291.392 22.75 291.531 22.5085 291.531 22.2273C291.531 22 291.451 21.8097 291.292 21.6562C291.133 21.5 290.889 21.3835 290.559 21.3068L289.468 21.0511C288.869 20.9091 288.429 20.6889 288.147 20.3906C287.869 20.0895 287.73 19.7131 287.73 19.2614C287.73 18.892 287.833 18.5653 288.041 18.2812C288.251 17.9972 288.537 17.7741 288.897 17.6122C289.261 17.4503 289.673 17.3693 290.133 17.3693C290.781 17.3693 291.289 17.5114 291.659 17.7955C292.031 18.0795 292.295 18.4545 292.451 18.9205ZM296.829 24.1364C296.198 24.1364 295.654 23.9972 295.197 23.7188C294.742 23.4375 294.391 23.0455 294.144 22.5426C293.9 22.0369 293.778 21.4489 293.778 20.7784C293.778 20.108 293.9 19.517 294.144 19.0057C294.391 18.4915 294.735 18.0909 295.175 17.804C295.619 17.5142 296.136 17.3693 296.727 17.3693C297.067 17.3693 297.404 17.4261 297.737 17.5398C298.069 17.6534 298.371 17.8381 298.644 18.0938C298.917 18.3466 299.134 18.6818 299.296 19.0994C299.458 19.517 299.539 20.0312 299.539 20.642V21.0682H294.494V20.1989H298.516C298.516 19.8295 298.442 19.5 298.295 19.2102C298.15 18.9205 297.942 18.6918 297.673 18.5241C297.406 18.3565 297.09 18.2727 296.727 18.2727C296.326 18.2727 295.979 18.3722 295.687 18.571C295.397 18.767 295.174 19.0227 295.018 19.3381C294.862 19.6534 294.783 19.9915 294.783 20.3523V20.9318C294.783 21.4261 294.869 21.8452 295.039 22.1889C295.212 22.5298 295.452 22.7898 295.759 22.9688C296.066 23.1449 296.423 23.233 296.829 23.233C297.093 23.233 297.332 23.196 297.545 23.1222C297.761 23.0455 297.947 22.9318 298.103 22.7812C298.259 22.6278 298.38 22.4375 298.465 22.2102L299.437 22.483C299.335 22.8125 299.163 23.1023 298.921 23.3523C298.68 23.5994 298.381 23.7926 298.026 23.9318C297.671 24.0682 297.272 24.1364 296.829 24.1364ZM301.069 24V17.4545H302.04V18.4432H302.109C302.228 18.1193 302.444 17.8565 302.756 17.6548C303.069 17.4531 303.421 17.3523 303.813 17.3523C303.887 17.3523 303.979 17.3537 304.09 17.3565C304.201 17.3594 304.285 17.3636 304.342 17.3693V18.392C304.308 18.3835 304.229 18.3707 304.107 18.3537C303.988 18.3338 303.862 18.3239 303.728 18.3239C303.41 18.3239 303.126 18.3906 302.876 18.5241C302.629 18.6548 302.433 18.8366 302.288 19.0696C302.146 19.2997 302.075 19.5625 302.075 19.858V24H301.069ZM311.568 24.1364C310.954 24.1364 310.426 23.9915 309.983 23.7017C309.539 23.4119 309.199 23.0128 308.96 22.5043C308.721 21.9957 308.602 21.4148 308.602 20.7614C308.602 20.0966 308.724 19.5099 308.968 19.0014C309.216 18.4901 309.559 18.0909 310 17.804C310.443 17.5142 310.96 17.3693 311.551 17.3693C312.011 17.3693 312.426 17.4545 312.795 17.625C313.164 17.7955 313.467 18.0341 313.703 18.3409C313.939 18.6477 314.085 19.0057 314.142 19.4148H313.136C313.059 19.1165 312.889 18.8523 312.625 18.6222C312.363 18.3892 312.011 18.2727 311.568 18.2727C311.176 18.2727 310.832 18.375 310.537 18.5795C310.244 18.7812 310.015 19.0668 309.85 19.4361C309.689 19.8026 309.608 20.233 309.608 20.7273C309.608 21.233 309.687 21.6733 309.846 22.0483C310.008 22.4233 310.235 22.7145 310.528 22.9219C310.824 23.1293 311.17 23.233 311.568 23.233C311.829 23.233 312.066 23.1875 312.279 23.0966C312.493 23.0057 312.673 22.875 312.821 22.7045C312.968 22.5341 313.074 22.3295 313.136 22.0909H314.142C314.085 22.4773 313.944 22.8253 313.72 23.1349C313.498 23.4418 313.204 23.6861 312.838 23.8679C312.474 24.0469 312.051 24.1364 311.568 24.1364ZM318.271 24.1364C317.68 24.1364 317.162 23.9957 316.716 23.7145C316.272 23.4332 315.926 23.0398 315.676 22.5341C315.429 22.0284 315.305 21.4375 315.305 20.7614C315.305 20.0795 315.429 19.4844 315.676 18.9759C315.926 18.4673 316.272 18.0724 316.716 17.7912C317.162 17.5099 317.68 17.3693 318.271 17.3693C318.862 17.3693 319.379 17.5099 319.822 17.7912C320.268 18.0724 320.615 18.4673 320.862 18.9759C321.112 19.4844 321.237 20.0795 321.237 20.7614C321.237 21.4375 321.112 22.0284 320.862 22.5341C320.615 23.0398 320.268 23.4332 319.822 23.7145C319.379 23.9957 318.862 24.1364 318.271 24.1364ZM318.271 23.233C318.72 23.233 319.089 23.1179 319.379 22.8878C319.669 22.6577 319.883 22.3551 320.022 21.9801C320.162 21.6051 320.231 21.1989 320.231 20.7614C320.231 20.3239 320.162 19.9162 320.022 19.5384C319.883 19.1605 319.669 18.8551 319.379 18.6222C319.089 18.3892 318.72 18.2727 318.271 18.2727C317.822 18.2727 317.453 18.3892 317.163 18.6222C316.873 18.8551 316.659 19.1605 316.52 19.5384C316.38 19.9162 316.311 20.3239 316.311 20.7614C316.311 21.1989 316.38 21.6051 316.52 21.9801C316.659 22.3551 316.873 22.6577 317.163 22.8878C317.453 23.1179 317.822 23.233 318.271 23.233ZM325.244 24.1364C324.698 24.1364 324.217 23.9986 323.799 23.723C323.381 23.4446 323.055 23.0526 322.819 22.5469C322.583 22.0384 322.465 21.4375 322.465 20.7443C322.465 20.0568 322.583 19.4602 322.819 18.9545C323.055 18.4489 323.383 18.0582 323.803 17.7827C324.224 17.5071 324.71 17.3693 325.261 17.3693C325.687 17.3693 326.023 17.4403 326.271 17.5824C326.521 17.7216 326.711 17.8807 326.842 18.0597C326.975 18.2358 327.079 18.3807 327.153 18.4943H327.238V15.2727H328.244V24H327.272V22.9943H327.153C327.079 23.1136 326.974 23.2642 326.837 23.446C326.701 23.625 326.506 23.7855 326.254 23.9276C326.001 24.0668 325.664 24.1364 325.244 24.1364ZM325.38 23.233C325.783 23.233 326.124 23.1278 326.403 22.9176C326.681 22.7045 326.893 22.4105 327.038 22.0355C327.183 21.6577 327.255 21.2216 327.255 20.7273C327.255 20.2386 327.184 19.8111 327.042 19.4446C326.9 19.0753 326.69 18.7884 326.411 18.5838C326.133 18.3764 325.789 18.2727 325.38 18.2727C324.954 18.2727 324.599 18.3821 324.315 18.6009C324.033 18.8168 323.822 19.1108 323.68 19.483C323.54 19.8523 323.471 20.267 323.471 20.7273C323.471 21.1932 323.542 21.6165 323.684 21.9972C323.829 22.375 324.042 22.6761 324.323 22.9006C324.607 23.1222 324.96 23.233 325.38 23.233ZM332.969 24.1364C332.339 24.1364 331.795 23.9972 331.337 23.7188C330.883 23.4375 330.532 23.0455 330.285 22.5426C330.04 22.0369 329.918 21.4489 329.918 20.7784C329.918 20.108 330.04 19.517 330.285 19.0057C330.532 18.4915 330.876 18.0909 331.316 17.804C331.759 17.5142 332.276 17.3693 332.867 17.3693C333.208 17.3693 333.545 17.4261 333.877 17.5398C334.21 17.6534 334.512 17.8381 334.785 18.0938C335.058 18.3466 335.275 18.6818 335.437 19.0994C335.599 19.517 335.68 20.0312 335.68 20.642V21.0682H330.634V20.1989H334.657C334.657 19.8295 334.583 19.5 334.435 19.2102C334.29 18.9205 334.083 18.6918 333.813 18.5241C333.546 18.3565 333.231 18.2727 332.867 18.2727C332.467 18.2727 332.12 18.3722 331.827 18.571C331.538 18.767 331.315 19.0227 331.158 19.3381C331.002 19.6534 330.924 19.9915 330.924 20.3523V20.9318C330.924 21.4261 331.009 21.8452 331.18 22.1889C331.353 22.5298 331.593 22.7898 331.9 22.9688C332.207 23.1449 332.563 23.233 332.969 23.233C333.234 23.233 333.472 23.196 333.685 23.1222C333.901 23.0455 334.087 22.9318 334.244 22.7812C334.4 22.6278 334.521 22.4375 334.606 22.2102L335.577 22.483C335.475 22.8125 335.303 23.1023 335.062 23.3523C334.82 23.5994 334.522 23.7926 334.167 23.9318C333.812 24.0682 333.413 24.1364 332.969 24.1364Z" fill="black"/>
<path d="M460.413 206.503C460.691 205.722 460.283 204.864 459.503 204.587L446.783 200.064C446.002 199.787 445.144 200.194 444.867 200.975C444.589 201.755 444.997 202.613 445.778 202.891L457.084 206.911L453.064 218.217C452.787 218.998 453.194 219.856 453.975 220.133C454.755 220.411 455.613 220.003 455.891 219.222L460.413 206.503ZM337.644 265.355L459.644 207.355L458.356 204.645L336.356 262.645L337.644 265.355Z" fill="black"/>
<path d="M459.57 321.388C460.336 321.073 460.702 320.197 460.388 319.43L455.262 306.941C454.948 306.175 454.071 305.809 453.305 306.123C452.539 306.438 452.172 307.314 452.487 308.08L457.043 319.182L445.941 323.738C445.175 324.052 444.809 324.929 445.123 325.695C445.438 326.461 446.314 326.828 447.08 326.513L459.57 321.388ZM336.421 270.384L458.421 321.384L459.579 318.616L337.579 267.616L336.421 270.384Z" fill="black"/>
<path d="M471.08 18H470.023C469.96 17.696 469.851 17.429 469.695 17.1989C469.541 16.9688 469.354 16.7756 469.132 16.6193C468.913 16.4602 468.67 16.3409 468.403 16.2614C468.136 16.1818 467.858 16.142 467.568 16.142C467.04 16.142 466.561 16.2756 466.132 16.5426C465.706 16.8097 465.366 17.2031 465.114 17.723C464.864 18.2429 464.739 18.8807 464.739 19.6364C464.739 20.392 464.864 21.0298 465.114 21.5497C465.366 22.0696 465.706 22.4631 466.132 22.7301C466.561 22.9972 467.04 23.1307 467.568 23.1307C467.858 23.1307 468.136 23.0909 468.403 23.0114C468.67 22.9318 468.913 22.8139 469.132 22.6577C469.354 22.4986 469.541 22.304 469.695 22.0739C469.851 21.8409 469.96 21.5739 470.023 21.2727H471.08C471 21.7187 470.855 22.1179 470.645 22.4702C470.435 22.8224 470.173 23.1222 469.861 23.3693C469.548 23.6136 469.197 23.7997 468.808 23.9276C468.422 24.0554 468.009 24.1193 467.568 24.1193C466.824 24.1193 466.162 23.9375 465.582 23.5739C465.003 23.2102 464.547 22.6932 464.214 22.0227C463.882 21.3523 463.716 20.5568 463.716 19.6364C463.716 18.7159 463.882 17.9205 464.214 17.25C464.547 16.5795 465.003 16.0625 465.582 15.6989C466.162 15.3352 466.824 15.1534 467.568 15.1534C468.009 15.1534 468.422 15.2173 468.808 15.3452C469.197 15.473 469.548 15.6605 469.861 15.9077C470.173 16.152 470.435 16.4503 470.645 16.8026C470.855 17.152 471 17.5511 471.08 18ZM473.657 15.2727V24H472.651V15.2727H473.657ZM479.624 21.3239V17.4545H480.629V24H479.624V22.892H479.555C479.402 23.2244 479.163 23.5071 478.839 23.7401C478.516 23.9702 478.107 24.0852 477.612 24.0852C477.203 24.0852 476.839 23.9957 476.521 23.8168C476.203 23.6349 475.953 23.3622 475.771 22.9986C475.589 22.6321 475.499 22.1705 475.499 21.6136V17.4545H476.504V21.5455C476.504 22.0227 476.638 22.4034 476.905 22.6875C477.175 22.9716 477.518 23.1136 477.936 23.1136C478.186 23.1136 478.44 23.0497 478.699 22.9219C478.96 22.794 479.179 22.598 479.355 22.3338C479.534 22.0696 479.624 21.733 479.624 21.3239ZM487.108 18.9205L486.204 19.1761C486.147 19.0256 486.064 18.8793 485.953 18.7372C485.845 18.5923 485.697 18.473 485.51 18.3793C485.322 18.2855 485.082 18.2386 484.789 18.2386C484.389 18.2386 484.055 18.331 483.788 18.5156C483.524 18.6974 483.392 18.929 483.392 19.2102C483.392 19.4602 483.483 19.6577 483.664 19.8026C483.846 19.9474 484.13 20.0682 484.517 20.1648L485.488 20.4034C486.074 20.5455 486.51 20.7628 486.797 21.0554C487.083 21.3452 487.227 21.7187 487.227 22.1761C487.227 22.5511 487.119 22.8864 486.903 23.1818C486.69 23.4773 486.392 23.7102 486.008 23.8807C485.625 24.0511 485.179 24.1364 484.67 24.1364C484.002 24.1364 483.45 23.9915 483.012 23.7017C482.575 23.4119 482.298 22.9886 482.181 22.4318L483.136 22.1932C483.227 22.5455 483.399 22.8097 483.652 22.9858C483.907 23.1619 484.241 23.25 484.653 23.25C485.122 23.25 485.494 23.1506 485.77 22.9517C486.048 22.75 486.187 22.5085 486.187 22.2273C486.187 22 486.108 21.8097 485.949 21.6562C485.789 21.5 485.545 21.3835 485.216 21.3068L484.125 21.0511C483.525 20.9091 483.085 20.6889 482.804 20.3906C482.525 20.0895 482.386 19.7131 482.386 19.2614C482.386 18.892 482.49 18.5653 482.697 18.2812C482.907 17.9972 483.193 17.7741 483.554 17.6122C483.917 17.4503 484.329 17.3693 484.789 17.3693C485.437 17.3693 485.946 17.5114 486.315 17.7955C486.687 18.0795 486.951 18.4545 487.108 18.9205ZM491.587 17.4545V18.3068H488.195V17.4545H491.587ZM489.184 15.8864H490.19V22.125C490.19 22.4091 490.231 22.6222 490.313 22.7642C490.398 22.9034 490.506 22.9972 490.637 23.0455C490.771 23.0909 490.911 23.1136 491.059 23.1136C491.17 23.1136 491.261 23.108 491.332 23.0966C491.403 23.0824 491.46 23.071 491.502 23.0625L491.707 23.9659C491.638 23.9915 491.543 24.017 491.421 24.0426C491.299 24.071 491.144 24.0852 490.957 24.0852C490.673 24.0852 490.394 24.0241 490.121 23.902C489.852 23.7798 489.627 23.5938 489.448 23.3438C489.272 23.0938 489.184 22.7784 489.184 22.3977V15.8864ZM495.774 24.1364C495.143 24.1364 494.599 23.9972 494.142 23.7188C493.688 23.4375 493.337 23.0455 493.089 22.5426C492.845 22.0369 492.723 21.4489 492.723 20.7784C492.723 20.108 492.845 19.517 493.089 19.0057C493.337 18.4915 493.68 18.0909 494.121 17.804C494.564 17.5142 495.081 17.3693 495.672 17.3693C496.013 17.3693 496.349 17.4261 496.682 17.5398C497.014 17.6534 497.317 17.8381 497.589 18.0938C497.862 18.3466 498.08 18.6818 498.241 19.0994C498.403 19.517 498.484 20.0312 498.484 20.642V21.0682H493.439V20.1989H497.462C497.462 19.8295 497.388 19.5 497.24 19.2102C497.095 18.9205 496.888 18.6918 496.618 18.5241C496.351 18.3565 496.036 18.2727 495.672 18.2727C495.271 18.2727 494.925 18.3722 494.632 18.571C494.342 18.767 494.119 19.0227 493.963 19.3381C493.807 19.6534 493.729 19.9915 493.729 20.3523V20.9318C493.729 21.4261 493.814 21.8452 493.984 22.1889C494.158 22.5298 494.398 22.7898 494.705 22.9688C495.011 23.1449 495.368 23.233 495.774 23.233C496.038 23.233 496.277 23.196 496.49 23.1222C496.706 23.0455 496.892 22.9318 497.048 22.7812C497.205 22.6278 497.325 22.4375 497.411 22.2102L498.382 22.483C498.28 22.8125 498.108 23.1023 497.866 23.3523C497.625 23.5994 497.327 23.7926 496.972 23.9318C496.616 24.0682 496.217 24.1364 495.774 24.1364ZM500.014 24V17.4545H500.986V18.4432H501.054C501.173 18.1193 501.389 17.8565 501.702 17.6548C502.014 17.4531 502.366 17.3523 502.759 17.3523C502.832 17.3523 502.925 17.3537 503.036 17.3565C503.146 17.3594 503.23 17.3636 503.287 17.3693V18.392C503.253 18.3835 503.175 18.3707 503.053 18.3537C502.933 18.3338 502.807 18.3239 502.673 18.3239C502.355 18.3239 502.071 18.3906 501.821 18.5241C501.574 18.6548 501.378 18.8366 501.233 19.0696C501.091 19.2997 501.02 19.5625 501.02 19.858V24H500.014ZM508.86 20.0625V24H507.854V17.4545H508.826V18.4773H508.911C509.064 18.1449 509.297 17.8778 509.61 17.6761C509.922 17.4716 510.326 17.3693 510.82 17.3693C511.263 17.3693 511.651 17.4602 511.983 17.642C512.316 17.821 512.574 18.0938 512.759 18.4602C512.944 18.8239 513.036 19.2841 513.036 19.8409V24H512.03V19.9091C512.03 19.3949 511.897 18.9943 511.63 18.7074C511.363 18.4176 510.996 18.2727 510.53 18.2727C510.209 18.2727 509.922 18.3423 509.669 18.4815C509.419 18.6207 509.222 18.8239 509.077 19.0909C508.932 19.358 508.86 19.6818 508.86 20.0625ZM517.533 24.1364C516.942 24.1364 516.423 23.9957 515.977 23.7145C515.534 23.4332 515.188 23.0398 514.938 22.5341C514.69 22.0284 514.567 21.4375 514.567 20.7614C514.567 20.0795 514.69 19.4844 514.938 18.9759C515.188 18.4673 515.534 18.0724 515.977 17.7912C516.423 17.5099 516.942 17.3693 517.533 17.3693C518.124 17.3693 518.641 17.5099 519.084 17.7912C519.53 18.0724 519.876 18.4673 520.124 18.9759C520.374 19.4844 520.499 20.0795 520.499 20.7614C520.499 21.4375 520.374 22.0284 520.124 22.5341C519.876 23.0398 519.53 23.4332 519.084 23.7145C518.641 23.9957 518.124 24.1364 517.533 24.1364ZM517.533 23.233C517.982 23.233 518.351 23.1179 518.641 22.8878C518.93 22.6577 519.145 22.3551 519.284 21.9801C519.423 21.6051 519.493 21.1989 519.493 20.7614C519.493 20.3239 519.423 19.9162 519.284 19.5384C519.145 19.1605 518.93 18.8551 518.641 18.6222C518.351 18.3892 517.982 18.2727 517.533 18.2727C517.084 18.2727 516.714 18.3892 516.425 18.6222C516.135 18.8551 515.92 19.1605 515.781 19.5384C515.642 19.9162 515.572 20.3239 515.572 20.7614C515.572 21.1989 515.642 21.6051 515.781 21.9801C515.92 22.3551 516.135 22.6577 516.425 22.8878C516.714 23.1179 517.084 23.233 517.533 23.233ZM524.505 24.1364C523.96 24.1364 523.478 23.9986 523.061 23.723C522.643 23.4446 522.316 23.0526 522.081 22.5469C521.845 22.0384 521.727 21.4375 521.727 20.7443C521.727 20.0568 521.845 19.4602 522.081 18.9545C522.316 18.4489 522.645 18.0582 523.065 17.7827C523.485 17.5071 523.971 17.3693 524.522 17.3693C524.949 17.3693 525.285 17.4403 525.532 17.5824C525.782 17.7216 525.973 17.8807 526.103 18.0597C526.237 18.2358 526.341 18.3807 526.414 18.4943H526.5V15.2727H527.505V24H526.534V22.9943H526.414C526.341 23.1136 526.235 23.2642 526.099 23.446C525.963 23.625 525.768 23.7855 525.515 23.9276C525.262 24.0668 524.926 24.1364 524.505 24.1364ZM524.642 23.233C525.045 23.233 525.386 23.1278 525.664 22.9176C525.943 22.7045 526.154 22.4105 526.299 22.0355C526.444 21.6577 526.517 21.2216 526.517 20.7273C526.517 20.2386 526.446 19.8111 526.304 19.4446C526.162 19.0753 525.951 18.7884 525.673 18.5838C525.395 18.3764 525.051 18.2727 524.642 18.2727C524.216 18.2727 523.86 18.3821 523.576 18.6009C523.295 18.8168 523.083 19.1108 522.941 19.483C522.802 19.8523 522.733 20.267 522.733 20.7273C522.733 21.1932 522.804 21.6165 522.946 21.9972C523.091 22.375 523.304 22.6761 523.585 22.9006C523.869 23.1222 524.221 23.233 524.642 23.233ZM532.231 24.1364C531.6 24.1364 531.056 23.9972 530.599 23.7188C530.145 23.4375 529.794 23.0455 529.547 22.5426C529.302 22.0369 529.18 21.4489 529.18 20.7784C529.18 20.108 529.302 19.517 529.547 19.0057C529.794 18.4915 530.137 18.0909 530.578 17.804C531.021 17.5142 531.538 17.3693 532.129 17.3693C532.47 17.3693 532.806 17.4261 533.139 17.5398C533.471 17.6534 533.774 17.8381 534.047 18.0938C534.319 18.3466 534.537 18.6818 534.699 19.0994C534.86 19.517 534.941 20.0312 534.941 20.642V21.0682H529.896V20.1989H533.919C533.919 19.8295 533.845 19.5 533.697 19.2102C533.552 18.9205 533.345 18.6918 533.075 18.5241C532.808 18.3565 532.493 18.2727 532.129 18.2727C531.728 18.2727 531.382 18.3722 531.089 18.571C530.799 18.767 530.576 19.0227 530.42 19.3381C530.264 19.6534 530.186 19.9915 530.186 20.3523V20.9318C530.186 21.4261 530.271 21.8452 530.441 22.1889C530.615 22.5298 530.855 22.7898 531.162 22.9688C531.468 23.1449 531.825 23.233 532.231 23.233C532.495 23.233 532.734 23.196 532.947 23.1222C533.163 23.0455 533.349 22.9318 533.505 22.7812C533.662 22.6278 533.782 22.4375 533.868 22.2102L534.839 22.483C534.737 22.8125 534.565 23.1023 534.324 23.3523C534.082 23.5994 533.784 23.7926 533.429 23.9318C533.074 24.0682 532.674 24.1364 532.231 24.1364ZM541.108 18.9205L540.204 19.1761C540.147 19.0256 540.064 18.8793 539.953 18.7372C539.845 18.5923 539.697 18.473 539.51 18.3793C539.322 18.2855 539.082 18.2386 538.789 18.2386C538.389 18.2386 538.055 18.331 537.788 18.5156C537.524 18.6974 537.392 18.929 537.392 19.2102C537.392 19.4602 537.483 19.6577 537.664 19.8026C537.846 19.9474 538.13 20.0682 538.517 20.1648L539.488 20.4034C540.074 20.5455 540.51 20.7628 540.797 21.0554C541.083 21.3452 541.227 21.7187 541.227 22.1761C541.227 22.5511 541.119 22.8864 540.903 23.1818C540.69 23.4773 540.392 23.7102 540.008 23.8807C539.625 24.0511 539.179 24.1364 538.67 24.1364C538.002 24.1364 537.45 23.9915 537.012 23.7017C536.575 23.4119 536.298 22.9886 536.181 22.4318L537.136 22.1932C537.227 22.5455 537.399 22.8097 537.652 22.9858C537.907 23.1619 538.241 23.25 538.653 23.25C539.122 23.25 539.494 23.1506 539.77 22.9517C540.048 22.75 540.187 22.5085 540.187 22.2273C540.187 22 540.108 21.8097 539.949 21.6562C539.789 21.5 539.545 21.3835 539.216 21.3068L538.125 21.0511C537.525 20.9091 537.085 20.6889 536.804 20.3906C536.525 20.0895 536.386 19.7131 536.386 19.2614C536.386 18.892 536.49 18.5653 536.697 18.2812C536.907 17.9972 537.193 17.7741 537.554 17.6122C537.917 17.4503 538.329 17.3693 538.789 17.3693C539.437 17.3693 539.946 17.5114 540.315 17.7955C540.687 18.0795 540.951 18.4545 541.108 18.9205Z" fill="black"/>
</svg>
