<svg version="1.1" viewBox="0.0 0.0 793.6299212598425 159.23622047244095" fill="none" stroke="none" stroke-linecap="square" stroke-miterlimit="10" xmlns:xlink="http://www.w3.org/1999/xlink" xmlns="http://www.w3.org/2000/svg"><clipPath id="p.0"><path d="m0 0l793.62994 0l0 159.23622l-793.62994 0l0 -159.23622z" clip-rule="nonzero"/></clipPath><g clip-path="url(#p.0)"><path fill="#000000" fill-opacity="0.0" d="m0 0l793.62994 0l0 159.23622l-793.62994 0z" fill-rule="evenodd"/><path fill="#000000" fill-opacity="0.0" d="m333.29605 46.209663c0 44.85192 95.91336 81.617226 191.82675 89.703835c95.91339 8.086624 191.82678 -12.505463 191.82678 -25.010925" fill-rule="evenodd"/><path stroke="#000000" stroke-width="1.0" stroke-linejoin="round" stroke-linecap="butt" d="m333.29602 46.20966c0 44.851917 95.91342 81.61722 191.82678 89.70384c47.956726 4.0433044 95.91339 0.9169464 131.88086 -4.783432c17.983765 -2.8501892 32.970276 -6.343872 43.460815 -9.906609c5.2452393 -1.7813721 9.366455 -3.5800018 12.176453 -5.324074c0.70251465 -0.43602753 1.3230591 -0.8686371 1.8586426 -1.2967148c0.2678833 -0.21404266 0.51446533 -0.42694855 0.73950195 -0.6385803l0.0602417 -0.057929993" fill-rule="evenodd"/><path fill="#000000" stroke="#000000" stroke-width="1.0" stroke-linecap="butt" d="m715.29926 113.90616l0.4440918 1.5271454l0.5022583 -3.2494812l-2.4735107 2.1664124z" fill-rule="evenodd"/><path fill="#000000" fill-opacity="0.0" d="m351.6042 33.939228l120.6929 0l0 20.944881l-120.6929 0z" fill-rule="evenodd"/><path fill="#000000" d="m373.8262 60.09735q-1.0625 -1.34375 -1.796875 -3.140625q-0.734375 -1.8125 -0.734375 -3.734375q0 -1.703125 0.546875 -3.265625q0.640625 -1.8125 1.984375 -3.609375l0.921875 0q-0.859375 1.484375 -1.140625 2.125q-0.4375 0.984375 -0.6875 2.0625q-0.296875 1.34375 -0.296875 2.6875q0 3.453125 2.125 6.875l-0.921875 0zm6.9118958 -3.078125l-1.28125 0l0 -8.203125q-0.46875 0.4375 -1.21875 0.890625q-0.75 0.4375 -1.359375 0.65625l0 -1.25q1.078125 -0.5 1.890625 -1.21875q0.8125 -0.734375 1.140625 -1.40625l0.828125 0l0 10.53125zm4.5104675 3.078125l-0.921875 0q2.140625 -3.421875 2.140625 -6.875q0 -1.34375 -0.3125 -2.671875q-0.25 -1.0625 -0.671875 -2.046875q-0.28125 -0.65625 -1.15625 -2.15625l0.921875 0q1.34375 1.796875 1.984375 3.609375q0.546875 1.5625 0.546875 3.265625q0 1.921875 -0.734375 3.734375q-0.734375 1.796875 -1.796875 3.140625zm8.108887 -3.078125l0 -7.59375l1.15625 0l0 1.0625q0.34375 -0.5625 0.9375 -0.890625q0.609375 -0.34375 1.359375 -0.34375q0.84375 0 1.375 0.34375q0.546875 0.34375 0.765625 0.984375q0.90625 -1.328125 2.359375 -1.328125q1.125 0 1.734375 0.625q0.609375 0.625 0.609375 1.921875l0 5.21875l-1.28125 0l0 -4.78125q0 -0.78125 -0.125 -1.109375q-0.125 -0.34375 -0.453125 -0.546875q-0.328125 -0.21875 -0.78125 -0.21875q-0.796875 0 -1.328125 0.53125q-0.53125 0.53125 -0.53125 1.703125l0 4.421875l-1.28125 0l0 -4.9375q0 -0.859375 -0.3125 -1.28125q-0.3125 -0.4375 -1.03125 -0.4375q-0.546875 0 -1.015625 0.296875q-0.453125 0.28125 -0.671875 0.828125q-0.203125 0.546875 -0.203125 1.59375l0 3.9375l-1.28125 0zm17.411896 -2.453125l1.328125 0.171875q-0.3125 1.171875 -1.171875 1.8125q-0.84375 0.640625 -2.171875 0.640625q-1.671875 0 -2.65625 -1.015625q-0.96875 -1.03125 -0.96875 -2.890625q0 -1.921875 0.984375 -2.96875q1.0 -1.0625 2.578125 -1.0625q1.515625 0 2.484375 1.03125q0.96875 1.03125 0.96875 2.921875q0 0.109375 -0.015625 0.34375l-5.65625 0q0.0625 1.25 0.703125 1.921875q0.640625 0.65625 1.59375 0.65625q0.703125 0 1.203125 -0.359375q0.5 -0.375 0.796875 -1.203125zm-4.234375 -2.078125l4.25 0q-0.09375 -0.953125 -0.484375 -1.4375q-0.625 -0.75 -1.609375 -0.75q-0.875 0 -1.484375 0.59375q-0.609375 0.59375 -0.671875 1.59375zm9.994843 3.375l0.1875 1.140625q-0.546875 0.109375 -0.984375 0.109375q-0.6875 0 -1.078125 -0.21875q-0.390625 -0.21875 -0.546875 -0.578125q-0.15625 -0.359375 -0.15625 -1.515625l0 -4.375l-0.953125 0l0 -1.0l0.953125 0l0 -1.890625l1.28125 -0.765625l0 2.65625l1.296875 0l0 1.0l-1.296875 0l0 4.4375q0 0.546875 0.0625 0.71875q0.078125 0.15625 0.21875 0.25q0.15625 0.078125 0.453125 0.078125q0.203125 0 0.5625 -0.046875zm6.212616 0.21875q-0.71875 0.609375 -1.375 0.859375q-0.65625 0.25 -1.421875 0.25q-1.25 0 -1.921875 -0.609375q-0.671875 -0.609375 -0.671875 -1.5625q0 -0.5625 0.25 -1.015625q0.25 -0.46875 0.65625 -0.75q0.421875 -0.28125 0.9375 -0.421875q0.375 -0.09375 1.140625 -0.1875q1.5625 -0.1875 2.296875 -0.453125q0.015625 -0.265625 0.015625 -0.328125q0 -0.796875 -0.375 -1.109375q-0.484375 -0.4375 -1.453125 -0.4375q-0.921875 0 -1.359375 0.328125q-0.421875 0.3125 -0.625 1.109375l-1.265625 -0.171875q0.171875 -0.796875 0.5625 -1.296875q0.390625 -0.5 1.140625 -0.765625q0.75 -0.265625 1.71875 -0.265625q0.984375 0 1.59375 0.234375q0.609375 0.21875 0.890625 0.5625q0.28125 0.34375 0.40625 0.875q0.0625 0.328125 0.0625 1.1875l0 1.71875q0 1.796875 0.078125 2.28125q0.078125 0.46875 0.328125 0.90625l-1.34375 0q-0.203125 -0.40625 -0.265625 -0.9375zm-0.109375 -2.875q-0.703125 0.28125 -2.09375 0.484375q-0.796875 0.109375 -1.125 0.265625q-0.328125 0.140625 -0.515625 0.421875q-0.171875 0.265625 -0.171875 0.59375q0 0.515625 0.390625 0.859375q0.390625 0.34375 1.140625 0.34375q0.734375 0 1.3125 -0.3125q0.59375 -0.328125 0.859375 -0.890625q0.203125 -0.4375 0.203125 -1.296875l0 -0.46875zm8.229218 3.8125l0 -0.953125q-0.71875 1.125 -2.125 1.125q-0.90625 0 -1.671875 -0.5q-0.75 -0.5 -1.171875 -1.390625q-0.421875 -0.90625 -0.421875 -2.078125q0 -1.140625 0.375 -2.0625q0.390625 -0.921875 1.140625 -1.40625q0.765625 -0.5 1.703125 -0.5q0.6875 0 1.21875 0.296875q0.53125 0.28125 0.875 0.734375l0 -3.75l1.28125 0l0 10.484375l-1.203125 0zm-4.0625 -3.796875q0 1.46875 0.609375 2.1875q0.625 0.71875 1.453125 0.71875q0.84375 0 1.4375 -0.6875q0.59375 -0.6875 0.59375 -2.109375q0 -1.5625 -0.609375 -2.28125q-0.59375 -0.734375 -1.484375 -0.734375q-0.84375 0 -1.421875 0.703125q-0.578125 0.703125 -0.578125 2.203125zm12.244873 2.859375q-0.71875 0.609375 -1.375 0.859375q-0.65625 0.25 -1.421875 0.25q-1.25 0 -1.921875 -0.609375q-0.671875 -0.609375 -0.671875 -1.5625q0 -0.5625 0.25 -1.015625q0.25 -0.46875 0.65625 -0.75q0.421875 -0.28125 0.9375 -0.421875q0.375 -0.09375 1.140625 -0.1875q1.5625 -0.1875 2.296875 -0.453125q0.015625 -0.265625 0.015625 -0.328125q0 -0.796875 -0.375 -1.109375q-0.484375 -0.4375 -1.453125 -0.4375q-0.921875 0 -1.359375 0.328125q-0.421875 0.3125 -0.625 1.109375l-1.265625 -0.171875q0.171875 -0.796875 0.5625 -1.296875q0.390625 -0.5 1.140625 -0.765625q0.75 -0.265625 1.71875 -0.265625q0.984375 0 1.59375 0.234375q0.609375 0.21875 0.890625 0.5625q0.28125 0.34375 0.40625 0.875q0.0625 0.328125 0.0625 1.1875l0 1.71875q0 1.796875 0.078125 2.28125q0.078125 0.46875 0.328125 0.90625l-1.34375 0q-0.203125 -0.40625 -0.265625 -0.9375zm-0.109375 -2.875q-0.703125 0.28125 -2.09375 0.484375q-0.796875 0.109375 -1.125 0.265625q-0.328125 0.140625 -0.515625 0.421875q-0.171875 0.265625 -0.171875 0.59375q0 0.515625 0.390625 0.859375q0.390625 0.34375 1.140625 0.34375q0.734375 0 1.3125 -0.3125q0.59375 -0.328125 0.859375 -0.890625q0.203125 -0.4375 0.203125 -1.296875l0 -0.46875zm6.1198425 2.65625l0.1875 1.140625q-0.546875 0.109375 -0.984375 0.109375q-0.6875 0 -1.078125 -0.21875q-0.390625 -0.21875 -0.546875 -0.578125q-0.15625 -0.359375 -0.15625 -1.515625l0 -4.375l-0.953125 0l0 -1.0l0.953125 0l0 -1.890625l1.28125 -0.765625l0 2.65625l1.296875 0l0 1.0l-1.296875 0l0 4.4375q0 0.546875 0.0625 0.71875q0.078125 0.15625 0.21875 0.25q0.15625 0.078125 0.453125 0.078125q0.203125 0 0.5625 -0.046875zm6.212616 0.21875q-0.71875 0.609375 -1.375 0.859375q-0.65625 0.25 -1.421875 0.25q-1.25 0 -1.921875 -0.609375q-0.671875 -0.609375 -0.671875 -1.5625q0 -0.5625 0.25 -1.015625q0.25 -0.46875 0.65625 -0.75q0.421875 -0.28125 0.9375 -0.421875q0.375 -0.09375 1.140625 -0.1875q1.5625 -0.1875 2.296875 -0.453125q0.015625 -0.265625 0.015625 -0.328125q0 -0.796875 -0.375 -1.109375q-0.484375 -0.4375 -1.453125 -0.4375q-0.921875 0 -1.359375 0.328125q-0.421875 0.3125 -0.625 1.109375l-1.265625 -0.171875q0.171875 -0.796875 0.5625 -1.296875q0.390625 -0.5 1.140625 -0.765625q0.75 -0.265625 1.71875 -0.265625q0.984375 0 1.59375 0.234375q0.609375 0.21875 0.890625 0.5625q0.28125 0.34375 0.40625 0.875q0.0625 0.328125 0.0625 1.1875l0 1.71875q0 1.796875 0.078125 2.28125q0.078125 0.46875 0.328125 0.90625l-1.34375 0q-0.203125 -0.40625 -0.265625 -0.9375zm-0.109375 -2.875q-0.703125 0.28125 -2.09375 0.484375q-0.796875 0.109375 -1.125 0.265625q-0.328125 0.140625 -0.515625 0.421875q-0.171875 0.265625 -0.171875 0.59375q0 0.515625 0.390625 0.859375q0.390625 0.34375 1.140625 0.34375q0.734375 0 1.3125 -0.3125q0.59375 -0.328125 0.859375 -0.890625q0.203125 -0.4375 0.203125 -1.296875l0 -0.46875z" fill-rule="nonzero"/><path fill="#000000" fill-opacity="0.0" d="m485.90265 129.67197l120.69293 0l0 20.94487l-120.69293 0z" fill-rule="evenodd"/><path fill="#000000" d="m522.7916 155.83008q-1.0625 -1.34375 -1.796875 -3.140625q-0.734375 -1.8125 -0.734375 -3.734375q0 -1.703125 0.546875 -3.265625q0.640625 -1.8125 1.984375 -3.609375l0.921875 0q-0.859375 1.484375 -1.140625 2.125q-0.4375 0.984375 -0.6875 2.0625q-0.296875 1.34375 -0.296875 2.6875q0 3.453125 2.125 6.875l-0.921875 0zm8.833801 -4.3125l0 1.234375l-6.9375 0q-0.015625 -0.46875 0.15625 -0.890625q0.265625 -0.71875 0.84375 -1.40625q0.59375 -0.6875 1.6875 -1.578125q1.71875 -1.40625 2.3125 -2.21875q0.609375 -0.828125 0.609375 -1.5625q0 -0.765625 -0.5625 -1.28125q-0.546875 -0.53125 -1.421875 -0.53125q-0.921875 0 -1.484375 0.5625q-0.5625 0.5625 -0.5625 1.546875l-1.328125 -0.140625q0.140625 -1.484375 1.015625 -2.25q0.890625 -0.78125 2.390625 -0.78125q1.515625 0 2.390625 0.84375q0.875 0.828125 0.875 2.0625q0 0.640625 -0.265625 1.25q-0.25 0.59375 -0.84375 1.265625q-0.59375 0.671875 -1.984375 1.859375q-1.15625 0.96875 -1.484375 1.3125q-0.328125 0.34375 -0.546875 0.703125l5.140625 0zm2.588623 4.3125l-0.921875 0q2.140625 -3.421875 2.140625 -6.875q0 -1.34375 -0.3125 -2.671875q-0.25 -1.0625 -0.671875 -2.046875q-0.28125 -0.65625 -1.15625 -2.15625l0.921875 0q1.34375 1.796875 1.984375 3.609375q0.546875 1.5625 0.546875 3.265625q0 1.921875 -0.734375 3.734375q-0.734375 1.796875 -1.796875 3.140625zm7.5932007 -5.34375l1.265625 -0.203125q0.109375 0.765625 0.59375 1.171875q0.5 0.40625 1.375 0.40625q0.890625 0 1.3125 -0.359375q0.4375 -0.359375 0.4375 -0.84375q0 -0.4375 -0.375 -0.6875q-0.265625 -0.171875 -1.3125 -0.4375q-1.421875 -0.359375 -1.96875 -0.609375q-0.546875 -0.265625 -0.828125 -0.734375q-0.28125 -0.46875 -0.28125 -1.015625q0 -0.515625 0.21875 -0.9375q0.234375 -0.4375 0.640625 -0.734375q0.296875 -0.21875 0.8125 -0.359375q0.53125 -0.15625 1.125 -0.15625q0.890625 0 1.5625 0.265625q0.671875 0.25 1.0 0.6875q0.328125 0.4375 0.4375 1.171875l-1.25 0.171875q-0.09375 -0.578125 -0.5 -0.90625q-0.40625 -0.34375 -1.15625 -0.34375q-0.890625 0 -1.28125 0.296875q-0.375 0.296875 -0.375 0.6875q0 0.25 0.15625 0.453125q0.15625 0.203125 0.5 0.34375q0.1875 0.078125 1.140625 0.328125q1.359375 0.359375 1.890625 0.59375q0.546875 0.234375 0.859375 0.6875q0.3125 0.4375 0.3125 1.09375q0 0.640625 -0.375 1.21875q-0.375 0.5625 -1.09375 0.875q-0.703125 0.3125 -1.59375 0.3125q-1.484375 0 -2.265625 -0.609375q-0.765625 -0.625 -0.984375 -1.828125zm10.65625 1.109375l0.1875 1.140625q-0.546875 0.109375 -0.984375 0.109375q-0.6875 0 -1.078125 -0.21875q-0.390625 -0.21875 -0.546875 -0.578125q-0.15625 -0.359375 -0.15625 -1.515625l0 -4.375l-0.953125 0l0 -1.0l0.953125 0l0 -1.890625l1.28125 -0.765625l0 2.65625l1.296875 0l0 1.0l-1.296875 0l0 4.4375q0 0.546875 0.0625 0.71875q0.078125 0.15625 0.21875 0.25q0.15625 0.078125 0.453125 0.078125q0.203125 0 0.5625 -0.046875zm6.2126465 0.21875q-0.71875 0.609375 -1.375 0.859375q-0.65625 0.25 -1.421875 0.25q-1.25 0 -1.921875 -0.609375q-0.671875 -0.609375 -0.671875 -1.5625q0 -0.5625 0.25 -1.015625q0.25 -0.46875 0.65625 -0.75q0.421875 -0.28125 0.9375 -0.421875q0.375 -0.09375 1.140625 -0.1875q1.5625 -0.1875 2.296875 -0.453125q0.015625 -0.265625 0.015625 -0.328125q0 -0.796875 -0.375 -1.109375q-0.484375 -0.4375 -1.453125 -0.4375q-0.921875 0 -1.359375 0.328125q-0.421875 0.3125 -0.625 1.109375l-1.265625 -0.171875q0.171875 -0.796875 0.5625 -1.296875q0.390625 -0.5 1.140625 -0.765625q0.75 -0.265625 1.71875 -0.265625q0.984375 0 1.59375 0.234375q0.609375 0.21875 0.890625 0.5625q0.28125 0.34375 0.40625 0.875q0.0625 0.328125 0.0625 1.1875l0 1.71875q0 1.796875 0.078125 2.28125q0.078125 0.46875 0.328125 0.90625l-1.34375 0q-0.203125 -0.40625 -0.265625 -0.9375zm-0.109375 -2.875q-0.703125 0.28125 -2.09375 0.484375q-0.796875 0.109375 -1.125 0.265625q-0.328125 0.140625 -0.515625 0.421875q-0.171875 0.265625 -0.171875 0.59375q0 0.515625 0.390625 0.859375q0.390625 0.34375 1.140625 0.34375q0.734375 0 1.3125 -0.3125q0.59375 -0.328125 0.859375 -0.890625q0.203125 -0.4375 0.203125 -1.296875l0 -0.46875zm6.119812 2.65625l0.1875 1.140625q-0.546875 0.109375 -0.984375 0.109375q-0.6875 0 -1.078125 -0.21875q-0.390625 -0.21875 -0.546875 -0.578125q-0.15625 -0.359375 -0.15625 -1.515625l0 -4.375l-0.953125 0l0 -1.0l0.953125 0l0 -1.890625l1.28125 -0.765625l0 2.65625l1.296875 0l0 1.0l-1.296875 0l0 4.4375q0 0.546875 0.0625 0.71875q0.078125 0.15625 0.21875 0.25q0.15625 0.078125 0.453125 0.078125q0.203125 0 0.5625 -0.046875zm6.4626465 -1.296875l1.328125 0.171875q-0.3125 1.171875 -1.171875 1.8125q-0.84375 0.640625 -2.171875 0.640625q-1.671875 0 -2.65625 -1.015625q-0.96875 -1.03125 -0.96875 -2.890625q0 -1.921875 0.984375 -2.96875q1.0 -1.0625 2.578125 -1.0625q1.515625 0 2.484375 1.03125q0.96875 1.03125 0.96875 2.921875q0 0.109375 -0.015625 0.34375l-5.65625 0q0.0625 1.25 0.703125 1.921875q0.640625 0.65625 1.59375 0.65625q0.703125 0 1.203125 -0.359375q0.5 -0.375 0.796875 -1.203125zm-4.234375 -2.078125l4.25 0q-0.09375 -0.953125 -0.484375 -1.4375q-0.625 -0.75 -1.609375 -0.75q-0.875 0 -1.484375 0.59375q-0.609375 0.59375 -0.671875 1.59375z" fill-rule="nonzero"/><path fill="#ffffff" d="m465.66925 62.73656l0 0c0 -2.859459 2.3180542 -5.1775055 5.1775208 -5.1775055l136.44815 0c1.3731079 0 2.6900635 0.54548645 3.6610107 1.5164566c0.9710083 0.97097015 1.5164795 2.2878876 1.5164795 3.661049l0 42.999317c0 2.859459 -2.3180542 5.1775055 -5.17749 5.1775055l-136.44815 0c-2.8594666 0 -5.1775208 -2.3180466 -5.1775208 -5.1775055z" fill-rule="evenodd"/><path stroke="#000000" stroke-width="1.0" stroke-linejoin="round" stroke-linecap="butt" stroke-dasharray="4.0,3.0" d="m465.66925 62.73656l0 0c0 -2.859459 2.3180542 -5.1775055 5.1775208 -5.1775055l136.44815 0c1.3731079 0 2.6900635 0.54548645 3.6610107 1.5164566c0.9710083 0.97097015 1.5164795 2.2878876 1.5164795 3.661049l0 42.999317c0 2.859459 -2.3180542 5.1775055 -5.17749 5.1775055l-136.44815 0c-2.8594666 0 -5.1775208 -2.3180466 -5.1775208 -5.1775055z" fill-rule="evenodd"/><path fill="#000000" d="m492.28833 78.29612l2.046875 0.65625q-0.46875 1.71875 -1.578125 2.546875q-1.09375 0.828125 -2.78125 0.828125q-2.078125 0 -3.4375 -1.421875q-1.34375 -1.421875 -1.34375 -3.90625q0 -2.609375 1.359375 -4.0625q1.359375 -1.453125 3.5625 -1.453125q1.921875 0 3.125 1.140625q0.71875 0.671875 1.0625 1.9375l-2.09375 0.5q-0.1875 -0.828125 -0.78125 -1.296875q-0.578125 -0.46875 -1.421875 -0.46875q-1.171875 0 -1.90625 0.84375q-0.71875 0.828125 -0.71875 2.703125q0 1.984375 0.71875 2.84375q0.71875 0.84375 1.859375 0.84375q0.84375 0 1.453125 -0.53125q0.609375 -0.546875 0.875 -1.703125zm5.865509 -6.625l0 3.84375q0.96875 -1.125 2.3125 -1.125q0.703125 0 1.25 0.265625q0.5625 0.25 0.84375 0.65625q0.28125 0.390625 0.390625 0.875q0.109375 0.484375 0.109375 1.515625l0 4.453125l-2.015625 0l0 -4.015625q0 -1.1875 -0.125 -1.515625q-0.109375 -0.328125 -0.40625 -0.515625q-0.28125 -0.1875 -0.71875 -0.1875q-0.5 0 -0.890625 0.25q-0.390625 0.234375 -0.578125 0.734375q-0.171875 0.484375 -0.171875 1.4375l0 3.8125l-2.015625 0l0 -10.484375l2.015625 0zm11.343262 8.0625l2.0 0.34375q-0.375 1.09375 -1.21875 1.671875q-0.828125 0.578125 -2.078125 0.578125q-1.984375 0 -2.9375 -1.296875q-0.75 -1.03125 -0.75 -2.625q0 -1.875 0.984375 -2.9375q0.984375 -1.078125 2.5 -1.078125q1.6875 0 2.671875 1.125q0.984375 1.109375 0.9375 3.421875l-5.03125 0q0.015625 0.890625 0.484375 1.390625q0.46875 0.5 1.15625 0.5q0.46875 0 0.78125 -0.25q0.328125 -0.265625 0.5 -0.84375zm0.109375 -2.03125q-0.015625 -0.875 -0.453125 -1.328125q-0.421875 -0.453125 -1.03125 -0.453125q-0.671875 0 -1.09375 0.484375q-0.421875 0.46875 -0.421875 1.296875l3.0 0zm10.260468 -0.90625l-1.96875 0.359375q-0.109375 -0.59375 -0.46875 -0.890625q-0.34375 -0.296875 -0.90625 -0.296875q-0.75 0 -1.203125 0.515625q-0.453125 0.515625 -0.453125 1.734375q0 1.359375 0.453125 1.921875q0.453125 0.546875 1.21875 0.546875q0.578125 0 0.9375 -0.328125q0.375 -0.328125 0.515625 -1.109375l1.984375 0.328125q-0.3125 1.359375 -1.1875 2.0625q-0.875 0.6875 -2.328125 0.6875q-1.671875 0 -2.671875 -1.046875q-0.984375 -1.0625 -0.984375 -2.921875q0 -1.875 0.984375 -2.921875q1.0 -1.046875 2.703125 -1.046875q1.390625 0 2.203125 0.59375q0.828125 0.59375 1.171875 1.8125zm1.463623 5.359375l0 -10.484375l2.0 0l0 5.5625l2.359375 -2.671875l2.484375 0l-2.609375 2.765625l2.796875 4.828125l-2.171875 0l-1.921875 -3.40625l-0.9375 0.96875l0 2.4375l-2.0 0zm8.166748 -7.59375l1.875 0l0 1.109375q0.359375 -0.578125 0.984375 -0.921875q0.625 -0.359375 1.375 -0.359375q1.328125 0 2.25 1.03125q0.921875 1.03125 0.921875 2.890625q0 1.90625 -0.9375 2.96875q-0.921875 1.046875 -2.25 1.046875q-0.625 0 -1.140625 -0.25q-0.5 -0.25 -1.078125 -0.859375l0 3.828125l-2.0 0l0 -10.484375zm1.984375 3.671875q0 1.28125 0.5 1.890625q0.515625 0.609375 1.25 0.609375q0.703125 0 1.15625 -0.5625q0.46875 -0.5625 0.46875 -1.84375q0 -1.203125 -0.484375 -1.78125q-0.46875 -0.578125 -1.1875 -0.578125q-0.734375 0 -1.21875 0.578125q-0.484375 0.5625 -0.484375 1.6875zm6.5619507 0.015625q0 -1.0 0.484375 -1.9375q0.5 -0.9375 1.40625 -1.421875q0.90625 -0.5 2.015625 -0.5q1.71875 0 2.828125 1.125q1.109375 1.109375 1.109375 2.8125q0 1.734375 -1.125 2.875q-1.109375 1.125 -2.796875 1.125q-1.046875 0 -2.0 -0.46875q-0.9375 -0.46875 -1.4375 -1.375q-0.484375 -0.921875 -0.484375 -2.234375zm2.046875 0.109375q0 1.125 0.53125 1.734375q0.546875 0.59375 1.34375 0.59375q0.78125 0 1.3125 -0.59375q0.53125 -0.609375 0.53125 -1.75q0 -1.125 -0.53125 -1.71875q-0.53125 -0.609375 -1.3125 -0.609375q-0.796875 0 -1.34375 0.609375q-0.53125 0.59375 -0.53125 1.734375zm7.3588867 -4.828125l0 -1.859375l2.015625 0l0 1.859375l-2.015625 0zm0 8.625l0 -7.59375l2.015625 0l0 7.59375l-2.015625 0zm10.993835 0l-2.015625 0l0 -3.875q0 -1.234375 -0.125 -1.59375q-0.125 -0.359375 -0.421875 -0.5625q-0.296875 -0.203125 -0.703125 -0.203125q-0.515625 0 -0.9375 0.296875q-0.40625 0.28125 -0.5625 0.75q-0.15625 0.46875 -0.15625 1.75l0 3.4375l-2.015625 0l0 -7.59375l1.875 0l0 1.109375q1.0 -1.28125 2.5 -1.28125q0.671875 0 1.21875 0.234375q0.546875 0.234375 0.828125 0.609375q0.296875 0.375 0.40625 0.84375q0.109375 0.46875 0.109375 1.359375l0 4.71875zm5.5151367 -7.59375l0 1.59375l-1.375 0l0 3.0625q0 0.9375 0.03125 1.09375q0.046875 0.140625 0.1875 0.25q0.140625 0.09375 0.34375 0.09375q0.28125 0 0.8125 -0.1875l0.171875 1.5625q-0.703125 0.296875 -1.59375 0.296875q-0.546875 0 -0.984375 -0.171875q-0.421875 -0.1875 -0.640625 -0.46875q-0.203125 -0.296875 -0.28125 -0.796875q-0.0625 -0.359375 -0.0625 -1.421875l0 -3.3125l-0.921875 0l0 -1.59375l0.921875 0l0 -1.515625l2.015625 -1.171875l0 2.6875l1.375 0zm2.9119263 2.3125l-1.828125 -0.328125q0.296875 -1.109375 1.046875 -1.625q0.765625 -0.53125 2.234375 -0.53125q1.359375 0 2.015625 0.3125q0.65625 0.3125 0.921875 0.8125q0.265625 0.484375 0.265625 1.796875l-0.015625 2.34375q0 1.0 0.09375 1.484375q0.09375 0.46875 0.359375 1.015625l-1.984375 0q-0.078125 -0.203125 -0.203125 -0.59375q-0.046875 -0.171875 -0.0625 -0.234375q-0.515625 0.5 -1.109375 0.75q-0.578125 0.25 -1.25 0.25q-1.171875 0 -1.859375 -0.640625q-0.671875 -0.640625 -0.671875 -1.609375q0 -0.640625 0.3125 -1.140625q0.3125 -0.515625 0.859375 -0.78125q0.5625 -0.265625 1.609375 -0.46875q1.40625 -0.265625 1.953125 -0.484375l0 -0.203125q0 -0.578125 -0.296875 -0.828125q-0.28125 -0.25 -1.078125 -0.25q-0.53125 0 -0.84375 0.21875q-0.296875 0.203125 -0.46875 0.734375zm2.6875 1.625q-0.390625 0.140625 -1.234375 0.328125q-0.828125 0.171875 -1.09375 0.34375q-0.390625 0.265625 -0.390625 0.703125q0 0.421875 0.3125 0.734375q0.3125 0.296875 0.8125 0.296875q0.53125 0 1.03125 -0.359375q0.359375 -0.265625 0.484375 -0.65625q0.078125 -0.265625 0.078125 -0.984375l0 -0.40625zm3.869812 3.65625l0 -10.484375l2.015625 0l0 3.765625q0.921875 -1.046875 2.203125 -1.046875q1.375 0 2.28125 1.0q0.921875 1.0 0.921875 2.890625q0 1.9375 -0.9375 3.0q-0.921875 1.046875 -2.25 1.046875q-0.640625 0 -1.28125 -0.328125q-0.625 -0.328125 -1.09375 -0.953125l0 1.109375l-1.859375 0zm2.0 -3.96875q0 1.1875 0.359375 1.75q0.53125 0.796875 1.390625 0.796875q0.671875 0 1.140625 -0.5625q0.46875 -0.578125 0.46875 -1.796875q0 -1.296875 -0.484375 -1.875q-0.46875 -0.578125 -1.203125 -0.578125q-0.71875 0 -1.203125 0.5625q-0.46875 0.5625 -0.46875 1.703125zm7.0307617 3.96875l0 -10.484375l2.015625 0l0 10.484375l-2.015625 0zm8.47821 -2.421875l2.0 0.34375q-0.375 1.09375 -1.21875 1.671875q-0.828125 0.578125 -2.078125 0.578125q-1.984375 0 -2.9375 -1.296875q-0.75 -1.03125 -0.75 -2.625q0 -1.875 0.984375 -2.9375q0.984375 -1.078125 2.5 -1.078125q1.6875 0 2.671875 1.125q0.984375 1.109375 0.9375 3.421875l-5.03125 0q0.015625 0.890625 0.484375 1.390625q0.46875 0.5 1.15625 0.5q0.46875 0 0.78125 -0.25q0.328125 -0.265625 0.5 -0.84375zm0.109375 -2.03125q-0.015625 -0.875 -0.453125 -1.328125q-0.421875 -0.453125 -1.03125 -0.453125q-0.671875 0 -1.09375 0.484375q-0.421875 0.46875 -0.421875 1.296875l3.0 0z" fill-rule="nonzero"/><path fill="#000000" d="m495.47043 97.299866l-0.21875 1.125l-2.546875 0l2.03125 -9.734375l2.53125 0l-0.234375 1.15625l-1.140625 0l-1.546875 7.453125l1.125 0zm2.1736145 -6.515625l1.390625 0l-0.21875 1.078125q0.78125 -1.203125 1.6875 -1.203125q0.328125 0 0.6875 0.15625l-0.5625 1.234375q-0.203125 -0.078125 -0.4375 -0.078125q-0.390625 0 -0.796875 0.296875q-0.390625 0.28125 -0.609375 0.78125q-0.21875 0.484375 -0.4375 1.53125l-0.359375 1.734375l-1.5 0l1.15625 -5.53125zm5.1782227 1.578125l-1.453125 -0.125q0.25 -0.75 0.875 -1.15625q0.625 -0.421875 1.640625 -0.421875q1.0625 0 1.578125 0.4375q0.515625 0.421875 0.515625 1.046875q0 0.25 -0.046875 0.53125q-0.046875 0.28125 -0.3125 1.46875q-0.21875 0.984375 -0.21875 1.390625q0 0.34375 0.125 0.78125l-1.453125 0q-0.09375 -0.296875 -0.109375 -0.625q-0.328125 0.359375 -0.75 0.5625q-0.421875 0.1875 -0.859375 0.1875q-0.6875 0 -1.140625 -0.4375q-0.4375 -0.453125 -0.4375 -1.171875q0 -0.78125 0.484375 -1.25q0.5 -0.484375 1.75 -0.578125q1.078125 -0.09375 1.4375 -0.21875q0.09375 -0.3125 0.09375 -0.5q0 -0.234375 -0.203125 -0.390625q-0.1875 -0.171875 -0.5625 -0.171875q-0.40625 0 -0.640625 0.171875q-0.21875 0.15625 -0.3125 0.46875zm1.421875 1.375q-0.140625 0.03125 -0.359375 0.0625q-1.125 0.140625 -1.46875 0.40625q-0.234375 0.1875 -0.234375 0.5q0 0.265625 0.1875 0.453125q0.1875 0.171875 0.484375 0.171875q0.34375 0 0.640625 -0.15625q0.296875 -0.171875 0.4375 -0.421875q0.15625 -0.265625 0.265625 -0.8125l0.046875 -0.203125zm3.5827637 -2.953125l1.40625 0l-0.140625 0.71875q0.53125 -0.453125 0.984375 -0.640625q0.46875 -0.203125 0.96875 -0.203125q0.6875 0 1.078125 0.390625q0.390625 0.390625 0.390625 1.03125q0 0.296875 -0.171875 1.109375l-0.640625 3.125l-1.5 0l0.65625 -3.140625q0.140625 -0.703125 0.140625 -0.828125q0 -0.296875 -0.171875 -0.453125q-0.15625 -0.171875 -0.46875 -0.171875q-0.328125 0 -0.734375 0.28125q-0.390625 0.28125 -0.625 0.734375q-0.15625 0.3125 -0.359375 1.3125l-0.484375 2.265625l-1.484375 0l1.15625 -5.53125zm10.431152 5.53125l-1.421875 0l0.125 -0.59375q-0.40625 0.390625 -0.796875 0.5625q-0.390625 0.15625 -0.875 0.15625q-0.859375 0 -1.40625 -0.578125q-0.53125 -0.59375 -0.53125 -1.734375q0 -1.328125 0.75 -2.390625q0.75 -1.078125 1.984375 -1.078125q1.109375 0 1.671875 0.890625l0.59375 -2.859375l1.5 0l-1.59375 7.625zm-3.453125 -2.25q0 0.59375 0.296875 0.9375q0.296875 0.328125 0.734375 0.328125q0.40625 0 0.75 -0.28125q0.359375 -0.28125 0.5625 -0.84375q0.21875 -0.578125 0.21875 -1.109375q0 -0.59375 -0.328125 -0.953125q-0.3125 -0.375 -0.734375 -0.375q-0.65625 0 -1.078125 0.734375q-0.421875 0.71875 -0.421875 1.5625zm5.0717163 -0.046875q0 -1.53125 0.859375 -2.4375q0.875 -0.921875 2.28125 -0.921875q1.234375 0 1.921875 0.671875q0.6875 0.671875 0.6875 1.8125q0 1.34375 -0.859375 2.328125q-0.859375 0.96875 -2.3125 0.96875q-0.765625 0 -1.375 -0.3125q-0.609375 -0.3125 -0.90625 -0.875q-0.296875 -0.578125 -0.296875 -1.234375zm4.265625 -1.0625q0 -0.53125 -0.3125 -0.84375q-0.3125 -0.328125 -0.796875 -0.328125q-0.484375 0 -0.859375 0.296875q-0.375 0.296875 -0.59375 0.875q-0.203125 0.5625 -0.203125 1.046875q0 0.59375 0.3125 0.9375q0.328125 0.34375 0.828125 0.34375q0.609375 0 1.03125 -0.515625q0.59375 -0.75 0.59375 -1.8125zm3.1342773 -2.171875l1.40625 0l-0.140625 0.671875q0.828125 -0.796875 1.734375 -0.796875q0.625 0 0.953125 0.265625q0.34375 0.25 0.4375 0.71875q0.28125 -0.421875 0.8125 -0.703125q0.546875 -0.28125 1.125 -0.28125q0.65625 0 1.015625 0.359375q0.375 0.34375 0.375 0.9375q0 0.28125 -0.140625 0.984375l-0.703125 3.375l-1.5 0l0.71875 -3.375q0.125 -0.640625 0.125 -0.71875q0 -0.234375 -0.140625 -0.359375q-0.140625 -0.140625 -0.40625 -0.140625q-0.5625 0 -1.0 0.59375q-0.3125 0.421875 -0.546875 1.484375l-0.515625 2.515625l-1.5 0l0.703125 -3.34375q0.109375 -0.578125 0.109375 -0.75q0 -0.21875 -0.15625 -0.359375q-0.140625 -0.140625 -0.390625 -0.140625q-0.25 0 -0.515625 0.15625q-0.25 0.140625 -0.453125 0.40625q-0.1875 0.25 -0.328125 0.640625q-0.0625 0.1875 -0.203125 0.84375l-0.53125 2.546875l-1.5 0l1.15625 -5.53125zm12.920166 -2.09375l1.5 0l-0.28125 1.34375l-1.5 0l0.28125 -1.34375zm-0.4375 2.09375l1.5 0l-1.15625 5.53125l-1.5 0l1.15625 -5.53125zm2.9918823 0l1.40625 0l-0.140625 0.71875q0.53125 -0.453125 0.984375 -0.640625q0.46875 -0.203125 0.96875 -0.203125q0.6875 0 1.078125 0.390625q0.390625 0.390625 0.390625 1.03125q0 0.296875 -0.171875 1.109375l-0.640625 3.125l-1.5 0l0.65625 -3.140625q0.140625 -0.703125 0.140625 -0.828125q0 -0.296875 -0.171875 -0.453125q-0.15625 -0.171875 -0.46875 -0.171875q-0.328125 0 -0.734375 0.28125q-0.390625 0.28125 -0.625 0.734375q-0.15625 0.3125 -0.359375 1.3125l-0.484375 2.265625l-1.484375 0l1.15625 -5.53125zm6.9155273 -2.09375l1.5 0l-0.28125 1.34375l-1.5 0l0.28125 -1.34375zm-0.4375 2.09375l1.5 0l-1.15625 5.53125l-1.5 0l1.15625 -5.53125zm2.1793823 1.109375l0.234375 -1.109375l0.734375 0l0.171875 -0.875l1.71875 -1.03125l-0.40625 1.90625l0.90625 0l-0.21875 1.109375l-0.921875 0l-0.484375 2.3125q-0.125 0.640625 -0.125 0.71875q0 0.171875 0.109375 0.28125q0.109375 0.09375 0.390625 0.09375q0.09375 0 0.5 -0.046875l-0.234375 1.109375q-0.390625 0.078125 -0.796875 0.078125q-0.78125 0 -1.140625 -0.296875q-0.359375 -0.3125 -0.359375 -0.84375q0 -0.265625 0.1875 -1.1875l0.46875 -2.21875l-0.734375 0zm5.9467773 2.875l1.453125 -0.234375q0.1875 0.46875 0.46875 0.65625q0.296875 0.1875 0.78125 0.1875q0.515625 0 0.8125 -0.234375q0.21875 -0.15625 0.21875 -0.375q0 -0.15625 -0.109375 -0.265625q-0.109375 -0.125 -0.625 -0.28125q-1.34375 -0.453125 -1.671875 -0.703125q-0.5 -0.40625 -0.5 -1.0625q0 -0.65625 0.484375 -1.140625q0.6875 -0.65625 2.03125 -0.65625q1.0625 0 1.609375 0.390625q0.546875 0.390625 0.6875 1.0625l-1.375 0.234375q-0.109375 -0.296875 -0.359375 -0.453125q-0.328125 -0.203125 -0.796875 -0.203125q-0.46875 0 -0.671875 0.15625q-0.203125 0.15625 -0.203125 0.359375q0 0.203125 0.203125 0.34375q0.125 0.078125 0.84375 0.296875q1.09375 0.3125 1.453125 0.625q0.53125 0.421875 0.53125 1.03125q0 0.78125 -0.671875 1.359375q-0.65625 0.578125 -1.859375 0.578125q-1.1875 0 -1.84375 -0.4375q-0.65625 -0.4375 -0.890625 -1.234375zm6.4889526 -2.875l0.234375 -1.109375l0.734375 0l0.171875 -0.875l1.71875 -1.03125l-0.40625 1.90625l0.90625 0l-0.21875 1.109375l-0.921875 0l-0.484375 2.3125q-0.125 0.640625 -0.125 0.71875q0 0.171875 0.109375 0.28125q0.109375 0.09375 0.390625 0.09375q0.09375 0 0.5 -0.046875l-0.234375 1.109375q-0.390625 0.078125 -0.796875 0.078125q-0.78125 0 -1.140625 -0.296875q-0.359375 -0.3125 -0.359375 -0.84375q0 -0.265625 0.1875 -1.1875l0.46875 -2.21875l-0.734375 0zm5.28302 0.46875l-1.453125 -0.125q0.25 -0.75 0.875 -1.15625q0.625 -0.421875 1.640625 -0.421875q1.0625 0 1.578125 0.4375q0.515625 0.421875 0.515625 1.046875q0 0.25 -0.046875 0.53125q-0.046875 0.28125 -0.3125 1.46875q-0.21875 0.984375 -0.21875 1.390625q0 0.34375 0.125 0.78125l-1.453125 0q-0.09375 -0.296875 -0.109375 -0.625q-0.328125 0.359375 -0.75 0.5625q-0.421875 0.1875 -0.859375 0.1875q-0.6875 0 -1.140625 -0.4375q-0.4375 -0.453125 -0.4375 -1.171875q0 -0.78125 0.484375 -1.25q0.5 -0.484375 1.75 -0.578125q1.078125 -0.09375 1.4375 -0.21875q0.09375 -0.3125 0.09375 -0.5q0 -0.234375 -0.203125 -0.390625q-0.1875 -0.171875 -0.5625 -0.171875q-0.40625 0 -0.640625 0.171875q-0.21875 0.15625 -0.3125 0.46875zm1.421875 1.375q-0.140625 0.03125 -0.359375 0.0625q-1.125 0.140625 -1.46875 0.40625q-0.234375 0.1875 -0.234375 0.5q0 0.265625 0.1875 0.453125q0.1875 0.171875 0.484375 0.171875q0.34375 0 0.640625 -0.15625q0.296875 -0.171875 0.4375 -0.421875q0.15625 -0.265625 0.265625 -0.8125l0.046875 -0.203125zm2.7702637 -1.84375l0.234375 -1.109375l0.734375 0l0.171875 -0.875l1.71875 -1.03125l-0.40625 1.90625l0.90625 0l-0.21875 1.109375l-0.921875 0l-0.484375 2.3125q-0.125 0.640625 -0.125 0.71875q0 0.171875 0.109375 0.28125q0.109375 0.09375 0.390625 0.09375q0.09375 0 0.5 -0.046875l-0.234375 1.109375q-0.390625 0.078125 -0.796875 0.078125q-0.78125 0 -1.140625 -0.296875q-0.359375 -0.3125 -0.359375 -0.84375q0 -0.265625 0.1875 -1.1875l0.46875 -2.21875l-0.734375 0zm8.564209 2.125l-3.75 0q0 0.078125 0 0.125q0 0.5625 0.3125 0.90625q0.3125 0.328125 0.765625 0.328125q0.734375 0 1.15625 -0.765625l1.34375 0.21875q-0.390625 0.8125 -1.046875 1.21875q-0.65625 0.390625 -1.46875 0.390625q-1.109375 0 -1.8125 -0.703125q-0.6875 -0.703125 -0.6875 -1.859375q0 -1.140625 0.625 -2.015625q0.859375 -1.203125 2.453125 -1.203125q1.015625 0 1.609375 0.625q0.59375 0.625 0.59375 1.765625q0 0.53125 -0.09375 0.96875zm-1.265625 -0.90625q0 -0.109375 0 -0.15625q0 -0.609375 -0.28125 -0.921875q-0.265625 -0.3125 -0.734375 -0.3125q-0.453125 0 -0.828125 0.359375q-0.359375 0.34375 -0.484375 1.03125l2.328125 0zm2.5827637 -3.3125l0.234375 -1.109375l2.5625 0l-2.03125 9.734375l-2.5625 0l0.25 -1.171875l1.140625 0l1.5625 -7.453125l-1.15625 0z" fill-rule="nonzero"/><path fill="#000000" fill-opacity="0.0" d="m-5.480996 2.4586864l409.5118 0l0 42.015747l-409.5118 0z" fill-rule="evenodd"/><path fill="#000000" d="m13.425254 24.472435l2.609376 0.828125q-0.59375095 2.1875 -2.000001 3.25q-1.390625 1.0625 -3.546875 1.0625q-2.65625 0 -4.375 -1.8125q-1.703125 -1.828125 -1.703125 -4.984375q0 -3.328125 1.71875 -5.171875q1.71875 -1.843751 4.515625 -1.843751q2.453125 0 3.984375 1.437501q0.921875 0.859375 1.375001 2.46875l-2.671876 0.640625q-0.234375 -1.046875 -0.984375 -1.640625q-0.75 -0.609375 -1.828125 -0.609375q-1.484375 0 -2.421875 1.078125q-0.921875 1.0625 -0.921875 3.4375q0 2.53125 0.90625 3.609375q0.921875 1.078125 2.375 1.078125q1.078125 0 1.84375 -0.671875q0.78125 -0.6875 1.125 -2.15625zm7.457322 -8.453125l0 4.921875q1.234375 -1.453125 2.953125 -1.453125q0.890625 0 1.59375 0.328125q0.71875 0.328125 1.078125 0.84375q0.359375 0.5 0.484375 1.125q0.140625 0.609375 0.140625 1.921875l0 5.671875l-2.5625 0l0 -5.109375q0 -1.515625 -0.15625 -1.921875q-0.140625 -0.421875 -0.515625 -0.65625q-0.359375 -0.25 -0.90625 -0.25q-0.640625 0 -1.140625 0.3125q-0.5 0.3125 -0.734375 0.9375q-0.234375 0.625 -0.234375 1.84375l0 4.84375l-2.5625 0l0 -13.359375l2.5625 0zm14.442856 10.28125l2.546875 0.421875q-0.484375 1.40625 -1.546875 2.140625q-1.0625 0.734375 -2.65625 0.734375q-2.515625 0 -3.734375 -1.65625q-0.953125 -1.3125 -0.953125 -3.328125q0 -2.40625 1.25 -3.765625q1.265625 -1.359375 3.1875 -1.359375q2.15625 0 3.40625 1.421875q1.25 1.421875 1.1875 4.375l-6.40625 0q0.03125 1.140625 0.609375 1.78125q0.59375 0.625 1.484375 0.625q0.59375 0 1.0 -0.328125q0.421875 -0.328125 0.625 -1.0625zm0.15625 -2.59375q-0.03125 -1.109375 -0.578125 -1.6875q-0.546875 -0.578125 -1.328125 -0.578125q-0.84375 0 -1.390625 0.609375q-0.546875 0.609375 -0.53125 1.65625l3.828125 0zm13.063217 -1.140625l-2.53125 0.453125q-0.125 -0.75 -0.578125 -1.125q-0.453125 -0.390625 -1.171875 -0.390625q-0.953125 0 -1.53125 0.65625q-0.5625 0.65625 -0.5625 2.203125q0 1.734375 0.578125 2.4375q0.578125 0.703125 1.546875 0.703125q0.734375 0 1.203125 -0.40625q0.46875 -0.421875 0.65625 -1.421875l2.515625 0.421875q-0.390625 1.734375 -1.515625 2.625q-1.109375 0.875 -2.96875 0.875q-2.125 0 -3.390625 -1.328125q-1.25 -1.34375 -1.25 -3.71875q0 -2.390625 1.265625 -3.71875q1.265625 -1.34375 3.421875 -1.34375q1.765625 0 2.796875 0.765625q1.046875 0.75 1.515625 2.3125zm1.8444672 6.8125l0 -13.359375l2.5625 0l0 7.09375l3.0 -3.40625l3.140625 0l-3.296875 3.53125l3.53125 6.140625l-2.75 0l-2.4375 -4.34375l-1.1875 1.25l0 3.09375l-2.5625 0zm10.391342 -9.671875l2.390625 0l0 1.421875q0.46875 -0.734375 1.25 -1.1875q0.796875 -0.453125 1.765625 -0.453125q1.6875 0 2.859375 1.328125q1.171875 1.3125 1.171875 3.671875q0 2.421875 -1.1875 3.765625q-1.1875 1.34375 -2.859375 1.34375q-0.8125 0 -1.46875 -0.3125q-0.640625 -0.328125 -1.359375 -1.09375l0 4.875l-2.5625 0l0 -13.359375zm2.53125 4.671875q0 1.625 0.640625 2.40625q0.65625 0.78125 1.578125 0.78125q0.90625 0 1.484375 -0.71875q0.59375 -0.71875 0.59375 -2.34375q0 -1.515625 -0.609375 -2.25q-0.609375 -0.75 -1.515625 -0.75q-0.9375 0 -1.5625 0.734375q-0.609375 0.71875 -0.609375 2.140625zm8.349106 0.03125q0 -1.28125 0.625 -2.46875q0.625 -1.203125 1.78125 -1.828125q1.15625 -0.625 2.578125 -0.625q2.1875 0 3.59375 1.421875q1.40625 1.421875 1.40625 3.609375q0 2.1875 -1.421875 3.640625q-1.421875 1.4375 -3.5625 1.4375q-1.328125 0 -2.546875 -0.59375q-1.203125 -0.609375 -1.828125 -1.765625q-0.625 -1.171875 -0.625 -2.828125zm2.625 0.125q0 1.453125 0.671875 2.21875q0.6875 0.75 1.6875 0.75q1.0 0 1.671875 -0.75q0.6875 -0.765625 0.6875 -2.234375q0 -1.421875 -0.6875 -2.1875q-0.671875 -0.765625 -1.671875 -0.765625q-1.0 0 -1.6875 0.765625q-0.671875 0.765625 -0.671875 2.203125zm9.364731 -6.140625l0 -2.375l2.5625 0l0 2.375l-2.5625 0zm0 10.984375l0 -9.671875l2.5625 0l0 9.671875l-2.5625 0zm13.980179 0l-2.5625 0l0 -4.9375q0 -1.5625 -0.171875 -2.015625q-0.15625 -0.46875 -0.53125 -0.71875q-0.359375 -0.265625 -0.875 -0.265625q-0.671875 0 -1.203125 0.375q-0.53125 0.359375 -0.734375 0.96875q-0.1875 0.59375 -0.1875 2.21875l0 4.375l-2.546875 0l0 -9.671875l2.375 0l0 1.421875q1.265625 -1.640625 3.1875 -1.640625q0.84375 0 1.546875 0.3125q0.703125 0.296875 1.0625 0.78125q0.359375 0.46875 0.5 1.078125q0.140625 0.59375 0.140625 1.703125l0 6.015625zm7.036606 -9.671875l0 2.03125l-1.75 0l0 3.90625q0 1.1875 0.046875 1.390625q0.046875 0.1875 0.21875 0.3125q0.1875 0.125 0.4375 0.125q0.359375 0 1.03125 -0.25l0.21875 2.0q-0.890625 0.375 -2.015625 0.375q-0.703125 0 -1.265625 -0.234375q-0.546875 -0.234375 -0.8125 -0.59375q-0.25 -0.375 -0.34375 -1.0q-0.09375 -0.453125 -0.09375 -1.8125l0 -4.21875l-1.171875 0l0 -2.03125l1.171875 0l0 -1.921875l2.578125 -1.5l0 3.421875l1.75 0zm3.681427 2.953125l-2.328125 -0.421875q0.40625 -1.40625 1.359375 -2.078125q0.953125 -0.671875 2.84375 -0.671875q1.703125 0 2.546875 0.40625q0.84375 0.40625 1.171875 1.03125q0.34375 0.625 0.34375 2.28125l-0.015625 3.0q0 1.265625 0.109375 1.875q0.125 0.609375 0.46875 1.296875l-2.53125 0q-0.109375 -0.25 -0.25 -0.75q-0.0625 -0.234375 -0.09375 -0.3125q-0.65625 0.640625 -1.40625 0.96875q-0.734375 0.3125 -1.59375 0.3125q-1.484375 0 -2.34375 -0.8125q-0.859375 -0.8125 -0.859375 -2.046875q0 -0.828125 0.390625 -1.46875q0.390625 -0.640625 1.09375 -0.96875q0.703125 -0.34375 2.03125 -0.609375q1.796875 -0.328125 2.484375 -0.625l0 -0.25q0 -0.75 -0.359375 -1.0625q-0.359375 -0.3125 -1.375 -0.3125q-0.6875 0 -1.078125 0.28125q-0.375 0.265625 -0.609375 0.9375zm3.421875 2.078125q-0.484375 0.15625 -1.5625 0.390625q-1.0625 0.21875 -1.390625 0.4375q-0.5 0.359375 -0.5 0.90625q0 0.53125 0.40625 0.9375q0.40625 0.390625 1.015625 0.390625q0.703125 0 1.328125 -0.46875q0.46875 -0.34375 0.609375 -0.84375q0.09375 -0.328125 0.09375 -1.25l0 -0.5zm4.938217 4.640625l0 -13.359375l2.5625 0l0 4.8125q1.171875 -1.34375 2.796875 -1.34375q1.765625 0 2.921875 1.28125q1.15625 1.28125 1.15625 3.671875q0 2.484375 -1.1875 3.828125q-1.171875 1.328125 -2.859375 1.328125q-0.828125 0 -1.640625 -0.40625q-0.796875 -0.421875 -1.375 -1.234375l0 1.421875l-2.375 0zm2.53125 -5.046875q0 1.5 0.484375 2.21875q0.65625 1.03125 1.765625 1.03125q0.84375 0 1.4375 -0.71875q0.59375 -0.734375 0.59375 -2.296875q0 -1.65625 -0.609375 -2.390625q-0.59375 -0.734375 -1.53125 -0.734375q-0.921875 0 -1.53125 0.71875q-0.609375 0.71875 -0.609375 2.171875zm8.974098 5.046875l0 -13.359375l2.5625 0l0 13.359375l-2.5625 0zm10.777054 -3.078125l2.546875 0.421875q-0.484375 1.40625 -1.546875 2.140625q-1.0625 0.734375 -2.65625 0.734375q-2.515625 0 -3.734375 -1.65625q-0.953125 -1.3125 -0.953125 -3.328125q0 -2.40625 1.25 -3.765625q1.265625 -1.359375 3.1875 -1.359375q2.15625 0 3.40625 1.421875q1.25 1.421875 1.1875 4.375l-6.40625 0q0.03125 1.140625 0.609375 1.78125q0.59375 0.625 1.484375 0.625q0.59375 0 1.0 -0.328125q0.421875 -0.328125 0.625 -1.0625zm0.15625 -2.59375q-0.03125 -1.109375 -0.578125 -1.6875q-0.546875 -0.578125 -1.328125 -0.578125q-0.84375 0 -1.390625 0.609375q-0.546875 0.609375 -0.53125 1.65625l3.828125 0zm4.625717 5.671875l0 -2.5625l2.5625 0l0 2.5625l-2.5625 0z" fill-rule="nonzero"/><path fill="#666666" d="m155.0974 19.70681l-0.390625 1.90625l-1.859375 0l-1.625 7.765625l-2.609375 0l1.625 -7.765625l-1.453125 0l0.390625 -1.90625l1.46875 0l0.203125 -1.0q0.25 -1.21875 0.484375 -1.640625q0.3125 -0.59375 0.921875 -0.921875q0.609375 -0.34375095 1.609375 -0.34375095q1.203125 0 2.53125 0.43750095l-0.515625 1.859375q-0.9375 -0.3125 -1.515625 -0.3125q-0.453125 0 -0.671875 0.28125q-0.140625 0.1875 -0.296875 0.953125l-0.140625 0.6875l1.84375 0zm1.353302 0l2.4375 0l-0.390625 1.875q1.375 -2.109375 2.96875 -2.109375q0.5625 0 1.203125 0.28125l-1.0 2.140625q-0.359375 -0.125 -0.75 -0.125q-0.6875 0 -1.390625 0.515625q-0.6875 0.5 -1.078125 1.359375q-0.390625 0.859375 -0.765625 2.703125l-0.640625 3.03125l-2.625 0l2.03125 -9.671875zm5.760269 5.65625q0 -2.6875 1.515625 -4.28125q1.515625 -1.609375 3.984375 -1.609375q2.140625 0 3.34375 1.1875q1.203125 1.171875 1.203125 3.171875q0 2.34375 -1.5 4.0625q-1.5 1.71875 -4.03125 1.71875q-1.359375 0 -2.421875 -0.546875q-1.046875 -0.546875 -1.578125 -1.546875q-0.515625 -1.015625 -0.515625 -2.15625zm7.453125 -1.875q0 -0.921875 -0.546875 -1.484375q-0.53125 -0.5625 -1.390625 -0.5625q-0.84375 0 -1.5 0.53125q-0.65625 0.515625 -1.03125 1.515625q-0.359375 1.0 -0.359375 1.84375q0 1.03125 0.5625 1.640625q0.5625 0.609375 1.421875 0.609375q1.078125 0 1.8125 -0.921875q1.03125 -1.296875 1.03125 -3.171875zm5.505356 -3.78125l2.453125 0l-0.234375 1.171875q1.4375 -1.40625 3.015625 -1.40625q1.09375 0 1.6875 0.46875q0.59375 0.453125 0.75 1.25q0.515625 -0.734375 1.453125 -1.21875q0.9375 -0.5 1.9375 -0.5q1.15625 0 1.796875 0.625q0.65625 0.625 0.65625 1.640625q0 0.5 -0.25 1.734375l-1.234375 5.90625l-2.625 0l1.25 -5.90625q0.21875 -1.109375 0.21875 -1.265625q0 -0.390625 -0.25 -0.625q-0.234375 -0.234375 -0.71875 -0.234375q-0.96875 0 -1.734375 1.03125q-0.5625 0.734375 -0.953125 2.609375l-0.921875 4.390625l-2.609375 0l1.21875 -5.84375q0.21875 -1.015625 0.21875 -1.3125q0 -0.390625 -0.265625 -0.625q-0.265625 -0.25 -0.71875 -0.25q-0.421875 0 -0.875 0.25q-0.453125 0.25 -0.796875 0.703125q-0.34375 0.453125 -0.59375 1.140625q-0.109375 0.328125 -0.359375 1.484375l-0.921875 4.453125l-2.609375 0l2.015625 -9.671875zm13.729019 13.359375l0 -1.65625l10.640625 0l0 1.65625l-10.640625 0zm17.860092 -7.328125l2.53125 0.40625q-0.625 1.6875 -1.859375 2.578125q-1.21875 0.890625 -2.84375 0.890625q-1.859375 0 -2.9375 -1.109375q-1.078125 -1.109375 -1.078125 -3.03125q0 -1.578125 0.65625 -2.984375q0.65625 -1.40625 1.96875 -2.203125q1.328125 -0.8125 2.90625 -0.8125q1.703125 0 2.71875 0.90625q1.03125 0.890625 1.15625 2.34375l-2.484375 0.265625q-0.09375 -0.8125 -0.5 -1.1875q-0.40625 -0.390625 -1.0625 -0.390625q-0.75 0 -1.40625 0.5625q-0.65625 0.5625 -1.015625 1.6875q-0.34375 1.125 -0.34375 2.109375q0 0.859375 0.421875 1.328125q0.421875 0.453125 1.046875 0.453125q0.625 0 1.203125 -0.453125q0.59375 -0.453125 0.921875 -1.359375zm6.453842 3.640625l-2.609375 0l2.796875 -13.359375l2.609375 0l-1.0 4.765625q0.890625 -0.703125 1.65625 -1.0q0.765625 -0.3125 1.640625 -0.3125q1.171875 0 1.84375 0.6875q0.6875 0.671875 0.6875 1.765625q0 0.578125 -0.25 1.796875l-1.1875 5.65625l-2.609375 0l1.21875 -5.765625q0.1875 -0.9375 0.1875 -1.203125q0 -0.484375 -0.3125 -0.765625q-0.296875 -0.296875 -0.8125 -0.296875q-0.65625 0 -1.25 0.453125q-0.796875 0.59375 -1.203125 1.46875q-0.21875 0.484375 -0.59375 2.28125l-0.8125 3.828125zm18.17723 -4.03125l-6.5625 0q-0.015625 0.15625 -0.015625 0.234375q0 0.96875 0.546875 1.5625q0.5625 0.59375 1.359375 0.59375q1.296875 0 2.03125 -1.34375l2.328125 0.390625q-0.671875 1.40625 -1.828125 2.125q-1.140625 0.703125 -2.5625 0.703125q-1.9375 0 -3.171875 -1.234375q-1.21875 -1.234375 -1.21875 -3.265625q0 -2.0 1.109375 -3.546875q1.5 -2.09375 4.296875 -2.09375q1.765625 0 2.8125 1.109375q1.046875 1.09375 1.046875 3.0625q0 0.953125 -0.171875 1.703125zm-2.203125 -1.59375q0 -0.171875 0 -0.265625q0 -1.0625 -0.484375 -1.59375q-0.484375 -0.546875 -1.296875 -0.546875q-0.796875 0 -1.453125 0.609375q-0.640625 0.609375 -0.859375 1.796875l4.09375 0zm9.719467 1.984375l2.53125 0.40625q-0.625 1.6875 -1.859375 2.578125q-1.21875 0.890625 -2.84375 0.890625q-1.859375 0 -2.9375 -1.109375q-1.078125 -1.109375 -1.078125 -3.03125q0 -1.578125 0.65625 -2.984375q0.65625 -1.40625 1.96875 -2.203125q1.328125 -0.8125 2.90625 -0.8125q1.703125 0 2.71875 0.90625q1.03125 0.890625 1.15625 2.34375l-2.484375 0.265625q-0.09375 -0.8125 -0.5 -1.1875q-0.40625 -0.390625 -1.0625 -0.390625q-0.75 0 -1.40625 0.5625q-0.65625 0.5625 -1.015625 1.6875q-0.34375 1.125 -0.34375 2.109375q0 0.859375 0.421875 1.328125q0.421875 0.453125 1.046875 0.453125q0.625 0 1.203125 -0.453125q0.59375 -0.453125 0.921875 -1.359375zm3.7663422 3.640625l2.796875 -13.359375l2.609375 0l-1.453125 6.953125l3.40625 -3.265625l3.390625 0l-3.890625 3.515625l2.078125 6.15625l-2.625 0l-1.328125 -4.46875l-1.765625 1.5625l-0.609375 2.90625l-2.609375 0zm12.360107 -9.671875l2.4843903 0l-0.21875 0.984375q0.796875 -0.65625 1.484375 -0.9375q0.6875 -0.28125 1.484375 -0.28125q1.53125 0 2.453125 1.046875q0.921875 1.046875 0.921875 3.125q0 2.625 -1.59375 4.421875q-1.375 1.546875 -3.234375 1.546875q-1.921875 0 -2.9062653 -1.5625l-1.046875 5.015625l-2.609375 0l2.78125 -13.359375zm1.5781403 5.546875q0 1.125 0.546875 1.75q0.546875 0.625 1.296875 0.625q0.65625 0 1.25 -0.46875q0.609375 -0.46875 1.0 -1.546875q0.390625 -1.09375 0.390625 -2.03125q0 -1.078125 -0.515625 -1.65625q-0.515625 -0.578125 -1.3125 -0.578125q-0.75 0 -1.375 0.53125q-0.609375 0.53125 -0.953125 1.5625q-0.328125 1.03125 -0.328125 1.8125zm8.255341 0.109375q0 -2.6875 1.515625 -4.28125q1.515625 -1.609375 3.984375 -1.609375q2.140625 0 3.34375 1.1875q1.203125 1.171875 1.203125 3.171875q0 2.34375 -1.5 4.0625q-1.5 1.71875 -4.03125 1.71875q-1.359375 0 -2.421875 -0.546875q-1.046875 -0.546875 -1.578125 -1.546875q-0.515625 -1.015625 -0.515625 -2.15625zm7.453125 -1.875q0 -0.921875 -0.546875 -1.484375q-0.53125 -0.5625 -1.390625 -0.5625q-0.84375 0 -1.5 0.53125q-0.65625 0.515625 -1.03125 1.515625q-0.359375 1.0 -0.359375 1.84375q0 1.03125 0.5625 1.640625q0.5625 0.609375 1.421875 0.609375q1.078125 0 1.8125 -0.921875q1.03125 -1.296875 1.03125 -3.171875zm6.3490906 -7.46875l2.625 0l-0.5 2.375l-2.609375 0l0.484375 -2.375zm-0.765625 3.6875l2.625 0l-2.03125 9.671875l-2.609375 0l2.015625 -9.671875zm5.230194 0l2.46875 0l-0.25 1.25q0.921875 -0.796875 1.71875 -1.140625q0.8125 -0.34375 1.71875 -0.34375q1.1875 0 1.875 0.6875q0.6875 0.6875 0.6875 1.8125q0 0.515625 -0.296875 1.9375l-1.140625 5.46875l-2.609375 0l1.140625 -5.5q0.25 -1.21875 0.25 -1.453125q0 -0.5 -0.296875 -0.78125q-0.296875 -0.296875 -0.8125 -0.296875q-0.578125 0 -1.28125 0.484375q-0.703125 0.484375 -1.109375 1.265625q-0.28125 0.5625 -0.640625 2.3125l-0.84375 3.96875l-2.609375 0l2.03125 -9.671875zm9.989716 1.9375l0.390625 -1.9375l1.28125 0l0.3125 -1.546875l3.0 -1.8125l-0.703125 3.359375l1.59375 0l-0.390625 1.9375l-1.609375 0l-0.84375 4.046875q-0.234375 1.109375 -0.234375 1.265625q0 0.296875 0.1875 0.46875q0.203125 0.171875 0.703125 0.171875q0.171875 0 0.859375 -0.0625l-0.40625 1.9375q-0.671875 0.140625 -1.390625 0.140625q-1.375 0 -2.015625 -0.53125q-0.625 -0.546875 -0.625 -1.484375q0 -0.453125 0.34375 -2.0625l0.8125 -3.890625l-1.265625 0z" fill-rule="nonzero"/><path fill="#666666" d="m303.507 33.30056l-1.75 0q-1.390625 -2.09375 -2.125 -4.359375q-0.734375 -2.28125 -0.734375 -4.40625q0 -2.625 0.90625 -4.96875q0.78125 -2.046875 1.984375 -3.765626l1.75 0q-1.25 2.750001 -1.71875 4.687501q-0.46875 1.9375 -0.46875 4.109375q0 1.5 0.28125 3.0625q0.28125 1.5625 0.765625 2.96875q0.3125 0.9375 1.109375 2.671875zm58.27588 0q0.765625 -1.609375 1.0625 -2.484375q0.3125 -0.859375 0.578125 -1.984375q0.265625 -1.140625 0.390625 -2.15625q0.125 -1.015625 0.125 -2.078125q0 -2.171875 -0.46875 -4.109375q-0.453125 -1.9375 -1.703125 -4.687501l1.734375 0q1.375 1.953126 2.140625 4.156251q0.765625 2.1875 0.765625 4.453125q0 1.90625 -0.609375 4.078125q-0.671875 2.4375 -2.25 4.8125l-1.765625 0z" fill-rule="nonzero"/><path fill="#f3f3f3" d="m314.08298 11.196539l0 0c0 -3.867443 8.60199 -7.002625 19.213074 -7.002625c10.611053 0 19.213043 3.135182 19.213043 7.002625l0 28.0105c0 3.867443 -8.60199 7.0026245 -19.213043 7.0026245c-10.611084 0 -19.213074 -3.1351814 -19.213074 -7.0026245z" fill-rule="evenodd"/><path fill="#000000" fill-opacity="0.0" d="m352.5091 11.196539l0 0c0 3.8674421 -8.60199 7.0026245 -19.213043 7.0026245c-10.611084 0 -19.213074 -3.1351824 -19.213074 -7.0026245" fill-rule="evenodd"/><path fill="#000000" fill-opacity="0.0" d="m314.08298 11.196539l0 0c0 -3.867443 8.60199 -7.002625 19.213074 -7.002625c10.611053 0 19.213043 3.135182 19.213043 7.002625l0 28.0105c0 3.867443 -8.60199 7.0026245 -19.213043 7.0026245c-10.611084 0 -19.213074 -3.1351814 -19.213074 -7.0026245z" fill-rule="evenodd"/><path stroke="#000000" stroke-width="1.0" stroke-linejoin="round" stroke-linecap="butt" d="m352.5091 11.196539l0 0c0 3.8674421 -8.60199 7.0026245 -19.213043 7.0026245c-10.611084 0 -19.213074 -3.1351824 -19.213074 -7.0026245" fill-rule="evenodd"/><path stroke="#000000" stroke-width="1.0" stroke-linejoin="round" stroke-linecap="butt" d="m314.08298 11.196539l0 0c0 -3.867443 8.60199 -7.002625 19.213074 -7.002625c10.611053 0 19.213043 3.135182 19.213043 7.002625l0 28.0105c0 3.867443 -8.60199 7.0026245 -19.213043 7.0026245c-10.611084 0 -19.213074 -3.1351814 -19.213074 -7.0026245z" fill-rule="evenodd"/><path fill="#000000" fill-opacity="0.0" d="m333.29605 46.209663c0 19.007874 66.188965 38.015747 132.37793 38.015747" fill-rule="evenodd"/><path stroke="#000000" stroke-width="1.0" stroke-linejoin="round" stroke-linecap="butt" d="m333.29602 46.20966c0 9.503937 16.547272 19.007877 41.368134 26.13583c12.410431 3.5639725 26.889282 6.5339584 42.402313 8.612938c7.756531 1.0394974 15.771576 1.8562393 23.915924 2.4131088c4.0722046 0.27844238 8.176697 0.49191284 12.297333 0.6357651c2.0603333 0.07192993 4.1247253 0.12645721 6.1910706 0.16300201c0.51660156 0.009132385 1.0333557 0.01714325 1.5501709 0.024024963l1.2260132 0.013626099" fill-rule="evenodd"/><path fill="#000000" stroke="#000000" stroke-width="1.0" stroke-linecap="butt" d="m462.24698 84.207954l-1.13031 1.1188354l3.095459 -1.1088257l-3.084015 -1.1403122z" fill-rule="evenodd"/><path fill="#ffffff" d="m643.559 62.73656l0 0c0 -2.859459 2.3180542 -5.1775055 5.17749 -5.1775055l136.44818 0c1.373169 0 2.6900635 0.54548645 3.6610107 1.5164566c0.9710083 0.97097015 1.5164795 2.2878876 1.5164795 3.661049l0 42.999317c0 2.859459 -2.3180542 5.1775055 -5.17749 5.1775055l-136.44818 0c-2.859436 0 -5.17749 -2.3180466 -5.17749 -5.1775055z" fill-rule="evenodd"/><path stroke="#000000" stroke-width="1.0" stroke-linejoin="round" stroke-linecap="butt" d="m643.559 62.73656l0 0c0 -2.859459 2.3180542 -5.1775055 5.17749 -5.1775055l136.44818 0c1.373169 0 2.6900635 0.54548645 3.6610107 1.5164566c0.9710083 0.97097015 1.5164795 2.2878876 1.5164795 3.661049l0 42.999317c0 2.859459 -2.3180542 5.1775055 -5.17749 5.1775055l-136.44818 0c-2.859436 0 -5.17749 -2.3180466 -5.17749 -5.1775055z" fill-rule="evenodd"/><path fill="#000000" d="m670.1781 78.29612l2.046875 0.65625q-0.46875 1.71875 -1.578125 2.546875q-1.09375 0.828125 -2.78125 0.828125q-2.078125 0 -3.4375 -1.421875q-1.34375 -1.421875 -1.34375 -3.90625q0 -2.609375 1.359375 -4.0625q1.359375 -1.453125 3.5625 -1.453125q1.921875 0 3.125 1.140625q0.71875 0.671875 1.0625 1.9375l-2.09375 0.5q-0.1875 -0.828125 -0.78125 -1.296875q-0.578125 -0.46875 -1.421875 -0.46875q-1.171875 0 -1.90625 0.84375q-0.71875 0.828125 -0.71875 2.703125q0 1.984375 0.71875 2.84375q0.71875 0.84375 1.859375 0.84375q0.84375 0 1.453125 -0.53125q0.609375 -0.546875 0.875 -1.703125zm5.8655396 -6.625l0 3.84375q0.96875 -1.125 2.3125 -1.125q0.703125 0 1.25 0.265625q0.5625 0.25 0.84375 0.65625q0.28125 0.390625 0.390625 0.875q0.109375 0.484375 0.109375 1.515625l0 4.453125l-2.015625 0l0 -4.015625q0 -1.1875 -0.125 -1.515625q-0.109375 -0.328125 -0.40625 -0.515625q-0.28125 -0.1875 -0.71875 -0.1875q-0.5 0 -0.890625 0.25q-0.390625 0.234375 -0.578125 0.734375q-0.171875 0.484375 -0.171875 1.4375l0 3.8125l-2.015625 0l0 -10.484375l2.015625 0zm11.343201 8.0625l2.0 0.34375q-0.375 1.09375 -1.21875 1.671875q-0.828125 0.578125 -2.078125 0.578125q-1.984375 0 -2.9375 -1.296875q-0.75 -1.03125 -0.75 -2.625q0 -1.875 0.984375 -2.9375q0.984375 -1.078125 2.5 -1.078125q1.6875 0 2.671875 1.125q0.984375 1.109375 0.9375 3.421875l-5.03125 0q0.015625 0.890625 0.484375 1.390625q0.46875 0.5 1.15625 0.5q0.46875 0 0.78125 -0.25q0.328125 -0.265625 0.5 -0.84375zm0.109375 -2.03125q-0.015625 -0.875 -0.453125 -1.328125q-0.421875 -0.453125 -1.03125 -0.453125q-0.671875 0 -1.09375 0.484375q-0.421875 0.46875 -0.421875 1.296875l3.0 0zm10.260498 -0.90625l-1.96875 0.359375q-0.109375 -0.59375 -0.46875 -0.890625q-0.34375 -0.296875 -0.90625 -0.296875q-0.75 0 -1.203125 0.515625q-0.453125 0.515625 -0.453125 1.734375q0 1.359375 0.453125 1.921875q0.453125 0.546875 1.21875 0.546875q0.578125 0 0.9375 -0.328125q0.375 -0.328125 0.515625 -1.109375l1.984375 0.328125q-0.3125 1.359375 -1.1875 2.0625q-0.875 0.6875 -2.328125 0.6875q-1.671875 0 -2.671875 -1.046875q-0.984375 -1.0625 -0.984375 -2.921875q0 -1.875 0.984375 -2.921875q1.0 -1.046875 2.703125 -1.046875q1.390625 0 2.203125 0.59375q0.828125 0.59375 1.171875 1.8125zm1.463623 5.359375l0 -10.484375l2.0 0l0 5.5625l2.359375 -2.671875l2.484375 0l-2.609375 2.765625l2.796875 4.828125l-2.171875 0l-1.921875 -3.40625l-0.9375 0.96875l0 2.4375l-2.0 0zm8.166748 -7.59375l1.875 0l0 1.109375q0.359375 -0.578125 0.984375 -0.921875q0.625 -0.359375 1.375 -0.359375q1.328125 0 2.25 1.03125q0.921875 1.03125 0.921875 2.890625q0 1.90625 -0.9375 2.96875q-0.921875 1.046875 -2.25 1.046875q-0.625 0 -1.140625 -0.25q-0.5 -0.25 -1.078125 -0.859375l0 3.828125l-2.0 0l0 -10.484375zm1.984375 3.671875q0 1.28125 0.5 1.890625q0.515625 0.609375 1.25 0.609375q0.703125 0 1.15625 -0.5625q0.46875 -0.5625 0.46875 -1.84375q0 -1.203125 -0.484375 -1.78125q-0.46875 -0.578125 -1.1875 -0.578125q-0.734375 0 -1.21875 0.578125q-0.484375 0.5625 -0.484375 1.6875zm6.5619507 0.015625q0 -1.0 0.484375 -1.9375q0.5 -0.9375 1.40625 -1.421875q0.90625 -0.5 2.015625 -0.5q1.71875 0 2.828125 1.125q1.109375 1.109375 1.109375 2.8125q0 1.734375 -1.125 2.875q-1.109375 1.125 -2.796875 1.125q-1.046875 0 -2.0 -0.46875q-0.9375 -0.46875 -1.4375 -1.375q-0.484375 -0.921875 -0.484375 -2.234375zm2.046875 0.109375q0 1.125 0.53125 1.734375q0.546875 0.59375 1.34375 0.59375q0.78125 0 1.3125 -0.59375q0.53125 -0.609375 0.53125 -1.75q0 -1.125 -0.53125 -1.71875q-0.53125 -0.609375 -1.3125 -0.609375q-0.796875 0 -1.34375 0.609375q-0.53125 0.59375 -0.53125 1.734375zm7.3588867 -4.828125l0 -1.859375l2.015625 0l0 1.859375l-2.015625 0zm0 8.625l0 -7.59375l2.015625 0l0 7.59375l-2.015625 0zm10.993835 0l-2.015625 0l0 -3.875q0 -1.234375 -0.125 -1.59375q-0.125 -0.359375 -0.421875 -0.5625q-0.296875 -0.203125 -0.703125 -0.203125q-0.515625 0 -0.9375 0.296875q-0.40625 0.28125 -0.5625 0.75q-0.15625 0.46875 -0.15625 1.75l0 3.4375l-2.015625 0l0 -7.59375l1.875 0l0 1.109375q1.0 -1.28125 2.5 -1.28125q0.671875 0 1.21875 0.234375q0.546875 0.234375 0.828125 0.609375q0.296875 0.375 0.40625 0.84375q0.109375 0.46875 0.109375 1.359375l0 4.71875zm5.5151367 -7.59375l0 1.59375l-1.375 0l0 3.0625q0 0.9375 0.03125 1.09375q0.046875 0.140625 0.1875 0.25q0.140625 0.09375 0.34375 0.09375q0.28125 0 0.8125 -0.1875l0.171875 1.5625q-0.703125 0.296875 -1.59375 0.296875q-0.546875 0 -0.984375 -0.171875q-0.421875 -0.1875 -0.640625 -0.46875q-0.203125 -0.296875 -0.28125 -0.796875q-0.0625 -0.359375 -0.0625 -1.421875l0 -3.3125l-0.921875 0l0 -1.59375l0.921875 0l0 -1.515625l2.015625 -1.171875l0 2.6875l1.375 0zm2.9119263 2.3125l-1.828125 -0.328125q0.296875 -1.109375 1.046875 -1.625q0.765625 -0.53125 2.234375 -0.53125q1.359375 0 2.015625 0.3125q0.65625 0.3125 0.921875 0.8125q0.265625 0.484375 0.265625 1.796875l-0.015625 2.34375q0 1.0 0.09375 1.484375q0.09375 0.46875 0.359375 1.015625l-1.984375 0q-0.078125 -0.203125 -0.203125 -0.59375q-0.046875 -0.171875 -0.0625 -0.234375q-0.515625 0.5 -1.109375 0.75q-0.578125 0.25 -1.25 0.25q-1.171875 0 -1.859375 -0.640625q-0.671875 -0.640625 -0.671875 -1.609375q0 -0.640625 0.3125 -1.140625q0.3125 -0.515625 0.859375 -0.78125q0.5625 -0.265625 1.609375 -0.46875q1.40625 -0.265625 1.953125 -0.484375l0 -0.203125q0 -0.578125 -0.296875 -0.828125q-0.28125 -0.25 -1.078125 -0.25q-0.53125 0 -0.84375 0.21875q-0.296875 0.203125 -0.46875 0.734375zm2.6875 1.625q-0.390625 0.140625 -1.234375 0.328125q-0.828125 0.171875 -1.09375 0.34375q-0.390625 0.265625 -0.390625 0.703125q0 0.421875 0.3125 0.734375q0.3125 0.296875 0.8125 0.296875q0.53125 0 1.03125 -0.359375q0.359375 -0.265625 0.484375 -0.65625q0.078125 -0.265625 0.078125 -0.984375l0 -0.40625zm3.869812 3.65625l0 -10.484375l2.015625 0l0 3.765625q0.921875 -1.046875 2.203125 -1.046875q1.375 0 2.28125 1.0q0.921875 1.0 0.921875 2.890625q0 1.9375 -0.9375 3.0q-0.921875 1.046875 -2.25 1.046875q-0.640625 0 -1.28125 -0.328125q-0.625 -0.328125 -1.09375 -0.953125l0 1.109375l-1.859375 0zm2.0 -3.96875q0 1.1875 0.359375 1.75q0.53125 0.796875 1.390625 0.796875q0.671875 0 1.140625 -0.5625q0.46875 -0.578125 0.46875 -1.796875q0 -1.296875 -0.484375 -1.875q-0.46875 -0.578125 -1.203125 -0.578125q-0.71875 0 -1.203125 0.5625q-0.46875 0.5625 -0.46875 1.703125zm7.0307617 3.96875l0 -10.484375l2.015625 0l0 10.484375l-2.015625 0zm8.47821 -2.421875l2.0 0.34375q-0.375 1.09375 -1.21875 1.671875q-0.828125 0.578125 -2.078125 0.578125q-1.984375 0 -2.9375 -1.296875q-0.75 -1.03125 -0.75 -2.625q0 -1.875 0.984375 -2.9375q0.984375 -1.078125 2.5 -1.078125q1.6875 0 2.671875 1.125q0.984375 1.109375 0.9375 3.421875l-5.03125 0q0.015625 0.890625 0.484375 1.390625q0.46875 0.5 1.15625 0.5q0.46875 0 0.78125 -0.25q0.328125 -0.265625 0.5 -0.84375zm0.109375 -2.03125q-0.015625 -0.875 -0.453125 -1.328125q-0.421875 -0.453125 -1.03125 -0.453125q-0.671875 0 -1.09375 0.484375q-0.421875 0.46875 -0.421875 1.296875l3.0 0z" fill-rule="nonzero"/><path fill="#000000" d="m657.9664 97.299866l-0.21875 1.125l-2.546875 0l2.03125 -9.734375l2.53125 0l-0.234375 1.15625l-1.140625 0l-1.546875 7.453125l1.125 0zm4.84552 -3.0625l1.453125 0.234375q-0.359375 0.96875 -1.0625 1.46875q-0.703125 0.5 -1.625 0.5q-1.0625 0 -1.6875 -0.625q-0.609375 -0.625 -0.609375 -1.734375q0 -0.890625 0.375 -1.6875q0.375 -0.8125 1.125 -1.265625q0.75 -0.46875 1.65625 -0.46875q0.984375 0 1.5625 0.515625q0.578125 0.5 0.65625 1.34375l-1.421875 0.140625q-0.046875 -0.453125 -0.28125 -0.671875q-0.234375 -0.21875 -0.609375 -0.21875q-0.4375 0 -0.8125 0.328125q-0.359375 0.3125 -0.5625 0.953125q-0.203125 0.640625 -0.203125 1.203125q0 0.484375 0.234375 0.75q0.25 0.265625 0.59375 0.265625q0.359375 0 0.6875 -0.25q0.34375 -0.265625 0.53125 -0.78125zm2.1765137 2.078125l1.59375 -7.625l1.484375 0l-1.59375 7.625l-1.484375 0zm3.1793823 -2.296875q0 -1.53125 0.859375 -2.4375q0.875 -0.921875 2.28125 -0.921875q1.234375 0 1.921875 0.671875q0.6875 0.671875 0.6875 1.8125q0 1.34375 -0.859375 2.328125q-0.859375 0.96875 -2.3125 0.96875q-0.765625 0 -1.375 -0.3125q-0.609375 -0.3125 -0.90625 -0.875q-0.296875 -0.578125 -0.296875 -1.234375zm4.265625 -1.0625q0 -0.53125 -0.3125 -0.84375q-0.3125 -0.328125 -0.796875 -0.328125q-0.484375 0 -0.859375 0.296875q-0.375 0.296875 -0.59375 0.875q-0.203125 0.5625 -0.203125 1.046875q0 0.59375 0.3125 0.9375q0.328125 0.34375 0.828125 0.34375q0.609375 0 1.03125 -0.515625q0.59375 -0.75 0.59375 -1.8125zm3.2124023 -2.171875l1.40625 0l-0.140625 0.71875q0.53125 -0.453125 0.984375 -0.640625q0.46875 -0.203125 0.96875 -0.203125q0.6875 0 1.078125 0.390625q0.390625 0.390625 0.390625 1.03125q0 0.296875 -0.171875 1.109375l-0.640625 3.125l-1.5 0l0.65625 -3.140625q0.140625 -0.703125 0.140625 -0.828125q0 -0.296875 -0.171875 -0.453125q-0.15625 -0.171875 -0.46875 -0.171875q-0.328125 0 -0.734375 0.28125q-0.390625 0.28125 -0.625 0.734375q-0.15625 0.3125 -0.359375 1.3125l-0.484375 2.265625l-1.484375 0l1.15625 -5.53125zm10.712341 3.234375l-3.75 0q0 0.078125 0 0.125q0 0.5625 0.3125 0.90625q0.3125 0.328125 0.765625 0.328125q0.734375 0 1.15625 -0.765625l1.34375 0.21875q-0.390625 0.8125 -1.046875 1.21875q-0.65625 0.390625 -1.46875 0.390625q-1.109375 0 -1.8125 -0.703125q-0.6875 -0.703125 -0.6875 -1.859375q0 -1.140625 0.625 -2.015625q0.859375 -1.203125 2.453125 -1.203125q1.015625 0 1.609375 0.625q0.59375 0.625 0.59375 1.765625q0 0.53125 -0.09375 0.96875zm-1.265625 -0.90625q0 -0.109375 0 -0.15625q0 -0.609375 -0.28125 -0.921875q-0.265625 -0.3125 -0.734375 -0.3125q-0.453125 0 -0.828125 0.359375q-0.359375 0.34375 -0.484375 1.03125l2.328125 0zm6.9108887 3.203125l-1.421875 0l0.125 -0.59375q-0.40625 0.390625 -0.796875 0.5625q-0.390625 0.15625 -0.875 0.15625q-0.859375 0 -1.40625 -0.578125q-0.53125 -0.59375 -0.53125 -1.734375q0 -1.328125 0.75 -2.390625q0.75 -1.078125 1.984375 -1.078125q1.109375 0 1.671875 0.890625l0.59375 -2.859375l1.5 0l-1.59375 7.625zm-3.453125 -2.25q0 0.59375 0.296875 0.9375q0.296875 0.328125 0.734375 0.328125q0.40625 0 0.75 -0.28125q0.359375 -0.28125 0.5625 -0.84375q0.21875 -0.578125 0.21875 -1.109375q0 -0.59375 -0.328125 -0.953125q-0.3125 -0.375 -0.734375 -0.375q-0.65625 0 -1.078125 0.734375q-0.421875 0.71875 -0.421875 1.5625zm7.6261597 0.703125l1.453125 -0.234375q0.1875 0.46875 0.46875 0.65625q0.296875 0.1875 0.78125 0.1875q0.515625 0 0.8125 -0.234375q0.21875 -0.15625 0.21875 -0.375q0 -0.15625 -0.109375 -0.265625q-0.109375 -0.125 -0.625 -0.28125q-1.34375 -0.453125 -1.671875 -0.703125q-0.5 -0.40625 -0.5 -1.0625q0 -0.65625 0.484375 -1.140625q0.6875 -0.65625 2.03125 -0.65625q1.0625 0 1.609375 0.390625q0.546875 0.390625 0.6875 1.0625l-1.375 0.234375q-0.109375 -0.296875 -0.359375 -0.453125q-0.328125 -0.203125 -0.796875 -0.203125q-0.46875 0 -0.671875 0.15625q-0.203125 0.15625 -0.203125 0.359375q0 0.203125 0.203125 0.34375q0.125 0.078125 0.84375 0.296875q1.09375 0.3125 1.453125 0.625q0.53125 0.421875 0.53125 1.03125q0 0.78125 -0.671875 1.359375q-0.65625 0.578125 -1.859375 0.578125q-1.1875 0 -1.84375 -0.4375q-0.65625 -0.4375 -0.890625 -1.234375zm6.4890137 -2.875l0.234375 -1.109375l0.734375 0l0.171875 -0.875l1.71875 -1.03125l-0.40625 1.90625l0.90625 0l-0.21875 1.109375l-0.921875 0l-0.484375 2.3125q-0.125 0.640625 -0.125 0.71875q0 0.171875 0.109375 0.28125q0.109375 0.09375 0.390625 0.09375q0.09375 0 0.5 -0.046875l-0.234375 1.109375q-0.390625 0.078125 -0.796875 0.078125q-0.78125 0 -1.140625 -0.296875q-0.359375 -0.3125 -0.359375 -0.84375q0 -0.265625 0.1875 -1.1875l0.46875 -2.21875l-0.734375 0zm5.282959 0.46875l-1.453125 -0.125q0.25 -0.75 0.875 -1.15625q0.625 -0.421875 1.640625 -0.421875q1.0625 0 1.578125 0.4375q0.515625 0.421875 0.515625 1.046875q0 0.25 -0.046875 0.53125q-0.046875 0.28125 -0.3125 1.46875q-0.21875 0.984375 -0.21875 1.390625q0 0.34375 0.125 0.78125l-1.453125 0q-0.09375 -0.296875 -0.109375 -0.625q-0.328125 0.359375 -0.75 0.5625q-0.421875 0.1875 -0.859375 0.1875q-0.6875 0 -1.140625 -0.4375q-0.4375 -0.453125 -0.4375 -1.171875q0 -0.78125 0.484375 -1.25q0.5 -0.484375 1.75 -0.578125q1.078125 -0.09375 1.4375 -0.21875q0.09375 -0.3125 0.09375 -0.5q0 -0.234375 -0.203125 -0.390625q-0.1875 -0.171875 -0.5625 -0.171875q-0.40625 0 -0.640625 0.171875q-0.21875 0.15625 -0.3125 0.46875zm1.421875 1.375q-0.140625 0.03125 -0.359375 0.0625q-1.125 0.140625 -1.46875 0.40625q-0.234375 0.1875 -0.234375 0.5q0 0.265625 0.1875 0.453125q0.1875 0.171875 0.484375 0.171875q0.34375 0 0.640625 -0.15625q0.296875 -0.171875 0.4375 -0.421875q0.15625 -0.265625 0.265625 -0.8125l0.046875 -0.203125zm2.7702637 -1.84375l0.234375 -1.109375l0.734375 0l0.171875 -0.875l1.71875 -1.03125l-0.40625 1.90625l0.90625 0l-0.21875 1.109375l-0.921875 0l-0.484375 2.3125q-0.125 0.640625 -0.125 0.71875q0 0.171875 0.109375 0.28125q0.109375 0.09375 0.390625 0.09375q0.09375 0 0.5 -0.046875l-0.234375 1.109375q-0.390625 0.078125 -0.796875 0.078125q-0.78125 0 -1.140625 -0.296875q-0.359375 -0.3125 -0.359375 -0.84375q0 -0.265625 0.1875 -1.1875l0.46875 -2.21875l-0.734375 0zm8.56427 2.125l-3.75 0q0 0.078125 0 0.125q0 0.5625 0.3125 0.90625q0.3125 0.328125 0.765625 0.328125q0.734375 0 1.15625 -0.765625l1.34375 0.21875q-0.390625 0.8125 -1.046875 1.21875q-0.65625 0.390625 -1.46875 0.390625q-1.109375 0 -1.8125 -0.703125q-0.6875 -0.703125 -0.6875 -1.859375q0 -1.140625 0.625 -2.015625q0.859375 -1.203125 2.453125 -1.203125q1.015625 0 1.609375 0.625q0.59375 0.625 0.59375 1.765625q0 0.53125 -0.09375 0.96875zm-1.265625 -0.90625q0 -0.109375 0 -0.15625q0 -0.609375 -0.28125 -0.921875q-0.265625 -0.3125 -0.734375 -0.3125q-0.453125 0 -0.828125 0.359375q-0.359375 0.34375 -0.484375 1.03125l2.328125 0zm4.980896 0.90625q0 -1.53125 0.859375 -2.4375q0.875 -0.921875 2.28125 -0.921875q1.234375 0 1.921875 0.671875q0.6875 0.671875 0.6875 1.8125q0 1.34375 -0.859375 2.328125q-0.859375 0.96875 -2.3125 0.96875q-0.765625 0 -1.375 -0.3125q-0.609375 -0.3125 -0.90625 -0.875q-0.296875 -0.578125 -0.296875 -1.234375zm4.265625 -1.0625q0 -0.53125 -0.3125 -0.84375q-0.3125 -0.328125 -0.796875 -0.328125q-0.484375 0 -0.859375 0.296875q-0.375 0.296875 -0.59375 0.875q-0.203125 0.5625 -0.203125 1.046875q0 0.59375 0.3125 0.9375q0.328125 0.34375 0.828125 0.34375q0.609375 0 1.03125 -0.515625q0.59375 -0.75 0.59375 -1.8125zm5.8842163 -2.171875l-0.234375 1.09375l-1.0625 0l-0.921875 4.4375l-1.484375 0l0.921875 -4.4375l-0.828125 0l0.21875 -1.09375l0.84375 0l0.109375 -0.5625q0.15625 -0.703125 0.28125 -0.9375q0.171875 -0.34375 0.515625 -0.53125q0.359375 -0.203125 0.921875 -0.203125q0.6875 0 1.453125 0.25l-0.296875 1.078125q-0.53125 -0.1875 -0.859375 -0.1875q-0.265625 0 -0.390625 0.15625q-0.078125 0.109375 -0.171875 0.546875l-0.078125 0.390625l1.0625 0zm2.8686523 3.234375q0 -1.53125 0.859375 -2.4375q0.875 -0.921875 2.28125 -0.921875q1.234375 0 1.921875 0.671875q0.6875 0.671875 0.6875 1.8125q0 1.34375 -0.859375 2.328125q-0.859375 0.96875 -2.3125 0.96875q-0.765625 0 -1.375 -0.3125q-0.609375 -0.3125 -0.90625 -0.875q-0.296875 -0.578125 -0.296875 -1.234375zm4.265625 -1.0625q0 -0.53125 -0.3125 -0.84375q-0.3125 -0.328125 -0.796875 -0.328125q-0.484375 0 -0.859375 0.296875q-0.375 0.296875 -0.59375 0.875q-0.203125 0.5625 -0.203125 1.046875q0 0.59375 0.3125 0.9375q0.328125 0.34375 0.828125 0.34375q0.609375 0 1.03125 -0.515625q0.59375 -0.75 0.59375 -1.8125zm3.1030273 -2.171875l1.390625 0l-0.21875 1.078125q0.78125 -1.203125 1.6875 -1.203125q0.328125 0 0.6875 0.15625l-0.5625 1.234375q-0.203125 -0.078125 -0.4375 -0.078125q-0.390625 0 -0.796875 0.296875q-0.390625 0.28125 -0.609375 0.78125q-0.21875 0.484375 -0.4375 1.53125l-0.359375 1.734375l-1.5 0l1.15625 -5.53125zm4.6625977 -2.09375l1.5 0l-0.28125 1.34375l-1.5 0l0.28125 -1.34375zm-0.4375 2.09375l1.5 0l-1.15625 5.53125l-1.5 0l1.15625 -5.53125zm1.7262573 5.828125l1.578125 0.21875q0 0.25 0.078125 0.359375q0.078125 0.125 0.25 0.203125q0.1875 0.09375 0.484375 0.09375q0.46875 0 0.75 -0.1875q0.21875 -0.140625 0.359375 -0.46875q0.078125 -0.203125 0.203125 -0.875l0.0625 -0.265625q-0.78125 0.640625 -1.609375 0.640625q-0.8125 0 -1.328125 -0.5625q-0.515625 -0.578125 -0.515625 -1.6875q0 -0.96875 0.34375 -1.78125q0.359375 -0.8125 1.0 -1.21875q0.640625 -0.421875 1.296875 -0.421875q0.5625 0 1.015625 0.296875q0.453125 0.28125 0.71875 0.8125l0.203125 -0.984375l1.40625 0l-0.96875 4.609375q-0.234375 1.109375 -0.390625 1.578125q-0.15625 0.484375 -0.375 0.765625q-0.203125 0.28125 -0.53125 0.46875q-0.3125 0.1875 -0.75 0.265625q-0.421875 0.09375 -0.921875 0.09375q-1.171875 0 -1.78125 -0.40625q-0.59375 -0.40625 -0.59375 -1.328125q0 -0.109375 0.015625 -0.21875zm1.765625 -2.671875q0 0.625 0.28125 0.953125q0.28125 0.328125 0.703125 0.328125q0.390625 0 0.75 -0.296875q0.375 -0.296875 0.5625 -0.828125q0.203125 -0.546875 0.203125 -1.0625q0 -0.59375 -0.3125 -0.953125q-0.3125 -0.359375 -0.734375 -0.359375q-0.40625 0 -0.734375 0.328125q-0.328125 0.3125 -0.546875 0.96875q-0.171875 0.515625 -0.171875 0.921875zm6.4155273 -5.25l1.5 0l-0.28125 1.34375l-1.5 0l0.28125 -1.34375zm-0.4375 2.09375l1.5 0l-1.15625 5.53125l-1.5 0l1.15625 -5.53125zm2.9918823 0l1.40625 0l-0.140625 0.71875q0.53125 -0.453125 0.984375 -0.640625q0.46875 -0.203125 0.96875 -0.203125q0.6875 0 1.078125 0.390625q0.390625 0.390625 0.390625 1.03125q0 0.296875 -0.171875 1.109375l-0.640625 3.125l-1.5 0l0.65625 -3.140625q0.140625 -0.703125 0.140625 -0.828125q0 -0.296875 -0.171875 -0.453125q-0.15625 -0.171875 -0.46875 -0.171875q-0.328125 0 -0.734375 0.28125q-0.390625 0.28125 -0.625 0.734375q-0.15625 0.3125 -0.359375 1.3125l-0.484375 2.265625l-1.484375 0l1.15625 -5.53125zm7.4311523 1.578125l-1.453125 -0.125q0.25 -0.75 0.875 -1.15625q0.625 -0.421875 1.640625 -0.421875q1.0625 0 1.578125 0.4375q0.515625 0.421875 0.515625 1.046875q0 0.25 -0.046875 0.53125q-0.046875 0.28125 -0.3125 1.46875q-0.21875 0.984375 -0.21875 1.390625q0 0.34375 0.125 0.78125l-1.453125 0q-0.09375 -0.296875 -0.109375 -0.625q-0.328125 0.359375 -0.75 0.5625q-0.421875 0.1875 -0.859375 0.1875q-0.6875 0 -1.140625 -0.4375q-0.4375 -0.453125 -0.4375 -1.171875q0 -0.78125 0.484375 -1.25q0.5 -0.484375 1.75 -0.578125q1.078125 -0.09375 1.4375 -0.21875q0.09375 -0.3125 0.09375 -0.5q0 -0.234375 -0.203125 -0.390625q-0.1875 -0.171875 -0.5625 -0.171875q-0.40625 0 -0.640625 0.171875q-0.21875 0.15625 -0.3125 0.46875zm1.421875 1.375q-0.140625 0.03125 -0.359375 0.0625q-1.125 0.140625 -1.46875 0.40625q-0.234375 0.1875 -0.234375 0.5q0 0.265625 0.1875 0.453125q0.1875 0.171875 0.484375 0.171875q0.34375 0 0.640625 -0.15625q0.296875 -0.171875 0.4375 -0.421875q0.15625 -0.265625 0.265625 -0.8125l0.046875 -0.203125zm2.3952637 2.578125l1.59375 -7.625l1.484375 0l-1.59375 7.625l-1.484375 0zm3.7418823 -6.515625l0.234375 -1.109375l2.5625 0l-2.03125 9.734375l-2.5625 0l0.25 -1.171875l1.140625 0l1.5625 -7.453125l-1.15625 0z" fill-rule="nonzero"/></g></svg>
