<?xml version="1.0" encoding="UTF-8" standalone="no"?>
<svg
   xmlns:dc="http://purl.org/dc/elements/1.1/"
   xmlns:cc="http://creativecommons.org/ns#"
   xmlns:rdf="http://www.w3.org/1999/02/22-rdf-syntax-ns#"
   xmlns:svg="http://www.w3.org/2000/svg"
   xmlns="http://www.w3.org/2000/svg"
   xmlns:sodipodi="http://sodipodi.sourceforge.net/DTD/sodipodi-0.dtd"
   xmlns:inkscape="http://www.inkscape.org/namespaces/inkscape"
   inkscape:version="1.0 (4035a4f, 2020-05-01)"
   height="291.88583"
   width="790.73358"
   sodipodi:docname="overlapping-computation-communication.svg"
   id="svg1588"
   stroke-miterlimit="10"
   stroke-linecap="square"
   stroke="none"
   fill="none"
   viewBox="0 0 790.73358 291.88583"
   version="1.1">
  <metadata
     id="metadata1594">
    <rdf:RDF>
      <cc:Work
         rdf:about="">
        <dc:format>image/svg+xml</dc:format>
        <dc:type
           rdf:resource="http://purl.org/dc/dcmitype/StillImage" />
      </cc:Work>
    </rdf:RDF>
  </metadata>
  <defs
     id="defs1592" />
  <sodipodi:namedview
     inkscape:current-layer="g1586"
     inkscape:window-maximized="1"
     inkscape:window-y="23"
     inkscape:window-x="0"
     inkscape:cy="278.36646"
     inkscape:cx="407.04983"
     inkscape:zoom="1.0930556"
     showgrid="false"
     id="namedview1590"
     inkscape:window-height="995"
     inkscape:window-width="1792"
     inkscape:pageshadow="2"
     inkscape:pageopacity="0"
     guidetolerance="10"
     gridtolerance="10"
     objecttolerance="10"
     borderopacity="1"
     bordercolor="#666666"
     pagecolor="#ffffff" />
  <clipPath
     id="p.0">
    <path
       id="path1409"
       clip-rule="nonzero"
       d="M 0,0 H 960 V 720 H 0 Z" />
  </clipPath>
  <g
     transform="translate(-87.14829,-12.103675)"
     id="g1586"
     clip-path="url(#p.0)">
    <path
       id="path1412"
       fill-rule="evenodd"
       d="M 0,0 H 960 V 720 H 0 Z"
       fill-opacity="0"
       fill="#000000" />
    <path
       id="path1414"
       fill-rule="evenodd"
       d="M 695.7012,4.6036744 H 826.53586 V 32.887138 H 695.7012 Z"
       fill-opacity="0"
       fill="#000000" />
    <path
       id="path1416"
       fill-rule="nonzero"
       d="m 722.30774,22.574299 q 0,-2.609375 1.40625,-4.078125 1.40625,-1.484375 3.625,-1.484375 1.45312,0 2.60937,0.703125 1.17188,0.6875 1.78125,1.921875 0.60938,1.234375 0.60938,2.8125 0,1.59375 -0.64063,2.859375 -0.64062,1.265625 -1.82812,1.90625 -1.17188,0.640625 -2.54688,0.640625 -1.46875,0 -2.64062,-0.703125 -1.17188,-0.71875 -1.78125,-1.953125 -0.59375,-1.25 -0.59375,-2.625 z m 1.4375,0.01563 q 0,1.90625 1.01562,3 1.01563,1.078125 2.5625,1.078125 1.5625,0 2.57813,-1.09375 1.01562,-1.109375 1.01562,-3.125 0,-1.28125 -0.4375,-2.234375 -0.4375,-0.96875 -1.26562,-1.484375 -0.82813,-0.53125 -1.875,-0.53125 -1.46875,0 -2.53125,1.015625 -1.0625,1.015625 -1.0625,3.375 z m 12.33758,5.09375 -2.89062,-7.59375 h 1.35937 l 1.625,4.546875 q 0.26563,0.734375 0.5,1.53125 0.15625,-0.609375 0.46875,-1.453125 l 1.6875,-4.625 h 1.32813 l -2.875,7.59375 z m 10.42188,-2.453125 1.32812,0.171875 q -0.3125,1.171875 -1.17187,1.8125 -0.84375,0.640625 -2.17188,0.640625 -1.67187,0 -2.65625,-1.015625 -0.96875,-1.03125 -0.96875,-2.890625 0,-1.921875 0.98438,-2.96875 1,-1.0625 2.57812,-1.0625 1.51563,0 2.48438,1.03125 0.96875,1.03125 0.96875,2.921875 0,0.109375 -0.0156,0.34375 h -5.65625 q 0.0625,1.25 0.70313,1.921875 0.64062,0.65625 1.59375,0.65625 0.70312,0 1.20312,-0.359375 0.5,-0.375 0.79688,-1.203125 z m -4.23438,-2.078125 h 4.25 q -0.0937,-0.953125 -0.48437,-1.4375 -0.625,-0.75 -1.60938,-0.75 -0.875,0 -1.48437,0.59375 -0.60938,0.59375 -0.67188,1.59375 z m 7.16675,4.53125 v -7.59375 h 1.15625 v 1.140625 q 0.45313,-0.796875 0.82813,-1.046875 0.375,-0.265625 0.8125,-0.265625 0.65625,0 1.32812,0.40625 l -0.4375,1.203125 q -0.46875,-0.28125 -0.95312,-0.28125 -0.42188,0 -0.76563,0.25 -0.32812,0.25 -0.46875,0.703125 -0.21875,0.6875 -0.21875,1.5 v 3.984375 z m 4.86499,0 v -10.48438 h 1.28125 v 10.484375 z m 8.24054,-0.9375 q -0.71875,0.609375 -1.375,0.859375 -0.65625,0.25 -1.42187,0.25 -1.25,0 -1.92188,-0.609375 -0.67187,-0.609375 -0.67187,-1.5625 0,-0.5625 0.25,-1.015625 0.25,-0.46875 0.65625,-0.75 0.42187,-0.28125 0.9375,-0.421875 0.375,-0.09375 1.14062,-0.1875 1.5625,-0.1875 2.29688,-0.453125 0.0156,-0.265625 0.0156,-0.328125 0,-0.796875 -0.375,-1.109375 -0.48437,-0.4375 -1.45312,-0.4375 -0.92188,0 -1.35938,0.328125 -0.42187,0.3125 -0.625,1.109375 l -1.26562,-0.171875 q 0.17187,-0.796875 0.5625,-1.296875 0.39062,-0.5 1.14062,-0.765625 0.75,-0.265625 1.71875,-0.265625 0.98438,0 1.59375,0.234375 0.60938,0.21875 0.89063,0.5625 0.28125,0.34375 0.40625,0.875 0.0625,0.328125 0.0625,1.1875 v 1.71875 q 0,1.796875 0.0781,2.28125 0.0781,0.46875 0.32813,0.90625 h -1.34375 q -0.20313,-0.40625 -0.26563,-0.9375 z m -0.10937,-2.875 q -0.70313,0.28125 -2.09375,0.484375 -0.79688,0.109375 -1.125,0.265625 -0.32813,0.140625 -0.51563,0.421875 -0.17187,0.265625 -0.17187,0.59375 0,0.515625 0.39062,0.859375 0.39063,0.34375 1.14063,0.34375 0.73437,0 1.3125,-0.3125 0.59375,-0.328125 0.85937,-0.890625 0.20313,-0.4375 0.20313,-1.296875 z m 3.30731,6.71875 v -10.5 h 1.17187 v 0.984375 q 0.42188,-0.578125 0.9375,-0.859375 0.51563,-0.296875 1.26563,-0.296875 0.96875,0 1.71875,0.5 0.75,0.5 1.125,1.421875 0.375,0.90625 0.375,1.984375 0,1.171875 -0.42188,2.109375 -0.40625,0.921875 -1.21875,1.421875 -0.79687,0.5 -1.67187,0.5 -0.64063,0 -1.15625,-0.265625 -0.51563,-0.28125 -0.84375,-0.6875 v 3.6875 z m 1.15625,-6.65625 q 0,1.453125 0.59375,2.15625 0.60937,0.703125 1.45312,0.703125 0.85938,0 1.46875,-0.71875 0.60938,-0.734375 0.60938,-2.25 0,-1.453125 -0.60938,-2.171875 -0.59375,-0.734375 -1.42187,-0.734375 -0.8125,0 -1.45313,0.78125 -0.64062,0.765625 -0.64062,2.234375 z m 6.99487,6.65625 v -10.5 h 1.17188 v 0.984375 q 0.42187,-0.578125 0.9375,-0.859375 0.51562,-0.296875 1.26562,-0.296875 0.96875,0 1.71875,0.5 0.75,0.5 1.125,1.421875 0.375,0.90625 0.375,1.984375 0,1.171875 -0.42187,2.109375 -0.40625,0.921875 -1.21875,1.421875 -0.79688,0.5 -1.67188,0.5 -0.64062,0 -1.15625,-0.265625 -0.51562,-0.28125 -0.84375,-0.6875 v 3.6875 z m 1.15625,-6.65625 q 0,1.453125 0.59375,2.15625 0.60938,0.703125 1.45313,0.703125 0.85937,0 1.46875,-0.71875 0.60937,-0.734375 0.60937,-2.25 0,-1.453125 -0.60937,-2.171875 -0.59375,-0.734375 -1.42188,-0.734375 -0.8125,0 -1.45312,0.78125 -0.64063,0.765625 -0.64063,2.234375 z m 6.99488,-5.265625 v -1.46875 h 1.29687 v 1.46875 z m 0,9.015625 v -7.59375 h 1.29687 v 7.59375 z m 3.25616,0 v -7.59375 h 1.15625 v 1.078125 q 0.84375,-1.25 2.42188,-1.25 0.6875,0 1.26562,0.25 0.57813,0.234375 0.85938,0.640625 0.28125,0.40625 0.40625,0.953125 0.0625,0.359375 0.0625,1.25 v 4.671875 h -1.28125 v -4.625 q 0,-0.78125 -0.15625,-1.171875 -0.15625,-0.390625 -0.54688,-0.625 -0.375,-0.234375 -0.89062,-0.234375 -0.8125,0 -1.42188,0.53125 -0.59375,0.515625 -0.59375,1.96875 v 4.15625 z m 7.91669,0.625 1.25,0.1875 q 0.0781,0.578125 0.4375,0.84375 0.46875,0.359375 1.3125,0.359375 0.89062,0 1.375,-0.359375 0.48437,-0.359375 0.65625,-1 0.10937,-0.390625 0.0937,-1.65625 -0.84375,1 -2.10938,1 -1.5625,0 -2.42187,-1.125 -0.85938,-1.140625 -0.85938,-2.71875 0,-1.09375 0.39063,-2 0.40625,-0.921875 1.14062,-1.421875 0.75,-0.5 1.76563,-0.5 1.34375,0 2.21875,1.078125 v -0.90625 h 1.1875 v 6.5625 q 0,1.78125 -0.35938,2.515625 -0.35937,0.734375 -1.15625,1.15625 -0.78125,0.4375 -1.92187,0.4375 -1.35938,0 -2.20313,-0.609375 -0.82812,-0.609375 -0.79687,-1.84375 z m 1.0625,-4.5625 q 0,1.5 0.59375,2.1875 0.59375,0.6875 1.48437,0.6875 0.89063,0 1.48438,-0.6875 0.60937,-0.6875 0.60937,-2.140625 0,-1.390625 -0.625,-2.09375 -0.60937,-0.71875 -1.48437,-0.71875 -0.85938,0 -1.46875,0.703125 -0.59375,0.6875 -0.59375,2.0625 z"
       fill="#000000" />
    <path
       id="path1418"
       fill-rule="nonzero"
       d="m 739.99316,42.011803 1.39062,0.34375 q -0.4375,1.703125 -1.57812,2.609375 -1.125,0.890625 -2.76563,0.890625 -1.6875,0 -2.75,-0.6875 -1.0625,-0.6875 -1.625,-2 -0.54687,-1.3125 -0.54687,-2.8125 0,-1.640625 0.625,-2.859375 0.625,-1.21875 1.78125,-1.84375 1.15625,-0.640625 2.54687,-0.640625 1.5625,0 2.64063,0.8125 1.07812,0.796875 1.5,2.25 l -1.375,0.3125 q -0.35938,-1.140625 -1.0625,-1.65625 -0.6875,-0.53125 -1.73438,-0.53125 -1.21875,0 -2.03125,0.578125 -0.8125,0.578125 -1.14062,1.5625 -0.32813,0.96875 -0.32813,2.015625 0,1.328125 0.39063,2.328125 0.39062,1 1.21875,1.5 0.82812,0.484375 1.78125,0.484375 1.17187,0 1.96875,-0.671875 0.8125,-0.671875 1.09375,-1.984375 z m 2.45923,-0.125 q 0,-2.109375 1.17187,-3.125 0.98438,-0.84375 2.39063,-0.84375 1.57812,0 2.5625,1.03125 1,1.015625 1,2.828125 0,1.46875 -0.4375,2.3125 -0.4375,0.828125 -1.28125,1.296875 -0.84375,0.46875 -1.84375,0.46875 -1.59375,0 -2.57813,-1.015625 -0.98437,-1.03125 -0.98437,-2.953125 z m 1.32812,0 q 0,1.453125 0.625,2.1875 0.64063,0.71875 1.60938,0.71875 0.96875,0 1.59375,-0.71875 0.64062,-0.734375 0.64062,-2.234375 0,-1.40625 -0.64062,-2.125 -0.64063,-0.734375 -1.59375,-0.734375 -0.96875,0 -1.60938,0.71875 -0.625,0.71875 -0.625,2.1875 z m 7.30738,3.796875 v -7.59375 h 1.15625 v 1.0625 q 0.34375,-0.5625 0.9375,-0.890625 0.60937,-0.34375 1.35937,-0.34375 0.84375,0 1.375,0.34375 0.54688,0.34375 0.76563,0.984375 0.90625,-1.328125 2.35937,-1.328125 1.125,0 1.73438,0.625 0.60937,0.625 0.60937,1.921875 v 5.21875 h -1.28125 v -4.78125 q 0,-0.78125 -0.125,-1.109375 -0.125,-0.34375 -0.45312,-0.546875 -0.32813,-0.21875 -0.78125,-0.21875 -0.79688,0 -1.32813,0.53125 -0.53125,0.53125 -0.53125,1.703125 v 4.421875 h -1.28125 v -4.9375 q 0,-0.859375 -0.3125,-1.28125 -0.3125,-0.4375 -1.03125,-0.4375 -0.54687,0 -1.01562,0.296875 -0.45313,0.28125 -0.67188,0.828125 -0.20312,0.546875 -0.20312,1.59375 v 3.9375 z m 12.2088,2.90625 v -10.5 h 1.17187 v 0.984375 q 0.42188,-0.578125 0.9375,-0.859375 0.51563,-0.296875 1.26563,-0.296875 0.96875,0 1.71875,0.5 0.75,0.5 1.125,1.421875 0.375,0.90625 0.375,1.984375 0,1.171875 -0.42188,2.109375 -0.40625,0.921875 -1.21875,1.421875 -0.79687,0.5 -1.67187,0.5 -0.64063,0 -1.15625,-0.265625 -0.51563,-0.28125 -0.84375,-0.6875 v 3.6875 z m 1.15625,-6.65625 q 0,1.453125 0.59375,2.15625 0.60937,0.703125 1.45312,0.703125 0.85938,0 1.46875,-0.71875 0.60938,-0.734375 0.60938,-2.25 0,-1.453125 -0.60938,-2.171875 -0.59375,-0.734375 -1.42187,-0.734375 -0.8125,0 -1.45313,0.78125 -0.64062,0.765625 -0.64062,2.234375 z m 11.97918,3.75 v -1.109375 q -0.89062,1.28125 -2.42187,1.28125 -0.67188,0 -1.25,-0.25 -0.57813,-0.265625 -0.875,-0.65625 -0.28125,-0.390625 -0.39063,-0.953125 -0.0781,-0.375 -0.0781,-1.203125 v -4.703125 h 1.28125 v 4.203125 q 0,1.015625 0.0781,1.359375 0.125,0.515625 0.51563,0.8125 0.40625,0.28125 0.98437,0.28125 0.57813,0 1.07813,-0.296875 0.51562,-0.296875 0.71875,-0.8125 0.21875,-0.515625 0.21875,-1.484375 v -4.0625 h 1.28125 v 7.59375 z m 5.97925,-1.15625 0.1875,1.140625 q -0.54687,0.109375 -0.98437,0.109375 -0.6875,0 -1.07813,-0.21875 -0.39062,-0.21875 -0.54687,-0.578125 -0.15625,-0.359375 -0.15625,-1.515625 v -4.375 h -0.95313 v -1 h 0.95313 v -1.890625 l 1.28125,-0.765625 v 2.65625 h 1.29687 v 1 h -1.29687 v 4.4375 q 0,0.546875 0.0625,0.71875 0.0781,0.15625 0.21875,0.25 0.15625,0.07813 0.45312,0.07813 0.20313,0 0.5625,-0.04687 z m 6.46259,-1.296875 1.32812,0.171875 q -0.3125,1.171875 -1.17187,1.8125 -0.84375,0.640625 -2.17188,0.640625 -1.67187,0 -2.65625,-1.015625 -0.96875,-1.03125 -0.96875,-2.890625 0,-1.921875 0.98438,-2.96875 1,-1.0625 2.57812,-1.0625 1.51563,0 2.48438,1.03125 0.96875,1.03125 0.96875,2.921875 0,0.109375 -0.0156,0.34375 h -5.65625 q 0.0625,1.25 0.70313,1.921875 0.64062,0.65625 1.59375,0.65625 0.70312,0 1.20312,-0.359375 0.5,-0.375 0.79688,-1.203125 z m -4.23438,-2.078125 h 4.25 q -0.0937,-0.953125 -0.48437,-1.4375 -0.625,-0.75 -1.60938,-0.75 -0.875,0 -1.48437,0.59375 -0.60938,0.59375 -0.67188,1.59375 z"
       fill="#000000" />
    <path
       id="path1420"
       fill-rule="evenodd"
       d="M 299.10498,66.603676 V 303.98951"
       fill-opacity="0"
       fill="#000000" />
    <path
       id="path1422"
       fill-rule="evenodd"
       d="M 299.10498,66.603676 V 297.98951"
       stroke-linecap="butt"
       stroke-linejoin="round"
       stroke-width="1"
       stroke="#595959" />
    <path
       id="path1424"
       fill-rule="evenodd"
       d="m 297.45325,297.9895 1.65173,4.53809 1.65174,-4.53809 z"
       stroke-linecap="butt"
       stroke-width="1"
       stroke="#595959"
       fill="#595959" />
    <path
       id="path1426"
       fill-rule="evenodd"
       d="M 477.10498,67.53163 V 303.02768"
       fill-opacity="0"
       fill="#000000" />
    <path
       id="path1428"
       fill-rule="evenodd"
       d="M 477.10498,67.53163 V 297.02771"
       stroke-linecap="butt"
       stroke-linejoin="round"
       stroke-width="1"
       stroke="#595959" />
    <path
       id="path1430"
       fill-rule="evenodd"
       d="m 475.45325,297.0277 1.65173,4.53809 1.65174,-4.53809 z"
       stroke-linecap="butt"
       stroke-width="1"
       stroke="#595959"
       fill="#595959" />
    <path
       id="path1432"
       fill-rule="evenodd"
       d="M 298.1942,72.14608 478.95012,96.524033"
       fill-opacity="0"
       fill="#000000" />
    <path
       id="path1434"
       fill-rule="evenodd"
       d="M 298.1942,72.14608 473.00395,95.722092"
       stroke-linecap="butt"
       stroke-linejoin="round"
       stroke-width="1"
       stroke="#595959" />
    <path
       id="path1436"
       fill-rule="evenodd"
       d="m 472.7832,97.359 4.71814,-1.030365 -4.27661,-2.243454 z"
       stroke-linecap="butt"
       stroke-width="1"
       stroke="#595959"
       fill="#595959" />
    <path
       id="path1438"
       fill-rule="evenodd"
       d="M 478.13123,97.76404 298.19422,134.48845"
       fill-opacity="0"
       fill="#000000" />
    <path
       id="path1440"
       fill-rule="evenodd"
       d="m 478.13123,97.76404 -174.0582,35.52457"
       stroke-linecap="butt"
       stroke-linejoin="round"
       stroke-width="1"
       stroke="#595959" />
    <path
       id="path1442"
       fill-rule="evenodd"
       d="m 303.74274,131.67024 -4.11615,2.52586 4.77676,0.71086 z"
       stroke-linecap="butt"
       stroke-width="1"
       stroke="#595959"
       fill="#595959" />
    <path
       id="path1444"
       fill-rule="evenodd"
       d="m 288.1942,134.48845 h 20 v 62.80315 h -20 z"
       fill="#d9ead3" />
    <path
       id="path1446"
       fill-rule="evenodd"
       d="m 288.1942,134.48845 h 20 v 62.80315 h -20 z"
       stroke-linecap="butt"
       stroke-linejoin="round"
       stroke-width="1"
       stroke="#000000" />
    <path
       id="path1448"
       fill-rule="evenodd"
       d="m 298.1942,197.2916 180.75592,28.59843"
       fill-opacity="0"
       fill="#000000" />
    <path
       id="path1450"
       fill-rule="evenodd"
       d="m 298.1942,197.29161 174.82962,27.6608"
       stroke-linecap="butt"
       stroke-linejoin="round"
       stroke-width="1"
       stroke="#595959" />
    <path
       id="path1452"
       fill-rule="evenodd"
       d="m 472.76572,226.58383 4.74048,-0.92226 -4.22424,-2.34062 z"
       stroke-linecap="butt"
       stroke-width="1"
       stroke="#595959"
       fill="#595959" />
    <path
       id="path1454"
       fill-rule="evenodd"
       d="M 476.5223,225.8599 299.10497,261.95438"
       fill-opacity="0"
       fill="#000000" />
    <path
       id="path1456"
       fill-rule="evenodd"
       d="M 476.5223,225.85991 304.98452,260.75824"
       stroke-linecap="butt"
       stroke-linejoin="round"
       stroke-width="1"
       stroke="#595959" />
    <path
       id="path1458"
       fill-rule="evenodd"
       d="m 304.65524,259.13965 -4.11771,2.52332 4.77631,0.71383 z"
       stroke-linecap="butt"
       stroke-width="1"
       stroke="#595959"
       fill="#595959" />
    <path
       id="path1460"
       fill-rule="evenodd"
       d="m 289.10498,261.95438 h 20 v 33.66931 h -20 z"
       fill="#d9ead3" />
    <path
       id="path1462"
       fill-rule="evenodd"
       d="m 289.10498,261.95438 h 20 v 33.66931 h -20 z"
       stroke-linecap="butt"
       stroke-linejoin="round"
       stroke-width="1"
       stroke="#000000" />
    <path
       id="path1464"
       fill-rule="evenodd"
       d="m 670.92126,73.074036 177.7638,24.97638"
       fill-opacity="0"
       fill="#000000" />
    <path
       id="path1466"
       fill-rule="evenodd"
       d="M 670.92126,73.074036 842.7434,97.215592"
       stroke-linecap="butt"
       stroke-linejoin="round"
       stroke-width="1"
       stroke="#595959" />
    <path
       id="path1468"
       fill-rule="evenodd"
       d="m 842.5136,98.85126 4.72375,-1.00425 -4.26415,-2.267082 z"
       stroke-linecap="butt"
       stroke-width="1"
       stroke="#595959"
       fill="#595959" />
    <path
       id="path1470"
       fill-rule="evenodd"
       d="M 849.49603,102.16865 672.74017,128.49936"
       fill-opacity="0"
       fill="#000000" />
    <path
       id="path1472"
       fill-rule="evenodd"
       d="M 849.49603,102.16866 678.67468,127.61532"
       stroke-linecap="butt"
       stroke-linejoin="round"
       stroke-width="1"
       stroke="#595959" />
    <path
       id="path1474"
       fill-rule="evenodd"
       d="m 678.4313,125.98161 -4.24518,2.30235 4.73194,0.96506 z"
       stroke-linecap="butt"
       stroke-width="1"
       stroke="#595959"
       fill="#595959" />
    <path
       id="path1476"
       fill-rule="evenodd"
       d="m 660.92126,127.28879 h 20 v 62.80315 h -20 z"
       fill="#d9ead3" />
    <path
       id="path1478"
       fill-rule="evenodd"
       d="m 660.92126,127.28879 h 20 v 62.80315 h -20 z"
       stroke-linecap="butt"
       stroke-linejoin="round"
       stroke-width="1"
       stroke="#000000" />
    <path
       id="path1480"
       fill-rule="evenodd"
       d="m 670.92126,190.09193 177.7638,17.60631"
       fill-opacity="0"
       fill="#000000" />
    <path
       id="path1482"
       fill-rule="evenodd"
       d="m 670.92126,190.09195 171.79297,17.01492"
       stroke-linecap="butt"
       stroke-linejoin="round"
       stroke-width="1"
       stroke="#595959" />
    <path
       id="path1484"
       fill-rule="evenodd"
       d="m 842.55145,208.75056 4.67877,-1.19641 -4.35315,-2.09096 z"
       stroke-linecap="butt"
       stroke-width="1"
       stroke="#595959"
       fill="#595959" />
    <path
       id="path1486"
       fill-rule="evenodd"
       d="m 849.50134,208.48175 -177.66931,18.4252"
       fill-opacity="0"
       fill="#000000" />
    <path
       id="path1488"
       fill-rule="evenodd"
       d="m 849.50134,208.48175 -171.7013,17.80629"
       stroke-linecap="butt"
       stroke-linejoin="round"
       stroke-width="1"
       stroke="#595959" />
    <path
       id="path1490"
       fill-rule="evenodd"
       d="m 677.62964,224.64511 -4.34351,2.11104 4.68427,1.1748 z"
       stroke-linecap="butt"
       stroke-width="1"
       stroke="#595959"
       fill="#595959" />
    <path
       id="path1492"
       fill-rule="evenodd"
       d="m 661.83203,193.23766 h 20 v 33.6693 h -20 z"
       fill="#d9ead3" />
    <path
       id="path1494"
       fill-rule="evenodd"
       d="m 661.83203,193.23766 h 20 v 33.6693 h -20 z"
       stroke-linecap="butt"
       stroke-linejoin="round"
       stroke-width="1"
       stroke="#000000" />
    <path
       id="path1496"
       fill-rule="evenodd"
       d="m 671.65356,77.52982 178.64563,24.25197"
       fill-opacity="0"
       fill="#000000" />
    <path
       id="path1498"
       fill-rule="evenodd"
       d="m 671.65356,77.52982 172.7002,23.44484"
       stroke-linecap="butt"
       stroke-linejoin="round"
       stroke-width="1"
       stroke="#595959" />
    <path
       id="path1500"
       fill-rule="evenodd"
       d="m 844.13153,102.61139 4.71906,-1.02625 -4.27466,-2.247188 z"
       stroke-linecap="butt"
       stroke-width="1"
       stroke="#595959"
       fill="#595959" />
    <path
       id="path1502"
       fill-rule="evenodd"
       d="M 847.0761,102.59199 671.83202,193.23766"
       fill-opacity="0"
       fill="#000000" />
    <path
       id="path1504"
       fill-rule="evenodd"
       d="M 847.0761,102.59199 677.1613,190.48108"
       stroke-linecap="butt"
       stroke-linejoin="round"
       stroke-width="1"
       stroke="#595959" />
    <path
       id="path1506"
       fill-rule="evenodd"
       d="m 676.40247,189.01398 -3.27197,3.55203 4.78967,-0.61786 z"
       stroke-linecap="butt"
       stroke-width="1"
       stroke="#595959"
       fill="#595959" />
    <path
       id="path1508"
       fill-rule="evenodd"
       d="m 671.83203,226.90695 177.66931,33.32281"
       fill-opacity="0"
       fill="#000000" />
    <path
       id="path1510"
       fill-rule="evenodd"
       d="m 671.83203,226.90695 171.77216,32.21677"
       stroke-linecap="butt"
       stroke-linejoin="round"
       stroke-width="1"
       stroke="#595959" />
    <path
       id="path1512"
       fill-rule="evenodd"
       d="m 843.2997,260.74716 4.76477,-0.78687 -4.15582,-2.45999 z"
       stroke-linecap="butt"
       stroke-width="1"
       stroke="#595959"
       fill="#595959" />
    <path
       id="path1514"
       fill-rule="evenodd"
       d="m 661.83203,229.69992 h 20 v 62.80316 h -20 z"
       fill="#d9ead3" />
    <path
       id="path1516"
       fill-rule="evenodd"
       d="m 661.83203,229.69992 h 20 v 62.80316 h -20 z"
       stroke-linecap="butt"
       stroke-linejoin="round"
       stroke-width="1"
       stroke="#000000" />
    <path
       id="path1518"
       fill-rule="evenodd"
       d="M 670.92126,66.603676 V 303.98951"
       fill-opacity="0"
       fill="#000000" />
    <path
       id="path1520"
       fill-rule="evenodd"
       d="M 670.92126,66.603676 V 297.98951"
       stroke-linecap="butt"
       stroke-linejoin="round"
       stroke-width="1"
       stroke="#595959" />
    <path
       id="path1522"
       fill-rule="evenodd"
       d="m 669.26953,297.9895 1.65173,4.53809 1.65174,-4.53809 z"
       stroke-linecap="butt"
       stroke-width="1"
       stroke="#595959"
       fill="#595959" />
    <path
       id="path1524"
       fill-rule="evenodd"
       d="M 848.92126,67.53163 V 303.02768"
       fill-opacity="0"
       fill="#000000" />
    <path
       id="path1526"
       fill-rule="evenodd"
       d="M 848.92126,67.53163 V 297.02771"
       stroke-linecap="butt"
       stroke-linejoin="round"
       stroke-width="1"
       stroke="#595959" />
    <path
       id="path1528"
       fill-rule="evenodd"
       d="m 847.26953,297.0277 1.65173,4.53809 1.65174,-4.53809 z"
       stroke-linecap="butt"
       stroke-width="1"
       stroke="#595959"
       fill="#595959" />
    <path
       id="path1530"
       fill-rule="evenodd"
       d="M 112.27821,8.146981 H 215.61679 V 36.430447 H 112.27821 Z"
       fill-opacity="0"
       fill="#000000" />
    <path
       id="path1532"
       fill-rule="nonzero"
       d="m 128.34071,25.651358 1.125,0.296875 q -0.35938,1.390625 -1.28125,2.125 -0.92187,0.734375 -2.26562,0.734375 -1.39063,0 -2.26563,-0.5625 -0.875,-0.5625 -1.32812,-1.625 -0.45313,-1.078125 -0.45313,-2.3125 0,-1.34375 0.51563,-2.34375 0.51562,-1 1.45312,-1.515625 0.95313,-0.515625 2.09375,-0.515625 1.28125,0 2.15625,0.65625 0.89062,0.65625 1.23437,1.84375 l -1.125,0.265625 q -0.29687,-0.9375 -0.87499,-1.359375 -0.5625,-0.4375 -1.42188,-0.4375 -0.98437,0 -1.65625,0.484375 -0.65625,0.46875 -0.9375,1.265625 -0.26562,0.796875 -0.26562,1.65625 0,1.09375 0.3125,1.90625 0.32812,0.8125 1,1.21875 0.67187,0.40625 1.46875,0.40625 0.95312,0 1.60937,-0.546875 0.67187,-0.546875 0.90625,-1.640625 z m 2.00977,-0.09375 q 0,-1.734375 0.95312,-2.5625 0.79688,-0.6875 1.95313,-0.6875 1.28125,0 2.09375,0.84375 0.82812,0.828125 0.82812,2.3125 0,1.203125 -0.35937,1.890625 -0.35938,0.6875 -1.0625,1.078125 -0.6875,0.375 -1.5,0.375 -1.29688,0 -2.10938,-0.828125 -0.79687,-0.84375 -0.79687,-2.421875 z m 1.07812,0 q 0,1.1875 0.51563,1.78125 0.53125,0.59375 1.3125,0.59375 0.79687,0 1.3125,-0.59375 0.51562,-0.59375 0.51562,-1.8125 0,-1.15625 -0.53125,-1.75 -0.51562,-0.59375 -1.29687,-0.59375 -0.78125,0 -1.3125,0.59375 -0.51563,0.578125 -0.51563,1.78125 z m 5.98633,3.109375 v -6.21875 h 0.9375 v 0.875 q 0.29687,-0.46875 0.78125,-0.734375 0.48437,-0.28125 1.10937,-0.28125 0.6875,0 1.125,0.28125 0.45313,0.28125 0.625,0.796875 0.75,-1.078125 1.92188,-1.078125 0.9375,0 1.42187,0.515625 0.5,0.5 0.5,1.578125 v 4.265625 h -1.04687 v -3.921875 q 0,-0.625 -0.10938,-0.90625 -0.0937,-0.28125 -0.35937,-0.453125 -0.26563,-0.171875 -0.64063,-0.171875 -0.65625,0 -1.09375,0.4375 -0.42187,0.4375 -0.42187,1.40625 v 3.609375 h -1.0625 v -4.046875 q 0,-0.703125 -0.26563,-1.046875 -0.25,-0.359375 -0.82812,-0.359375 -0.45313,0 -0.82813,0.234375 -0.375,0.234375 -0.54687,0.6875 -0.17188,0.453125 -0.17188,1.296875 v 3.234375 z m 9.99609,2.390625 v -8.609375 h 0.95313 v 0.796875 q 0.34375,-0.46875 0.76562,-0.703125 0.4375,-0.234375 1.04688,-0.234375 0.79687,0 1.40625,0.40625 0.60937,0.40625 0.90625,1.15625 0.3125,0.75 0.3125,1.640625 0,0.953125 -0.34375,1.71875 -0.32813,0.765625 -0.98438,1.171875 -0.65625,0.40625 -1.375,0.40625 -0.53125,0 -0.95312,-0.21875 -0.42188,-0.234375 -0.6875,-0.5625 v 3.03125 z m 0.95313,-5.46875 q 0,1.203125 0.48437,1.78125 0.48438,0.5625 1.17188,0.5625 0.70312,0 1.20312,-0.59375 0.5,-0.59375 0.5,-1.84375 0,-1.1875 -0.48437,-1.765625 -0.48438,-0.59375 -1.17188,-0.59375 -0.67187,0 -1.1875,0.625 -0.51562,0.625 -0.51562,1.828125 z m 9.79883,3.078125 v -0.921875 q -0.73438,1.0625 -1.98438,1.0625 -0.54687,0 -1.03125,-0.203125 -0.46875,-0.21875 -0.70312,-0.53125 -0.23438,-0.328125 -0.32813,-0.796875 -0.0625,-0.296875 -0.0625,-0.984375 v -3.84375 h 1.0625 v 3.453125 q 0,0.8125 0.0625,1.109375 0.0937,0.40625 0.40625,0.65625 0.32813,0.234375 0.8125,0.234375 0.46875,0 0.875,-0.234375 0.42188,-0.25 0.59375,-0.671875 0.1875,-0.421875 0.1875,-1.21875 v -3.328125 h 1.04688 v 6.21875 z m 4.89257,-0.9375 0.15625,0.921875 q -0.45312,0.09375 -0.79687,0.09375 -0.57813,0 -0.89063,-0.171875 -0.3125,-0.1875 -0.45312,-0.484375 -0.125,-0.296875 -0.125,-1.25 v -3.578125 h -0.76563 v -0.8125 h 0.76563 v -1.546875 l 1.04687,-0.625 v 2.171875 h 1.0625 v 0.8125 h -1.0625 v 3.640625 q 0,0.453125 0.0469,0.578125 0.0625,0.125 0.1875,0.203125 0.125,0.07813 0.35937,0.07813 0.1875,0 0.46875,-0.03125 z m 5.28711,-1.0625 1.09375,0.125 q -0.25,0.953125 -0.95312,1.484375 -0.70313,0.53125 -1.78125,0.53125 -1.35938,0 -2.17188,-0.84375 -0.79687,-0.84375 -0.79687,-2.359375 0,-1.5625 0.8125,-2.421875 0.8125,-0.875 2.09375,-0.875 1.25,0 2.03125,0.84375 0.79687,0.84375 0.79687,2.390625 0,0.09375 0,0.28125 h -4.64062 q 0.0625,1.03125 0.57812,1.578125 0.51563,0.53125 1.29688,0.53125 0.57812,0 0.98437,-0.296875 0.42188,-0.3125 0.65625,-0.96875 z m -3.45312,-1.703125 h 3.46875 q -0.0625,-0.796875 -0.39063,-1.1875 -0.51562,-0.609375 -1.3125,-0.609375 -0.73437,0 -1.23437,0.484375 -0.48438,0.484375 -0.53125,1.3125 z m 11.50781,2.765625 0.15625,0.921875 q -0.45312,0.09375 -0.79687,0.09375 -0.57813,0 -0.89063,-0.171875 -0.3125,-0.1875 -0.45312,-0.484375 -0.125,-0.296875 -0.125,-1.25 v -3.578125 h -0.76563 v -0.8125 h 0.76563 v -1.546875 l 1.04687,-0.625 v 2.171875 h 1.0625 v 0.8125 h -1.0625 v 3.640625 q 0,0.453125 0.0469,0.578125 0.0625,0.125 0.1875,0.203125 0.125,0.07813 0.35937,0.07813 0.1875,0 0.46875,-0.03125 z m 1.03711,-6.4375 v -1.21875 h 1.0625 v 1.21875 z m 0,7.375 v -6.21875 h 1.0625 v 6.21875 z m 2.66602,0 v -6.21875 h 0.9375 v 0.875 q 0.29687,-0.46875 0.78125,-0.734375 0.48437,-0.28125 1.10937,-0.28125 0.6875,0 1.125,0.28125 0.45313,0.28125 0.625,0.796875 0.75,-1.078125 1.92188,-1.078125 0.9375,0 1.42187,0.515625 0.5,0.5 0.5,1.578125 v 4.265625 h -1.04687 v -3.921875 q 0,-0.625 -0.10938,-0.90625 -0.0937,-0.28125 -0.35937,-0.453125 -0.26563,-0.171875 -0.64063,-0.171875 -0.65625,0 -1.09375,0.4375 -0.42187,0.4375 -0.42187,1.40625 v 3.609375 h -1.0625 v -4.046875 q 0,-0.703125 -0.26563,-1.046875 -0.25,-0.359375 -0.82812,-0.359375 -0.45313,0 -0.82813,0.234375 -0.375,0.234375 -0.54687,0.6875 -0.17188,0.453125 -0.17188,1.296875 v 3.234375 z m 14.24609,-2 1.09375,0.125 q -0.25,0.953125 -0.95313,1.484375 -0.70312,0.53125 -1.78125,0.53125 -1.35937,0 -2.17187,-0.84375 -0.79688,-0.84375 -0.79688,-2.359375 0,-1.5625 0.8125,-2.421875 0.8125,-0.875 2.09375,-0.875 1.25,0 2.03125,0.84375 0.79688,0.84375 0.79688,2.390625 0,0.09375 0,0.28125 h -4.64063 q 0.0625,1.03125 0.57813,1.578125 0.51562,0.53125 1.29687,0.53125 0.57813,0 0.98438,-0.296875 0.42187,-0.3125 0.65625,-0.96875 z m -3.45313,-1.703125 h 3.46875 q -0.0625,-0.796875 -0.39062,-1.1875 -0.51563,-0.609375 -1.3125,-0.609375 -0.73438,0 -1.23438,0.484375 -0.48437,0.484375 -0.53125,1.3125 z"
       fill="#000000" />
    <path
       id="path1534"
       fill-rule="evenodd"
       d="m 87.64829,12.603675 h 24.62992 V 31.973754 H 87.64829 Z"
       fill="#d9ead3" />
    <path
       id="path1536"
       fill-rule="evenodd"
       d="m 87.64829,12.603675 h 24.62992 V 31.973754 H 87.64829 Z"
       stroke-linecap="butt"
       stroke-linejoin="round"
       stroke-width="1"
       stroke="#000000" />
    <path
       id="path1538"
       fill-rule="evenodd"
       d="m 89.46719,37.782154 23.65354,7.464565"
       fill-opacity="0"
       fill="#000000" />
    <path
       id="path1540"
       fill-rule="evenodd"
       d="m 89.46719,37.782154 17.9317,5.658875"
       stroke-linecap="butt"
       stroke-linejoin="round"
       stroke-width="1"
       stroke="#595959" />
    <path
       id="path1542"
       fill-rule="evenodd"
       d="m 106.90181,45.016182 4.8248,-0.209419 -3.83063,-2.940895 z"
       stroke-linecap="butt"
       stroke-width="1"
       stroke="#595959"
       fill="#595959" />
    <path
       id="path1544"
       fill-rule="evenodd"
       d="M 112.27821,24.146982 H 243.11285 V 52.430446 H 112.27821 Z"
       fill-opacity="0"
       fill="#000000" />
    <path
       id="path1546"
       fill-rule="nonzero"
       d="m 122.21571,44.66698 v -8.59375 h 3.8125 q 1.15625,0 1.75,0.234375 0.59375,0.234375 0.95312,0.828125 0.35938,0.578125 0.35938,1.28125 0,0.921875 -0.59375,1.546875 -0.59375,0.625 -1.82812,0.796875 0.45312,0.21875 0.6875,0.421875 0.5,0.453125 0.93749,1.140625 l 1.5,2.34375 h -1.4375 l -1.12499,-1.78125 q -0.5,-0.78125 -0.82813,-1.1875 -0.3125,-0.40625 -0.57812,-0.5625 -0.25,-0.171875 -0.51563,-0.25 -0.1875,-0.03125 -0.625,-0.03125 h -1.32812 v 3.8125 z m 1.14063,-4.796875 h 2.45312 q 0.76563,0 1.20313,-0.15625 0.45312,-0.171875 0.67187,-0.515625 0.23438,-0.359375 0.23438,-0.78125 0,-0.609375 -0.45313,-1 -0.4375,-0.390625 -1.39062,-0.390625 h -2.71875 z m 11.63476,2.796875 1.09375,0.125 q -0.25,0.953125 -0.95312,1.484375 -0.70313,0.53125 -1.78125,0.53125 -1.35938,0 -2.17188,-0.84375 -0.79687,-0.84375 -0.79687,-2.359375 0,-1.5625 0.8125,-2.421875 0.8125,-0.875 2.09375,-0.875 1.25,0 2.03125,0.84375 0.79687,0.84375 0.79687,2.390625 0,0.09375 0,0.28125 h -4.64062 q 0.0625,1.03125 0.57812,1.578125 0.51563,0.53125 1.29688,0.53125 0.57812,0 0.98437,-0.296875 0.42188,-0.3125 0.65625,-0.96875 z m -3.45312,-1.703125 h 3.46875 q -0.0625,-0.796875 -0.39063,-1.1875 -0.51562,-0.609375 -1.3125,-0.609375 -0.73437,0 -1.23437,0.484375 -0.48438,0.484375 -0.53125,1.3125 z m 9.8457,6.09375 V 44.01073 q -0.25,0.34375 -0.70313,0.578125 -0.4375,0.21875 -0.9375,0.21875 -1.10937,0 -1.90625,-0.875 -0.79687,-0.890625 -0.79687,-2.4375 0,-0.9375 0.32812,-1.671875 0.32813,-0.75 0.9375,-1.125 0.625,-0.390625 1.35938,-0.390625 1.15625,0 1.8125,0.96875 V 38.44823 h 0.95312 v 8.609375 z m -3.26563,-5.515625 q 0,1.203125 0.5,1.796875 0.51563,0.59375 1.21875,0.59375 0.67188,0 1.15625,-0.5625 0.48438,-0.578125 0.48438,-1.734375 0,-1.25 -0.51563,-1.875 -0.5,-0.625 -1.20312,-0.625 -0.67188,0 -1.15625,0.59375 -0.48438,0.578125 -0.48438,1.8125 z m 10.04883,3.125 v -0.921875 q -0.73437,1.0625 -1.98437,1.0625 -0.54688,0 -1.03125,-0.203125 -0.46875,-0.21875 -0.70313,-0.53125 -0.23437,-0.328125 -0.32812,-0.796875 -0.0625,-0.296875 -0.0625,-0.984375 v -3.84375 h 1.0625 v 3.453125 q 0,0.8125 0.0625,1.109375 0.0937,0.40625 0.40625,0.65625 0.32812,0.234375 0.8125,0.234375 0.46875,0 0.875,-0.234375 0.42187,-0.25 0.59375,-0.671875 0.1875,-0.421875 0.1875,-1.21875 V 38.44823 h 1.04687 v 6.21875 z m 6.84571,-2 1.09375,0.125 q -0.25,0.953125 -0.95313,1.484375 -0.70312,0.53125 -1.78125,0.53125 -1.35937,0 -2.17187,-0.84375 -0.79688,-0.84375 -0.79688,-2.359375 0,-1.5625 0.8125,-2.421875 0.8125,-0.875 2.09375,-0.875 1.25,0 2.03125,0.84375 0.79688,0.84375 0.79688,2.390625 0,0.09375 0,0.28125 h -4.64063 q 0.0625,1.03125 0.57813,1.578125 0.51562,0.53125 1.29687,0.53125 0.57813,0 0.98438,-0.296875 0.42187,-0.3125 0.65625,-0.96875 z m -3.45313,-1.703125 h 3.46875 q -0.0625,-0.796875 -0.39062,-1.1875 -0.51563,-0.609375 -1.3125,-0.609375 -0.73438,0 -1.23438,0.484375 -0.48437,0.484375 -0.53125,1.3125 z m 5.45508,1.84375 1.03125,-0.15625 q 0.0937,0.625 0.48437,0.953125 0.40625,0.328125 1.14063,0.328125 0.71875,0 1.0625,-0.28125 0.35937,-0.296875 0.35937,-0.703125 0,-0.359375 -0.3125,-0.5625 -0.21875,-0.140625 -1.07812,-0.359375 -1.15625,-0.296875 -1.60938,-0.5 -0.4375,-0.21875 -0.67187,-0.59375 -0.23438,-0.375 -0.23438,-0.84375 0,-0.40625 0.1875,-0.765625 0.1875,-0.359375 0.51563,-0.59375 0.25,-0.171875 0.67187,-0.296875 0.42188,-0.125 0.92188,-0.125 0.71875,0 1.26562,0.21875 0.5625,0.203125 0.82813,0.5625 0.26562,0.359375 0.35937,0.953125 l -1.03125,0.140625 q -0.0625,-0.46875 -0.40625,-0.734375 -0.32812,-0.28125 -0.95312,-0.28125 -0.71875,0 -1.03125,0.25 -0.3125,0.234375 -0.3125,0.5625 0,0.203125 0.125,0.359375 0.14062,0.171875 0.40625,0.28125 0.15625,0.0625 0.9375,0.265625 1.125,0.3125 1.5625,0.5 0.4375,0.1875 0.6875,0.546875 0.25,0.359375 0.25,0.90625 0,0.53125 -0.3125,1 -0.29688,0.453125 -0.875,0.71875 -0.57813,0.25 -1.3125,0.25 -1.21875,0 -1.85938,-0.5 -0.625,-0.515625 -0.79687,-1.5 z m 8.71875,0.921875 0.15625,0.921875 q -0.45313,0.09375 -0.79688,0.09375 -0.57812,0 -0.89062,-0.171875 -0.3125,-0.1875 -0.45313,-0.484375 -0.125,-0.296875 -0.125,-1.25 V 39.26073 h -0.76562 v -0.8125 h 0.76562 v -1.546875 l 1.04688,-0.625 v 2.171875 h 1.0625 v 0.8125 h -1.0625 v 3.640625 q 0,0.453125 0.0469,0.578125 0.0625,0.125 0.1875,0.203125 0.125,0.07813 0.35938,0.07813 0.1875,0 0.46875,-0.03125 z m 5.51172,0.9375 -1.90625,-6.21875 h 1.09375 l 0.98437,3.59375 0.375,1.328125 q 0.0312,-0.09375 0.32813,-1.28125 l 0.98437,-3.640625 h 1.07813 l 0.9375,3.609375 0.3125,1.1875 0.35937,-1.203125 1.0625,-3.59375 h 1.03125 l -1.95312,6.21875 h -1.09375 l -0.98438,-3.734375 -0.25,-1.046875 -1.25,4.78125 z m 7.13476,-3.109375 q 0,-1.734375 0.95313,-2.5625 0.79687,-0.6875 1.95312,-0.6875 1.28125,0 2.09375,0.84375 0.82813,0.828125 0.82813,2.3125 0,1.203125 -0.35938,1.890625 -0.35937,0.6875 -1.0625,1.078125 -0.6875,0.375 -1.5,0.375 -1.29687,0 -2.10937,-0.828125 -0.79688,-0.84375 -0.79688,-2.421875 z m 1.07813,0 q 0,1.1875 0.51562,1.78125 0.53125,0.59375 1.3125,0.59375 0.79688,0 1.3125,-0.59375 0.51563,-0.59375 0.51563,-1.8125 0,-1.15625 -0.53125,-1.75 -0.51563,-0.59375 -1.29688,-0.59375 -0.78125,0 -1.3125,0.59375 -0.51562,0.578125 -0.51562,1.78125 z m 5.9707,3.109375 v -6.21875 h 0.95313 v 0.9375 q 0.35937,-0.65625 0.65625,-0.859375 0.3125,-0.21875 0.6875,-0.21875 0.53125,0 1.07812,0.328125 l -0.35937,0.984375 q -0.39063,-0.234375 -0.76563,-0.234375 -0.35937,0 -0.64062,0.21875 -0.26563,0.203125 -0.375,0.578125 -0.1875,0.5625 -0.1875,1.21875 v 3.265625 z m 4.01172,0 v -8.59375 h 1.0625 v 4.90625 l 2.48437,-2.53125 h 1.375 l -2.39062,2.296875 2.625,3.921875 h -1.29688 l -2.0625,-3.1875 -0.73437,0.71875 v 2.46875 z m 9.33398,-7.375 v -1.21875 h 1.0625 v 1.21875 z m 0,7.375 v -6.21875 h 1.0625 v 6.21875 z m 4.96289,-0.9375 0.15625,0.921875 q -0.45312,0.09375 -0.79687,0.09375 -0.57813,0 -0.89063,-0.171875 -0.3125,-0.1875 -0.45312,-0.484375 -0.125,-0.296875 -0.125,-1.25 V 39.26073 h -0.76563 v -0.8125 h 0.76563 v -1.546875 l 1.04687,-0.625 v 2.171875 h 1.0625 v 0.8125 h -1.0625 v 3.640625 q 0,0.453125 0.0469,0.578125 0.0625,0.125 0.1875,0.203125 0.125,0.07813 0.35937,0.07813 0.1875,0 0.46875,-0.03125 z m 5.28711,-1.0625 1.09375,0.125 q -0.25,0.953125 -0.95312,1.484375 -0.70313,0.53125 -1.78125,0.53125 -1.35938,0 -2.17188,-0.84375 -0.79687,-0.84375 -0.79687,-2.359375 0,-1.5625 0.8125,-2.421875 0.8125,-0.875 2.09375,-0.875 1.25,0 2.03125,0.84375 0.79687,0.84375 0.79687,2.390625 0,0.09375 0,0.28125 h -4.64062 q 0.0625,1.03125 0.57812,1.578125 0.51563,0.53125 1.29688,0.53125 0.57812,0 0.98437,-0.296875 0.42188,-0.3125 0.65625,-0.96875 z m -3.45312,-1.703125 h 3.46875 q -0.0625,-0.796875 -0.39063,-1.1875 -0.51562,-0.609375 -1.3125,-0.609375 -0.73437,0 -1.23437,0.484375 -0.48438,0.484375 -0.53125,1.3125 z m 5.87695,3.703125 v -6.21875 h 0.9375 v 0.875 q 0.29688,-0.46875 0.78125,-0.734375 0.48438,-0.28125 1.10938,-0.28125 0.6875,0 1.125,0.28125 0.45312,0.28125 0.625,0.796875 0.75,-1.078125 1.92187,-1.078125 0.9375,0 1.42188,0.515625 0.5,0.5 0.5,1.578125 v 4.265625 h -1.04688 v -3.921875 q 0,-0.625 -0.10937,-0.90625 -0.0937,-0.28125 -0.35938,-0.453125 -0.26562,-0.171875 -0.64062,-0.171875 -0.65625,0 -1.09375,0.4375 -0.42188,0.4375 -0.42188,1.40625 v 3.609375 h -1.0625 v -4.046875 q 0,-0.703125 -0.26562,-1.046875 -0.25,-0.359375 -0.82813,-0.359375 -0.45312,0 -0.82812,0.234375 -0.375,0.234375 -0.54688,0.6875 -0.17187,0.453125 -0.17187,1.296875 v 3.234375 z"
       fill="#000000" />
    <path
       id="path1548"
       fill-rule="evenodd"
       d="M 112.27821,40.14698 H 215.61679 V 68.430443 H 112.27821 Z"
       fill-opacity="0"
       fill="#000000" />
    <path
       id="path1550"
       fill-rule="nonzero"
       d="m 126.23134,57.29198 v -1 l 3.625,-0.01563 v 3.1875 q -0.82813,0.671875 -1.71875,1.015625 -0.89063,0.328125 -1.82813,0.328125 -1.26562,0 -2.3125,-0.53125 -1.03125,-0.546875 -1.5625,-1.5625 -0.51562,-1.03125 -0.51562,-2.296875 0,-1.265625 0.51562,-2.34375 0.53125,-1.09375 1.51563,-1.609375 0.98437,-0.53125 2.26562,-0.53125 0.9375,0 1.6875,0.296875 0.75,0.296875 1.17188,0.84375 0.4375,0.53125 0.65625,1.40625 l -1.01563,0.28125 q -0.20312,-0.65625 -0.5,-1.03125 -0.28125,-0.375 -0.8125,-0.59375 -0.53125,-0.234375 -1.17187,-0.234375 -0.78125,0 -1.35938,0.234375 -0.5625,0.234375 -0.92187,0.625 -0.34375,0.390625 -0.53125,0.859375 -0.32813,0.796875 -0.32813,1.71875 0,1.15625 0.39063,1.9375 0.40625,0.765625 1.15625,1.140625 0.75,0.375 1.60937,0.375 0.73438,0 1.4375,-0.28125 0.70313,-0.296875 1.0625,-0.609375 v -1.60937 z m 9.42773,1.375 1.09375,0.125 q -0.25,0.953125 -0.95312,1.484375 -0.70313,0.53125 -1.78125,0.53125 -1.35938,0 -2.17188,-0.84375 -0.79687,-0.84375 -0.79687,-2.359375 0,-1.5625 0.8125,-2.421875 0.8125,-0.875 2.09375,-0.875 1.25,0 2.03125,0.84375 0.79687,0.84375 0.79687,2.390625 0,0.09375 0,0.28125 h -4.64062 q 0.0625,1.03125 0.57812,1.578125 0.51563,0.53125 1.29688,0.53125 0.57812,0 0.98437,-0.296875 0.42188,-0.3125 0.65625,-0.96875 z m -3.45312,-1.703125 h 3.46875 q -0.0625,-0.796875 -0.39063,-1.1875 -0.51562,-0.609375 -1.3125,-0.609375 -0.73437,0 -1.23437,0.484375 -0.48438,0.484375 -0.53125,1.3125 z m 8.17383,2.765625 0.15625,0.921875 q -0.45313,0.09375 -0.79688,0.09375 -0.57812,0 -0.89062,-0.171875 -0.3125,-0.1875 -0.45313,-0.484375 -0.125,-0.296875 -0.125,-1.25 V 55.26073 h -0.76562 v -0.8125 h 0.76562 v -1.546875 l 1.04688,-0.625 v 2.171875 h 1.0625 v 0.8125 h -1.0625 v 3.640625 q 0,0.453125 0.0469,0.578125 0.0625,0.125 0.1875,0.203125 0.125,0.07813 0.35938,0.07813 0.1875,0 0.46875,-0.03125 z m 5.51172,0.9375 -1.90625,-6.21875 h 1.09375 l 0.98437,3.59375 0.375,1.328125 q 0.0312,-0.09375 0.32813,-1.28125 l 0.98437,-3.640625 h 1.07813 l 0.9375,3.609375 0.3125,1.1875 0.35937,-1.203125 1.0625,-3.59375 h 1.03125 l -1.95312,6.21875 h -1.09375 l -0.98438,-3.734375 -0.25,-1.046875 -1.25,4.78125 z m 7.13476,-3.109375 q 0,-1.734375 0.95313,-2.5625 0.79687,-0.6875 1.95312,-0.6875 1.28125,0 2.09375,0.84375 0.82813,0.828125 0.82813,2.3125 0,1.203125 -0.35938,1.890625 -0.35937,0.6875 -1.0625,1.078125 -0.6875,0.375 -1.5,0.375 -1.29687,0 -2.10937,-0.828125 -0.79688,-0.84375 -0.79688,-2.421875 z m 1.07813,0 q 0,1.1875 0.51562,1.78125 0.53125,0.59375 1.3125,0.59375 0.79688,0 1.3125,-0.59375 0.51563,-0.59375 0.51563,-1.8125 0,-1.15625 -0.53125,-1.75 -0.51563,-0.59375 -1.29688,-0.59375 -0.78125,0 -1.3125,0.59375 -0.51562,0.578125 -0.51562,1.78125 z m 5.9707,3.109375 v -6.21875 h 0.95312 v 0.9375 q 0.35938,-0.65625 0.65625,-0.859375 0.3125,-0.21875 0.6875,-0.21875 0.53125,0 1.07813,0.328125 l -0.35938,0.984375 q -0.39062,-0.234375 -0.76562,-0.234375 -0.35938,0 -0.64063,0.21875 -0.26562,0.203125 -0.375,0.578125 -0.1875,0.5625 -0.1875,1.21875 v 3.265625 z m 4.01172,0 v -8.59375 h 1.0625 v 4.90625 l 2.48437,-2.53125 h 1.375 l -2.39062,2.296875 2.625,3.921875 h -1.29688 l -2.0625,-3.1875 -0.73437,0.71875 v 2.46875 z m 9.33398,-7.375 v -1.21875 h 1.0625 v 1.21875 z m 0,7.375 v -6.21875 h 1.0625 v 6.21875 z m 4.96289,-0.9375 0.15625,0.921875 q -0.45312,0.09375 -0.79687,0.09375 -0.57813,0 -0.89063,-0.171875 -0.3125,-0.1875 -0.45312,-0.484375 -0.125,-0.296875 -0.125,-1.25 V 55.26073 h -0.76563 v -0.8125 h 0.76563 v -1.546875 l 1.04687,-0.625 v 2.171875 h 1.0625 v 0.8125 h -1.0625 v 3.640625 q 0,0.453125 0.0469,0.578125 0.0625,0.125 0.1875,0.203125 0.125,0.07813 0.35937,0.07813 0.1875,0 0.46875,-0.03125 z m 5.28711,-1.0625 1.09375,0.125 q -0.25,0.953125 -0.95312,1.484375 -0.70313,0.53125 -1.78125,0.53125 -1.35938,0 -2.17188,-0.84375 -0.79687,-0.84375 -0.79687,-2.359375 0,-1.5625 0.8125,-2.421875 0.8125,-0.875 2.09375,-0.875 1.25,0 2.03125,0.84375 0.79687,0.84375 0.79687,2.390625 0,0.09375 0,0.28125 h -4.64062 q 0.0625,1.03125 0.57812,1.578125 0.51563,0.53125 1.29688,0.53125 0.57812,0 0.98437,-0.296875 0.42188,-0.3125 0.65625,-0.96875 z m -3.45312,-1.703125 h 3.46875 q -0.0625,-0.796875 -0.39063,-1.1875 -0.51562,-0.609375 -1.3125,-0.609375 -0.73437,0 -1.23437,0.484375 -0.48438,0.484375 -0.53125,1.3125 z m 5.87695,3.703125 v -6.21875 h 0.9375 v 0.875 q 0.29688,-0.46875 0.78125,-0.734375 0.48438,-0.28125 1.10938,-0.28125 0.6875,0 1.125,0.28125 0.45312,0.28125 0.625,0.796875 0.75,-1.078125 1.92187,-1.078125 0.9375,0 1.42188,0.515625 0.5,0.5 0.5,1.578125 v 4.265625 h -1.04688 v -3.921875 q 0,-0.625 -0.10937,-0.90625 -0.0937,-0.28125 -0.35938,-0.453125 -0.26562,-0.171875 -0.64062,-0.171875 -0.65625,0 -1.09375,0.4375 -0.42188,0.4375 -0.42188,1.40625 v 3.609375 h -1.0625 v -4.046875 q 0,-0.703125 -0.26562,-1.046875 -0.25,-0.359375 -0.82813,-0.359375 -0.45312,0 -0.82812,0.234375 -0.375,0.234375 -0.54688,0.6875 -0.17187,0.453125 -0.17187,1.296875 v 3.234375 z"
       fill="#000000" />
    <path
       id="path1552"
       fill-rule="evenodd"
       d="M 89.049866,62.24147 110.87664,56.068241"
       fill-opacity="0"
       fill="#000000" />
    <path
       id="path1554"
       fill-rule="evenodd"
       d="m 94.82339,60.608555 16.05325,-4.540314"
       stroke-linecap="butt"
       stroke-linejoin="round"
       stroke-width="1"
       stroke="#595959" />
    <path
       id="path1556"
       fill-rule="evenodd"
       d="m 94.37387,59.01917 -3.917282,2.82444 4.81633,0.354332 z"
       stroke-linecap="butt"
       stroke-width="1"
       stroke="#595959"
       fill="#595959" />
    <path
       id="path1558"
       fill-rule="evenodd"
       d="m 270.15222,40.14698 h 57.92126 v 28.283463 h -57.92126 z"
       fill-opacity="0"
       fill="#000000" />
    <path
       id="path1560"
       fill-rule="nonzero"
       d="m 282.31012,58.808712 -2.28125,-8.59375 h 1.17187 l 1.3125,5.640625 q 0.20313,0.875 0.35938,1.75 0.32812,-1.375 0.39062,-1.59375 l 1.625,-5.796875 h 1.375 l 1.23438,4.34375 q 0.45312,1.625 0.67187,3.046875 0.15625,-0.8125 0.42188,-1.875 l 1.34375,-5.515625 h 1.14062 l -2.34375,8.59375 h -1.10937 l -1.79688,-6.546875 q -0.23437,-0.8125 -0.28125,-1 -0.125,0.578125 -0.25,1 l -1.8125,6.546875 z m 9.09375,-3.109375 q 0,-1.734375 0.95312,-2.5625 0.79688,-0.6875 1.95313,-0.6875 1.28125,0 2.09375,0.84375 0.82812,0.828125 0.82812,2.3125 0,1.203125 -0.35937,1.890625 -0.35938,0.6875 -1.0625,1.078125 -0.6875,0.375 -1.5,0.375 -1.29688,0 -2.10938,-0.828125 -0.79687,-0.84375 -0.79687,-2.421875 z m 1.07812,0 q 0,1.1875 0.51563,1.78125 0.53125,0.59375 1.3125,0.59375 0.79687,0 1.3125,-0.59375 0.51562,-0.59375 0.51562,-1.8125 0,-1.15625 -0.53125,-1.75 -0.51562,-0.59375 -1.29687,-0.59375 -0.78125,0 -1.3125,0.59375 -0.51563,0.578125 -0.51563,1.78125 z m 5.97071,3.109375 v -6.21875 h 0.95312 v 0.9375 q 0.35938,-0.65625 0.65625,-0.859375 0.3125,-0.21875 0.6875,-0.21875 0.53125,0 1.07813,0.328125 l -0.35938,0.984375 q -0.39062,-0.234375 -0.76562,-0.234375 -0.35938,0 -0.64063,0.21875 -0.26562,0.203125 -0.375,0.578125 -0.1875,0.5625 -0.1875,1.21875 v 3.265625 z m 4.01172,0 v -8.59375 h 1.0625 v 4.90625 l 2.48437,-2.53125 h 1.375 l -2.39062,2.296875 2.625,3.921875 h -1.29688 l -2.0625,-3.1875 -0.73437,0.71875 v 2.46875 z m 10.25,-2 1.09375,0.125 q -0.25,0.953125 -0.95313,1.484375 -0.70312,0.53125 -1.78125,0.53125 -1.35937,0 -2.17187,-0.84375 -0.79688,-0.84375 -0.79688,-2.359375 0,-1.5625 0.8125,-2.421875 0.8125,-0.875 2.09375,-0.875 1.25,0 2.03125,0.84375 0.79688,0.84375 0.79688,2.390625 0,0.09375 0,0.28125 h -4.64063 q 0.0625,1.03125 0.57813,1.578125 0.51562,0.53125 1.29687,0.53125 0.57813,0 0.98438,-0.296875 0.42187,-0.3125 0.65625,-0.96875 z m -3.45313,-1.703125 h 3.46875 q -0.0625,-0.796875 -0.39062,-1.1875 -0.51563,-0.609375 -1.3125,-0.609375 -0.73438,0 -1.23438,0.484375 -0.48437,0.484375 -0.53125,1.3125 z m 5.86133,3.703125 v -6.21875 h 0.95312 v 0.9375 q 0.35938,-0.65625 0.65625,-0.859375 0.3125,-0.21875 0.6875,-0.21875 0.53125,0 1.07813,0.328125 l -0.35938,0.984375 q -0.39062,-0.234375 -0.76562,-0.234375 -0.35938,0 -0.64063,0.21875 -0.26562,0.203125 -0.375,0.578125 -0.1875,0.5625 -0.1875,1.21875 v 3.265625 z"
       fill="#000000" />
    <path
       id="path1562"
       fill-rule="evenodd"
       d="m 448.14435,40.14698 h 57.92126 v 28.283463 h -57.92126 z"
       fill-opacity="0"
       fill="#000000" />
    <path
       id="path1564"
       fill-rule="nonzero"
       d="m 466.52783,57.886837 q 0.79687,0.546875 1.45312,0.796875 l -0.32812,0.796875 q -0.92188,-0.34375 -1.84375,-1.0625 -0.95313,0.53125 -2.10938,0.53125 -1.17187,0 -2.125,-0.5625 -0.9375,-0.5625 -1.45312,-1.578125 -0.51563,-1.015625 -0.51563,-2.296875 0,-1.265625 0.51563,-2.3125 0.51562,-1.046875 1.46875,-1.59375 0.95312,-0.546875 2.125,-0.546875 1.1875,0 2.14062,0.578125 0.96875,0.5625 1.46875,1.578125 0.5,1.015625 0.5,2.296875 0,1.0625 -0.32812,1.90625 -0.3125,0.84375 -0.96875,1.46875 z m -2.5,-1.453125 q 0.98437,0.28125 1.625,0.828125 1,-0.921875 1,-2.75 0,-1.046875 -0.35938,-1.828125 -0.35937,-0.78125 -1.04687,-1.203125 -0.67188,-0.4375 -1.51563,-0.4375 -1.28125,0 -2.125,0.875 -0.82812,0.859375 -0.82812,2.59375 0,1.671875 0.82812,2.578125 0.82813,0.890625 2.125,0.890625 0.60938,0 1.14063,-0.234375 -0.53125,-0.34375 -1.125,-0.484375 z m 9.27148,2.375 v -0.921875 q -0.73437,1.0625 -1.98437,1.0625 -0.54688,0 -1.03125,-0.203125 -0.46875,-0.21875 -0.70313,-0.53125 -0.23437,-0.328125 -0.32812,-0.796875 -0.0625,-0.296875 -0.0625,-0.984375 v -3.84375 h 1.0625 v 3.453125 q 0,0.8125 0.0625,1.109375 0.0937,0.40625 0.40625,0.65625 0.32812,0.234375 0.8125,0.234375 0.46875,0 0.875,-0.234375 0.42187,-0.25 0.59375,-0.671875 0.1875,-0.421875 0.1875,-1.21875 v -3.328125 h 1.04687 v 6.21875 z m 6.84571,-2 1.09375,0.125 q -0.25,0.953125 -0.95313,1.484375 -0.70312,0.53125 -1.78125,0.53125 -1.35937,0 -2.17187,-0.84375 -0.79688,-0.84375 -0.79688,-2.359375 0,-1.5625 0.8125,-2.421875 0.8125,-0.875 2.09375,-0.875 1.25,0 2.03125,0.84375 0.79688,0.84375 0.79688,2.390625 0,0.09375 0,0.28125 h -4.64063 q 0.0625,1.03125 0.57813,1.578125 0.51562,0.53125 1.29687,0.53125 0.57813,0 0.98438,-0.296875 0.42187,-0.3125 0.65625,-0.96875 z m -3.45313,-1.703125 h 3.46875 q -0.0625,-0.796875 -0.39062,-1.1875 -0.51563,-0.609375 -1.3125,-0.609375 -0.73438,0 -1.23438,0.484375 -0.48437,0.484375 -0.53125,1.3125 z m 9.95508,3.703125 v -0.921875 q -0.73438,1.0625 -1.98438,1.0625 -0.54687,0 -1.03125,-0.203125 -0.46875,-0.21875 -0.70312,-0.53125 -0.23438,-0.328125 -0.32813,-0.796875 -0.0625,-0.296875 -0.0625,-0.984375 v -3.84375 h 1.0625 v 3.453125 q 0,0.8125 0.0625,1.109375 0.0937,0.40625 0.40625,0.65625 0.32813,0.234375 0.8125,0.234375 0.46875,0 0.875,-0.234375 0.42188,-0.25 0.59375,-0.671875 0.1875,-0.421875 0.1875,-1.21875 v -3.328125 h 1.04688 v 6.21875 z m 6.8457,-2 1.09375,0.125 q -0.25,0.953125 -0.95312,1.484375 -0.70313,0.53125 -1.78125,0.53125 -1.35938,0 -2.17188,-0.84375 -0.79687,-0.84375 -0.79687,-2.359375 0,-1.5625 0.8125,-2.421875 0.8125,-0.875 2.09375,-0.875 1.25,0 2.03125,0.84375 0.79687,0.84375 0.79687,2.390625 0,0.09375 0,0.28125 h -4.64062 q 0.0625,1.03125 0.57812,1.578125 0.51563,0.53125 1.29688,0.53125 0.57812,0 0.98437,-0.296875 0.42188,-0.3125 0.65625,-0.96875 z m -3.45312,-1.703125 h 3.46875 q -0.0625,-0.796875 -0.39063,-1.1875 -0.51562,-0.609375 -1.3125,-0.609375 -0.73437,0 -1.23437,0.484375 -0.48438,0.484375 -0.53125,1.3125 z"
       fill="#000000" />
    <path
       id="path1566"
       fill-rule="evenodd"
       d="m 641.96063,37.349083 h 57.92126 v 28.283463 h -57.92126 z"
       fill-opacity="0"
       fill="#000000" />
    <path
       id="path1568"
       fill-rule="nonzero"
       d="m 654.1185,56.010815 -2.28125,-8.59375 h 1.17188 l 1.3125,5.640625 q 0.20312,0.875 0.35937,1.75 0.32813,-1.375 0.39063,-1.59375 l 1.625,-5.796875 h 1.375 l 1.23437,4.34375 q 0.45313,1.625 0.67188,3.046875 0.15625,-0.8125 0.42187,-1.875 l 1.34375,-5.515625 h 1.14063 l -2.34375,8.59375 H 659.431 l -1.79687,-6.546875 q -0.23438,-0.8125 -0.28125,-1 -0.125,0.578125 -0.25,1 l -1.8125,6.546875 z m 9.09375,-3.109375 q 0,-1.734375 0.95313,-2.5625 0.79687,-0.6875 1.95312,-0.6875 1.28125,0 2.09375,0.84375 0.82813,0.828125 0.82813,2.3125 0,1.203125 -0.35938,1.890625 -0.35937,0.6875 -1.0625,1.078125 -0.6875,0.375 -1.5,0.375 -1.29687,0 -2.10937,-0.828125 -0.79688,-0.84375 -0.79688,-2.421875 z m 1.07813,0 q 0,1.1875 0.51562,1.78125 0.53125,0.59375 1.3125,0.59375 0.79688,0 1.3125,-0.59375 0.51563,-0.59375 0.51563,-1.8125 0,-1.15625 -0.53125,-1.75 -0.51563,-0.59375 -1.29688,-0.59375 -0.78125,0 -1.3125,0.59375 -0.51562,0.578125 -0.51562,1.78125 z m 5.9707,3.109375 v -6.21875 h 0.95312 v 0.9375 q 0.35938,-0.65625 0.65625,-0.859375 0.3125,-0.21875 0.6875,-0.21875 0.53125,0 1.07813,0.328125 l -0.35938,0.984375 q -0.39062,-0.234375 -0.76562,-0.234375 -0.35938,0 -0.64063,0.21875 -0.26562,0.203125 -0.375,0.578125 -0.1875,0.5625 -0.1875,1.21875 v 3.265625 z m 4.01172,0 v -8.59375 h 1.0625 v 4.90625 l 2.48437,-2.53125 h 1.375 l -2.39062,2.296875 2.625,3.921875 h -1.29688 l -2.0625,-3.1875 -0.73437,0.71875 v 2.46875 z m 10.25,-2 1.09375,0.125 q -0.25,0.953125 -0.95313,1.484375 -0.70312,0.53125 -1.78125,0.53125 -1.35937,0 -2.17187,-0.84375 -0.79688,-0.84375 -0.79688,-2.359375 0,-1.5625 0.8125,-2.421875 0.8125,-0.875 2.09375,-0.875 1.25,0 2.03125,0.84375 0.79688,0.84375 0.79688,2.390625 0,0.09375 0,0.28125 h -4.64063 q 0.0625,1.03125 0.57813,1.578125 0.51562,0.53125 1.29687,0.53125 0.57813,0 0.98438,-0.296875 0.42187,-0.3125 0.65625,-0.96875 z m -3.45313,-1.703125 h 3.46875 q -0.0625,-0.796875 -0.39062,-1.1875 -0.51563,-0.609375 -1.3125,-0.609375 -0.73438,0 -1.23438,0.484375 -0.48437,0.484375 -0.53125,1.3125 z m 5.86133,3.703125 v -6.21875 h 0.95312 v 0.9375 q 0.35938,-0.65625 0.65625,-0.859375 0.3125,-0.21875 0.6875,-0.21875 0.53125,0 1.07813,0.328125 l -0.35938,0.984375 q -0.39062,-0.234375 -0.76562,-0.234375 -0.35938,0 -0.64063,0.21875 -0.26562,0.203125 -0.375,0.578125 -0.1875,0.5625 -0.1875,1.21875 v 3.265625 z"
       fill="#000000" />
    <path
       id="path1570"
       fill-rule="evenodd"
       d="m 819.96063,37.349083 h 57.92126 v 28.283463 h -57.92126 z"
       fill-opacity="0"
       fill="#000000" />
    <path
       id="path1572"
       fill-rule="nonzero"
       d="m 838.3441,55.08894 q 0.79688,0.546875 1.45313,0.796875 l -0.32813,0.796875 q -0.92187,-0.34375 -1.84375,-1.0625 -0.95312,0.53125 -2.10937,0.53125 -1.17188,0 -2.125,-0.5625 -0.9375,-0.5625 -1.45313,-1.578125 -0.51562,-1.015625 -0.51562,-2.296875 0,-1.265625 0.51562,-2.3125 0.51563,-1.046875 1.46875,-1.59375 0.95313,-0.546875 2.125,-0.546875 1.1875,0 2.14063,0.578125 0.96875,0.5625 1.46875,1.578125 0.5,1.015625 0.5,2.296875 0,1.0625 -0.32813,1.90625 -0.3125,0.84375 -0.96875,1.46875 z m -2.5,-1.453125 q 0.98438,0.28125 1.625,0.828125 1,-0.921875 1,-2.75 0,-1.046875 -0.35937,-1.828125 -0.35938,-0.78125 -1.04688,-1.203125 -0.67187,-0.4375 -1.51562,-0.4375 -1.28125,0 -2.125,0.875 -0.82813,0.859375 -0.82813,2.59375 0,1.671875 0.82813,2.578125 0.82812,0.890625 2.125,0.890625 0.60937,0 1.14062,-0.234375 -0.53125,-0.34375 -1.125,-0.484375 z m 9.27148,2.375 V 55.08894 q -0.73437,1.0625 -1.98437,1.0625 -0.54688,0 -1.03125,-0.203125 -0.46875,-0.21875 -0.70313,-0.53125 -0.23437,-0.328125 -0.32812,-0.796875 -0.0625,-0.296875 -0.0625,-0.984375 v -3.84375 h 1.0625 v 3.453125 q 0,0.8125 0.0625,1.109375 0.0937,0.40625 0.40625,0.65625 0.32812,0.234375 0.8125,0.234375 0.46875,0 0.875,-0.234375 0.42187,-0.25 0.59375,-0.671875 0.1875,-0.421875 0.1875,-1.21875 v -3.328125 h 1.04687 v 6.21875 z m 6.84571,-2 1.09375,0.125 q -0.25,0.953125 -0.95313,1.484375 -0.70312,0.53125 -1.78125,0.53125 -1.35937,0 -2.17187,-0.84375 -0.79688,-0.84375 -0.79688,-2.359375 0,-1.5625 0.8125,-2.421875 0.8125,-0.875 2.09375,-0.875 1.25,0 2.03125,0.84375 0.79688,0.84375 0.79688,2.390625 0,0.09375 0,0.28125 h -4.64063 q 0.0625,1.03125 0.57813,1.578125 0.51562,0.53125 1.29687,0.53125 0.57813,0 0.98438,-0.296875 0.42187,-0.3125 0.65625,-0.96875 z m -3.45313,-1.703125 h 3.46875 q -0.0625,-0.796875 -0.39062,-1.1875 -0.51563,-0.609375 -1.3125,-0.609375 -0.73438,0 -1.23438,0.484375 -0.48437,0.484375 -0.53125,1.3125 z m 9.95508,3.703125 V 55.08894 q -0.73438,1.0625 -1.98438,1.0625 -0.54687,0 -1.03125,-0.203125 -0.46875,-0.21875 -0.70312,-0.53125 -0.23438,-0.328125 -0.32813,-0.796875 -0.0625,-0.296875 -0.0625,-0.984375 v -3.84375 h 1.0625 v 3.453125 q 0,0.8125 0.0625,1.109375 0.0937,0.40625 0.40625,0.65625 0.32813,0.234375 0.8125,0.234375 0.46875,0 0.875,-0.234375 0.42188,-0.25 0.59375,-0.671875 0.1875,-0.421875 0.1875,-1.21875 v -3.328125 h 1.04688 v 6.21875 z m 6.8457,-2 1.09375,0.125 q -0.25,0.953125 -0.95312,1.484375 -0.70313,0.53125 -1.78125,0.53125 -1.35938,0 -2.17188,-0.84375 -0.79687,-0.84375 -0.79687,-2.359375 0,-1.5625 0.8125,-2.421875 0.8125,-0.875 2.09375,-0.875 1.25,0 2.03125,0.84375 0.79687,0.84375 0.79687,2.390625 0,0.09375 0,0.28125 h -4.64062 q 0.0625,1.03125 0.57812,1.578125 0.51563,0.53125 1.29688,0.53125 0.57812,0 0.98437,-0.296875 0.42188,-0.3125 0.65625,-0.96875 z m -3.45312,-1.703125 h 3.46875 q -0.0625,-0.796875 -0.39063,-1.1875 -0.51562,-0.609375 -1.3125,-0.609375 -0.73437,0 -1.23437,0.484375 -0.48438,0.484375 -0.53125,1.3125 z"
       fill="#000000" />
    <path
       id="path1574"
       fill-rule="evenodd"
       d="M 848.30444,260.2511 671.83203,292.50308"
       fill-opacity="0"
       fill="#000000" />
    <path
       id="path1576"
       fill-rule="evenodd"
       d="M 848.30444,260.2511 677.73425,291.42441"
       stroke-linecap="butt"
       stroke-linejoin="round"
       stroke-width="1"
       stroke="#595959" />
    <path
       id="path1578"
       fill-rule="evenodd"
       d="m 677.4373,289.79956 -4.16724,2.4407 4.76111,0.80893 z"
       stroke-linecap="butt"
       stroke-width="1"
       stroke="#595959"
       fill="#595959" />
    <path
       id="path1580"
       fill-rule="evenodd"
       d="M 323.15524,4.6036744 H 453.98987 V 32.887138 H 323.15524 Z"
       fill-opacity="0"
       fill="#000000" />
    <path
       id="path1582"
       fill-rule="nonzero"
       d="M 336.72836,27.683674 V 17.199299 h 1.4375 l 5.5,8.234375 v -8.234375 h 1.32812 v 10.484375 h -1.42187 l -5.5,-8.25 v 8.25 z m 9.95926,-3.796875 q 0,-2.109375 1.17187,-3.125 0.98438,-0.84375 2.39063,-0.84375 1.57812,0 2.5625,1.03125 1,1.015625 1,2.828125 0,1.46875 -0.4375,2.3125 -0.4375,0.828125 -1.28125,1.296875 -0.84375,0.46875 -1.84375,0.46875 -1.59375,0 -2.57813,-1.015625 -0.98437,-1.03125 -0.98437,-2.953125 z m 1.32812,0 q 0,1.453125 0.625,2.1875 0.64063,0.71875 1.60938,0.71875 0.96875,0 1.59375,-0.71875 0.64062,-0.734375 0.64062,-2.234375 0,-1.40625 -0.64062,-2.125 -0.64063,-0.734375 -1.59375,-0.734375 -0.96875,0 -1.60938,0.71875 -0.625,0.71875 -0.625,2.1875 z m 10.11988,2.640625 0.1875,1.140625 q -0.54688,0.109375 -0.98438,0.109375 -0.6875,0 -1.07812,-0.21875 -0.39063,-0.21875 -0.54688,-0.578125 -0.15625,-0.359375 -0.15625,-1.515625 v -4.375 h -0.95312 v -1 h 0.95312 v -1.890625 l 1.28125,-0.765625 v 2.65625 h 1.29688 v 1 h -1.29688 v 4.4375 q 0,0.546875 0.0625,0.71875 0.0781,0.15625 0.21875,0.25 0.15625,0.07813 0.45313,0.07813 0.20312,0 0.5625,-0.04687 z m 5.06582,-3.953125 q 0,-2.609375 1.40625,-4.078125 1.40625,-1.484375 3.625,-1.484375 1.45313,0 2.60938,0.703125 1.17187,0.6875 1.78125,1.921875 0.60937,1.234375 0.60937,2.8125 0,1.59375 -0.64062,2.859375 -0.64063,1.265625 -1.82813,1.90625 -1.17187,0.640625 -2.54687,0.640625 -1.46875,0 -2.64063,-0.703125 -1.17187,-0.71875 -1.78125,-1.953125 -0.59375,-1.25 -0.59375,-2.625 z m 1.4375,0.01563 q 0,1.90625 1.01563,3 1.01562,1.078125 2.5625,1.078125 1.5625,0 2.57812,-1.09375 1.01563,-1.109375 1.01563,-3.125 0,-1.28125 -0.4375,-2.234375 -0.4375,-0.96875 -1.26563,-1.484375 -0.82812,-0.53125 -1.875,-0.53125 -1.46875,0 -2.53125,1.015625 -1.0625,1.015625 -1.0625,3.375 z m 12.33759,5.09375 -2.89063,-7.59375 h 1.35938 l 1.625,4.546875 q 0.26562,0.734375 0.5,1.53125 0.15625,-0.609375 0.46875,-1.453125 l 1.6875,-4.625 h 1.32812 l -2.875,7.59375 z m 10.42187,-2.453125 1.32813,0.171875 q -0.3125,1.171875 -1.17188,1.8125 -0.84375,0.640625 -2.17187,0.640625 -1.67188,0 -2.65625,-1.015625 -0.96875,-1.03125 -0.96875,-2.890625 0,-1.921875 0.98437,-2.96875 1,-1.0625 2.57813,-1.0625 1.51562,0 2.48437,1.03125 0.96875,1.03125 0.96875,2.921875 0,0.109375 -0.0156,0.34375 h -5.65625 q 0.0625,1.25 0.70312,1.921875 0.64063,0.65625 1.59375,0.65625 0.70313,0 1.20313,-0.359375 0.5,-0.375 0.79687,-1.203125 z m -4.23437,-2.078125 h 4.25 q -0.0937,-0.953125 -0.48438,-1.4375 -0.625,-0.75 -1.60937,-0.75 -0.875,0 -1.48438,0.59375 -0.60937,0.59375 -0.67187,1.59375 z m 7.16675,4.53125 v -7.59375 h 1.15625 v 1.140625 q 0.45312,-0.796875 0.82812,-1.046875 0.375,-0.265625 0.8125,-0.265625 0.65625,0 1.32813,0.40625 l -0.4375,1.203125 q -0.46875,-0.28125 -0.95313,-0.28125 -0.42187,0 -0.76562,0.25 -0.32813,0.25 -0.46875,0.703125 -0.21875,0.6875 -0.21875,1.5 v 3.984375 z m 4.86502,0 v -10.48438 h 1.28125 v 10.484375 z m 8.24051,-0.9375 q -0.71875,0.609375 -1.375,0.859375 -0.65625,0.25 -1.42188,0.25 -1.25,0 -1.92187,-0.609375 -0.67188,-0.609375 -0.67188,-1.5625 0,-0.5625 0.25,-1.015625 0.25,-0.46875 0.65625,-0.75 0.42188,-0.28125 0.9375,-0.421875 0.375,-0.09375 1.14063,-0.1875 1.5625,-0.1875 2.29687,-0.453125 0.0156,-0.265625 0.0156,-0.328125 0,-0.796875 -0.375,-1.109375 -0.48438,-0.4375 -1.45313,-0.4375 -0.92187,0 -1.35937,0.328125 -0.42188,0.3125 -0.625,1.109375 l -1.26563,-0.171875 q 0.17188,-0.796875 0.5625,-1.296875 0.39063,-0.5 1.14063,-0.765625 0.75,-0.265625 1.71875,-0.265625 0.98437,0 1.59375,0.234375 0.60937,0.21875 0.89062,0.5625 0.28125,0.34375 0.40625,0.875 0.0625,0.328125 0.0625,1.1875 v 1.71875 q 0,1.796875 0.0781,2.28125 0.0781,0.46875 0.32812,0.90625 h -1.34375 q -0.20312,-0.40625 -0.26562,-0.9375 z m -0.10938,-2.875 q -0.70312,0.28125 -2.09375,0.484375 -0.79687,0.109375 -1.125,0.265625 -0.32812,0.140625 -0.51562,0.421875 -0.17188,0.265625 -0.17188,0.59375 0,0.515625 0.39063,0.859375 0.39062,0.34375 1.14062,0.34375 0.73438,0 1.3125,-0.3125 0.59375,-0.328125 0.85938,-0.890625 0.20312,-0.4375 0.20312,-1.296875 z m 3.30737,6.71875 v -10.5 h 1.17188 v 0.984375 q 0.42187,-0.578125 0.9375,-0.859375 0.51562,-0.296875 1.26562,-0.296875 0.96875,0 1.71875,0.5 0.75,0.5 1.125,1.421875 0.375,0.90625 0.375,1.984375 0,1.171875 -0.42187,2.109375 -0.40625,0.921875 -1.21875,1.421875 -0.79688,0.5 -1.67188,0.5 -0.64062,0 -1.15625,-0.265625 -0.51562,-0.28125 -0.84375,-0.6875 v 3.6875 z m 1.15625,-6.65625 q 0,1.453125 0.59375,2.15625 0.60938,0.703125 1.45313,0.703125 0.85937,0 1.46875,-0.71875 0.60937,-0.734375 0.60937,-2.25 0,-1.453125 -0.60937,-2.171875 -0.59375,-0.734375 -1.42188,-0.734375 -0.8125,0 -1.45312,0.78125 -0.64063,0.765625 -0.64063,2.234375 z m 6.99485,6.65625 v -10.5 h 1.17187 v 0.984375 q 0.42188,-0.578125 0.9375,-0.859375 0.51563,-0.296875 1.26563,-0.296875 0.96875,0 1.71875,0.5 0.75,0.5 1.125,1.421875 0.375,0.90625 0.375,1.984375 0,1.171875 -0.42188,2.109375 -0.40625,0.921875 -1.21875,1.421875 -0.79687,0.5 -1.67187,0.5 -0.64063,0 -1.15625,-0.265625 -0.51563,-0.28125 -0.84375,-0.6875 v 3.6875 z m 1.15625,-6.65625 q 0,1.453125 0.59375,2.15625 0.60937,0.703125 1.45312,0.703125 0.85938,0 1.46875,-0.71875 0.60938,-0.734375 0.60938,-2.25 0,-1.453125 -0.60938,-2.171875 -0.59375,-0.734375 -1.42187,-0.734375 -0.8125,0 -1.45313,0.78125 -0.64062,0.765625 -0.64062,2.234375 z m 6.99487,-5.265625 v -1.46875 h 1.29687 v 1.46875 z m 0,9.015625 v -7.59375 h 1.29687 v 7.59375 z m 3.25613,0 v -7.59375 h 1.15625 v 1.078125 q 0.84375,-1.25 2.42188,-1.25 0.6875,0 1.26562,0.25 0.57813,0.234375 0.85938,0.640625 0.28125,0.40625 0.40625,0.953125 0.0625,0.359375 0.0625,1.25 v 4.671875 h -1.28125 v -4.625 q 0,-0.78125 -0.15625,-1.171875 -0.15625,-0.390625 -0.54688,-0.625 -0.375,-0.234375 -0.89062,-0.234375 -0.8125,0 -1.42188,0.53125 -0.59375,0.515625 -0.59375,1.96875 v 4.15625 z m 7.91675,0.625 1.25,0.1875 q 0.0781,0.578125 0.4375,0.84375 0.46875,0.359375 1.3125,0.359375 0.89063,0 1.375,-0.359375 0.48438,-0.359375 0.65625,-1 0.10938,-0.390625 0.0937,-1.65625 -0.84375,1 -2.10937,1 -1.5625,0 -2.42188,-1.125 -0.85937,-1.140625 -0.85937,-2.71875 0,-1.09375 0.39062,-2 0.40625,-0.921875 1.14063,-1.421875 0.75,-0.5 1.76562,-0.5 1.34375,0 2.21875,1.078125 v -0.90625 h 1.1875 v 6.5625 q 0,1.78125 -0.35937,2.515625 -0.35938,0.734375 -1.15625,1.15625 -0.78125,0.4375 -1.92188,0.4375 -1.35937,0 -2.20312,-0.609375 -0.82813,-0.609375 -0.79688,-1.84375 z m 1.0625,-4.5625 q 0,1.5 0.59375,2.1875 0.59375,0.6875 1.48438,0.6875 0.89062,0 1.48437,-0.6875 0.60938,-0.6875 0.60938,-2.140625 0,-1.390625 -0.625,-2.09375 -0.60938,-0.71875 -1.48438,-0.71875 -0.85937,0 -1.46875,0.703125 -0.59375,0.6875 -0.59375,2.0625 z"
       fill="#000000" />
    <path
       id="path1584"
       fill-rule="nonzero"
       d="m 367.4472,42.011803 1.39062,0.34375 q -0.4375,1.703125 -1.57812,2.609375 -1.125,0.890625 -2.76563,0.890625 -1.6875,0 -2.75,-0.6875 -1.0625,-0.6875 -1.625,-2 -0.54687,-1.3125 -0.54687,-2.8125 0,-1.640625 0.625,-2.859375 0.625,-1.21875 1.78125,-1.84375 1.15625,-0.640625 2.54687,-0.640625 1.5625,0 2.64063,0.8125 1.07812,0.796875 1.5,2.25 l -1.375,0.3125 q -0.35938,-1.140625 -1.0625,-1.65625 -0.6875,-0.53125 -1.73438,-0.53125 -1.21875,0 -2.03125,0.578125 -0.8125,0.578125 -1.14062,1.5625 -0.32813,0.96875 -0.32813,2.015625 0,1.328125 0.39063,2.328125 0.39062,1 1.21875,1.5 0.82812,0.484375 1.78125,0.484375 1.17187,0 1.96875,-0.671875 0.8125,-0.671875 1.09375,-1.984375 z m 2.45929,-0.125 q 0,-2.109375 1.17187,-3.125 0.98438,-0.84375 2.39063,-0.84375 1.57812,0 2.5625,1.03125 1,1.015625 1,2.828125 0,1.46875 -0.4375,2.3125 -0.4375,0.828125 -1.28125,1.296875 -0.84375,0.46875 -1.84375,0.46875 -1.59375,0 -2.57813,-1.015625 -0.98437,-1.03125 -0.98437,-2.953125 z m 1.32812,0 q 0,1.453125 0.625,2.1875 0.64063,0.71875 1.60938,0.71875 0.96875,0 1.59375,-0.71875 0.64062,-0.734375 0.64062,-2.234375 0,-1.40625 -0.64062,-2.125 -0.64063,-0.734375 -1.59375,-0.734375 -0.96875,0 -1.60938,0.71875 -0.625,0.71875 -0.625,2.1875 z m 7.30735,3.796875 v -7.59375 h 1.15625 v 1.0625 q 0.34375,-0.5625 0.9375,-0.890625 0.60937,-0.34375 1.35937,-0.34375 0.84375,0 1.375,0.34375 0.54688,0.34375 0.76563,0.984375 0.90625,-1.328125 2.35937,-1.328125 1.125,0 1.73438,0.625 0.60937,0.625 0.60937,1.921875 v 5.21875 h -1.28125 v -4.78125 q 0,-0.78125 -0.125,-1.109375 -0.125,-0.34375 -0.45312,-0.546875 -0.32813,-0.21875 -0.78125,-0.21875 -0.79688,0 -1.32813,0.53125 -0.53125,0.53125 -0.53125,1.703125 v 4.421875 h -1.28125 v -4.9375 q 0,-0.859375 -0.3125,-1.28125 -0.3125,-0.4375 -1.03125,-0.4375 -0.54687,0 -1.01562,0.296875 -0.45313,0.28125 -0.67188,0.828125 -0.20312,0.546875 -0.20312,1.59375 v 3.9375 z m 12.20877,2.90625 v -10.5 h 1.17187 v 0.984375 q 0.42188,-0.578125 0.9375,-0.859375 0.51563,-0.296875 1.26563,-0.296875 0.96875,0 1.71875,0.5 0.75,0.5 1.125,1.421875 0.375,0.90625 0.375,1.984375 0,1.171875 -0.42188,2.109375 -0.40625,0.921875 -1.21875,1.421875 -0.79687,0.5 -1.67187,0.5 -0.64063,0 -1.15625,-0.265625 -0.51563,-0.28125 -0.84375,-0.6875 v 3.6875 z m 1.15625,-6.65625 q 0,1.453125 0.59375,2.15625 0.60937,0.703125 1.45312,0.703125 0.85938,0 1.46875,-0.71875 0.60938,-0.734375 0.60938,-2.25 0,-1.453125 -0.60938,-2.171875 -0.59375,-0.734375 -1.42187,-0.734375 -0.8125,0 -1.45313,0.78125 -0.64062,0.765625 -0.64062,2.234375 z m 11.97925,3.75 v -1.109375 q -0.89063,1.28125 -2.42188,1.28125 -0.67187,0 -1.25,-0.25 -0.57812,-0.265625 -0.875,-0.65625 -0.28125,-0.390625 -0.39062,-0.953125 -0.0781,-0.375 -0.0781,-1.203125 v -4.703125 h 1.28125 v 4.203125 q 0,1.015625 0.0781,1.359375 0.125,0.515625 0.51562,0.8125 0.40625,0.28125 0.98438,0.28125 0.57812,0 1.07812,-0.296875 0.51563,-0.296875 0.71875,-0.8125 0.21875,-0.515625 0.21875,-1.484375 v -4.0625 h 1.28125 v 7.59375 z m 5.97921,-1.15625 0.1875,1.140625 q -0.54687,0.109375 -0.98437,0.109375 -0.6875,0 -1.07813,-0.21875 -0.39062,-0.21875 -0.54687,-0.578125 -0.15625,-0.359375 -0.15625,-1.515625 v -4.375 h -0.95313 v -1 h 0.95313 v -1.890625 l 1.28125,-0.765625 v 2.65625 h 1.29687 v 1 h -1.29687 v 4.4375 q 0,0.546875 0.0625,0.71875 0.0781,0.15625 0.21875,0.25 0.15625,0.07813 0.45312,0.07813 0.20313,0 0.5625,-0.04687 z m 6.46262,-1.296875 1.32812,0.171875 q -0.3125,1.171875 -1.17187,1.8125 -0.84375,0.640625 -2.17188,0.640625 -1.67187,0 -2.65625,-1.015625 -0.96875,-1.03125 -0.96875,-2.890625 0,-1.921875 0.98438,-2.96875 1,-1.0625 2.57812,-1.0625 1.51563,0 2.48438,1.03125 0.96875,1.03125 0.96875,2.921875 0,0.109375 -0.0156,0.34375 h -5.65625 q 0.0625,1.25 0.70313,1.921875 0.64062,0.65625 1.59375,0.65625 0.70312,0 1.20312,-0.359375 0.5,-0.375 0.79688,-1.203125 z m -4.23438,-2.078125 h 4.25 q -0.0937,-0.953125 -0.48437,-1.4375 -0.625,-0.75 -1.60938,-0.75 -0.875,0 -1.48437,0.59375 -0.60938,0.59375 -0.67188,1.59375 z"
       fill="#000000" />
  </g>
</svg>
