<svg version="1.1" viewBox="0.0 0.0 194.0708661417323 134.01837270341207" fill="none" stroke="none" stroke-linecap="square" stroke-miterlimit="10" xmlns:xlink="http://www.w3.org/1999/xlink" xmlns="http://www.w3.org/2000/svg"><clipPath id="p.0"><path d="m0 0l194.07086 0l0 134.01837l-194.07086 0l0 -134.01837z" clip-rule="nonzero"/></clipPath><g clip-path="url(#p.0)"><path fill="#000000" fill-opacity="0.0" d="m0 0l194.07086 0l0 134.01837l-194.07086 0z" fill-rule="evenodd"/><path fill="#ffffff" d="m0.92759186 13.847784l0 0c0 -7.072682 5.7335415 -12.806224 12.806223 -12.806224l166.54504 0c3.3964233 0 6.6537323 1.3492231 9.055359 3.7508562c2.4016418 2.4016328 3.7508545 5.658946 3.7508545 9.055367l0 106.35606c0 7.0726776 -5.733536 12.806229 -12.806213 12.806229l-166.54504 0l0 0c-7.072682 0 -12.806223 -5.733551 -12.806223 -12.806229z" fill-rule="evenodd"/><path stroke="#3d85c6" stroke-width="1.0" stroke-linejoin="round" stroke-linecap="butt" d="m0.92759186 13.847784l0 0c0 -7.072682 5.7335415 -12.806224 12.806223 -12.806224l166.54504 0c3.3964233 0 6.6537323 1.3492231 9.055359 3.7508562c2.4016418 2.4016328 3.7508545 5.658946 3.7508545 9.055367l0 106.35606c0 7.0726776 -5.733536 12.806229 -12.806213 12.806229l-166.54504 0l0 0c-7.072682 0 -12.806223 -5.733551 -12.806223 -12.806229z" fill-rule="evenodd"/><path fill="#6aa84f" d="m20.288454 47.009045l5.05389 -20.215559l11.927141 0l5.05389 20.215559z" fill-rule="evenodd"/><path stroke="#000000" stroke-width="1.0" stroke-linejoin="round" stroke-linecap="butt" d="m20.288454 47.009045l5.05389 -20.215559l11.927141 0l5.05389 20.215559z" fill-rule="evenodd"/><path fill="#6aa84f" d="m20.078354 18.403093l0 0c0 -5.990714 4.8572483 -10.847146 10.8489685 -10.847146l0 0c2.877327 0 5.6368027 1.1428213 7.671383 3.1770554c2.0345764 2.034234 3.1775894 4.793248 3.1775894 7.6700907l0 0c0 5.990711 -4.85725 10.847143 -10.848972 10.847143l0 0c-5.99172 0 -10.8489685 -4.856432 -10.8489685 -10.847143z" fill-rule="evenodd"/><path stroke="#000000" stroke-width="1.0" stroke-linejoin="round" stroke-linecap="butt" d="m20.078354 18.403093l0 0c0 -5.990714 4.8572483 -10.847146 10.8489685 -10.847146l0 0c2.877327 0 5.6368027 1.1428213 7.671383 3.1770554c2.0345764 2.034234 3.1775894 4.793248 3.1775894 7.6700907l0 0c0 5.990711 -4.85725 10.847143 -10.848972 10.847143l0 0c-5.99172 0 -10.8489685 -4.856432 -10.8489685 -10.847143z" fill-rule="evenodd"/><path fill="#cc0000" d="m20.29705 111.5523l5.0530396 -20.212158l11.928844 0l5.0530396 20.212158z" fill-rule="evenodd"/><path stroke="#000000" stroke-width="1.0" stroke-linejoin="round" stroke-linecap="butt" d="m20.29705 111.5523l5.0530396 -20.212158l11.928844 0l5.0530396 20.212158z" fill-rule="evenodd"/><path fill="#cc0000" d="m20.086948 82.951164l0 0c0 -5.989708 4.85725 -10.845322 10.84897 -10.845322l0 0c2.877325 0 5.6368046 1.1426315 7.671381 3.1765213c2.0345764 2.0338898 3.1775894 4.7924423 3.1775894 7.6688004l0 0c0 5.9897003 -4.85725 10.845322 -10.84897 10.845322l0 0c-5.99172 0 -10.84897 -4.8556213 -10.84897 -10.845322z" fill-rule="evenodd"/><path stroke="#000000" stroke-width="1.0" stroke-linejoin="round" stroke-linecap="butt" d="m20.086948 82.951164l0 0c0 -5.989708 4.85725 -10.845322 10.84897 -10.845322l0 0c2.877325 0 5.6368046 1.1426315 7.671381 3.1765213c2.0345764 2.0338898 3.1775894 4.7924423 3.1775894 7.6688004l0 0c0 5.9897003 -4.85725 10.845322 -10.84897 10.845322l0 0c-5.99172 0 -10.84897 -4.8556213 -10.84897 -10.845322z" fill-rule="evenodd"/><path fill="#d9ead3" d="m53.503937 27.519667l0 0c0 -2.887537 2.3408089 -5.228348 5.228348 -5.228348l0 0c1.3866425 0 2.7164917 0.5508423 3.6969986 1.5313473c0.9805031 0.980505 1.5313454 2.3103561 1.5313454 3.6970005l0 0c0 2.887535 -2.3408089 5.228346 -5.228344 5.228346l0 0c-2.887539 0 -5.228348 -2.3408108 -5.228348 -5.228346z" fill-rule="evenodd"/><path stroke="#000000" stroke-width="1.0" stroke-linejoin="round" stroke-linecap="butt" d="m53.503937 27.519667l0 0c0 -2.887537 2.3408089 -5.228348 5.228348 -5.228348l0 0c1.3866425 0 2.7164917 0.5508423 3.6969986 1.5313473c0.9805031 0.980505 1.5313454 2.3103561 1.5313454 3.6970005l0 0c0 2.887535 -2.3408089 5.228346 -5.228344 5.228346l0 0c-2.887539 0 -5.228348 -2.3408108 -5.228348 -5.228346z" fill-rule="evenodd"/><path fill="#d9ead3" d="m113.50394 27.519667l0 0c0 -2.887537 2.3408127 -5.228348 5.228348 -5.228348l0 0c1.3866425 0 2.7164917 0.5508423 3.6969986 1.5313473c0.9805069 0.980505 1.5313492 2.3103561 1.5313492 3.6970005l0 0c0 2.887535 -2.3408127 5.228346 -5.228348 5.228346l0 0c-2.887535 0 -5.228348 -2.3408108 -5.228348 -5.228346z" fill-rule="evenodd"/><path stroke="#000000" stroke-width="1.0" stroke-linejoin="round" stroke-linecap="butt" d="m113.50394 27.519667l0 0c0 -2.887537 2.3408127 -5.228348 5.228348 -5.228348l0 0c1.3866425 0 2.7164917 0.5508423 3.6969986 1.5313473c0.9805069 0.980505 1.5313492 2.3103561 1.5313492 3.6970005l0 0c0 2.887535 -2.3408127 5.228346 -5.228348 5.228346l0 0c-2.887535 0 -5.228348 -2.3408108 -5.228348 -5.228346z" fill-rule="evenodd"/><path fill="#d9ead3" d="m173.50394 27.519667l0 0c0 -2.887537 2.340805 -5.228348 5.228348 -5.228348l0 0c1.3866425 0 2.7164917 0.5508423 3.696991 1.5313473c0.9805145 0.980505 1.5313568 2.3103561 1.5313568 3.6970005l0 0c0 2.887535 -2.3408203 5.228346 -5.228348 5.228346l0 0c-2.8875427 0 -5.228348 -2.3408108 -5.228348 -5.228346z" fill-rule="evenodd"/><path stroke="#000000" stroke-width="1.0" stroke-linejoin="round" stroke-linecap="butt" d="m173.50394 27.519667l0 0c0 -2.887537 2.340805 -5.228348 5.228348 -5.228348l0 0c1.3866425 0 2.7164917 0.5508423 3.696991 1.5313473c0.9805145 0.980505 1.5313568 2.3103561 1.5313568 3.6970005l0 0c0 2.887535 -2.3408203 5.228346 -5.228348 5.228346l0 0c-2.8875427 0 -5.228348 -2.3408108 -5.228348 -5.228346z" fill-rule="evenodd"/><path fill="#f4cccc" d="m69.50394 91.51967l0 0c0 -2.887535 2.3408127 -5.228348 5.228348 -5.228348l0 0c1.3866425 0 2.7164917 0.5508423 3.6969986 1.5313492c0.9805069 0.98049927 1.5313492 2.3103561 1.5313492 3.6969986l0 0c0 2.887535 -2.3408127 5.228348 -5.228348 5.228348l0 0c-2.887535 0 -5.228348 -2.3408127 -5.228348 -5.228348z" fill-rule="evenodd"/><path stroke="#000000" stroke-width="1.0" stroke-linejoin="round" stroke-linecap="butt" d="m69.50394 91.51967l0 0c0 -2.887535 2.3408127 -5.228348 5.228348 -5.228348l0 0c1.3866425 0 2.7164917 0.5508423 3.6969986 1.5313492c0.9805069 0.98049927 1.5313492 2.3103561 1.5313492 3.6969986l0 0c0 2.887535 -2.3408127 5.228348 -5.228348 5.228348l0 0c-2.887535 0 -5.228348 -2.3408127 -5.228348 -5.228348z" fill-rule="evenodd"/><path fill="#f4cccc" d="m85.50394 91.51967l0 0c0 -2.887535 2.3408127 -5.228348 5.228348 -5.228348l0 0c1.3866425 0 2.7164917 0.5508423 3.6969986 1.5313492c0.9805069 0.98049927 1.5313492 2.3103561 1.5313492 3.6969986l0 0c0 2.887535 -2.3408127 5.228348 -5.228348 5.228348l0 0c-2.887535 0 -5.228348 -2.3408127 -5.228348 -5.228348z" fill-rule="evenodd"/><path stroke="#000000" stroke-width="1.0" stroke-linejoin="round" stroke-linecap="butt" d="m85.50394 91.51967l0 0c0 -2.887535 2.3408127 -5.228348 5.228348 -5.228348l0 0c1.3866425 0 2.7164917 0.5508423 3.6969986 1.5313492c0.9805069 0.98049927 1.5313492 2.3103561 1.5313492 3.6969986l0 0c0 2.887535 -2.3408127 5.228348 -5.228348 5.228348l0 0c-2.887535 0 -5.228348 -2.3408127 -5.228348 -5.228348z" fill-rule="evenodd"/><path fill="#f4cccc" d="m101.50394 91.51967l0 0c0 -2.887535 2.3408127 -5.228348 5.228348 -5.228348l0 0c1.3866425 0 2.7164917 0.5508423 3.6969986 1.5313492c0.9805069 0.98049927 1.5313492 2.3103561 1.5313492 3.6969986l0 0c0 2.887535 -2.3408127 5.228348 -5.228348 5.228348l0 0c-2.887535 0 -5.228348 -2.3408127 -5.228348 -5.228348z" fill-rule="evenodd"/><path stroke="#000000" stroke-width="1.0" stroke-linejoin="round" stroke-linecap="butt" d="m101.50394 91.51967l0 0c0 -2.887535 2.3408127 -5.228348 5.228348 -5.228348l0 0c1.3866425 0 2.7164917 0.5508423 3.6969986 1.5313492c0.9805069 0.98049927 1.5313492 2.3103561 1.5313492 3.6969986l0 0c0 2.887535 -2.3408127 5.228348 -5.228348 5.228348l0 0c-2.887535 0 -5.228348 -2.3408127 -5.228348 -5.228348z" fill-rule="evenodd"/><path fill="#f4cccc" d="m129.50394 91.51967l0 0c0 -2.887535 2.340805 -5.228348 5.228348 -5.228348l0 0c1.3866425 0 2.7164917 0.5508423 3.696991 1.5313492c0.9805145 0.98049927 1.5313568 2.3103561 1.5313568 3.6969986l0 0c0 2.887535 -2.3408203 5.228348 -5.228348 5.228348l0 0c-2.8875427 0 -5.228348 -2.3408127 -5.228348 -5.228348z" fill-rule="evenodd"/><path stroke="#000000" stroke-width="1.0" stroke-linejoin="round" stroke-linecap="butt" d="m129.50394 91.51967l0 0c0 -2.887535 2.340805 -5.228348 5.228348 -5.228348l0 0c1.3866425 0 2.7164917 0.5508423 3.696991 1.5313492c0.9805145 0.98049927 1.5313568 2.3103561 1.5313568 3.6969986l0 0c0 2.887535 -2.3408203 5.228348 -5.228348 5.228348l0 0c-2.8875427 0 -5.228348 -2.3408127 -5.228348 -5.228348z" fill-rule="evenodd"/><path fill="#f4cccc" d="m145.50394 91.51967l0 0c0 -2.887535 2.340805 -5.228348 5.228348 -5.228348l0 0c1.3866425 0 2.7164917 0.5508423 3.696991 1.5313492c0.9805145 0.98049927 1.5313568 2.3103561 1.5313568 3.6969986l0 0c0 2.887535 -2.3408203 5.228348 -5.228348 5.228348l0 0c-2.8875427 0 -5.228348 -2.3408127 -5.228348 -5.228348z" fill-rule="evenodd"/><path stroke="#000000" stroke-width="1.0" stroke-linejoin="round" stroke-linecap="butt" d="m145.50394 91.51967l0 0c0 -2.887535 2.340805 -5.228348 5.228348 -5.228348l0 0c1.3866425 0 2.7164917 0.5508423 3.696991 1.5313492c0.9805145 0.98049927 1.5313568 2.3103561 1.5313568 3.6969986l0 0c0 2.887535 -2.3408203 5.228348 -5.228348 5.228348l0 0c-2.8875427 0 -5.228348 -2.3408127 -5.228348 -5.228348z" fill-rule="evenodd"/><path fill="#f4cccc" d="m161.50394 91.51967l0 0c0 -2.887535 2.340805 -5.228348 5.228348 -5.228348l0 0c1.3866425 0 2.7164917 0.5508423 3.696991 1.5313492c0.9805145 0.98049927 1.5313568 2.3103561 1.5313568 3.6969986l0 0c0 2.887535 -2.3408203 5.228348 -5.228348 5.228348l0 0c-2.8875427 0 -5.228348 -2.3408127 -5.228348 -5.228348z" fill-rule="evenodd"/><path stroke="#000000" stroke-width="1.0" stroke-linejoin="round" stroke-linecap="butt" d="m161.50394 91.51967l0 0c0 -2.887535 2.340805 -5.228348 5.228348 -5.228348l0 0c1.3866425 0 2.7164917 0.5508423 3.696991 1.5313492c0.9805145 0.98049927 1.5313568 2.3103561 1.5313568 3.6969986l0 0c0 2.887535 -2.3408203 5.228348 -5.228348 5.228348l0 0c-2.8875427 0 -5.228348 -2.3408127 -5.228348 -5.228348z" fill-rule="evenodd"/><path fill="#000000" fill-opacity="0.0" d="m-4.1233344 40.67062l71.968506 0l0 33.92126l-71.968506 0z" fill-rule="evenodd"/><path fill="#38761d" d="m26.251541 54.97187l0 1.3125l-1.125 0l0 2.5q0 0.765625 0.03125 0.890625q0.03125 0.125 0.140625 0.21875q0.125 0.078125 0.28125 0.078125q0.234375 0 0.65625 -0.171875l0.140625 1.28125q-0.5625 0.25 -1.296875 0.25q-0.4375 0 -0.796875 -0.140625q-0.359375 -0.15625 -0.53125 -0.390625q-0.15625 -0.25 -0.234375 -0.640625q-0.046875 -0.296875 -0.046875 -1.171875l0 -2.703125l-0.75 0l0 -1.3125l0.75 0l0 -1.234375l1.65625 -0.96875l0 2.203125l1.125 0zm0.76171875 3.015625q0 -0.8125 0.40625 -1.578125q0.40625 -0.78125 1.1406269 -1.171875q0.734375 -0.40625 1.65625 -0.40625q1.40625 0 2.312502 0.921875q0.90625 0.90625 0.90625 2.3125q0 1.40625 -0.921875 2.34375q-0.9062519 0.921875 -2.281252 0.921875q-0.859375 0 -1.640625 -0.390625q-0.7656269 -0.390625 -1.1718769 -1.125q-0.40625 -0.75 -0.40625 -1.828125zm1.6875019 0.09375q0 0.921875 0.4375 1.421875q0.4375 0.484375 1.078125 0.484375q0.65625 0 1.078125 -0.484375q0.4375 -0.5 0.4375 -1.4375q0 -0.90625 -0.4375 -1.390625q-0.421875 -0.5 -1.078125 -0.5q-0.640625 0 -1.078125 0.5q-0.4375 0.484375 -0.4375 1.40625zm5.970705 -3.109375l1.53125 0l0 0.90625q0.3125 -0.46875 0.8125 -0.75q0.515625 -0.296875 1.140625 -0.296875q1.078125 0 1.828125 0.84375q0.765625 0.84375 0.765625 2.375q0 1.546875 -0.765625 2.421875q-0.765625 0.859375 -1.84375 0.859375q-0.515625 0 -0.9375 -0.203125q-0.421875 -0.203125 -0.875 -0.703125l0 3.140625l-1.65625 0l0 -8.59375zm1.625 3.0q0 1.046875 0.421875 1.546875q0.421875 0.5 1.015625 0.5q0.578125 0 0.953125 -0.453125q0.375 -0.46875 0.375 -1.515625q0 -0.96875 -0.390625 -1.4375q-0.390625 -0.484375 -0.96875 -0.484375q-0.609375 0 -1.015625 0.46875q-0.390625 0.46875 -0.390625 1.375z" fill-rule="nonzero"/><path fill="#000000" fill-opacity="0.0" d="m-8.083909 105.145676l78.45669 0l0 33.92125l-78.45669 0z" fill-rule="evenodd"/><path fill="#990000" d="m16.332912 125.66567l0 -8.59375l1.65625 0l0 8.59375l-1.65625 0zm2.9589844 -3.203125q0 -0.8125 0.40625 -1.578125q0.40625 -0.78125 1.140625 -1.171875q0.734375 -0.40625 1.65625 -0.40625q1.40625 0 2.312502 0.921875q0.90625 0.90625 0.90625 2.3125q0 1.40625 -0.921875 2.34375q-0.9062519 0.921875 -2.281252 0.921875q-0.859375 0 -1.640625 -0.390625q-0.765625 -0.390625 -1.171875 -1.125q-0.40625 -0.75 -0.40625 -1.828125zm1.6875 0.09375q0 0.921875 0.4375 1.421875q0.4375 0.484375 1.078125 0.484375q0.65625 0 1.078125 -0.484375q0.4375019 -0.5 0.4375019 -1.4375q0 -0.90625 -0.4375019 -1.390625q-0.421875 -0.5 -1.078125 -0.5q-0.640625 0 -1.078125 0.5q-0.4375 0.484375 -0.4375 1.40625zm7.17383 3.109375l-1.96875 -6.21875l1.609375 0l1.15625 4.078125l1.078125 -4.078125l1.59375 0l1.0312519 4.078125l1.1875 -4.078125l1.625 0l-2.0 6.21875l-1.5781269 0l-1.078125 -4.0l-1.046875 4.0l-1.609375 0zm11.787111 -1.984375l1.640625 0.28125q-0.3125 0.90625 -1.0 1.375q-0.6875 0.46875 -1.703125 0.46875q-1.625 0 -2.40625 -1.0625q-0.625 -0.84375 -0.625 -2.140625q0 -1.546875 0.8125 -2.421875q0.8125 -0.875 2.046875 -0.875q1.390625 0 2.1875 0.921875q0.8125 0.90625 0.765625 2.796875l-4.125 0q0.03125 0.734375 0.40625 1.140625q0.375 0.40625 0.953125 0.40625q0.375 0 0.640625 -0.203125q0.265625 -0.21875 0.40625 -0.6875zm0.09375 -1.65625q-0.015625 -0.71875 -0.375 -1.09375q-0.34375 -0.375 -0.859375 -0.375q-0.53125 0 -0.890625 0.390625q-0.34375 0.40625 -0.34375 1.078125l2.46875 0zm4.548828 3.640625l-1.640625 0l0 -6.21875l1.53125 0l0 0.875q0.390625 -0.625 0.703125 -0.8125q0.3125 -0.203125 0.703125 -0.203125q0.5625 0 1.09375 0.3125l-0.515625 1.421875q-0.421875 -0.265625 -0.765625 -0.265625q-0.359375 0 -0.59375 0.203125q-0.234375 0.1875 -0.375 0.6875q-0.140625 0.484375 -0.140625 2.078125l0 1.921875z" fill-rule="nonzero"/><path fill="#000000" fill-opacity="0.0" d="m59.879314 11.522309l131.33858 0l0 33.92126l-131.33858 0z" fill-rule="evenodd"/><path fill="#38761d" d="m69.738686 32.04231l0 -1.6406231l1.65625 0l0 1.6406231l-1.65625 0zm6.6679688 0l0 -1.6406231l1.65625 0l0 1.6406231l-1.65625 0zm6.6679688 0l0 -1.6406231l1.65625 0l0 1.6406231l-1.65625 0zm6.6679688 0l0 -1.6406231l1.65625 0l0 1.6406231l-1.65625 0zm6.6679688 0l0 -1.6406231l1.65625 0l0 1.6406231l-1.65625 0zm6.6679688 0l0 -1.6406231l1.65625 0l0 1.6406231l-1.65625 0zm26.671883 0l0 -1.6406231l1.65625 0l0 1.6406231l-1.65625 0zm6.6679688 0l0 -1.6406231l1.65625 0l0 1.6406231l-1.65625 0zm6.6679688 0l0 -1.6406231l1.65625 0l0 1.6406231l-1.65625 0zm6.6679688 0l0 -1.6406231l1.65625 0l0 1.6406231l-1.65625 0zm6.6679688 0l0 -1.6406231l1.65625 0l0 1.6406231l-1.65625 0zm6.6679688 0l0 -1.6406231l1.65625 0l0 1.6406231l-1.65625 0z" fill-rule="nonzero"/><path fill="#000000" fill-opacity="0.0" d="m43.879265 75.52231l153.03937 0l0 33.921265l-153.03937 0z" fill-rule="evenodd"/><path fill="#990000" d="m53.73864 96.04231l0 -1.640625l1.65625 0l0 1.640625l-1.65625 0zm6.6679688 0l0 -1.640625l1.65625 0l0 1.640625l-1.65625 0zm56.677734 0l0 -1.640625l1.65625 0l0 1.640625l-1.65625 0zm6.6679688 0l0 -1.640625l1.65625 0l0 1.640625l-1.65625 0zm53.343758 0l0 -1.640625l1.65625 0l0 1.640625l-1.65625 0zm6.6679688 0l0 -1.640625l1.65625 0l0 1.640625l-1.65625 0z" fill-rule="nonzero"/></g></svg>
