<svg version="1.1" viewBox="0.0 0.0 726.2992125984252 161.9711286089239" fill="none" stroke="none" stroke-linecap="square" stroke-miterlimit="10" xmlns:xlink="http://www.w3.org/1999/xlink" xmlns="http://www.w3.org/2000/svg"><clipPath id="p.0"><path d="m0 0l726.2992 0l0 161.97113l-726.2992 0l0 -161.97113z" clip-rule="nonzero"/></clipPath><g clip-path="url(#p.0)"><path fill="#ffffff" d="m0 0l726.2992 0l0 161.97113l-726.2992 0z" fill-rule="evenodd"/><path fill="#d9d9d9" d="m463.6553 76.29165l221.32285 0l0 20.724411l-221.32285 0z" fill-rule="evenodd"/><path fill="#d9d9d9" d="m238.56435 41.316395l221.32283 0l0 20.724411l-221.32283 0z" fill-rule="evenodd"/><path fill="#d9d9d9" d="m13.142944 8.697904l221.32283 0l0 20.724411l-221.32283 0z" fill-rule="evenodd"/><path fill="#4a86e8" d="m15.862902 13.771447l0 0c0 -1.4495955 1.1751289 -2.6247244 2.6247234 -2.6247244l18.750553 0c0.6961174 0 1.3637276 0.27653217 1.8559608 0.76876354c0.49222946 0.49223137 0.7687607 1.1598406 0.7687607 1.8559608l0 10.498582c0 1.4495964 -1.1751289 2.6247253 -2.6247215 2.6247253l-18.750553 0c-1.4495945 0 -2.6247234 -1.1751289 -2.6247234 -2.6247253z" fill-rule="evenodd"/><path fill="#4a86e8" d="m43.08196 13.771447l0 0c0 -1.4495955 1.1751289 -2.6247244 2.6247215 -2.6247244l18.75055 0c0.6961212 0 1.3637314 0.27653217 1.8559647 0.76876354c0.49223328 0.49223137 0.7687607 1.1598406 0.7687607 1.8559608l0 10.498582c0 1.4495964 -1.1751251 2.6247253 -2.6247253 2.6247253l-18.75055 0c-1.4495926 0 -2.6247215 -1.1751289 -2.6247215 -2.6247253z" fill-rule="evenodd"/><path fill="#4a86e8" d="m70.30101 13.771447l0 0c0 -1.4495955 1.1751328 -2.6247244 2.6247253 -2.6247244l18.75055 0c0.6961212 0 1.3637314 0.27653217 1.8559647 0.76876354c0.49223328 0.49223137 0.7687607 1.1598406 0.7687607 1.8559608l0 10.498582c0 1.4495964 -1.1751251 2.6247253 -2.6247253 2.6247253l-18.75055 0c-1.4495926 0 -2.6247253 -1.1751289 -2.6247253 -2.6247253z" fill-rule="evenodd"/><path fill="#4a86e8" d="m97.520065 13.771447l0 0c0 -1.4495955 1.1751328 -2.6247244 2.6247253 -2.6247244l18.75055 0c0.6961212 0 1.3637314 0.27653217 1.8559647 0.76876354c0.49223328 0.49223137 0.7687607 1.1598406 0.7687607 1.8559608l0 10.498582c0 1.4495964 -1.1751251 2.6247253 -2.6247253 2.6247253l-18.75055 0c-1.4495926 0 -2.6247253 -1.1751289 -2.6247253 -2.6247253z" fill-rule="evenodd"/><path fill="#6aa84f" d="m242.60634 46.338787l0 0c0 -1.4495964 1.1751251 -2.6247253 2.6247253 -2.6247253l18.750534 0c0.6961365 0 1.363739 0.27653503 1.8559875 0.7687645c0.49221802 0.49222946 0.7687378 1.1598396 0.7687378 1.8559608l0 10.498581c0 1.4495964 -1.1751099 2.6247253 -2.6247253 2.6247253l-18.750534 0c-1.4496002 0 -2.6247253 -1.1751289 -2.6247253 -2.6247253z" fill-rule="evenodd"/><path fill="#6aa84f" d="m269.82538 46.338787l0 0c0 -1.4495964 1.1751404 -2.6247253 2.6247253 -2.6247253l18.75055 0c0.6961365 0 1.363739 0.27653503 1.8559875 0.7687645c0.49221802 0.49222946 0.7687378 1.1598396 0.7687378 1.8559608l0 10.498581c0 1.4495964 -1.1751099 2.6247253 -2.6247253 2.6247253l-18.75055 0c-1.449585 0 -2.6247253 -1.1751289 -2.6247253 -2.6247253z" fill-rule="evenodd"/><path fill="#6aa84f" d="m297.04443 46.338787l0 0c0 -1.4495964 1.1751404 -2.6247253 2.6247253 -2.6247253l18.75058 0c0.69610596 0 1.3637085 0.27653503 1.855957 0.7687645c0.49221802 0.49222946 0.7687378 1.1598396 0.7687378 1.8559608l0 10.498581c0 1.4495964 -1.1751099 2.6247253 -2.6246948 2.6247253l-18.75058 0c-1.449585 0 -2.6247253 -1.1751289 -2.6247253 -2.6247253z" fill-rule="evenodd"/><path fill="#6aa84f" d="m324.2635 46.338787l0 0c0 -1.4495964 1.1751404 -2.6247253 2.6247253 -2.6247253l18.75058 0c0.69610596 0 1.3637085 0.27653503 1.855957 0.7687645c0.49221802 0.49222946 0.7687378 1.1598396 0.7687378 1.8559608l0 10.498581c0 1.4495964 -1.1751099 2.6247253 -2.6246948 2.6247253l-18.75058 0c-1.449585 0 -2.6247253 -1.1751289 -2.6247253 -2.6247253z" fill-rule="evenodd"/><path fill="#4a86e8" d="m124.736916 13.771447l0 0c0 -1.4495955 1.1751328 -2.6247244 2.6247253 -2.6247244l18.750557 0c0.6961212 0 1.3637238 0.27653217 1.855957 0.76876354c0.49223328 0.49223137 0.7687683 1.1598406 0.7687683 1.8559608l0 10.498582c0 1.4495964 -1.1751404 2.6247253 -2.6247253 2.6247253l-18.750557 0c-1.4495926 0 -2.6247253 -1.1751289 -2.6247253 -2.6247253z" fill-rule="evenodd"/><path fill="#4a86e8" d="m151.95598 13.771447l0 0c0 -1.4495955 1.1751251 -2.6247244 2.6247253 -2.6247244l18.75055 0c0.6961212 0 1.3637238 0.27653217 1.855957 0.76876354c0.49223328 0.49223137 0.7687683 1.1598406 0.7687683 1.8559608l0 10.498582c0 1.4495964 -1.1751404 2.6247253 -2.6247253 2.6247253l-18.75055 0c-1.4496002 0 -2.6247253 -1.1751289 -2.6247253 -2.6247253z" fill-rule="evenodd"/><path fill="#4a86e8" d="m179.17503 13.771447l0 0c0 -1.4495955 1.1751251 -2.6247244 2.6247253 -2.6247244l18.75055 0c0.6961212 0 1.3637238 0.27653217 1.855957 0.76876354c0.49223328 0.49223137 0.7687683 1.1598406 0.7687683 1.8559608l0 10.498582c0 1.4495964 -1.1751404 2.6247253 -2.6247253 2.6247253l-18.75055 0c-1.4496002 0 -2.6247253 -1.1751289 -2.6247253 -2.6247253z" fill-rule="evenodd"/><path fill="#4a86e8" d="m206.39409 13.771447l0 0c0 -1.4495955 1.1751251 -2.6247244 2.6247253 -2.6247244l18.75055 0c0.6961212 0 1.3637238 0.27653217 1.855957 0.76876354c0.49223328 0.49223137 0.7687683 1.1598406 0.7687683 1.8559608l0 10.498582c0 1.4495964 -1.1751404 2.6247253 -2.6247253 2.6247253l-18.75055 0c-1.4496002 0 -2.6247253 -1.1751289 -2.6247253 -2.6247253z" fill-rule="evenodd"/><path fill="#6aa84f" d="m351.48035 46.338787l0 0c0 -1.4495964 1.1751404 -2.6247253 2.6247253 -2.6247253l18.75055 0c0.6961365 0 1.363739 0.27653503 1.855957 0.7687645c0.49224854 0.49222946 0.7687683 1.1598396 0.7687683 1.8559608l0 10.498581c0 1.4495964 -1.1751099 2.6247253 -2.6247253 2.6247253l-18.75055 0c-1.449585 0 -2.6247253 -1.1751289 -2.6247253 -2.6247253z" fill-rule="evenodd"/><path fill="#6aa84f" d="m378.6994 46.338787l0 0c0 -1.4495964 1.1751404 -2.6247253 2.6247253 -2.6247253l18.75055 0c0.6961365 0 1.363739 0.27653503 1.855957 0.7687645c0.49224854 0.49222946 0.7687683 1.1598396 0.7687683 1.8559608l0 10.498581c0 1.4495964 -1.1751099 2.6247253 -2.6247253 2.6247253l-18.75055 0c-1.449585 0 -2.6247253 -1.1751289 -2.6247253 -2.6247253z" fill-rule="evenodd"/><path fill="#6aa84f" d="m405.91846 46.338787l0 0c0 -1.4495964 1.1751404 -2.6247253 2.6247253 -2.6247253l18.75055 0c0.6961365 0 1.363739 0.27653503 1.855957 0.7687645c0.49224854 0.49222946 0.7687683 1.1598396 0.7687683 1.8559608l0 10.498581c0 1.4495964 -1.1751099 2.6247253 -2.6247253 2.6247253l-18.75055 0c-1.449585 0 -2.6247253 -1.1751289 -2.6247253 -2.6247253z" fill-rule="evenodd"/><path fill="#6aa84f" d="m433.1375 46.338787l0 0c0 -1.4495964 1.1751404 -2.6247253 2.6247253 -2.6247253l18.75055 0c0.6961365 0 1.363739 0.27653503 1.855957 0.7687645c0.49224854 0.49222946 0.7687683 1.1598396 0.7687683 1.8559608l0 10.498581c0 1.4495964 -1.1751099 2.6247253 -2.6247253 2.6247253l-18.75055 0c-1.449585 0 -2.6247253 -1.1751289 -2.6247253 -2.6247253z" fill-rule="evenodd"/><path fill="#8e7cc3" d="m467.76236 81.64634l0 0c0 -1.4495926 1.1751404 -2.6247177 2.6247253 -2.6247177l18.75055 0c0.6961365 0 1.363739 0.2765274 1.855957 0.7687607c0.49224854 0.49223328 0.7687683 1.1598434 0.7687683 1.855957l0 10.498589c0 1.4495926 -1.1751099 2.6247253 -2.6247253 2.6247253l-18.75055 0c-1.449585 0 -2.6247253 -1.1751328 -2.6247253 -2.6247253z" fill-rule="evenodd"/><path fill="#8e7cc3" d="m494.9814 81.64634l0 0c0 -1.4495926 1.1751404 -2.6247177 2.6247253 -2.6247177l18.75055 0c0.69610596 0 1.3637085 0.2765274 1.855957 0.7687607c0.49224854 0.49223328 0.7687988 1.1598434 0.7687988 1.855957l0 10.498589c0 1.4495926 -1.1751709 2.6247253 -2.6247559 2.6247253l-18.75055 0c-1.449585 0 -2.6247253 -1.1751328 -2.6247253 -2.6247253z" fill-rule="evenodd"/><path fill="#8e7cc3" d="m522.2005 81.64634l0 0c0 -1.4495926 1.1751099 -2.6247177 2.6246948 -2.6247177l18.75055 0c0.69610596 0 1.3637085 0.2765274 1.855957 0.7687607c0.49224854 0.49223328 0.7687988 1.1598434 0.7687988 1.855957l0 10.498589c0 1.4495926 -1.1751709 2.6247253 -2.6247559 2.6247253l-18.75055 0c-1.449585 0 -2.6246948 -1.1751328 -2.6246948 -2.6247253z" fill-rule="evenodd"/><path fill="#8e7cc3" d="m549.41956 81.64634l0 0c0 -1.4495926 1.1751099 -2.6247177 2.6246948 -2.6247177l18.75055 0c0.69610596 0 1.3637085 0.2765274 1.855957 0.7687607c0.49224854 0.49223328 0.7687988 1.1598434 0.7687988 1.855957l0 10.498589c0 1.4495926 -1.1751709 2.6247253 -2.6247559 2.6247253l-18.75055 0c-1.449585 0 -2.6246948 -1.1751328 -2.6246948 -2.6247253z" fill-rule="evenodd"/><path fill="#8e7cc3" d="m576.63635 81.64634l0 0c0 -1.4495926 1.1751709 -2.6247177 2.6247559 -2.6247177l18.75055 0c0.69610596 0 1.3637085 0.2765274 1.855957 0.7687607c0.49224854 0.49223328 0.7687378 1.1598434 0.7687378 1.855957l0 10.498589c0 1.4495926 -1.1751099 2.6247253 -2.6246948 2.6247253l-18.75055 0c-1.449585 0 -2.6247559 -1.1751328 -2.6247559 -2.6247253z" fill-rule="evenodd"/><path fill="#8e7cc3" d="m603.85547 81.64634l0 0c0 -1.4495926 1.1751099 -2.6247177 2.6246948 -2.6247177l18.75055 0c0.69610596 0 1.3637085 0.2765274 1.855957 0.7687607c0.49224854 0.49223328 0.7687988 1.1598434 0.7687988 1.855957l0 10.498589c0 1.4495926 -1.1751709 2.6247253 -2.6247559 2.6247253l-18.75055 0c-1.449585 0 -2.6246948 -1.1751328 -2.6246948 -2.6247253z" fill-rule="evenodd"/><path fill="#8e7cc3" d="m631.0745 81.64634l0 0c0 -1.4495926 1.1751099 -2.6247177 2.6246948 -2.6247177l18.75055 0c0.69610596 0 1.3637085 0.2765274 1.855957 0.7687607c0.49224854 0.49223328 0.7687988 1.1598434 0.7687988 1.855957l0 10.498589c0 1.4495926 -1.1751709 2.6247253 -2.6247559 2.6247253l-18.75055 0c-1.449585 0 -2.6246948 -1.1751328 -2.6246948 -2.6247253z" fill-rule="evenodd"/><path fill="#8e7cc3" d="m658.2936 81.64634l0 0c0 -1.4495926 1.1751099 -2.6247177 2.6246948 -2.6247177l18.75055 0c0.69610596 0 1.3637085 0.2765274 1.855957 0.7687607c0.49224854 0.49223328 0.7687988 1.1598434 0.7687988 1.855957l0 10.498589c0 1.4495926 -1.1751709 2.6247253 -2.6247559 2.6247253l-18.75055 0c-1.449585 0 -2.6246948 -1.1751328 -2.6246948 -2.6247253z" fill-rule="evenodd"/><path fill="#000000" fill-opacity="0.0" d="m230.39409 19.020739l12.220474 32.566925" fill-rule="evenodd"/><path stroke="#000000" stroke-width="1.0" stroke-linejoin="round" stroke-linecap="butt" d="m230.39409 19.020739l10.112534 26.9494" fill-rule="evenodd"/><path fill="#000000" stroke="#000000" stroke-width="1.0" stroke-linecap="butt" d="m238.96019 46.550426l3.1407776 3.6685257l-0.04789734 -4.8291054z" fill-rule="evenodd"/><path fill="#000000" fill-opacity="0.0" d="m457.1375 51.588078l10.614166 35.307087" fill-rule="evenodd"/><path stroke="#000000" stroke-width="1.0" stroke-linejoin="round" stroke-linecap="butt" d="m457.1375 51.58808l8.88681 29.561111" fill-rule="evenodd"/><path fill="#000000" stroke="#000000" stroke-width="1.0" stroke-linecap="butt" d="m464.4425 81.624725l2.8883057 3.8704376l0.27529907 -4.821495z" fill-rule="evenodd"/><path fill="#000000" fill-opacity="0.0" d="m11.886523 126.27393l697.8268 0" fill-rule="evenodd"/><path stroke="#000000" stroke-width="1.0" stroke-linejoin="round" stroke-linecap="butt" d="m11.886524 126.27393l691.8267 0" fill-rule="evenodd"/><path fill="#000000" stroke="#000000" stroke-width="1.0" stroke-linecap="butt" d="m703.71326 127.92566l4.538086 -1.6517258l-4.538086 -1.6517334z" fill-rule="evenodd"/><path fill="#000000" fill-opacity="0.0" d="m1.9626373 129.32118l748.1575 0l0 35.55905l-748.1575 0z" fill-rule="evenodd"/><path fill="#000000" d="m14.400137 150.0743l0.171875 1.03125q-0.5 0.109375 -0.890625 0.109375q-0.640625 0 -1.0 -0.203125q-0.34375 -0.203125 -0.484375 -0.53125q-0.140625 -0.328125 -0.140625 -1.390625l0 -3.96875l-0.859375 0l0 -0.90625l0.859375 0l0 -1.71875l1.171875 -0.703125l0 2.421875l1.171875 0l0 0.90625l-1.171875 0l0 4.046875q0 0.5 0.046875 0.640625q0.0625 0.140625 0.203125 0.234375q0.140625 0.078125 0.40625 0.078125q0.203125 0 0.515625 -0.046875zm7.3123627 -4.5625l-6.3125 0l0 -1.09375l6.3125 0l0 1.09375zm0 2.890625l-6.3125 0l0 -1.09375l6.3125 0l0 1.09375zm1.2834167 -1.984375q0 -1.6875 0.34375 -2.71875q0.359375 -1.03125 1.046875 -1.59375q0.6875 -0.5625 1.71875 -0.5625q0.78125 0 1.359375 0.3125q0.578125 0.296875 0.953125 0.890625q0.375 0.578125 0.59375 1.421875q0.21875 0.828125 0.21875 2.25q0 1.671875 -0.359375 2.703125q-0.34375 1.03125 -1.03125 1.59375q-0.671875 0.5625 -1.734375 0.5625q-1.375 0 -2.15625 -0.984375q-0.953125 -1.1875 -0.953125 -3.875zm1.203125 0q0 2.34375 0.546875 3.125q0.5625 0.78125 1.359375 0.78125q0.8125 0 1.359375 -0.78125q0.5625 -0.78125 0.5625 -3.125q0 -2.359375 -0.5625 -3.125q-0.546875 -0.78125 -1.359375 -0.78125q-0.8125 0 -1.296875 0.6875q-0.609375 0.875 -0.609375 3.21875zm216.46729 3.65625l0.171875 1.03125q-0.5 0.109375 -0.890625 0.109375q-0.640625 0 -1.0 -0.203125q-0.34375 -0.203125 -0.484375 -0.53125q-0.140625 -0.328125 -0.140625 -1.390625l0 -3.96875l-0.859375 0l0 -0.90625l0.859375 0l0 -1.71875l1.171875 -0.703125l0 2.421875l1.171875 0l0 0.90625l-1.171875 0l0 4.046875q0 0.5 0.046875 0.640625q0.0625 0.140625 0.203125 0.234375q0.140625 0.078125 0.40625 0.078125q0.203125 0 0.515625 -0.046875zm7.3123627 -4.5625l-6.3125 0l0 -1.09375l6.3125 0l0 1.09375zm0 2.890625l-6.3125 0l0 -1.09375l6.3125 0l0 1.09375zm5.7052917 2.71875l-1.171875 0l0 -7.46875q-0.421875 0.40625 -1.109375 0.8125q-0.6875 0.40625 -1.234375 0.609375l0 -1.140625q0.984375 -0.453125 1.71875 -1.109375q0.734375 -0.671875 1.03125 -1.28125l0.765625 0l0 9.578125zm2.9906158 -4.703125q0 -1.6875 0.34375 -2.71875q0.359375 -1.03125 1.046875 -1.59375q0.6875 -0.5625 1.71875 -0.5625q0.78125 0 1.359375 0.3125q0.578125 0.296875 0.953125 0.890625q0.375 0.578125 0.59375 1.421875q0.21875 0.828125 0.21875 2.25q0 1.671875 -0.359375 2.703125q-0.34375 1.03125 -1.03125 1.59375q-0.671875 0.5625 -1.734375 0.5625q-1.375 0 -2.15625 -0.984375q-0.953125 -1.1875 -0.953125 -3.875zm1.203125 0q0 2.34375 0.546875 3.125q0.5625 0.78125 1.359375 0.78125q0.8125 0 1.359375 -0.78125q0.5625 -0.78125 0.5625 -3.125q0 -2.359375 -0.5625 -3.125q-0.546875 -0.78125 -1.359375 -0.78125q-0.8125 0 -1.296875 0.6875q-0.609375 0.875 -0.609375 3.21875zm6.2093506 0q0 -1.6875 0.34375 -2.71875q0.359375 -1.03125 1.046875 -1.59375q0.6875 -0.5625 1.71875 -0.5625q0.78125 0 1.359375 0.3125q0.578125 0.296875 0.953125 0.890625q0.375 0.578125 0.59375 1.421875q0.21875 0.828125 0.21875 2.25q0 1.671875 -0.359375 2.703125q-0.34375 1.03125 -1.03125 1.59375q-0.671875 0.5625 -1.734375 0.5625q-1.375 0 -2.15625 -0.984375q-0.953125 -1.1875 -0.953125 -3.875zm1.203125 0q0 2.34375 0.546875 3.125q0.5625 0.78125 1.359375 0.78125q0.8125 0 1.359375 -0.78125q0.5625 -0.78125 0.5625 -3.125q0 -2.359375 -0.5625 -3.125q-0.546875 -0.78125 -1.359375 -0.78125q-0.8125 0 -1.296875 0.6875q-0.609375 0.875 -0.609375 3.21875zm6.0687256 2.640625l1.15625 -0.1875q0.109375 0.703125 0.546875 1.078125q0.453125 0.359375 1.25 0.359375q0.8125 0 1.203125 -0.328125q0.390625 -0.328125 0.390625 -0.765625q0 -0.390625 -0.359375 -0.625q-0.234375 -0.15625 -1.1875 -0.390625q-1.296875 -0.328125 -1.796875 -0.5625q-0.484375 -0.25 -0.75 -0.65625q-0.25 -0.421875 -0.25 -0.9375q0 -0.453125 0.203125 -0.84375q0.21875 -0.40625 0.578125 -0.671875q0.28125 -0.1875 0.75 -0.328125q0.46875 -0.140625 1.015625 -0.140625q0.8125 0 1.421875 0.234375q0.609375 0.234375 0.90625 0.640625q0.296875 0.390625 0.40625 1.0625l-1.140625 0.15625q-0.078125 -0.53125 -0.453125 -0.828125q-0.375 -0.3125 -1.0625 -0.3125q-0.8125 0 -1.15625 0.265625q-0.34375 0.265625 -0.34375 0.625q0 0.234375 0.140625 0.421875q0.15625 0.1875 0.453125 0.3125q0.171875 0.0625 1.03125 0.296875q1.25 0.328125 1.734375 0.546875q0.5 0.203125 0.78125 0.609375q0.28125 0.40625 0.28125 1.0q0 0.59375 -0.34375 1.109375q-0.34375 0.515625 -1.0 0.796875q-0.640625 0.28125 -1.453125 0.28125q-1.34375 0 -2.046875 -0.5625q-0.703125 -0.5625 -0.90625 -1.65625zm194.84543 1.015625l0.171875 1.03125q-0.5 0.109375 -0.890625 0.109375q-0.640625 0 -1.0 -0.203125q-0.34375 -0.203125 -0.484375 -0.53125q-0.140625 -0.328125 -0.140625 -1.390625l0 -3.96875l-0.859375 0l0 -0.90625l0.859375 0l0 -1.71875l1.171875 -0.703125l0 2.421875l1.171875 0l0 0.90625l-1.171875 0l0 4.046875q0 0.5 0.046875 0.640625q0.0625 0.140625 0.203125 0.234375q0.140625 0.078125 0.40625 0.078125q0.203125 0 0.515625 -0.046875zm7.312378 -4.5625l-6.3125 0l0 -1.09375l6.3125 0l0 1.09375zm0 2.890625l-6.3125 0l0 -1.09375l6.3125 0l0 1.09375zm7.4396667 1.59375l0 1.125l-6.296875 0q-0.015625 -0.421875 0.140625 -0.8125q0.234375 -0.640625 0.765625 -1.265625q0.53125 -0.625 1.53125 -1.453125q1.5625 -1.265625 2.109375 -2.015625q0.546875 -0.75 0.546875 -1.40625q0 -0.703125 -0.5 -1.171875q-0.5 -0.484375 -1.296875 -0.484375q-0.859375 0 -1.375 0.515625q-0.5 0.5 -0.5 1.390625l-1.203125 -0.109375q0.125 -1.359375 0.921875 -2.0625q0.8125 -0.703125 2.171875 -0.703125q1.375 0 2.171875 0.765625q0.8125 0.75 0.8125 1.875q0 0.578125 -0.234375 1.140625q-0.234375 0.546875 -0.78125 1.15625q-0.546875 0.609375 -1.8125 1.671875q-1.046875 0.890625 -1.359375 1.21875q-0.296875 0.3125 -0.484375 0.625l4.671875 0zm1.2562256 -3.578125q0 -1.6875 0.34375 -2.71875q0.359375 -1.03125 1.046875 -1.59375q0.6875 -0.5625 1.71875 -0.5625q0.78125 0 1.359375 0.3125q0.578125 0.296875 0.953125 0.890625q0.375 0.578125 0.59375 1.421875q0.21875 0.828125 0.21875 2.25q0 1.671875 -0.359375 2.703125q-0.34375 1.03125 -1.03125 1.59375q-0.671875 0.5625 -1.734375 0.5625q-1.375 0 -2.15625 -0.984375q-0.953125 -1.1875 -0.953125 -3.875zm1.203125 0q0 2.34375 0.546875 3.125q0.5625 0.78125 1.359375 0.78125q0.8125 0 1.359375 -0.78125q0.5625 -0.78125 0.5625 -3.125q0 -2.359375 -0.5625 -3.125q-0.546875 -0.78125 -1.359375 -0.78125q-0.8125 0 -1.296875 0.6875q-0.609375 0.875 -0.609375 3.21875zm6.2093506 0q0 -1.6875 0.34375 -2.71875q0.359375 -1.03125 1.046875 -1.59375q0.6875 -0.5625 1.71875 -0.5625q0.78125 0 1.359375 0.3125q0.578125 0.296875 0.953125 0.890625q0.375 0.578125 0.59375 1.421875q0.21875 0.828125 0.21875 2.25q0 1.671875 -0.359375 2.703125q-0.34375 1.03125 -1.03125 1.59375q-0.671875 0.5625 -1.734375 0.5625q-1.375 0 -2.15625 -0.984375q-0.953125 -1.1875 -0.953125 -3.875zm1.203125 0q0 2.34375 0.546875 3.125q0.5625 0.78125 1.359375 0.78125q0.8125 0 1.359375 -0.78125q0.5625 -0.78125 0.5625 -3.125q0 -2.359375 -0.5625 -3.125q-0.546875 -0.78125 -1.359375 -0.78125q-0.8125 0 -1.296875 0.6875q-0.609375 0.875 -0.609375 3.21875zm6.0687256 2.640625l1.15625 -0.1875q0.109375 0.703125 0.546875 1.078125q0.453125 0.359375 1.25 0.359375q0.8125 0 1.203125 -0.328125q0.390625 -0.328125 0.390625 -0.765625q0 -0.390625 -0.359375 -0.625q-0.234375 -0.15625 -1.1875 -0.390625q-1.296875 -0.328125 -1.796875 -0.5625q-0.484375 -0.25 -0.75 -0.65625q-0.25 -0.421875 -0.25 -0.9375q0 -0.453125 0.203125 -0.84375q0.21875 -0.40625 0.578125 -0.671875q0.28125 -0.1875 0.75 -0.328125q0.46875 -0.140625 1.015625 -0.140625q0.8125 0 1.421875 0.234375q0.609375 0.234375 0.90625 0.640625q0.296875 0.390625 0.40625 1.0625l-1.140625 0.15625q-0.078125 -0.53125 -0.453125 -0.828125q-0.375 -0.3125 -1.0625 -0.3125q-0.8125 0 -1.15625 0.265625q-0.34375 0.265625 -0.34375 0.625q0 0.234375 0.140625 0.421875q0.15625 0.1875 0.453125 0.3125q0.171875 0.0625 1.03125 0.296875q1.25 0.328125 1.734375 0.546875q0.5 0.203125 0.78125 0.609375q0.28125 0.40625 0.28125 1.0q0 0.59375 -0.34375 1.109375q-0.34375 0.515625 -1.0 0.796875q-0.640625 0.28125 -1.453125 0.28125q-1.34375 0 -2.046875 -0.5625q-0.703125 -0.5625 -0.90625 -1.65625zm187.43942 1.015625l0.171875 1.03125q-0.5 0.109375 -0.890625 0.109375q-0.640625 0 -1.0 -0.203125q-0.34375 -0.203125 -0.484375 -0.53125q-0.140625 -0.328125 -0.140625 -1.390625l0 -3.96875l-0.859375 0l0 -0.90625l0.859375 0l0 -1.71875l1.171875 -0.703125l0 2.421875l1.171875 0l0 0.90625l-1.171875 0l0 4.046875q0 0.5 0.046875 0.640625q0.0625 0.140625 0.203125 0.234375q0.140625 0.078125 0.40625 0.078125q0.203125 0 0.515625 -0.046875zm7.312378 -4.5625l-6.3125 0l0 -1.09375l6.3125 0l0 1.09375zm0 2.890625l-6.3125 0l0 -1.09375l6.3125 0l0 1.09375zm1.2990112 0.203125l1.171875 -0.15625q0.203125 1.0 0.6875 1.4375q0.484375 0.4375 1.171875 0.4375q0.828125 0 1.390625 -0.578125q0.578125 -0.578125 0.578125 -1.421875q0 -0.796875 -0.53125 -1.3125q-0.515625 -0.53125 -1.328125 -0.53125q-0.34375 0 -0.828125 0.125l0.125 -1.03125q0.125 0.015625 0.1875 0.015625q0.75 0 1.34375 -0.390625q0.609375 -0.390625 0.609375 -1.203125q0 -0.640625 -0.4375 -1.0625q-0.4375 -0.421875 -1.125 -0.421875q-0.6875 0 -1.140625 0.4375q-0.453125 0.421875 -0.59375 1.28125l-1.171875 -0.21875q0.21875 -1.171875 0.984375 -1.8125q0.765625 -0.65625 1.890625 -0.65625q0.78125 0 1.4375 0.34375q0.65625 0.328125 1.0 0.90625q0.359375 0.578125 0.359375 1.234375q0 0.609375 -0.34375 1.125q-0.328125 0.5 -0.96875 0.796875q0.84375 0.203125 1.3125 0.828125q0.46875 0.609375 0.46875 1.53125q0 1.25 -0.921875 2.125q-0.90625 0.859375 -2.296875 0.859375q-1.25 0 -2.09375 -0.75q-0.828125 -0.75 -0.9375 -1.9375zm7.3968506 -2.1875q0 -1.6875 0.34375 -2.71875q0.359375 -1.03125 1.046875 -1.59375q0.6875 -0.5625 1.71875 -0.5625q0.78125 0 1.359375 0.3125q0.578125 0.296875 0.953125 0.890625q0.375 0.578125 0.59375 1.421875q0.21875 0.828125 0.21875 2.25q0 1.671875 -0.359375 2.703125q-0.34375 1.03125 -1.03125 1.59375q-0.671875 0.5625 -1.734375 0.5625q-1.375 0 -2.15625 -0.984375q-0.953125 -1.1875 -0.953125 -3.875zm1.203125 0q0 2.34375 0.546875 3.125q0.5625 0.78125 1.359375 0.78125q0.8125 0 1.359375 -0.78125q0.5625 -0.78125 0.5625 -3.125q0 -2.359375 -0.5625 -3.125q-0.546875 -0.78125 -1.359375 -0.78125q-0.8125 0 -1.296875 0.6875q-0.609375 0.875 -0.609375 3.21875zm6.2093506 0q0 -1.6875 0.34375 -2.71875q0.359375 -1.03125 1.046875 -1.59375q0.6875 -0.5625 1.71875 -0.5625q0.78125 0 1.359375 0.3125q0.578125 0.296875 0.953125 0.890625q0.375 0.578125 0.59375 1.421875q0.21875 0.828125 0.21875 2.25q0 1.671875 -0.359375 2.703125q-0.34375 1.03125 -1.03125 1.59375q-0.671875 0.5625 -1.734375 0.5625q-1.375 0 -2.15625 -0.984375q-0.953125 -1.1875 -0.953125 -3.875zm1.203125 0q0 2.34375 0.546875 3.125q0.5625 0.78125 1.359375 0.78125q0.8125 0 1.359375 -0.78125q0.5625 -0.78125 0.5625 -3.125q0 -2.359375 -0.5625 -3.125q-0.546875 -0.78125 -1.359375 -0.78125q-0.8125 0 -1.296875 0.6875q-0.609375 0.875 -0.609375 3.21875zm6.0687256 2.640625l1.15625 -0.1875q0.109375 0.703125 0.546875 1.078125q0.453125 0.359375 1.25 0.359375q0.8125 0 1.203125 -0.328125q0.390625 -0.328125 0.390625 -0.765625q0 -0.390625 -0.359375 -0.625q-0.234375 -0.15625 -1.1875 -0.390625q-1.296875 -0.328125 -1.796875 -0.5625q-0.484375 -0.25 -0.75 -0.65625q-0.25 -0.421875 -0.25 -0.9375q0 -0.453125 0.203125 -0.84375q0.21875 -0.40625 0.578125 -0.671875q0.28125 -0.1875 0.75 -0.328125q0.46875 -0.140625 1.015625 -0.140625q0.8125 0 1.421875 0.234375q0.609375 0.234375 0.90625 0.640625q0.296875 0.390625 0.40625 1.0625l-1.140625 0.15625q-0.078125 -0.53125 -0.453125 -0.828125q-0.375 -0.3125 -1.0625 -0.3125q-0.8125 0 -1.15625 0.265625q-0.34375 0.265625 -0.34375 0.625q0 0.234375 0.140625 0.421875q0.15625 0.1875 0.453125 0.3125q0.171875 0.0625 1.03125 0.296875q1.25 0.328125 1.734375 0.546875q0.5 0.203125 0.78125 0.609375q0.28125 0.40625 0.28125 1.0q0 0.59375 -0.34375 1.109375q-0.34375 0.515625 -1.0 0.796875q-0.640625 0.28125 -1.453125 0.28125q-1.34375 0 -2.046875 -0.5625q-0.703125 -0.5625 -0.90625 -1.65625z" fill-rule="nonzero"/><path fill="#000000" fill-opacity="0.0" d="m176.92505 80.440346l108.53543 0l0 35.55906l-108.53543 0z" fill-rule="evenodd"/><path fill="#ff0000" d="m191.37817 98.474724l0.234375 -1.078125l4.171875 0l-0.8125 3.890625q-0.78125 0.484375 -1.796875 0.796875q-1.0 0.3125 -1.984375 0.3125q-2.078125 0 -3.109375 -1.25q-0.859375 -1.0625 -0.859375 -2.71875q0 -1.71875 0.75 -3.125q0.765625 -1.421875 1.921875 -2.09375q1.15625 -0.671875 2.5625 -0.671875q1.015625 0 1.8125 0.375q0.8125 0.359375 1.234375 0.984375q0.4375 0.609375 0.625 1.59375l-1.234375 0.140625q-0.203125 -0.984375 -0.84375 -1.5q-0.640625 -0.53125 -1.625 -0.53125q-1.046875 0 -1.953125 0.5625q-0.890625 0.5625 -1.421875 1.703125q-0.53125 1.125 -0.53125 2.578125q0 1.4375 0.703125 2.171875q0.71875 0.734375 1.96875 0.734375q1.234375 0 2.671875 -0.828125l0.421875 -2.046875l-2.90625 0zm5.49205 3.765625l2.0 -9.546875l3.96875 0q1.046875 0 1.5625 0.25q0.515625 0.234375 0.84375 0.8125q0.34375 0.578125 0.34375 1.28125q0 0.59375 -0.25 1.21875q-0.234375 0.609375 -0.609375 1.0q-0.359375 0.390625 -0.734375 0.59375q-0.375 0.203125 -0.8125 0.296875q-0.90625 0.21875 -1.84375 0.21875l-2.390625 0l-0.8125 3.875l-1.265625 0zm2.3125 -4.953125l2.09375 0q1.21875 0 1.796875 -0.265625q0.578125 -0.265625 0.921875 -0.796875q0.34375 -0.546875 0.34375 -1.15625q0 -0.46875 -0.1875 -0.75q-0.1875 -0.296875 -0.515625 -0.4375q-0.328125 -0.140625 -1.265625 -0.140625l-2.453125 0l-0.734375 3.546875zm8.639755 -4.59375l1.28125 0l-1.234375 5.875q-0.140625 0.71875 -0.140625 1.078125q0 0.765625 0.59375 1.234375q0.609375 0.46875 1.53125 0.46875q0.734375 0 1.359375 -0.328125q0.625 -0.34375 0.984375 -0.984375q0.375 -0.65625 0.65625 -2.078125l1.109375 -5.265625l1.265625 0l-1.15625 5.609375q-0.296875 1.421875 -0.796875 2.265625q-0.484375 0.828125 -1.34375 1.34375q-0.859375 0.5 -2.015625 0.5q-1.078125 0 -1.875 -0.359375q-0.78125 -0.359375 -1.1875 -0.984375q-0.390625 -0.640625 -0.390625 -1.4375q0 -0.5 0.28125 -1.71875l1.078125 -5.21875zm11.45314 9.546875l2.0 -9.546875l1.265625 0l-2.0 9.546875l-1.265625 0zm8.046738 -1.0q-1.015625 1.15625 -2.109375 1.15625q-0.984375 0 -1.640625 -0.71875q-0.65625 -0.734375 -0.65625 -2.109375q0 -1.265625 0.515625 -2.3125q0.515625 -1.046875 1.296875 -1.5625q0.78125 -0.515625 1.5625 -0.515625q1.28125 0 1.9375 1.234375l0.78125 -3.71875l1.171875 0l-1.984375 9.546875l-1.09375 0l0.21875 -1.0zm-3.234375 -1.890625q0 0.71875 0.140625 1.140625q0.140625 0.40625 0.484375 0.6875q0.34375 0.28125 0.828125 0.28125q0.796875 0 1.453125 -0.84375q0.875 -1.109375 0.875 -2.734375q0 -0.8125 -0.4375 -1.265625q-0.421875 -0.46875 -1.078125 -0.46875q-0.421875 0 -0.765625 0.1875q-0.34375 0.1875 -0.6875 0.640625q-0.34375 0.453125 -0.578125 1.15625q-0.234375 0.6875 -0.234375 1.21875zm5.8812256 2.890625l2.0 -9.546875l1.171875 0l-1.984375 9.546875l-1.1875 0zm8.132965 -2.34375l1.15625 0.109375q-0.25 0.859375 -1.140625 1.625q-0.890625 0.765625 -2.125 0.765625q-0.765625 0 -1.40625 -0.34375q-0.640625 -0.359375 -0.984375 -1.03125q-0.328125 -0.6875 -0.328125 -1.546875q0 -1.140625 0.515625 -2.203125q0.53125 -1.0625 1.359375 -1.578125q0.84375 -0.515625 1.8125 -0.515625q1.234375 0 1.96875 0.765625q0.75 0.765625 0.75 2.09375q0 0.5 -0.09375 1.046875l-5.09375 0q-0.03125 0.1875 -0.03125 0.359375q0 0.96875 0.4375 1.484375q0.453125 0.5 1.109375 0.5q0.59375 0 1.171875 -0.390625q0.59375 -0.390625 0.921875 -1.140625zm-3.421875 -1.71875l3.875 0q0.015625 -0.1875 0.015625 -0.265625q0 -0.875 -0.453125 -1.34375q-0.4375 -0.484375 -1.125 -0.484375q-0.765625 0 -1.390625 0.53125q-0.609375 0.515625 -0.921875 1.5625z" fill-rule="nonzero"/><path fill="#000000" fill-opacity="0.0" d="m88.76532 20.877531l68.72441 0l0 35.55906l-68.72441 0z" fill-rule="evenodd"/><path fill="#000000" d="m98.10907 42.677532l2.0 -9.546875l1.171875 0l-1.984375 9.546875l-1.1875 0zm3.27359 -2.625q0 -2.015625 1.1875 -3.34375q0.984375 -1.09375 2.578125 -1.09375q1.25 0 2.015625 0.78125q0.765625 0.78125 0.765625 2.109375q0 1.1875 -0.484375 2.21875q-0.484375 1.015625 -1.375 1.5625q-0.890625 0.546875 -1.875 0.546875q-0.796875 0 -1.46875 -0.34375q-0.65625 -0.34375 -1.0 -0.96875q-0.34375 -0.640625 -0.34375 -1.46875zm1.171875 -0.109375q0 0.96875 0.46875 1.484375q0.46875 0.5 1.1875 0.5q0.375 0 0.75 -0.15625q0.375 -0.15625 0.6875 -0.46875q0.328125 -0.3125 0.546875 -0.703125q0.21875 -0.40625 0.359375 -0.875q0.203125 -0.640625 0.203125 -1.234375q0 -0.9375 -0.46875 -1.453125q-0.46875 -0.515625 -1.1875 -0.515625q-0.5625 0 -1.015625 0.265625q-0.453125 0.265625 -0.828125 0.78125q-0.359375 0.5 -0.53125 1.171875q-0.171875 0.671875 -0.171875 1.203125zm10.693726 1.875q-0.625 0.53125 -1.1875 0.78125q-0.5625 0.234375 -1.203125 0.234375q-0.96875 0 -1.5625 -0.5625q-0.578125 -0.5625 -0.578125 -1.4375q0 -0.578125 0.265625 -1.015625q0.265625 -0.453125 0.703125 -0.71875q0.4375 -0.28125 1.0625 -0.390625q0.40625 -0.078125 1.515625 -0.125q1.109375 -0.046875 1.59375 -0.234375q0.125 -0.484375 0.125 -0.8125q0 -0.40625 -0.296875 -0.640625q-0.40625 -0.328125 -1.1875 -0.328125q-0.75 0 -1.21875 0.328125q-0.46875 0.328125 -0.6875 0.9375l-1.1875 -0.109375q0.359375 -1.015625 1.140625 -1.5625q0.796875 -0.546875 2.0 -0.546875q1.28125 0 2.03125 0.609375q0.578125 0.453125 0.578125 1.1875q0 0.546875 -0.15625 1.28125l-0.390625 1.71875q-0.1875 0.8125 -0.1875 1.328125q0 0.328125 0.15625 0.9375l-1.203125 0q-0.09375 -0.34375 -0.125 -0.859375zm0.421875 -2.640625q-0.234375 0.09375 -0.53125 0.15625q-0.28125 0.046875 -0.9375 0.109375q-1.03125 0.078125 -1.453125 0.21875q-0.421875 0.140625 -0.640625 0.453125q-0.21875 0.296875 -0.21875 0.671875q0 0.5 0.34375 0.828125q0.34375 0.3125 0.984375 0.3125q0.578125 0 1.109375 -0.3125q0.546875 -0.3125 0.859375 -0.859375q0.3125 -0.5625 0.484375 -1.578125zm6.9906006 2.5q-1.015625 1.15625 -2.109375 1.15625q-0.984375 0 -1.640625 -0.71875q-0.65625 -0.734375 -0.65625 -2.109375q0 -1.265625 0.515625 -2.3125q0.515625 -1.046875 1.296875 -1.5625q0.78125 -0.515625 1.5625 -0.515625q1.28125 0 1.9375 1.234375l0.78125 -3.71875l1.171875 0l-1.984375 9.546875l-1.09375 0l0.21875 -1.0zm-3.234375 -1.890625q0 0.71875 0.140625 1.140625q0.140625 0.40625 0.484375 0.6875q0.34375 0.28125 0.828125 0.28125q0.796875 0 1.453125 -0.84375q0.875 -1.109375 0.875 -2.734375q0 -0.8125 -0.4375 -1.265625q-0.421875 -0.46875 -1.078125 -0.46875q-0.421875 0 -0.765625 0.1875q-0.34375 0.1875 -0.6875 0.640625q-0.34375 0.453125 -0.578125 1.15625q-0.234375 0.6875 -0.234375 1.21875zm7.6468506 -5.3125l0.28125 -1.34375l1.171875 0l-0.28125 1.34375l-1.171875 0zm-1.71875 8.203125l1.453125 -6.90625l1.171875 0l-1.4375 6.90625l-1.1875 0zm3.007965 0l1.453125 -6.90625l1.0625 0l-0.25 1.203125q0.6875 -0.71875 1.296875 -1.03125q0.609375 -0.328125 1.234375 -0.328125q0.84375 0 1.3125 0.453125q0.484375 0.453125 0.484375 1.21875q0 0.375 -0.171875 1.203125l-0.875 4.1875l-1.171875 0l0.921875 -4.375q0.125 -0.640625 0.125 -0.953125q0 -0.34375 -0.234375 -0.546875q-0.234375 -0.21875 -0.6875 -0.21875q-0.90625 0 -1.609375 0.65625q-0.703125 0.640625 -1.03125 2.21875l-0.671875 3.21875l-1.1875 0zm7.3499756 0.625l1.1875 0.109375q0 0.40625 0.109375 0.609375q0.109375 0.203125 0.34375 0.3125q0.328125 0.140625 0.828125 0.140625q1.0625 0 1.53125 -0.546875q0.3125 -0.375 0.578125 -1.625l0.109375 -0.5625q-0.921875 0.9375 -1.953125 0.9375q-1.046875 0 -1.75 -0.765625q-0.703125 -0.78125 -0.703125 -2.1875q0 -1.171875 0.546875 -2.140625q0.5625 -0.984375 1.328125 -1.46875q0.765625 -0.5 1.578125 -0.5q1.359375 0 2.09375 1.28125l0.234375 -1.125l1.078125 0l-1.390625 6.671875q-0.21875 1.09375 -0.59375 1.703125q-0.375 0.625 -1.03125 0.953125q-0.65625 0.34375 -1.53125 0.34375q-0.828125 0 -1.4375 -0.21875q-0.59375 -0.203125 -0.890625 -0.625q-0.296875 -0.40625 -0.296875 -0.953125q0 -0.15625 0.03125 -0.34375zm1.46875 -3.6875q0 0.71875 0.140625 1.078125q0.203125 0.5 0.5625 0.765625q0.359375 0.25 0.796875 0.25q0.578125 0 1.140625 -0.40625q0.578125 -0.40625 0.9375 -1.25q0.359375 -0.859375 0.359375 -1.625q0 -0.859375 -0.484375 -1.359375q-0.46875 -0.515625 -1.15625 -0.515625q-0.4375 0 -0.84375 0.234375q-0.390625 0.234375 -0.75 0.703125q-0.34375 0.46875 -0.53125 1.140625q-0.171875 0.65625 -0.171875 0.984375z" fill-rule="nonzero"/><path fill="#000000" fill-opacity="0.0" d="m296.36523 51.595867l134.2362 0l0 35.559055l-134.2362 0z" fill-rule="evenodd"/><path fill="#000000" d="m305.2246 76.05212l2.0 -9.5625l1.09375 0l-0.203125 0.953125q0.59375 -0.625 1.078125 -0.859375q0.484375 -0.25 1.015625 -0.25q0.984375 0 1.625 0.71875q0.65625 0.71875 0.65625 2.0625q0 1.078125 -0.359375 1.96875q-0.34375 0.875 -0.875 1.421875q-0.515625 0.546875 -1.046875 0.796875q-0.53125 0.25 -1.09375 0.25q-1.25 0 -1.921875 -1.265625l-0.78125 3.765625l-1.1875 0zm2.328125 -5.484375q0 0.78125 0.109375 1.078125q0.171875 0.421875 0.53125 0.6875q0.375 0.25 0.875 0.25q1.015625 0 1.640625 -1.140625q0.625 -1.140625 0.625 -2.328125q0 -0.875 -0.421875 -1.359375q-0.421875 -0.484375 -1.046875 -0.484375q-0.453125 0 -0.84375 0.25q-0.375 0.234375 -0.703125 0.703125q-0.328125 0.46875 -0.546875 1.15625q-0.21875 0.6875 -0.21875 1.1875zm5.6624756 2.828125l1.453125 -6.90625l1.03125 0l-0.28125 1.40625q0.53125 -0.796875 1.03125 -1.171875q0.515625 -0.390625 1.046875 -0.390625q0.359375 0 0.875 0.25l-0.484375 1.09375q-0.3125 -0.21875 -0.671875 -0.21875q-0.625 0 -1.28125 0.6875q-0.640625 0.6875 -1.015625 2.484375l-0.578125 2.765625l-1.125 0zm9.5164795 -2.34375l1.15625 0.109375q-0.25 0.859375 -1.140625 1.625q-0.890625 0.765625 -2.125 0.765625q-0.765625 0 -1.40625 -0.34375q-0.640625 -0.359375 -0.984375 -1.03125q-0.328125 -0.6875 -0.328125 -1.546875q0 -1.140625 0.515625 -2.203125q0.53125 -1.0625 1.359375 -1.578125q0.84375 -0.515625 1.8125 -0.515625q1.234375 0 1.96875 0.765625q0.75 0.765625 0.75 2.09375q0 0.5 -0.09375 1.046875l-5.09375 0q-0.03125 0.1875 -0.03125 0.359375q0 0.96875 0.4375 1.484375q0.453125 0.5 1.109375 0.5q0.59375 0 1.171875 -0.390625q0.59375 -0.390625 0.921875 -1.140625zm-3.421875 -1.71875l3.875 0q0.015625 -0.1875 0.015625 -0.265625q0 -0.875 -0.453125 -1.34375q-0.4375 -0.484375 -1.125 -0.484375q-0.765625 0 -1.390625 0.53125q-0.609375 0.515625 -0.921875 1.5625zm5.1781006 6.71875l2.0 -9.5625l1.09375 0l-0.203125 0.953125q0.59375 -0.625 1.078125 -0.859375q0.484375 -0.25 1.015625 -0.25q0.984375 0 1.625 0.71875q0.65625 0.71875 0.65625 2.0625q0 1.078125 -0.359375 1.96875q-0.34375 0.875 -0.875 1.421875q-0.515625 0.546875 -1.046875 0.796875q-0.53125 0.25 -1.09375 0.25q-1.25 0 -1.921875 -1.265625l-0.78125 3.765625l-1.1875 0zm2.328125 -5.484375q0 0.78125 0.109375 1.078125q0.171875 0.421875 0.53125 0.6875q0.375 0.25 0.875 0.25q1.015625 0 1.640625 -1.140625q0.625 -1.140625 0.625 -2.328125q0 -0.875 -0.421875 -1.359375q-0.421875 -0.484375 -1.046875 -0.484375q-0.453125 0 -0.84375 0.25q-0.375 0.234375 -0.703125 0.703125q-0.328125 0.46875 -0.546875 1.15625q-0.21875 0.6875 -0.21875 1.1875zm5.6624756 2.828125l1.453125 -6.90625l1.03125 0l-0.28125 1.40625q0.53125 -0.796875 1.03125 -1.171875q0.515625 -0.390625 1.046875 -0.390625q0.359375 0 0.875 0.25l-0.484375 1.09375q-0.3125 -0.21875 -0.671875 -0.21875q-0.625 0 -1.28125 0.6875q-0.640625 0.6875 -1.015625 2.484375l-0.578125 2.765625l-1.125 0zm4.657135 -2.625q0 -2.015625 1.1875 -3.34375q0.984375 -1.09375 2.578125 -1.09375q1.25 0 2.015625 0.78125q0.765625 0.78125 0.765625 2.109375q0 1.1875 -0.484375 2.21875q-0.484375 1.015625 -1.375 1.5625q-0.890625 0.546875 -1.875 0.546875q-0.796875 0 -1.46875 -0.34375q-0.65625 -0.34375 -1.0 -0.96875q-0.34375 -0.640625 -0.34375 -1.46875zm1.171875 -0.109375q0 0.96875 0.46875 1.484375q0.46875 0.5 1.1875 0.5q0.375 0 0.75 -0.15625q0.375 -0.15625 0.6875 -0.46875q0.328125 -0.3125 0.546875 -0.703125q0.21875 -0.40625 0.359375 -0.875q0.203125 -0.640625 0.203125 -1.234375q0 -0.9375 -0.46875 -1.453125q-0.46875 -0.515625 -1.1875 -0.515625q-0.5625 0 -1.015625 0.265625q-0.453125 0.265625 -0.828125 0.78125q-0.359375 0.5 -0.53125 1.171875q-0.171875 0.671875 -0.171875 1.203125zm10.803101 0.21875l1.171875 0.125q-0.4375 1.296875 -1.265625 1.921875q-0.8125 0.625 -1.84375 0.625q-1.140625 0 -1.84375 -0.71875q-0.6875 -0.734375 -0.6875 -2.046875q0 -1.125 0.4375 -2.21875q0.453125 -1.09375 1.28125 -1.65625q0.84375 -0.578125 1.921875 -0.578125q1.109375 0 1.765625 0.625q0.65625 0.625 0.65625 1.65625l-1.15625 0.078125q-0.015625 -0.65625 -0.390625 -1.015625q-0.375 -0.375 -0.984375 -0.375q-0.703125 0 -1.234375 0.453125q-0.515625 0.4375 -0.8125 1.359375q-0.296875 0.90625 -0.296875 1.75q0 0.890625 0.390625 1.34375q0.390625 0.4375 0.96875 0.4375q0.5625 0 1.078125 -0.4375q0.53125 -0.4375 0.84375 -1.328125zm6.9609375 0.171875l1.15625 0.109375q-0.25 0.859375 -1.140625 1.625q-0.890625 0.765625 -2.125 0.765625q-0.765625 0 -1.40625 -0.34375q-0.640625 -0.359375 -0.984375 -1.03125q-0.328125 -0.6875 -0.328125 -1.546875q0 -1.140625 0.515625 -2.203125q0.53125 -1.0625 1.359375 -1.578125q0.84375 -0.515625 1.8125 -0.515625q1.234375 0 1.96875 0.765625q0.75 0.765625 0.75 2.09375q0 0.5 -0.09375 1.046875l-5.09375 0q-0.03125 0.1875 -0.03125 0.359375q0 0.96875 0.4375 1.484375q0.453125 0.5 1.109375 0.5q0.59375 0 1.171875 -0.390625q0.59375 -0.390625 0.921875 -1.140625zm-3.421875 -1.71875l3.875 0q0.015625 -0.1875 0.015625 -0.265625q0 -0.875 -0.453125 -1.34375q-0.4375 -0.484375 -1.125 -0.484375q-0.765625 0 -1.390625 0.53125q-0.609375 0.515625 -0.921875 1.5625zm5.8656006 1.703125l1.1875 -0.078125q0 0.515625 0.15625 0.875q0.15625 0.359375 0.578125 0.59375q0.421875 0.21875 0.96875 0.21875q0.78125 0 1.171875 -0.3125q0.390625 -0.3125 0.390625 -0.734375q0 -0.3125 -0.234375 -0.578125q-0.234375 -0.28125 -1.171875 -0.671875q-0.9375 -0.40625 -1.1875 -0.578125q-0.4375 -0.265625 -0.671875 -0.625q-0.21875 -0.359375 -0.21875 -0.828125q0 -0.8125 0.65625 -1.390625q0.65625 -0.59375 1.828125 -0.59375q1.296875 0 1.96875 0.609375q0.6875 0.59375 0.71875 1.578125l-1.15625 0.078125q-0.03125 -0.625 -0.453125 -0.984375q-0.40625 -0.375 -1.171875 -0.375q-0.609375 0 -0.953125 0.28125q-0.328125 0.28125 -0.328125 0.609375q0 0.3125 0.296875 0.5625q0.1875 0.171875 1.0 0.53125q1.359375 0.578125 1.703125 0.921875q0.5625 0.53125 0.5625 1.3125q0 0.515625 -0.3125 1.015625q-0.3125 0.484375 -0.96875 0.78125q-0.640625 0.296875 -1.515625 0.296875q-1.203125 0 -2.046875 -0.59375q-0.84375 -0.59375 -0.796875 -1.921875zm6.6640625 0l1.1875 -0.078125q0 0.515625 0.15625 0.875q0.15625 0.359375 0.578125 0.59375q0.421875 0.21875 0.96875 0.21875q0.78125 0 1.171875 -0.3125q0.390625 -0.3125 0.390625 -0.734375q0 -0.3125 -0.234375 -0.578125q-0.234375 -0.28125 -1.171875 -0.671875q-0.9375 -0.40625 -1.1875 -0.578125q-0.4375 -0.265625 -0.671875 -0.625q-0.21875 -0.359375 -0.21875 -0.828125q0 -0.8125 0.65625 -1.390625q0.65625 -0.59375 1.828125 -0.59375q1.296875 0 1.96875 0.609375q0.6875 0.59375 0.71875 1.578125l-1.15625 0.078125q-0.03125 -0.625 -0.453125 -0.984375q-0.40625 -0.375 -1.171875 -0.375q-0.609375 0 -0.953125 0.28125q-0.328125 0.28125 -0.328125 0.609375q0 0.3125 0.296875 0.5625q0.1875 0.171875 1.0 0.53125q1.359375 0.578125 1.703125 0.921875q0.5625 0.53125 0.5625 1.3125q0 0.515625 -0.3125 1.015625q-0.3125 0.484375 -0.96875 0.78125q-0.640625 0.296875 -1.515625 0.296875q-1.203125 0 -2.046875 -0.59375q-0.84375 -0.59375 -0.796875 -1.921875zm8.2265625 -5.84375l0.28125 -1.34375l1.171875 0l-0.28125 1.34375l-1.171875 0zm-1.71875 8.203125l1.453125 -6.90625l1.171875 0l-1.4375 6.90625l-1.1875 0zm3.007965 0l1.453125 -6.90625l1.0625 0l-0.25 1.203125q0.6875 -0.71875 1.296875 -1.03125q0.609375 -0.328125 1.234375 -0.328125q0.84375 0 1.3125 0.453125q0.484375 0.453125 0.484375 1.21875q0 0.375 -0.171875 1.203125l-0.875 4.1875l-1.171875 0l0.921875 -4.375q0.125 -0.640625 0.125 -0.953125q0 -0.34375 -0.234375 -0.546875q-0.234375 -0.21875 -0.6875 -0.21875q-0.90625 0 -1.609375 0.65625q-0.703125 0.640625 -1.03125 2.21875l-0.671875 3.21875l-1.1875 0zm7.3499756 0.625l1.1875 0.109375q0 0.40625 0.109375 0.609375q0.109375 0.203125 0.34375 0.3125q0.328125 0.140625 0.828125 0.140625q1.0625 0 1.53125 -0.546875q0.3125 -0.375 0.578125 -1.625l0.109375 -0.5625q-0.921875 0.9375 -1.953125 0.9375q-1.046875 0 -1.75 -0.765625q-0.703125 -0.78125 -0.703125 -2.1875q0 -1.171875 0.546875 -2.140625q0.5625 -0.984375 1.328125 -1.46875q0.765625 -0.5 1.578125 -0.5q1.359375 0 2.09375 1.28125l0.234375 -1.125l1.078125 0l-1.390625 6.671875q-0.21875 1.09375 -0.59375 1.703125q-0.375 0.625 -1.03125 0.953125q-0.65625 0.34375 -1.53125 0.34375q-0.828125 0 -1.4375 -0.21875q-0.59375 -0.203125 -0.890625 -0.625q-0.296875 -0.40625 -0.296875 -0.953125q0 -0.15625 0.03125 -0.34375zm1.46875 -3.6875q0 0.71875 0.140625 1.078125q0.203125 0.5 0.5625 0.765625q0.359375 0.25 0.796875 0.25q0.578125 0 1.140625 -0.40625q0.578125 -0.40625 0.9375 -1.25q0.359375 -0.859375 0.359375 -1.625q0 -0.859375 -0.484375 -1.359375q-0.46875 -0.515625 -1.15625 -0.515625q-0.4375 0 -0.84375 0.234375q-0.390625 0.234375 -0.75 0.703125q-0.34375 0.46875 -0.53125 1.140625q-0.171875 0.65625 -0.171875 0.984375z" fill-rule="nonzero"/><path fill="#000000" fill-opacity="0.0" d="m549.423 89.35989l134.2362 0l0 35.55906l-134.2362 0z" fill-rule="evenodd"/><path fill="#000000" d="m560.53235 102.95677l0.28125 -1.34375l1.171875 0l-0.28125 1.34375l-1.171875 0zm-1.71875 8.203125l1.453125 -6.90625l1.171875 0l-1.4375 6.90625l-1.1875 0zm3.0079956 0l1.453125 -6.90625l1.0625 0l-0.25 1.203125q0.6875 -0.71875 1.296875 -1.03125q0.609375 -0.328125 1.234375 -0.328125q0.84375 0 1.3125 0.453125q0.484375 0.453125 0.484375 1.21875q0 0.375 -0.171875 1.203125l-0.875 4.1875l-1.171875 0l0.921875 -4.375q0.125 -0.640625 0.125 -0.953125q0 -0.34375 -0.234375 -0.546875q-0.234375 -0.21875 -0.6875 -0.21875q-0.90625 0 -1.609375 0.65625q-0.703125 0.640625 -1.03125 2.21875l-0.671875 3.21875l-1.1875 0zm7.5843506 0l1.25 -6.0l-1.046875 0l0.1875 -0.90625l1.046875 0l0.203125 -0.984375q0.15625 -0.734375 0.3125 -1.0625q0.171875 -0.328125 0.546875 -0.53125q0.375 -0.21875 1.015625 -0.21875q0.453125 0 1.3125 0.1875l-0.21875 1.03125q-0.59375 -0.15625 -1.0 -0.15625q-0.34375 0 -0.53125 0.171875q-0.171875 0.171875 -0.296875 0.8125l-0.15625 0.75l1.3125 0l-0.1875 0.90625l-1.3125 0l-1.265625 6.0l-1.171875 0zm8.609192 -2.34375l1.15625 0.109375q-0.25 0.859375 -1.140625 1.625q-0.890625 0.765625 -2.125 0.765625q-0.765625 0 -1.40625 -0.34375q-0.640625 -0.359375 -0.984375 -1.03125q-0.328125 -0.6875 -0.328125 -1.546875q0 -1.140625 0.515625 -2.203125q0.53125 -1.0625 1.359375 -1.578125q0.84375 -0.515625 1.8125 -0.515625q1.234375 0 1.96875 0.765625q0.75 0.765625 0.75 2.09375q0 0.5 -0.09375 1.046875l-5.09375 0q-0.03125 0.1875 -0.03125 0.359375q0 0.96875 0.4375 1.484375q0.453125 0.5 1.109375 0.5q0.59375 0 1.171875 -0.390625q0.59375 -0.390625 0.921875 -1.140625zm-3.421875 -1.71875l3.875 0q0.015625 -0.1875 0.015625 -0.265625q0 -0.875 -0.453125 -1.34375q-0.4375 -0.484375 -1.125 -0.484375q-0.765625 0 -1.390625 0.53125q-0.609375 0.515625 -0.921875 1.5625zm5.7562256 4.0625l1.453125 -6.90625l1.03125 0l-0.28125 1.40625q0.53125 -0.796875 1.03125 -1.171875q0.515625 -0.390625 1.046875 -0.390625q0.359375 0 0.875 0.25l-0.484375 1.09375q-0.3125 -0.21875 -0.671875 -0.21875q-0.625 0 -1.28125 0.6875q-0.640625 0.6875 -1.015625 2.484375l-0.578125 2.765625l-1.125 0zm9.516541 -2.34375l1.15625 0.109375q-0.25 0.859375 -1.140625 1.625q-0.890625 0.765625 -2.125 0.765625q-0.765625 0 -1.40625 -0.34375q-0.640625 -0.359375 -0.984375 -1.03125q-0.328125 -0.6875 -0.328125 -1.546875q0 -1.140625 0.515625 -2.203125q0.53125 -1.0625 1.359375 -1.578125q0.84375 -0.515625 1.8125 -0.515625q1.234375 0 1.96875 0.765625q0.75 0.765625 0.75 2.09375q0 0.5 -0.09375 1.046875l-5.09375 0q-0.03125 0.1875 -0.03125 0.359375q0 0.96875 0.4375 1.484375q0.453125 0.5 1.109375 0.5q0.59375 0 1.171875 -0.390625q0.59375 -0.390625 0.921875 -1.140625zm-3.421875 -1.71875l3.875 0q0.015625 -0.1875 0.015625 -0.265625q0 -0.875 -0.453125 -1.34375q-0.4375 -0.484375 -1.125 -0.484375q-0.765625 0 -1.390625 0.53125q-0.609375 0.515625 -0.921875 1.5625zm5.7562256 4.0625l1.453125 -6.90625l1.0625 0l-0.25 1.203125q0.6875 -0.71875 1.296875 -1.03125q0.609375 -0.328125 1.234375 -0.328125q0.84375 0 1.3125 0.453125q0.484375 0.453125 0.484375 1.21875q0 0.375 -0.171875 1.203125l-0.875 4.1875l-1.171875 0l0.921875 -4.375q0.125 -0.640625 0.125 -0.953125q0 -0.34375 -0.234375 -0.546875q-0.234375 -0.21875 -0.6875 -0.21875q-0.90625 0 -1.609375 0.65625q-0.703125 0.640625 -1.03125 2.21875l-0.671875 3.21875l-1.1875 0zm12.193726 -2.515625l1.171875 0.125q-0.4375 1.296875 -1.265625 1.921875q-0.8125 0.625 -1.84375 0.625q-1.140625 0 -1.84375 -0.71875q-0.6875 -0.734375 -0.6875 -2.046875q0 -1.125 0.4375 -2.21875q0.453125 -1.09375 1.28125 -1.65625q0.84375 -0.578125 1.921875 -0.578125q1.109375 0 1.765625 0.625q0.65625 0.625 0.65625 1.65625l-1.15625 0.078125q-0.015625 -0.65625 -0.390625 -1.015625q-0.375 -0.375 -0.984375 -0.375q-0.703125 0 -1.234375 0.453125q-0.515625 0.4375 -0.8125 1.359375q-0.296875 0.90625 -0.296875 1.75q0 0.890625 0.390625 1.34375q0.390625 0.4375 0.96875 0.4375q0.5625 0 1.078125 -0.4375q0.53125 -0.4375 0.84375 -1.328125zm6.9609375 0.171875l1.15625 0.109375q-0.25 0.859375 -1.140625 1.625q-0.890625 0.765625 -2.125 0.765625q-0.765625 0 -1.40625 -0.34375q-0.640625 -0.359375 -0.984375 -1.03125q-0.328125 -0.6875 -0.328125 -1.546875q0 -1.140625 0.515625 -2.203125q0.53125 -1.0625 1.359375 -1.578125q0.84375 -0.515625 1.8125 -0.515625q1.234375 0 1.96875 0.765625q0.75 0.765625 0.75 2.09375q0 0.5 -0.09375 1.046875l-5.09375 0q-0.03125 0.1875 -0.03125 0.359375q0 0.96875 0.4375 1.484375q0.453125 0.5 1.109375 0.5q0.59375 0 1.171875 -0.390625q0.59375 -0.390625 0.921875 -1.140625zm-3.421875 -1.71875l3.875 0q0.015625 -0.1875 0.015625 -0.265625q0 -0.875 -0.453125 -1.34375q-0.4375 -0.484375 -1.125 -0.484375q-0.765625 0 -1.390625 0.53125q-0.609375 0.515625 -0.921875 1.5625z" fill-rule="nonzero"/><path fill="#000000" fill-opacity="0.0" d="m12.466576 87.47603l436.0315 0" fill-rule="evenodd"/><path stroke="#ff0000" stroke-width="1.0" stroke-linejoin="round" stroke-linecap="butt" d="m12.466577 87.47603l432.24152 0" fill-rule="evenodd"/><path fill="#ff0000" stroke="#ff0000" stroke-width="1.0" stroke-linecap="butt" d="m447.99808 87.47603c0 0.9085083 -0.73651123 1.6450043 -1.6450195 1.6450043c-0.9085083 0 -1.644989 -0.736496 -1.644989 -1.6450043c0 -0.9085083 0.7364807 -1.6449966 1.644989 -1.6449966c0.9085083 0 1.6450195 0.73648834 1.6450195 1.6449966z" fill-rule="nonzero"/></g></svg>