<svg version="1.1" xmlns="http://www.w3.org/2000/svg" viewBox="0 0 586.16015625 164.35546875" width="1172.3203125" height="328.7109375">
  <!-- svg-source:excalidraw -->
  
  <defs>
    <style class="style-fonts">
      @font-face {
        font-family: "Virgil";
        src: url("https://excalidraw.com/Virgil.woff2");
      }
      @font-face {
        font-family: "Cascadia";
        src: url("https://excalidraw.com/Cascadia.woff2");
      }
    </style>
  </defs>
  <rect x="0" y="0" width="586.16015625" height="164.35546875" fill="#ffffff"></rect><g stroke-linecap="round" transform="translate(193.578125 44.1328125) rotate(0 76.5 45)"><path d="M1.31 2.33 C53.16 -4.53, 112.98 -1.18, 153.76 -2.94 M-0.56 -1.78 C34 0.44, 67.97 0, 152.85 1.74 M149.94 2.02 C155.51 27.97, 150.81 57.21, 152.48 88.31 M154.83 -1.35 C155.23 22.39, 154.16 43.96, 152.05 90.53 M154.1 88.88 C110.73 91.42, 77.05 93.02, 1.78 92.87 M153.57 90.27 C100.73 91.7, 49.38 94.14, 1.85 90.35 M0.1 90.11 C2.25 69.54, -3.31 44.23, -2.83 0.57 M-0.71 89.5 C-0.12 60.16, 0.47 28.63, -1.27 1.33" stroke="#000000" stroke-width="1" fill="none"></path></g><g transform="translate(231.46815490722656 76.6328125) rotate(0 38.60997009277344 12.5)"><text x="38.60997009277344" y="0" font-family="Virgil, Segoe UI Emoji" font-size="20px" fill="#000000" text-anchor="middle" style="white-space: pre;" direction="ltr" dominant-baseline="text-before-edge">Catalog</text></g><g stroke-linecap="round" transform="translate(364.16015625 10) rotate(0 106 72.177734375)"><path d="M-1.42 -0.67 C57.98 0.96, 123.68 0.76, 212.06 2.78 M-1.34 0.06 C41.7 -1.87, 85.25 -0.43, 213.64 0.92 M209.11 3.63 C215.06 37.64, 212.78 70.24, 212.74 142.14 M213.5 0.68 C210.94 50.89, 211.03 102.37, 212.47 146.32 M209.44 143.06 C146.3 143.01, 75.58 144.06, 3.25 144.83 M213 145.06 C138.04 145.1, 60.28 145.47, -1.48 143.49 M2.89 140.36 C-0.79 86.59, -0.01 34.3, 0.2 1.95 M-1.37 144.71 C1.65 90.33, -0.68 40.02, 1.28 1.41" stroke="#000000" stroke-width="1" fill="none"></path></g><g transform="translate(424.5990982055664 15) rotate(0 45.439964294433594 12.5)"><text x="45.439964294433594" y="0" font-family="Virgil, Segoe UI Emoji" font-size="20px" fill="#000000" text-anchor="middle" style="white-space: pre;" direction="ltr" dominant-baseline="text-before-edge">RLModule</text></g><g stroke-linecap="round" transform="translate(391.546875 48.52734375) rotate(0 81.033203125 19.646484375)"><path d="M-3.29 2.57 C65.39 -2.55, 130.57 -1.97, 160.82 -0.95 M-1.52 -0.82 C51.97 -1.17, 103.24 -2.76, 162.38 -0.83 M161.61 -3.15 C162.28 8.05, 159.7 24.17, 158.65 40.26 M161.64 0.92 C162.94 16.1, 163.02 31.63, 163.65 39.56 M163.94 43.03 C106.72 44.51, 58.79 40.67, -2.28 38.12 M162.67 37.85 C113.16 39.66, 68.88 38.69, -1.23 39.59 M3.77 35.55 C2.7 21.86, -4.34 10.44, 1.95 3.13 M1.79 38.09 C-1.61 24.36, 0.63 11.07, -1.76 1.7" stroke="#000000" stroke-width="1" fill="none"></path></g><g transform="translate(445.59010314941406 55.673828125) rotate(0 26.989974975585938 12.5)"><text x="26.989974975585938" y="0" font-family="Virgil, Segoe UI Emoji" font-size="20px" fill="#000000" text-anchor="middle" style="white-space: pre;" direction="ltr" dominant-baseline="text-before-edge">Model</text></g><g stroke-linecap="round" transform="translate(392.181640625 100.037109375) rotate(0 81.033203125 19.646484375)"><path d="M-1.09 0.14 C36.91 -1.58, 85.37 3.74, 164.83 -1.43 M-1.65 -0.22 C56.5 -1.62, 114.14 1.52, 163.46 -0.26 M158.57 -0.28 C165.01 10.42, 162.37 18.34, 164.46 42.99 M160.78 -0.8 C160.81 10.88, 161.01 23.29, 161.03 37.62 M160.34 36.28 C123.14 42.02, 81.02 43.21, 2.67 37.2 M162.26 40.58 C118.52 34.98, 76.04 37.73, -0.58 37.75 M-1.91 37.19 C3.04 22.69, -1.86 9.42, 0.68 -2.84 M-0.77 40.42 C1.59 27.87, 1.36 20.55, -0.39 0.7" stroke="#000000" stroke-width="1" fill="none"></path></g><g transform="translate(416.84490966796875 107.18359375) rotate(0 56.36993408203125 12.5)"><text x="56.36993408203125" y="0" font-family="Virgil, Segoe UI Emoji" font-size="20px" fill="#000000" text-anchor="middle" style="white-space: pre;" direction="ltr" dominant-baseline="text-before-edge">Distribution</text></g><g stroke-linecap="round"><g transform="translate(347.8515625 87.1422873800758) rotate(0 20.35157341044396 -8.308172513077835)"><path d="M-3.2 -0.88 C17.21 -3.34, 33.1 -11.43, 41.53 -15.73 M-0.72 -1.96 C8.7 -1.32, 16.19 -5.62, 43.9 -13.94" stroke="#000000" stroke-width="1" fill="none"></path></g><g transform="translate(347.8515625 87.1422873800758) rotate(0 20.35157341044396 -8.308172513077835)"><path d="M23.21 -1.35 C33.95 -4.68, 40.16 -13.22, 43.02 -17.34 M25.69 -2.42 C29.84 -2.02, 32.07 -6.56, 45.39 -15.55" stroke="#000000" stroke-width="1" fill="none"></path></g><g transform="translate(347.8515625 87.1422873800758) rotate(0 20.35157341044396 -8.308172513077835)"><path d="M18.64 -15.74 C31.26 -13.41, 39.25 -16.36, 43.02 -17.34 M21.11 -16.81 C26.33 -13.38, 29.52 -14.88, 45.39 -15.55" stroke="#000000" stroke-width="1" fill="none"></path></g></g><mask></mask><g stroke-linecap="round"><g transform="translate(347.83203125 94.22757164158679) rotate(0 20.580637815408465 7.506317295852654)"><path d="M-1.03 -2.89 C14.83 5.9, 22.76 9.28, 39.46 14.71 M0.23 -1.19 C8.17 4.01, 18.02 8.75, 42.19 17.9" stroke="#000000" stroke-width="1" fill="none"></path></g><g transform="translate(347.83203125 94.22757164158679) rotate(0 20.580637815408465 7.506317295852654)"><path d="M17.96 14.41 C27.6 17.51, 29.52 15.47, 38.95 14.43 M19.22 16.11 C22.55 17.47, 27.85 18.12, 41.68 17.63" stroke="#000000" stroke-width="1" fill="none"></path></g><g transform="translate(347.83203125 94.22757164158679) rotate(0 20.580637815408465 7.506317295852654)"><path d="M23.78 -0.36 C31.81 7.2, 31.94 9.72, 38.95 14.43 M25.04 1.34 C27.07 6.22, 31.02 10.31, 41.68 17.63" stroke="#000000" stroke-width="1" fill="none"></path></g></g><mask></mask><g stroke-linecap="round" transform="translate(13.6875 98.47265625) rotate(0 76 24.5)"><path d="M-3.49 -3.89 C38.51 4.34, 68.45 -0.04, 150.89 1.82 M-0.86 0.09 C41.91 2.29, 86.41 -0.71, 150.46 -0.7 M149.65 3.09 C152.42 12.86, 152.16 21.69, 151.36 50.89 M151.56 1.61 C153.91 19.01, 153.56 38.04, 151.04 47.32 M148.41 50.42 C95.73 49.39, 50.66 54.04, -1.96 51.99 M150.3 49.72 C107.61 50.7, 65.45 48.83, 0.76 49.13 M-3.77 52.72 C3.45 33.56, -0.68 20.36, 1.19 2.72 M-0.99 49.01 C1.49 35.43, -1.37 23.32, 1.32 -1.11" stroke="#000000" stroke-width="1" fill="none"></path></g><g transform="translate(41.11754608154297 110.47265625) rotate(0 48.56995391845703 12.5)"><text x="48.56995391845703" y="0" font-family="Virgil, Segoe UI Emoji" font-size="20px" fill="#000000" text-anchor="middle" style="white-space: pre;" direction="ltr" dominant-baseline="text-before-edge">obs space</text></g><g stroke-linecap="round" transform="translate(10 16.59765625) rotate(0 76 24.5)"><path d="M-3.74 2.94 C33.51 1.43, 62.61 0.44, 150.7 2.66 M0.99 0.73 C41.02 -2.68, 84.67 -2.81, 150.5 -1.17 M154.28 0.48 C153.45 6.89, 149.69 20.32, 154.49 45.28 M152.07 -0.03 C154.22 14.58, 152.43 26.63, 150.47 48.22 M155.23 48.74 C95.52 54.81, 34.67 52.82, -2.28 47.85 M153.61 47.67 C115.27 49.84, 77.78 48.15, 0.93 49.72 M-3.17 48.72 C1.49 41.74, -4.57 25.68, -1.89 2.58 M1.9 47.61 C1.32 32.9, 1.79 21.57, -1.75 0.98" stroke="#000000" stroke-width="1" fill="none"></path></g><g transform="translate(23.74005126953125 28.59765625) rotate(0 62.25994873046875 12.5)"><text x="62.25994873046875" y="0" font-family="Virgil, Segoe UI Emoji" font-size="20px" fill="#000000" text-anchor="middle" style="white-space: pre;" direction="ltr" dominant-baseline="text-before-edge">action space</text></g><g stroke-linecap="round"><g transform="translate(166.8961627157404 33.86602558366383) rotate(0 10.961095553320547 14.952221257802535)"><path d="M-3.99 -2.02 C3.62 12.73, 12.11 20.96, 25.91 30.61 M1.26 -1.87 C8.11 8.43, 12.65 15.18, 22.12 31.92" stroke="#000000" stroke-width="1" fill="none"></path></g><g transform="translate(166.8961627157404 33.86602558366383) rotate(0 10.961095553320547 14.952221257802535)"><path d="M3.11 17.33 C8.81 26.8, 15.04 29.99, 24.56 30.97 M8.27 17.48 C12.77 22.6, 15.13 24.36, 20.84 32.26" stroke="#000000" stroke-width="1" fill="none"></path></g><g transform="translate(166.8961627157404 33.86602558366383) rotate(0 10.961095553320547 14.952221257802535)"><path d="M14.74 10.58 C17.22 21.66, 20.37 26.65, 24.56 30.97 M19.9 10.73 C21.37 17.44, 20.66 20.99, 20.84 32.26" stroke="#000000" stroke-width="1" fill="none"></path></g></g><mask></mask><g stroke-linecap="round"><g transform="translate(169.78941575248382 125.84455880509017) rotate(0 8.953659584761454 -12.709659902782022)"><path d="M-0.62 -0.4 C4.49 -10.04, 14.04 -16.34, 13 -25.02 M0.02 -0.81 C3.75 -8.68, 9.45 -13.14, 18.52 -23.92" stroke="#000000" stroke-width="1" fill="none"></path></g><g transform="translate(169.78941575248382 125.84455880509017) rotate(0 8.953659584761454 -12.709659902782022)"><path d="M12.92 -11.06 C14.37 -16.95, 19.01 -20.51, 15.81 -25.57 M13.37 -11.35 C14.1 -16, 16.18 -18.31, 19.71 -24.8" stroke="#000000" stroke-width="1" fill="none"></path></g><g transform="translate(169.78941575248382 125.84455880509017) rotate(0 8.953659584761454 -12.709659902782022)"><path d="M5.68 -17.45 C9.3 -21.35, 16.21 -22.91, 15.81 -25.57 M6.13 -17.74 C9.05 -20.63, 13.23 -21.09, 19.71 -24.8" stroke="#000000" stroke-width="1" fill="none"></path></g></g><mask></mask></svg>