<svg version="1.1" xmlns="http://www.w3.org/2000/svg" viewBox="0 0 838.2947470678325 230.33542724909057" width="1676.589494135665" height="460.67085449818114">
  <!-- svg-source:excalidraw -->
  
  <defs>
    <style class="style-fonts">
      @font-face {
        font-family: "Virgil";
        src: url("https://excalidraw.com/Virgil.woff2");
      }
      @font-face {
        font-family: "Cascadia";
        src: url("https://excalidraw.com/Cascadia.woff2");
      }
    </style>
  </defs>
  <rect x="0" y="0" width="838.2947470678325" height="230.33542724909057" fill="#ffffff"></rect><g stroke-linecap="round" transform="translate(10 63.55768665365508) rotate(0 100.99181639189871 44.68334959872658)"><path d="M3.47 1.56 C52.69 -1.56, 101.23 -1.56, 202.99 -1.97 M0.93 -0.02 C70.28 1.21, 142.53 1.33, 202.31 1.21 M199.87 0.63 C197.62 33.04, 199.29 63.85, 204.52 92.52 M203.52 0.3 C202.21 21.1, 203.97 45.3, 200.91 91.21 M201.71 86.73 C152.22 93.87, 100.83 93.76, -1.22 86.42 M202.57 90.4 C148.62 91.74, 93.76 89.07, 0.44 87.9 M0 92.55 C1.61 71.41, -0.45 44.96, 1.07 -0.45 M-1.64 88.27 C0.53 62.86, 1.38 36.55, 1.02 -0.12" stroke="#000000" stroke-width="1" fill="none"></path></g><g transform="translate(39.13189207549243 95.74103625238172) rotate(0 71.85992431640625 12.5)"><text x="71.85992431640625" y="0" font-family="Virgil, Segoe UI Emoji" font-size="20px" fill="#000000" text-anchor="middle" style="white-space: pre;" direction="ltr" dominant-baseline="text-before-edge">AlgorihtmConfig</text></g><g stroke-linecap="round" transform="translate(270.26481305881845 130.33542724909057) rotate(0 125.5 45)"><path d="M2.14 1.05 C84.26 1.11, 166.21 5.54, 248.19 3.01 M1.34 0.34 C97.36 4.69, 195.21 3.65, 252.5 -0.34 M247.59 2.49 C252.98 24.82, 254.02 40.48, 248.42 90.97 M249.42 0.26 C252.48 22.26, 249.72 46.35, 250.59 91.25 M253.63 89.52 C175.08 89.67, 100.89 89.82, -2.11 89.11 M251.37 88.77 C158.73 91.04, 66.14 90.31, 0.5 88.5 M-0.35 88.29 C1.27 60.85, -3.74 26.8, 3.85 2.73 M1.81 90.81 C3.17 72.59, -0.09 52.45, 1.9 -1" stroke="#000000" stroke-width="1" fill="none"></path></g><g transform="translate(277.6549192599903 162.83542724909057) rotate(0 118.10989379882812 12.5)"><text x="118.10989379882812" y="0" font-family="Virgil, Segoe UI Emoji" font-size="20px" fill="#000000" text-anchor="middle" style="white-space: pre;" direction="ltr" dominant-baseline="text-before-edge">MultiAgentRLModuleSpec</text></g><g stroke-linecap="round" transform="translate(272.28545807704705 10) rotate(0 125.5 45)"><path d="M-2.44 -0.46 C97.9 -5.97, 202.25 -4.89, 251.32 0.01 M-1.56 -0.85 C77.99 1.26, 157.31 0.57, 249.93 0.45 M250 -0.08 C249.04 17.73, 246.58 40.38, 253.09 86.99 M250.03 -1.04 C251.87 24.82, 250.74 46.81, 249.34 89.72 M252.64 92.59 C184.95 88.21, 114.94 91.66, -1.78 88.66 M249.96 88.65 C183.47 90.86, 113.66 88.58, -0.52 89.12 M2.58 87.25 C-3.22 53.54, -4.12 19.56, 2.85 2.61 M-1.61 91.03 C2.92 65.85, 0.12 39.62, -0.37 -0.68" stroke="#000000" stroke-width="1" fill="none"></path></g><g transform="translate(277.4355664144494 42.5) rotate(0 120.34989166259766 12.5)"><text x="120.34989166259766" y="0" font-family="Virgil, Segoe UI Emoji" font-size="20px" fill="#000000" text-anchor="middle" style="white-space: pre;" direction="ltr" dominant-baseline="text-before-edge">SingleAgentRLModuleSpec</text></g><g stroke-linecap="round" transform="translate(577.2947470678325 72.99346487391699) rotate(0 125.5 45)"><path d="M2.54 1.36 C91.1 0.8, 180.92 5.61, 250.84 -0.92 M-1.6 0.59 C96.64 2.19, 195.3 0.93, 251.54 1.12 M247.01 3.47 C251.66 24, 250.85 42.54, 247.69 90.85 M252.07 1.96 C252.78 18.17, 250.22 37.25, 249.25 91.01 M251.48 88.37 C198.46 87.74, 146.36 89.37, 2.48 87.79 M252.54 89.39 C196.93 94.61, 147.12 91.95, 0.59 90.84 M-2.65 90.06 C1.29 57.2, 1.42 34.83, 2.72 3.47 M-0.5 90.25 C0.71 69.52, 1.93 50.94, 0.88 0.87" stroke="#000000" stroke-width="1" fill="none"></path></g><g transform="translate(664.1847769750591 105.49346487391699) rotate(0 38.60997009277344 12.5)"><text x="38.60997009277344" y="0" font-family="Virgil, Segoe UI Emoji" font-size="20px" fill="#000000" text-anchor="middle" style="white-space: pre;" direction="ltr" dominant-baseline="text-before-edge">Catalog</text></g><g stroke-linecap="round"><g transform="translate(216.28744972241833 108.53705666836413) rotate(0 24.104209284684885 -20.514458458754348)"><path d="M-3.9 1.98 C12.67 -15.64, 24.93 -20.05, 52.11 -43.01" stroke="#000000" stroke-width="1.5" fill="none" stroke-dasharray="8 9"></path></g><g transform="translate(216.28744972241833 108.53705666836413) rotate(0 24.104209284684885 -20.514458458754348)"><path d="M32.42 -15.52 C40.76 -27.49, 44.36 -26.65, 53.68 -39.44" stroke="#000000" stroke-width="1.5" fill="none"></path></g><g transform="translate(216.28744972241833 108.53705666836413) rotate(0 24.104209284684885 -20.514458458754348)"><path d="M19.72 -31.63 C31.53 -39.74, 38.29 -34.9, 53.68 -39.44" stroke="#000000" stroke-width="1.5" fill="none"></path></g></g><mask></mask><g stroke-linecap="round"><g transform="translate(210.75734294917555 122.39124605267443) rotate(0 31.19482030213578 25.119897941228828)"><path d="M3 -3.23 C16.97 12.03, 31.89 28.68, 59.39 53.47" stroke="#000000" stroke-width="1.5" fill="none" stroke-dasharray="8 9"></path></g><g transform="translate(210.75734294917555 122.39124605267443) rotate(0 31.19482030213578 25.119897941228828)"><path d="M34.8 38.45 C40.48 41.97, 47.45 46.75, 60.85 49.88" stroke="#000000" stroke-width="1.5" fill="none"></path></g><g transform="translate(210.75734294917555 122.39124605267443) rotate(0 31.19482030213578 25.119897941228828)"><path d="M48.83 23.48 C50.94 30.98, 54.24 39.69, 60.85 49.88" stroke="#000000" stroke-width="1.5" fill="none"></path></g></g><mask></mask><g stroke-linecap="round"><g transform="translate(528.9921476774275 190.6593349454647) rotate(0 21.347409521978307 -30.457258546623336)"><path d="M1.07 0.82 C13.78 -21.79, 26.37 -41.87, 41.62 -61.73" stroke="#000000" stroke-width="1.5" fill="none" stroke-dasharray="8 9"></path></g><g transform="translate(528.9921476774275 190.6593349454647) rotate(0 21.347409521978307 -30.457258546623336)"><path d="M34.42 -32.08 C37.96 -43.27, 40.8 -52.09, 43.53 -58.35" stroke="#000000" stroke-width="1.5" fill="none"></path></g><g transform="translate(528.9921476774275 190.6593349454647) rotate(0 21.347409521978307 -30.457258546623336)"><path d="M17.82 -44.14 C26.71 -51.68, 34.69 -56.76, 43.53 -58.35" stroke="#000000" stroke-width="1.5" fill="none"></path></g></g><mask></mask><g stroke-linecap="round"><g transform="translate(528.9588060411143 52.47939164382262) rotate(0 22.26439825848888 30.724773061766825)"><path d="M1.72 1.16 C10.77 16.56, 26.33 38.79, 42.8 60.29" stroke="#000000" stroke-width="1.5" fill="none" stroke-dasharray="8 9"></path></g><g transform="translate(528.9588060411143 52.47939164382262) rotate(0 22.26439825848888 30.724773061766825)"><path d="M19.45 44.99 C23.41 47.38, 34.58 56.58, 45.54 59.72" stroke="#000000" stroke-width="1.5" fill="none"></path></g><g transform="translate(528.9588060411143 52.47939164382262) rotate(0 22.26439825848888 30.724773061766825)"><path d="M35.9 32.72 C35.22 38.71, 41.57 51.51, 45.54 59.72" stroke="#000000" stroke-width="1.5" fill="none"></path></g></g><mask></mask></svg>