<svg version="1.1" xmlns="http://www.w3.org/2000/svg" viewBox="0 0 662.45703125 188.384765625" width="662.45703125" height="188.384765625">
  <!-- svg-source:excalidraw -->
  
  <defs>
    <style>
      @font-face {
        font-family: "Virgil";
        src: url("https://excalidraw.com/Virgil.woff2");
      }
      @font-face {
        font-family: "Cascadia";
        src: url("https://excalidraw.com/Cascadia.woff2");
      }
    </style>
  </defs>
  <rect x="0" y="0" width="662.45703125" height="188.384765625" fill="#ffffff"></rect><g stroke-linecap="round" transform="translate(10 64.732421875) rotate(0 70.9296875 38.595703125)"><path d="M-0.6 0.49 C51.18 -1.45, 103.83 -1.41, 141.99 1.26 M0.05 -0.16 C47.55 0.91, 93.79 -0.55, 142.78 0.19 M142.6 -0.79 C140.95 26.2, 143.14 51.76, 140.32 77.57 M142.78 0.21 C142.1 25.03, 141.79 50.23, 141.09 77.2 M142.6 77.91 C93.37 77.38, 43.28 79.02, 0.16 75.64 M142.43 78.08 C104.47 78.12, 66.51 77.66, 0.25 76.72 M0.91 76.14 C1.28 47.6, 0.99 22.5, 1.35 1.96 M-0.56 77.7 C0.38 60.84, 1.03 46.12, -0.29 0.26" stroke="#000000" stroke-width="1" fill="none"></path></g><g transform="translate(29.25 90.455078125) rotate(0 55.5 12.5)"><text x="0" y="18" font-family="Virgil, Segoe UI Emoji" font-size="20px" fill="#000000" text-anchor="start" style="white-space: pre;" direction="ltr">Environment</text></g><g stroke-linecap="round" transform="translate(510.59765625 64.31640625) rotate(0 70.9296875 38.595703125)"><path d="M-0.11 -0.62 C31.38 -0.24, 62.31 -1.21, 141.38 1.44 M-0.66 0.86 C55.4 1.17, 108.94 0.9, 141.77 -0.89 M142.84 1.45 C139.85 17.63, 140.33 37.84, 141.55 77.48 M140.94 -0.81 C141.87 21.13, 141.85 41.75, 141.2 77.28 M139.98 78.08 C104.36 75.63, 67.01 75.85, 1.88 78.09 M142.6 77.55 C92.27 76.54, 41.03 77.24, -0.5 77.7 M0.87 78.49 C-0.65 47.73, 1.54 19.25, 0.97 0.91 M0.99 76.83 C-1.66 58.78, -1.64 41.94, -0.44 -0.26" stroke="#000000" stroke-width="1" fill="none"></path></g><g transform="translate(551.11328125 91.490234375) rotate(0 26.5 12.5)"><text x="0" y="18" font-family="Virgil, Segoe UI Emoji" font-size="20px" fill="#000000" text-anchor="start" style="white-space: pre;" direction="ltr">Policy</text></g><g stroke-linecap="round" transform="translate(217.66796875 10) rotate(0 109.7421875 30)"><path d="M-0.37 -0.15 C45.34 1.51, 88.54 1.38, 220.03 0.17 M0.7 -0.72 C55.96 -1.47, 112.04 -2.26, 218.98 -0.65 M220.6 -1.78 C218.02 15.72, 217.45 33.73, 220.57 59.01 M219.47 -0.19 C220.81 16.71, 220.41 34.37, 218.6 59.73 M218.84 60.2 C132.1 59.22, 44.95 58.38, -0.76 59.17 M219.65 59.51 C154.77 60.9, 88.74 62.18, 0.37 59.64 M0.31 61.22 C2.07 45.73, 0.78 33.11, -0.46 -1.68 M1 60.95 C-0.86 40.92, -0.7 23.1, -0.72 0.55" stroke="#000000" stroke-width="1" fill="none"></path></g><g transform="translate(245.9296875 28.224609375) rotate(0 80 12.5)"><text x="0" y="18" font-family="Virgil, Segoe UI Emoji" font-size="20px" fill="#000000" text-anchor="start" style="white-space: pre;" direction="ltr">AgentConnectors</text></g><g stroke-linecap="round" transform="translate(223.15625 118.384765625) rotate(0 109.7421875 30)"><path d="M-1.48 -0.54 C53.61 -0.2, 106.09 -0.56, 219.53 -0.58 M0.16 0.46 C79.61 -1.58, 158.41 -1.67, 219.36 0.02 M220.43 0.71 C217.58 13.56, 216.93 26.68, 221.35 61.8 M219.18 -0.14 C219.38 13.22, 218.73 26.57, 220.16 60.29 M219.84 59.47 C145.81 58.76, 72.17 57.34, 1.21 60.37 M219.75 60.47 C173.08 59.78, 126.69 59.87, 0.06 59.48 M-1.81 58.64 C1.24 43.29, -0.96 27.64, -1.65 -1.42 M-0.79 59.76 C1.08 38.55, 1.17 14.99, -0.21 -0.9" stroke="#000000" stroke-width="1" fill="none"></path></g><g transform="translate(251.41796875 136.609375) rotate(0 82.5 12.5)"><text x="0" y="18" font-family="Virgil, Segoe UI Emoji" font-size="20px" fill="#000000" text-anchor="start" style="white-space: pre;" direction="ltr">ActionConnectors</text></g><g stroke-linecap="round"><g transform="translate(151.8515625 103.033203125) rotate(0 33.74952547552067 -32.59847294650973)"><path d="M0.75 0.29 C12 -10.63, 56.73 -54.53, 67.81 -65.49 M-0.31 -0.6 C10.72 -11.33, 55.04 -53.42, 66.69 -64.02" stroke="#000000" stroke-width="1" fill="none"></path></g><g transform="translate(151.8515625 103.033203125) rotate(0 33.74952547552067 -32.59847294650973)"><path d="M53.56 -37.82 C57.32 -47.65, 61.82 -53.48, 65.75 -63.1 M52.92 -37.8 C58.06 -48.25, 63.99 -58.47, 65.99 -63.88" stroke="#000000" stroke-width="1" fill="none"></path></g><g transform="translate(151.8515625 103.033203125) rotate(0 33.74952547552067 -32.59847294650973)"><path d="M39.57 -52.83 C47.92 -57.83, 57.01 -58.73, 65.75 -63.1 M38.92 -52.81 C49.48 -57.49, 60.9 -61.8, 65.99 -63.88" stroke="#000000" stroke-width="1" fill="none"></path></g></g><g stroke-linecap="round"><g transform="translate(439.62109375 40.537109375) rotate(0 35.55254395022058 29.067771097132933)"><path d="M0.14 -0.33 C12.04 9.51, 60.34 49.7, 72.35 59.68 M-1.24 -1.55 C10.37 7.93, 59.09 48.25, 71.14 58.13" stroke="#000000" stroke-width="1" fill="none"></path></g><g transform="translate(439.62109375 40.537109375) rotate(0 35.55254395022058 29.067771097132933)"><path d="M42.31 47.29 C55.47 50.76, 66.01 57.21, 69.78 58.44 M42.94 47.65 C48.98 49.76, 56.8 53.53, 70.97 58.45" stroke="#000000" stroke-width="1" fill="none"></path></g><g transform="translate(439.62109375 40.537109375) rotate(0 35.55254395022058 29.067771097132933)"><path d="M55.36 31.45 C63.65 40.96, 69.22 53.43, 69.78 58.44 M56 31.81 C58.75 37.79, 63.39 45.43, 70.97 58.45" stroke="#000000" stroke-width="1" fill="none"></path></g></g><g stroke-linecap="round"><g transform="translate(224.875 146.927734375) rotate(0 -36.20027680147439 -21.69937193797901)"><path d="M-0.28 -0.41 C-12.66 -7.22, -61.46 -34.33, -73.85 -41.26 M1.78 -1.68 C-10.7 -8.78, -61.35 -36.49, -74.18 -42.98" stroke="#000000" stroke-width="1" fill="none"></path></g><g transform="translate(224.875 146.927734375) rotate(0 -36.20027680147439 -21.69937193797901)"><path d="M-45.15 -36.87 C-53.24 -39.66, -64.51 -41.86, -75.92 -43.64 M-44.7 -38.31 C-56.35 -39.83, -67.25 -42.81, -75.11 -42.82" stroke="#000000" stroke-width="1" fill="none"></path></g><g transform="translate(224.875 146.927734375) rotate(0 -36.20027680147439 -21.69937193797901)"><path d="M-54.76 -18.73 C-59.53 -27.65, -67.54 -35.98, -75.92 -43.64 M-54.31 -20.18 C-62.42 -28.34, -69.77 -38.01, -75.11 -42.82" stroke="#000000" stroke-width="1" fill="none"></path></g></g><g stroke-linecap="round"><g transform="translate(508.8046875 102.224609375) rotate(0 -94.693359375 -13.984375)"><path d="M0 0 C-64.03 -9.46, -128.05 -18.91, -189.39 -27.97" stroke="#000000" stroke-width="1.5" fill="none" stroke-dasharray="8 9"></path></g><g transform="translate(508.8046875 102.224609375) rotate(0 -94.693359375 -13.984375)"><path d="M-160 -34 C-169.93 -31.96, -179.87 -29.92, -189.39 -27.97" stroke="#000000" stroke-width="1.5" fill="none"></path></g><g transform="translate(508.8046875 102.224609375) rotate(0 -94.693359375 -13.984375)"><path d="M-163 -13.7 C-171.92 -18.52, -180.84 -23.35, -189.39 -27.97" stroke="#000000" stroke-width="1.5" fill="none"></path></g></g><g stroke-linecap="round"><g transform="translate(510.421875 104.271484375) rotate(0 -34.681640625 22.302734375)"><path d="M0 0 C-20.41 13.12, -40.82 26.25, -69.36 44.61 M0 0 C-14.18 9.12, -28.37 18.24, -69.36 44.61" stroke="#000000" stroke-width="1" fill="none"></path></g><g transform="translate(510.421875 104.271484375) rotate(0 -34.681640625 22.302734375)"><path d="M-51.2 20.73 C-56.55 27.75, -61.89 34.78, -69.36 44.61 M-51.2 20.73 C-54.92 25.61, -58.63 30.49, -69.36 44.61" stroke="#000000" stroke-width="1" fill="none"></path></g><g transform="translate(510.421875 104.271484375) rotate(0 -34.681640625 22.302734375)"><path d="M-40.1 37.99 C-48.71 39.93, -57.32 41.88, -69.36 44.61 M-40.1 37.99 C-46.09 39.34, -52.07 40.69, -69.36 44.61" stroke="#000000" stroke-width="1" fill="none"></path></g></g></svg>