<svg version="1.1" xmlns="http://www.w3.org/2000/svg" viewBox="0 0 772.85546875 240.935546875" width="772.85546875" height="240.935546875">
  <!-- svg-source:excalidraw -->
  
  <defs>
    <style>
      @font-face {
        font-family: "Virgil";
        src: url("https://excalidraw.com/Virgil.woff2");
      }
      @font-face {
        font-family: "Cascadia";
        src: url("https://excalidraw.com/Cascadia.woff2");
      }
    </style>
  </defs>
  <rect x="0" y="0" width="772.85546875" height="240.935546875" fill="#ffffff"></rect><g stroke-linecap="round" transform="translate(10 92.798828125) rotate(0 70.9296875 38.595703125)"><path d="M-0.6 0.49 C51.18 -1.45, 103.83 -1.41, 141.99 1.26 M0.05 -0.16 C47.55 0.91, 93.79 -0.55, 142.78 0.19 M142.6 -0.79 C140.95 26.2, 143.14 51.76, 140.32 77.57 M142.78 0.21 C142.1 25.03, 141.79 50.23, 141.09 77.2 M142.6 77.91 C93.37 77.38, 43.28 79.02, 0.16 75.64 M142.43 78.08 C104.47 78.12, 66.51 77.66, 0.25 76.72 M0.91 76.14 C1.28 47.6, 0.99 22.5, 1.35 1.96 M-0.56 77.7 C0.38 60.84, 1.03 46.12, -0.29 0.26" stroke="#000000" stroke-width="1" fill="none"></path></g><g transform="translate(29.14453125 118.658203125) rotate(0 55.5 12.5)"><text x="0" y="18" font-family="Virgil, Segoe UI Emoji" font-size="20px" fill="#000000" text-anchor="start" style="white-space: pre;" direction="ltr">Environment</text></g><g stroke-linecap="round" transform="translate(620.99609375 93.5078125) rotate(0 70.9296875 38.595703125)"><path d="M-0.11 -0.62 C31.38 -0.24, 62.31 -1.21, 141.38 1.44 M-0.66 0.86 C55.4 1.17, 108.94 0.9, 141.77 -0.89 M142.84 1.45 C139.85 17.63, 140.33 37.84, 141.55 77.48 M140.94 -0.81 C141.87 21.13, 141.85 41.75, 141.2 77.28 M139.98 78.08 C104.36 75.63, 67.01 75.85, 1.88 78.09 M142.6 77.55 C92.27 76.54, 41.03 77.24, -0.5 77.7 M0.87 78.49 C-0.65 47.73, 1.54 19.25, 0.97 0.91 M0.99 76.83 C-1.66 58.78, -1.64 41.94, -0.44 -0.26" stroke="#000000" stroke-width="1" fill="none"></path></g><g transform="translate(661.51171875 120.681640625) rotate(0 26.5 12.5)"><text x="0" y="18" font-family="Virgil, Segoe UI Emoji" font-size="20px" fill="#000000" text-anchor="start" style="white-space: pre;" direction="ltr">Policy</text></g><g stroke-linecap="round" transform="translate(222.06640625 10) rotate(0 137.30078125 44.595703125)"><path d="M-0.33 -0.13 C56.6 1.31, 111.29 1.2, 275.09 0.15 M0.63 -0.65 C70.02 -1.68, 140.13 -2.38, 274.15 -0.58 M275.72 -1.78 C272.92 23.85, 272.34 49.99, 275.69 88.2 M274.59 -0.19 C276.11 25.11, 275.71 51.17, 273.72 88.92 M274.03 89.37 C165.61 88.45, 56.84 87.7, -0.68 88.45 M274.75 88.75 C193.54 90.37, 111.31 91.52, 0.33 88.87 M0.31 90.41 C2.16 68.18, 0.87 48.81, -0.46 -1.68 M1 90.14 C-1.1 61.31, -0.94 34.68, -0.72 0.55" stroke="#000000" stroke-width="1" fill="none"></path></g><g transform="translate(228.79296875 15.330078125) rotate(0 87.5 10)"><text x="0" y="14" font-family="Virgil, Segoe UI Emoji" font-size="16px" fill="#000000" text-anchor="start" style="white-space: pre;" direction="ltr">AgentConnectorPipeline</text></g><g stroke-linecap="round" transform="translate(227.5546875 147.576171875) rotate(0 133.12109375 41.6796875)"><path d="M-1.35 -0.5 C64.72 -0.32, 128.41 -0.65, 266.28 -0.53 M0.14 0.42 C96.43 -1.79, 192.13 -1.87, 266.13 0.02 M267.19 0.71 C264.11 19.11, 263.46 37.77, 268.11 85.16 M265.94 -0.14 C266.18 18.43, 265.53 36.97, 266.92 83.65 M266.57 82.87 C176.66 81.93, 87.1 80.63, 1.1 83.7 M266.48 83.79 C210.07 83.06, 153.91 83.14, 0.06 82.88 M-1.81 82 C1.09 60, -1.11 37.69, -1.65 -1.42 M-0.79 83.12 C1.18 53.22, 1.27 20.97, -0.21 -0.9" stroke="#000000" stroke-width="1" fill="none"></path></g><g transform="translate(234.3671875 153.0859375) rotate(0 89.5 10)"><text x="0" y="14" font-family="Virgil, Segoe UI Emoji" font-size="16px" fill="#000000" text-anchor="start" style="white-space: pre;" direction="ltr">ActionConnectorPipeline</text></g><g stroke-linecap="round"><g transform="translate(151.74609375 128.9540788921256) rotate(0 38.47687619582683 -44.521801455072534)"><path d="M0.75 0.29 C13.57 -14.6, 64.61 -74.4, 77.26 -89.34 M-0.31 -0.6 C12.3 -15.3, 62.91 -73.29, 76.15 -87.87" stroke="#000000" stroke-width="1" fill="none"></path></g><g transform="translate(151.74609375 128.9540788921256) rotate(0 38.47687619582683 -44.521801455072534)"><path d="M65.6 -60.5 C68.51 -70.7, 72.17 -76.91, 75.21 -86.95 M64.95 -60.48 C69.09 -71.37, 74 -82.04, 75.45 -87.73" stroke="#000000" stroke-width="1" fill="none"></path></g><g transform="translate(151.74609375 128.9540788921256) rotate(0 38.47687619582683 -44.521801455072534)"><path d="M50.25 -74.13 C58.2 -79.95, 66.89 -81.69, 75.21 -86.95 M49.6 -74.1 C59.69 -79.78, 70.63 -85.09, 75.45 -87.73" stroke="#000000" stroke-width="1" fill="none"></path></g></g><g stroke-linecap="round"><g transform="translate(499.984375 56.197265625) rotate(0 60.57012207522064 35.83339609713293)"><path d="M0.14 -0.33 C20.38 11.77, 102.04 60.98, 122.38 73.21 M-1.24 -1.55 C18.71 10.18, 100.78 59.53, 121.17 71.66" stroke="#000000" stroke-width="1" fill="none"></path></g><g transform="translate(499.984375 56.197265625) rotate(0 60.57012207522064 35.83339609713293)"><path d="M91.16 65.16 C104.75 66.98, 115.73 71.78, 119.82 71.97 M91.8 65.52 C98.15 66.57, 106.26 69.29, 121 71.98" stroke="#000000" stroke-width="1" fill="none"></path></g><g transform="translate(499.984375 56.197265625) rotate(0 60.57012207522064 35.83339609713293)"><path d="M101.7 47.55 C111.38 56.07, 118.35 67.57, 119.82 71.97 M102.34 47.91 C106.01 53.26, 111.55 60.27, 121 71.98" stroke="#000000" stroke-width="1" fill="none"></path></g></g><g stroke-linecap="round"><g transform="translate(229.2734375 176.119140625) rotate(0 -38.45222992647439 -22.35459660097365)"><path d="M-0.28 -0.41 C-13.42 -7.44, -65.21 -35.43, -78.36 -42.57 M1.78 -1.68 C-11.46 -9, -65.1 -37.58, -78.68 -44.29" stroke="#000000" stroke-width="1" fill="none"></path></g><g transform="translate(229.2734375 176.119140625) rotate(0 -38.45222992647439 -22.35459660097365)"><path d="M-49.62 -38.49 C-57.72 -41.18, -69 -43.27, -80.42 -44.95 M-49.17 -39.93 C-60.83 -41.33, -71.74 -44.2, -79.61 -44.13" stroke="#000000" stroke-width="1" fill="none"></path></g><g transform="translate(229.2734375 176.119140625) rotate(0 -38.45222992647439 -22.35459660097365)"><path d="M-59.04 -20.26 C-63.88 -29.1, -71.97 -37.36, -80.42 -44.95 M-58.59 -21.7 C-66.78 -29.78, -74.22 -39.37, -79.61 -44.13" stroke="#000000" stroke-width="1" fill="none"></path></g></g><g stroke-linecap="round"><g transform="translate(618.3308036804199 129.62416548510996) rotate(0 -110.33350578225259 -14.506287263734166)"><path d="M0 0 C-74.6 -9.81, -149.2 -19.62, -220.67 -29.01" stroke="#000000" stroke-width="1.5" fill="none" stroke-dasharray="8 9"></path></g><g transform="translate(618.3308036804199 129.62416548510996) rotate(0 -110.33350578225259 -14.506287263734166)"><path d="M-191.38 -35.51 C-201.28 -33.31, -211.18 -31.12, -220.67 -29.01" stroke="#000000" stroke-width="1.5" fill="none"></path></g><g transform="translate(618.3308036804199 129.62416548510996) rotate(0 -110.33350578225259 -14.506287263734166)"><path d="M-194.05 -15.16 C-203.05 -19.85, -212.05 -24.53, -220.67 -29.01" stroke="#000000" stroke-width="1.5" fill="none"></path></g></g><g stroke-linecap="round"><g transform="translate(620.69140625 133.587890625) rotate(0 -63.162109375 28.30078125)"><path d="M0 0 C-37.17 16.65, -74.34 33.31, -126.32 56.6 M0 0 C-25.83 11.57, -51.66 23.15, -126.32 56.6" stroke="#000000" stroke-width="1" fill="none"></path></g><g transform="translate(620.69140625 133.587890625) rotate(0 -63.162109375 28.30078125)"><path d="M-104.79 35.71 C-111.13 41.86, -117.46 48, -126.32 56.6 M-104.79 35.71 C-109.2 39.98, -113.6 44.25, -126.32 56.6" stroke="#000000" stroke-width="1" fill="none"></path></g><g transform="translate(620.69140625 133.587890625) rotate(0 -63.162109375 28.30078125)"><path d="M-96.4 54.44 C-105.21 55.07, -114.01 55.71, -126.32 56.6 M-96.4 54.44 C-102.52 54.88, -108.64 55.32, -126.32 56.6" stroke="#000000" stroke-width="1" fill="none"></path></g></g><g stroke-linecap="round" transform="translate(238.88671875 42.455078125) rotate(0 97 14.779296875)"><path d="M-0.48 1.77 L194.54 -1.97 L194.99 30.01 L1.58 30.28" stroke="none" stroke-width="0" fill="#ffffff"></path><path d="M1.04 1.87 C61.51 -0.37, 119.9 0.92, 192.2 -1.96 M-0.35 0.69 C49.5 0.42, 97.37 -0.42, 194.55 0.43 M194.83 -1.07 C194.14 7.98, 195.65 18.04, 194.76 30.66 M194.93 0.14 C194.68 5.11, 194.66 11.84, 193.95 29.73 M193.71 29.21 C143.56 32.19, 91.15 28.87, -1.03 27.63 M193.54 29.69 C131.27 28.03, 68.8 27.7, -0.77 28.8 M0.81 30.23 C-0.02 21.82, -1.65 9.94, -0.47 0.14 M-0.19 29.99 C-1.21 23.41, -0.99 18.21, -0.41 0.44" stroke="#000000" stroke-width="1" fill="none"></path></g><g stroke-linecap="round" transform="translate(262.63671875 49.87890625) rotate(0 97 14.779296875)"><path d="M1.67 -0.81 L194.87 -0.48 L195.77 30.1 L-1.97 30.54" stroke="none" stroke-width="0" fill="#ffffff"></path><path d="M0.25 -1.19 C72.76 -0.62, 145.47 -0.81, 194.56 -1.42 M-0.47 0.59 C75.98 1.55, 152.98 2.24, 194.1 -0.95 M194.14 1.62 C193.17 7.52, 193.09 13.29, 192.9 30.96 M193.02 0.14 C194.95 9.62, 194.25 18.03, 193.15 30.17 M193.22 28.03 C138.59 29.6, 80.68 30.06, 1.59 27.94 M194.24 28.88 C152.17 27.23, 111.4 27.82, -0.62 30.07 M0.16 30.04 C0.69 24.31, 0.9 17.49, 1.36 -1.58 M-0.94 30.46 C-0.03 22.6, 0.5 15.07, -0.06 -0.72" stroke="#000000" stroke-width="1" fill="none"></path></g><g stroke-linecap="round" transform="translate(288.58203125 57.87890625) rotate(0 97 14.779296875)"><path d="M0.85 -1.88 L193.88 -1.44 L195.67 28.75 L0.87 29.08" stroke="none" stroke-width="0" fill="#ffffff"></path><path d="M-0.09 1.4 C59.99 -0.19, 117.86 -3.09, 194.96 1.04 M-0.71 0.92 C75.41 -1.53, 152.16 0.04, 193.84 -0.35 M192.11 -1.47 C195.19 11.78, 194.24 23.45, 193.01 30.39 M194.7 -0.06 C194.37 7.84, 193 14.72, 194.84 30.48 M195.23 29.38 C132.98 28.25, 71.36 26.38, 1.08 29.27 M193.19 28.69 C138.63 30.13, 84.53 30.42, -0.47 29.1 M1.02 27.66 C-1.58 18.79, 0.12 11.53, 0.46 0.81 M-0.79 28.85 C-0.24 19.77, -0.95 10.74, -0.09 -0.19" stroke="#000000" stroke-width="1" fill="none"></path></g><g transform="translate(325.3203125 63.126953125) rotate(0 60 10)"><text x="0" y="14" font-family="Virgil, Segoe UI Emoji" font-size="16px" fill="#000000" text-anchor="start" style="white-space: pre;" direction="ltr">AgentConnector</text></g><g stroke-linecap="round" transform="translate(239.09375 176.4169921875) rotate(0 97 14.779296875)"><path d="M0.99 0.45 L195.58 0.72 L195.3 28.71 L1.6 30.01" stroke="none" stroke-width="0" fill="#ffffff"></path><path d="M-1.42 1.85 C74.51 -2.51, 151.7 0.63, 193.67 -0.71 M-0.95 -0.74 C72.19 0.23, 143.36 0.61, 193.5 0.41 M195.41 -0.12 C194.75 8.4, 192.02 14.86, 195.68 31.41 M194.62 -0.09 C194.14 9.46, 193.8 17.8, 194.54 29.41 M192.38 27.82 C138.12 29.17, 84.77 29.74, -0.94 28.64 M194.51 28.61 C132.48 27.59, 72.59 28.59, 0.23 29.96 M-1.58 28.14 C-0.48 19.84, -1.89 11.65, -0.19 -0.37 M-0.72 30.4 C-0.13 19.87, 0.04 10.19, 0.27 -0.99" stroke="#000000" stroke-width="1" fill="none"></path></g><g stroke-linecap="round" transform="translate(262.84375 183.7275390625) rotate(0 97 14.779296875)"><path d="M0.72 1.3 L193.15 1.6 L194.45 28.25 L1.44 29.31" stroke="none" stroke-width="0" fill="#ffffff"></path><path d="M-1.96 -0.93 C45.56 1.42, 88.07 3.13, 194.68 0.21 M0.43 0.07 C40.66 -1.56, 80.12 -1.59, 193.95 -0.55 M195.11 -1.96 C194.26 12.63, 195.83 22.17, 195.27 27.85 M194.17 -0.39 C193.21 11.23, 193.83 21.2, 194.09 30.35 M192.07 30.04 C150.18 27.62, 108.16 28.82, 0.26 28.31 M193.24 29.64 C126.19 28.29, 58.31 28.4, 0.02 30.24 M0.14 27.68 C2.02 22.84, -0.16 17.35, -1.88 -0.12 M0.44 29.32 C0.64 23.09, -1.23 16.58, 0.23 0.79" stroke="#000000" stroke-width="1" fill="none"></path></g><g stroke-linecap="round" transform="translate(288.7890625 191.8408203125) rotate(0 97 14.779296875)"><path d="M1.6 0.45 L192.69 1.44 L193.75 28.39 L-0.76 30.54" stroke="none" stroke-width="0" fill="#ffffff"></path><path d="M-0.33 -0.71 C40.55 -0.46, 78.54 -3.03, 192.53 1.09 M-0.5 0.41 C66.05 -1.62, 132.63 -0.87, 193.94 0.38 M195.68 1.85 C193.99 11.77, 192.01 22.23, 193.82 29.46 M194.54 -0.15 C193.71 9.46, 194.68 17.95, 193.13 29.04 M193.06 28.64 C154.74 28.5, 113.71 29.26, -1.9 28.01 M194.23 29.96 C150.84 30.05, 107.69 29.24, -0.71 29.32 M-0.19 29.19 C1.13 18.61, 0.16 9.98, 1.67 -0.81 M0.27 28.57 C0.56 19.62, 0.86 9.6, 0.65 -0.42" stroke="#000000" stroke-width="1" fill="none"></path></g><g transform="translate(325.52734375 197.0888671875) rotate(0 62 10)"><text x="0" y="14" font-family="Virgil, Segoe UI Emoji" font-size="16px" fill="#000000" text-anchor="start" style="white-space: pre;" direction="ltr">ActionConnector</text></g></svg>