<svg version="1.1" viewBox="0.0 0.0 631.0 144.0" fill="none" stroke="none" stroke-linecap="square" stroke-miterlimit="10" xmlns:xlink="http://www.w3.org/1999/xlink" xmlns="http://www.w3.org/2000/svg"><clipPath id="p.0"><path d="m0 0l631.0 0l0 144.0l-631.0 0l0 -144.0z" clip-rule="nonzero"/></clipPath><g clip-path="url(#p.0)"><path fill="#000000" fill-opacity="0.0" d="m0 0l631.0 0l0 144.0l-631.0 0z" fill-rule="evenodd"/><path fill="#ffffff" d="m72.98425 27.519686l81.98425 0l0 83.338585l-81.98425 0z" fill-rule="evenodd"/><path stroke="#000000" stroke-width="1.0" stroke-linejoin="round" stroke-linecap="butt" d="m72.98425 27.519686l81.98425 0l0 83.338585l-81.98425 0z" fill-rule="evenodd"/><path fill="#000000" d="m86.828 76.10897l0 -11.78125l-4.40625 0l0 -1.578125l10.578125 0l0 1.578125l-4.40625 0l0 11.78125l-1.765625 0zm7.0782776 0l0 -9.671875l1.46875 0l0 1.46875q0.5625 -1.03125 1.03125 -1.359375q0.484375 -0.328125 1.0625 -0.328125q0.828125 0 1.6875 0.53125l-0.5625 1.515625q-0.609375 -0.359375 -1.203125 -0.359375q-0.546875 0 -0.96875 0.328125q-0.421875 0.328125 -0.609375 0.890625q-0.28125 0.875 -0.28125 1.921875l0 5.0625l-1.625 0zm12.540802 -1.1875q-0.921875 0.765625 -1.765625 1.09375q-0.828125 0.3125 -1.796875 0.3125q-1.59375 0 -2.453125 -0.78125q-0.859375 -0.78125 -0.859375 -1.984375q0 -0.71875 0.328125 -1.296875q0.328125 -0.59375 0.84375 -0.9375q0.53125 -0.359375 1.1875 -0.546875q0.46875 -0.125 1.453125 -0.25q1.984375 -0.234375 2.921875 -0.5625q0.015625 -0.34375 0.015625 -0.421875q0 -1.0 -0.46875 -1.421875q-0.625 -0.546875 -1.875 -0.546875q-1.15625 0 -1.703125 0.40625q-0.546875 0.40625 -0.8125 1.421875l-1.609375 -0.21875q0.21875 -1.015625 0.71875 -1.640625q0.5 -0.640625 1.453125 -0.984375q0.953125 -0.34375 2.1875 -0.34375q1.25 0 2.015625 0.296875q0.78125 0.28125 1.140625 0.734375q0.375 0.4375 0.515625 1.109375q0.078125 0.421875 0.078125 1.515625l0 2.1875q0 2.28125 0.109375 2.890625q0.109375 0.59375 0.40625 1.15625l-1.703125 0q-0.265625 -0.515625 -0.328125 -1.1875zm-0.140625 -3.671875q-0.890625 0.375 -2.671875 0.625q-1.015625 0.140625 -1.4375 0.328125q-0.421875 0.1875 -0.65625 0.53125q-0.21875 0.34375 -0.21875 0.78125q0 0.65625 0.5 1.09375q0.5 0.4375 1.453125 0.4375q0.9375 0 1.671875 -0.40625q0.75 -0.421875 1.09375 -1.140625q0.265625 -0.5625 0.265625 -1.640625l0 -0.609375zm4.203842 -6.609375l0 -1.890625l1.640625 0l0 1.890625l-1.640625 0zm0 11.46875l0 -9.671875l1.640625 0l0 9.671875l-1.640625 0zm4.144821 0l0 -9.671875l1.46875 0l0 1.375q1.0625 -1.59375 3.078125 -1.59375q0.875 0 1.609375 0.3125q0.734375 0.3125 1.09375 0.828125q0.375 0.5 0.515625 1.203125q0.09375 0.453125 0.09375 1.59375l0 5.953125l-1.640625 0l0 -5.890625q0 -1.0 -0.203125 -1.484375q-0.1875 -0.5 -0.671875 -0.796875q-0.484375 -0.296875 -1.140625 -0.296875q-1.046875 0 -1.8125 0.671875q-0.75 0.65625 -0.75 2.515625l0 5.28125l-1.640625 0zm17.000717 -3.109375l1.6875 0.203125q-0.40625 1.484375 -1.484375 2.3125q-1.078125 0.8125 -2.765625 0.8125q-2.125 0 -3.375 -1.296875q-1.234375 -1.3125 -1.234375 -3.671875q0 -2.453125 1.25 -3.796875q1.265625 -1.34375 3.265625 -1.34375q1.9375 0 3.15625 1.328125q1.234375 1.3125 1.234375 3.703125q0 0.15625 0 0.4375l-7.21875 0q0.09375 1.59375 0.90625 2.453125q0.8125 0.84375 2.015625 0.84375q0.90625 0 1.546875 -0.46875q0.640625 -0.484375 1.015625 -1.515625zm-5.390625 -2.65625l5.40625 0q-0.109375 -1.21875 -0.625 -1.828125q-0.78125 -0.953125 -2.03125 -0.953125q-1.125 0 -1.90625 0.765625q-0.765625 0.75 -0.84375 2.015625zm9.125717 5.765625l0 -9.671875l1.46875 0l0 1.46875q0.5625 -1.03125 1.03125 -1.359375q0.484375 -0.328125 1.0625 -0.328125q0.828125 0 1.6875 0.53125l-0.5625 1.515625q-0.609375 -0.359375 -1.203125 -0.359375q-0.546875 0 -0.96875 0.328125q-0.421875 0.328125 -0.609375 0.890625q-0.28125 0.875 -0.28125 1.921875l0 5.0625l-1.625 0z" fill-rule="nonzero"/><path fill="#ffffff" d="m302.44882 32.372704l223.2756 0l0 46.708664l-223.2756 0z" fill-rule="evenodd"/><path stroke="#000000" stroke-width="1.0" stroke-linejoin="round" stroke-linecap="butt" d="m302.44882 32.372704l223.2756 0l0 46.708664l-223.2756 0z" fill-rule="evenodd"/><path fill="#000000" d="m349.37497 62.647034l0 -13.359375l5.921875 0q1.78125 0 2.703125 0.359375q0.9375 0.359375 1.484375 1.28125q0.5625 0.90625 0.5625 2.015625q0 1.40625 -0.921875 2.390625q-0.921875 0.96875 -2.84375 1.234375q0.703125 0.34375 1.078125 0.671875q0.765625 0.703125 1.453125 1.765625l2.328125 3.640625l-2.21875 0l-1.765625 -2.78125q-0.78125 -1.203125 -1.28125 -1.828125q-0.5 -0.640625 -0.90625 -0.890625q-0.390625 -0.265625 -0.796875 -0.359375q-0.296875 -0.078125 -0.984375 -0.078125l-2.046875 0l0 5.9375l-1.765625 0zm1.765625 -7.453125l3.796875 0q1.21875 0 1.890625 -0.25q0.6875 -0.265625 1.046875 -0.8125q0.359375 -0.546875 0.359375 -1.1875q0 -0.953125 -0.6875 -1.5625q-0.6875 -0.609375 -2.1875 -0.609375l-4.21875 0l0 4.421875zm10.863556 2.609375q0 -2.6875 1.484375 -3.96875q1.25 -1.078125 3.046875 -1.078125q2.0 0 3.265625 1.3125q1.265625 1.296875 1.265625 3.609375q0 1.859375 -0.5625 2.9375q-0.5625 1.0625 -1.640625 1.65625q-1.0625 0.59375 -2.328125 0.59375q-2.03125 0 -3.28125 -1.296875q-1.25 -1.3125 -1.25 -3.765625zm1.6875 0q0 1.859375 0.796875 2.796875q0.8125 0.921875 2.046875 0.921875q1.21875 0 2.03125 -0.921875q0.8125 -0.9375 0.8125 -2.84375q0 -1.796875 -0.8125 -2.71875q-0.8125 -0.921875 -2.03125 -0.921875q-1.234375 0 -2.046875 0.921875q-0.796875 0.90625 -0.796875 2.765625zm9.250732 4.84375l0 -13.359375l1.640625 0l0 13.359375l-1.640625 0zm4.144806 0l0 -13.359375l1.640625 0l0 13.359375l-1.640625 0zm3.5823364 -4.84375q0 -2.6875 1.484375 -3.96875q1.25 -1.078125 3.046875 -1.078125q2.0 0 3.265625 1.3125q1.265625 1.296875 1.265625 3.609375q0 1.859375 -0.5625 2.9375q-0.5625 1.0625 -1.640625 1.65625q-1.0625 0.59375 -2.328125 0.59375q-2.03125 0 -3.28125 -1.296875q-1.25 -1.3125 -1.25 -3.765625zm1.6875 0q0 1.859375 0.796875 2.796875q0.8125 0.921875 2.046875 0.921875q1.21875 0 2.03125 -0.921875q0.8125 -0.9375 0.8125 -2.84375q0 -1.796875 -0.8125 -2.71875q-0.8125 -0.921875 -2.03125 -0.921875q-1.234375 0 -2.046875 0.921875q-0.796875 0.90625 -0.796875 2.765625zm15.625702 4.84375l0 -1.421875q-1.125 1.640625 -3.0625 1.640625q-0.859375 0 -1.609375 -0.328125q-0.734375 -0.328125 -1.09375 -0.828125q-0.359375 -0.5 -0.5 -1.21875q-0.109375 -0.46875 -0.109375 -1.53125l0 -5.984375l1.640625 0l0 5.359375q0 1.28125 0.109375 1.734375q0.15625 0.640625 0.65625 1.015625q0.5 0.375 1.234375 0.375q0.734375 0 1.375 -0.375q0.65625 -0.390625 0.921875 -1.03125q0.265625 -0.65625 0.265625 -1.890625l0 -5.1875l1.640625 0l0 9.671875l-1.46875 0zm7.6257324 -1.46875l0.234375 1.453125q-0.6875 0.140625 -1.234375 0.140625q-0.890625 0 -1.390625 -0.28125q-0.484375 -0.28125 -0.6875 -0.734375q-0.203125 -0.46875 -0.203125 -1.9375l0 -5.578125l-1.203125 0l0 -1.265625l1.203125 0l0 -2.390625l1.625 -0.984375l0 3.375l1.65625 0l0 1.265625l-1.65625 0l0 5.671875q0 0.6875 0.078125 0.890625q0.09375 0.203125 0.28125 0.328125q0.203125 0.109375 0.578125 0.109375q0.265625 0 0.71875 -0.0625zm9.319733 1.46875l-3.53125 -13.359375l1.8125 0l2.03125 8.765625q0.328125 1.375 0.5625 2.71875q0.5 -2.140625 0.59375 -2.46875l2.546875 -9.015625l2.125 0l1.921875 6.765625q0.71875 2.515625 1.03125 4.71875q0.265625 -1.265625 0.671875 -2.890625l2.09375 -8.59375l1.78125 0l-3.671875 13.359375l-1.703125 0l-2.8125 -10.171875q-0.359375 -1.28125 -0.421875 -1.5625q-0.203125 0.90625 -0.390625 1.5625l-2.828125 10.171875l-1.8125 0zm14.130798 -4.84375q0 -2.6875 1.484375 -3.96875q1.25 -1.078125 3.046875 -1.078125q2.0 0 3.265625 1.3125q1.265625 1.296875 1.265625 3.609375q0 1.859375 -0.5625 2.9375q-0.5625 1.0625 -1.640625 1.65625q-1.0625 0.59375 -2.328125 0.59375q-2.03125 0 -3.28125 -1.296875q-1.25 -1.3125 -1.25 -3.765625zm1.6875 0q0 1.859375 0.796875 2.796875q0.8125 0.921875 2.046875 0.921875q1.21875 0 2.03125 -0.921875q0.8125 -0.9375 0.8125 -2.84375q0 -1.796875 -0.8125 -2.71875q-0.8125 -0.921875 -2.03125 -0.921875q-1.234375 0 -2.046875 0.921875q-0.796875 0.90625 -0.796875 2.765625zm9.281952 4.84375l0 -9.671875l1.46875 0l0 1.46875q0.5625 -1.03125 1.03125 -1.359375q0.484375 -0.328125 1.0625 -0.328125q0.828125 0 1.6875 0.53125l-0.5625 1.515625q-0.609375 -0.359375 -1.203125 -0.359375q-0.546875 0 -0.96875 0.328125q-0.421875 0.328125 -0.609375 0.890625q-0.28125 0.875 -0.28125 1.921875l0 5.0625l-1.625 0zm6.228302 0l0 -13.359375l1.640625 0l0 7.625l3.890625 -3.9375l2.109375 0l-3.6875 3.59375l4.0625 6.078125l-2.015625 0l-3.203125 -4.953125l-1.15625 1.125l0 3.828125l-1.640625 0zm15.953125 -3.109375l1.6875 0.203125q-0.40625 1.484375 -1.484375 2.3125q-1.078125 0.8125 -2.765625 0.8125q-2.125 0 -3.375 -1.296875q-1.234375 -1.3125 -1.234375 -3.671875q0 -2.453125 1.25 -3.796875q1.265625 -1.34375 3.265625 -1.34375q1.9375 0 3.15625 1.328125q1.234375 1.3125 1.234375 3.703125q0 0.15625 0 0.4375l-7.21875 0q0.09375 1.59375 0.90625 2.453125q0.8125 0.84375 2.015625 0.84375q0.90625 0 1.546875 -0.46875q0.640625 -0.484375 1.015625 -1.515625zm-5.390625 -2.65625l5.40625 0q-0.109375 -1.21875 -0.625 -1.828125q-0.78125 -0.953125 -2.03125 -0.953125q-1.125 0 -1.90625 0.765625q-0.765625 0.75 -0.84375 2.015625zm9.125732 5.765625l0 -9.671875l1.46875 0l0 1.46875q0.5625 -1.03125 1.03125 -1.359375q0.484375 -0.328125 1.0625 -0.328125q0.828125 0 1.6875 0.53125l-0.5625 1.515625q-0.609375 -0.359375 -1.203125 -0.359375q-0.546875 0 -0.96875 0.328125q-0.421875 0.328125 -0.609375 0.890625q-0.28125 0.875 -0.28125 1.921875l0 5.0625l-1.625 0zm5.572052 -2.890625l1.625 -0.25q0.125 0.96875 0.75 1.5q0.625 0.515625 1.75 0.515625q1.125 0 1.671875 -0.453125q0.546875 -0.46875 0.546875 -1.09375q0 -0.546875 -0.484375 -0.875q-0.328125 -0.21875 -1.671875 -0.546875q-1.8125 -0.46875 -2.515625 -0.796875q-0.6875 -0.328125 -1.046875 -0.90625q-0.359375 -0.59375 -0.359375 -1.3125q0 -0.640625 0.296875 -1.1875q0.296875 -0.5625 0.8125 -0.921875q0.375 -0.28125 1.03125 -0.46875q0.671875 -0.203125 1.421875 -0.203125q1.140625 0 2.0 0.328125q0.859375 0.328125 1.265625 0.890625q0.421875 0.5625 0.578125 1.5l-1.609375 0.21875q-0.109375 -0.75 -0.640625 -1.171875q-0.515625 -0.421875 -1.46875 -0.421875q-1.140625 0 -1.625 0.375q-0.46875 0.375 -0.46875 0.875q0 0.3125 0.1875 0.578125q0.203125 0.265625 0.640625 0.4375q0.234375 0.09375 1.4375 0.421875q1.75 0.453125 2.4375 0.75q0.6875 0.296875 1.078125 0.859375q0.390625 0.5625 0.390625 1.40625q0 0.828125 -0.484375 1.546875q-0.46875 0.71875 -1.375 1.125q-0.90625 0.390625 -2.046875 0.390625q-1.875 0 -2.875 -0.78125q-0.984375 -0.78125 -1.25 -2.328125z" fill-rule="nonzero"/><path fill="#ffffff" d="m310.44882 40.372704l223.2756 0l0 46.708664l-223.2756 0z" fill-rule="evenodd"/><path stroke="#000000" stroke-width="1.0" stroke-linejoin="round" stroke-linecap="butt" d="m310.44882 40.372704l223.2756 0l0 46.708664l-223.2756 0z" fill-rule="evenodd"/><path fill="#000000" d="m357.37497 70.64703l0 -13.359375l5.921875 0q1.78125 0 2.703125 0.359375q0.9375 0.359375 1.484375 1.28125q0.5625 0.90625 0.5625 2.015625q0 1.40625 -0.921875 2.390625q-0.921875 0.96875 -2.84375 1.234375q0.703125 0.34375 1.078125 0.671875q0.765625 0.703125 1.453125 1.765625l2.328125 3.640625l-2.21875 0l-1.765625 -2.78125q-0.78125 -1.203125 -1.28125 -1.828125q-0.5 -0.640625 -0.90625 -0.890625q-0.390625 -0.265625 -0.796875 -0.359375q-0.296875 -0.078125 -0.984375 -0.078125l-2.046875 0l0 5.9375l-1.765625 0zm1.765625 -7.453125l3.796875 0q1.21875 0 1.890625 -0.25q0.6875 -0.265625 1.046875 -0.8125q0.359375 -0.546875 0.359375 -1.1875q0 -0.953125 -0.6875 -1.5625q-0.6875 -0.609375 -2.1875 -0.609375l-4.21875 0l0 4.421875zm10.863556 2.609375q0 -2.6875 1.484375 -3.96875q1.25 -1.078125 3.046875 -1.078125q2.0 0 3.265625 1.3125q1.265625 1.296875 1.265625 3.609375q0 1.859375 -0.5625 2.9375q-0.5625 1.0625 -1.640625 1.65625q-1.0625 0.59375 -2.328125 0.59375q-2.03125 0 -3.28125 -1.296875q-1.25 -1.3125 -1.25 -3.765625zm1.6875 0q0 1.859375 0.796875 2.796875q0.8125 0.921875 2.046875 0.921875q1.21875 0 2.03125 -0.921875q0.8125 -0.9375 0.8125 -2.84375q0 -1.796875 -0.8125 -2.71875q-0.8125 -0.921875 -2.03125 -0.921875q-1.234375 0 -2.046875 0.921875q-0.796875 0.90625 -0.796875 2.765625zm9.250732 4.84375l0 -13.359375l1.640625 0l0 13.359375l-1.640625 0zm4.144806 0l0 -13.359375l1.640625 0l0 13.359375l-1.640625 0zm3.5823364 -4.84375q0 -2.6875 1.484375 -3.96875q1.25 -1.078125 3.046875 -1.078125q2.0 0 3.265625 1.3125q1.265625 1.296875 1.265625 3.609375q0 1.859375 -0.5625 2.9375q-0.5625 1.0625 -1.640625 1.65625q-1.0625 0.59375 -2.328125 0.59375q-2.03125 0 -3.28125 -1.296875q-1.25 -1.3125 -1.25 -3.765625zm1.6875 0q0 1.859375 0.796875 2.796875q0.8125 0.921875 2.046875 0.921875q1.21875 0 2.03125 -0.921875q0.8125 -0.9375 0.8125 -2.84375q0 -1.796875 -0.8125 -2.71875q-0.8125 -0.921875 -2.03125 -0.921875q-1.234375 0 -2.046875 0.921875q-0.796875 0.90625 -0.796875 2.765625zm15.625702 4.84375l0 -1.421875q-1.125 1.640625 -3.0625 1.640625q-0.859375 0 -1.609375 -0.328125q-0.734375 -0.328125 -1.09375 -0.828125q-0.359375 -0.5 -0.5 -1.21875q-0.109375 -0.46875 -0.109375 -1.53125l0 -5.984375l1.640625 0l0 5.359375q0 1.28125 0.109375 1.734375q0.15625 0.640625 0.65625 1.015625q0.5 0.375 1.234375 0.375q0.734375 0 1.375 -0.375q0.65625 -0.390625 0.921875 -1.03125q0.265625 -0.65625 0.265625 -1.890625l0 -5.1875l1.640625 0l0 9.671875l-1.46875 0zm7.6257324 -1.46875l0.234375 1.453125q-0.6875 0.140625 -1.234375 0.140625q-0.890625 0 -1.390625 -0.28125q-0.484375 -0.28125 -0.6875 -0.734375q-0.203125 -0.46875 -0.203125 -1.9375l0 -5.578125l-1.203125 0l0 -1.265625l1.203125 0l0 -2.390625l1.625 -0.984375l0 3.375l1.65625 0l0 1.265625l-1.65625 0l0 5.671875q0 0.6875 0.078125 0.890625q0.09375 0.203125 0.28125 0.328125q0.203125 0.109375 0.578125 0.109375q0.265625 0 0.71875 -0.0625zm9.319733 1.46875l-3.53125 -13.359375l1.8125 0l2.03125 8.765625q0.328125 1.375 0.5625 2.71875q0.5 -2.140625 0.59375 -2.46875l2.546875 -9.015625l2.125 0l1.921875 6.765625q0.71875 2.515625 1.03125 4.71875q0.265625 -1.265625 0.671875 -2.890625l2.09375 -8.59375l1.78125 0l-3.671875 13.359375l-1.703125 0l-2.8125 -10.171875q-0.359375 -1.28125 -0.421875 -1.5625q-0.203125 0.90625 -0.390625 1.5625l-2.828125 10.171875l-1.8125 0zm14.130798 -4.84375q0 -2.6875 1.484375 -3.96875q1.25 -1.078125 3.046875 -1.078125q2.0 0 3.265625 1.3125q1.265625 1.296875 1.265625 3.609375q0 1.859375 -0.5625 2.9375q-0.5625 1.0625 -1.640625 1.65625q-1.0625 0.59375 -2.328125 0.59375q-2.03125 0 -3.28125 -1.296875q-1.25 -1.3125 -1.25 -3.765625zm1.6875 0q0 1.859375 0.796875 2.796875q0.8125 0.921875 2.046875 0.921875q1.21875 0 2.03125 -0.921875q0.8125 -0.9375 0.8125 -2.84375q0 -1.796875 -0.8125 -2.71875q-0.8125 -0.921875 -2.03125 -0.921875q-1.234375 0 -2.046875 0.921875q-0.796875 0.90625 -0.796875 2.765625zm9.281952 4.84375l0 -9.671875l1.46875 0l0 1.46875q0.5625 -1.03125 1.03125 -1.359375q0.484375 -0.328125 1.0625 -0.328125q0.828125 0 1.6875 0.53125l-0.5625 1.515625q-0.609375 -0.359375 -1.203125 -0.359375q-0.546875 0 -0.96875 0.328125q-0.421875 0.328125 -0.609375 0.890625q-0.28125 0.875 -0.28125 1.921875l0 5.0625l-1.625 0zm6.228302 0l0 -13.359375l1.640625 0l0 7.625l3.890625 -3.9375l2.109375 0l-3.6875 3.59375l4.0625 6.078125l-2.015625 0l-3.203125 -4.953125l-1.15625 1.125l0 3.828125l-1.640625 0zm15.953125 -3.109375l1.6875 0.203125q-0.40625 1.484375 -1.484375 2.3125q-1.078125 0.8125 -2.765625 0.8125q-2.125 0 -3.375 -1.296875q-1.234375 -1.3125 -1.234375 -3.671875q0 -2.453125 1.25 -3.796875q1.265625 -1.34375 3.265625 -1.34375q1.9375 0 3.15625 1.328125q1.234375 1.3125 1.234375 3.703125q0 0.15625 0 0.4375l-7.21875 0q0.09375 1.59375 0.90625 2.453125q0.8125 0.84375 2.015625 0.84375q0.90625 0 1.546875 -0.46875q0.640625 -0.484375 1.015625 -1.515625zm-5.390625 -2.65625l5.40625 0q-0.109375 -1.21875 -0.625 -1.828125q-0.78125 -0.953125 -2.03125 -0.953125q-1.125 0 -1.90625 0.765625q-0.765625 0.75 -0.84375 2.015625zm9.125732 5.765625l0 -9.671875l1.46875 0l0 1.46875q0.5625 -1.03125 1.03125 -1.359375q0.484375 -0.328125 1.0625 -0.328125q0.828125 0 1.6875 0.53125l-0.5625 1.515625q-0.609375 -0.359375 -1.203125 -0.359375q-0.546875 0 -0.96875 0.328125q-0.421875 0.328125 -0.609375 0.890625q-0.28125 0.875 -0.28125 1.921875l0 5.0625l-1.625 0zm5.572052 -2.890625l1.625 -0.25q0.125 0.96875 0.75 1.5q0.625 0.515625 1.75 0.515625q1.125 0 1.671875 -0.453125q0.546875 -0.46875 0.546875 -1.09375q0 -0.546875 -0.484375 -0.875q-0.328125 -0.21875 -1.671875 -0.546875q-1.8125 -0.46875 -2.515625 -0.796875q-0.6875 -0.328125 -1.046875 -0.90625q-0.359375 -0.59375 -0.359375 -1.3125q0 -0.640625 0.296875 -1.1875q0.296875 -0.5625 0.8125 -0.921875q0.375 -0.28125 1.03125 -0.46875q0.671875 -0.203125 1.421875 -0.203125q1.140625 0 2.0 0.328125q0.859375 0.328125 1.265625 0.890625q0.421875 0.5625 0.578125 1.5l-1.609375 0.21875q-0.109375 -0.75 -0.640625 -1.171875q-0.515625 -0.421875 -1.46875 -0.421875q-1.140625 0 -1.625 0.375q-0.46875 0.375 -0.46875 0.875q0 0.3125 0.1875 0.578125q0.203125 0.265625 0.640625 0.4375q0.234375 0.09375 1.4375 0.421875q1.75 0.453125 2.4375 0.75q0.6875 0.296875 1.078125 0.859375q0.390625 0.5625 0.390625 1.40625q0 0.828125 -0.484375 1.546875q-0.46875 0.71875 -1.375 1.125q-0.90625 0.390625 -2.046875 0.390625q-1.875 0 -2.875 -0.78125q-0.984375 -0.78125 -1.25 -2.328125z" fill-rule="nonzero"/><path fill="#ffffff" d="m318.44882 48.372704l223.2756 0l0 46.708664l-223.2756 0z" fill-rule="evenodd"/><path stroke="#000000" stroke-width="1.0" stroke-linejoin="round" stroke-linecap="butt" d="m318.44882 48.372704l223.2756 0l0 46.708664l-223.2756 0z" fill-rule="evenodd"/><path fill="#000000" d="m365.37497 78.64703l0 -13.359375l5.921875 0q1.78125 0 2.703125 0.359375q0.9375 0.359375 1.484375 1.28125q0.5625 0.90625 0.5625 2.015625q0 1.40625 -0.921875 2.390625q-0.921875 0.96875 -2.84375 1.234375q0.703125 0.34375 1.078125 0.671875q0.765625 0.703125 1.453125 1.765625l2.328125 3.640625l-2.21875 0l-1.765625 -2.78125q-0.78125 -1.203125 -1.28125 -1.828125q-0.5 -0.640625 -0.90625 -0.890625q-0.390625 -0.265625 -0.796875 -0.359375q-0.296875 -0.078125 -0.984375 -0.078125l-2.046875 0l0 5.9375l-1.765625 0zm1.765625 -7.453125l3.796875 0q1.21875 0 1.890625 -0.25q0.6875 -0.265625 1.046875 -0.8125q0.359375 -0.546875 0.359375 -1.1875q0 -0.953125 -0.6875 -1.5625q-0.6875 -0.609375 -2.1875 -0.609375l-4.21875 0l0 4.421875zm10.863556 2.609375q0 -2.6875 1.484375 -3.96875q1.25 -1.078125 3.046875 -1.078125q2.0 0 3.265625 1.3125q1.265625 1.296875 1.265625 3.609375q0 1.859375 -0.5625 2.9375q-0.5625 1.0625 -1.640625 1.65625q-1.0625 0.59375 -2.328125 0.59375q-2.03125 0 -3.28125 -1.296875q-1.25 -1.3125 -1.25 -3.765625zm1.6875 0q0 1.859375 0.796875 2.796875q0.8125 0.921875 2.046875 0.921875q1.21875 0 2.03125 -0.921875q0.8125 -0.9375 0.8125 -2.84375q0 -1.796875 -0.8125 -2.71875q-0.8125 -0.921875 -2.03125 -0.921875q-1.234375 0 -2.046875 0.921875q-0.796875 0.90625 -0.796875 2.765625zm9.250732 4.84375l0 -13.359375l1.640625 0l0 13.359375l-1.640625 0zm4.144806 0l0 -13.359375l1.640625 0l0 13.359375l-1.640625 0zm3.5823364 -4.84375q0 -2.6875 1.484375 -3.96875q1.25 -1.078125 3.046875 -1.078125q2.0 0 3.265625 1.3125q1.265625 1.296875 1.265625 3.609375q0 1.859375 -0.5625 2.9375q-0.5625 1.0625 -1.640625 1.65625q-1.0625 0.59375 -2.328125 0.59375q-2.03125 0 -3.28125 -1.296875q-1.25 -1.3125 -1.25 -3.765625zm1.6875 0q0 1.859375 0.796875 2.796875q0.8125 0.921875 2.046875 0.921875q1.21875 0 2.03125 -0.921875q0.8125 -0.9375 0.8125 -2.84375q0 -1.796875 -0.8125 -2.71875q-0.8125 -0.921875 -2.03125 -0.921875q-1.234375 0 -2.046875 0.921875q-0.796875 0.90625 -0.796875 2.765625zm15.625702 4.84375l0 -1.421875q-1.125 1.640625 -3.0625 1.640625q-0.859375 0 -1.609375 -0.328125q-0.734375 -0.328125 -1.09375 -0.828125q-0.359375 -0.5 -0.5 -1.21875q-0.109375 -0.46875 -0.109375 -1.53125l0 -5.984375l1.640625 0l0 5.359375q0 1.28125 0.109375 1.734375q0.15625 0.640625 0.65625 1.015625q0.5 0.375 1.234375 0.375q0.734375 0 1.375 -0.375q0.65625 -0.390625 0.921875 -1.03125q0.265625 -0.65625 0.265625 -1.890625l0 -5.1875l1.640625 0l0 9.671875l-1.46875 0zm7.6257324 -1.46875l0.234375 1.453125q-0.6875 0.140625 -1.234375 0.140625q-0.890625 0 -1.390625 -0.28125q-0.484375 -0.28125 -0.6875 -0.734375q-0.203125 -0.46875 -0.203125 -1.9375l0 -5.578125l-1.203125 0l0 -1.265625l1.203125 0l0 -2.390625l1.625 -0.984375l0 3.375l1.65625 0l0 1.265625l-1.65625 0l0 5.671875q0 0.6875 0.078125 0.890625q0.09375 0.203125 0.28125 0.328125q0.203125 0.109375 0.578125 0.109375q0.265625 0 0.71875 -0.0625zm9.319733 1.46875l-3.53125 -13.359375l1.8125 0l2.03125 8.765625q0.328125 1.375 0.5625 2.71875q0.5 -2.140625 0.59375 -2.46875l2.546875 -9.015625l2.125 0l1.921875 6.765625q0.71875 2.515625 1.03125 4.71875q0.265625 -1.265625 0.671875 -2.890625l2.09375 -8.59375l1.78125 0l-3.671875 13.359375l-1.703125 0l-2.8125 -10.171875q-0.359375 -1.28125 -0.421875 -1.5625q-0.203125 0.90625 -0.390625 1.5625l-2.828125 10.171875l-1.8125 0zm14.130798 -4.84375q0 -2.6875 1.484375 -3.96875q1.25 -1.078125 3.046875 -1.078125q2.0 0 3.265625 1.3125q1.265625 1.296875 1.265625 3.609375q0 1.859375 -0.5625 2.9375q-0.5625 1.0625 -1.640625 1.65625q-1.0625 0.59375 -2.328125 0.59375q-2.03125 0 -3.28125 -1.296875q-1.25 -1.3125 -1.25 -3.765625zm1.6875 0q0 1.859375 0.796875 2.796875q0.8125 0.921875 2.046875 0.921875q1.21875 0 2.03125 -0.921875q0.8125 -0.9375 0.8125 -2.84375q0 -1.796875 -0.8125 -2.71875q-0.8125 -0.921875 -2.03125 -0.921875q-1.234375 0 -2.046875 0.921875q-0.796875 0.90625 -0.796875 2.765625zm9.281952 4.84375l0 -9.671875l1.46875 0l0 1.46875q0.5625 -1.03125 1.03125 -1.359375q0.484375 -0.328125 1.0625 -0.328125q0.828125 0 1.6875 0.53125l-0.5625 1.515625q-0.609375 -0.359375 -1.203125 -0.359375q-0.546875 0 -0.96875 0.328125q-0.421875 0.328125 -0.609375 0.890625q-0.28125 0.875 -0.28125 1.921875l0 5.0625l-1.625 0zm6.228302 0l0 -13.359375l1.640625 0l0 7.625l3.890625 -3.9375l2.109375 0l-3.6875 3.59375l4.0625 6.078125l-2.015625 0l-3.203125 -4.953125l-1.15625 1.125l0 3.828125l-1.640625 0zm15.953125 -3.109375l1.6875 0.203125q-0.40625 1.484375 -1.484375 2.3125q-1.078125 0.8125 -2.765625 0.8125q-2.125 0 -3.375 -1.296875q-1.234375 -1.3125 -1.234375 -3.671875q0 -2.453125 1.25 -3.796875q1.265625 -1.34375 3.265625 -1.34375q1.9375 0 3.15625 1.328125q1.234375 1.3125 1.234375 3.703125q0 0.15625 0 0.4375l-7.21875 0q0.09375 1.59375 0.90625 2.453125q0.8125 0.84375 2.015625 0.84375q0.90625 0 1.546875 -0.46875q0.640625 -0.484375 1.015625 -1.515625zm-5.390625 -2.65625l5.40625 0q-0.109375 -1.21875 -0.625 -1.828125q-0.78125 -0.953125 -2.03125 -0.953125q-1.125 0 -1.90625 0.765625q-0.765625 0.75 -0.84375 2.015625zm9.125732 5.765625l0 -9.671875l1.46875 0l0 1.46875q0.5625 -1.03125 1.03125 -1.359375q0.484375 -0.328125 1.0625 -0.328125q0.828125 0 1.6875 0.53125l-0.5625 1.515625q-0.609375 -0.359375 -1.203125 -0.359375q-0.546875 0 -0.96875 0.328125q-0.421875 0.328125 -0.609375 0.890625q-0.28125 0.875 -0.28125 1.921875l0 5.0625l-1.625 0zm5.572052 -2.890625l1.625 -0.25q0.125 0.96875 0.75 1.5q0.625 0.515625 1.75 0.515625q1.125 0 1.671875 -0.453125q0.546875 -0.46875 0.546875 -1.09375q0 -0.546875 -0.484375 -0.875q-0.328125 -0.21875 -1.671875 -0.546875q-1.8125 -0.46875 -2.515625 -0.796875q-0.6875 -0.328125 -1.046875 -0.90625q-0.359375 -0.59375 -0.359375 -1.3125q0 -0.640625 0.296875 -1.1875q0.296875 -0.5625 0.8125 -0.921875q0.375 -0.28125 1.03125 -0.46875q0.671875 -0.203125 1.421875 -0.203125q1.140625 0 2.0 0.328125q0.859375 0.328125 1.265625 0.890625q0.421875 0.5625 0.578125 1.5l-1.609375 0.21875q-0.109375 -0.75 -0.640625 -1.171875q-0.515625 -0.421875 -1.46875 -0.421875q-1.140625 0 -1.625 0.375q-0.46875 0.375 -0.46875 0.875q0 0.3125 0.1875 0.578125q0.203125 0.265625 0.640625 0.4375q0.234375 0.09375 1.4375 0.421875q1.75 0.453125 2.4375 0.75q0.6875 0.296875 1.078125 0.859375q0.390625 0.5625 0.390625 1.40625q0 0.828125 -0.484375 1.546875q-0.46875 0.71875 -1.375 1.125q-0.90625 0.390625 -2.046875 0.390625q-1.875 0 -2.875 -0.78125q-0.984375 -0.78125 -1.25 -2.328125z" fill-rule="nonzero"/><path fill="#ffffff" d="m326.44882 56.372704l223.2756 0l0 46.708664l-223.2756 0z" fill-rule="evenodd"/><path stroke="#000000" stroke-width="1.0" stroke-linejoin="round" stroke-linecap="butt" d="m326.44882 56.372704l223.2756 0l0 46.708664l-223.2756 0z" fill-rule="evenodd"/><path fill="#000000" d="m373.37497 86.64703l0 -13.359375l5.921875 0q1.78125 0 2.703125 0.359375q0.9375 0.359375 1.484375 1.28125q0.5625 0.90625 0.5625 2.015625q0 1.40625 -0.921875 2.390625q-0.921875 0.96875 -2.84375 1.234375q0.703125 0.34375 1.078125 0.671875q0.765625 0.703125 1.453125 1.765625l2.328125 3.640625l-2.21875 0l-1.765625 -2.78125q-0.78125 -1.203125 -1.28125 -1.828125q-0.5 -0.640625 -0.90625 -0.890625q-0.390625 -0.265625 -0.796875 -0.359375q-0.296875 -0.078125 -0.984375 -0.078125l-2.046875 0l0 5.9375l-1.765625 0zm1.765625 -7.453125l3.796875 0q1.21875 0 1.890625 -0.25q0.6875 -0.265625 1.046875 -0.8125q0.359375 -0.546875 0.359375 -1.1875q0 -0.953125 -0.6875 -1.5625q-0.6875 -0.609375 -2.1875 -0.609375l-4.21875 0l0 4.421875zm10.863556 2.609375q0 -2.6875 1.484375 -3.96875q1.25 -1.078125 3.046875 -1.078125q2.0 0 3.265625 1.3125q1.265625 1.296875 1.265625 3.609375q0 1.859375 -0.5625 2.9375q-0.5625 1.0625 -1.640625 1.65625q-1.0625 0.59375 -2.328125 0.59375q-2.03125 0 -3.28125 -1.296875q-1.25 -1.3125 -1.25 -3.765625zm1.6875 0q0 1.859375 0.796875 2.796875q0.8125 0.921875 2.046875 0.921875q1.21875 0 2.03125 -0.921875q0.8125 -0.9375 0.8125 -2.84375q0 -1.796875 -0.8125 -2.71875q-0.8125 -0.921875 -2.03125 -0.921875q-1.234375 0 -2.046875 0.921875q-0.796875 0.90625 -0.796875 2.765625zm9.250732 4.84375l0 -13.359375l1.640625 0l0 13.359375l-1.640625 0zm4.144806 0l0 -13.359375l1.640625 0l0 13.359375l-1.640625 0zm3.5823364 -4.84375q0 -2.6875 1.484375 -3.96875q1.25 -1.078125 3.046875 -1.078125q2.0 0 3.265625 1.3125q1.265625 1.296875 1.265625 3.609375q0 1.859375 -0.5625 2.9375q-0.5625 1.0625 -1.640625 1.65625q-1.0625 0.59375 -2.328125 0.59375q-2.03125 0 -3.28125 -1.296875q-1.25 -1.3125 -1.25 -3.765625zm1.6875 0q0 1.859375 0.796875 2.796875q0.8125 0.921875 2.046875 0.921875q1.21875 0 2.03125 -0.921875q0.8125 -0.9375 0.8125 -2.84375q0 -1.796875 -0.8125 -2.71875q-0.8125 -0.921875 -2.03125 -0.921875q-1.234375 0 -2.046875 0.921875q-0.796875 0.90625 -0.796875 2.765625zm15.625702 4.84375l0 -1.421875q-1.125 1.640625 -3.0625 1.640625q-0.859375 0 -1.609375 -0.328125q-0.734375 -0.328125 -1.09375 -0.828125q-0.359375 -0.5 -0.5 -1.21875q-0.109375 -0.46875 -0.109375 -1.53125l0 -5.984375l1.640625 0l0 5.359375q0 1.28125 0.109375 1.734375q0.15625 0.640625 0.65625 1.015625q0.5 0.375 1.234375 0.375q0.734375 0 1.375 -0.375q0.65625 -0.390625 0.921875 -1.03125q0.265625 -0.65625 0.265625 -1.890625l0 -5.1875l1.640625 0l0 9.671875l-1.46875 0zm7.6257324 -1.46875l0.234375 1.453125q-0.6875 0.140625 -1.234375 0.140625q-0.890625 0 -1.390625 -0.28125q-0.484375 -0.28125 -0.6875 -0.734375q-0.203125 -0.46875 -0.203125 -1.9375l0 -5.578125l-1.203125 0l0 -1.265625l1.203125 0l0 -2.390625l1.625 -0.984375l0 3.375l1.65625 0l0 1.265625l-1.65625 0l0 5.671875q0 0.6875 0.078125 0.890625q0.09375 0.203125 0.28125 0.328125q0.203125 0.109375 0.578125 0.109375q0.265625 0 0.71875 -0.0625zm9.319733 1.46875l-3.53125 -13.359375l1.8125 0l2.03125 8.765625q0.328125 1.375 0.5625 2.71875q0.5 -2.140625 0.59375 -2.46875l2.546875 -9.015625l2.125 0l1.921875 6.765625q0.71875 2.515625 1.03125 4.71875q0.265625 -1.265625 0.671875 -2.890625l2.09375 -8.59375l1.78125 0l-3.671875 13.359375l-1.703125 0l-2.8125 -10.171875q-0.359375 -1.28125 -0.421875 -1.5625q-0.203125 0.90625 -0.390625 1.5625l-2.828125 10.171875l-1.8125 0zm14.130798 -4.84375q0 -2.6875 1.484375 -3.96875q1.25 -1.078125 3.046875 -1.078125q2.0 0 3.265625 1.3125q1.265625 1.296875 1.265625 3.609375q0 1.859375 -0.5625 2.9375q-0.5625 1.0625 -1.640625 1.65625q-1.0625 0.59375 -2.328125 0.59375q-2.03125 0 -3.28125 -1.296875q-1.25 -1.3125 -1.25 -3.765625zm1.6875 0q0 1.859375 0.796875 2.796875q0.8125 0.921875 2.046875 0.921875q1.21875 0 2.03125 -0.921875q0.8125 -0.9375 0.8125 -2.84375q0 -1.796875 -0.8125 -2.71875q-0.8125 -0.921875 -2.03125 -0.921875q-1.234375 0 -2.046875 0.921875q-0.796875 0.90625 -0.796875 2.765625zm9.281952 4.84375l0 -9.671875l1.46875 0l0 1.46875q0.5625 -1.03125 1.03125 -1.359375q0.484375 -0.328125 1.0625 -0.328125q0.828125 0 1.6875 0.53125l-0.5625 1.515625q-0.609375 -0.359375 -1.203125 -0.359375q-0.546875 0 -0.96875 0.328125q-0.421875 0.328125 -0.609375 0.890625q-0.28125 0.875 -0.28125 1.921875l0 5.0625l-1.625 0zm6.228302 0l0 -13.359375l1.640625 0l0 7.625l3.890625 -3.9375l2.109375 0l-3.6875 3.59375l4.0625 6.078125l-2.015625 0l-3.203125 -4.953125l-1.15625 1.125l0 3.828125l-1.640625 0zm15.953125 -3.109375l1.6875 0.203125q-0.40625 1.484375 -1.484375 2.3125q-1.078125 0.8125 -2.765625 0.8125q-2.125 0 -3.375 -1.296875q-1.234375 -1.3125 -1.234375 -3.671875q0 -2.453125 1.25 -3.796875q1.265625 -1.34375 3.265625 -1.34375q1.9375 0 3.15625 1.328125q1.234375 1.3125 1.234375 3.703125q0 0.15625 0 0.4375l-7.21875 0q0.09375 1.59375 0.90625 2.453125q0.8125 0.84375 2.015625 0.84375q0.90625 0 1.546875 -0.46875q0.640625 -0.484375 1.015625 -1.515625zm-5.390625 -2.65625l5.40625 0q-0.109375 -1.21875 -0.625 -1.828125q-0.78125 -0.953125 -2.03125 -0.953125q-1.125 0 -1.90625 0.765625q-0.765625 0.75 -0.84375 2.015625zm9.125732 5.765625l0 -9.671875l1.46875 0l0 1.46875q0.5625 -1.03125 1.03125 -1.359375q0.484375 -0.328125 1.0625 -0.328125q0.828125 0 1.6875 0.53125l-0.5625 1.515625q-0.609375 -0.359375 -1.203125 -0.359375q-0.546875 0 -0.96875 0.328125q-0.421875 0.328125 -0.609375 0.890625q-0.28125 0.875 -0.28125 1.921875l0 5.0625l-1.625 0zm5.572052 -2.890625l1.625 -0.25q0.125 0.96875 0.75 1.5q0.625 0.515625 1.75 0.515625q1.125 0 1.671875 -0.453125q0.546875 -0.46875 0.546875 -1.09375q0 -0.546875 -0.484375 -0.875q-0.328125 -0.21875 -1.671875 -0.546875q-1.8125 -0.46875 -2.515625 -0.796875q-0.6875 -0.328125 -1.046875 -0.90625q-0.359375 -0.59375 -0.359375 -1.3125q0 -0.640625 0.296875 -1.1875q0.296875 -0.5625 0.8125 -0.921875q0.375 -0.28125 1.03125 -0.46875q0.671875 -0.203125 1.421875 -0.203125q1.140625 0 2.0 0.328125q0.859375 0.328125 1.265625 0.890625q0.421875 0.5625 0.578125 1.5l-1.609375 0.21875q-0.109375 -0.75 -0.640625 -1.171875q-0.515625 -0.421875 -1.46875 -0.421875q-1.140625 0 -1.625 0.375q-0.46875 0.375 -0.46875 0.875q0 0.3125 0.1875 0.578125q0.203125 0.265625 0.640625 0.4375q0.234375 0.09375 1.4375 0.421875q1.75 0.453125 2.4375 0.75q0.6875 0.296875 1.078125 0.859375q0.390625 0.5625 0.390625 1.40625q0 0.828125 -0.484375 1.546875q-0.46875 0.71875 -1.375 1.125q-0.90625 0.390625 -2.046875 0.390625q-1.875 0 -2.875 -0.78125q-0.984375 -0.78125 -1.25 -2.328125z" fill-rule="nonzero"/><path fill="#000000" fill-opacity="0.0" d="m511.50137 29.58773l0 -20.951708l-178.17285 0l0 25.00635" fill-rule="evenodd"/><path stroke="#000000" stroke-width="1.0" stroke-linejoin="round" stroke-linecap="butt" d="m511.50134 29.587732l0 -20.95171l-178.17282 0l0 19.006348" fill-rule="evenodd"/><path fill="#000000" stroke="#000000" stroke-width="1.0" stroke-linecap="butt" d="m331.6768 27.64237l1.6517334 4.5380993l1.6517334 -4.5380993z" fill-rule="evenodd"/><path fill="#000000" fill-opacity="0.0" d="m335.34027 109.14093l0 20.951706l178.17285 0l0 -25.006348" fill-rule="evenodd"/><path stroke="#000000" stroke-width="1.0" stroke-linejoin="round" stroke-linecap="butt" d="m335.34027 109.14093l0 20.951706l178.17285 0l0 -19.006348" fill-rule="evenodd"/><path fill="#000000" stroke="#000000" stroke-width="1.0" stroke-linecap="butt" d="m515.16486 111.08629l-1.6517334 -4.538101l-1.6517334 4.538101z" fill-rule="evenodd"/><path fill="#000000" fill-opacity="0.0" d="m356.91986 100.86351l178.17322 0.06299591l0 27.779518l-178.17322 -0.06298828z" fill-rule="evenodd"/><path fill="#6aa84f" d="m371.3105 121.80923q-0.65625 0.5622635 -1.265625 0.79642487q-0.59375 0.218544 -1.28125 0.21829987q-1.140625 -4.043579E-4 -1.75 -0.547493q-0.609375 -0.56272125 -0.609375 -1.4377213q0 -0.5 0.21875 -0.9217987q0.234375 -0.42179108 0.609375 -0.67165375q0.375 -0.2498703 0.84375 -0.39032745q0.34375 -0.07800293 1.046875 -0.17150879q1.421875 -0.17137146 2.09375 -0.40550995q0 -0.234375 0 -0.296875q0 -0.71875 -0.328125 -1.0157394q-0.453125 -0.39078522 -1.34375 -0.39109802q-0.8125 -2.89917E-4 -1.21875 0.29644012q-0.390625 0.28111267 -0.578125 1.0154266l-1.140625 -0.15665436q0.15625 -0.7343216 0.515625 -1.1873169q0.359375 -0.45300293 1.03125 -0.6871414q0.671875 -0.24975586 1.5625 -0.24944305q0.890625 3.1280518E-4 1.4375 0.20362854q0.5625 0.20332336 0.8125 0.5315399q0.265625 0.31259155 0.375 0.7970047q0.046875 0.2968979 0.046875 1.0781479l0 1.5625q0 1.625 0.078125 2.062523q0.078125 0.43753052 0.296875 0.8282318l-1.21875 -4.272461E-4q-0.1875 -0.35944366 -0.234375 -0.8594589zm-0.09375 -2.6094131q-0.640625 0.26540375 -1.921875 0.43682098q-0.71875 0.10912323 -1.015625 0.24964142q-0.296875 0.12489319 -0.46875 0.37483978q-0.15625 0.24993896 -0.15625 0.54681396q0 0.46875 0.34375 0.7813721q0.359375 0.3126297 1.046875 0.31287384q0.671875 2.3651123E-4 1.203125 -0.29645538q0.53125 -0.29668427 0.78125 -0.8122177q0.1875 -0.39056396 0.1875 -1.171814l0 -0.421875zm2.9749756 3.4698029l0 -9.546875l1.171875 4.119873E-4l0 9.546883l-1.171875 -4.196167E-4zm2.96109 0.001045227l0 -9.546875l1.171875 4.196167E-4l0 9.546875l-1.171875 -4.196167E-4zm2.96109 0.0010528564l0 -6.90625l1.0625 3.7384033E-4l0 1.046875q0.40625 -0.73423004 0.734375 -0.9684906q0.34375 -0.23425293 0.765625 -0.23410797q0.59375 2.1362305E-4 1.203125 0.37542725l-0.40625 1.07798q-0.4375 -0.2501526 -0.859375 -0.25030518q-0.390625 -1.373291E-4 -0.703125 0.23413086q-0.296875 0.23426819 -0.421875 0.6404724q-0.203125 0.62493134 -0.203125 1.3593063l0 3.625l-1.171875 -4.119873E-4zm9.188385 -2.2155075l1.203125 0.14105225q-0.28125 1.0624008 -1.0625 1.6558762q-0.765625 0.57785034 -1.96875 0.5774307q-1.515625 -5.340576E-4 -2.40625 -0.9383545q-0.890625 -0.9378128 -0.890625 -2.6096878q0 -1.75 0.890625 -2.7028122q0.90625 -0.96842957 2.34375 -0.9679184q1.390625 4.8828125E-4 2.265625 0.9383011q0.875 0.9378052 0.875 2.6565552q0 0.109375 0 0.3125l-5.15625 -0.0018234253q0.0625 1.1406479 0.640625 1.7502289q0.578125 0.593956 1.4375 0.59426117q0.65625 2.2888184E-4 1.109375 -0.3277359q0.453125 -0.34358978 0.71875 -1.0778732zm-3.84375 -1.907608l3.859375 0.0013656616q-0.078125 -0.8593979 -0.4375 -1.2970276q-0.5625 -0.68769836 -1.453125 -0.68801117q-0.8125 -2.89917E-4 -1.359375 0.54639435q-0.546875 0.53105164 -0.609375 1.4372787zm11.006226 4.128891l0 -0.875q-0.65625 1.0310211 -1.9375 1.030571q-0.8125 -2.89917E-4 -1.515625 -0.4536667q-0.6875 -0.45336914 -1.078125 -1.2660065q-0.375 -0.8282547 -0.375 -1.8907547q0 -1.03125 0.34375 -1.8748779q0.34375 -0.8436279 1.03125 -1.2808838q0.703125 -0.45288086 1.546875 -0.4525833q0.625 2.2125244E-4 1.109375 0.26602173q0.5 0.25017548 0.796875 0.6721573l0 -3.421875l1.171875 4.119873E-4l0 9.546875l-1.09375 -3.8909912E-4zm-3.703125 -3.4544296q0 1.328125 0.5625 1.9845734q0.5625 0.65644836 1.328125 0.6567154q0.765625 2.746582E-4 1.296875 -0.62454224q0.53125 -0.62480927 0.53125 -1.9060593q0 -1.421875 -0.546875 -2.0783157q-0.546875 -0.67207336 -1.34375 -0.67235565q-0.78125 -2.746582E-4 -1.3125 0.64016724q-0.515625 0.6248169 -0.515625 1.9998169zm11.162476 3.4570694l0 -1.015625q-0.8125 1.1715851 -2.1875 1.1711044q-0.609375 -2.2125244E-4 -1.140625 -0.23477936q-0.53125 -0.23456573 -0.796875 -0.5784073q-0.25 -0.35946655 -0.359375 -0.8751297q-0.0625 -0.3437729 -0.0625 -1.0937729l0 -4.28125l1.171875 4.196167E-4l0 3.828125q0 0.921875 0.0625 1.2343979q0.109375 0.46878815 0.46875 0.7345352q0.359375 0.2501297 0.890625 0.25032043q0.515625 1.7547607E-4 0.984375 -0.26528168q0.46875 -0.26545715 0.65625 -0.7341385q0.1875 -0.46868896 0.1875 -1.343689l0 -3.703125l1.171875 4.119873E-4l0 6.9062576l-1.046875 -3.7384033E-4zm7.3968506 -2.528633l1.15625 0.15665436q-0.1875 1.187439 -0.96875 1.8590317q-0.78125 0.67160034 -1.921875 0.671196q-1.40625 -4.9591064E-4 -2.28125 -0.9226761q-0.859375 -0.9378052 -0.859375 -2.6565552q0 -1.125 0.375 -1.9686203q0.375 -0.8436127 1.125 -1.2496033q0.765625 -0.42160034 1.65625 -0.42128754q1.125 3.9672852E-4 1.84375 0.5787811q0.71875 0.56275177 0.921875 1.6096954l-1.140625 0.17147064q-0.171875 -0.70318604 -0.59375 -1.047081q-0.40625 -0.35951996 -0.984375 -0.35972595q-0.890625 -3.1280518E-4 -1.453125 0.64011383q-0.546875 0.64043427 -0.546875 1.9998093q0 1.40625 0.53125 2.031433q0.546875 0.62519836 1.40625 0.6254959q0.6875 2.4414062E-4 1.140625 -0.42147064q0.46875 -0.42170715 0.59375 -1.2966614zm6.8828125 0.31493378l1.203125 0.14104462q-0.28125 1.0624008 -1.0625 1.6558762q-0.765625 0.577858 -1.96875 0.5774307q-1.515625 -5.340576E-4 -2.40625 -0.93834686q-0.890625 -0.93782043 -0.890625 -2.6096954q0 -1.75 0.890625 -2.7028122q0.90625 -0.96842957 2.34375 -0.9679184q1.390625 4.9591064E-4 2.265625 0.9383011q0.875 0.9378128 0.875 2.6565628q0 0.109375 0 0.3125l-5.15625 -0.0018234253q0.0625 1.1406479 0.640625 1.7502213q0.578125 0.593956 1.4375 0.59426117q0.65625 2.2888184E-4 1.109375 -0.3277359q0.453125 -0.34358978 0.71875 -1.0778656zm-3.84375 -1.907608l3.859375 0.0013580322q-0.078125 -0.8593979 -0.4375 -1.2970276q-0.5625 -0.68769836 -1.453125 -0.68801117q-0.8125 -2.89917E-4 -1.359375 0.54639435q-0.546875 0.53105164 -0.609375 1.4372864zm10.006073 4.7066574l1.140625 0.15665436q0.078125 0.5312805 0.40625 0.78139496q0.4375 0.3126526 1.1875 0.31291962q0.8125 2.89917E-4 1.25 -0.3276825q0.453125 -0.31233978 0.609375 -0.9060364q0.09375 -0.35933685 0.078125 -1.4999695q-0.765625 0.90597534 -1.90625 0.905571q-1.4375 -5.0354004E-4 -2.21875 -1.0320282q-0.78125 -1.0315323 -0.78125 -2.4690323q0 -0.984375 0.359375 -1.8123703q0.359375 -0.8436203 1.03125 -1.2965088q0.6875 -0.45288086 1.609375 -0.45256042q1.21875 4.348755E-4 2.015625 0.98509216l0 -0.828125l1.078125 3.8146973E-4l0 5.96875q0 1.609375 -0.328125 2.2811356q-0.328125 0.6873779 -1.046875 1.0777512q-0.703125 0.39038086 -1.75 0.39000702q-1.234375 -4.348755E-4 -2.0 -0.56320953q-0.75 -0.5627594 -0.734375 -1.6721344zm0.984375 -4.155899q0 1.359375 0.53125 1.9845657q0.546875 0.62519073 1.359375 0.62548065q0.796875 2.746582E-4 1.34375 -0.624527q0.546875 -0.62480927 0.546875 -1.9529343q0 -1.265625 -0.5625 -1.9064484q-0.5625 -0.64082336 -1.359375 -0.64110565q-0.765625 -2.670288E-4 -1.3125 0.6401596q-0.546875 0.62480927 -0.546875 1.8748093zm6.6312256 3.5804672l0 -6.90625l1.0625 3.7384033E-4l0 1.046875q0.40625 -0.73423004 0.734375 -0.9684906q0.34375 -0.23425293 0.765625 -0.23410034q0.59375 2.0599365E-4 1.203125 0.37542725l-0.40625 1.07798q-0.4375 -0.2501526 -0.859375 -0.25030518q-0.390625 -1.373291E-4 -0.703125 0.23412323q-0.296875 0.23427582 -0.421875 0.64048004q-0.203125 0.6249237 -0.203125 1.3592987l0 3.6250076l-1.171875 -4.196167E-4zm8.969635 -0.8562012q-0.65625 0.5622635 -1.265625 0.79642487q-0.59375 0.218544 -1.28125 0.21829987q-1.140625 -4.043579E-4 -1.75 -0.547493q-0.609375 -0.56272125 -0.609375 -1.4377213q0 -0.5 0.21875 -0.9217911q0.234375 -0.4217987 0.609375 -0.6716614q0.375 -0.2498703 0.84375 -0.39032745q0.34375 -0.07800293 1.046875 -0.17150879q1.421875 -0.17137146 2.09375 -0.40550995q0 -0.234375 0 -0.296875q0 -0.71875 -0.328125 -1.0157394q-0.453125 -0.39078522 -1.34375 -0.39109802q-0.8125 -2.89917E-4 -1.21875 0.29644775q-0.390625 0.28110504 -0.578125 1.015419l-1.140625 -0.15665436q0.15625 -0.7343216 0.515625 -1.1873169q0.359375 -0.45300293 1.03125 -0.6871338q0.671875 -0.24976349 1.5625 -0.24945068q0.890625 3.1280518E-4 1.4375 0.20363617q0.5625 0.20332336 0.8125 0.5315323q0.265625 0.31259918 0.375 0.7970123q0.046875 0.29689026 0.046875 1.0781403l0 1.5625q0 1.625 0.078125 2.062523q0.078125 0.43753052 0.296875 0.8282318l-1.21875 -4.272461E-4q-0.1875 -0.35944366 -0.234375 -0.8594589zm-0.09375 -2.6094131q-0.640625 0.26540375 -1.921875 0.43682098q-0.71875 0.10912323 -1.015625 0.24964142q-0.296875 0.12490082 -0.46875 0.37483978q-0.15625 0.24993896 -0.15625 0.54681396q0 0.46875 0.34375 0.7813721q0.359375 0.3126297 1.046875 0.31287384q0.671875 2.3651123E-4 1.203125 -0.29644775q0.53125 -0.2966919 0.78125 -0.81222534q0.1875 -0.39056396 0.1875 -1.171814l0 -0.421875zm7.4749756 3.4713974l0 -0.875q-0.65625 1.0310135 -1.9375 1.0305634q-0.8125 -2.89917E-4 -1.515625 -0.45365906q-0.6875 -0.45336914 -1.078125 -1.2660065q-0.375 -0.8282547 -0.375 -1.8907547q0 -1.03125 0.34375 -1.8748856q0.34375 -0.8436279 1.03125 -1.2808838q0.703125 -0.45287323 1.546875 -0.45257568q0.625 2.2125244E-4 1.109375 0.2660141q0.5 0.25017548 0.796875 0.6721573l0 -3.421875l1.171875 4.196167E-4l0 9.546875l-1.09375 -3.8909912E-4zm-3.703125 -3.4544373q0 1.328125 0.5625 1.9845734q0.5625 0.65644836 1.328125 0.656723q0.765625 2.670288E-4 1.296875 -0.62454224q0.53125 -0.62480927 0.53125 -1.9060593q0 -1.421875 -0.546875 -2.0783234q-0.546875 -0.67206573 -1.34375 -0.672348q-0.78125 -2.746582E-4 -1.3125 0.6401596q-0.515625 0.6248169 -0.515625 1.9998169zm6.6468506 -4.732025l0 -1.359375l1.171875 4.196167E-4l0 1.359375l-1.171875 -4.196167E-4zm0 8.1875l0 -6.90625l1.171875 4.196167E-4l0 6.90625l-1.171875 -4.196167E-4zm7.67984 -2.216034l1.203125 0.14105225q-0.28125 1.0624008 -1.0625 1.6558762q-0.765625 0.57785034 -1.96875 0.5774231q-1.515625 -5.340576E-4 -2.40625 -0.93834686q-0.890625 -0.9378128 -0.890625 -2.6096878q0 -1.75 0.890625 -2.7028122q0.90625 -0.96842957 2.34375 -0.9679184q1.390625 4.8828125E-4 2.265625 0.9383011q0.875 0.9378052 0.875 2.6565552q0 0.109375 0 0.3125l-5.15625 -0.0018234253q0.0625 1.1406479 0.640625 1.7502289q0.578125 0.593956 1.4375 0.59425354q0.65625 2.3651123E-4 1.109375 -0.32772827q0.453125 -0.34358978 0.71875 -1.0778732zm-3.84375 -1.907608l3.859375 0.0013656616q-0.078125 -0.8594055 -0.4375 -1.2970276q-0.5625 -0.68769836 -1.453125 -0.6880188q-0.8125 -2.822876E-4 -1.359375 0.54639435q-0.546875 0.53105927 -0.609375 1.4372864zm6.5218506 4.127304l0 -6.90625l1.0625 3.7384033E-4l0 0.984375q0.75 -1.140358 2.1875 -1.1398468q0.625 2.2125244E-4 1.15625 0.21915436q0.53125 0.21894073 0.78125 0.5940323q0.265625 0.35946655 0.375 0.8595047q0.0625 0.3281479 0.0625 1.1406479l0 4.25l-1.171875 -4.119873E-4l0 -4.203125q0 -0.71875 -0.140625 -1.0625534q-0.140625 -0.35942078 -0.484375 -0.56266785q-0.34375 -0.21887207 -0.8125 -0.21903992q-0.75 -2.670288E-4 -1.296875 0.46829224q-0.546875 0.46855927 -0.546875 1.7966843l0 3.78125l-1.171875 -4.196167E-4zm9.974976 -1.0433426l0.171875 1.031311q-0.5 0.109191895 -0.890625 0.109054565q-0.640625 -2.2125244E-4 -1.0 -0.20347595q-0.34375 -0.20324707 -0.484375 -0.5314255q-0.140625 -0.32817078 -0.140625 -1.3906708l0 -3.96875l-0.859375 -3.0517578E-4l0 -0.90625l0.859375 3.0517578E-4l0 -1.71875l1.171875 -0.702713l0 2.421875l1.171875 4.119873E-4l0 0.90625l-1.171875 -4.119873E-4l0 4.046875q0 0.5 0.046875 0.64064026q0.0625 0.14064789 0.203125 0.2344513q0.140625 0.07817078 0.40625 0.07826996q0.203125 6.866455E-5 0.515625 -0.046691895zm0.6717224 -1.0153885l1.15625 -0.18709564q0.109375 0.70316315 0.546875 1.0783234q0.453125 0.35953522 1.25 0.3598175q0.8125 2.822876E-4 1.203125 -0.32770538q0.390625 -0.32798767 0.390625 -0.7654877q0 -0.390625 -0.359375 -0.6251221q-0.234375 -0.15633392 -1.1875 -0.39104462q-1.296875 -0.32858276 -1.796875 -0.56314087q-0.484375 -0.25016785 -0.75 -0.6565094q-0.25 -0.42196655 -0.25 -0.93759155q0 -0.453125 0.203125 -0.84368134q0.21875 -0.40616608 0.578125 -0.671669q0.28125 -0.18740082 0.75 -0.32785797q0.46875 -0.14045715 1.015625 -0.14026642q0.8125 2.89917E-4 1.421875 0.23487854q0.609375 0.23458862 0.90625 0.64094543q0.296875 0.3907318 0.40625 1.062645l-1.140625 0.15584564q-0.078125 -0.5312805 -0.453125 -0.8282852q-0.375 -0.3126297 -1.0625 -0.31287384q-0.8125 -2.89917E-4 -1.15625 0.265213q-0.34375 0.26550293 -0.34375 0.6248779q0 0.234375 0.140625 0.4219284q0.15625 0.1875534 0.453125 0.31266022q0.171875 0.062561035 1.03125 0.29723358q1.25 0.3285675 1.734375 0.547493q0.5 0.20330048 0.78125 0.60964966q0.28125 0.40634918 0.28125 1.0000992q0 0.59375 -0.34375 1.1092529q-0.34375 0.5155029 -1.0 0.79652405q-0.640625 0.28102112 -1.453125 0.28073883q-1.34375 -4.8065186E-4 -2.046875 -0.5632248q-0.703125 -0.56275177 -0.90625 -1.6565704z" fill-rule="nonzero"/><path fill="#000000" fill-opacity="0.0" d="m154.9685 69.18898l156.18896 0" fill-rule="evenodd"/><path stroke="#000000" stroke-width="1.0" stroke-linejoin="round" stroke-linecap="butt" stroke-dasharray="1.0,3.0" d="m160.9685 69.18898l144.18896 0" fill-rule="evenodd"/><path fill="#000000" stroke="#000000" stroke-width="1.0" stroke-linecap="butt" d="m160.9685 67.53725l-4.538101 1.6517334l4.538101 1.6517258z" fill-rule="evenodd"/><path fill="#000000" stroke="#000000" stroke-width="1.0" stroke-linecap="butt" d="m305.15747 70.840706l4.5381165 -1.6517258l-4.5381165 -1.6517334z" fill-rule="evenodd"/><path fill="#000000" fill-opacity="0.0" d="m186.27956 24.3811l112.157486 0.031496048l0 27.779528l-112.157486 -0.031497955z" fill-rule="evenodd"/><path fill="#000000" d="m195.6858 44.12124l1.15625 -0.18717194q0.109375 0.7031555 0.546875 1.0782776q0.453125 0.35950089 1.25 0.35972595q0.8125 2.2888184E-4 1.203125 -0.3277893q0.390625 -0.32801437 0.390625 -0.7655144q0 -0.390625 -0.359375 -0.6250992q-0.234375 -0.15631866 -1.1875 -0.3909607q-1.296875 -0.3284874 -1.796875 -0.56300354q-0.484375 -0.25013733 -0.75 -0.6564598q-0.25 -0.42194748 -0.25 -0.9375725q0 -0.453125 0.203125 -0.8436928q0.21875 -0.40618896 0.578125 -0.67171097q0.28125 -0.18741989 0.75 -0.3279152q0.46875 -0.14049149 1.015625 -0.1403389q0.8125 2.2888184E-4 1.421875 0.23477554q0.609375 0.23454285 0.90625 0.64087677q0.296875 0.39070892 0.40625 1.0626144l-1.140625 0.15592957q-0.078125 -0.5312729 -0.453125 -0.8282509q-0.375 -0.3126068 -1.0625 -0.31279755q-0.8125 -2.2888184E-4 -1.15625 0.26529694q-0.34375 0.26552963 -0.34375 0.62490463q0 0.234375 0.140625 0.42191696q0.15625 0.18754196 0.453125 0.31262589q0.171875 0.06254959 1.03125 0.29716492q1.25 0.32847595 1.734375 0.5473633q0.5 0.20326233 0.78125 0.60959244q0.28125 0.4063301 0.28125 1.0000801q0 0.59375 -0.34375 1.1092758q-0.34375 0.51552963 -1.0 0.7965965q-0.640625 0.2810707 -1.453125 0.28084183q-1.34375 -3.7765503E-4 -2.046875 -0.563076q-0.703125 -0.56269836 -0.90625 -1.6565056zm7.0859375 4.7207413l-0.125 -1.0937843q0.375 0.10948181 0.65625 0.109558105q0.390625 1.1062622E-4 0.625 -0.14044952q0.234375 -0.12493515 0.390625 -0.35926437q0.109375 -0.17184448 0.359375 -0.8749008q0.03125 -0.093738556 0.109375 -0.28121948l-2.625 -6.922611l1.265625 3.5476685E-4l1.4375 4.0004044q0.28125 0.7657051 0.5 1.5938911q0.203125 -0.7968178 0.46875 -1.5779915l1.484375 -4.015209l1.171875 3.2806396E-4l-2.625 7.014889q-0.421875 1.1405067 -0.65625 1.5779419q-0.3125 0.57803726 -0.71875 0.8435478q-0.40625 0.28113556 -0.96875 0.28097534q-0.328125 -9.1552734E-5 -0.75 -0.15645981zm6.7109375 -2.6543655l0 -6.90625l1.0625 2.975464E-4l0 0.984375q0.75 -1.1404152 2.1875 -1.1400108q0.625 1.7547607E-4 1.15625 0.21907425q0.53125 0.21890259 0.78125 0.59397125q0.265625 0.3594513 0.375 0.8594818q0.0625 0.32814026 0.0625 1.1406403l0 4.25l-1.171875 -3.2806396E-4l0 -4.203125q0 -0.71875 -0.140625 -1.0625381q-0.140625 -0.35941696 -0.484375 -0.5626373q-0.34375 -0.21884537 -0.8125 -0.21897888q-0.75 -2.0980835E-4 -1.296875 0.4683876q-0.546875 0.4685936 -0.546875 1.7967186l0 3.78125l-1.171875 -3.2806396E-4zm11.928101 -2.5279007l1.15625 0.15657425q-0.1875 1.1874504 -0.96875 1.8591042q-0.78125 0.67165756 -1.921875 0.6713371q-1.40625 -3.9672852E-4 -2.28125 -0.92251587q-0.859375 -0.93774414 -0.859375 -2.6564941q0 -1.125 0.375 -1.9686432q0.375 -0.843647 1.125 -1.2496834q0.765625 -0.42166138 1.65625 -0.4214096q1.125 3.1280518E-4 1.84375 0.57864q0.71875 0.5627022 0.921875 1.6096344l-1.140625 0.17155457q-0.171875 -0.7031708 -0.59375 -1.047039q-0.40625 -0.35948944 -0.984375 -0.35965347q-0.890625 -2.4795532E-4 -1.453125 0.6402168q-0.546875 0.6404724 -0.546875 1.9998474q0 1.40625 0.53125 2.0313988q0.546875 0.6251526 1.40625 0.6253967q0.6875 1.9073486E-4 1.140625 -0.42155457q0.46875 -0.4217453 0.59375 -1.296711zm7.132675 2.5332527l-2.125 -6.906845l1.21875 3.4332275E-4l1.09375 3.9846802l0.421875 1.4844933q0.015625 -0.109371185 0.359375 -1.421772l1.09375 -4.04657l1.203125 3.3950806E-4l1.03125 4.00029l0.34375 1.3282204l0.40625 -1.3436356l1.171875 -3.984047l1.140625 3.2043457E-4l-2.15625 6.9056435l-1.21875 -3.3950806E-4l-1.09375 -4.140934l-0.265625 -1.1719513l-1.40625 5.312107l-1.21875 -3.4332275E-4zm13.078278 -2.2150764l1.203125 0.14096451q-0.28125 1.0624199 -1.0625 1.6559486q-0.765625 0.5779114 -1.96875 0.57757187q-1.515625 -4.234314E-4 -2.40625 -0.9381752q-0.890625 -0.93774796 -0.890625 -2.609623q0 -1.75 0.890625 -2.702877q0.90625 -0.9684944 2.34375 -0.96809006q1.390625 3.8909912E-4 2.265625 0.93813705q0.875 0.93774414 0.875 2.6564941q0 0.109375 0 0.3125l-5.15625 -0.001449585q0.0625 1.1406441 0.640625 1.7501831q0.578125 0.5939102 1.4375 0.59415054q0.65625 1.8692017E-4 1.109375 -0.3278122q0.453125 -0.34362411 0.71875 -1.0779228zm-3.84375 -1.9073296l3.859375 0.001083374q-0.078125 -0.8593979 -0.4375 -1.2969971q-0.5625 -0.6876564 -1.453125 -0.6879082q-0.8125 -2.2888184E-4 -1.359375 0.54649353q-0.546875 0.5310974 -0.609375 1.4373283zm6.5374756 -4.060665l0 -1.359375l1.171875 3.3187866E-4l0 1.359375l-1.171875 -3.3187866E-4zm0 8.1875l0 -6.90625l1.171875 3.3187866E-4l0 6.90625l-1.171875 -3.3187866E-4zm2.726715 0.57889175l1.140625 0.15657043q0.078125 0.5312729 0.40625 0.78136444q0.4375 0.31262207 1.1875 0.31283188q0.8125 2.2888184E-4 1.25 -0.32777405q0.453125 -0.3123703 0.609375 -0.90607834q0.09375 -0.3593483 0.078125 -1.4999771q-0.765625 0.9060364 -1.90625 0.90571594q-1.4375 -4.043579E-4 -2.21875 -1.0318756q-0.78125 -1.0314674 -0.78125 -2.4689674q0 -0.984375 0.359375 -1.8124008q0.359375 -0.843647 1.03125 -1.2965851q0.6875 -0.45293045 1.609375 -0.45267105q1.21875 3.3950806E-4 2.015625 0.9849396l0 -0.828125l1.078125 3.0136108E-4l0 5.96875q0 1.609375 -0.328125 2.2811584q-0.328125 0.68740845 -1.046875 1.0778313q-0.703125 0.39042664 -1.75 0.3901329q-1.234375 -3.4332275E-4 -2.0 -0.56306076q-0.75 -0.5627098 -0.734375 -1.672081zm0.984375 -4.1559715q0 1.359375 0.53125 1.9845238q0.546875 0.6251526 1.359375 0.62538147q0.796875 2.2125244E-4 1.34375 -0.62462234q0.546875 -0.6248474 0.546875 -1.9529724q0 -1.265625 -0.5625 -1.9064102q-0.5625 -0.6407814 -1.359375 -0.64100647q-0.765625 -2.1362305E-4 -1.3125 0.6402588q-0.546875 0.6248474 -0.546875 1.8748474zm6.6468506 3.5799904l0 -9.546875l1.171875 3.2806396E-4l0 3.421875q0.828125 -0.9372673 2.078125 -0.93691635q0.765625 2.1362305E-4 1.328125 0.29724884q0.5625 0.2970314 0.8125 0.8439789q0.25 0.53131866 0.25 1.5469437l0 4.375l-1.171875 -3.2806396E-4l0 -4.375q0 -0.890625 -0.390625 -1.2813606q-0.375 -0.4063568 -1.078125 -0.40655136q-0.515625 -1.449585E-4 -0.984375 0.28097153q-0.453125 0.26549911 -0.65625 0.7341919q-0.1875 0.4530716 -0.1875 1.2655716l0 3.78125l-1.171875 -3.2806396E-4zm9.974976 -1.044075l0.171875 1.0312996q-0.5 0.109233856 -0.890625 0.10912323q-0.640625 -1.7929077E-4 -1.0 -0.20340347q-0.34375 -0.20322418 -0.484375 -0.5313873q-0.140625 -0.32816315 -0.140625 -1.3906631l0 -3.96875l-0.859375 -2.4414062E-4l0 -0.90625l0.859375 2.4414062E-4l0 -1.71875l1.171875 -0.70279694l0 2.421875l1.171875 3.2806396E-4l0 0.90625l-1.171875 -3.2806396E-4l0 4.046875q0 0.5 0.046875 0.64063644q0.0625 0.14064407 0.203125 0.23443222q0.140625 0.07816696 0.40625 0.07823944q0.203125 5.722046E-5 0.515625 -0.04673004zm0.6717529 -1.0154343l1.15625 -0.18717575q0.109375 0.7031555 0.546875 1.0782776q0.453125 0.35950089 1.25 0.35972595q0.8125 2.2888184E-4 1.203125 -0.3277855q0.390625 -0.3280182 0.390625 -0.7655182q0 -0.390625 -0.359375 -0.6250992q-0.234375 -0.15631485 -1.1875 -0.3909607q-1.296875 -0.3284874 -1.796875 -0.56300354q-0.484375 -0.25013733 -0.75 -0.6564598q-0.25 -0.42194366 -0.25 -0.93756866q0 -0.453125 0.203125 -0.8436966q0.21875 -0.40618515 0.578125 -0.67171097q0.28125 -0.18741989 0.75 -0.3279152q0.46875 -0.14049149 1.015625 -0.1403389q0.8125 2.2888184E-4 1.421875 0.23477554q0.609375 0.23454666 0.90625 0.64087677q0.296875 0.39070892 0.40625 1.0626144l-1.140625 0.15592957q-0.078125 -0.5312691 -0.453125 -0.8282509q-0.375 -0.3126068 -1.0625 -0.31279755q-0.8125 -2.2888184E-4 -1.15625 0.26530075q-0.34375 0.26552582 -0.34375 0.6249008q0 0.234375 0.140625 0.42191696q0.15625 0.18754196 0.453125 0.31262589q0.171875 0.06254959 1.03125 0.29716492q1.25 0.32847595 1.734375 0.5473633q0.5 0.20326233 0.78125 0.60959244q0.28125 0.4063301 0.28125 1.0000801q0 0.59375 -0.34375 1.1092796q-0.34375 0.5155258 -1.0 0.7965927q-0.640625 0.2810707 -1.453125 0.28084183q-1.34375 -3.7765503E-4 -2.046875 -0.563076q-0.703125 -0.56269455 -0.90625 -1.6565018z" fill-rule="nonzero"/><path fill="#000000" d="m196.15456 64.840126l0 -9.562504l1.078125 3.0136108E-4l0 0.890625q0.375 -0.5311432 0.84375 -0.7810097q0.484375 -0.2654915 1.15625 -0.26530075q0.875 2.4414062E-4 1.546875 0.45355988q0.6875 0.45331573 1.03125 1.2815361q0.34375 0.8282242 0.34375 1.8282242q0 1.046875 -0.375 1.9061432q-0.375 0.843647 -1.109375 1.296566q-0.71875 0.45292282 -1.53125 0.45269394q-0.578125 -1.6403198E-4 -1.046875 -0.25029373q-0.46875 -0.2501335 -0.765625 -0.62521744l0 3.3750038l-1.171875 -3.2806396E-4zm1.0625 -6.0778313q0 1.34375 0.53125 1.9845238q0.546875 0.6251564 1.3125 0.62537q0.78125 2.2125244E-4 1.34375 -0.65587234q0.5625 -0.6560936 0.5625 -2.0467186q0 -1.3125 -0.546875 -1.9689026q-0.546875 -0.6720276 -1.296875 -0.6722374q-0.75 -2.1362305E-4 -1.328125 0.70275116q-0.578125 0.70296097 -0.578125 2.031086zm11.084351 1.2062378l1.203125 0.14096451q-0.28125 1.0624199 -1.0625 1.6559525q-0.765625 0.57790756 -1.96875 0.57757187q-1.515625 -4.272461E-4 -2.40625 -0.9381752q-0.890625 -0.93775177 -0.890625 -2.6096268q0 -1.75 0.890625 -2.7028732q0.90625 -0.96849823 2.34375 -0.9680939q1.390625 3.8909912E-4 2.265625 0.93813705q0.875 0.93774414 0.875 2.6564941q0 0.109375 0 0.3125l-5.15625 -0.0014457703q0.0625 1.1406403 0.640625 1.7501793q0.578125 0.5939102 1.4375 0.59415436q0.65625 1.8310547E-4 1.109375 -0.327816q0.453125 -0.3436203 0.71875 -1.0779228zm-3.84375 -1.9073296l3.859375 0.001083374q-0.078125 -0.8593941 -0.4375 -1.2969971q-0.5625 -0.6876564 -1.453125 -0.6879082q-0.8125 -2.2888184E-4 -1.359375 0.54649353q-0.546875 0.5310974 -0.609375 1.4373283zm6.5062256 4.1268272l0 -6.90625l1.0625 2.975464E-4l0 1.046875q0.40625 -0.73426056 0.734375 -0.9685402q0.34375 -0.23427963 0.765625 -0.23416138q0.59375 1.6784668E-4 1.203125 0.3753357l-0.40625 1.0780144q-0.4375 -0.25012589 -0.859375 -0.25024414q-0.390625 -1.0681152E-4 -0.703125 0.23418045q-0.296875 0.23429108 -0.421875 0.64050674q-0.203125 0.6249428 -0.203125 1.3593178l0 3.625l-1.171875 -3.3187866E-4zm4.4696198 -8.186245l0 -1.359375l1.171875 3.3187866E-4l0 1.359375l-1.171875 -3.3187866E-4zm0 8.1875l0 -6.90625l1.171875 3.3187866E-4l0 6.90625l-1.171875 -3.3187866E-4zm2.507965 -3.4524193q0 -1.921875 1.078125 -2.8434486q0.890625 -0.76537323 2.171875 -0.76501465q1.421875 4.005432E-4 2.328125 0.9381561q0.90625 0.92212677 0.90625 2.5783768q0 1.328125 -0.40625 2.0936356q-0.390625 0.7655182 -1.15625 1.1871758q-0.765625 0.42166138 -1.671875 0.4214058q-1.453125 -4.081726E-4 -2.359375 -0.92253494q-0.890625 -0.93775177 -0.890625 -2.6877518zm1.203125 3.3950806E-4q0 1.328125 0.578125 1.9845352q0.59375 0.65641785 1.46875 0.656662q0.875 2.4795532E-4 1.453125 -0.6558418q0.578125 -0.67171097 0.578125 -2.031086q0 -1.28125 -0.59375 -1.9376678q-0.578125 -0.65641403 -1.4375 -0.65665436q-0.875 -2.4414062E-4 -1.46875 0.655838q-0.578125 0.6560898 -0.578125 1.9842148zm11.131226 3.4562492l0 -0.875q-0.65625 1.0310669 -1.9375 1.0307045q-0.8125 -2.2506714E-4 -1.515625 -0.45354843q-0.6875 -0.45331955 -1.078125 -1.2659302q-0.375 -0.828228 -0.375 -1.890728q0 -1.03125 0.34375 -1.8749046q0.34375 -0.84365463 1.03125 -1.2809601q0.703125 -0.45292664 1.546875 -0.45269012q0.625 1.7547607E-4 1.109375 0.2659378q0.5 0.25013733 0.796875 0.67209625l0 -3.421875l1.171875 3.2806396E-4l0 9.546879l-1.09375 -3.0899048E-4zm-3.703125 -3.4541664q0 1.328125 0.5625 1.9845352q0.5625 0.6564064 1.328125 0.65662384q0.765625 2.1362305E-4 1.296875 -0.6246376q0.53125 -0.6248512 0.53125 -1.9061012q0 -1.421875 -0.546875 -2.0782776q-0.546875 -0.6720276 -1.34375 -0.67225266q-0.78125 -2.2125244E-4 -1.3125 0.640255q-0.515625 0.62485504 -0.515625 1.999855zm6.6468506 -4.732506l0 -1.359375l1.171875 3.2806396E-4l0 1.359375l-1.171875 -3.2806396E-4zm0 8.1875l0 -6.90625l1.171875 3.2806396E-4l0 6.90625l-1.171875 -3.2806396E-4zm7.46109 -2.5291557l1.15625 0.15657425q-0.1875 1.1874466 -0.96875 1.8591042q-0.78125 0.67165375 -1.921875 0.6713333q-1.40625 -3.9291382E-4 -2.28125 -0.92251587q-0.859375 -0.9377403 -0.859375 -2.6564903q0 -1.125 0.375 -1.9686432q0.375 -0.843647 1.125 -1.2496872q0.765625 -0.42165756 1.65625 -0.4214096q1.125 3.1661987E-4 1.84375 0.5786438q0.71875 0.5627022 0.921875 1.6096344l-1.140625 0.17155457q-0.171875 -0.7031746 -0.59375 -1.0470428q-0.40625 -0.35948944 -0.984375 -0.35964966q-0.890625 -2.5177002E-4 -1.453125 0.6402168q-0.546875 0.6404724 -0.546875 1.9998474q0 1.40625 0.53125 2.0313988q0.546875 0.6251526 1.40625 0.6253929q0.6875 1.9454956E-4 1.140625 -0.42155457q0.46875 -0.4217415 0.59375 -1.2967072zm6.6640625 1.673748q-0.65625 0.5623131 -1.265625 0.7965164q-0.59375 0.21858597 -1.28125 0.21839142q-1.140625 -3.2043457E-4 -1.75 -0.5473671q-0.609375 -0.56267166 -0.609375 -1.4376717q0 -0.5 0.21875 -0.92181396q0.234375 -0.42180634 0.609375 -0.67170334q0.375 -0.24989319 0.84375 -0.3903885q0.34375 -0.07802582 1.046875 -0.17158127q1.421875 -0.17147446 2.09375 -0.40565872q0 -0.234375 0 -0.296875q0 -0.71875 -0.328125 -1.0157204q-0.453125 -0.39075089 -1.34375 -0.39100266q-0.8125 -2.2506714E-4 -1.21875 0.2965355q-0.390625 0.28113937 -0.578125 1.015461l-1.140625 -0.15657043q0.15625 -0.7343292 0.515625 -1.187355q0.359375 -0.453022 1.03125 -0.6872101q0.671875 -0.24980927 1.5625 -0.24956131q0.890625 2.5177002E-4 1.4375 0.20352936q0.5625 0.2032814 0.8125 0.5314789q0.265625 0.31257248 0.375 0.796978q0.046875 0.29689026 0.046875 1.0781403l0 1.5625q0 1.625 0.078125 2.062523q0.078125 0.43751907 0.296875 0.8282051l-1.21875 -3.3950806E-4q-0.1875 -0.3594284 -0.234375 -0.85943985zm-0.09375 -2.6094017q-0.640625 0.2654419 -1.921875 0.4369583q-0.71875 0.10917282 -1.015625 0.2497139q-0.296875 0.12491608 -0.46875 0.3748703q-0.15625 0.24995422 -0.15625 0.5468292q0 0.46875 0.34375 0.7813492q0.359375 0.31259918 1.046875 0.31279373q0.671875 1.8692017E-4 1.203125 -0.2965393q0.53125 -0.29672623 0.78125 -0.81227875q0.1875 -0.3905716 0.1875 -1.1718216l0 -0.421875zm2.9749756 3.4695854l0 -9.546875l1.171875 3.2806396E-4l0 9.546875l-1.171875 -3.2806396E-4zm2.96109 8.31604E-4l0 -9.546875l1.171875 3.2806396E-4l0 9.546875l-1.171875 -3.2806396E-4zm2.92984 2.657074l-0.125 -1.0937881q0.375 0.10948181 0.65625 0.109558105q0.390625 1.1062622E-4 0.625 -0.14044952q0.234375 -0.124931335 0.390625 -0.35926437q0.109375 -0.17184448 0.359375 -0.874897q0.03125 -0.09374237 0.109375 -0.28121948l-2.625 -6.922615l1.265625 3.5858154E-4l1.4375 4.0004005q0.28125 0.7657051 0.5 1.5938911q0.203125 -0.7968178 0.46875 -1.5779915l1.484375 -4.015209l1.171875 3.2806396E-4l-2.625 7.014889q-0.421875 1.1405067 -0.65625 1.5779419q-0.3125 0.57803726 -0.71875 0.8435478q-0.40625 0.28113556 -0.96875 0.28097534q-0.328125 -9.1552734E-5 -0.75 -0.156456z" fill-rule="nonzero"/></g></svg>