<svg width="182" height="55" viewBox="0 0 182 55" fill="none" xmlns="http://www.w3.org/2000/svg">
<path d="M72.4297 42.7383V13.0631H84.8933C86.7303 13.0631 88.3412 13.3881 89.7261 14.0381C91.1392 14.6599 92.2273 15.5643 92.9904 16.7513C93.7817 17.9383 94.1774 19.3514 94.1774 20.9906V21.4569C94.1774 23.3222 93.7252 24.8201 92.8208 25.9506C91.9447 27.0528 90.8707 27.83 89.5989 28.2822V28.9605C90.6729 29.017 91.5349 29.3844 92.1849 30.0627C92.8349 30.7128 93.1599 31.6595 93.1599 32.9031V42.7383H88.5391V33.539C88.5391 32.7759 88.3412 32.1683 87.9456 31.7161C87.5499 31.2639 86.914 31.0378 86.0379 31.0378H77.0081V42.7383H72.4297ZM77.0081 26.8832H84.3845C86.0237 26.8832 87.2955 26.4734 88.1999 25.6538C89.1043 24.806 89.5565 23.6614 89.5565 22.22V21.8808C89.5565 20.4395 89.1043 19.309 88.1999 18.4894C87.3238 17.6415 86.052 17.2176 84.3845 17.2176H77.0081V26.8832ZM99.2152 42.7383V13.0631H103.794V38.5838H118.08V42.7383H99.2152ZM122.275 42.7383V13.0631H126.853V38.5838H141.14V42.7383H122.275ZM145.334 42.7383V13.0631H149.913V42.7383H145.334ZM154.996 42.7383V38.6685H158.981V17.1328H154.996V13.0631H170.046C171.826 13.0631 173.38 13.3739 174.709 13.9957C176.037 14.5892 177.069 15.4512 177.804 16.5817C178.567 17.6839 178.948 18.9981 178.948 20.5243V20.9482C178.948 22.3048 178.694 23.4211 178.185 24.2973C177.676 25.1734 177.055 25.8517 176.32 26.3321C175.613 26.8126 174.935 27.1517 174.285 27.3496V28.0279C174.935 28.1974 175.627 28.5366 176.362 29.0453C177.125 29.5257 177.761 30.204 178.27 31.0802C178.807 31.9563 179.075 33.1009 179.075 34.514V34.9379C179.075 36.5771 178.694 37.9761 177.931 39.1349C177.168 40.2936 176.108 41.1839 174.751 41.8056C173.423 42.4274 171.883 42.7383 170.13 42.7383H154.996ZM163.602 38.5838H169.579C171.105 38.5838 172.307 38.2163 173.183 37.4815C174.059 36.7467 174.497 35.7293 174.497 34.4292V34.0477C174.497 32.7476 174.059 31.7302 173.183 30.9954C172.335 30.2606 171.134 29.8932 169.579 29.8932H163.602V38.5838ZM163.602 25.6962H169.579C171.021 25.6962 172.179 25.343 173.055 24.6364C173.932 23.9016 174.37 22.9124 174.37 21.6689V21.2449C174.37 20.0014 173.932 19.0264 173.055 18.3198C172.208 17.585 171.049 17.2176 169.579 17.2176H163.602V25.6962Z" fill="black"/>
<path fill-rule="evenodd" clip-rule="evenodd" d="M45.5592 28.6016L25.6592 48.5016L24.2021 47.0445L44.1021 27.1445L45.5592 28.6016Z" fill="#7A55FF"/>
<path fill-rule="evenodd" clip-rule="evenodd" d="M44.8231 29.0528L5.08203 29.0528L5.08203 26.9922L44.8231 26.9922L44.8231 29.0528Z" fill="#7A55FF"/>
<path fill-rule="evenodd" clip-rule="evenodd" d="M24.2025 8.70319L44.1025 28.6032L45.5596 27.1461L25.6596 7.24609L24.2025 8.70319Z" fill="#7A55FF"/>
<rect x="0.0556641" y="22.8984" width="9.95" height="9.95" fill="#7A55FF"/>
<rect x="19.9561" y="22.8984" width="9.95" height="9.95" fill="#7A55FF"/>
<rect x="19.9561" y="3" width="9.95" height="9.95" fill="#7A55FF"/>
<rect x="19.9561" y="42.8008" width="9.95" height="9.95" fill="#7A55FF"/>
<rect x="39.8555" y="22.8984" width="9.95" height="9.95" fill="#7A55FF"/>
</svg>
